<?xml version="1.0" encoding="utf-8" standalone="no"?>
<!DOCTYPE svg PUBLIC "-//W3C//DTD SVG 1.1//EN"
  "http://www.w3.org/Graphics/SVG/1.1/DTD/svg11.dtd">
<svg xmlns:xlink="http://www.w3.org/1999/xlink" width="408.10125pt" height="325.986375pt" viewBox="0 0 408.10125 325.986375" xmlns="http://www.w3.org/2000/svg" version="1.1">
 <metadata>
  <rdf:RDF xmlns:dc="http://purl.org/dc/elements/1.1/" xmlns:cc="http://creativecommons.org/ns#" xmlns:rdf="http://www.w3.org/1999/02/22-rdf-syntax-ns#">
   <cc:Work>
    <dc:type rdf:resource="http://purl.org/dc/dcmitype/StillImage"/>
    <dc:date>2023-10-14T20:58:28.018569</dc:date>
    <dc:format>image/svg+xml</dc:format>
    <dc:creator>
     <cc:Agent>
      <dc:title>Matplotlib v3.7.2, https://matplotlib.org/</dc:title>
     </cc:Agent>
    </dc:creator>
   </cc:Work>
  </rdf:RDF>
 </metadata>
 <defs>
  <style type="text/css">*{stroke-linejoin: round; stroke-linecap: butt}</style>
 </defs>
 <g id="figure_1">
  <g id="patch_1">
   <path d="M 0 325.986375 
L 408.10125 325.986375 
L 408.10125 0 
L 0 0 
z
" style="fill: #ffffff"/>
  </g>
  <g id="axes_1">
   <g id="patch_2">
    <path d="M 43.78125 288.430125 
L 400.90125 288.430125 
L 400.90125 22.318125 
L 43.78125 22.318125 
z
" style="fill: #ffffff"/>
   </g>
   <g id="matplotlib.axis_1">
    <g id="xtick_1">
     <g id="line2d_1">
      <defs>
       <path id="m4a21732250" d="M 0 0 
L 0 3.5 
" style="stroke: #000000; stroke-width: 0.8"/>
      </defs>
      <g>
       <use xlink:href="#m4a21732250" x="89.320042" y="288.430125" style="stroke: #000000; stroke-width: 0.8"/>
      </g>
     </g>
     <g id="text_1">
      <!-- 200 -->
      <g transform="translate(79.776292 303.028562) scale(0.1 -0.1)">
       <defs>
        <path id="DejaVuSans-32" d="M 1228 531 
L 3431 531 
L 3431 0 
L 469 0 
L 469 531 
Q 828 903 1448 1529 
Q 2069 2156 2228 2338 
Q 2531 2678 2651 2914 
Q 2772 3150 2772 3378 
Q 2772 3750 2511 3984 
Q 2250 4219 1831 4219 
Q 1534 4219 1204 4116 
Q 875 4013 500 3803 
L 500 4441 
Q 881 4594 1212 4672 
Q 1544 4750 1819 4750 
Q 2544 4750 2975 4387 
Q 3406 4025 3406 3419 
Q 3406 3131 3298 2873 
Q 3191 2616 2906 2266 
Q 2828 2175 2409 1742 
Q 1991 1309 1228 531 
z
" transform="scale(0.015625)"/>
        <path id="DejaVuSans-30" d="M 2034 4250 
Q 1547 4250 1301 3770 
Q 1056 3291 1056 2328 
Q 1056 1369 1301 889 
Q 1547 409 2034 409 
Q 2525 409 2770 889 
Q 3016 1369 3016 2328 
Q 3016 3291 2770 3770 
Q 2525 4250 2034 4250 
z
M 2034 4750 
Q 2819 4750 3233 4129 
Q 3647 3509 3647 2328 
Q 3647 1150 3233 529 
Q 2819 -91 2034 -91 
Q 1250 -91 836 529 
Q 422 1150 422 2328 
Q 422 3509 836 4129 
Q 1250 4750 2034 4750 
z
" transform="scale(0.015625)"/>
       </defs>
       <use xlink:href="#DejaVuSans-32"/>
       <use xlink:href="#DejaVuSans-30" x="63.623047"/>
       <use xlink:href="#DejaVuSans-30" x="127.246094"/>
      </g>
     </g>
    </g>
    <g id="xtick_2">
     <g id="line2d_2">
      <g>
       <use xlink:href="#m4a21732250" x="137.255612" y="288.430125" style="stroke: #000000; stroke-width: 0.8"/>
      </g>
     </g>
     <g id="text_2">
      <!-- 400 -->
      <g transform="translate(127.711862 303.028562) scale(0.1 -0.1)">
       <defs>
        <path id="DejaVuSans-34" d="M 2419 4116 
L 825 1625 
L 2419 1625 
L 2419 4116 
z
M 2253 4666 
L 3047 4666 
L 3047 1625 
L 3713 1625 
L 3713 1100 
L 3047 1100 
L 3047 0 
L 2419 0 
L 2419 1100 
L 313 1100 
L 313 1709 
L 2253 4666 
z
" transform="scale(0.015625)"/>
       </defs>
       <use xlink:href="#DejaVuSans-34"/>
       <use xlink:href="#DejaVuSans-30" x="63.623047"/>
       <use xlink:href="#DejaVuSans-30" x="127.246094"/>
      </g>
     </g>
    </g>
    <g id="xtick_3">
     <g id="line2d_3">
      <g>
       <use xlink:href="#m4a21732250" x="185.191183" y="288.430125" style="stroke: #000000; stroke-width: 0.8"/>
      </g>
     </g>
     <g id="text_3">
      <!-- 600 -->
      <g transform="translate(175.647433 303.028562) scale(0.1 -0.1)">
       <defs>
        <path id="DejaVuSans-36" d="M 2113 2584 
Q 1688 2584 1439 2293 
Q 1191 2003 1191 1497 
Q 1191 994 1439 701 
Q 1688 409 2113 409 
Q 2538 409 2786 701 
Q 3034 994 3034 1497 
Q 3034 2003 2786 2293 
Q 2538 2584 2113 2584 
z
M 3366 4563 
L 3366 3988 
Q 3128 4100 2886 4159 
Q 2644 4219 2406 4219 
Q 1781 4219 1451 3797 
Q 1122 3375 1075 2522 
Q 1259 2794 1537 2939 
Q 1816 3084 2150 3084 
Q 2853 3084 3261 2657 
Q 3669 2231 3669 1497 
Q 3669 778 3244 343 
Q 2819 -91 2113 -91 
Q 1303 -91 875 529 
Q 447 1150 447 2328 
Q 447 3434 972 4092 
Q 1497 4750 2381 4750 
Q 2619 4750 2861 4703 
Q 3103 4656 3366 4563 
z
" transform="scale(0.015625)"/>
       </defs>
       <use xlink:href="#DejaVuSans-36"/>
       <use xlink:href="#DejaVuSans-30" x="63.623047"/>
       <use xlink:href="#DejaVuSans-30" x="127.246094"/>
      </g>
     </g>
    </g>
    <g id="xtick_4">
     <g id="line2d_4">
      <g>
       <use xlink:href="#m4a21732250" x="233.126753" y="288.430125" style="stroke: #000000; stroke-width: 0.8"/>
      </g>
     </g>
     <g id="text_4">
      <!-- 800 -->
      <g transform="translate(223.583003 303.028562) scale(0.1 -0.1)">
       <defs>
        <path id="DejaVuSans-38" d="M 2034 2216 
Q 1584 2216 1326 1975 
Q 1069 1734 1069 1313 
Q 1069 891 1326 650 
Q 1584 409 2034 409 
Q 2484 409 2743 651 
Q 3003 894 3003 1313 
Q 3003 1734 2745 1975 
Q 2488 2216 2034 2216 
z
M 1403 2484 
Q 997 2584 770 2862 
Q 544 3141 544 3541 
Q 544 4100 942 4425 
Q 1341 4750 2034 4750 
Q 2731 4750 3128 4425 
Q 3525 4100 3525 3541 
Q 3525 3141 3298 2862 
Q 3072 2584 2669 2484 
Q 3125 2378 3379 2068 
Q 3634 1759 3634 1313 
Q 3634 634 3220 271 
Q 2806 -91 2034 -91 
Q 1263 -91 848 271 
Q 434 634 434 1313 
Q 434 1759 690 2068 
Q 947 2378 1403 2484 
z
M 1172 3481 
Q 1172 3119 1398 2916 
Q 1625 2713 2034 2713 
Q 2441 2713 2670 2916 
Q 2900 3119 2900 3481 
Q 2900 3844 2670 4047 
Q 2441 4250 2034 4250 
Q 1625 4250 1398 4047 
Q 1172 3844 1172 3481 
z
" transform="scale(0.015625)"/>
       </defs>
       <use xlink:href="#DejaVuSans-38"/>
       <use xlink:href="#DejaVuSans-30" x="63.623047"/>
       <use xlink:href="#DejaVuSans-30" x="127.246094"/>
      </g>
     </g>
    </g>
    <g id="xtick_5">
     <g id="line2d_5">
      <g>
       <use xlink:href="#m4a21732250" x="281.062324" y="288.430125" style="stroke: #000000; stroke-width: 0.8"/>
      </g>
     </g>
     <g id="text_5">
      <!-- 1000 -->
      <g transform="translate(268.337324 303.028562) scale(0.1 -0.1)">
       <defs>
        <path id="DejaVuSans-31" d="M 794 531 
L 1825 531 
L 1825 4091 
L 703 3866 
L 703 4441 
L 1819 4666 
L 2450 4666 
L 2450 531 
L 3481 531 
L 3481 0 
L 794 0 
L 794 531 
z
" transform="scale(0.015625)"/>
       </defs>
       <use xlink:href="#DejaVuSans-31"/>
       <use xlink:href="#DejaVuSans-30" x="63.623047"/>
       <use xlink:href="#DejaVuSans-30" x="127.246094"/>
       <use xlink:href="#DejaVuSans-30" x="190.869141"/>
      </g>
     </g>
    </g>
    <g id="xtick_6">
     <g id="line2d_6">
      <g>
       <use xlink:href="#m4a21732250" x="328.997894" y="288.430125" style="stroke: #000000; stroke-width: 0.8"/>
      </g>
     </g>
     <g id="text_6">
      <!-- 1200 -->
      <g transform="translate(316.272894 303.028562) scale(0.1 -0.1)">
       <use xlink:href="#DejaVuSans-31"/>
       <use xlink:href="#DejaVuSans-32" x="63.623047"/>
       <use xlink:href="#DejaVuSans-30" x="127.246094"/>
       <use xlink:href="#DejaVuSans-30" x="190.869141"/>
      </g>
     </g>
    </g>
    <g id="xtick_7">
     <g id="line2d_7">
      <g>
       <use xlink:href="#m4a21732250" x="376.933465" y="288.430125" style="stroke: #000000; stroke-width: 0.8"/>
      </g>
     </g>
     <g id="text_7">
      <!-- 1400 -->
      <g transform="translate(364.208465 303.028562) scale(0.1 -0.1)">
       <use xlink:href="#DejaVuSans-31"/>
       <use xlink:href="#DejaVuSans-34" x="63.623047"/>
       <use xlink:href="#DejaVuSans-30" x="127.246094"/>
       <use xlink:href="#DejaVuSans-30" x="190.869141"/>
      </g>
     </g>
    </g>
    <g id="text_8">
     <!-- Number of edges -->
     <g transform="translate(179.151406 316.706687) scale(0.1 -0.1)">
      <defs>
       <path id="DejaVuSans-4e" d="M 628 4666 
L 1478 4666 
L 3547 763 
L 3547 4666 
L 4159 4666 
L 4159 0 
L 3309 0 
L 1241 3903 
L 1241 0 
L 628 0 
L 628 4666 
z
" transform="scale(0.015625)"/>
       <path id="DejaVuSans-75" d="M 544 1381 
L 544 3500 
L 1119 3500 
L 1119 1403 
Q 1119 906 1312 657 
Q 1506 409 1894 409 
Q 2359 409 2629 706 
Q 2900 1003 2900 1516 
L 2900 3500 
L 3475 3500 
L 3475 0 
L 2900 0 
L 2900 538 
Q 2691 219 2414 64 
Q 2138 -91 1772 -91 
Q 1169 -91 856 284 
Q 544 659 544 1381 
z
M 1991 3584 
L 1991 3584 
z
" transform="scale(0.015625)"/>
       <path id="DejaVuSans-6d" d="M 3328 2828 
Q 3544 3216 3844 3400 
Q 4144 3584 4550 3584 
Q 5097 3584 5394 3201 
Q 5691 2819 5691 2113 
L 5691 0 
L 5113 0 
L 5113 2094 
Q 5113 2597 4934 2840 
Q 4756 3084 4391 3084 
Q 3944 3084 3684 2787 
Q 3425 2491 3425 1978 
L 3425 0 
L 2847 0 
L 2847 2094 
Q 2847 2600 2669 2842 
Q 2491 3084 2119 3084 
Q 1678 3084 1418 2786 
Q 1159 2488 1159 1978 
L 1159 0 
L 581 0 
L 581 3500 
L 1159 3500 
L 1159 2956 
Q 1356 3278 1631 3431 
Q 1906 3584 2284 3584 
Q 2666 3584 2933 3390 
Q 3200 3197 3328 2828 
z
" transform="scale(0.015625)"/>
       <path id="DejaVuSans-62" d="M 3116 1747 
Q 3116 2381 2855 2742 
Q 2594 3103 2138 3103 
Q 1681 3103 1420 2742 
Q 1159 2381 1159 1747 
Q 1159 1113 1420 752 
Q 1681 391 2138 391 
Q 2594 391 2855 752 
Q 3116 1113 3116 1747 
z
M 1159 2969 
Q 1341 3281 1617 3432 
Q 1894 3584 2278 3584 
Q 2916 3584 3314 3078 
Q 3713 2572 3713 1747 
Q 3713 922 3314 415 
Q 2916 -91 2278 -91 
Q 1894 -91 1617 61 
Q 1341 213 1159 525 
L 1159 0 
L 581 0 
L 581 4863 
L 1159 4863 
L 1159 2969 
z
" transform="scale(0.015625)"/>
       <path id="DejaVuSans-65" d="M 3597 1894 
L 3597 1613 
L 953 1613 
Q 991 1019 1311 708 
Q 1631 397 2203 397 
Q 2534 397 2845 478 
Q 3156 559 3463 722 
L 3463 178 
Q 3153 47 2828 -22 
Q 2503 -91 2169 -91 
Q 1331 -91 842 396 
Q 353 884 353 1716 
Q 353 2575 817 3079 
Q 1281 3584 2069 3584 
Q 2775 3584 3186 3129 
Q 3597 2675 3597 1894 
z
M 3022 2063 
Q 3016 2534 2758 2815 
Q 2500 3097 2075 3097 
Q 1594 3097 1305 2825 
Q 1016 2553 972 2059 
L 3022 2063 
z
" transform="scale(0.015625)"/>
       <path id="DejaVuSans-72" d="M 2631 2963 
Q 2534 3019 2420 3045 
Q 2306 3072 2169 3072 
Q 1681 3072 1420 2755 
Q 1159 2438 1159 1844 
L 1159 0 
L 581 0 
L 581 3500 
L 1159 3500 
L 1159 2956 
Q 1341 3275 1631 3429 
Q 1922 3584 2338 3584 
Q 2397 3584 2469 3576 
Q 2541 3569 2628 3553 
L 2631 2963 
z
" transform="scale(0.015625)"/>
       <path id="DejaVuSans-20" transform="scale(0.015625)"/>
       <path id="DejaVuSans-6f" d="M 1959 3097 
Q 1497 3097 1228 2736 
Q 959 2375 959 1747 
Q 959 1119 1226 758 
Q 1494 397 1959 397 
Q 2419 397 2687 759 
Q 2956 1122 2956 1747 
Q 2956 2369 2687 2733 
Q 2419 3097 1959 3097 
z
M 1959 3584 
Q 2709 3584 3137 3096 
Q 3566 2609 3566 1747 
Q 3566 888 3137 398 
Q 2709 -91 1959 -91 
Q 1206 -91 779 398 
Q 353 888 353 1747 
Q 353 2609 779 3096 
Q 1206 3584 1959 3584 
z
" transform="scale(0.015625)"/>
       <path id="DejaVuSans-66" d="M 2375 4863 
L 2375 4384 
L 1825 4384 
Q 1516 4384 1395 4259 
Q 1275 4134 1275 3809 
L 1275 3500 
L 2222 3500 
L 2222 3053 
L 1275 3053 
L 1275 0 
L 697 0 
L 697 3053 
L 147 3053 
L 147 3500 
L 697 3500 
L 697 3744 
Q 697 4328 969 4595 
Q 1241 4863 1831 4863 
L 2375 4863 
z
" transform="scale(0.015625)"/>
       <path id="DejaVuSans-64" d="M 2906 2969 
L 2906 4863 
L 3481 4863 
L 3481 0 
L 2906 0 
L 2906 525 
Q 2725 213 2448 61 
Q 2172 -91 1784 -91 
Q 1150 -91 751 415 
Q 353 922 353 1747 
Q 353 2572 751 3078 
Q 1150 3584 1784 3584 
Q 2172 3584 2448 3432 
Q 2725 3281 2906 2969 
z
M 947 1747 
Q 947 1113 1208 752 
Q 1469 391 1925 391 
Q 2381 391 2643 752 
Q 2906 1113 2906 1747 
Q 2906 2381 2643 2742 
Q 2381 3103 1925 3103 
Q 1469 3103 1208 2742 
Q 947 2381 947 1747 
z
" transform="scale(0.015625)"/>
       <path id="DejaVuSans-67" d="M 2906 1791 
Q 2906 2416 2648 2759 
Q 2391 3103 1925 3103 
Q 1463 3103 1205 2759 
Q 947 2416 947 1791 
Q 947 1169 1205 825 
Q 1463 481 1925 481 
Q 2391 481 2648 825 
Q 2906 1169 2906 1791 
z
M 3481 434 
Q 3481 -459 3084 -895 
Q 2688 -1331 1869 -1331 
Q 1566 -1331 1297 -1286 
Q 1028 -1241 775 -1147 
L 775 -588 
Q 1028 -725 1275 -790 
Q 1522 -856 1778 -856 
Q 2344 -856 2625 -561 
Q 2906 -266 2906 331 
L 2906 616 
Q 2728 306 2450 153 
Q 2172 0 1784 0 
Q 1141 0 747 490 
Q 353 981 353 1791 
Q 353 2603 747 3093 
Q 1141 3584 1784 3584 
Q 2172 3584 2450 3431 
Q 2728 3278 2906 2969 
L 2906 3500 
L 3481 3500 
L 3481 434 
z
" transform="scale(0.015625)"/>
       <path id="DejaVuSans-73" d="M 2834 3397 
L 2834 2853 
Q 2591 2978 2328 3040 
Q 2066 3103 1784 3103 
Q 1356 3103 1142 2972 
Q 928 2841 928 2578 
Q 928 2378 1081 2264 
Q 1234 2150 1697 2047 
L 1894 2003 
Q 2506 1872 2764 1633 
Q 3022 1394 3022 966 
Q 3022 478 2636 193 
Q 2250 -91 1575 -91 
Q 1294 -91 989 -36 
Q 684 19 347 128 
L 347 722 
Q 666 556 975 473 
Q 1284 391 1588 391 
Q 1994 391 2212 530 
Q 2431 669 2431 922 
Q 2431 1156 2273 1281 
Q 2116 1406 1581 1522 
L 1381 1569 
Q 847 1681 609 1914 
Q 372 2147 372 2553 
Q 372 3047 722 3315 
Q 1072 3584 1716 3584 
Q 2034 3584 2315 3537 
Q 2597 3491 2834 3397 
z
" transform="scale(0.015625)"/>
      </defs>
      <use xlink:href="#DejaVuSans-4e"/>
      <use xlink:href="#DejaVuSans-75" x="74.804688"/>
      <use xlink:href="#DejaVuSans-6d" x="138.183594"/>
      <use xlink:href="#DejaVuSans-62" x="235.595703"/>
      <use xlink:href="#DejaVuSans-65" x="299.072266"/>
      <use xlink:href="#DejaVuSans-72" x="360.595703"/>
      <use xlink:href="#DejaVuSans-20" x="401.708984"/>
      <use xlink:href="#DejaVuSans-6f" x="433.496094"/>
      <use xlink:href="#DejaVuSans-66" x="494.677734"/>
      <use xlink:href="#DejaVuSans-20" x="529.882812"/>
      <use xlink:href="#DejaVuSans-65" x="561.669922"/>
      <use xlink:href="#DejaVuSans-64" x="623.193359"/>
      <use xlink:href="#DejaVuSans-67" x="686.669922"/>
      <use xlink:href="#DejaVuSans-65" x="750.146484"/>
      <use xlink:href="#DejaVuSans-73" x="811.669922"/>
     </g>
    </g>
   </g>
   <g id="matplotlib.axis_2">
    <g id="ytick_1">
     <g id="line2d_8">
      <defs>
       <path id="m01eb14de0c" d="M 0 0 
L -3.5 0 
" style="stroke: #000000; stroke-width: 0.8"/>
      </defs>
      <g>
       <use xlink:href="#m01eb14de0c" x="43.78125" y="288.430125" style="stroke: #000000; stroke-width: 0.8"/>
      </g>
     </g>
     <g id="text_9">
      <!-- 0.0 -->
      <g transform="translate(20.878125 292.229344) scale(0.1 -0.1)">
       <defs>
        <path id="DejaVuSans-2e" d="M 684 794 
L 1344 794 
L 1344 0 
L 684 0 
L 684 794 
z
" transform="scale(0.015625)"/>
       </defs>
       <use xlink:href="#DejaVuSans-30"/>
       <use xlink:href="#DejaVuSans-2e" x="63.623047"/>
       <use xlink:href="#DejaVuSans-30" x="95.410156"/>
      </g>
     </g>
    </g>
    <g id="ytick_2">
     <g id="line2d_9">
      <g>
       <use xlink:href="#m01eb14de0c" x="43.78125" y="235.207725" style="stroke: #000000; stroke-width: 0.8"/>
      </g>
     </g>
     <g id="text_10">
      <!-- 0.2 -->
      <g transform="translate(20.878125 239.006944) scale(0.1 -0.1)">
       <use xlink:href="#DejaVuSans-30"/>
       <use xlink:href="#DejaVuSans-2e" x="63.623047"/>
       <use xlink:href="#DejaVuSans-32" x="95.410156"/>
      </g>
     </g>
    </g>
    <g id="ytick_3">
     <g id="line2d_10">
      <g>
       <use xlink:href="#m01eb14de0c" x="43.78125" y="181.985325" style="stroke: #000000; stroke-width: 0.8"/>
      </g>
     </g>
     <g id="text_11">
      <!-- 0.4 -->
      <g transform="translate(20.878125 185.784544) scale(0.1 -0.1)">
       <use xlink:href="#DejaVuSans-30"/>
       <use xlink:href="#DejaVuSans-2e" x="63.623047"/>
       <use xlink:href="#DejaVuSans-34" x="95.410156"/>
      </g>
     </g>
    </g>
    <g id="ytick_4">
     <g id="line2d_11">
      <g>
       <use xlink:href="#m01eb14de0c" x="43.78125" y="128.762925" style="stroke: #000000; stroke-width: 0.8"/>
      </g>
     </g>
     <g id="text_12">
      <!-- 0.6 -->
      <g transform="translate(20.878125 132.562144) scale(0.1 -0.1)">
       <use xlink:href="#DejaVuSans-30"/>
       <use xlink:href="#DejaVuSans-2e" x="63.623047"/>
       <use xlink:href="#DejaVuSans-36" x="95.410156"/>
      </g>
     </g>
    </g>
    <g id="ytick_5">
     <g id="line2d_12">
      <g>
       <use xlink:href="#m01eb14de0c" x="43.78125" y="75.540525" style="stroke: #000000; stroke-width: 0.8"/>
      </g>
     </g>
     <g id="text_13">
      <!-- 0.8 -->
      <g transform="translate(20.878125 79.339744) scale(0.1 -0.1)">
       <use xlink:href="#DejaVuSans-30"/>
       <use xlink:href="#DejaVuSans-2e" x="63.623047"/>
       <use xlink:href="#DejaVuSans-38" x="95.410156"/>
      </g>
     </g>
    </g>
    <g id="ytick_6">
     <g id="line2d_13">
      <g>
       <use xlink:href="#m01eb14de0c" x="43.78125" y="22.318125" style="stroke: #000000; stroke-width: 0.8"/>
      </g>
     </g>
     <g id="text_14">
      <!-- 1.0 -->
      <g transform="translate(20.878125 26.117344) scale(0.1 -0.1)">
       <use xlink:href="#DejaVuSans-31"/>
       <use xlink:href="#DejaVuSans-2e" x="63.623047"/>
       <use xlink:href="#DejaVuSans-30" x="95.410156"/>
      </g>
     </g>
    </g>
    <g id="text_15">
     <!-- Assortativity -->
     <g transform="translate(14.798438 186.760062) rotate(-90) scale(0.1 -0.1)">
      <defs>
       <path id="DejaVuSans-41" d="M 2188 4044 
L 1331 1722 
L 3047 1722 
L 2188 4044 
z
M 1831 4666 
L 2547 4666 
L 4325 0 
L 3669 0 
L 3244 1197 
L 1141 1197 
L 716 0 
L 50 0 
L 1831 4666 
z
" transform="scale(0.015625)"/>
       <path id="DejaVuSans-74" d="M 1172 4494 
L 1172 3500 
L 2356 3500 
L 2356 3053 
L 1172 3053 
L 1172 1153 
Q 1172 725 1289 603 
Q 1406 481 1766 481 
L 2356 481 
L 2356 0 
L 1766 0 
Q 1100 0 847 248 
Q 594 497 594 1153 
L 594 3053 
L 172 3053 
L 172 3500 
L 594 3500 
L 594 4494 
L 1172 4494 
z
" transform="scale(0.015625)"/>
       <path id="DejaVuSans-61" d="M 2194 1759 
Q 1497 1759 1228 1600 
Q 959 1441 959 1056 
Q 959 750 1161 570 
Q 1363 391 1709 391 
Q 2188 391 2477 730 
Q 2766 1069 2766 1631 
L 2766 1759 
L 2194 1759 
z
M 3341 1997 
L 3341 0 
L 2766 0 
L 2766 531 
Q 2569 213 2275 61 
Q 1981 -91 1556 -91 
Q 1019 -91 701 211 
Q 384 513 384 1019 
Q 384 1609 779 1909 
Q 1175 2209 1959 2209 
L 2766 2209 
L 2766 2266 
Q 2766 2663 2505 2880 
Q 2244 3097 1772 3097 
Q 1472 3097 1187 3025 
Q 903 2953 641 2809 
L 641 3341 
Q 956 3463 1253 3523 
Q 1550 3584 1831 3584 
Q 2591 3584 2966 3190 
Q 3341 2797 3341 1997 
z
" transform="scale(0.015625)"/>
       <path id="DejaVuSans-69" d="M 603 3500 
L 1178 3500 
L 1178 0 
L 603 0 
L 603 3500 
z
M 603 4863 
L 1178 4863 
L 1178 4134 
L 603 4134 
L 603 4863 
z
" transform="scale(0.015625)"/>
       <path id="DejaVuSans-76" d="M 191 3500 
L 800 3500 
L 1894 563 
L 2988 3500 
L 3597 3500 
L 2284 0 
L 1503 0 
L 191 3500 
z
" transform="scale(0.015625)"/>
       <path id="DejaVuSans-79" d="M 2059 -325 
Q 1816 -950 1584 -1140 
Q 1353 -1331 966 -1331 
L 506 -1331 
L 506 -850 
L 844 -850 
Q 1081 -850 1212 -737 
Q 1344 -625 1503 -206 
L 1606 56 
L 191 3500 
L 800 3500 
L 1894 763 
L 2988 3500 
L 3597 3500 
L 2059 -325 
z
" transform="scale(0.015625)"/>
      </defs>
      <use xlink:href="#DejaVuSans-41"/>
      <use xlink:href="#DejaVuSans-73" x="68.408203"/>
      <use xlink:href="#DejaVuSans-73" x="120.507812"/>
      <use xlink:href="#DejaVuSans-6f" x="172.607422"/>
      <use xlink:href="#DejaVuSans-72" x="233.789062"/>
      <use xlink:href="#DejaVuSans-74" x="274.902344"/>
      <use xlink:href="#DejaVuSans-61" x="314.111328"/>
      <use xlink:href="#DejaVuSans-74" x="375.390625"/>
      <use xlink:href="#DejaVuSans-69" x="414.599609"/>
      <use xlink:href="#DejaVuSans-76" x="442.382812"/>
      <use xlink:href="#DejaVuSans-69" x="501.5625"/>
      <use xlink:href="#DejaVuSans-74" x="529.345703"/>
      <use xlink:href="#DejaVuSans-79" x="568.554688"/>
     </g>
    </g>
   </g>
   <g id="line2d_14">
    <path d="M 43.78125 292.736144 
L 47.376418 290.638336 
L 50.971586 144.161121 
L 54.566753 165.726741 
L 58.161921 157.826074 
L 61.757089 185.603261 
L 65.352257 179.295996 
L 68.947424 194.569897 
L 72.542592 221.968189 
L 76.13776 227.421921 
L 79.732928 242.71164 
L 83.328096 242.497016 
L 86.923263 240.187077 
L 90.518431 241.281223 
L 94.113599 241.792943 
L 97.708767 250.81443 
L 101.303935 240.804084 
L 104.899102 249.258259 
L 108.49427 251.026456 
L 112.089438 253.154017 
L 115.924284 262.108427 
L 119.519451 264.631077 
L 123.114619 265.034028 
L 126.709787 274.848278 
L 130.304955 266.61625 
L 133.900122 274.69922 
L 137.49529 256.898127 
L 141.090458 261.435123 
L 144.685626 255.741303 
L 148.280794 250.576936 
L 151.875961 251.255931 
L 155.471129 250.539064 
L 159.066297 249.156306 
L 162.661465 243.451203 
L 166.256633 244.541199 
L 169.8518 243.851819 
L 173.446968 248.049211 
L 177.042136 248.510795 
L 180.637304 246.282426 
L 184.232471 246.681527 
L 188.067317 246.422842 
L 191.662485 242.777093 
L 195.257653 243.470353 
L 198.85282 243.056426 
L 202.447988 245.141504 
L 206.043156 245.951169 
L 209.638324 244.704128 
L 213.233492 244.08181 
L 216.828659 244.892696 
L 220.423827 246.222359 
L 224.018995 242.952625 
L 227.614163 241.12307 
L 231.209331 240.754888 
L 234.804498 240.478586 
L 238.399666 242.375796 
L 241.994834 242.698682 
L 245.590002 245.38583 
L 249.185169 248.614888 
L 252.780337 245.842818 
L 256.375505 245.217409 
L 260.210351 245.417472 
L 263.805518 247.860824 
L 267.400686 248.57905 
L 270.995854 247.965727 
L 274.591022 248.335048 
L 278.18619 248.039008 
L 281.781357 248.287697 
L 285.376525 248.993423 
L 288.971693 250.329796 
L 292.566861 250.813287 
L 296.162029 251.101303 
L 299.757196 247.862691 
L 303.352364 244.41023 
L 306.947532 243.425907 
L 310.5427 242.887438 
L 314.137867 243.528058 
L 317.733035 244.946606 
L 321.328203 245.381658 
L 324.923371 245.769759 
L 328.518539 245.379549 
L 332.353384 246.16922 
L 335.948552 245.476077 
L 339.54372 246.85834 
L 343.138888 247.669165 
L 346.734055 247.540958 
L 350.329223 247.360398 
L 353.924391 246.085154 
L 357.519559 246.909258 
L 361.114727 246.877367 
L 364.709894 247.993431 
L 368.305062 249.552757 
L 371.90023 249.963592 
L 375.495398 251.732943 
L 379.090565 252.069449 
L 382.685733 250.701302 
L 386.280901 251.853322 
L 389.876069 252.101393 
L 393.471237 252.466766 
L 397.066404 252.246028 
L 400.90125 251.183746 
" clip-path="url(#p0b3a6153d3)" style="fill: none; stroke: #e69f00; stroke-width: 1.5; stroke-linecap: square"/>
   </g>
   <g id="line2d_15">
    <path d="M 50.49223 308.971697 
L 54.327076 299.006914 
L 57.682565 235.785565 
L 61.996767 231.56375 
L 68.707747 232.251961 
L 72.542592 240.03244 
L 75.898082 241.166603 
L 79.732928 232.137733 
L 85.005841 216.666557 
L 87.402619 209.846716 
L 92.196176 220.974376 
L 98.4278 227.86358 
L 106.576847 242.904662 
L 113.287827 241.994474 
L 116.643317 237.243488 
L 125.27172 243.281346 
L 130.065277 248.476893 
L 138.69368 249.896485 
L 145.404659 242.912013 
L 153.553706 241.122864 
L 161.223398 240.886355 
L 172.727935 240.798164 
L 181.356337 245.292429 
L 190.464096 248.520094 
L 199.092498 246.8352 
L 207.720901 243.831233 
L 219.704794 240.46732 
L 229.291908 235.088933 
L 240.796445 231.628931 
L 252.780337 234.277296 
L 262.846807 241.520092 
L 281.062324 245.211296 
L 297.839773 248.811435 
L 308.385599 249.461422 
L 322.286914 252.349449 
L 330.915317 251.298496 
L 341.461143 251.705746 
L 358.238592 253.882541 
L 372.619263 254.280586 
L 390.355424 255.317898 
L 406.653518 254.486123 
L 409.10125 254.473212 
" clip-path="url(#p0b3a6153d3)" style="fill: none; stroke-dasharray: 9.6,2.4,1.5,2.4; stroke-dashoffset: 0; stroke: #e69f00; stroke-width: 1.5"/>
   </g>
   <g id="line2d_16">
    <path d="M 43.78125 288.937972 
L 47.376418 315.469807 
L 50.971586 222.940377 
L 54.566753 201.954466 
L 58.161921 215.580603 
L 61.757089 213.255463 
L 65.352257 235.872765 
L 68.947424 233.051588 
L 72.542592 251.856821 
L 76.13776 256.132544 
L 79.732928 260.51394 
L 83.328096 268.63758 
L 86.923263 275.92351 
L 90.518431 280.389018 
L 94.113599 274.734495 
L 97.708767 274.02547 
L 101.303935 277.788402 
L 104.899102 280.697141 
L 108.49427 273.390886 
L 112.089438 276.751307 
L 115.924284 288.972265 
L 119.519451 287.804314 
L 123.114619 284.338593 
L 126.709787 291.069669 
L 130.304955 289.419633 
L 133.900122 293.342951 
L 137.49529 285.770788 
L 141.090458 284.631524 
L 144.685626 281.928975 
L 148.280794 279.530452 
L 151.875961 280.965523 
L 155.471129 280.07609 
L 159.066297 279.138422 
L 162.661465 274.763638 
L 166.256633 279.501162 
L 169.8518 279.786957 
L 173.446968 282.210225 
L 177.042136 280.508481 
L 180.637304 278.231385 
L 184.232471 278.328939 
L 188.067317 278.591699 
L 191.662485 277.138332 
L 195.257653 279.168484 
L 198.85282 278.20116 
L 202.447988 277.526932 
L 206.043156 276.674751 
L 209.638324 276.69473 
L 213.233492 275.932655 
L 216.828659 275.995225 
L 220.423827 275.962049 
L 224.018995 275.556192 
L 227.614163 273.584633 
L 231.209331 271.659795 
L 234.804498 272.673763 
L 238.399666 271.91836 
L 241.994834 270.367153 
L 245.590002 271.269622 
L 249.185169 272.30306 
L 252.780337 270.800757 
L 256.375505 269.867954 
L 260.210351 271.264411 
L 263.805518 272.742731 
L 267.400686 273.088285 
L 270.995854 275.253272 
L 274.591022 274.164565 
L 278.18619 272.800532 
L 281.781357 272.114789 
L 285.376525 272.549457 
L 288.971693 273.458324 
L 292.566861 273.685654 
L 296.162029 271.96618 
L 299.757196 271.596256 
L 303.352364 270.123476 
L 306.947532 271.907414 
L 310.5427 270.627524 
L 314.137867 269.988991 
L 317.733035 269.531657 
L 321.328203 269.795548 
L 324.923371 268.318426 
L 328.518539 269.032131 
L 332.353384 271.009573 
L 335.948552 268.587651 
L 339.54372 269.240974 
L 343.138888 266.895623 
L 346.734055 266.794355 
L 350.329223 267.046978 
L 353.924391 268.051541 
L 357.519559 267.611764 
L 361.114727 267.32994 
L 364.709894 267.464097 
L 368.305062 268.842756 
L 371.90023 267.842816 
L 375.495398 269.823926 
L 379.090565 271.766122 
L 382.685733 272.055993 
L 386.280901 273.203434 
L 389.876069 271.712075 
L 393.471237 272.79678 
L 397.066404 274.369106 
L 400.90125 274.979134 
" clip-path="url(#p0b3a6153d3)" style="fill: none; stroke: #56b4e9; stroke-width: 1.5; stroke-linecap: square"/>
   </g>
   <g id="line2d_17">
    <path d="M 50.49223 298.251941 
L 54.327076 325.483456 
L 55.272149 326.986375 
M 65.31925 326.986375 
L 68.707747 310.204182 
L 72.542592 313.752048 
L 75.898082 313.834073 
L 79.732928 309.778477 
L 85.005841 300.908955 
L 87.402619 304.937993 
L 92.196176 315.857921 
L 98.4278 314.883343 
L 106.576847 306.924316 
L 113.287827 297.52293 
L 116.643317 290.893774 
L 125.27172 286.569561 
L 130.065277 292.759346 
L 138.69368 293.991941 
L 145.404659 289.905024 
L 153.553706 282.314045 
L 161.223398 279.469252 
L 172.727935 270.378098 
L 181.356337 267.428994 
L 190.464096 270.89831 
L 199.092498 272.961653 
L 207.720901 272.843669 
L 219.704794 265.163167 
L 229.291908 263.072373 
L 240.796445 266.167863 
L 252.780337 268.806076 
L 262.846807 272.252 
L 281.062324 268.161539 
L 297.839773 272.776933 
L 308.385599 273.866484 
L 322.286914 279.591723 
L 330.915317 279.715553 
L 341.461143 282.292334 
L 358.238592 281.933285 
L 372.619263 277.312799 
L 390.355424 276.122277 
L 406.653518 281.089048 
L 409.10125 280.923002 
" clip-path="url(#p0b3a6153d3)" style="fill: none; stroke-dasharray: 9.6,2.4,1.5,2.4; stroke-dashoffset: 0; stroke: #56b4e9; stroke-width: 1.5"/>
   </g>
   <g id="line2d_18">
    <path d="M 43.78125 316.513059 
L 45.835581 326.986375 
M 47.726717 326.986375 
L 50.971586 254.220382 
L 54.566753 241.887615 
L 58.161921 272.403123 
L 61.757089 298.408519 
L 65.352257 308.984102 
L 68.947424 293.365365 
L 72.542592 286.257034 
L 76.13776 297.192753 
L 79.732928 296.895676 
L 83.328096 302.395016 
L 86.923263 307.127419 
L 90.518431 310.032315 
L 94.113599 308.748755 
L 97.708767 309.315426 
L 101.303935 313.472358 
L 104.899102 313.561881 
L 108.49427 311.704635 
L 112.089438 318.701946 
L 115.924284 320.250092 
L 119.519451 313.960317 
L 123.114619 310.466152 
L 126.709787 312.776672 
L 130.304955 305.227236 
L 133.900122 306.027054 
L 137.49529 293.61899 
L 141.090458 289.689939 
L 144.685626 291.749631 
L 148.280794 290.504616 
L 151.875961 297.446039 
L 155.471129 299.81474 
L 159.066297 297.012311 
L 162.661465 297.507333 
L 166.256633 299.158935 
L 169.8518 296.286458 
L 173.446968 297.585029 
L 177.042136 297.273547 
L 180.637304 289.719753 
L 184.232471 289.31567 
L 188.067317 289.772341 
L 191.662485 293.006901 
L 195.257653 295.652613 
L 198.85282 296.158722 
L 202.447988 295.316568 
L 206.043156 296.124739 
L 209.638324 294.17493 
L 213.233492 293.904849 
L 216.828659 295.72086 
L 220.423827 295.266067 
L 224.018995 296.652286 
L 227.614163 292.905496 
L 231.209331 290.402368 
L 234.804498 290.752827 
L 238.399666 287.174914 
L 241.994834 284.692329 
L 245.590002 282.876889 
L 249.185169 281.782806 
L 252.780337 281.663358 
L 256.375505 281.432931 
L 260.210351 281.874559 
L 263.805518 281.434988 
L 267.400686 281.248065 
L 270.995854 282.709273 
L 274.591022 282.773699 
L 278.18619 281.491838 
L 281.781357 280.901784 
L 285.376525 282.103832 
L 288.971693 281.887173 
L 292.566861 283.086695 
L 296.162029 283.037511 
L 299.757196 282.124933 
L 303.352364 282.162294 
L 306.947532 279.222379 
L 310.5427 277.719567 
L 314.137867 277.750543 
L 317.733035 275.87121 
L 321.328203 276.382094 
L 324.923371 276.201518 
L 328.518539 276.215954 
L 332.353384 278.76118 
L 335.948552 276.926025 
L 339.54372 277.573352 
L 343.138888 276.667081 
L 346.734055 277.444654 
L 350.329223 278.366381 
L 353.924391 280.087086 
L 357.519559 280.962871 
L 361.114727 280.616268 
L 364.709894 280.642422 
L 368.305062 281.142471 
L 371.90023 281.482519 
L 375.495398 282.343416 
L 379.090565 283.34698 
L 382.685733 284.591997 
L 386.280901 286.005874 
L 389.876069 284.714808 
L 393.471237 286.261562 
L 397.066404 286.559999 
L 400.90125 285.267663 
" clip-path="url(#p0b3a6153d3)" style="fill: none; stroke: #009e73; stroke-width: 1.5; stroke-linecap: square"/>
   </g>
   <g id="line2d_19">
    <path d="M 50.49223 271.237442 
L 54.327076 245.415519 
L 57.682565 226.45713 
L 61.996767 250.114453 
L 68.707747 252.053813 
L 72.542592 256.528106 
L 75.898082 265.216073 
L 79.732928 251.303281 
L 85.005841 243.651591 
L 87.402619 241.123812 
L 92.196176 243.185488 
L 98.4278 266.926032 
L 106.576847 274.657062 
L 113.287827 262.423277 
L 116.643317 256.603188 
L 125.27172 256.018553 
L 130.065277 252.699706 
L 138.69368 248.886789 
L 145.404659 245.741808 
L 153.553706 248.90199 
L 161.223398 250.839351 
L 172.727935 251.093308 
L 181.356337 256.119869 
L 190.464096 253.106424 
L 199.092498 249.410672 
L 207.720901 247.446524 
L 219.704794 244.382778 
L 229.291908 240.308979 
L 240.796445 242.173992 
L 252.780337 244.55137 
L 262.846807 245.778762 
L 281.062324 249.33752 
L 297.839773 250.880895 
L 308.385599 251.599782 
L 322.286914 251.065055 
L 330.915317 251.237181 
L 341.461143 251.817323 
L 358.238592 253.41008 
L 372.619263 254.518512 
L 390.355424 254.279094 
L 406.653518 252.379256 
L 409.10125 252.426624 
" clip-path="url(#p0b3a6153d3)" style="fill: none; stroke-dasharray: 9.6,2.4,1.5,2.4; stroke-dashoffset: 0; stroke: #009e73; stroke-width: 1.5"/>
   </g>
   <g id="line2d_20">
    <path d="M 45.238009 326.986375 
L 47.376418 267.140772 
L 50.841572 326.986375 
M 54.569244 326.986375 
L 58.161921 270.660639 
L 61.757089 291.540793 
L 65.352257 298.540648 
L 68.947424 279.369351 
L 72.542592 266.609539 
L 76.13776 271.254806 
L 79.732928 289.70808 
L 83.328096 301.573358 
L 86.923263 304.255511 
L 90.518431 302.350322 
L 94.113599 306.722165 
L 97.708767 302.4689 
L 101.303935 304.461451 
L 104.899102 309.107865 
L 108.49427 307.625254 
L 112.089438 314.021326 
L 115.924284 317.537821 
L 119.519451 316.032289 
L 123.114619 311.740376 
L 126.709787 308.16912 
L 130.304955 301.499086 
L 133.900122 306.872434 
L 137.49529 295.777071 
L 141.090458 298.512525 
L 144.685626 303.227949 
L 148.280794 304.28719 
L 151.875961 306.432317 
L 155.471129 309.413038 
L 159.066297 307.351535 
L 162.661465 300.206597 
L 166.256633 299.626836 
L 169.8518 297.162958 
L 173.446968 301.437099 
L 177.042136 300.467773 
L 180.637304 295.099435 
L 184.232471 295.541987 
L 188.067317 296.490324 
L 191.662485 297.200999 
L 195.257653 297.281283 
L 198.85282 299.647291 
L 202.447988 303.743666 
L 206.043156 302.48517 
L 209.638324 300.690751 
L 213.233492 300.820204 
L 216.828659 302.429508 
L 220.423827 302.176219 
L 224.018995 303.117662 
L 227.614163 297.754387 
L 231.209331 294.860287 
L 234.804498 292.022339 
L 238.399666 290.068401 
L 241.994834 288.120807 
L 245.590002 287.00963 
L 249.185169 287.283663 
L 252.780337 287.71881 
L 256.375505 287.28939 
L 260.210351 285.846912 
L 263.805518 287.101936 
L 267.400686 287.029133 
L 270.995854 286.16768 
L 274.591022 287.875699 
L 278.18619 287.01404 
L 281.781357 285.272985 
L 285.376525 287.220548 
L 288.971693 287.092233 
L 292.566861 288.957593 
L 296.162029 290.054561 
L 299.757196 288.977421 
L 303.352364 290.301115 
L 306.947532 286.923511 
L 310.5427 286.343985 
L 314.137867 285.735938 
L 317.733035 285.463566 
L 321.328203 286.763892 
L 324.923371 286.557085 
L 328.518539 284.183596 
L 332.353384 286.876436 
L 335.948552 286.900462 
L 339.54372 286.983299 
L 343.138888 287.534674 
L 346.734055 287.351214 
L 350.329223 287.950024 
L 353.924391 287.314496 
L 357.519559 287.02234 
L 361.114727 286.840142 
L 364.709894 285.052477 
L 368.305062 285.132643 
L 371.90023 285.454792 
L 375.495398 284.433379 
L 379.090565 285.676009 
L 382.685733 285.138417 
L 386.280901 286.463485 
L 389.876069 286.78786 
L 393.471237 288.432682 
L 397.066404 289.191073 
L 400.90125 287.316874 
" clip-path="url(#p0b3a6153d3)" style="fill: none; stroke: #f0e442; stroke-width: 1.5; stroke-linecap: square"/>
   </g>
   <g id="line2d_21">
    <path d="M 50.49223 276.474574 
L 54.327076 295.883971 
L 57.682565 279.013899 
L 61.996767 303.567884 
L 68.707747 310.645789 
L 72.542592 303.882446 
L 75.898082 304.039066 
L 79.732928 292.802452 
L 85.005841 288.669243 
L 87.402619 295.091625 
L 92.196176 299.104898 
L 98.4278 305.197933 
L 106.576847 304.59503 
L 113.287827 294.743792 
L 116.643317 289.761742 
L 125.27172 286.93259 
L 130.065277 287.670798 
L 138.69368 287.72514 
L 145.404659 278.807429 
L 153.553706 273.575084 
L 161.223398 270.790312 
L 172.727935 266.095933 
L 181.356337 276.700976 
L 190.464096 277.604177 
L 199.092498 271.916615 
L 207.720901 273.148977 
L 219.704794 271.598539 
L 229.291908 272.742247 
L 240.796445 272.390794 
L 252.780337 275.285564 
L 262.846807 274.387626 
L 281.062324 280.246578 
L 297.839773 286.15382 
L 308.385599 284.485121 
L 322.286914 284.690841 
L 330.915317 284.346781 
L 341.461143 286.578636 
L 358.238592 288.435555 
L 372.619263 289.994286 
L 390.355424 286.429753 
L 406.653518 288.366474 
L 409.10125 288.199276 
" clip-path="url(#p0b3a6153d3)" style="fill: none; stroke-dasharray: 9.6,2.4,1.5,2.4; stroke-dashoffset: 0; stroke: #f0e442; stroke-width: 1.5"/>
   </g>
   <g id="line2d_22">
    <path d="M 57.293924 326.986375 
L 58.161921 307.780145 
L 61.176035 326.986375 
M 62.873542 326.986375 
L 65.352257 318.766137 
L 68.947424 299.698761 
L 72.542592 312.187893 
L 76.13776 317.168592 
L 79.732928 325.533391 
L 83.328096 324.610919 
L 86.923263 324.320879 
L 90.518431 316.763902 
L 94.113599 325.527382 
L 97.708767 314.228237 
L 101.303935 311.99239 
L 104.899102 305.245841 
L 108.49427 306.47987 
L 112.089438 306.389994 
L 115.924284 308.380202 
L 119.519451 307.454937 
L 123.114619 299.981699 
L 126.709787 299.676982 
L 130.304955 299.86397 
L 133.900122 296.124733 
L 137.49529 286.972124 
L 141.090458 284.627351 
L 144.685626 289.700296 
L 148.280794 286.068133 
L 151.875961 276.659964 
L 155.471129 278.048039 
L 159.066297 276.265561 
L 162.661465 278.19007 
L 166.256633 286.442303 
L 169.8518 286.539518 
L 173.446968 286.556309 
L 177.042136 289.426437 
L 180.637304 286.92917 
L 184.232471 288.284667 
L 188.067317 288.876391 
L 191.662485 285.312178 
L 195.257653 287.357623 
L 198.85282 290.158092 
L 202.447988 296.191062 
L 206.043156 300.244761 
L 209.638324 300.872867 
L 213.233492 300.726627 
L 216.828659 301.234269 
L 220.423827 300.518643 
L 224.018995 301.253429 
L 227.614163 295.828143 
L 231.209331 294.372056 
L 234.804498 295.809722 
L 238.399666 293.328438 
L 241.994834 292.556049 
L 245.590002 293.856388 
L 249.185169 296.18377 
L 252.780337 297.308288 
L 256.375505 297.978259 
L 260.210351 292.895959 
L 263.805518 293.103479 
L 267.400686 293.169029 
L 270.995854 291.860694 
L 274.591022 292.976362 
L 278.18619 292.98848 
L 281.781357 294.619973 
L 285.376525 296.135274 
L 288.971693 296.598179 
L 292.566861 296.201787 
L 296.162029 295.561422 
L 299.757196 295.270352 
L 303.352364 295.047621 
L 306.947532 293.310599 
L 310.5427 293.308904 
L 314.137867 291.98007 
L 317.733035 293.066866 
L 321.328203 292.186178 
L 324.923371 292.191866 
L 328.518539 292.342828 
L 332.353384 293.775731 
L 335.948552 292.225305 
L 339.54372 289.7504 
L 343.138888 291.242142 
L 346.734055 289.910274 
L 350.329223 290.750233 
L 353.924391 290.120232 
L 357.519559 290.216786 
L 361.114727 290.725701 
L 364.709894 290.659015 
L 368.305062 290.832899 
L 371.90023 291.547131 
L 375.495398 292.154163 
L 379.090565 292.943732 
L 382.685733 291.691368 
L 386.280901 293.935911 
L 389.876069 294.585564 
L 393.471237 295.319996 
L 397.066404 295.239356 
L 400.90125 294.666581 
" clip-path="url(#p0b3a6153d3)" style="fill: none; stroke: #0072b2; stroke-width: 1.5; stroke-linecap: square"/>
   </g>
   <g id="line2d_23">
    <path d="M 50.49223 299.748507 
L 54.327076 266.71208 
L 57.682565 279.660761 
L 61.996767 309.929161 
L 68.707747 310.167522 
L 72.542592 317.542177 
L 75.898082 321.143073 
L 79.732928 305.122175 
L 85.005841 281.82012 
L 87.402619 285.783908 
L 92.196176 288.54467 
L 98.4278 286.441298 
L 106.576847 302.150482 
L 113.287827 303.944964 
L 116.643317 301.01783 
L 125.27172 296.782878 
L 130.065277 291.848648 
L 138.69368 290.900833 
L 145.404659 280.554519 
L 153.553706 283.250816 
L 161.223398 278.531519 
L 172.727935 274.608059 
L 181.356337 278.47794 
L 190.464096 281.651342 
L 199.092498 273.205772 
L 207.720901 278.831626 
L 219.704794 285.842573 
L 229.291908 285.868803 
L 240.796445 285.870313 
L 252.780337 289.707202 
L 262.846807 287.41647 
L 281.062324 291.286552 
L 297.839773 299.883201 
L 308.385599 298.89352 
L 322.286914 300.26187 
L 330.915317 297.813554 
L 341.461143 298.18733 
L 358.238592 297.746094 
L 372.619263 297.663762 
L 390.355424 291.754984 
L 406.653518 292.373635 
L 409.10125 292.348931 
" clip-path="url(#p0b3a6153d3)" style="fill: none; stroke-dasharray: 9.6,2.4,1.5,2.4; stroke-dashoffset: 0; stroke: #0072b2; stroke-width: 1.5"/>
   </g>
   <g id="patch_3">
    <path d="M 43.78125 288.430125 
L 43.78125 22.318125 
" style="fill: none; stroke: #000000; stroke-width: 0.8; stroke-linejoin: miter; stroke-linecap: square"/>
   </g>
   <g id="patch_4">
    <path d="M 400.90125 288.430125 
L 400.90125 22.318125 
" style="fill: none; stroke: #000000; stroke-width: 0.8; stroke-linejoin: miter; stroke-linecap: square"/>
   </g>
   <g id="patch_5">
    <path d="M 43.78125 288.430125 
L 400.90125 288.430125 
" style="fill: none; stroke: #000000; stroke-width: 0.8; stroke-linejoin: miter; stroke-linecap: square"/>
   </g>
   <g id="patch_6">
    <path d="M 43.78125 22.318125 
L 400.90125 22.318125 
" style="fill: none; stroke: #000000; stroke-width: 0.8; stroke-linejoin: miter; stroke-linecap: square"/>
   </g>
   <g id="text_16">
    <!-- Assortativity - Metagenomics + Metabolomics -->
    <g transform="translate(84.3975 16.318125) scale(0.12 -0.12)">
     <defs>
      <path id="DejaVuSans-2d" d="M 313 2009 
L 1997 2009 
L 1997 1497 
L 313 1497 
L 313 2009 
z
" transform="scale(0.015625)"/>
      <path id="DejaVuSans-4d" d="M 628 4666 
L 1569 4666 
L 2759 1491 
L 3956 4666 
L 4897 4666 
L 4897 0 
L 4281 0 
L 4281 4097 
L 3078 897 
L 2444 897 
L 1241 4097 
L 1241 0 
L 628 0 
L 628 4666 
z
" transform="scale(0.015625)"/>
      <path id="DejaVuSans-6e" d="M 3513 2113 
L 3513 0 
L 2938 0 
L 2938 2094 
Q 2938 2591 2744 2837 
Q 2550 3084 2163 3084 
Q 1697 3084 1428 2787 
Q 1159 2491 1159 1978 
L 1159 0 
L 581 0 
L 581 3500 
L 1159 3500 
L 1159 2956 
Q 1366 3272 1645 3428 
Q 1925 3584 2291 3584 
Q 2894 3584 3203 3211 
Q 3513 2838 3513 2113 
z
" transform="scale(0.015625)"/>
      <path id="DejaVuSans-63" d="M 3122 3366 
L 3122 2828 
Q 2878 2963 2633 3030 
Q 2388 3097 2138 3097 
Q 1578 3097 1268 2742 
Q 959 2388 959 1747 
Q 959 1106 1268 751 
Q 1578 397 2138 397 
Q 2388 397 2633 464 
Q 2878 531 3122 666 
L 3122 134 
Q 2881 22 2623 -34 
Q 2366 -91 2075 -91 
Q 1284 -91 818 406 
Q 353 903 353 1747 
Q 353 2603 823 3093 
Q 1294 3584 2113 3584 
Q 2378 3584 2631 3529 
Q 2884 3475 3122 3366 
z
" transform="scale(0.015625)"/>
      <path id="DejaVuSans-2b" d="M 2944 4013 
L 2944 2272 
L 4684 2272 
L 4684 1741 
L 2944 1741 
L 2944 0 
L 2419 0 
L 2419 1741 
L 678 1741 
L 678 2272 
L 2419 2272 
L 2419 4013 
L 2944 4013 
z
" transform="scale(0.015625)"/>
      <path id="DejaVuSans-6c" d="M 603 4863 
L 1178 4863 
L 1178 0 
L 603 0 
L 603 4863 
z
" transform="scale(0.015625)"/>
     </defs>
     <use xlink:href="#DejaVuSans-41"/>
     <use xlink:href="#DejaVuSans-73" x="68.408203"/>
     <use xlink:href="#DejaVuSans-73" x="120.507812"/>
     <use xlink:href="#DejaVuSans-6f" x="172.607422"/>
     <use xlink:href="#DejaVuSans-72" x="233.789062"/>
     <use xlink:href="#DejaVuSans-74" x="274.902344"/>
     <use xlink:href="#DejaVuSans-61" x="314.111328"/>
     <use xlink:href="#DejaVuSans-74" x="375.390625"/>
     <use xlink:href="#DejaVuSans-69" x="414.599609"/>
     <use xlink:href="#DejaVuSans-76" x="442.382812"/>
     <use xlink:href="#DejaVuSans-69" x="501.5625"/>
     <use xlink:href="#DejaVuSans-74" x="529.345703"/>
     <use xlink:href="#DejaVuSans-79" x="568.554688"/>
     <use xlink:href="#DejaVuSans-20" x="627.734375"/>
     <use xlink:href="#DejaVuSans-2d" x="659.521484"/>
     <use xlink:href="#DejaVuSans-20" x="695.605469"/>
     <use xlink:href="#DejaVuSans-4d" x="727.392578"/>
     <use xlink:href="#DejaVuSans-65" x="813.671875"/>
     <use xlink:href="#DejaVuSans-74" x="875.195312"/>
     <use xlink:href="#DejaVuSans-61" x="914.404297"/>
     <use xlink:href="#DejaVuSans-67" x="975.683594"/>
     <use xlink:href="#DejaVuSans-65" x="1039.160156"/>
     <use xlink:href="#DejaVuSans-6e" x="1100.683594"/>
     <use xlink:href="#DejaVuSans-6f" x="1164.0625"/>
     <use xlink:href="#DejaVuSans-6d" x="1225.244141"/>
     <use xlink:href="#DejaVuSans-69" x="1322.65625"/>
     <use xlink:href="#DejaVuSans-63" x="1350.439453"/>
     <use xlink:href="#DejaVuSans-73" x="1405.419922"/>
     <use xlink:href="#DejaVuSans-20" x="1457.519531"/>
     <use xlink:href="#DejaVuSans-2b" x="1489.306641"/>
     <use xlink:href="#DejaVuSans-20" x="1573.095703"/>
     <use xlink:href="#DejaVuSans-4d" x="1604.882812"/>
     <use xlink:href="#DejaVuSans-65" x="1691.162109"/>
     <use xlink:href="#DejaVuSans-74" x="1752.685547"/>
     <use xlink:href="#DejaVuSans-61" x="1791.894531"/>
     <use xlink:href="#DejaVuSans-62" x="1853.173828"/>
     <use xlink:href="#DejaVuSans-6f" x="1916.650391"/>
     <use xlink:href="#DejaVuSans-6c" x="1977.832031"/>
     <use xlink:href="#DejaVuSans-6f" x="2005.615234"/>
     <use xlink:href="#DejaVuSans-6d" x="2066.796875"/>
     <use xlink:href="#DejaVuSans-69" x="2164.208984"/>
     <use xlink:href="#DejaVuSans-63" x="2191.992188"/>
     <use xlink:href="#DejaVuSans-73" x="2246.972656"/>
    </g>
   </g>
   <g id="legend_1">
    <g id="patch_7">
     <path d="M 324.759063 103.70875 
L 393.90125 103.70875 
Q 395.90125 103.70875 395.90125 101.70875 
L 395.90125 29.318125 
Q 395.90125 27.318125 393.90125 27.318125 
L 324.759063 27.318125 
Q 322.759063 27.318125 322.759063 29.318125 
L 322.759063 101.70875 
Q 322.759063 103.70875 324.759063 103.70875 
z
" style="fill: #ffffff; opacity: 0.8; stroke: #cccccc; stroke-linejoin: miter"/>
    </g>
    <g id="line2d_24">
     <path d="M 326.759063 35.416562 
L 336.759063 35.416562 
L 346.759063 35.416562 
" style="fill: none; stroke: #e69f00; stroke-width: 1.5; stroke-linecap: square"/>
    </g>
    <g id="text_17">
     <!-- Phylum -->
     <g transform="translate(354.759063 38.916562) scale(0.1 -0.1)">
      <defs>
       <path id="DejaVuSans-50" d="M 1259 4147 
L 1259 2394 
L 2053 2394 
Q 2494 2394 2734 2622 
Q 2975 2850 2975 3272 
Q 2975 3691 2734 3919 
Q 2494 4147 2053 4147 
L 1259 4147 
z
M 628 4666 
L 2053 4666 
Q 2838 4666 3239 4311 
Q 3641 3956 3641 3272 
Q 3641 2581 3239 2228 
Q 2838 1875 2053 1875 
L 1259 1875 
L 1259 0 
L 628 0 
L 628 4666 
z
" transform="scale(0.015625)"/>
       <path id="DejaVuSans-68" d="M 3513 2113 
L 3513 0 
L 2938 0 
L 2938 2094 
Q 2938 2591 2744 2837 
Q 2550 3084 2163 3084 
Q 1697 3084 1428 2787 
Q 1159 2491 1159 1978 
L 1159 0 
L 581 0 
L 581 4863 
L 1159 4863 
L 1159 2956 
Q 1366 3272 1645 3428 
Q 1925 3584 2291 3584 
Q 2894 3584 3203 3211 
Q 3513 2838 3513 2113 
z
" transform="scale(0.015625)"/>
      </defs>
      <use xlink:href="#DejaVuSans-50"/>
      <use xlink:href="#DejaVuSans-68" x="60.302734"/>
      <use xlink:href="#DejaVuSans-79" x="123.681641"/>
      <use xlink:href="#DejaVuSans-6c" x="182.861328"/>
      <use xlink:href="#DejaVuSans-75" x="210.644531"/>
      <use xlink:href="#DejaVuSans-6d" x="274.023438"/>
     </g>
    </g>
    <g id="line2d_25">
     <path d="M 326.759063 50.094688 
L 336.759063 50.094688 
L 346.759063 50.094688 
" style="fill: none; stroke: #56b4e9; stroke-width: 1.5; stroke-linecap: square"/>
    </g>
    <g id="text_18">
     <!-- Class -->
     <g transform="translate(354.759063 53.594688) scale(0.1 -0.1)">
      <defs>
       <path id="DejaVuSans-43" d="M 4122 4306 
L 4122 3641 
Q 3803 3938 3442 4084 
Q 3081 4231 2675 4231 
Q 1875 4231 1450 3742 
Q 1025 3253 1025 2328 
Q 1025 1406 1450 917 
Q 1875 428 2675 428 
Q 3081 428 3442 575 
Q 3803 722 4122 1019 
L 4122 359 
Q 3791 134 3420 21 
Q 3050 -91 2638 -91 
Q 1578 -91 968 557 
Q 359 1206 359 2328 
Q 359 3453 968 4101 
Q 1578 4750 2638 4750 
Q 3056 4750 3426 4639 
Q 3797 4528 4122 4306 
z
" transform="scale(0.015625)"/>
      </defs>
      <use xlink:href="#DejaVuSans-43"/>
      <use xlink:href="#DejaVuSans-6c" x="69.824219"/>
      <use xlink:href="#DejaVuSans-61" x="97.607422"/>
      <use xlink:href="#DejaVuSans-73" x="158.886719"/>
      <use xlink:href="#DejaVuSans-73" x="210.986328"/>
     </g>
    </g>
    <g id="line2d_26">
     <path d="M 326.759063 64.772812 
L 336.759063 64.772812 
L 346.759063 64.772812 
" style="fill: none; stroke: #009e73; stroke-width: 1.5; stroke-linecap: square"/>
    </g>
    <g id="text_19">
     <!-- Order -->
     <g transform="translate(354.759063 68.272812) scale(0.1 -0.1)">
      <defs>
       <path id="DejaVuSans-4f" d="M 2522 4238 
Q 1834 4238 1429 3725 
Q 1025 3213 1025 2328 
Q 1025 1447 1429 934 
Q 1834 422 2522 422 
Q 3209 422 3611 934 
Q 4013 1447 4013 2328 
Q 4013 3213 3611 3725 
Q 3209 4238 2522 4238 
z
M 2522 4750 
Q 3503 4750 4090 4092 
Q 4678 3434 4678 2328 
Q 4678 1225 4090 567 
Q 3503 -91 2522 -91 
Q 1538 -91 948 565 
Q 359 1222 359 2328 
Q 359 3434 948 4092 
Q 1538 4750 2522 4750 
z
" transform="scale(0.015625)"/>
      </defs>
      <use xlink:href="#DejaVuSans-4f"/>
      <use xlink:href="#DejaVuSans-72" x="78.710938"/>
      <use xlink:href="#DejaVuSans-64" x="118.074219"/>
      <use xlink:href="#DejaVuSans-65" x="181.550781"/>
      <use xlink:href="#DejaVuSans-72" x="243.074219"/>
     </g>
    </g>
    <g id="line2d_27">
     <path d="M 326.759063 79.450938 
L 336.759063 79.450938 
L 346.759063 79.450938 
" style="fill: none; stroke: #f0e442; stroke-width: 1.5; stroke-linecap: square"/>
    </g>
    <g id="text_20">
     <!-- Family -->
     <g transform="translate(354.759063 82.950938) scale(0.1 -0.1)">
      <defs>
       <path id="DejaVuSans-46" d="M 628 4666 
L 3309 4666 
L 3309 4134 
L 1259 4134 
L 1259 2759 
L 3109 2759 
L 3109 2228 
L 1259 2228 
L 1259 0 
L 628 0 
L 628 4666 
z
" transform="scale(0.015625)"/>
      </defs>
      <use xlink:href="#DejaVuSans-46"/>
      <use xlink:href="#DejaVuSans-61" x="48.394531"/>
      <use xlink:href="#DejaVuSans-6d" x="109.673828"/>
      <use xlink:href="#DejaVuSans-69" x="207.085938"/>
      <use xlink:href="#DejaVuSans-6c" x="234.869141"/>
      <use xlink:href="#DejaVuSans-79" x="262.652344"/>
     </g>
    </g>
    <g id="line2d_28">
     <path d="M 326.759063 94.129063 
L 336.759063 94.129063 
L 346.759063 94.129063 
" style="fill: none; stroke: #0072b2; stroke-width: 1.5; stroke-linecap: square"/>
    </g>
    <g id="text_21">
     <!-- Genus -->
     <g transform="translate(354.759063 97.629063) scale(0.1 -0.1)">
      <defs>
       <path id="DejaVuSans-47" d="M 3809 666 
L 3809 1919 
L 2778 1919 
L 2778 2438 
L 4434 2438 
L 4434 434 
Q 4069 175 3628 42 
Q 3188 -91 2688 -91 
Q 1594 -91 976 548 
Q 359 1188 359 2328 
Q 359 3472 976 4111 
Q 1594 4750 2688 4750 
Q 3144 4750 3555 4637 
Q 3966 4525 4313 4306 
L 4313 3634 
Q 3963 3931 3569 4081 
Q 3175 4231 2741 4231 
Q 1884 4231 1454 3753 
Q 1025 3275 1025 2328 
Q 1025 1384 1454 906 
Q 1884 428 2741 428 
Q 3075 428 3337 486 
Q 3600 544 3809 666 
z
" transform="scale(0.015625)"/>
      </defs>
      <use xlink:href="#DejaVuSans-47"/>
      <use xlink:href="#DejaVuSans-65" x="77.490234"/>
      <use xlink:href="#DejaVuSans-6e" x="139.013672"/>
      <use xlink:href="#DejaVuSans-75" x="202.392578"/>
      <use xlink:href="#DejaVuSans-73" x="265.771484"/>
     </g>
    </g>
   </g>
  </g>
 </g>
 <defs>
  <clipPath id="p0b3a6153d3">
   <rect x="43.78125" y="22.318125" width="357.12" height="266.112"/>
  </clipPath>
 </defs>
</svg>
