<?xml version="1.0" encoding="utf-8" standalone="no"?>
<!DOCTYPE svg PUBLIC "-//W3C//DTD SVG 1.1//EN"
  "http://www.w3.org/Graphics/SVG/1.1/DTD/svg11.dtd">
<svg xmlns:xlink="http://www.w3.org/1999/xlink" width="460.8pt" height="345.6pt" viewBox="0 0 460.8 345.6" xmlns="http://www.w3.org/2000/svg" version="1.1">
 <metadata>
  <rdf:RDF xmlns:dc="http://purl.org/dc/elements/1.1/" xmlns:cc="http://creativecommons.org/ns#" xmlns:rdf="http://www.w3.org/1999/02/22-rdf-syntax-ns#">
   <cc:Work>
    <dc:type rdf:resource="http://purl.org/dc/dcmitype/StillImage"/>
    <dc:date>2023-10-14T18:18:11.487462</dc:date>
    <dc:format>image/svg+xml</dc:format>
    <dc:creator>
     <cc:Agent>
      <dc:title>Matplotlib v3.7.2, https://matplotlib.org/</dc:title>
     </cc:Agent>
    </dc:creator>
   </cc:Work>
  </rdf:RDF>
 </metadata>
 <defs>
  <style type="text/css">*{stroke-linejoin: round; stroke-linecap: butt}</style>
 </defs>
 <g id="figure_1">
  <g id="patch_1">
   <path d="M 0 345.6 
L 460.8 345.6 
L 460.8 0 
L 0 0 
z
" style="fill: #ffffff"/>
  </g>
  <g id="axes_1">
   <g id="patch_2">
    <path d="M 57.6 307.584 
L 414.72 307.584 
L 414.72 41.472 
L 57.6 41.472 
z
" style="fill: #ffffff"/>
   </g>
   <g id="matplotlib.axis_1">
    <g id="xtick_1">
     <g id="line2d_1">
      <defs>
       <path id="mfd21bdbe53" d="M 0 0 
L 0 3.5 
" style="stroke: #000000; stroke-width: 0.8"/>
      </defs>
      <g>
       <use xlink:href="#mfd21bdbe53" x="57.6" y="307.584" style="stroke: #000000; stroke-width: 0.8"/>
      </g>
     </g>
     <g id="text_1">
      <!-- 0 -->
      <g transform="translate(54.41875 322.182437) scale(0.1 -0.1)">
       <defs>
        <path id="DejaVuSans-30" d="M 2034 4250 
Q 1547 4250 1301 3770 
Q 1056 3291 1056 2328 
Q 1056 1369 1301 889 
Q 1547 409 2034 409 
Q 2525 409 2770 889 
Q 3016 1369 3016 2328 
Q 3016 3291 2770 3770 
Q 2525 4250 2034 4250 
z
M 2034 4750 
Q 2819 4750 3233 4129 
Q 3647 3509 3647 2328 
Q 3647 1150 3233 529 
Q 2819 -91 2034 -91 
Q 1250 -91 836 529 
Q 422 1150 422 2328 
Q 422 3509 836 4129 
Q 1250 4750 2034 4750 
z
" transform="scale(0.015625)"/>
       </defs>
       <use xlink:href="#DejaVuSans-30"/>
      </g>
     </g>
    </g>
    <g id="xtick_2">
     <g id="line2d_2">
      <g>
       <use xlink:href="#mfd21bdbe53" x="129.024" y="307.584" style="stroke: #000000; stroke-width: 0.8"/>
      </g>
     </g>
     <g id="text_2">
      <!-- 20 -->
      <g transform="translate(122.6615 322.182437) scale(0.1 -0.1)">
       <defs>
        <path id="DejaVuSans-32" d="M 1228 531 
L 3431 531 
L 3431 0 
L 469 0 
L 469 531 
Q 828 903 1448 1529 
Q 2069 2156 2228 2338 
Q 2531 2678 2651 2914 
Q 2772 3150 2772 3378 
Q 2772 3750 2511 3984 
Q 2250 4219 1831 4219 
Q 1534 4219 1204 4116 
Q 875 4013 500 3803 
L 500 4441 
Q 881 4594 1212 4672 
Q 1544 4750 1819 4750 
Q 2544 4750 2975 4387 
Q 3406 4025 3406 3419 
Q 3406 3131 3298 2873 
Q 3191 2616 2906 2266 
Q 2828 2175 2409 1742 
Q 1991 1309 1228 531 
z
" transform="scale(0.015625)"/>
       </defs>
       <use xlink:href="#DejaVuSans-32"/>
       <use xlink:href="#DejaVuSans-30" x="63.623047"/>
      </g>
     </g>
    </g>
    <g id="xtick_3">
     <g id="line2d_3">
      <g>
       <use xlink:href="#mfd21bdbe53" x="200.448" y="307.584" style="stroke: #000000; stroke-width: 0.8"/>
      </g>
     </g>
     <g id="text_3">
      <!-- 40 -->
      <g transform="translate(194.0855 322.182437) scale(0.1 -0.1)">
       <defs>
        <path id="DejaVuSans-34" d="M 2419 4116 
L 825 1625 
L 2419 1625 
L 2419 4116 
z
M 2253 4666 
L 3047 4666 
L 3047 1625 
L 3713 1625 
L 3713 1100 
L 3047 1100 
L 3047 0 
L 2419 0 
L 2419 1100 
L 313 1100 
L 313 1709 
L 2253 4666 
z
" transform="scale(0.015625)"/>
       </defs>
       <use xlink:href="#DejaVuSans-34"/>
       <use xlink:href="#DejaVuSans-30" x="63.623047"/>
      </g>
     </g>
    </g>
    <g id="xtick_4">
     <g id="line2d_4">
      <g>
       <use xlink:href="#mfd21bdbe53" x="271.872" y="307.584" style="stroke: #000000; stroke-width: 0.8"/>
      </g>
     </g>
     <g id="text_4">
      <!-- 60 -->
      <g transform="translate(265.5095 322.182437) scale(0.1 -0.1)">
       <defs>
        <path id="DejaVuSans-36" d="M 2113 2584 
Q 1688 2584 1439 2293 
Q 1191 2003 1191 1497 
Q 1191 994 1439 701 
Q 1688 409 2113 409 
Q 2538 409 2786 701 
Q 3034 994 3034 1497 
Q 3034 2003 2786 2293 
Q 2538 2584 2113 2584 
z
M 3366 4563 
L 3366 3988 
Q 3128 4100 2886 4159 
Q 2644 4219 2406 4219 
Q 1781 4219 1451 3797 
Q 1122 3375 1075 2522 
Q 1259 2794 1537 2939 
Q 1816 3084 2150 3084 
Q 2853 3084 3261 2657 
Q 3669 2231 3669 1497 
Q 3669 778 3244 343 
Q 2819 -91 2113 -91 
Q 1303 -91 875 529 
Q 447 1150 447 2328 
Q 447 3434 972 4092 
Q 1497 4750 2381 4750 
Q 2619 4750 2861 4703 
Q 3103 4656 3366 4563 
z
" transform="scale(0.015625)"/>
       </defs>
       <use xlink:href="#DejaVuSans-36"/>
       <use xlink:href="#DejaVuSans-30" x="63.623047"/>
      </g>
     </g>
    </g>
    <g id="xtick_5">
     <g id="line2d_5">
      <g>
       <use xlink:href="#mfd21bdbe53" x="343.296" y="307.584" style="stroke: #000000; stroke-width: 0.8"/>
      </g>
     </g>
     <g id="text_5">
      <!-- 80 -->
      <g transform="translate(336.9335 322.182437) scale(0.1 -0.1)">
       <defs>
        <path id="DejaVuSans-38" d="M 2034 2216 
Q 1584 2216 1326 1975 
Q 1069 1734 1069 1313 
Q 1069 891 1326 650 
Q 1584 409 2034 409 
Q 2484 409 2743 651 
Q 3003 894 3003 1313 
Q 3003 1734 2745 1975 
Q 2488 2216 2034 2216 
z
M 1403 2484 
Q 997 2584 770 2862 
Q 544 3141 544 3541 
Q 544 4100 942 4425 
Q 1341 4750 2034 4750 
Q 2731 4750 3128 4425 
Q 3525 4100 3525 3541 
Q 3525 3141 3298 2862 
Q 3072 2584 2669 2484 
Q 3125 2378 3379 2068 
Q 3634 1759 3634 1313 
Q 3634 634 3220 271 
Q 2806 -91 2034 -91 
Q 1263 -91 848 271 
Q 434 634 434 1313 
Q 434 1759 690 2068 
Q 947 2378 1403 2484 
z
M 1172 3481 
Q 1172 3119 1398 2916 
Q 1625 2713 2034 2713 
Q 2441 2713 2670 2916 
Q 2900 3119 2900 3481 
Q 2900 3844 2670 4047 
Q 2441 4250 2034 4250 
Q 1625 4250 1398 4047 
Q 1172 3844 1172 3481 
z
" transform="scale(0.015625)"/>
       </defs>
       <use xlink:href="#DejaVuSans-38"/>
       <use xlink:href="#DejaVuSans-30" x="63.623047"/>
      </g>
     </g>
    </g>
    <g id="xtick_6">
     <g id="line2d_6">
      <g>
       <use xlink:href="#mfd21bdbe53" x="414.72" y="307.584" style="stroke: #000000; stroke-width: 0.8"/>
      </g>
     </g>
     <g id="text_6">
      <!-- 100 -->
      <g transform="translate(405.17625 322.182437) scale(0.1 -0.1)">
       <defs>
        <path id="DejaVuSans-31" d="M 794 531 
L 1825 531 
L 1825 4091 
L 703 3866 
L 703 4441 
L 1819 4666 
L 2450 4666 
L 2450 531 
L 3481 531 
L 3481 0 
L 794 0 
L 794 531 
z
" transform="scale(0.015625)"/>
       </defs>
       <use xlink:href="#DejaVuSans-31"/>
       <use xlink:href="#DejaVuSans-30" x="63.623047"/>
       <use xlink:href="#DejaVuSans-30" x="127.246094"/>
      </g>
     </g>
    </g>
    <g id="text_7">
     <!-- Number of edges per cell -->
     <g transform="translate(172.881875 335.860562) scale(0.1 -0.1)">
      <defs>
       <path id="DejaVuSans-4e" d="M 628 4666 
L 1478 4666 
L 3547 763 
L 3547 4666 
L 4159 4666 
L 4159 0 
L 3309 0 
L 1241 3903 
L 1241 0 
L 628 0 
L 628 4666 
z
" transform="scale(0.015625)"/>
       <path id="DejaVuSans-75" d="M 544 1381 
L 544 3500 
L 1119 3500 
L 1119 1403 
Q 1119 906 1312 657 
Q 1506 409 1894 409 
Q 2359 409 2629 706 
Q 2900 1003 2900 1516 
L 2900 3500 
L 3475 3500 
L 3475 0 
L 2900 0 
L 2900 538 
Q 2691 219 2414 64 
Q 2138 -91 1772 -91 
Q 1169 -91 856 284 
Q 544 659 544 1381 
z
M 1991 3584 
L 1991 3584 
z
" transform="scale(0.015625)"/>
       <path id="DejaVuSans-6d" d="M 3328 2828 
Q 3544 3216 3844 3400 
Q 4144 3584 4550 3584 
Q 5097 3584 5394 3201 
Q 5691 2819 5691 2113 
L 5691 0 
L 5113 0 
L 5113 2094 
Q 5113 2597 4934 2840 
Q 4756 3084 4391 3084 
Q 3944 3084 3684 2787 
Q 3425 2491 3425 1978 
L 3425 0 
L 2847 0 
L 2847 2094 
Q 2847 2600 2669 2842 
Q 2491 3084 2119 3084 
Q 1678 3084 1418 2786 
Q 1159 2488 1159 1978 
L 1159 0 
L 581 0 
L 581 3500 
L 1159 3500 
L 1159 2956 
Q 1356 3278 1631 3431 
Q 1906 3584 2284 3584 
Q 2666 3584 2933 3390 
Q 3200 3197 3328 2828 
z
" transform="scale(0.015625)"/>
       <path id="DejaVuSans-62" d="M 3116 1747 
Q 3116 2381 2855 2742 
Q 2594 3103 2138 3103 
Q 1681 3103 1420 2742 
Q 1159 2381 1159 1747 
Q 1159 1113 1420 752 
Q 1681 391 2138 391 
Q 2594 391 2855 752 
Q 3116 1113 3116 1747 
z
M 1159 2969 
Q 1341 3281 1617 3432 
Q 1894 3584 2278 3584 
Q 2916 3584 3314 3078 
Q 3713 2572 3713 1747 
Q 3713 922 3314 415 
Q 2916 -91 2278 -91 
Q 1894 -91 1617 61 
Q 1341 213 1159 525 
L 1159 0 
L 581 0 
L 581 4863 
L 1159 4863 
L 1159 2969 
z
" transform="scale(0.015625)"/>
       <path id="DejaVuSans-65" d="M 3597 1894 
L 3597 1613 
L 953 1613 
Q 991 1019 1311 708 
Q 1631 397 2203 397 
Q 2534 397 2845 478 
Q 3156 559 3463 722 
L 3463 178 
Q 3153 47 2828 -22 
Q 2503 -91 2169 -91 
Q 1331 -91 842 396 
Q 353 884 353 1716 
Q 353 2575 817 3079 
Q 1281 3584 2069 3584 
Q 2775 3584 3186 3129 
Q 3597 2675 3597 1894 
z
M 3022 2063 
Q 3016 2534 2758 2815 
Q 2500 3097 2075 3097 
Q 1594 3097 1305 2825 
Q 1016 2553 972 2059 
L 3022 2063 
z
" transform="scale(0.015625)"/>
       <path id="DejaVuSans-72" d="M 2631 2963 
Q 2534 3019 2420 3045 
Q 2306 3072 2169 3072 
Q 1681 3072 1420 2755 
Q 1159 2438 1159 1844 
L 1159 0 
L 581 0 
L 581 3500 
L 1159 3500 
L 1159 2956 
Q 1341 3275 1631 3429 
Q 1922 3584 2338 3584 
Q 2397 3584 2469 3576 
Q 2541 3569 2628 3553 
L 2631 2963 
z
" transform="scale(0.015625)"/>
       <path id="DejaVuSans-20" transform="scale(0.015625)"/>
       <path id="DejaVuSans-6f" d="M 1959 3097 
Q 1497 3097 1228 2736 
Q 959 2375 959 1747 
Q 959 1119 1226 758 
Q 1494 397 1959 397 
Q 2419 397 2687 759 
Q 2956 1122 2956 1747 
Q 2956 2369 2687 2733 
Q 2419 3097 1959 3097 
z
M 1959 3584 
Q 2709 3584 3137 3096 
Q 3566 2609 3566 1747 
Q 3566 888 3137 398 
Q 2709 -91 1959 -91 
Q 1206 -91 779 398 
Q 353 888 353 1747 
Q 353 2609 779 3096 
Q 1206 3584 1959 3584 
z
" transform="scale(0.015625)"/>
       <path id="DejaVuSans-66" d="M 2375 4863 
L 2375 4384 
L 1825 4384 
Q 1516 4384 1395 4259 
Q 1275 4134 1275 3809 
L 1275 3500 
L 2222 3500 
L 2222 3053 
L 1275 3053 
L 1275 0 
L 697 0 
L 697 3053 
L 147 3053 
L 147 3500 
L 697 3500 
L 697 3744 
Q 697 4328 969 4595 
Q 1241 4863 1831 4863 
L 2375 4863 
z
" transform="scale(0.015625)"/>
       <path id="DejaVuSans-64" d="M 2906 2969 
L 2906 4863 
L 3481 4863 
L 3481 0 
L 2906 0 
L 2906 525 
Q 2725 213 2448 61 
Q 2172 -91 1784 -91 
Q 1150 -91 751 415 
Q 353 922 353 1747 
Q 353 2572 751 3078 
Q 1150 3584 1784 3584 
Q 2172 3584 2448 3432 
Q 2725 3281 2906 2969 
z
M 947 1747 
Q 947 1113 1208 752 
Q 1469 391 1925 391 
Q 2381 391 2643 752 
Q 2906 1113 2906 1747 
Q 2906 2381 2643 2742 
Q 2381 3103 1925 3103 
Q 1469 3103 1208 2742 
Q 947 2381 947 1747 
z
" transform="scale(0.015625)"/>
       <path id="DejaVuSans-67" d="M 2906 1791 
Q 2906 2416 2648 2759 
Q 2391 3103 1925 3103 
Q 1463 3103 1205 2759 
Q 947 2416 947 1791 
Q 947 1169 1205 825 
Q 1463 481 1925 481 
Q 2391 481 2648 825 
Q 2906 1169 2906 1791 
z
M 3481 434 
Q 3481 -459 3084 -895 
Q 2688 -1331 1869 -1331 
Q 1566 -1331 1297 -1286 
Q 1028 -1241 775 -1147 
L 775 -588 
Q 1028 -725 1275 -790 
Q 1522 -856 1778 -856 
Q 2344 -856 2625 -561 
Q 2906 -266 2906 331 
L 2906 616 
Q 2728 306 2450 153 
Q 2172 0 1784 0 
Q 1141 0 747 490 
Q 353 981 353 1791 
Q 353 2603 747 3093 
Q 1141 3584 1784 3584 
Q 2172 3584 2450 3431 
Q 2728 3278 2906 2969 
L 2906 3500 
L 3481 3500 
L 3481 434 
z
" transform="scale(0.015625)"/>
       <path id="DejaVuSans-73" d="M 2834 3397 
L 2834 2853 
Q 2591 2978 2328 3040 
Q 2066 3103 1784 3103 
Q 1356 3103 1142 2972 
Q 928 2841 928 2578 
Q 928 2378 1081 2264 
Q 1234 2150 1697 2047 
L 1894 2003 
Q 2506 1872 2764 1633 
Q 3022 1394 3022 966 
Q 3022 478 2636 193 
Q 2250 -91 1575 -91 
Q 1294 -91 989 -36 
Q 684 19 347 128 
L 347 722 
Q 666 556 975 473 
Q 1284 391 1588 391 
Q 1994 391 2212 530 
Q 2431 669 2431 922 
Q 2431 1156 2273 1281 
Q 2116 1406 1581 1522 
L 1381 1569 
Q 847 1681 609 1914 
Q 372 2147 372 2553 
Q 372 3047 722 3315 
Q 1072 3584 1716 3584 
Q 2034 3584 2315 3537 
Q 2597 3491 2834 3397 
z
" transform="scale(0.015625)"/>
       <path id="DejaVuSans-70" d="M 1159 525 
L 1159 -1331 
L 581 -1331 
L 581 3500 
L 1159 3500 
L 1159 2969 
Q 1341 3281 1617 3432 
Q 1894 3584 2278 3584 
Q 2916 3584 3314 3078 
Q 3713 2572 3713 1747 
Q 3713 922 3314 415 
Q 2916 -91 2278 -91 
Q 1894 -91 1617 61 
Q 1341 213 1159 525 
z
M 3116 1747 
Q 3116 2381 2855 2742 
Q 2594 3103 2138 3103 
Q 1681 3103 1420 2742 
Q 1159 2381 1159 1747 
Q 1159 1113 1420 752 
Q 1681 391 2138 391 
Q 2594 391 2855 752 
Q 3116 1113 3116 1747 
z
" transform="scale(0.015625)"/>
       <path id="DejaVuSans-63" d="M 3122 3366 
L 3122 2828 
Q 2878 2963 2633 3030 
Q 2388 3097 2138 3097 
Q 1578 3097 1268 2742 
Q 959 2388 959 1747 
Q 959 1106 1268 751 
Q 1578 397 2138 397 
Q 2388 397 2633 464 
Q 2878 531 3122 666 
L 3122 134 
Q 2881 22 2623 -34 
Q 2366 -91 2075 -91 
Q 1284 -91 818 406 
Q 353 903 353 1747 
Q 353 2603 823 3093 
Q 1294 3584 2113 3584 
Q 2378 3584 2631 3529 
Q 2884 3475 3122 3366 
z
" transform="scale(0.015625)"/>
       <path id="DejaVuSans-6c" d="M 603 4863 
L 1178 4863 
L 1178 0 
L 603 0 
L 603 4863 
z
" transform="scale(0.015625)"/>
      </defs>
      <use xlink:href="#DejaVuSans-4e"/>
      <use xlink:href="#DejaVuSans-75" x="74.804688"/>
      <use xlink:href="#DejaVuSans-6d" x="138.183594"/>
      <use xlink:href="#DejaVuSans-62" x="235.595703"/>
      <use xlink:href="#DejaVuSans-65" x="299.072266"/>
      <use xlink:href="#DejaVuSans-72" x="360.595703"/>
      <use xlink:href="#DejaVuSans-20" x="401.708984"/>
      <use xlink:href="#DejaVuSans-6f" x="433.496094"/>
      <use xlink:href="#DejaVuSans-66" x="494.677734"/>
      <use xlink:href="#DejaVuSans-20" x="529.882812"/>
      <use xlink:href="#DejaVuSans-65" x="561.669922"/>
      <use xlink:href="#DejaVuSans-64" x="623.193359"/>
      <use xlink:href="#DejaVuSans-67" x="686.669922"/>
      <use xlink:href="#DejaVuSans-65" x="750.146484"/>
      <use xlink:href="#DejaVuSans-73" x="811.669922"/>
      <use xlink:href="#DejaVuSans-20" x="863.769531"/>
      <use xlink:href="#DejaVuSans-70" x="895.556641"/>
      <use xlink:href="#DejaVuSans-65" x="959.033203"/>
      <use xlink:href="#DejaVuSans-72" x="1020.556641"/>
      <use xlink:href="#DejaVuSans-20" x="1061.669922"/>
      <use xlink:href="#DejaVuSans-63" x="1093.457031"/>
      <use xlink:href="#DejaVuSans-65" x="1148.4375"/>
      <use xlink:href="#DejaVuSans-6c" x="1209.960938"/>
      <use xlink:href="#DejaVuSans-6c" x="1237.744141"/>
     </g>
    </g>
   </g>
   <g id="matplotlib.axis_2">
    <g id="ytick_1">
     <g id="line2d_7">
      <defs>
       <path id="md7a3936c74" d="M 0 0 
L -3.5 0 
" style="stroke: #000000; stroke-width: 0.8"/>
      </defs>
      <g>
       <use xlink:href="#md7a3936c74" x="57.6" y="277.124485" style="stroke: #000000; stroke-width: 0.8"/>
      </g>
     </g>
     <g id="text_8">
      <!-- 0.0 -->
      <g transform="translate(34.696875 280.923704) scale(0.1 -0.1)">
       <defs>
        <path id="DejaVuSans-2e" d="M 684 794 
L 1344 794 
L 1344 0 
L 684 0 
L 684 794 
z
" transform="scale(0.015625)"/>
       </defs>
       <use xlink:href="#DejaVuSans-30"/>
       <use xlink:href="#DejaVuSans-2e" x="63.623047"/>
       <use xlink:href="#DejaVuSans-30" x="95.410156"/>
      </g>
     </g>
    </g>
    <g id="ytick_2">
     <g id="line2d_8">
      <g>
       <use xlink:href="#md7a3936c74" x="57.6" y="240.600523" style="stroke: #000000; stroke-width: 0.8"/>
      </g>
     </g>
     <g id="text_9">
      <!-- 0.1 -->
      <g transform="translate(34.696875 244.399742) scale(0.1 -0.1)">
       <use xlink:href="#DejaVuSans-30"/>
       <use xlink:href="#DejaVuSans-2e" x="63.623047"/>
       <use xlink:href="#DejaVuSans-31" x="95.410156"/>
      </g>
     </g>
    </g>
    <g id="ytick_3">
     <g id="line2d_9">
      <g>
       <use xlink:href="#md7a3936c74" x="57.6" y="204.076562" style="stroke: #000000; stroke-width: 0.8"/>
      </g>
     </g>
     <g id="text_10">
      <!-- 0.2 -->
      <g transform="translate(34.696875 207.87578) scale(0.1 -0.1)">
       <use xlink:href="#DejaVuSans-30"/>
       <use xlink:href="#DejaVuSans-2e" x="63.623047"/>
       <use xlink:href="#DejaVuSans-32" x="95.410156"/>
      </g>
     </g>
    </g>
    <g id="ytick_4">
     <g id="line2d_10">
      <g>
       <use xlink:href="#md7a3936c74" x="57.6" y="167.5526" style="stroke: #000000; stroke-width: 0.8"/>
      </g>
     </g>
     <g id="text_11">
      <!-- 0.3 -->
      <g transform="translate(34.696875 171.351819) scale(0.1 -0.1)">
       <defs>
        <path id="DejaVuSans-33" d="M 2597 2516 
Q 3050 2419 3304 2112 
Q 3559 1806 3559 1356 
Q 3559 666 3084 287 
Q 2609 -91 1734 -91 
Q 1441 -91 1130 -33 
Q 819 25 488 141 
L 488 750 
Q 750 597 1062 519 
Q 1375 441 1716 441 
Q 2309 441 2620 675 
Q 2931 909 2931 1356 
Q 2931 1769 2642 2001 
Q 2353 2234 1838 2234 
L 1294 2234 
L 1294 2753 
L 1863 2753 
Q 2328 2753 2575 2939 
Q 2822 3125 2822 3475 
Q 2822 3834 2567 4026 
Q 2313 4219 1838 4219 
Q 1578 4219 1281 4162 
Q 984 4106 628 3988 
L 628 4550 
Q 988 4650 1302 4700 
Q 1616 4750 1894 4750 
Q 2613 4750 3031 4423 
Q 3450 4097 3450 3541 
Q 3450 3153 3228 2886 
Q 3006 2619 2597 2516 
z
" transform="scale(0.015625)"/>
       </defs>
       <use xlink:href="#DejaVuSans-30"/>
       <use xlink:href="#DejaVuSans-2e" x="63.623047"/>
       <use xlink:href="#DejaVuSans-33" x="95.410156"/>
      </g>
     </g>
    </g>
    <g id="ytick_5">
     <g id="line2d_11">
      <g>
       <use xlink:href="#md7a3936c74" x="57.6" y="131.028638" style="stroke: #000000; stroke-width: 0.8"/>
      </g>
     </g>
     <g id="text_12">
      <!-- 0.4 -->
      <g transform="translate(34.696875 134.827857) scale(0.1 -0.1)">
       <use xlink:href="#DejaVuSans-30"/>
       <use xlink:href="#DejaVuSans-2e" x="63.623047"/>
       <use xlink:href="#DejaVuSans-34" x="95.410156"/>
      </g>
     </g>
    </g>
    <g id="ytick_6">
     <g id="line2d_12">
      <g>
       <use xlink:href="#md7a3936c74" x="57.6" y="94.504677" style="stroke: #000000; stroke-width: 0.8"/>
      </g>
     </g>
     <g id="text_13">
      <!-- 0.5 -->
      <g transform="translate(34.696875 98.303896) scale(0.1 -0.1)">
       <defs>
        <path id="DejaVuSans-35" d="M 691 4666 
L 3169 4666 
L 3169 4134 
L 1269 4134 
L 1269 2991 
Q 1406 3038 1543 3061 
Q 1681 3084 1819 3084 
Q 2600 3084 3056 2656 
Q 3513 2228 3513 1497 
Q 3513 744 3044 326 
Q 2575 -91 1722 -91 
Q 1428 -91 1123 -41 
Q 819 9 494 109 
L 494 744 
Q 775 591 1075 516 
Q 1375 441 1709 441 
Q 2250 441 2565 725 
Q 2881 1009 2881 1497 
Q 2881 1984 2565 2268 
Q 2250 2553 1709 2553 
Q 1456 2553 1204 2497 
Q 953 2441 691 2322 
L 691 4666 
z
" transform="scale(0.015625)"/>
       </defs>
       <use xlink:href="#DejaVuSans-30"/>
       <use xlink:href="#DejaVuSans-2e" x="63.623047"/>
       <use xlink:href="#DejaVuSans-35" x="95.410156"/>
      </g>
     </g>
    </g>
    <g id="ytick_7">
     <g id="line2d_13">
      <g>
       <use xlink:href="#md7a3936c74" x="57.6" y="57.980715" style="stroke: #000000; stroke-width: 0.8"/>
      </g>
     </g>
     <g id="text_14">
      <!-- 0.6 -->
      <g transform="translate(34.696875 61.779934) scale(0.1 -0.1)">
       <use xlink:href="#DejaVuSans-30"/>
       <use xlink:href="#DejaVuSans-2e" x="63.623047"/>
       <use xlink:href="#DejaVuSans-36" x="95.410156"/>
      </g>
     </g>
    </g>
    <g id="text_15">
     <!-- Assortativity -->
     <g transform="translate(28.617187 205.913938) rotate(-90) scale(0.1 -0.1)">
      <defs>
       <path id="DejaVuSans-41" d="M 2188 4044 
L 1331 1722 
L 3047 1722 
L 2188 4044 
z
M 1831 4666 
L 2547 4666 
L 4325 0 
L 3669 0 
L 3244 1197 
L 1141 1197 
L 716 0 
L 50 0 
L 1831 4666 
z
" transform="scale(0.015625)"/>
       <path id="DejaVuSans-74" d="M 1172 4494 
L 1172 3500 
L 2356 3500 
L 2356 3053 
L 1172 3053 
L 1172 1153 
Q 1172 725 1289 603 
Q 1406 481 1766 481 
L 2356 481 
L 2356 0 
L 1766 0 
Q 1100 0 847 248 
Q 594 497 594 1153 
L 594 3053 
L 172 3053 
L 172 3500 
L 594 3500 
L 594 4494 
L 1172 4494 
z
" transform="scale(0.015625)"/>
       <path id="DejaVuSans-61" d="M 2194 1759 
Q 1497 1759 1228 1600 
Q 959 1441 959 1056 
Q 959 750 1161 570 
Q 1363 391 1709 391 
Q 2188 391 2477 730 
Q 2766 1069 2766 1631 
L 2766 1759 
L 2194 1759 
z
M 3341 1997 
L 3341 0 
L 2766 0 
L 2766 531 
Q 2569 213 2275 61 
Q 1981 -91 1556 -91 
Q 1019 -91 701 211 
Q 384 513 384 1019 
Q 384 1609 779 1909 
Q 1175 2209 1959 2209 
L 2766 2209 
L 2766 2266 
Q 2766 2663 2505 2880 
Q 2244 3097 1772 3097 
Q 1472 3097 1187 3025 
Q 903 2953 641 2809 
L 641 3341 
Q 956 3463 1253 3523 
Q 1550 3584 1831 3584 
Q 2591 3584 2966 3190 
Q 3341 2797 3341 1997 
z
" transform="scale(0.015625)"/>
       <path id="DejaVuSans-69" d="M 603 3500 
L 1178 3500 
L 1178 0 
L 603 0 
L 603 3500 
z
M 603 4863 
L 1178 4863 
L 1178 4134 
L 603 4134 
L 603 4863 
z
" transform="scale(0.015625)"/>
       <path id="DejaVuSans-76" d="M 191 3500 
L 800 3500 
L 1894 563 
L 2988 3500 
L 3597 3500 
L 2284 0 
L 1503 0 
L 191 3500 
z
" transform="scale(0.015625)"/>
       <path id="DejaVuSans-79" d="M 2059 -325 
Q 1816 -950 1584 -1140 
Q 1353 -1331 966 -1331 
L 506 -1331 
L 506 -850 
L 844 -850 
Q 1081 -850 1212 -737 
Q 1344 -625 1503 -206 
L 1606 56 
L 191 3500 
L 800 3500 
L 1894 763 
L 2988 3500 
L 3597 3500 
L 2059 -325 
z
" transform="scale(0.015625)"/>
      </defs>
      <use xlink:href="#DejaVuSans-41"/>
      <use xlink:href="#DejaVuSans-73" x="68.408203"/>
      <use xlink:href="#DejaVuSans-73" x="120.507812"/>
      <use xlink:href="#DejaVuSans-6f" x="172.607422"/>
      <use xlink:href="#DejaVuSans-72" x="233.789062"/>
      <use xlink:href="#DejaVuSans-74" x="274.902344"/>
      <use xlink:href="#DejaVuSans-61" x="314.111328"/>
      <use xlink:href="#DejaVuSans-74" x="375.390625"/>
      <use xlink:href="#DejaVuSans-69" x="414.599609"/>
      <use xlink:href="#DejaVuSans-76" x="442.382812"/>
      <use xlink:href="#DejaVuSans-69" x="501.5625"/>
      <use xlink:href="#DejaVuSans-74" x="529.345703"/>
      <use xlink:href="#DejaVuSans-79" x="568.554688"/>
     </g>
    </g>
   </g>
   <g id="line2d_14">
    <path d="M 61.1712 271.576909 
L 64.7424 243.885951 
L 68.3136 187.434064 
L 71.8848 179.552661 
L 75.456 163.202019 
L 79.0272 162.955366 
L 82.5984 161.8687 
L 86.1696 162.932727 
L 89.7408 166.186436 
L 93.312 165.080391 
L 96.8832 163.435103 
L 100.4544 163.055972 
L 104.0256 163.234649 
L 107.5968 160.274248 
L 111.168 159.47733 
L 114.7392 160.237196 
L 118.3104 161.691622 
L 121.8816 164.71812 
L 125.4528 164.294725 
L 129.024 162.67844 
L 132.5952 163.180165 
L 136.1664 162.872106 
L 139.7376 165.759456 
L 143.3088 169.207958 
L 146.88 169.008601 
L 150.4512 168.274491 
L 154.0224 168.895844 
L 157.5936 169.075194 
L 161.1648 171.110106 
L 164.736 170.898457 
L 168.3072 171.977205 
L 171.8784 174.430388 
L 175.4496 175.038627 
L 182.592 175.493874 
L 186.1632 176.909055 
L 189.7344 177.206949 
L 193.3056 177.288185 
L 196.8768 177.972081 
L 200.448 177.234722 
L 207.5904 178.03533 
L 211.1616 177.881678 
L 214.7328 178.867412 
L 221.8752 179.416272 
L 229.0176 180.77704 
L 232.5888 181.05336 
L 236.16 182.177236 
L 239.7312 182.481831 
L 243.3024 183.322746 
L 246.8736 182.765527 
L 250.4448 183.656558 
L 254.016 183.838111 
L 257.5872 184.381552 
L 261.1584 183.938352 
L 264.7296 184.561916 
L 268.3008 184.917903 
L 275.4432 186.80013 
L 279.0144 186.994006 
L 282.5856 187.774204 
L 286.1568 188.740125 
L 289.728 190.029204 
L 293.2992 190.34897 
L 296.8704 191.049654 
L 300.4416 190.987409 
L 304.0128 191.630178 
L 314.7264 192.862867 
L 318.2976 192.68846 
L 321.8688 192.642438 
L 325.44 193.938584 
L 329.0112 194.382294 
L 332.5824 194.122954 
L 339.7248 196.02657 
L 343.296 196.420076 
L 350.4384 197.445769 
L 354.0096 197.45808 
L 357.5808 198.411053 
L 361.152 199.143692 
L 364.7232 199.550367 
L 368.2944 200.233119 
L 371.8656 201.293479 
L 379.008 201.471504 
L 382.5792 201.94279 
L 386.1504 201.979835 
L 389.7216 202.310804 
L 393.2928 203.45067 
L 396.864 204.209535 
L 400.4352 204.229396 
L 407.5776 206.865842 
L 411.1488 207.051029 
L 414.72 207.432675 
L 418.2912 207.970724 
L 421.8624 208.135161 
L 425.4336 208.166366 
L 429.0048 209.100611 
L 439.7184 210.784882 
L 443.2896 211.795394 
L 446.8608 212.000189 
L 450.432 212.632248 
L 457.5744 213.370018 
L 461.8 214.053465 
L 461.8 214.053465 
" clip-path="url(#p142adef5c2)" style="fill: none; stroke: #000000; stroke-width: 1.5; stroke-linecap: square"/>
   </g>
   <g id="line2d_15">
    <path d="M 57.6 278.397097 
L 61.1712 120.25617 
L 64.7424 138.027218 
L 68.3136 144.74053 
L 71.8848 153.495598 
L 75.456 150.032163 
L 79.0272 152.572218 
L 82.5984 155.561086 
L 86.1696 156.458126 
L 89.7408 155.447655 
L 93.312 156.943302 
L 96.8832 158.618399 
L 100.4544 161.616299 
L 104.0256 163.068948 
L 107.5968 163.766548 
L 111.168 165.049772 
L 114.7392 165.056523 
L 118.3104 165.644333 
L 121.8816 167.931356 
L 129.024 169.211174 
L 132.5952 172.200551 
L 136.1664 172.680094 
L 139.7376 173.351845 
L 143.3088 173.295203 
L 146.88 173.870423 
L 150.4512 174.200386 
L 154.0224 175.878632 
L 157.5936 176.957247 
L 168.3072 179.095181 
L 171.8784 178.90809 
L 175.4496 179.263784 
L 179.0208 180.5834 
L 182.592 180.897008 
L 189.7344 181.822844 
L 200.448 183.665172 
L 207.5904 184.593724 
L 211.1616 184.698874 
L 214.7328 185.472951 
L 218.304 186.547834 
L 221.8752 186.727434 
L 225.4464 186.043001 
L 229.0176 186.546918 
L 232.5888 187.526657 
L 236.16 188.203121 
L 243.3024 188.862655 
L 246.8736 189.65835 
L 254.016 190.78705 
L 257.5872 191.850075 
L 261.1584 191.76882 
L 271.872 193.617133 
L 275.4432 193.270312 
L 279.0144 193.985565 
L 282.5856 195.384271 
L 286.1568 196.071888 
L 289.728 196.355983 
L 300.4416 197.831223 
L 307.584 198.746022 
L 311.1552 199.284061 
L 314.7264 200.101119 
L 318.2976 200.48328 
L 325.44 201.705041 
L 329.0112 202.599533 
L 332.5824 203.263907 
L 336.1536 203.700338 
L 343.296 204.023598 
L 346.8672 204.416367 
L 350.4384 204.649858 
L 361.152 206.151191 
L 364.7232 206.354329 
L 371.8656 208.252225 
L 379.008 208.757457 
L 382.5792 209.415592 
L 386.1504 210.314332 
L 389.7216 210.541522 
L 393.2928 211.042451 
L 396.864 210.944987 
L 404.0064 212.135741 
L 407.5776 212.960433 
L 411.1488 213.287627 
L 414.72 213.788613 
L 421.8624 215.058122 
L 425.4336 215.292165 
L 429.0048 216.063841 
L 432.576 216.335953 
L 436.1472 217.530834 
L 446.8608 219.609653 
L 450.432 219.832901 
L 461.1456 221.099474 
L 461.8 221.224015 
L 461.8 221.224015 
" clip-path="url(#p142adef5c2)" style="fill: none; stroke: #ffa500; stroke-width: 1.5; stroke-linecap: square"/>
   </g>
   <g id="line2d_16">
    <path d="M 57.6 278.397097 
L 61.1712 141.790713 
L 64.7424 129.679859 
L 68.3136 137.519027 
L 71.8848 138.352611 
L 75.456 141.986743 
L 79.0272 144.647953 
L 82.5984 147.544529 
L 86.1696 146.766135 
L 89.7408 149.195004 
L 93.312 147.97429 
L 96.8832 150.412319 
L 100.4544 147.861885 
L 104.0256 148.083341 
L 107.5968 151.127822 
L 111.168 152.041452 
L 114.7392 153.340862 
L 118.3104 153.388361 
L 121.8816 155.070667 
L 129.024 154.998145 
L 132.5952 157.053277 
L 136.1664 158.257712 
L 139.7376 158.454228 
L 143.3088 158.80038 
L 146.88 158.455917 
L 154.0224 158.822629 
L 157.5936 159.218874 
L 161.1648 159.08659 
L 164.736 160.049044 
L 168.3072 159.660053 
L 171.8784 160.985033 
L 175.4496 161.760693 
L 179.0208 161.555042 
L 182.592 162.307896 
L 186.1632 163.644017 
L 189.7344 163.676013 
L 193.3056 164.022531 
L 196.8768 164.928113 
L 200.448 165.547786 
L 204.0192 166.740166 
L 214.7328 167.088187 
L 218.304 166.62996 
L 221.8752 166.824918 
L 225.4464 166.607658 
L 229.0176 167.543478 
L 232.5888 167.53619 
L 239.7312 167.99535 
L 243.3024 168.541849 
L 246.8736 168.806994 
L 250.4448 170.36993 
L 254.016 170.308461 
L 261.1584 171.159819 
L 264.7296 170.92204 
L 271.872 171.708147 
L 275.4432 172.364033 
L 279.0144 172.658154 
L 282.5856 173.383879 
L 286.1568 174.389698 
L 289.728 174.865798 
L 300.4416 175.915097 
L 304.0128 175.956719 
L 307.584 176.817102 
L 311.1552 177.469527 
L 314.7264 178.310292 
L 318.2976 178.926738 
L 321.8688 178.695082 
L 325.44 179.611998 
L 332.5824 180.465605 
L 336.1536 180.741562 
L 343.296 181.616492 
L 346.8672 181.586185 
L 350.4384 182.082247 
L 354.0096 182.406744 
L 357.5808 183.375957 
L 361.152 184.100727 
L 364.7232 184.235612 
L 368.2944 184.068521 
L 375.4368 184.339166 
L 379.008 184.971761 
L 393.2928 186.823303 
L 396.864 187.518715 
L 400.4352 187.93983 
L 404.0064 188.64038 
L 411.1488 190.318426 
L 414.72 190.305804 
L 421.8624 191.152821 
L 425.4336 191.160766 
L 432.576 192.437001 
L 436.1472 192.918898 
L 443.2896 193.529859 
L 446.8608 193.818989 
L 454.0032 195.011458 
L 457.5744 194.839582 
L 461.8 195.35283 
L 461.8 195.35283 
" clip-path="url(#p142adef5c2)" style="fill: none; stroke: #bf00bf; stroke-width: 1.5; stroke-linecap: square"/>
   </g>
   <g id="line2d_17">
    <path d="M 61.1712 295.488 
L 64.7424 269.659277 
L 68.3136 270.291006 
L 71.8848 266.428301 
L 75.456 263.263862 
L 79.0272 250.606842 
L 82.5984 232.845324 
L 86.1696 220.247266 
L 89.7408 211.943415 
L 93.312 200.769869 
L 96.8832 187.654657 
L 100.4544 184.131856 
L 104.0256 181.339528 
L 107.5968 175.53718 
L 111.168 171.524747 
L 114.7392 168.13114 
L 118.3104 162.959413 
L 121.8816 158.044647 
L 125.4528 157.025296 
L 129.024 157.058858 
L 132.5952 152.886211 
L 136.1664 150.651084 
L 139.7376 147.911949 
L 143.3088 147.553061 
L 146.88 144.499168 
L 150.4512 143.891306 
L 154.0224 142.743934 
L 157.5936 142.999106 
L 161.1648 143.606654 
L 164.736 144.505075 
L 168.3072 143.332946 
L 171.8784 143.354756 
L 175.4496 142.649936 
L 179.0208 142.9236 
L 182.592 142.508745 
L 186.1632 141.084097 
L 189.7344 141.459307 
L 193.3056 141.019958 
L 196.8768 140.846598 
L 200.448 141.687399 
L 207.5904 141.38312 
L 211.1616 142.676894 
L 214.7328 143.04517 
L 218.304 145.598814 
L 221.8752 144.404644 
L 225.4464 144.62879 
L 229.0176 144.506342 
L 232.5888 145.897759 
L 236.16 146.565901 
L 239.7312 147.812317 
L 243.3024 147.49289 
L 246.8736 148.180817 
L 250.4448 148.634119 
L 257.5872 150.743047 
L 261.1584 150.974461 
L 264.7296 151.705357 
L 268.3008 152.115036 
L 271.872 152.674916 
L 275.4432 153.738178 
L 279.0144 155.0036 
L 282.5856 156.723328 
L 286.1568 157.005921 
L 289.728 156.97769 
L 293.2992 157.315421 
L 296.8704 156.668358 
L 300.4416 157.060152 
L 304.0128 158.12034 
L 307.584 159.033532 
L 311.1552 159.707843 
L 314.7264 160.223445 
L 318.2976 160.427452 
L 321.8688 160.777983 
L 325.44 160.817875 
L 332.5824 162.488262 
L 339.7248 164.014535 
L 343.296 164.398539 
L 346.8672 165.627988 
L 350.4384 166.729915 
L 354.0096 167.312675 
L 357.5808 168.289769 
L 361.152 168.991653 
L 364.7232 169.331661 
L 368.2944 169.894566 
L 371.8656 170.213535 
L 375.4368 170.387632 
L 379.008 170.855876 
L 382.5792 171.913893 
L 386.1504 172.242567 
L 393.2928 173.379388 
L 396.864 173.365771 
L 400.4352 174.004845 
L 404.0064 174.220055 
L 407.5776 174.216199 
L 411.1488 174.565876 
L 414.72 175.160353 
L 418.2912 176.116367 
L 421.8624 176.720673 
L 425.4336 177.731745 
L 432.576 178.595722 
L 436.1472 179.099575 
L 439.7184 179.378803 
L 443.2896 179.851957 
L 446.8608 180.484546 
L 450.432 180.014146 
L 454.0032 180.639858 
L 457.5744 181.442096 
L 461.8 182.045698 
L 461.8 182.045698 
" clip-path="url(#p142adef5c2)" style="fill: none; stroke-dasharray: 1.5,2.475; stroke-dashoffset: 0; stroke: #000000; stroke-width: 1.5"/>
   </g>
   <g id="line2d_18">
    <path d="M 57.6 278.397097 
L 61.1712 112.427714 
L 64.7424 122.624127 
L 68.3136 132.359956 
L 71.8848 135.522269 
L 75.456 134.885546 
L 79.0272 145.782603 
L 82.5984 155.076186 
L 86.1696 159.120696 
L 89.7408 160.839575 
L 93.312 158.649785 
L 96.8832 151.864003 
L 100.4544 151.024157 
L 104.0256 151.66431 
L 107.5968 152.180196 
L 114.7392 148.571678 
L 118.3104 149.890994 
L 121.8816 147.842085 
L 125.4528 146.878415 
L 129.024 146.356319 
L 132.5952 146.723582 
L 136.1664 146.294383 
L 139.7376 146.766408 
L 143.3088 147.921703 
L 146.88 148.273117 
L 150.4512 147.853092 
L 157.5936 149.834025 
L 161.1648 149.547466 
L 168.3072 149.656746 
L 171.8784 151.204589 
L 175.4496 151.695728 
L 179.0208 151.647437 
L 186.1632 152.672957 
L 189.7344 152.537987 
L 193.3056 153.486469 
L 196.8768 153.293532 
L 200.448 154.36053 
L 204.0192 154.668931 
L 207.5904 154.693221 
L 214.7328 156.748429 
L 218.304 157.568286 
L 221.8752 158.949828 
L 225.4464 159.494921 
L 229.0176 159.139817 
L 236.16 160.223017 
L 239.7312 161.248149 
L 246.8736 162.393176 
L 250.4448 161.858619 
L 254.016 162.629675 
L 257.5872 163.752144 
L 261.1584 164.242488 
L 264.7296 164.16856 
L 268.3008 165.216352 
L 271.872 165.408726 
L 275.4432 166.603265 
L 282.5856 167.230583 
L 286.1568 168.052889 
L 289.728 168.317532 
L 296.8704 169.881348 
L 300.4416 169.712164 
L 311.1552 170.670009 
L 318.2976 170.899626 
L 321.8688 171.008326 
L 325.44 171.537698 
L 329.0112 172.267616 
L 332.5824 172.452744 
L 336.1536 173.530141 
L 339.7248 174.185809 
L 343.296 175.13266 
L 346.8672 175.725481 
L 350.4384 176.112708 
L 354.0096 176.033497 
L 357.5808 176.392535 
L 361.152 177.326745 
L 371.8656 179.230231 
L 379.008 180.702595 
L 386.1504 181.458002 
L 389.7216 181.48074 
L 393.2928 182.301445 
L 396.864 182.698784 
L 400.4352 183.33689 
L 404.0064 183.853978 
L 407.5776 184.54636 
L 411.1488 184.515594 
L 414.72 185.083591 
L 421.8624 185.853563 
L 432.576 187.949482 
L 436.1472 187.772049 
L 443.2896 188.978699 
L 446.8608 189.311898 
L 450.432 190.030792 
L 454.0032 190.963058 
L 457.5744 191.522429 
L 461.8 191.967849 
L 461.8 191.967849 
" clip-path="url(#p142adef5c2)" style="fill: none; stroke-dasharray: 1.5,2.475; stroke-dashoffset: 0; stroke: #ffa500; stroke-width: 1.5"/>
   </g>
   <g id="line2d_19">
    <path d="M 57.6 278.397097 
L 61.1712 53.568 
L 64.7424 75.613274 
L 68.3136 85.569464 
L 71.8848 98.166723 
L 75.456 104.344978 
L 79.0272 108.106224 
L 82.5984 106.297197 
L 86.1696 108.998538 
L 89.7408 112.738082 
L 93.312 109.72804 
L 96.8832 113.291025 
L 100.4544 113.082011 
L 104.0256 114.706353 
L 107.5968 118.036546 
L 111.168 118.271914 
L 114.7392 118.214481 
L 118.3104 119.591341 
L 121.8816 122.117357 
L 125.4528 123.347296 
L 129.024 125.539778 
L 132.5952 128.226452 
L 136.1664 129.800355 
L 139.7376 132.354716 
L 143.3088 133.551936 
L 146.88 133.130978 
L 150.4512 134.790295 
L 157.5936 135.84019 
L 161.1648 135.314391 
L 164.736 136.567283 
L 168.3072 138.396924 
L 171.8784 139.884909 
L 175.4496 140.077689 
L 179.0208 140.592297 
L 186.1632 141.271923 
L 189.7344 141.34952 
L 193.3056 142.495427 
L 196.8768 143.162468 
L 200.448 143.972329 
L 204.0192 144.225766 
L 207.5904 144.916048 
L 211.1616 145.126424 
L 214.7328 145.728219 
L 218.304 145.925808 
L 221.8752 147.475391 
L 225.4464 147.734293 
L 229.0176 147.709362 
L 232.5888 148.449448 
L 236.16 149.682997 
L 239.7312 149.937428 
L 243.3024 150.717264 
L 246.8736 150.76536 
L 250.4448 151.086707 
L 254.016 150.946717 
L 257.5872 151.822178 
L 261.1584 152.869272 
L 264.7296 153.564889 
L 268.3008 154.0456 
L 275.4432 155.635027 
L 279.0144 156.475639 
L 282.5856 156.193067 
L 286.1568 157.535031 
L 289.728 158.238376 
L 293.2992 158.716864 
L 296.8704 159.49818 
L 300.4416 160.081271 
L 304.0128 160.311279 
L 307.584 160.950474 
L 311.1552 161.731394 
L 318.2976 162.744498 
L 321.8688 163.5538 
L 325.44 164.896043 
L 336.1536 166.819452 
L 339.7248 167.654027 
L 343.296 167.957876 
L 346.8672 168.750965 
L 350.4384 168.975621 
L 354.0096 170.149111 
L 357.5808 170.588353 
L 361.152 170.266905 
L 364.7232 171.113809 
L 371.8656 172.574014 
L 375.4368 173.702016 
L 389.7216 176.180145 
L 396.864 177.590409 
L 400.4352 178.212016 
L 404.0064 178.570037 
L 407.5776 179.322259 
L 411.1488 179.483115 
L 414.72 180.527672 
L 418.2912 181.189257 
L 425.4336 181.998247 
L 429.0048 182.660674 
L 436.1472 183.616938 
L 439.7184 183.734484 
L 443.2896 184.241683 
L 450.432 185.750734 
L 454.0032 186.000263 
L 457.5744 186.753861 
L 461.1456 187.222543 
L 461.8 187.434317 
L 461.8 187.434317 
" clip-path="url(#p142adef5c2)" style="fill: none; stroke-dasharray: 1.5,2.475; stroke-dashoffset: 0; stroke: #bf00bf; stroke-width: 1.5"/>
   </g>
   <g id="patch_3">
    <path d="M 57.6 307.584 
L 57.6 41.472 
" style="fill: none; stroke: #000000; stroke-width: 0.8; stroke-linejoin: miter; stroke-linecap: square"/>
   </g>
   <g id="patch_4">
    <path d="M 414.72 307.584 
L 414.72 41.472 
" style="fill: none; stroke: #000000; stroke-width: 0.8; stroke-linejoin: miter; stroke-linecap: square"/>
   </g>
   <g id="patch_5">
    <path d="M 57.6 307.584 
L 414.72 307.584 
" style="fill: none; stroke: #000000; stroke-width: 0.8; stroke-linejoin: miter; stroke-linecap: square"/>
   </g>
   <g id="patch_6">
    <path d="M 57.6 41.472 
L 414.72 41.472 
" style="fill: none; stroke: #000000; stroke-width: 0.8; stroke-linejoin: miter; stroke-linecap: square"/>
   </g>
   <g id="text_16">
    <!-- Assortativity for E-MTAB-2805 -->
    <g transform="translate(146.445 35.472) scale(0.12 -0.12)">
     <defs>
      <path id="DejaVuSans-45" d="M 628 4666 
L 3578 4666 
L 3578 4134 
L 1259 4134 
L 1259 2753 
L 3481 2753 
L 3481 2222 
L 1259 2222 
L 1259 531 
L 3634 531 
L 3634 0 
L 628 0 
L 628 4666 
z
" transform="scale(0.015625)"/>
      <path id="DejaVuSans-2d" d="M 313 2009 
L 1997 2009 
L 1997 1497 
L 313 1497 
L 313 2009 
z
" transform="scale(0.015625)"/>
      <path id="DejaVuSans-4d" d="M 628 4666 
L 1569 4666 
L 2759 1491 
L 3956 4666 
L 4897 4666 
L 4897 0 
L 4281 0 
L 4281 4097 
L 3078 897 
L 2444 897 
L 1241 4097 
L 1241 0 
L 628 0 
L 628 4666 
z
" transform="scale(0.015625)"/>
      <path id="DejaVuSans-54" d="M -19 4666 
L 3928 4666 
L 3928 4134 
L 2272 4134 
L 2272 0 
L 1638 0 
L 1638 4134 
L -19 4134 
L -19 4666 
z
" transform="scale(0.015625)"/>
      <path id="DejaVuSans-42" d="M 1259 2228 
L 1259 519 
L 2272 519 
Q 2781 519 3026 730 
Q 3272 941 3272 1375 
Q 3272 1813 3026 2020 
Q 2781 2228 2272 2228 
L 1259 2228 
z
M 1259 4147 
L 1259 2741 
L 2194 2741 
Q 2656 2741 2882 2914 
Q 3109 3088 3109 3444 
Q 3109 3797 2882 3972 
Q 2656 4147 2194 4147 
L 1259 4147 
z
M 628 4666 
L 2241 4666 
Q 2963 4666 3353 4366 
Q 3744 4066 3744 3513 
Q 3744 3084 3544 2831 
Q 3344 2578 2956 2516 
Q 3422 2416 3680 2098 
Q 3938 1781 3938 1306 
Q 3938 681 3513 340 
Q 3088 0 2303 0 
L 628 0 
L 628 4666 
z
" transform="scale(0.015625)"/>
     </defs>
     <use xlink:href="#DejaVuSans-41"/>
     <use xlink:href="#DejaVuSans-73" x="68.408203"/>
     <use xlink:href="#DejaVuSans-73" x="120.507812"/>
     <use xlink:href="#DejaVuSans-6f" x="172.607422"/>
     <use xlink:href="#DejaVuSans-72" x="233.789062"/>
     <use xlink:href="#DejaVuSans-74" x="274.902344"/>
     <use xlink:href="#DejaVuSans-61" x="314.111328"/>
     <use xlink:href="#DejaVuSans-74" x="375.390625"/>
     <use xlink:href="#DejaVuSans-69" x="414.599609"/>
     <use xlink:href="#DejaVuSans-76" x="442.382812"/>
     <use xlink:href="#DejaVuSans-69" x="501.5625"/>
     <use xlink:href="#DejaVuSans-74" x="529.345703"/>
     <use xlink:href="#DejaVuSans-79" x="568.554688"/>
     <use xlink:href="#DejaVuSans-20" x="627.734375"/>
     <use xlink:href="#DejaVuSans-66" x="659.521484"/>
     <use xlink:href="#DejaVuSans-6f" x="694.726562"/>
     <use xlink:href="#DejaVuSans-72" x="755.908203"/>
     <use xlink:href="#DejaVuSans-20" x="797.021484"/>
     <use xlink:href="#DejaVuSans-45" x="828.808594"/>
     <use xlink:href="#DejaVuSans-2d" x="891.992188"/>
     <use xlink:href="#DejaVuSans-4d" x="928.076172"/>
     <use xlink:href="#DejaVuSans-54" x="1014.355469"/>
     <use xlink:href="#DejaVuSans-41" x="1067.689453"/>
     <use xlink:href="#DejaVuSans-42" x="1136.097656"/>
     <use xlink:href="#DejaVuSans-2d" x="1204.701172"/>
     <use xlink:href="#DejaVuSans-32" x="1240.785156"/>
     <use xlink:href="#DejaVuSans-38" x="1304.408203"/>
     <use xlink:href="#DejaVuSans-30" x="1368.03125"/>
     <use xlink:href="#DejaVuSans-35" x="1431.654297"/>
    </g>
   </g>
   <g id="legend_1">
    <g id="patch_7">
     <path d="M 237.67625 137.54075 
L 407.72 137.54075 
Q 409.72 137.54075 409.72 135.54075 
L 409.72 48.472 
Q 409.72 46.472 407.72 46.472 
L 237.67625 46.472 
Q 235.67625 46.472 235.67625 48.472 
L 235.67625 135.54075 
Q 235.67625 137.54075 237.67625 137.54075 
z
" style="fill: #ffffff; opacity: 0.8; stroke: #cccccc; stroke-linejoin: miter"/>
    </g>
    <g id="line2d_20">
     <path d="M 239.67625 54.570438 
L 249.67625 54.570438 
L 259.67625 54.570438 
" style="fill: none; stroke: #000000; stroke-width: 1.5; stroke-linecap: square"/>
    </g>
    <g id="text_17">
     <!-- All -->
     <g transform="translate(267.67625 58.070438) scale(0.1 -0.1)">
      <use xlink:href="#DejaVuSans-41"/>
      <use xlink:href="#DejaVuSans-6c" x="68.408203"/>
      <use xlink:href="#DejaVuSans-6c" x="96.191406"/>
     </g>
    </g>
    <g id="line2d_21">
     <path d="M 239.67625 69.248563 
L 249.67625 69.248563 
L 259.67625 69.248563 
" style="fill: none; stroke: #ffa500; stroke-width: 1.5; stroke-linecap: square"/>
    </g>
    <g id="text_18">
     <!-- Per Row -->
     <g transform="translate(267.67625 72.748563) scale(0.1 -0.1)">
      <defs>
       <path id="DejaVuSans-50" d="M 1259 4147 
L 1259 2394 
L 2053 2394 
Q 2494 2394 2734 2622 
Q 2975 2850 2975 3272 
Q 2975 3691 2734 3919 
Q 2494 4147 2053 4147 
L 1259 4147 
z
M 628 4666 
L 2053 4666 
Q 2838 4666 3239 4311 
Q 3641 3956 3641 3272 
Q 3641 2581 3239 2228 
Q 2838 1875 2053 1875 
L 1259 1875 
L 1259 0 
L 628 0 
L 628 4666 
z
" transform="scale(0.015625)"/>
       <path id="DejaVuSans-52" d="M 2841 2188 
Q 3044 2119 3236 1894 
Q 3428 1669 3622 1275 
L 4263 0 
L 3584 0 
L 2988 1197 
Q 2756 1666 2539 1819 
Q 2322 1972 1947 1972 
L 1259 1972 
L 1259 0 
L 628 0 
L 628 4666 
L 2053 4666 
Q 2853 4666 3247 4331 
Q 3641 3997 3641 3322 
Q 3641 2881 3436 2590 
Q 3231 2300 2841 2188 
z
M 1259 4147 
L 1259 2491 
L 2053 2491 
Q 2509 2491 2742 2702 
Q 2975 2913 2975 3322 
Q 2975 3731 2742 3939 
Q 2509 4147 2053 4147 
L 1259 4147 
z
" transform="scale(0.015625)"/>
       <path id="DejaVuSans-77" d="M 269 3500 
L 844 3500 
L 1563 769 
L 2278 3500 
L 2956 3500 
L 3675 769 
L 4391 3500 
L 4966 3500 
L 4050 0 
L 3372 0 
L 2619 2869 
L 1863 0 
L 1184 0 
L 269 3500 
z
" transform="scale(0.015625)"/>
      </defs>
      <use xlink:href="#DejaVuSans-50"/>
      <use xlink:href="#DejaVuSans-65" x="56.677734"/>
      <use xlink:href="#DejaVuSans-72" x="118.201172"/>
      <use xlink:href="#DejaVuSans-20" x="159.314453"/>
      <use xlink:href="#DejaVuSans-52" x="191.101562"/>
      <use xlink:href="#DejaVuSans-6f" x="256.083984"/>
      <use xlink:href="#DejaVuSans-77" x="317.265625"/>
     </g>
    </g>
    <g id="line2d_22">
     <path d="M 239.67625 83.926688 
L 249.67625 83.926688 
L 259.67625 83.926688 
" style="fill: none; stroke: #bf00bf; stroke-width: 1.5; stroke-linecap: square"/>
    </g>
    <g id="text_19">
     <!-- Per Row, Col-Weighted -->
     <g transform="translate(267.67625 87.426688) scale(0.1 -0.1)">
      <defs>
       <path id="DejaVuSans-2c" d="M 750 794 
L 1409 794 
L 1409 256 
L 897 -744 
L 494 -744 
L 750 256 
L 750 794 
z
" transform="scale(0.015625)"/>
       <path id="DejaVuSans-43" d="M 4122 4306 
L 4122 3641 
Q 3803 3938 3442 4084 
Q 3081 4231 2675 4231 
Q 1875 4231 1450 3742 
Q 1025 3253 1025 2328 
Q 1025 1406 1450 917 
Q 1875 428 2675 428 
Q 3081 428 3442 575 
Q 3803 722 4122 1019 
L 4122 359 
Q 3791 134 3420 21 
Q 3050 -91 2638 -91 
Q 1578 -91 968 557 
Q 359 1206 359 2328 
Q 359 3453 968 4101 
Q 1578 4750 2638 4750 
Q 3056 4750 3426 4639 
Q 3797 4528 4122 4306 
z
" transform="scale(0.015625)"/>
       <path id="DejaVuSans-57" d="M 213 4666 
L 850 4666 
L 1831 722 
L 2809 4666 
L 3519 4666 
L 4500 722 
L 5478 4666 
L 6119 4666 
L 4947 0 
L 4153 0 
L 3169 4050 
L 2175 0 
L 1381 0 
L 213 4666 
z
" transform="scale(0.015625)"/>
       <path id="DejaVuSans-68" d="M 3513 2113 
L 3513 0 
L 2938 0 
L 2938 2094 
Q 2938 2591 2744 2837 
Q 2550 3084 2163 3084 
Q 1697 3084 1428 2787 
Q 1159 2491 1159 1978 
L 1159 0 
L 581 0 
L 581 4863 
L 1159 4863 
L 1159 2956 
Q 1366 3272 1645 3428 
Q 1925 3584 2291 3584 
Q 2894 3584 3203 3211 
Q 3513 2838 3513 2113 
z
" transform="scale(0.015625)"/>
      </defs>
      <use xlink:href="#DejaVuSans-50"/>
      <use xlink:href="#DejaVuSans-65" x="56.677734"/>
      <use xlink:href="#DejaVuSans-72" x="118.201172"/>
      <use xlink:href="#DejaVuSans-20" x="159.314453"/>
      <use xlink:href="#DejaVuSans-52" x="191.101562"/>
      <use xlink:href="#DejaVuSans-6f" x="256.083984"/>
      <use xlink:href="#DejaVuSans-77" x="317.265625"/>
      <use xlink:href="#DejaVuSans-2c" x="399.052734"/>
      <use xlink:href="#DejaVuSans-20" x="430.839844"/>
      <use xlink:href="#DejaVuSans-43" x="462.626953"/>
      <use xlink:href="#DejaVuSans-6f" x="532.451172"/>
      <use xlink:href="#DejaVuSans-6c" x="593.632812"/>
      <use xlink:href="#DejaVuSans-2d" x="621.416016"/>
      <use xlink:href="#DejaVuSans-57" x="653.5"/>
      <use xlink:href="#DejaVuSans-65" x="746.501953"/>
      <use xlink:href="#DejaVuSans-69" x="808.025391"/>
      <use xlink:href="#DejaVuSans-67" x="835.808594"/>
      <use xlink:href="#DejaVuSans-68" x="899.285156"/>
      <use xlink:href="#DejaVuSans-74" x="962.664062"/>
      <use xlink:href="#DejaVuSans-65" x="1001.873047"/>
      <use xlink:href="#DejaVuSans-64" x="1063.396484"/>
     </g>
    </g>
    <g id="line2d_23">
     <path d="M 239.67625 98.604813 
L 249.67625 98.604813 
L 259.67625 98.604813 
" style="fill: none; stroke-dasharray: 1.5,2.475; stroke-dashoffset: 0; stroke: #000000; stroke-width: 1.5"/>
    </g>
    <g id="text_20">
     <!-- All Reg -->
     <g transform="translate(267.67625 102.104813) scale(0.1 -0.1)">
      <use xlink:href="#DejaVuSans-41"/>
      <use xlink:href="#DejaVuSans-6c" x="68.408203"/>
      <use xlink:href="#DejaVuSans-6c" x="96.191406"/>
      <use xlink:href="#DejaVuSans-20" x="123.974609"/>
      <use xlink:href="#DejaVuSans-52" x="155.761719"/>
      <use xlink:href="#DejaVuSans-65" x="220.744141"/>
      <use xlink:href="#DejaVuSans-67" x="282.267578"/>
     </g>
    </g>
    <g id="line2d_24">
     <path d="M 239.67625 113.282938 
L 249.67625 113.282938 
L 259.67625 113.282938 
" style="fill: none; stroke-dasharray: 1.5,2.475; stroke-dashoffset: 0; stroke: #ffa500; stroke-width: 1.5"/>
    </g>
    <g id="text_21">
     <!-- Per Row Reg -->
     <g transform="translate(267.67625 116.782938) scale(0.1 -0.1)">
      <use xlink:href="#DejaVuSans-50"/>
      <use xlink:href="#DejaVuSans-65" x="56.677734"/>
      <use xlink:href="#DejaVuSans-72" x="118.201172"/>
      <use xlink:href="#DejaVuSans-20" x="159.314453"/>
      <use xlink:href="#DejaVuSans-52" x="191.101562"/>
      <use xlink:href="#DejaVuSans-6f" x="256.083984"/>
      <use xlink:href="#DejaVuSans-77" x="317.265625"/>
      <use xlink:href="#DejaVuSans-20" x="399.052734"/>
      <use xlink:href="#DejaVuSans-52" x="430.839844"/>
      <use xlink:href="#DejaVuSans-65" x="495.822266"/>
      <use xlink:href="#DejaVuSans-67" x="557.345703"/>
     </g>
    </g>
    <g id="line2d_25">
     <path d="M 239.67625 127.961063 
L 249.67625 127.961063 
L 259.67625 127.961063 
" style="fill: none; stroke-dasharray: 1.5,2.475; stroke-dashoffset: 0; stroke: #bf00bf; stroke-width: 1.5"/>
    </g>
    <g id="text_22">
     <!-- Per Row, Col-Weighted, Reg -->
     <g transform="translate(267.67625 131.461063) scale(0.1 -0.1)">
      <use xlink:href="#DejaVuSans-50"/>
      <use xlink:href="#DejaVuSans-65" x="56.677734"/>
      <use xlink:href="#DejaVuSans-72" x="118.201172"/>
      <use xlink:href="#DejaVuSans-20" x="159.314453"/>
      <use xlink:href="#DejaVuSans-52" x="191.101562"/>
      <use xlink:href="#DejaVuSans-6f" x="256.083984"/>
      <use xlink:href="#DejaVuSans-77" x="317.265625"/>
      <use xlink:href="#DejaVuSans-2c" x="399.052734"/>
      <use xlink:href="#DejaVuSans-20" x="430.839844"/>
      <use xlink:href="#DejaVuSans-43" x="462.626953"/>
      <use xlink:href="#DejaVuSans-6f" x="532.451172"/>
      <use xlink:href="#DejaVuSans-6c" x="593.632812"/>
      <use xlink:href="#DejaVuSans-2d" x="621.416016"/>
      <use xlink:href="#DejaVuSans-57" x="653.5"/>
      <use xlink:href="#DejaVuSans-65" x="746.501953"/>
      <use xlink:href="#DejaVuSans-69" x="808.025391"/>
      <use xlink:href="#DejaVuSans-67" x="835.808594"/>
      <use xlink:href="#DejaVuSans-68" x="899.285156"/>
      <use xlink:href="#DejaVuSans-74" x="962.664062"/>
      <use xlink:href="#DejaVuSans-65" x="1001.873047"/>
      <use xlink:href="#DejaVuSans-64" x="1063.396484"/>
      <use xlink:href="#DejaVuSans-2c" x="1126.873047"/>
      <use xlink:href="#DejaVuSans-20" x="1158.660156"/>
      <use xlink:href="#DejaVuSans-52" x="1190.447266"/>
      <use xlink:href="#DejaVuSans-65" x="1255.429688"/>
      <use xlink:href="#DejaVuSans-67" x="1316.953125"/>
     </g>
    </g>
   </g>
  </g>
 </g>
 <defs>
  <clipPath id="p142adef5c2">
   <rect x="57.6" y="41.472" width="357.12" height="266.112"/>
  </clipPath>
 </defs>
</svg>
