<?xml version="1.0" encoding="utf-8" standalone="no"?>
<!DOCTYPE svg PUBLIC "-//W3C//DTD SVG 1.1//EN"
  "http://www.w3.org/Graphics/SVG/1.1/DTD/svg11.dtd">
<svg xmlns:xlink="http://www.w3.org/1999/xlink" width="460.8pt" height="345.6pt" viewBox="0 0 460.8 345.6" xmlns="http://www.w3.org/2000/svg" version="1.1">
 <metadata>
  <rdf:RDF xmlns:dc="http://purl.org/dc/elements/1.1/" xmlns:cc="http://creativecommons.org/ns#" xmlns:rdf="http://www.w3.org/1999/02/22-rdf-syntax-ns#">
   <cc:Work>
    <dc:type rdf:resource="http://purl.org/dc/dcmitype/StillImage"/>
    <dc:date>2023-10-14T15:22:05.328092</dc:date>
    <dc:format>image/svg+xml</dc:format>
    <dc:creator>
     <cc:Agent>
      <dc:title>Matplotlib v3.7.2, https://matplotlib.org/</dc:title>
     </cc:Agent>
    </dc:creator>
   </cc:Work>
  </rdf:RDF>
 </metadata>
 <defs>
  <style type="text/css">*{stroke-linejoin: round; stroke-linecap: butt}</style>
 </defs>
 <g id="figure_1">
  <g id="patch_1">
   <path d="M 0 345.6 
L 460.8 345.6 
L 460.8 0 
L 0 0 
z
" style="fill: #ffffff"/>
  </g>
  <g id="axes_1">
   <g id="patch_2">
    <path d="M 57.6 307.584 
L 414.72 307.584 
L 414.72 41.472 
L 57.6 41.472 
z
" style="fill: #ffffff"/>
   </g>
   <g id="matplotlib.axis_1">
    <g id="xtick_1">
     <g id="line2d_1">
      <defs>
       <path id="mf992f1444b" d="M 0 0 
L 0 3.5 
" style="stroke: #000000; stroke-width: 0.8"/>
      </defs>
      <g>
       <use xlink:href="#mf992f1444b" x="57.6" y="307.584" style="stroke: #000000; stroke-width: 0.8"/>
      </g>
     </g>
     <g id="text_1">
      <!-- 0 -->
      <g transform="translate(54.41875 322.182437) scale(0.1 -0.1)">
       <defs>
        <path id="DejaVuSans-30" d="M 2034 4250 
Q 1547 4250 1301 3770 
Q 1056 3291 1056 2328 
Q 1056 1369 1301 889 
Q 1547 409 2034 409 
Q 2525 409 2770 889 
Q 3016 1369 3016 2328 
Q 3016 3291 2770 3770 
Q 2525 4250 2034 4250 
z
M 2034 4750 
Q 2819 4750 3233 4129 
Q 3647 3509 3647 2328 
Q 3647 1150 3233 529 
Q 2819 -91 2034 -91 
Q 1250 -91 836 529 
Q 422 1150 422 2328 
Q 422 3509 836 4129 
Q 1250 4750 2034 4750 
z
" transform="scale(0.015625)"/>
       </defs>
       <use xlink:href="#DejaVuSans-30"/>
      </g>
     </g>
    </g>
    <g id="xtick_2">
     <g id="line2d_2">
      <g>
       <use xlink:href="#mf992f1444b" x="119.6" y="307.584" style="stroke: #000000; stroke-width: 0.8"/>
      </g>
     </g>
     <g id="text_2">
      <!-- 50 -->
      <g transform="translate(113.2375 322.182437) scale(0.1 -0.1)">
       <defs>
        <path id="DejaVuSans-35" d="M 691 4666 
L 3169 4666 
L 3169 4134 
L 1269 4134 
L 1269 2991 
Q 1406 3038 1543 3061 
Q 1681 3084 1819 3084 
Q 2600 3084 3056 2656 
Q 3513 2228 3513 1497 
Q 3513 744 3044 326 
Q 2575 -91 1722 -91 
Q 1428 -91 1123 -41 
Q 819 9 494 109 
L 494 744 
Q 775 591 1075 516 
Q 1375 441 1709 441 
Q 2250 441 2565 725 
Q 2881 1009 2881 1497 
Q 2881 1984 2565 2268 
Q 2250 2553 1709 2553 
Q 1456 2553 1204 2497 
Q 953 2441 691 2322 
L 691 4666 
z
" transform="scale(0.015625)"/>
       </defs>
       <use xlink:href="#DejaVuSans-35"/>
       <use xlink:href="#DejaVuSans-30" x="63.623047"/>
      </g>
     </g>
    </g>
    <g id="xtick_3">
     <g id="line2d_3">
      <g>
       <use xlink:href="#mf992f1444b" x="181.6" y="307.584" style="stroke: #000000; stroke-width: 0.8"/>
      </g>
     </g>
     <g id="text_3">
      <!-- 100 -->
      <g transform="translate(172.05625 322.182437) scale(0.1 -0.1)">
       <defs>
        <path id="DejaVuSans-31" d="M 794 531 
L 1825 531 
L 1825 4091 
L 703 3866 
L 703 4441 
L 1819 4666 
L 2450 4666 
L 2450 531 
L 3481 531 
L 3481 0 
L 794 0 
L 794 531 
z
" transform="scale(0.015625)"/>
       </defs>
       <use xlink:href="#DejaVuSans-31"/>
       <use xlink:href="#DejaVuSans-30" x="63.623047"/>
       <use xlink:href="#DejaVuSans-30" x="127.246094"/>
      </g>
     </g>
    </g>
    <g id="xtick_4">
     <g id="line2d_4">
      <g>
       <use xlink:href="#mf992f1444b" x="243.6" y="307.584" style="stroke: #000000; stroke-width: 0.8"/>
      </g>
     </g>
     <g id="text_4">
      <!-- 150 -->
      <g transform="translate(234.05625 322.182437) scale(0.1 -0.1)">
       <use xlink:href="#DejaVuSans-31"/>
       <use xlink:href="#DejaVuSans-35" x="63.623047"/>
       <use xlink:href="#DejaVuSans-30" x="127.246094"/>
      </g>
     </g>
    </g>
    <g id="xtick_5">
     <g id="line2d_5">
      <g>
       <use xlink:href="#mf992f1444b" x="305.6" y="307.584" style="stroke: #000000; stroke-width: 0.8"/>
      </g>
     </g>
     <g id="text_5">
      <!-- 200 -->
      <g transform="translate(296.05625 322.182437) scale(0.1 -0.1)">
       <defs>
        <path id="DejaVuSans-32" d="M 1228 531 
L 3431 531 
L 3431 0 
L 469 0 
L 469 531 
Q 828 903 1448 1529 
Q 2069 2156 2228 2338 
Q 2531 2678 2651 2914 
Q 2772 3150 2772 3378 
Q 2772 3750 2511 3984 
Q 2250 4219 1831 4219 
Q 1534 4219 1204 4116 
Q 875 4013 500 3803 
L 500 4441 
Q 881 4594 1212 4672 
Q 1544 4750 1819 4750 
Q 2544 4750 2975 4387 
Q 3406 4025 3406 3419 
Q 3406 3131 3298 2873 
Q 3191 2616 2906 2266 
Q 2828 2175 2409 1742 
Q 1991 1309 1228 531 
z
" transform="scale(0.015625)"/>
       </defs>
       <use xlink:href="#DejaVuSans-32"/>
       <use xlink:href="#DejaVuSans-30" x="63.623047"/>
       <use xlink:href="#DejaVuSans-30" x="127.246094"/>
      </g>
     </g>
    </g>
    <g id="xtick_6">
     <g id="line2d_6">
      <g>
       <use xlink:href="#mf992f1444b" x="367.6" y="307.584" style="stroke: #000000; stroke-width: 0.8"/>
      </g>
     </g>
     <g id="text_6">
      <!-- 250 -->
      <g transform="translate(358.05625 322.182437) scale(0.1 -0.1)">
       <use xlink:href="#DejaVuSans-32"/>
       <use xlink:href="#DejaVuSans-35" x="63.623047"/>
       <use xlink:href="#DejaVuSans-30" x="127.246094"/>
      </g>
     </g>
    </g>
    <g id="text_7">
     <!-- Number of edges per cell -->
     <g transform="translate(172.881875 335.860562) scale(0.1 -0.1)">
      <defs>
       <path id="DejaVuSans-4e" d="M 628 4666 
L 1478 4666 
L 3547 763 
L 3547 4666 
L 4159 4666 
L 4159 0 
L 3309 0 
L 1241 3903 
L 1241 0 
L 628 0 
L 628 4666 
z
" transform="scale(0.015625)"/>
       <path id="DejaVuSans-75" d="M 544 1381 
L 544 3500 
L 1119 3500 
L 1119 1403 
Q 1119 906 1312 657 
Q 1506 409 1894 409 
Q 2359 409 2629 706 
Q 2900 1003 2900 1516 
L 2900 3500 
L 3475 3500 
L 3475 0 
L 2900 0 
L 2900 538 
Q 2691 219 2414 64 
Q 2138 -91 1772 -91 
Q 1169 -91 856 284 
Q 544 659 544 1381 
z
M 1991 3584 
L 1991 3584 
z
" transform="scale(0.015625)"/>
       <path id="DejaVuSans-6d" d="M 3328 2828 
Q 3544 3216 3844 3400 
Q 4144 3584 4550 3584 
Q 5097 3584 5394 3201 
Q 5691 2819 5691 2113 
L 5691 0 
L 5113 0 
L 5113 2094 
Q 5113 2597 4934 2840 
Q 4756 3084 4391 3084 
Q 3944 3084 3684 2787 
Q 3425 2491 3425 1978 
L 3425 0 
L 2847 0 
L 2847 2094 
Q 2847 2600 2669 2842 
Q 2491 3084 2119 3084 
Q 1678 3084 1418 2786 
Q 1159 2488 1159 1978 
L 1159 0 
L 581 0 
L 581 3500 
L 1159 3500 
L 1159 2956 
Q 1356 3278 1631 3431 
Q 1906 3584 2284 3584 
Q 2666 3584 2933 3390 
Q 3200 3197 3328 2828 
z
" transform="scale(0.015625)"/>
       <path id="DejaVuSans-62" d="M 3116 1747 
Q 3116 2381 2855 2742 
Q 2594 3103 2138 3103 
Q 1681 3103 1420 2742 
Q 1159 2381 1159 1747 
Q 1159 1113 1420 752 
Q 1681 391 2138 391 
Q 2594 391 2855 752 
Q 3116 1113 3116 1747 
z
M 1159 2969 
Q 1341 3281 1617 3432 
Q 1894 3584 2278 3584 
Q 2916 3584 3314 3078 
Q 3713 2572 3713 1747 
Q 3713 922 3314 415 
Q 2916 -91 2278 -91 
Q 1894 -91 1617 61 
Q 1341 213 1159 525 
L 1159 0 
L 581 0 
L 581 4863 
L 1159 4863 
L 1159 2969 
z
" transform="scale(0.015625)"/>
       <path id="DejaVuSans-65" d="M 3597 1894 
L 3597 1613 
L 953 1613 
Q 991 1019 1311 708 
Q 1631 397 2203 397 
Q 2534 397 2845 478 
Q 3156 559 3463 722 
L 3463 178 
Q 3153 47 2828 -22 
Q 2503 -91 2169 -91 
Q 1331 -91 842 396 
Q 353 884 353 1716 
Q 353 2575 817 3079 
Q 1281 3584 2069 3584 
Q 2775 3584 3186 3129 
Q 3597 2675 3597 1894 
z
M 3022 2063 
Q 3016 2534 2758 2815 
Q 2500 3097 2075 3097 
Q 1594 3097 1305 2825 
Q 1016 2553 972 2059 
L 3022 2063 
z
" transform="scale(0.015625)"/>
       <path id="DejaVuSans-72" d="M 2631 2963 
Q 2534 3019 2420 3045 
Q 2306 3072 2169 3072 
Q 1681 3072 1420 2755 
Q 1159 2438 1159 1844 
L 1159 0 
L 581 0 
L 581 3500 
L 1159 3500 
L 1159 2956 
Q 1341 3275 1631 3429 
Q 1922 3584 2338 3584 
Q 2397 3584 2469 3576 
Q 2541 3569 2628 3553 
L 2631 2963 
z
" transform="scale(0.015625)"/>
       <path id="DejaVuSans-20" transform="scale(0.015625)"/>
       <path id="DejaVuSans-6f" d="M 1959 3097 
Q 1497 3097 1228 2736 
Q 959 2375 959 1747 
Q 959 1119 1226 758 
Q 1494 397 1959 397 
Q 2419 397 2687 759 
Q 2956 1122 2956 1747 
Q 2956 2369 2687 2733 
Q 2419 3097 1959 3097 
z
M 1959 3584 
Q 2709 3584 3137 3096 
Q 3566 2609 3566 1747 
Q 3566 888 3137 398 
Q 2709 -91 1959 -91 
Q 1206 -91 779 398 
Q 353 888 353 1747 
Q 353 2609 779 3096 
Q 1206 3584 1959 3584 
z
" transform="scale(0.015625)"/>
       <path id="DejaVuSans-66" d="M 2375 4863 
L 2375 4384 
L 1825 4384 
Q 1516 4384 1395 4259 
Q 1275 4134 1275 3809 
L 1275 3500 
L 2222 3500 
L 2222 3053 
L 1275 3053 
L 1275 0 
L 697 0 
L 697 3053 
L 147 3053 
L 147 3500 
L 697 3500 
L 697 3744 
Q 697 4328 969 4595 
Q 1241 4863 1831 4863 
L 2375 4863 
z
" transform="scale(0.015625)"/>
       <path id="DejaVuSans-64" d="M 2906 2969 
L 2906 4863 
L 3481 4863 
L 3481 0 
L 2906 0 
L 2906 525 
Q 2725 213 2448 61 
Q 2172 -91 1784 -91 
Q 1150 -91 751 415 
Q 353 922 353 1747 
Q 353 2572 751 3078 
Q 1150 3584 1784 3584 
Q 2172 3584 2448 3432 
Q 2725 3281 2906 2969 
z
M 947 1747 
Q 947 1113 1208 752 
Q 1469 391 1925 391 
Q 2381 391 2643 752 
Q 2906 1113 2906 1747 
Q 2906 2381 2643 2742 
Q 2381 3103 1925 3103 
Q 1469 3103 1208 2742 
Q 947 2381 947 1747 
z
" transform="scale(0.015625)"/>
       <path id="DejaVuSans-67" d="M 2906 1791 
Q 2906 2416 2648 2759 
Q 2391 3103 1925 3103 
Q 1463 3103 1205 2759 
Q 947 2416 947 1791 
Q 947 1169 1205 825 
Q 1463 481 1925 481 
Q 2391 481 2648 825 
Q 2906 1169 2906 1791 
z
M 3481 434 
Q 3481 -459 3084 -895 
Q 2688 -1331 1869 -1331 
Q 1566 -1331 1297 -1286 
Q 1028 -1241 775 -1147 
L 775 -588 
Q 1028 -725 1275 -790 
Q 1522 -856 1778 -856 
Q 2344 -856 2625 -561 
Q 2906 -266 2906 331 
L 2906 616 
Q 2728 306 2450 153 
Q 2172 0 1784 0 
Q 1141 0 747 490 
Q 353 981 353 1791 
Q 353 2603 747 3093 
Q 1141 3584 1784 3584 
Q 2172 3584 2450 3431 
Q 2728 3278 2906 2969 
L 2906 3500 
L 3481 3500 
L 3481 434 
z
" transform="scale(0.015625)"/>
       <path id="DejaVuSans-73" d="M 2834 3397 
L 2834 2853 
Q 2591 2978 2328 3040 
Q 2066 3103 1784 3103 
Q 1356 3103 1142 2972 
Q 928 2841 928 2578 
Q 928 2378 1081 2264 
Q 1234 2150 1697 2047 
L 1894 2003 
Q 2506 1872 2764 1633 
Q 3022 1394 3022 966 
Q 3022 478 2636 193 
Q 2250 -91 1575 -91 
Q 1294 -91 989 -36 
Q 684 19 347 128 
L 347 722 
Q 666 556 975 473 
Q 1284 391 1588 391 
Q 1994 391 2212 530 
Q 2431 669 2431 922 
Q 2431 1156 2273 1281 
Q 2116 1406 1581 1522 
L 1381 1569 
Q 847 1681 609 1914 
Q 372 2147 372 2553 
Q 372 3047 722 3315 
Q 1072 3584 1716 3584 
Q 2034 3584 2315 3537 
Q 2597 3491 2834 3397 
z
" transform="scale(0.015625)"/>
       <path id="DejaVuSans-70" d="M 1159 525 
L 1159 -1331 
L 581 -1331 
L 581 3500 
L 1159 3500 
L 1159 2969 
Q 1341 3281 1617 3432 
Q 1894 3584 2278 3584 
Q 2916 3584 3314 3078 
Q 3713 2572 3713 1747 
Q 3713 922 3314 415 
Q 2916 -91 2278 -91 
Q 1894 -91 1617 61 
Q 1341 213 1159 525 
z
M 3116 1747 
Q 3116 2381 2855 2742 
Q 2594 3103 2138 3103 
Q 1681 3103 1420 2742 
Q 1159 2381 1159 1747 
Q 1159 1113 1420 752 
Q 1681 391 2138 391 
Q 2594 391 2855 752 
Q 3116 1113 3116 1747 
z
" transform="scale(0.015625)"/>
       <path id="DejaVuSans-63" d="M 3122 3366 
L 3122 2828 
Q 2878 2963 2633 3030 
Q 2388 3097 2138 3097 
Q 1578 3097 1268 2742 
Q 959 2388 959 1747 
Q 959 1106 1268 751 
Q 1578 397 2138 397 
Q 2388 397 2633 464 
Q 2878 531 3122 666 
L 3122 134 
Q 2881 22 2623 -34 
Q 2366 -91 2075 -91 
Q 1284 -91 818 406 
Q 353 903 353 1747 
Q 353 2603 823 3093 
Q 1294 3584 2113 3584 
Q 2378 3584 2631 3529 
Q 2884 3475 3122 3366 
z
" transform="scale(0.015625)"/>
       <path id="DejaVuSans-6c" d="M 603 4863 
L 1178 4863 
L 1178 0 
L 603 0 
L 603 4863 
z
" transform="scale(0.015625)"/>
      </defs>
      <use xlink:href="#DejaVuSans-4e"/>
      <use xlink:href="#DejaVuSans-75" x="74.804688"/>
      <use xlink:href="#DejaVuSans-6d" x="138.183594"/>
      <use xlink:href="#DejaVuSans-62" x="235.595703"/>
      <use xlink:href="#DejaVuSans-65" x="299.072266"/>
      <use xlink:href="#DejaVuSans-72" x="360.595703"/>
      <use xlink:href="#DejaVuSans-20" x="401.708984"/>
      <use xlink:href="#DejaVuSans-6f" x="433.496094"/>
      <use xlink:href="#DejaVuSans-66" x="494.677734"/>
      <use xlink:href="#DejaVuSans-20" x="529.882812"/>
      <use xlink:href="#DejaVuSans-65" x="561.669922"/>
      <use xlink:href="#DejaVuSans-64" x="623.193359"/>
      <use xlink:href="#DejaVuSans-67" x="686.669922"/>
      <use xlink:href="#DejaVuSans-65" x="750.146484"/>
      <use xlink:href="#DejaVuSans-73" x="811.669922"/>
      <use xlink:href="#DejaVuSans-20" x="863.769531"/>
      <use xlink:href="#DejaVuSans-70" x="895.556641"/>
      <use xlink:href="#DejaVuSans-65" x="959.033203"/>
      <use xlink:href="#DejaVuSans-72" x="1020.556641"/>
      <use xlink:href="#DejaVuSans-20" x="1061.669922"/>
      <use xlink:href="#DejaVuSans-63" x="1093.457031"/>
      <use xlink:href="#DejaVuSans-65" x="1148.4375"/>
      <use xlink:href="#DejaVuSans-6c" x="1209.960938"/>
      <use xlink:href="#DejaVuSans-6c" x="1237.744141"/>
     </g>
    </g>
   </g>
   <g id="matplotlib.axis_2">
    <g id="ytick_1">
     <g id="line2d_7">
      <defs>
       <path id="m2fd75de39a" d="M 0 0 
L -3.5 0 
" style="stroke: #000000; stroke-width: 0.8"/>
      </defs>
      <g>
       <use xlink:href="#m2fd75de39a" x="57.6" y="307.584" style="stroke: #000000; stroke-width: 0.8"/>
      </g>
     </g>
     <g id="text_8">
      <!-- 0.0 -->
      <g transform="translate(34.696875 311.383219) scale(0.1 -0.1)">
       <defs>
        <path id="DejaVuSans-2e" d="M 684 794 
L 1344 794 
L 1344 0 
L 684 0 
L 684 794 
z
" transform="scale(0.015625)"/>
       </defs>
       <use xlink:href="#DejaVuSans-30"/>
       <use xlink:href="#DejaVuSans-2e" x="63.623047"/>
       <use xlink:href="#DejaVuSans-30" x="95.410156"/>
      </g>
     </g>
    </g>
    <g id="ytick_2">
     <g id="line2d_8">
      <g>
       <use xlink:href="#m2fd75de39a" x="57.6" y="254.3616" style="stroke: #000000; stroke-width: 0.8"/>
      </g>
     </g>
     <g id="text_9">
      <!-- 0.1 -->
      <g transform="translate(34.696875 258.160819) scale(0.1 -0.1)">
       <use xlink:href="#DejaVuSans-30"/>
       <use xlink:href="#DejaVuSans-2e" x="63.623047"/>
       <use xlink:href="#DejaVuSans-31" x="95.410156"/>
      </g>
     </g>
    </g>
    <g id="ytick_3">
     <g id="line2d_9">
      <g>
       <use xlink:href="#m2fd75de39a" x="57.6" y="201.1392" style="stroke: #000000; stroke-width: 0.8"/>
      </g>
     </g>
     <g id="text_10">
      <!-- 0.2 -->
      <g transform="translate(34.696875 204.938419) scale(0.1 -0.1)">
       <use xlink:href="#DejaVuSans-30"/>
       <use xlink:href="#DejaVuSans-2e" x="63.623047"/>
       <use xlink:href="#DejaVuSans-32" x="95.410156"/>
      </g>
     </g>
    </g>
    <g id="ytick_4">
     <g id="line2d_10">
      <g>
       <use xlink:href="#m2fd75de39a" x="57.6" y="147.9168" style="stroke: #000000; stroke-width: 0.8"/>
      </g>
     </g>
     <g id="text_11">
      <!-- 0.3 -->
      <g transform="translate(34.696875 151.716019) scale(0.1 -0.1)">
       <defs>
        <path id="DejaVuSans-33" d="M 2597 2516 
Q 3050 2419 3304 2112 
Q 3559 1806 3559 1356 
Q 3559 666 3084 287 
Q 2609 -91 1734 -91 
Q 1441 -91 1130 -33 
Q 819 25 488 141 
L 488 750 
Q 750 597 1062 519 
Q 1375 441 1716 441 
Q 2309 441 2620 675 
Q 2931 909 2931 1356 
Q 2931 1769 2642 2001 
Q 2353 2234 1838 2234 
L 1294 2234 
L 1294 2753 
L 1863 2753 
Q 2328 2753 2575 2939 
Q 2822 3125 2822 3475 
Q 2822 3834 2567 4026 
Q 2313 4219 1838 4219 
Q 1578 4219 1281 4162 
Q 984 4106 628 3988 
L 628 4550 
Q 988 4650 1302 4700 
Q 1616 4750 1894 4750 
Q 2613 4750 3031 4423 
Q 3450 4097 3450 3541 
Q 3450 3153 3228 2886 
Q 3006 2619 2597 2516 
z
" transform="scale(0.015625)"/>
       </defs>
       <use xlink:href="#DejaVuSans-30"/>
       <use xlink:href="#DejaVuSans-2e" x="63.623047"/>
       <use xlink:href="#DejaVuSans-33" x="95.410156"/>
      </g>
     </g>
    </g>
    <g id="ytick_5">
     <g id="line2d_11">
      <g>
       <use xlink:href="#m2fd75de39a" x="57.6" y="94.6944" style="stroke: #000000; stroke-width: 0.8"/>
      </g>
     </g>
     <g id="text_12">
      <!-- 0.4 -->
      <g transform="translate(34.696875 98.493619) scale(0.1 -0.1)">
       <defs>
        <path id="DejaVuSans-34" d="M 2419 4116 
L 825 1625 
L 2419 1625 
L 2419 4116 
z
M 2253 4666 
L 3047 4666 
L 3047 1625 
L 3713 1625 
L 3713 1100 
L 3047 1100 
L 3047 0 
L 2419 0 
L 2419 1100 
L 313 1100 
L 313 1709 
L 2253 4666 
z
" transform="scale(0.015625)"/>
       </defs>
       <use xlink:href="#DejaVuSans-30"/>
       <use xlink:href="#DejaVuSans-2e" x="63.623047"/>
       <use xlink:href="#DejaVuSans-34" x="95.410156"/>
      </g>
     </g>
    </g>
    <g id="ytick_6">
     <g id="line2d_12">
      <g>
       <use xlink:href="#m2fd75de39a" x="57.6" y="41.472" style="stroke: #000000; stroke-width: 0.8"/>
      </g>
     </g>
     <g id="text_13">
      <!-- 0.5 -->
      <g transform="translate(34.696875 45.271219) scale(0.1 -0.1)">
       <use xlink:href="#DejaVuSans-30"/>
       <use xlink:href="#DejaVuSans-2e" x="63.623047"/>
       <use xlink:href="#DejaVuSans-35" x="95.410156"/>
      </g>
     </g>
    </g>
    <g id="text_14">
     <!-- Assortativity -->
     <g transform="translate(28.617187 205.913938) rotate(-90) scale(0.1 -0.1)">
      <defs>
       <path id="DejaVuSans-41" d="M 2188 4044 
L 1331 1722 
L 3047 1722 
L 2188 4044 
z
M 1831 4666 
L 2547 4666 
L 4325 0 
L 3669 0 
L 3244 1197 
L 1141 1197 
L 716 0 
L 50 0 
L 1831 4666 
z
" transform="scale(0.015625)"/>
       <path id="DejaVuSans-74" d="M 1172 4494 
L 1172 3500 
L 2356 3500 
L 2356 3053 
L 1172 3053 
L 1172 1153 
Q 1172 725 1289 603 
Q 1406 481 1766 481 
L 2356 481 
L 2356 0 
L 1766 0 
Q 1100 0 847 248 
Q 594 497 594 1153 
L 594 3053 
L 172 3053 
L 172 3500 
L 594 3500 
L 594 4494 
L 1172 4494 
z
" transform="scale(0.015625)"/>
       <path id="DejaVuSans-61" d="M 2194 1759 
Q 1497 1759 1228 1600 
Q 959 1441 959 1056 
Q 959 750 1161 570 
Q 1363 391 1709 391 
Q 2188 391 2477 730 
Q 2766 1069 2766 1631 
L 2766 1759 
L 2194 1759 
z
M 3341 1997 
L 3341 0 
L 2766 0 
L 2766 531 
Q 2569 213 2275 61 
Q 1981 -91 1556 -91 
Q 1019 -91 701 211 
Q 384 513 384 1019 
Q 384 1609 779 1909 
Q 1175 2209 1959 2209 
L 2766 2209 
L 2766 2266 
Q 2766 2663 2505 2880 
Q 2244 3097 1772 3097 
Q 1472 3097 1187 3025 
Q 903 2953 641 2809 
L 641 3341 
Q 956 3463 1253 3523 
Q 1550 3584 1831 3584 
Q 2591 3584 2966 3190 
Q 3341 2797 3341 1997 
z
" transform="scale(0.015625)"/>
       <path id="DejaVuSans-69" d="M 603 3500 
L 1178 3500 
L 1178 0 
L 603 0 
L 603 3500 
z
M 603 4863 
L 1178 4863 
L 1178 4134 
L 603 4134 
L 603 4863 
z
" transform="scale(0.015625)"/>
       <path id="DejaVuSans-76" d="M 191 3500 
L 800 3500 
L 1894 563 
L 2988 3500 
L 3597 3500 
L 2284 0 
L 1503 0 
L 191 3500 
z
" transform="scale(0.015625)"/>
       <path id="DejaVuSans-79" d="M 2059 -325 
Q 1816 -950 1584 -1140 
Q 1353 -1331 966 -1331 
L 506 -1331 
L 506 -850 
L 844 -850 
Q 1081 -850 1212 -737 
Q 1344 -625 1503 -206 
L 1606 56 
L 191 3500 
L 800 3500 
L 1894 763 
L 2988 3500 
L 3597 3500 
L 2059 -325 
z
" transform="scale(0.015625)"/>
      </defs>
      <use xlink:href="#DejaVuSans-41"/>
      <use xlink:href="#DejaVuSans-73" x="68.408203"/>
      <use xlink:href="#DejaVuSans-73" x="120.507812"/>
      <use xlink:href="#DejaVuSans-6f" x="172.607422"/>
      <use xlink:href="#DejaVuSans-72" x="233.789062"/>
      <use xlink:href="#DejaVuSans-74" x="274.902344"/>
      <use xlink:href="#DejaVuSans-61" x="314.111328"/>
      <use xlink:href="#DejaVuSans-74" x="375.390625"/>
      <use xlink:href="#DejaVuSans-69" x="414.599609"/>
      <use xlink:href="#DejaVuSans-76" x="442.382812"/>
      <use xlink:href="#DejaVuSans-69" x="501.5625"/>
      <use xlink:href="#DejaVuSans-74" x="529.345703"/>
      <use xlink:href="#DejaVuSans-79" x="568.554688"/>
     </g>
    </g>
   </g>
   <g id="line2d_13">
    <path d="M 59.442612 346.6 
L 60.08 315.909292 
L 61.32 266.645534 
L 62.56 269.829624 
L 63.8 249.569369 
L 65.04 246.509548 
L 66.28 254.393329 
L 67.52 252.133359 
L 68.76 254.836279 
L 71.24 244.823557 
L 72.48 243.314167 
L 73.72 244.510892 
L 74.96 248.495772 
L 76.2 246.130592 
L 77.44 249.941123 
L 78.68 250.184225 
L 79.92 251.73175 
L 81.16 253.93742 
L 82.4 253.458595 
L 83.64 252.708225 
L 84.88 252.187218 
L 86.12 251.02975 
L 87.36 249.267919 
L 88.6 249.939562 
L 89.84 247.162263 
L 91.08 243.939429 
L 93.56 241.461208 
L 94.8 240.430219 
L 96.04 238.610617 
L 97.28 235.719959 
L 98.52 237.397677 
L 99.76 239.426216 
L 101 240.035522 
L 102.24 238.316953 
L 103.48 235.810235 
L 104.72 236.289436 
L 105.96 235.348926 
L 107.2 232.523483 
L 108.44 231.383713 
L 109.68 233.640036 
L 110.92 233.214414 
L 112.16 233.918762 
L 113.4 235.909509 
L 114.64 235.707187 
L 115.88 235.806524 
L 117.12 235.633305 
L 118.36 235.987427 
L 119.6 234.881889 
L 120.84 234.992612 
L 122.08 234.872351 
L 123.32 233.31435 
L 124.56 231.261284 
L 125.8 230.314139 
L 127.04 232.272076 
L 128.28 231.355796 
L 129.52 229.451391 
L 130.76 228.808908 
L 132 228.928605 
L 133.24 229.365456 
L 134.48 229.190567 
L 135.72 230.571163 
L 138.2 230.228625 
L 139.44 231.183949 
L 140.68 230.938451 
L 141.92 230.436518 
L 143.16 230.864935 
L 144.4 230.742292 
L 145.64 229.932796 
L 146.88 230.764567 
L 148.12 230.163315 
L 150.6 231.790326 
L 151.84 232.395912 
L 154.32 233.19196 
L 155.56 234.08043 
L 156.8 234.71202 
L 158.04 234.936604 
L 159.28 234.212021 
L 160.52 235.200914 
L 161.76 235.166046 
L 163 235.302506 
L 164.24 235.837865 
L 165.48 235.752695 
L 166.72 235.380393 
L 167.96 234.743747 
L 169.2 233.9653 
L 171.68 235.919226 
L 172.92 236.014278 
L 174.16 236.262103 
L 175.4 237.583122 
L 176.64 236.853072 
L 177.88 237.325492 
L 179.12 238.33595 
L 180.36 238.287725 
L 184.08 239.728008 
L 185.32 240.726481 
L 186.56 241.031624 
L 187.8 241.01553 
L 189.04 241.274434 
L 190.28 241.377455 
L 191.52 241.11328 
L 192.76 241.171797 
L 194 242.217335 
L 195.24 242.376944 
L 197.72 244.013036 
L 198.96 243.15009 
L 200.2 243.34201 
L 202.68 242.918316 
L 203.92 243.692518 
L 205.16 243.882963 
L 206.4 244.867361 
L 208.88 244.619615 
L 210.12 245.416325 
L 211.36 245.831683 
L 212.6 245.405417 
L 213.84 246.28215 
L 215.08 246.641165 
L 216.32 246.676226 
L 217.56 247.416255 
L 218.8 248.47412 
L 220.04 248.903246 
L 222.52 250.422825 
L 225 250.289835 
L 227.48 251.588456 
L 228.72 251.856842 
L 229.96 252.30819 
L 231.2 253.346975 
L 232.44 253.387983 
L 233.68 254.189076 
L 234.92 255.159062 
L 238.64 256.096148 
L 239.88 256.104665 
L 241.12 256.966387 
L 242.36 257.347718 
L 243.6 258.141378 
L 244.84 258.30476 
L 246.08 258.68823 
L 247.32 258.930663 
L 248.56 259.577913 
L 249.8 259.925299 
L 251.04 260.471795 
L 252.28 260.267659 
L 253.52 260.57411 
L 254.76 261.069278 
L 256 261.748956 
L 258.48 261.862512 
L 259.72 262.574156 
L 260.96 262.960168 
L 262.2 262.983154 
L 263.44 263.496498 
L 264.68 264.505932 
L 267.16 264.780001 
L 269.64 264.728973 
L 270.88 265.109047 
L 273.36 266.746379 
L 275.84 267.61969 
L 277.08 268.363524 
L 278.32 268.962436 
L 279.56 269.424577 
L 280.8 270.222611 
L 282.04 270.649001 
L 283.28 270.807211 
L 284.52 270.843336 
L 285.76 271.283408 
L 287 272.390461 
L 288.24 272.764249 
L 291.96 274.718014 
L 293.2 275.476791 
L 295.68 276.223051 
L 296.92 277.324106 
L 298.16 278.056701 
L 299.4 278.459447 
L 301.88 279.540002 
L 303.12 279.856668 
L 304.36 280.815176 
L 306.84 281.872551 
L 308.08 282.029045 
L 309.32 282.766372 
L 310.56 282.882085 
L 311.8 283.164833 
L 313.04 283.688547 
L 314.28 284.013589 
L 315.52 284.684491 
L 316.76 284.898254 
L 318 285.40582 
L 319.24 285.411203 
L 321.72 285.729616 
L 322.96 285.773583 
L 324.2 286.157359 
L 325.44 286.285405 
L 330.4 288.241176 
L 332.88 288.82234 
L 334.12 288.946624 
L 336.6 290.356111 
L 337.84 290.994329 
L 339.08 291.456538 
L 340.32 291.752889 
L 341.56 292.21707 
L 344.04 293.518365 
L 345.28 293.820872 
L 346.52 293.795885 
L 347.76 294.302955 
L 349 294.143192 
L 350.24 294.462645 
L 352.72 295.531857 
L 353.96 295.718782 
L 355.2 296.261625 
L 356.44 296.618768 
L 357.68 297.162638 
L 358.92 297.556458 
L 360.16 297.804033 
L 361.4 298.219559 
L 362.64 298.409629 
L 366.36 299.905875 
L 368.84 300.951161 
L 370.08 301.041451 
L 371.32 301.286573 
L 372.56 301.775874 
L 373.8 302.745973 
L 375.04 303.451473 
L 376.28 303.580293 
L 377.52 304.215366 
L 380 304.718867 
L 381.24 305.220897 
L 382.48 305.59219 
L 383.72 305.754745 
L 384.96 306.554981 
L 388.68 308.066448 
L 391.16 309.258157 
L 392.4 309.867263 
L 393.64 309.696152 
L 409.76 309.448421 
L 414.72 309.438439 
L 414.72 309.438439 
" clip-path="url(#p89817b9184)" style="fill: none; stroke: #000000; stroke-width: 1.5; stroke-linecap: square"/>
   </g>
   <g id="line2d_14">
    <path d="M 57.6 309.438439 
L 58.84 229.856661 
L 60.08 227.175638 
L 61.32 200.477042 
L 62.56 186.875349 
L 63.8 189.311588 
L 65.04 189.306898 
L 66.28 182.96895 
L 67.52 190.601561 
L 68.76 188.126193 
L 70 189.662538 
L 71.24 187.270748 
L 72.48 186.712494 
L 73.72 188.435114 
L 74.96 186.702504 
L 76.2 187.153252 
L 77.44 188.875199 
L 78.68 191.099596 
L 79.92 190.288092 
L 81.16 190.704798 
L 82.4 191.636875 
L 83.64 191.958226 
L 84.88 192.562325 
L 86.12 191.639549 
L 87.36 192.695927 
L 88.6 188.828099 
L 89.84 188.325403 
L 91.08 189.91002 
L 92.32 190.764975 
L 93.56 191.939597 
L 94.8 193.553303 
L 96.04 194.00743 
L 97.28 195.381685 
L 98.52 196.344385 
L 99.76 197.480864 
L 101 198.085626 
L 102.24 197.078742 
L 103.48 198.3933 
L 104.72 198.646769 
L 105.96 199.082794 
L 107.2 200.463632 
L 108.44 199.623533 
L 109.68 200.394092 
L 110.92 202.004044 
L 112.16 201.696515 
L 113.4 202.483979 
L 114.64 202.955833 
L 115.88 202.711517 
L 117.12 203.89577 
L 118.36 204.722535 
L 119.6 205.13754 
L 120.84 206.899437 
L 122.08 206.433315 
L 124.56 207.748891 
L 125.8 207.608839 
L 127.04 208.424374 
L 128.28 208.497882 
L 129.52 208.750719 
L 130.76 208.819704 
L 132 209.700445 
L 133.24 210.768496 
L 134.48 211.216527 
L 139.44 212.395066 
L 140.68 213.047988 
L 141.92 212.880845 
L 143.16 213.329084 
L 144.4 214.288049 
L 145.64 214.383024 
L 146.88 215.182306 
L 148.12 216.130365 
L 149.36 216.627033 
L 150.6 217.382194 
L 151.84 217.464463 
L 153.08 219.022594 
L 154.32 219.954708 
L 155.56 220.133825 
L 156.8 220.821918 
L 158.04 221.832487 
L 159.28 222.278771 
L 160.52 222.187687 
L 161.76 223.296048 
L 163 224.034229 
L 164.24 224.493697 
L 166.72 225.910303 
L 167.96 227.206293 
L 169.2 227.252336 
L 170.44 228.086726 
L 171.68 228.728489 
L 172.92 229.547724 
L 174.16 230.155553 
L 175.4 231.314941 
L 176.64 232.247754 
L 177.88 232.507574 
L 179.12 233.196368 
L 180.36 233.673715 
L 181.6 233.945521 
L 182.84 235.393607 
L 185.32 235.511455 
L 186.56 236.031035 
L 187.8 235.562923 
L 190.28 236.726158 
L 191.52 237.676664 
L 192.76 238.921089 
L 194 239.793566 
L 195.24 239.721198 
L 196.48 240.301747 
L 197.72 241.044135 
L 198.96 241.093443 
L 200.2 241.277879 
L 201.44 242.259646 
L 202.68 242.940368 
L 203.92 244.241868 
L 206.4 245.199022 
L 210.12 247.027985 
L 211.36 246.629805 
L 212.6 246.76235 
L 213.84 247.385584 
L 215.08 247.590367 
L 218.8 250.085158 
L 220.04 250.338689 
L 221.28 250.814002 
L 222.52 250.880087 
L 225 252.316069 
L 227.48 253.351352 
L 228.72 254.309364 
L 229.96 254.700154 
L 232.44 255.869301 
L 233.68 256.084037 
L 234.92 256.531421 
L 237.4 257.967495 
L 238.64 258.34401 
L 241.12 259.738855 
L 243.6 260.106653 
L 244.84 260.879879 
L 246.08 261.958 
L 249.8 263.78213 
L 251.04 264.581299 
L 252.28 265.203031 
L 253.52 265.985876 
L 254.76 266.291568 
L 256 266.776941 
L 257.24 267.654651 
L 258.48 268.381444 
L 262.2 269.9486 
L 263.44 270.321425 
L 265.92 271.385007 
L 267.16 272.091745 
L 268.4 272.471001 
L 269.64 272.990038 
L 270.88 273.265945 
L 272.12 273.727115 
L 273.36 274.337388 
L 274.6 274.622559 
L 275.84 275.047696 
L 277.08 275.770325 
L 279.56 276.824237 
L 283.28 278.521811 
L 284.52 278.904188 
L 287 280.72303 
L 290.72 282.24165 
L 291.96 282.411436 
L 293.2 282.695871 
L 294.44 283.277911 
L 295.68 283.708466 
L 296.92 283.911873 
L 298.16 284.607977 
L 299.4 284.827937 
L 300.64 285.192124 
L 303.12 285.728562 
L 304.36 286.271006 
L 306.84 286.881307 
L 308.08 287.020464 
L 310.56 287.669983 
L 311.8 288.169131 
L 314.28 288.961038 
L 315.52 289.542067 
L 316.76 289.897349 
L 319.24 291.001357 
L 321.72 291.64131 
L 322.96 292.074502 
L 324.2 292.858089 
L 326.68 294.076537 
L 327.92 294.385184 
L 329.16 294.565672 
L 332.88 295.571745 
L 334.12 295.809968 
L 335.36 296.322842 
L 342.8 298.028222 
L 344.04 298.256389 
L 346.52 299.23077 
L 349 299.439983 
L 350.24 299.826053 
L 351.48 300.003559 
L 352.72 300.303931 
L 353.96 300.852187 
L 355.2 300.963045 
L 356.44 301.239201 
L 357.68 301.185449 
L 358.92 301.420714 
L 366.36 303.713425 
L 367.6 303.777798 
L 370.08 304.468194 
L 377.52 306.033948 
L 378.76 306.410419 
L 382.48 307.19827 
L 384.96 307.412478 
L 388.68 308.251073 
L 391.16 308.520894 
L 393.64 308.848831 
L 394.88 309.060849 
L 396.12 309.058908 
L 398.6 309.307956 
L 404.8 309.516993 
L 414.72 309.438439 
L 414.72 309.438439 
" clip-path="url(#p89817b9184)" style="fill: none; stroke-dasharray: 5.55,2.4; stroke-dashoffset: 0; stroke: #ffa500; stroke-width: 1.5"/>
   </g>
   <g id="line2d_15">
    <path d="M 57.6 309.438439 
L 58.84 249.56687 
L 60.08 215.387717 
L 61.32 173.883556 
L 62.56 154.05429 
L 63.8 129.859125 
L 65.04 134.064996 
L 66.28 125.062606 
L 67.52 122.384462 
L 68.76 120.533201 
L 70 115.431243 
L 71.24 118.948308 
L 72.48 115.822781 
L 73.72 117.312617 
L 74.96 114.505045 
L 76.2 116.517582 
L 77.44 116.985925 
L 78.68 115.313075 
L 79.92 115.538757 
L 81.16 116.696109 
L 82.4 120.106717 
L 83.64 118.836244 
L 84.88 121.523547 
L 86.12 121.398441 
L 87.36 121.574063 
L 88.6 122.918304 
L 89.84 123.512718 
L 91.08 124.859661 
L 92.32 123.572768 
L 93.56 123.073107 
L 94.8 124.892339 
L 96.04 124.379908 
L 97.28 123.514877 
L 98.52 127.19497 
L 99.76 126.233037 
L 101 126.143834 
L 102.24 125.900765 
L 104.72 126.802628 
L 105.96 128.363628 
L 107.2 128.333616 
L 108.44 128.155887 
L 109.68 129.402033 
L 110.92 128.554016 
L 112.16 129.022679 
L 113.4 128.622296 
L 114.64 130.046465 
L 115.88 129.916649 
L 117.12 130.86174 
L 118.36 130.840684 
L 120.84 134.51853 
L 122.08 135.472129 
L 123.32 135.563096 
L 124.56 136.762539 
L 125.8 137.478061 
L 127.04 138.704761 
L 128.28 139.313293 
L 129.52 139.085622 
L 130.76 139.512825 
L 133.24 139.921066 
L 134.48 141.649354 
L 135.72 142.073638 
L 136.96 143.104733 
L 138.2 143.522077 
L 139.44 144.50765 
L 144.4 147.633036 
L 145.64 147.735587 
L 146.88 148.700029 
L 148.12 149.220408 
L 149.36 150.5837 
L 150.6 150.818279 
L 153.08 151.544521 
L 154.32 152.525124 
L 155.56 153.99828 
L 158.04 155.302447 
L 159.28 156.520328 
L 160.52 156.40263 
L 161.76 156.791728 
L 163 158.246607 
L 164.24 158.980439 
L 165.48 159.188005 
L 166.72 159.80697 
L 167.96 160.921693 
L 169.2 162.456108 
L 170.44 163.280297 
L 171.68 163.516236 
L 172.92 163.949304 
L 174.16 164.993976 
L 175.4 165.44196 
L 176.64 166.014583 
L 177.88 167.186961 
L 179.12 167.599584 
L 180.36 167.764216 
L 181.6 169.100011 
L 182.84 169.609677 
L 184.08 170.566948 
L 185.32 170.771228 
L 186.56 171.262521 
L 187.8 172.019648 
L 189.04 172.298497 
L 190.28 173.444116 
L 192.76 174.528975 
L 194 174.901801 
L 195.24 175.568415 
L 196.48 176.082446 
L 198.96 176.771019 
L 200.2 177.355221 
L 201.44 178.248501 
L 202.68 179.330263 
L 203.92 179.647651 
L 206.4 180.943219 
L 207.64 181.938108 
L 208.88 182.508136 
L 210.12 183.646782 
L 211.36 184.602504 
L 213.84 185.501899 
L 216.32 186.741793 
L 218.8 188.386246 
L 220.04 189.73852 
L 222.52 191.840452 
L 225 193.168273 
L 227.48 195.570332 
L 229.96 197.339005 
L 231.2 197.912199 
L 232.44 198.944801 
L 233.68 199.699671 
L 234.92 200.808561 
L 236.16 202.25413 
L 237.4 202.843991 
L 238.64 203.852456 
L 242.36 206.194544 
L 243.6 207.192953 
L 244.84 207.860158 
L 247.32 209.567888 
L 248.56 210.673411 
L 249.8 211.972476 
L 251.04 212.888648 
L 252.28 213.260908 
L 254.76 215.553403 
L 256 216.373996 
L 257.24 217.353271 
L 258.48 217.680982 
L 260.96 219.296566 
L 262.2 220.027061 
L 263.44 221.190523 
L 264.68 221.847437 
L 265.92 222.74087 
L 267.16 223.355411 
L 268.4 223.819114 
L 270.88 225.989353 
L 272.12 227.471826 
L 273.36 228.289729 
L 275.84 230.324497 
L 277.08 230.824778 
L 279.56 232.190034 
L 280.8 233.079497 
L 282.04 233.756129 
L 283.28 234.889775 
L 290.72 239.387658 
L 291.96 240.069121 
L 294.44 242.202411 
L 295.68 242.81901 
L 299.4 245.258627 
L 300.64 245.778946 
L 301.88 246.507966 
L 303.12 247.376154 
L 304.36 247.953097 
L 305.6 248.737337 
L 306.84 249.669442 
L 308.08 250.436866 
L 310.56 252.293494 
L 311.8 252.717067 
L 313.04 253.472513 
L 314.28 253.712566 
L 316.76 255.816428 
L 319.24 257.226238 
L 320.48 257.86094 
L 324.2 260.444172 
L 327.92 263.110546 
L 331.64 265.6226 
L 332.88 266.351984 
L 334.12 267.312355 
L 335.36 267.674391 
L 336.6 268.404179 
L 337.84 269.290703 
L 340.32 270.528368 
L 342.8 271.911676 
L 345.28 272.987975 
L 352.72 278.040088 
L 353.96 278.512263 
L 355.2 279.170699 
L 356.44 280.309669 
L 357.68 281.18012 
L 358.92 282.304407 
L 360.16 282.856755 
L 361.4 283.682109 
L 366.36 286.383053 
L 367.6 287.406686 
L 368.84 288.250917 
L 371.32 289.426707 
L 372.56 289.974134 
L 373.8 290.781272 
L 375.04 291.404323 
L 377.52 293.182825 
L 381.24 295.684683 
L 383.72 296.909789 
L 384.96 297.617901 
L 391.16 300.515084 
L 393.64 301.778118 
L 394.88 302.651133 
L 396.12 303.299487 
L 397.36 304.103158 
L 399.84 305.301409 
L 401.08 305.974996 
L 403.56 306.939852 
L 406.04 308.245397 
L 409.76 309.305463 
L 412.24 309.457961 
L 414.72 309.438439 
L 414.72 309.438439 
" clip-path="url(#p89817b9184)" style="fill: none; stroke-dasharray: 1.5,2.475; stroke-dashoffset: 0; stroke: #bf00bf; stroke-width: 1.5"/>
   </g>
   <g id="patch_3">
    <path d="M 57.6 307.584 
L 57.6 41.472 
" style="fill: none; stroke: #000000; stroke-width: 0.8; stroke-linejoin: miter; stroke-linecap: square"/>
   </g>
   <g id="patch_4">
    <path d="M 414.72 307.584 
L 414.72 41.472 
" style="fill: none; stroke: #000000; stroke-width: 0.8; stroke-linejoin: miter; stroke-linecap: square"/>
   </g>
   <g id="patch_5">
    <path d="M 57.6 307.584 
L 414.72 307.584 
" style="fill: none; stroke: #000000; stroke-width: 0.8; stroke-linejoin: miter; stroke-linecap: square"/>
   </g>
   <g id="patch_6">
    <path d="M 57.6 41.472 
L 414.72 41.472 
" style="fill: none; stroke: #000000; stroke-width: 0.8; stroke-linejoin: miter; stroke-linecap: square"/>
   </g>
   <g id="text_15">
    <!-- Assortativity for various thresholding methods + nonparanormal -->
    <g transform="translate(42.059063 35.472) scale(0.12 -0.12)">
     <defs>
      <path id="DejaVuSans-68" d="M 3513 2113 
L 3513 0 
L 2938 0 
L 2938 2094 
Q 2938 2591 2744 2837 
Q 2550 3084 2163 3084 
Q 1697 3084 1428 2787 
Q 1159 2491 1159 1978 
L 1159 0 
L 581 0 
L 581 4863 
L 1159 4863 
L 1159 2956 
Q 1366 3272 1645 3428 
Q 1925 3584 2291 3584 
Q 2894 3584 3203 3211 
Q 3513 2838 3513 2113 
z
" transform="scale(0.015625)"/>
      <path id="DejaVuSans-6e" d="M 3513 2113 
L 3513 0 
L 2938 0 
L 2938 2094 
Q 2938 2591 2744 2837 
Q 2550 3084 2163 3084 
Q 1697 3084 1428 2787 
Q 1159 2491 1159 1978 
L 1159 0 
L 581 0 
L 581 3500 
L 1159 3500 
L 1159 2956 
Q 1366 3272 1645 3428 
Q 1925 3584 2291 3584 
Q 2894 3584 3203 3211 
Q 3513 2838 3513 2113 
z
" transform="scale(0.015625)"/>
      <path id="DejaVuSans-2b" d="M 2944 4013 
L 2944 2272 
L 4684 2272 
L 4684 1741 
L 2944 1741 
L 2944 0 
L 2419 0 
L 2419 1741 
L 678 1741 
L 678 2272 
L 2419 2272 
L 2419 4013 
L 2944 4013 
z
" transform="scale(0.015625)"/>
     </defs>
     <use xlink:href="#DejaVuSans-41"/>
     <use xlink:href="#DejaVuSans-73" x="68.408203"/>
     <use xlink:href="#DejaVuSans-73" x="120.507812"/>
     <use xlink:href="#DejaVuSans-6f" x="172.607422"/>
     <use xlink:href="#DejaVuSans-72" x="233.789062"/>
     <use xlink:href="#DejaVuSans-74" x="274.902344"/>
     <use xlink:href="#DejaVuSans-61" x="314.111328"/>
     <use xlink:href="#DejaVuSans-74" x="375.390625"/>
     <use xlink:href="#DejaVuSans-69" x="414.599609"/>
     <use xlink:href="#DejaVuSans-76" x="442.382812"/>
     <use xlink:href="#DejaVuSans-69" x="501.5625"/>
     <use xlink:href="#DejaVuSans-74" x="529.345703"/>
     <use xlink:href="#DejaVuSans-79" x="568.554688"/>
     <use xlink:href="#DejaVuSans-20" x="627.734375"/>
     <use xlink:href="#DejaVuSans-66" x="659.521484"/>
     <use xlink:href="#DejaVuSans-6f" x="694.726562"/>
     <use xlink:href="#DejaVuSans-72" x="755.908203"/>
     <use xlink:href="#DejaVuSans-20" x="797.021484"/>
     <use xlink:href="#DejaVuSans-76" x="828.808594"/>
     <use xlink:href="#DejaVuSans-61" x="887.988281"/>
     <use xlink:href="#DejaVuSans-72" x="949.267578"/>
     <use xlink:href="#DejaVuSans-69" x="990.380859"/>
     <use xlink:href="#DejaVuSans-6f" x="1018.164062"/>
     <use xlink:href="#DejaVuSans-75" x="1079.345703"/>
     <use xlink:href="#DejaVuSans-73" x="1142.724609"/>
     <use xlink:href="#DejaVuSans-20" x="1194.824219"/>
     <use xlink:href="#DejaVuSans-74" x="1226.611328"/>
     <use xlink:href="#DejaVuSans-68" x="1265.820312"/>
     <use xlink:href="#DejaVuSans-72" x="1329.199219"/>
     <use xlink:href="#DejaVuSans-65" x="1368.0625"/>
     <use xlink:href="#DejaVuSans-73" x="1429.585938"/>
     <use xlink:href="#DejaVuSans-68" x="1481.685547"/>
     <use xlink:href="#DejaVuSans-6f" x="1545.064453"/>
     <use xlink:href="#DejaVuSans-6c" x="1606.246094"/>
     <use xlink:href="#DejaVuSans-64" x="1634.029297"/>
     <use xlink:href="#DejaVuSans-69" x="1697.505859"/>
     <use xlink:href="#DejaVuSans-6e" x="1725.289062"/>
     <use xlink:href="#DejaVuSans-67" x="1788.667969"/>
     <use xlink:href="#DejaVuSans-20" x="1852.144531"/>
     <use xlink:href="#DejaVuSans-6d" x="1883.931641"/>
     <use xlink:href="#DejaVuSans-65" x="1981.34375"/>
     <use xlink:href="#DejaVuSans-74" x="2042.867188"/>
     <use xlink:href="#DejaVuSans-68" x="2082.076172"/>
     <use xlink:href="#DejaVuSans-6f" x="2145.455078"/>
     <use xlink:href="#DejaVuSans-64" x="2206.636719"/>
     <use xlink:href="#DejaVuSans-73" x="2270.113281"/>
     <use xlink:href="#DejaVuSans-20" x="2322.212891"/>
     <use xlink:href="#DejaVuSans-2b" x="2354"/>
     <use xlink:href="#DejaVuSans-20" x="2437.789062"/>
     <use xlink:href="#DejaVuSans-6e" x="2469.576172"/>
     <use xlink:href="#DejaVuSans-6f" x="2532.955078"/>
     <use xlink:href="#DejaVuSans-6e" x="2594.136719"/>
     <use xlink:href="#DejaVuSans-70" x="2657.515625"/>
     <use xlink:href="#DejaVuSans-61" x="2720.992188"/>
     <use xlink:href="#DejaVuSans-72" x="2782.271484"/>
     <use xlink:href="#DejaVuSans-61" x="2823.384766"/>
     <use xlink:href="#DejaVuSans-6e" x="2884.664062"/>
     <use xlink:href="#DejaVuSans-6f" x="2948.042969"/>
     <use xlink:href="#DejaVuSans-72" x="3009.224609"/>
     <use xlink:href="#DejaVuSans-6d" x="3048.587891"/>
     <use xlink:href="#DejaVuSans-61" x="3146"/>
     <use xlink:href="#DejaVuSans-6c" x="3207.279297"/>
    </g>
   </g>
   <g id="legend_1">
    <g id="patch_7">
     <path d="M 263.0325 93.506375 
L 407.72 93.506375 
Q 409.72 93.506375 409.72 91.506375 
L 409.72 48.472 
Q 409.72 46.472 407.72 46.472 
L 263.0325 46.472 
Q 261.0325 46.472 261.0325 48.472 
L 261.0325 91.506375 
Q 261.0325 93.506375 263.0325 93.506375 
z
" style="fill: #ffffff; opacity: 0.8; stroke: #cccccc; stroke-linejoin: miter"/>
    </g>
    <g id="line2d_16">
     <path d="M 265.0325 54.570438 
L 275.0325 54.570438 
L 285.0325 54.570438 
" style="fill: none; stroke: #000000; stroke-width: 1.5; stroke-linecap: square"/>
    </g>
    <g id="text_16">
     <!-- All -->
     <g transform="translate(293.0325 58.070438) scale(0.1 -0.1)">
      <use xlink:href="#DejaVuSans-41"/>
      <use xlink:href="#DejaVuSans-6c" x="68.408203"/>
      <use xlink:href="#DejaVuSans-6c" x="96.191406"/>
     </g>
    </g>
    <g id="line2d_17">
     <path d="M 265.0325 69.248563 
L 275.0325 69.248563 
L 285.0325 69.248563 
" style="fill: none; stroke-dasharray: 5.55,2.4; stroke-dashoffset: 0; stroke: #ffa500; stroke-width: 1.5"/>
    </g>
    <g id="text_17">
     <!-- Per Row -->
     <g transform="translate(293.0325 72.748563) scale(0.1 -0.1)">
      <defs>
       <path id="DejaVuSans-50" d="M 1259 4147 
L 1259 2394 
L 2053 2394 
Q 2494 2394 2734 2622 
Q 2975 2850 2975 3272 
Q 2975 3691 2734 3919 
Q 2494 4147 2053 4147 
L 1259 4147 
z
M 628 4666 
L 2053 4666 
Q 2838 4666 3239 4311 
Q 3641 3956 3641 3272 
Q 3641 2581 3239 2228 
Q 2838 1875 2053 1875 
L 1259 1875 
L 1259 0 
L 628 0 
L 628 4666 
z
" transform="scale(0.015625)"/>
       <path id="DejaVuSans-52" d="M 2841 2188 
Q 3044 2119 3236 1894 
Q 3428 1669 3622 1275 
L 4263 0 
L 3584 0 
L 2988 1197 
Q 2756 1666 2539 1819 
Q 2322 1972 1947 1972 
L 1259 1972 
L 1259 0 
L 628 0 
L 628 4666 
L 2053 4666 
Q 2853 4666 3247 4331 
Q 3641 3997 3641 3322 
Q 3641 2881 3436 2590 
Q 3231 2300 2841 2188 
z
M 1259 4147 
L 1259 2491 
L 2053 2491 
Q 2509 2491 2742 2702 
Q 2975 2913 2975 3322 
Q 2975 3731 2742 3939 
Q 2509 4147 2053 4147 
L 1259 4147 
z
" transform="scale(0.015625)"/>
       <path id="DejaVuSans-77" d="M 269 3500 
L 844 3500 
L 1563 769 
L 2278 3500 
L 2956 3500 
L 3675 769 
L 4391 3500 
L 4966 3500 
L 4050 0 
L 3372 0 
L 2619 2869 
L 1863 0 
L 1184 0 
L 269 3500 
z
" transform="scale(0.015625)"/>
      </defs>
      <use xlink:href="#DejaVuSans-50"/>
      <use xlink:href="#DejaVuSans-65" x="56.677734"/>
      <use xlink:href="#DejaVuSans-72" x="118.201172"/>
      <use xlink:href="#DejaVuSans-20" x="159.314453"/>
      <use xlink:href="#DejaVuSans-52" x="191.101562"/>
      <use xlink:href="#DejaVuSans-6f" x="256.083984"/>
      <use xlink:href="#DejaVuSans-77" x="317.265625"/>
     </g>
    </g>
    <g id="line2d_18">
     <path d="M 265.0325 83.926688 
L 275.0325 83.926688 
L 285.0325 83.926688 
" style="fill: none; stroke-dasharray: 1.5,2.475; stroke-dashoffset: 0; stroke: #bf00bf; stroke-width: 1.5"/>
    </g>
    <g id="text_18">
     <!-- Per Row, Col-Weighted -->
     <g transform="translate(293.0325 87.426688) scale(0.1 -0.1)">
      <defs>
       <path id="DejaVuSans-2c" d="M 750 794 
L 1409 794 
L 1409 256 
L 897 -744 
L 494 -744 
L 750 256 
L 750 794 
z
" transform="scale(0.015625)"/>
       <path id="DejaVuSans-43" d="M 4122 4306 
L 4122 3641 
Q 3803 3938 3442 4084 
Q 3081 4231 2675 4231 
Q 1875 4231 1450 3742 
Q 1025 3253 1025 2328 
Q 1025 1406 1450 917 
Q 1875 428 2675 428 
Q 3081 428 3442 575 
Q 3803 722 4122 1019 
L 4122 359 
Q 3791 134 3420 21 
Q 3050 -91 2638 -91 
Q 1578 -91 968 557 
Q 359 1206 359 2328 
Q 359 3453 968 4101 
Q 1578 4750 2638 4750 
Q 3056 4750 3426 4639 
Q 3797 4528 4122 4306 
z
" transform="scale(0.015625)"/>
       <path id="DejaVuSans-2d" d="M 313 2009 
L 1997 2009 
L 1997 1497 
L 313 1497 
L 313 2009 
z
" transform="scale(0.015625)"/>
       <path id="DejaVuSans-57" d="M 213 4666 
L 850 4666 
L 1831 722 
L 2809 4666 
L 3519 4666 
L 4500 722 
L 5478 4666 
L 6119 4666 
L 4947 0 
L 4153 0 
L 3169 4050 
L 2175 0 
L 1381 0 
L 213 4666 
z
" transform="scale(0.015625)"/>
      </defs>
      <use xlink:href="#DejaVuSans-50"/>
      <use xlink:href="#DejaVuSans-65" x="56.677734"/>
      <use xlink:href="#DejaVuSans-72" x="118.201172"/>
      <use xlink:href="#DejaVuSans-20" x="159.314453"/>
      <use xlink:href="#DejaVuSans-52" x="191.101562"/>
      <use xlink:href="#DejaVuSans-6f" x="256.083984"/>
      <use xlink:href="#DejaVuSans-77" x="317.265625"/>
      <use xlink:href="#DejaVuSans-2c" x="399.052734"/>
      <use xlink:href="#DejaVuSans-20" x="430.839844"/>
      <use xlink:href="#DejaVuSans-43" x="462.626953"/>
      <use xlink:href="#DejaVuSans-6f" x="532.451172"/>
      <use xlink:href="#DejaVuSans-6c" x="593.632812"/>
      <use xlink:href="#DejaVuSans-2d" x="621.416016"/>
      <use xlink:href="#DejaVuSans-57" x="653.5"/>
      <use xlink:href="#DejaVuSans-65" x="746.501953"/>
      <use xlink:href="#DejaVuSans-69" x="808.025391"/>
      <use xlink:href="#DejaVuSans-67" x="835.808594"/>
      <use xlink:href="#DejaVuSans-68" x="899.285156"/>
      <use xlink:href="#DejaVuSans-74" x="962.664062"/>
      <use xlink:href="#DejaVuSans-65" x="1001.873047"/>
      <use xlink:href="#DejaVuSans-64" x="1063.396484"/>
     </g>
    </g>
   </g>
  </g>
 </g>
 <defs>
  <clipPath id="p89817b9184">
   <rect x="57.6" y="41.472" width="357.12" height="266.112"/>
  </clipPath>
 </defs>
</svg>
