<?xml version="1.0" encoding="utf-8" standalone="no"?>
<!DOCTYPE svg PUBLIC "-//W3C//DTD SVG 1.1//EN"
  "http://www.w3.org/Graphics/SVG/1.1/DTD/svg11.dtd">
<svg xmlns:xlink="http://www.w3.org/1999/xlink" width="460.8pt" height="345.6pt" viewBox="0 0 460.8 345.6" xmlns="http://www.w3.org/2000/svg" version="1.1">
 <metadata>
  <rdf:RDF xmlns:dc="http://purl.org/dc/elements/1.1/" xmlns:cc="http://creativecommons.org/ns#" xmlns:rdf="http://www.w3.org/1999/02/22-rdf-syntax-ns#">
   <cc:Work>
    <dc:type rdf:resource="http://purl.org/dc/dcmitype/StillImage"/>
    <dc:date>2023-10-14T15:18:23.490130</dc:date>
    <dc:format>image/svg+xml</dc:format>
    <dc:creator>
     <cc:Agent>
      <dc:title>Matplotlib v3.7.2, https://matplotlib.org/</dc:title>
     </cc:Agent>
    </dc:creator>
   </cc:Work>
  </rdf:RDF>
 </metadata>
 <defs>
  <style type="text/css">*{stroke-linejoin: round; stroke-linecap: butt}</style>
 </defs>
 <g id="figure_1">
  <g id="patch_1">
   <path d="M 0 345.6 
L 460.8 345.6 
L 460.8 0 
L 0 0 
z
" style="fill: #ffffff"/>
  </g>
  <g id="axes_1">
   <g id="patch_2">
    <path d="M 57.6 307.584 
L 414.72 307.584 
L 414.72 41.472 
L 57.6 41.472 
z
" style="fill: #ffffff"/>
   </g>
   <g id="matplotlib.axis_1">
    <g id="xtick_1">
     <g id="line2d_1">
      <defs>
       <path id="m4fea21b59d" d="M 0 0 
L 0 3.5 
" style="stroke: #000000; stroke-width: 0.8"/>
      </defs>
      <g>
       <use xlink:href="#m4fea21b59d" x="57.6" y="307.584" style="stroke: #000000; stroke-width: 0.8"/>
      </g>
     </g>
     <g id="text_1">
      <!-- 0 -->
      <g transform="translate(54.41875 322.182437) scale(0.1 -0.1)">
       <defs>
        <path id="DejaVuSans-30" d="M 2034 4250 
Q 1547 4250 1301 3770 
Q 1056 3291 1056 2328 
Q 1056 1369 1301 889 
Q 1547 409 2034 409 
Q 2525 409 2770 889 
Q 3016 1369 3016 2328 
Q 3016 3291 2770 3770 
Q 2525 4250 2034 4250 
z
M 2034 4750 
Q 2819 4750 3233 4129 
Q 3647 3509 3647 2328 
Q 3647 1150 3233 529 
Q 2819 -91 2034 -91 
Q 1250 -91 836 529 
Q 422 1150 422 2328 
Q 422 3509 836 4129 
Q 1250 4750 2034 4750 
z
" transform="scale(0.015625)"/>
       </defs>
       <use xlink:href="#DejaVuSans-30"/>
      </g>
     </g>
    </g>
    <g id="xtick_2">
     <g id="line2d_2">
      <g>
       <use xlink:href="#m4fea21b59d" x="119.6" y="307.584" style="stroke: #000000; stroke-width: 0.8"/>
      </g>
     </g>
     <g id="text_2">
      <!-- 50 -->
      <g transform="translate(113.2375 322.182437) scale(0.1 -0.1)">
       <defs>
        <path id="DejaVuSans-35" d="M 691 4666 
L 3169 4666 
L 3169 4134 
L 1269 4134 
L 1269 2991 
Q 1406 3038 1543 3061 
Q 1681 3084 1819 3084 
Q 2600 3084 3056 2656 
Q 3513 2228 3513 1497 
Q 3513 744 3044 326 
Q 2575 -91 1722 -91 
Q 1428 -91 1123 -41 
Q 819 9 494 109 
L 494 744 
Q 775 591 1075 516 
Q 1375 441 1709 441 
Q 2250 441 2565 725 
Q 2881 1009 2881 1497 
Q 2881 1984 2565 2268 
Q 2250 2553 1709 2553 
Q 1456 2553 1204 2497 
Q 953 2441 691 2322 
L 691 4666 
z
" transform="scale(0.015625)"/>
       </defs>
       <use xlink:href="#DejaVuSans-35"/>
       <use xlink:href="#DejaVuSans-30" x="63.623047"/>
      </g>
     </g>
    </g>
    <g id="xtick_3">
     <g id="line2d_3">
      <g>
       <use xlink:href="#m4fea21b59d" x="181.6" y="307.584" style="stroke: #000000; stroke-width: 0.8"/>
      </g>
     </g>
     <g id="text_3">
      <!-- 100 -->
      <g transform="translate(172.05625 322.182437) scale(0.1 -0.1)">
       <defs>
        <path id="DejaVuSans-31" d="M 794 531 
L 1825 531 
L 1825 4091 
L 703 3866 
L 703 4441 
L 1819 4666 
L 2450 4666 
L 2450 531 
L 3481 531 
L 3481 0 
L 794 0 
L 794 531 
z
" transform="scale(0.015625)"/>
       </defs>
       <use xlink:href="#DejaVuSans-31"/>
       <use xlink:href="#DejaVuSans-30" x="63.623047"/>
       <use xlink:href="#DejaVuSans-30" x="127.246094"/>
      </g>
     </g>
    </g>
    <g id="xtick_4">
     <g id="line2d_4">
      <g>
       <use xlink:href="#m4fea21b59d" x="243.6" y="307.584" style="stroke: #000000; stroke-width: 0.8"/>
      </g>
     </g>
     <g id="text_4">
      <!-- 150 -->
      <g transform="translate(234.05625 322.182437) scale(0.1 -0.1)">
       <use xlink:href="#DejaVuSans-31"/>
       <use xlink:href="#DejaVuSans-35" x="63.623047"/>
       <use xlink:href="#DejaVuSans-30" x="127.246094"/>
      </g>
     </g>
    </g>
    <g id="xtick_5">
     <g id="line2d_5">
      <g>
       <use xlink:href="#m4fea21b59d" x="305.6" y="307.584" style="stroke: #000000; stroke-width: 0.8"/>
      </g>
     </g>
     <g id="text_5">
      <!-- 200 -->
      <g transform="translate(296.05625 322.182437) scale(0.1 -0.1)">
       <defs>
        <path id="DejaVuSans-32" d="M 1228 531 
L 3431 531 
L 3431 0 
L 469 0 
L 469 531 
Q 828 903 1448 1529 
Q 2069 2156 2228 2338 
Q 2531 2678 2651 2914 
Q 2772 3150 2772 3378 
Q 2772 3750 2511 3984 
Q 2250 4219 1831 4219 
Q 1534 4219 1204 4116 
Q 875 4013 500 3803 
L 500 4441 
Q 881 4594 1212 4672 
Q 1544 4750 1819 4750 
Q 2544 4750 2975 4387 
Q 3406 4025 3406 3419 
Q 3406 3131 3298 2873 
Q 3191 2616 2906 2266 
Q 2828 2175 2409 1742 
Q 1991 1309 1228 531 
z
" transform="scale(0.015625)"/>
       </defs>
       <use xlink:href="#DejaVuSans-32"/>
       <use xlink:href="#DejaVuSans-30" x="63.623047"/>
       <use xlink:href="#DejaVuSans-30" x="127.246094"/>
      </g>
     </g>
    </g>
    <g id="xtick_6">
     <g id="line2d_6">
      <g>
       <use xlink:href="#m4fea21b59d" x="367.6" y="307.584" style="stroke: #000000; stroke-width: 0.8"/>
      </g>
     </g>
     <g id="text_6">
      <!-- 250 -->
      <g transform="translate(358.05625 322.182437) scale(0.1 -0.1)">
       <use xlink:href="#DejaVuSans-32"/>
       <use xlink:href="#DejaVuSans-35" x="63.623047"/>
       <use xlink:href="#DejaVuSans-30" x="127.246094"/>
      </g>
     </g>
    </g>
    <g id="text_7">
     <!-- Number of edges per cell -->
     <g transform="translate(172.881875 335.860562) scale(0.1 -0.1)">
      <defs>
       <path id="DejaVuSans-4e" d="M 628 4666 
L 1478 4666 
L 3547 763 
L 3547 4666 
L 4159 4666 
L 4159 0 
L 3309 0 
L 1241 3903 
L 1241 0 
L 628 0 
L 628 4666 
z
" transform="scale(0.015625)"/>
       <path id="DejaVuSans-75" d="M 544 1381 
L 544 3500 
L 1119 3500 
L 1119 1403 
Q 1119 906 1312 657 
Q 1506 409 1894 409 
Q 2359 409 2629 706 
Q 2900 1003 2900 1516 
L 2900 3500 
L 3475 3500 
L 3475 0 
L 2900 0 
L 2900 538 
Q 2691 219 2414 64 
Q 2138 -91 1772 -91 
Q 1169 -91 856 284 
Q 544 659 544 1381 
z
M 1991 3584 
L 1991 3584 
z
" transform="scale(0.015625)"/>
       <path id="DejaVuSans-6d" d="M 3328 2828 
Q 3544 3216 3844 3400 
Q 4144 3584 4550 3584 
Q 5097 3584 5394 3201 
Q 5691 2819 5691 2113 
L 5691 0 
L 5113 0 
L 5113 2094 
Q 5113 2597 4934 2840 
Q 4756 3084 4391 3084 
Q 3944 3084 3684 2787 
Q 3425 2491 3425 1978 
L 3425 0 
L 2847 0 
L 2847 2094 
Q 2847 2600 2669 2842 
Q 2491 3084 2119 3084 
Q 1678 3084 1418 2786 
Q 1159 2488 1159 1978 
L 1159 0 
L 581 0 
L 581 3500 
L 1159 3500 
L 1159 2956 
Q 1356 3278 1631 3431 
Q 1906 3584 2284 3584 
Q 2666 3584 2933 3390 
Q 3200 3197 3328 2828 
z
" transform="scale(0.015625)"/>
       <path id="DejaVuSans-62" d="M 3116 1747 
Q 3116 2381 2855 2742 
Q 2594 3103 2138 3103 
Q 1681 3103 1420 2742 
Q 1159 2381 1159 1747 
Q 1159 1113 1420 752 
Q 1681 391 2138 391 
Q 2594 391 2855 752 
Q 3116 1113 3116 1747 
z
M 1159 2969 
Q 1341 3281 1617 3432 
Q 1894 3584 2278 3584 
Q 2916 3584 3314 3078 
Q 3713 2572 3713 1747 
Q 3713 922 3314 415 
Q 2916 -91 2278 -91 
Q 1894 -91 1617 61 
Q 1341 213 1159 525 
L 1159 0 
L 581 0 
L 581 4863 
L 1159 4863 
L 1159 2969 
z
" transform="scale(0.015625)"/>
       <path id="DejaVuSans-65" d="M 3597 1894 
L 3597 1613 
L 953 1613 
Q 991 1019 1311 708 
Q 1631 397 2203 397 
Q 2534 397 2845 478 
Q 3156 559 3463 722 
L 3463 178 
Q 3153 47 2828 -22 
Q 2503 -91 2169 -91 
Q 1331 -91 842 396 
Q 353 884 353 1716 
Q 353 2575 817 3079 
Q 1281 3584 2069 3584 
Q 2775 3584 3186 3129 
Q 3597 2675 3597 1894 
z
M 3022 2063 
Q 3016 2534 2758 2815 
Q 2500 3097 2075 3097 
Q 1594 3097 1305 2825 
Q 1016 2553 972 2059 
L 3022 2063 
z
" transform="scale(0.015625)"/>
       <path id="DejaVuSans-72" d="M 2631 2963 
Q 2534 3019 2420 3045 
Q 2306 3072 2169 3072 
Q 1681 3072 1420 2755 
Q 1159 2438 1159 1844 
L 1159 0 
L 581 0 
L 581 3500 
L 1159 3500 
L 1159 2956 
Q 1341 3275 1631 3429 
Q 1922 3584 2338 3584 
Q 2397 3584 2469 3576 
Q 2541 3569 2628 3553 
L 2631 2963 
z
" transform="scale(0.015625)"/>
       <path id="DejaVuSans-20" transform="scale(0.015625)"/>
       <path id="DejaVuSans-6f" d="M 1959 3097 
Q 1497 3097 1228 2736 
Q 959 2375 959 1747 
Q 959 1119 1226 758 
Q 1494 397 1959 397 
Q 2419 397 2687 759 
Q 2956 1122 2956 1747 
Q 2956 2369 2687 2733 
Q 2419 3097 1959 3097 
z
M 1959 3584 
Q 2709 3584 3137 3096 
Q 3566 2609 3566 1747 
Q 3566 888 3137 398 
Q 2709 -91 1959 -91 
Q 1206 -91 779 398 
Q 353 888 353 1747 
Q 353 2609 779 3096 
Q 1206 3584 1959 3584 
z
" transform="scale(0.015625)"/>
       <path id="DejaVuSans-66" d="M 2375 4863 
L 2375 4384 
L 1825 4384 
Q 1516 4384 1395 4259 
Q 1275 4134 1275 3809 
L 1275 3500 
L 2222 3500 
L 2222 3053 
L 1275 3053 
L 1275 0 
L 697 0 
L 697 3053 
L 147 3053 
L 147 3500 
L 697 3500 
L 697 3744 
Q 697 4328 969 4595 
Q 1241 4863 1831 4863 
L 2375 4863 
z
" transform="scale(0.015625)"/>
       <path id="DejaVuSans-64" d="M 2906 2969 
L 2906 4863 
L 3481 4863 
L 3481 0 
L 2906 0 
L 2906 525 
Q 2725 213 2448 61 
Q 2172 -91 1784 -91 
Q 1150 -91 751 415 
Q 353 922 353 1747 
Q 353 2572 751 3078 
Q 1150 3584 1784 3584 
Q 2172 3584 2448 3432 
Q 2725 3281 2906 2969 
z
M 947 1747 
Q 947 1113 1208 752 
Q 1469 391 1925 391 
Q 2381 391 2643 752 
Q 2906 1113 2906 1747 
Q 2906 2381 2643 2742 
Q 2381 3103 1925 3103 
Q 1469 3103 1208 2742 
Q 947 2381 947 1747 
z
" transform="scale(0.015625)"/>
       <path id="DejaVuSans-67" d="M 2906 1791 
Q 2906 2416 2648 2759 
Q 2391 3103 1925 3103 
Q 1463 3103 1205 2759 
Q 947 2416 947 1791 
Q 947 1169 1205 825 
Q 1463 481 1925 481 
Q 2391 481 2648 825 
Q 2906 1169 2906 1791 
z
M 3481 434 
Q 3481 -459 3084 -895 
Q 2688 -1331 1869 -1331 
Q 1566 -1331 1297 -1286 
Q 1028 -1241 775 -1147 
L 775 -588 
Q 1028 -725 1275 -790 
Q 1522 -856 1778 -856 
Q 2344 -856 2625 -561 
Q 2906 -266 2906 331 
L 2906 616 
Q 2728 306 2450 153 
Q 2172 0 1784 0 
Q 1141 0 747 490 
Q 353 981 353 1791 
Q 353 2603 747 3093 
Q 1141 3584 1784 3584 
Q 2172 3584 2450 3431 
Q 2728 3278 2906 2969 
L 2906 3500 
L 3481 3500 
L 3481 434 
z
" transform="scale(0.015625)"/>
       <path id="DejaVuSans-73" d="M 2834 3397 
L 2834 2853 
Q 2591 2978 2328 3040 
Q 2066 3103 1784 3103 
Q 1356 3103 1142 2972 
Q 928 2841 928 2578 
Q 928 2378 1081 2264 
Q 1234 2150 1697 2047 
L 1894 2003 
Q 2506 1872 2764 1633 
Q 3022 1394 3022 966 
Q 3022 478 2636 193 
Q 2250 -91 1575 -91 
Q 1294 -91 989 -36 
Q 684 19 347 128 
L 347 722 
Q 666 556 975 473 
Q 1284 391 1588 391 
Q 1994 391 2212 530 
Q 2431 669 2431 922 
Q 2431 1156 2273 1281 
Q 2116 1406 1581 1522 
L 1381 1569 
Q 847 1681 609 1914 
Q 372 2147 372 2553 
Q 372 3047 722 3315 
Q 1072 3584 1716 3584 
Q 2034 3584 2315 3537 
Q 2597 3491 2834 3397 
z
" transform="scale(0.015625)"/>
       <path id="DejaVuSans-70" d="M 1159 525 
L 1159 -1331 
L 581 -1331 
L 581 3500 
L 1159 3500 
L 1159 2969 
Q 1341 3281 1617 3432 
Q 1894 3584 2278 3584 
Q 2916 3584 3314 3078 
Q 3713 2572 3713 1747 
Q 3713 922 3314 415 
Q 2916 -91 2278 -91 
Q 1894 -91 1617 61 
Q 1341 213 1159 525 
z
M 3116 1747 
Q 3116 2381 2855 2742 
Q 2594 3103 2138 3103 
Q 1681 3103 1420 2742 
Q 1159 2381 1159 1747 
Q 1159 1113 1420 752 
Q 1681 391 2138 391 
Q 2594 391 2855 752 
Q 3116 1113 3116 1747 
z
" transform="scale(0.015625)"/>
       <path id="DejaVuSans-63" d="M 3122 3366 
L 3122 2828 
Q 2878 2963 2633 3030 
Q 2388 3097 2138 3097 
Q 1578 3097 1268 2742 
Q 959 2388 959 1747 
Q 959 1106 1268 751 
Q 1578 397 2138 397 
Q 2388 397 2633 464 
Q 2878 531 3122 666 
L 3122 134 
Q 2881 22 2623 -34 
Q 2366 -91 2075 -91 
Q 1284 -91 818 406 
Q 353 903 353 1747 
Q 353 2603 823 3093 
Q 1294 3584 2113 3584 
Q 2378 3584 2631 3529 
Q 2884 3475 3122 3366 
z
" transform="scale(0.015625)"/>
       <path id="DejaVuSans-6c" d="M 603 4863 
L 1178 4863 
L 1178 0 
L 603 0 
L 603 4863 
z
" transform="scale(0.015625)"/>
      </defs>
      <use xlink:href="#DejaVuSans-4e"/>
      <use xlink:href="#DejaVuSans-75" x="74.804688"/>
      <use xlink:href="#DejaVuSans-6d" x="138.183594"/>
      <use xlink:href="#DejaVuSans-62" x="235.595703"/>
      <use xlink:href="#DejaVuSans-65" x="299.072266"/>
      <use xlink:href="#DejaVuSans-72" x="360.595703"/>
      <use xlink:href="#DejaVuSans-20" x="401.708984"/>
      <use xlink:href="#DejaVuSans-6f" x="433.496094"/>
      <use xlink:href="#DejaVuSans-66" x="494.677734"/>
      <use xlink:href="#DejaVuSans-20" x="529.882812"/>
      <use xlink:href="#DejaVuSans-65" x="561.669922"/>
      <use xlink:href="#DejaVuSans-64" x="623.193359"/>
      <use xlink:href="#DejaVuSans-67" x="686.669922"/>
      <use xlink:href="#DejaVuSans-65" x="750.146484"/>
      <use xlink:href="#DejaVuSans-73" x="811.669922"/>
      <use xlink:href="#DejaVuSans-20" x="863.769531"/>
      <use xlink:href="#DejaVuSans-70" x="895.556641"/>
      <use xlink:href="#DejaVuSans-65" x="959.033203"/>
      <use xlink:href="#DejaVuSans-72" x="1020.556641"/>
      <use xlink:href="#DejaVuSans-20" x="1061.669922"/>
      <use xlink:href="#DejaVuSans-63" x="1093.457031"/>
      <use xlink:href="#DejaVuSans-65" x="1148.4375"/>
      <use xlink:href="#DejaVuSans-6c" x="1209.960938"/>
      <use xlink:href="#DejaVuSans-6c" x="1237.744141"/>
     </g>
    </g>
   </g>
   <g id="matplotlib.axis_2">
    <g id="ytick_1">
     <g id="line2d_7">
      <defs>
       <path id="meaac93bbcf" d="M 0 0 
L -3.5 0 
" style="stroke: #000000; stroke-width: 0.8"/>
      </defs>
      <g>
       <use xlink:href="#meaac93bbcf" x="57.6" y="307.584" style="stroke: #000000; stroke-width: 0.8"/>
      </g>
     </g>
     <g id="text_8">
      <!-- 0.0 -->
      <g transform="translate(34.696875 311.383219) scale(0.1 -0.1)">
       <defs>
        <path id="DejaVuSans-2e" d="M 684 794 
L 1344 794 
L 1344 0 
L 684 0 
L 684 794 
z
" transform="scale(0.015625)"/>
       </defs>
       <use xlink:href="#DejaVuSans-30"/>
       <use xlink:href="#DejaVuSans-2e" x="63.623047"/>
       <use xlink:href="#DejaVuSans-30" x="95.410156"/>
      </g>
     </g>
    </g>
    <g id="ytick_2">
     <g id="line2d_8">
      <g>
       <use xlink:href="#meaac93bbcf" x="57.6" y="254.3616" style="stroke: #000000; stroke-width: 0.8"/>
      </g>
     </g>
     <g id="text_9">
      <!-- 0.1 -->
      <g transform="translate(34.696875 258.160819) scale(0.1 -0.1)">
       <use xlink:href="#DejaVuSans-30"/>
       <use xlink:href="#DejaVuSans-2e" x="63.623047"/>
       <use xlink:href="#DejaVuSans-31" x="95.410156"/>
      </g>
     </g>
    </g>
    <g id="ytick_3">
     <g id="line2d_9">
      <g>
       <use xlink:href="#meaac93bbcf" x="57.6" y="201.1392" style="stroke: #000000; stroke-width: 0.8"/>
      </g>
     </g>
     <g id="text_10">
      <!-- 0.2 -->
      <g transform="translate(34.696875 204.938419) scale(0.1 -0.1)">
       <use xlink:href="#DejaVuSans-30"/>
       <use xlink:href="#DejaVuSans-2e" x="63.623047"/>
       <use xlink:href="#DejaVuSans-32" x="95.410156"/>
      </g>
     </g>
    </g>
    <g id="ytick_4">
     <g id="line2d_10">
      <g>
       <use xlink:href="#meaac93bbcf" x="57.6" y="147.9168" style="stroke: #000000; stroke-width: 0.8"/>
      </g>
     </g>
     <g id="text_11">
      <!-- 0.3 -->
      <g transform="translate(34.696875 151.716019) scale(0.1 -0.1)">
       <defs>
        <path id="DejaVuSans-33" d="M 2597 2516 
Q 3050 2419 3304 2112 
Q 3559 1806 3559 1356 
Q 3559 666 3084 287 
Q 2609 -91 1734 -91 
Q 1441 -91 1130 -33 
Q 819 25 488 141 
L 488 750 
Q 750 597 1062 519 
Q 1375 441 1716 441 
Q 2309 441 2620 675 
Q 2931 909 2931 1356 
Q 2931 1769 2642 2001 
Q 2353 2234 1838 2234 
L 1294 2234 
L 1294 2753 
L 1863 2753 
Q 2328 2753 2575 2939 
Q 2822 3125 2822 3475 
Q 2822 3834 2567 4026 
Q 2313 4219 1838 4219 
Q 1578 4219 1281 4162 
Q 984 4106 628 3988 
L 628 4550 
Q 988 4650 1302 4700 
Q 1616 4750 1894 4750 
Q 2613 4750 3031 4423 
Q 3450 4097 3450 3541 
Q 3450 3153 3228 2886 
Q 3006 2619 2597 2516 
z
" transform="scale(0.015625)"/>
       </defs>
       <use xlink:href="#DejaVuSans-30"/>
       <use xlink:href="#DejaVuSans-2e" x="63.623047"/>
       <use xlink:href="#DejaVuSans-33" x="95.410156"/>
      </g>
     </g>
    </g>
    <g id="ytick_5">
     <g id="line2d_11">
      <g>
       <use xlink:href="#meaac93bbcf" x="57.6" y="94.6944" style="stroke: #000000; stroke-width: 0.8"/>
      </g>
     </g>
     <g id="text_12">
      <!-- 0.4 -->
      <g transform="translate(34.696875 98.493619) scale(0.1 -0.1)">
       <defs>
        <path id="DejaVuSans-34" d="M 2419 4116 
L 825 1625 
L 2419 1625 
L 2419 4116 
z
M 2253 4666 
L 3047 4666 
L 3047 1625 
L 3713 1625 
L 3713 1100 
L 3047 1100 
L 3047 0 
L 2419 0 
L 2419 1100 
L 313 1100 
L 313 1709 
L 2253 4666 
z
" transform="scale(0.015625)"/>
       </defs>
       <use xlink:href="#DejaVuSans-30"/>
       <use xlink:href="#DejaVuSans-2e" x="63.623047"/>
       <use xlink:href="#DejaVuSans-34" x="95.410156"/>
      </g>
     </g>
    </g>
    <g id="ytick_6">
     <g id="line2d_12">
      <g>
       <use xlink:href="#meaac93bbcf" x="57.6" y="41.472" style="stroke: #000000; stroke-width: 0.8"/>
      </g>
     </g>
     <g id="text_13">
      <!-- 0.5 -->
      <g transform="translate(34.696875 45.271219) scale(0.1 -0.1)">
       <use xlink:href="#DejaVuSans-30"/>
       <use xlink:href="#DejaVuSans-2e" x="63.623047"/>
       <use xlink:href="#DejaVuSans-35" x="95.410156"/>
      </g>
     </g>
    </g>
    <g id="text_14">
     <!-- Assortativity -->
     <g transform="translate(28.617187 205.913938) rotate(-90) scale(0.1 -0.1)">
      <defs>
       <path id="DejaVuSans-41" d="M 2188 4044 
L 1331 1722 
L 3047 1722 
L 2188 4044 
z
M 1831 4666 
L 2547 4666 
L 4325 0 
L 3669 0 
L 3244 1197 
L 1141 1197 
L 716 0 
L 50 0 
L 1831 4666 
z
" transform="scale(0.015625)"/>
       <path id="DejaVuSans-74" d="M 1172 4494 
L 1172 3500 
L 2356 3500 
L 2356 3053 
L 1172 3053 
L 1172 1153 
Q 1172 725 1289 603 
Q 1406 481 1766 481 
L 2356 481 
L 2356 0 
L 1766 0 
Q 1100 0 847 248 
Q 594 497 594 1153 
L 594 3053 
L 172 3053 
L 172 3500 
L 594 3500 
L 594 4494 
L 1172 4494 
z
" transform="scale(0.015625)"/>
       <path id="DejaVuSans-61" d="M 2194 1759 
Q 1497 1759 1228 1600 
Q 959 1441 959 1056 
Q 959 750 1161 570 
Q 1363 391 1709 391 
Q 2188 391 2477 730 
Q 2766 1069 2766 1631 
L 2766 1759 
L 2194 1759 
z
M 3341 1997 
L 3341 0 
L 2766 0 
L 2766 531 
Q 2569 213 2275 61 
Q 1981 -91 1556 -91 
Q 1019 -91 701 211 
Q 384 513 384 1019 
Q 384 1609 779 1909 
Q 1175 2209 1959 2209 
L 2766 2209 
L 2766 2266 
Q 2766 2663 2505 2880 
Q 2244 3097 1772 3097 
Q 1472 3097 1187 3025 
Q 903 2953 641 2809 
L 641 3341 
Q 956 3463 1253 3523 
Q 1550 3584 1831 3584 
Q 2591 3584 2966 3190 
Q 3341 2797 3341 1997 
z
" transform="scale(0.015625)"/>
       <path id="DejaVuSans-69" d="M 603 3500 
L 1178 3500 
L 1178 0 
L 603 0 
L 603 3500 
z
M 603 4863 
L 1178 4863 
L 1178 4134 
L 603 4134 
L 603 4863 
z
" transform="scale(0.015625)"/>
       <path id="DejaVuSans-76" d="M 191 3500 
L 800 3500 
L 1894 563 
L 2988 3500 
L 3597 3500 
L 2284 0 
L 1503 0 
L 191 3500 
z
" transform="scale(0.015625)"/>
       <path id="DejaVuSans-79" d="M 2059 -325 
Q 1816 -950 1584 -1140 
Q 1353 -1331 966 -1331 
L 506 -1331 
L 506 -850 
L 844 -850 
Q 1081 -850 1212 -737 
Q 1344 -625 1503 -206 
L 1606 56 
L 191 3500 
L 800 3500 
L 1894 763 
L 2988 3500 
L 3597 3500 
L 2059 -325 
z
" transform="scale(0.015625)"/>
      </defs>
      <use xlink:href="#DejaVuSans-41"/>
      <use xlink:href="#DejaVuSans-73" x="68.408203"/>
      <use xlink:href="#DejaVuSans-73" x="120.507812"/>
      <use xlink:href="#DejaVuSans-6f" x="172.607422"/>
      <use xlink:href="#DejaVuSans-72" x="233.789062"/>
      <use xlink:href="#DejaVuSans-74" x="274.902344"/>
      <use xlink:href="#DejaVuSans-61" x="314.111328"/>
      <use xlink:href="#DejaVuSans-74" x="375.390625"/>
      <use xlink:href="#DejaVuSans-69" x="414.599609"/>
      <use xlink:href="#DejaVuSans-76" x="442.382812"/>
      <use xlink:href="#DejaVuSans-69" x="501.5625"/>
      <use xlink:href="#DejaVuSans-74" x="529.345703"/>
      <use xlink:href="#DejaVuSans-79" x="568.554688"/>
     </g>
    </g>
   </g>
   <g id="line2d_13">
    <path d="M 58.728288 346.6 
L 58.84 297.767519 
L 60.08 310.237161 
L 61.32 306.418093 
L 62.56 304.105412 
L 63.8 296.553451 
L 65.04 278.095747 
L 66.28 281.209195 
L 67.52 283.725526 
L 68.76 297.976868 
L 70 299.529603 
L 71.24 295.865715 
L 72.48 295.793445 
L 73.72 303.734683 
L 74.96 307.467424 
L 76.2 304.475306 
L 77.44 298.614633 
L 78.68 295.992201 
L 79.92 295.961697 
L 81.16 298.698895 
L 82.4 299.513471 
L 83.64 298.154966 
L 84.88 302.488047 
L 86.12 302.677895 
L 87.36 304.203697 
L 88.6 300.939136 
L 89.84 303.655358 
L 91.08 305.067963 
L 92.32 304.996096 
L 93.56 303.599635 
L 94.8 303.204167 
L 96.04 305.864698 
L 97.28 307.142801 
L 98.52 307.24556 
L 99.76 308.928374 
L 101 308.70153 
L 102.24 309.881672 
L 103.48 310.675569 
L 104.72 310.47047 
L 105.96 310.862901 
L 107.2 312.444539 
L 108.44 312.569946 
L 109.68 312.871546 
L 110.92 312.095981 
L 112.16 310.266702 
L 113.4 312.135492 
L 114.64 312.840504 
L 115.88 310.708014 
L 118.36 312.219984 
L 119.6 312.332266 
L 120.84 310.996146 
L 122.08 310.05827 
L 123.32 309.533493 
L 124.56 309.556678 
L 127.04 310.097386 
L 128.28 309.700158 
L 129.52 308.742871 
L 130.76 310.068111 
L 132 310.753407 
L 133.24 312.113626 
L 134.48 312.621066 
L 135.72 312.597361 
L 136.96 312.867671 
L 138.2 311.879593 
L 139.44 311.728801 
L 140.68 312.921827 
L 141.92 312.194103 
L 143.16 312.009541 
L 144.4 312.82097 
L 145.64 313.825108 
L 146.88 314.442736 
L 148.12 315.257786 
L 149.36 314.060901 
L 150.6 314.792531 
L 151.84 316.619874 
L 153.08 317.150184 
L 154.32 317.411014 
L 155.56 317.141271 
L 156.8 315.227473 
L 158.04 316.53371 
L 159.28 316.085943 
L 160.52 316.244914 
L 161.76 315.45511 
L 163 315.122128 
L 164.24 315.913864 
L 165.48 316.55367 
L 166.72 316.68311 
L 167.96 317.007023 
L 170.44 317.235136 
L 174.16 318.314966 
L 175.4 318.84062 
L 177.88 320.213239 
L 180.36 321.451867 
L 181.6 321.531208 
L 184.08 321.33823 
L 185.32 321.497686 
L 186.56 320.684141 
L 187.8 320.454471 
L 189.04 320.420354 
L 190.28 320.03827 
L 191.52 320.611221 
L 192.76 321.054723 
L 194 321.136361 
L 195.24 320.528747 
L 196.48 320.676056 
L 198.96 320.163863 
L 200.2 319.70265 
L 201.44 319.499526 
L 202.68 320.011441 
L 203.92 321.139648 
L 206.4 321.914238 
L 207.64 321.903632 
L 208.88 322.71321 
L 210.12 322.524541 
L 211.36 322.474671 
L 215.08 321.941586 
L 216.32 322.232575 
L 217.56 322.837274 
L 218.8 322.853965 
L 220.04 323.051651 
L 221.28 322.851306 
L 222.52 323.606422 
L 223.76 323.489532 
L 227.48 324.598254 
L 228.72 324.053725 
L 229.96 323.859879 
L 231.2 324.303662 
L 232.44 324.538361 
L 233.68 325.027808 
L 236.16 325.581916 
L 238.64 325.120913 
L 239.88 324.727986 
L 241.12 324.873367 
L 242.36 324.864945 
L 243.6 324.673906 
L 246.08 325.79775 
L 248.56 326.165972 
L 249.8 326.0132 
L 251.04 326.332447 
L 252.28 326.482057 
L 253.52 326.783621 
L 254.76 327.25837 
L 256 328.065253 
L 257.24 327.913425 
L 258.48 327.230487 
L 259.72 327.436187 
L 260.96 328.010676 
L 262.2 327.71767 
L 263.44 328.147378 
L 264.68 327.441314 
L 265.92 327.446341 
L 267.16 326.985529 
L 268.4 326.985337 
L 270.88 327.360744 
L 272.12 327.502993 
L 273.36 327.463643 
L 274.6 327.863571 
L 275.84 328.025427 
L 277.08 328.664848 
L 278.32 328.967523 
L 279.56 328.618603 
L 280.8 328.647532 
L 282.04 329.147898 
L 283.28 328.557264 
L 284.52 328.2682 
L 285.76 328.75444 
L 288.24 328.470176 
L 289.48 327.888608 
L 293.2 328.425508 
L 294.44 328.633835 
L 295.68 328.376017 
L 296.92 327.820886 
L 298.16 327.678094 
L 299.4 327.723174 
L 300.64 327.392097 
L 301.88 327.530775 
L 303.12 327.36426 
L 304.36 326.795838 
L 306.84 326.599232 
L 308.08 326.458694 
L 309.32 326.520462 
L 311.8 326.466459 
L 313.04 326.113257 
L 314.28 326.35012 
L 315.52 325.955587 
L 318 325.874429 
L 319.24 325.560846 
L 320.48 325.467971 
L 321.72 325.119598 
L 325.44 324.63024 
L 326.68 324.097081 
L 329.16 323.467451 
L 330.4 323.346376 
L 331.64 323.388603 
L 332.88 323.232656 
L 335.36 322.480268 
L 336.6 321.859124 
L 339.08 321.026226 
L 340.32 320.812643 
L 342.8 319.783784 
L 345.28 319.358659 
L 347.76 318.37548 
L 349 318.205836 
L 350.24 317.757861 
L 351.48 317.463429 
L 352.72 316.794612 
L 353.96 316.858803 
L 357.68 315.420531 
L 358.92 315.061768 
L 361.4 314.159804 
L 366.36 312.690678 
L 367.6 312.580042 
L 368.84 312.068019 
L 371.32 311.341303 
L 372.56 311.262305 
L 373.8 310.954647 
L 376.28 310.813409 
L 380 310.105335 
L 381.24 310.329521 
L 383.72 310.188221 
L 388.68 310.056539 
L 391.16 309.521416 
L 392.4 310.288746 
L 393.64 309.71298 
L 394.88 309.489322 
L 414.72 309.438439 
L 414.72 309.438439 
" clip-path="url(#p8945904617)" style="fill: none; stroke: #000000; stroke-width: 1.5; stroke-linecap: square"/>
   </g>
   <g id="line2d_14">
    <path d="M 57.6 309.438439 
L 58.84 292.06057 
L 60.08 291.590016 
L 62.56 313.337421 
L 63.8 328.435591 
L 65.04 320.370177 
L 66.28 324.267702 
L 67.52 328.841088 
L 68.76 327.280599 
L 70 329.870892 
L 71.24 332.16411 
L 72.48 335.250974 
L 73.72 339.927558 
L 74.96 340.968807 
L 76.646138 346.6 
M 139.377925 346.6 
L 139.44 346.576336 
L 140.68 346.288777 
L 141.558074 346.6 
M 163.789416 346.6 
L 164.24 346.205735 
L 165.48 346.146901 
L 166.72 345.914547 
L 167.96 346.088044 
L 169.2 346.104692 
L 170.44 345.261102 
L 171.68 344.214006 
L 172.92 343.47908 
L 174.16 342.959911 
L 175.4 342.662384 
L 176.64 342.531843 
L 177.88 342.080218 
L 180.36 340.265841 
L 181.6 340.310004 
L 182.84 339.662022 
L 184.08 339.52828 
L 185.32 339.023441 
L 186.56 338.269079 
L 187.8 337.73679 
L 189.04 337.535085 
L 190.28 337.194361 
L 191.52 336.402245 
L 192.76 335.844774 
L 194 335.627674 
L 195.24 334.961748 
L 196.48 334.892084 
L 197.72 335.243333 
L 198.96 335.071639 
L 203.92 333.127295 
L 206.4 331.374149 
L 207.64 331.36548 
L 208.88 331.011457 
L 210.12 330.257826 
L 211.36 330.013476 
L 212.6 330.083576 
L 215.08 329.651132 
L 216.32 329.274003 
L 217.56 329.719738 
L 220.04 329.835208 
L 221.28 329.757102 
L 223.76 330.301914 
L 227.48 330.016837 
L 228.72 329.700119 
L 229.96 330.16964 
L 231.2 329.9579 
L 233.68 330.306124 
L 234.92 330.246876 
L 236.16 330.059137 
L 238.64 330.028194 
L 239.88 329.830027 
L 241.12 329.746991 
L 242.36 329.303942 
L 243.6 329.18995 
L 244.84 328.840311 
L 247.32 328.815092 
L 248.56 329.01783 
L 249.8 329.374285 
L 251.04 329.019362 
L 252.28 328.922206 
L 254.76 328.579189 
L 256 328.670822 
L 257.24 328.549075 
L 258.48 328.649995 
L 259.72 328.371807 
L 260.96 328.219474 
L 262.2 328.597332 
L 263.44 328.558365 
L 265.92 328.764025 
L 267.16 328.484637 
L 268.4 328.48441 
L 270.88 329.009548 
L 272.12 329.030547 
L 274.6 328.64143 
L 275.84 328.462298 
L 277.08 328.404869 
L 279.56 327.820245 
L 283.28 327.712662 
L 285.76 326.702546 
L 293.2 325.24756 
L 296.92 324.502971 
L 298.16 324.065284 
L 300.64 323.863138 
L 301.88 323.602213 
L 303.12 323.189908 
L 310.56 321.922661 
L 313.04 321.208383 
L 315.52 320.357933 
L 316.76 320.354823 
L 318 320.058214 
L 319.24 319.947121 
L 321.72 318.947619 
L 322.96 318.57464 
L 324.2 318.353301 
L 325.44 317.986748 
L 326.68 317.466453 
L 327.92 317.163464 
L 330.4 316.941935 
L 331.64 316.499159 
L 332.88 316.249005 
L 334.12 316.230746 
L 335.36 316.067939 
L 336.6 315.761017 
L 339.08 315.384343 
L 341.56 314.578983 
L 342.8 314.103404 
L 345.28 313.44416 
L 347.76 312.691754 
L 353.96 311.572966 
L 361.4 310.519146 
L 365.12 310.223273 
L 367.6 310.15246 
L 368.84 310.049738 
L 370.08 310.066057 
L 372.56 309.862195 
L 375.04 309.855667 
L 376.28 309.657563 
L 377.52 309.654608 
L 380 309.512976 
L 382.48 309.392126 
L 414.72 309.438439 
L 414.72 309.438439 
" clip-path="url(#p8945904617)" style="fill: none; stroke-dasharray: 5.55,2.4; stroke-dashoffset: 0; stroke: #ffa500; stroke-width: 1.5"/>
   </g>
   <g id="line2d_15">
    <path d="M 57.6 309.438439 
L 58.84 312.927984 
L 60.08 285.424718 
L 61.32 249.965927 
L 62.56 221.898124 
L 63.8 196.87567 
L 66.28 181.770711 
L 67.52 165.427469 
L 68.76 158.354755 
L 70 152.213811 
L 71.24 152.364892 
L 72.48 151.514687 
L 73.72 150.17854 
L 74.96 150.137214 
L 76.2 150.397869 
L 77.44 146.623614 
L 78.68 147.83456 
L 79.92 149.285297 
L 81.16 151.87474 
L 82.4 150.670964 
L 83.64 152.433132 
L 84.88 150.978251 
L 86.12 150.699567 
L 87.36 150.776668 
L 88.6 149.923842 
L 89.84 150.675382 
L 91.08 150.102662 
L 92.32 150.147432 
L 93.56 151.082813 
L 94.8 151.63657 
L 96.04 152.733126 
L 97.28 154.111494 
L 98.52 155.721785 
L 99.76 156.835507 
L 101 156.742686 
L 102.24 157.029917 
L 103.48 156.967973 
L 104.72 158.362669 
L 105.96 158.910003 
L 107.2 160.687666 
L 108.44 161.749488 
L 109.68 161.344216 
L 110.92 161.313495 
L 112.16 162.25377 
L 113.4 162.815857 
L 114.64 161.362666 
L 115.88 161.760261 
L 117.12 162.47811 
L 118.36 161.76252 
L 119.6 161.558686 
L 120.84 160.68935 
L 122.08 161.887795 
L 124.56 162.082691 
L 125.8 161.881388 
L 127.04 161.864986 
L 128.28 162.041903 
L 129.52 162.862728 
L 132 162.992293 
L 133.24 162.797938 
L 134.48 163.847941 
L 135.72 164.348721 
L 140.68 166.760348 
L 141.92 167.652807 
L 145.64 168.871995 
L 148.12 170.137485 
L 149.36 171.673795 
L 150.6 171.738808 
L 151.84 172.302488 
L 153.08 173.395887 
L 154.32 173.940153 
L 156.8 175.569777 
L 158.04 176.778053 
L 159.28 177.818563 
L 160.52 178.680484 
L 163 179.291174 
L 164.24 179.860728 
L 166.72 181.573543 
L 167.96 182.095938 
L 169.2 182.156043 
L 170.44 182.646756 
L 171.68 182.988226 
L 174.16 184.070518 
L 175.4 184.254943 
L 179.12 185.522791 
L 180.36 185.62745 
L 181.6 186.622311 
L 182.84 187.446572 
L 184.08 188.111376 
L 185.32 188.621328 
L 186.56 189.508662 
L 187.8 190.079465 
L 190.28 190.329196 
L 191.52 190.847692 
L 192.76 191.800067 
L 194 192.163104 
L 195.24 193.35176 
L 196.48 193.720882 
L 198.96 195.831936 
L 200.2 197.057196 
L 201.44 198.013427 
L 203.92 199.407773 
L 205.16 200.462404 
L 207.64 203.095095 
L 210.12 204.809297 
L 211.36 205.651133 
L 212.6 206.068946 
L 213.84 206.116566 
L 215.08 207.189077 
L 216.32 207.638232 
L 217.56 208.4383 
L 218.8 209.448157 
L 220.04 210.069234 
L 221.28 210.339101 
L 222.52 211.59546 
L 223.76 212.149598 
L 225 212.419872 
L 231.2 216.266272 
L 232.44 216.765706 
L 233.68 217.701127 
L 234.92 218.902607 
L 238.64 220.284444 
L 239.88 221.475307 
L 241.12 223.001427 
L 243.6 224.132233 
L 244.84 225.079202 
L 246.08 225.558062 
L 247.32 226.59195 
L 248.56 227.418557 
L 249.8 227.678122 
L 251.04 228.37783 
L 253.52 229.170643 
L 254.76 230.242992 
L 256 231.022998 
L 257.24 231.465843 
L 258.48 232.179742 
L 259.72 233.229684 
L 260.96 233.834952 
L 262.2 234.200473 
L 263.44 234.83966 
L 265.92 236.74308 
L 267.16 237.723498 
L 268.4 237.961475 
L 269.64 238.428384 
L 270.88 239.57261 
L 272.12 240.564247 
L 273.36 241.258801 
L 275.84 242.956139 
L 277.08 244.065435 
L 278.32 244.711337 
L 280.8 246.360828 
L 282.04 246.660986 
L 284.52 248.364809 
L 288.24 250.02605 
L 289.48 250.386248 
L 290.72 251.201477 
L 293.2 252.257755 
L 294.44 253.219414 
L 296.92 254.930408 
L 298.16 255.776841 
L 304.36 259.036134 
L 305.6 259.858535 
L 309.32 261.617594 
L 313.04 262.781731 
L 316.76 264.881828 
L 319.24 265.915165 
L 320.48 266.601997 
L 321.72 267.486872 
L 322.96 268.01172 
L 324.2 268.115801 
L 325.44 269.022417 
L 326.68 269.732308 
L 327.92 270.085672 
L 329.16 270.874459 
L 332.88 272.41917 
L 334.12 273.187123 
L 335.36 274.250875 
L 337.84 275.372508 
L 339.08 276.14286 
L 340.32 276.722994 
L 342.8 278.261649 
L 344.04 278.771766 
L 345.28 279.530276 
L 347.76 280.537772 
L 350.24 281.445745 
L 351.48 281.89905 
L 352.72 282.630331 
L 353.96 283.061457 
L 355.2 283.936025 
L 358.92 285.966784 
L 360.16 286.325889 
L 362.64 287.723324 
L 363.88 288.459844 
L 367.6 290.34877 
L 371.32 292.219985 
L 372.56 293.007079 
L 375.04 294.129772 
L 378.76 296.034756 
L 380 296.478833 
L 381.24 297.294094 
L 382.48 297.818351 
L 383.72 298.483908 
L 389.92 301.247439 
L 391.16 301.948074 
L 392.4 302.440392 
L 397.36 305.300471 
L 398.6 305.757679 
L 399.84 306.468191 
L 404.8 308.362325 
L 406.04 308.748593 
L 408.52 309.189681 
L 409.76 309.381117 
L 412.24 309.438439 
L 414.72 309.438439 
L 414.72 309.438439 
" clip-path="url(#p8945904617)" style="fill: none; stroke-dasharray: 1.5,2.475; stroke-dashoffset: 0; stroke: #bf00bf; stroke-width: 1.5"/>
   </g>
   <g id="patch_3">
    <path d="M 57.6 307.584 
L 57.6 41.472 
" style="fill: none; stroke: #000000; stroke-width: 0.8; stroke-linejoin: miter; stroke-linecap: square"/>
   </g>
   <g id="patch_4">
    <path d="M 414.72 307.584 
L 414.72 41.472 
" style="fill: none; stroke: #000000; stroke-width: 0.8; stroke-linejoin: miter; stroke-linecap: square"/>
   </g>
   <g id="patch_5">
    <path d="M 57.6 307.584 
L 414.72 307.584 
" style="fill: none; stroke: #000000; stroke-width: 0.8; stroke-linejoin: miter; stroke-linecap: square"/>
   </g>
   <g id="patch_6">
    <path d="M 57.6 41.472 
L 414.72 41.472 
" style="fill: none; stroke: #000000; stroke-width: 0.8; stroke-linejoin: miter; stroke-linecap: square"/>
   </g>
   <g id="text_15">
    <!-- Assortativity for various thresholding methods -->
    <g transform="translate(96.829688 35.472) scale(0.12 -0.12)">
     <defs>
      <path id="DejaVuSans-68" d="M 3513 2113 
L 3513 0 
L 2938 0 
L 2938 2094 
Q 2938 2591 2744 2837 
Q 2550 3084 2163 3084 
Q 1697 3084 1428 2787 
Q 1159 2491 1159 1978 
L 1159 0 
L 581 0 
L 581 4863 
L 1159 4863 
L 1159 2956 
Q 1366 3272 1645 3428 
Q 1925 3584 2291 3584 
Q 2894 3584 3203 3211 
Q 3513 2838 3513 2113 
z
" transform="scale(0.015625)"/>
      <path id="DejaVuSans-6e" d="M 3513 2113 
L 3513 0 
L 2938 0 
L 2938 2094 
Q 2938 2591 2744 2837 
Q 2550 3084 2163 3084 
Q 1697 3084 1428 2787 
Q 1159 2491 1159 1978 
L 1159 0 
L 581 0 
L 581 3500 
L 1159 3500 
L 1159 2956 
Q 1366 3272 1645 3428 
Q 1925 3584 2291 3584 
Q 2894 3584 3203 3211 
Q 3513 2838 3513 2113 
z
" transform="scale(0.015625)"/>
     </defs>
     <use xlink:href="#DejaVuSans-41"/>
     <use xlink:href="#DejaVuSans-73" x="68.408203"/>
     <use xlink:href="#DejaVuSans-73" x="120.507812"/>
     <use xlink:href="#DejaVuSans-6f" x="172.607422"/>
     <use xlink:href="#DejaVuSans-72" x="233.789062"/>
     <use xlink:href="#DejaVuSans-74" x="274.902344"/>
     <use xlink:href="#DejaVuSans-61" x="314.111328"/>
     <use xlink:href="#DejaVuSans-74" x="375.390625"/>
     <use xlink:href="#DejaVuSans-69" x="414.599609"/>
     <use xlink:href="#DejaVuSans-76" x="442.382812"/>
     <use xlink:href="#DejaVuSans-69" x="501.5625"/>
     <use xlink:href="#DejaVuSans-74" x="529.345703"/>
     <use xlink:href="#DejaVuSans-79" x="568.554688"/>
     <use xlink:href="#DejaVuSans-20" x="627.734375"/>
     <use xlink:href="#DejaVuSans-66" x="659.521484"/>
     <use xlink:href="#DejaVuSans-6f" x="694.726562"/>
     <use xlink:href="#DejaVuSans-72" x="755.908203"/>
     <use xlink:href="#DejaVuSans-20" x="797.021484"/>
     <use xlink:href="#DejaVuSans-76" x="828.808594"/>
     <use xlink:href="#DejaVuSans-61" x="887.988281"/>
     <use xlink:href="#DejaVuSans-72" x="949.267578"/>
     <use xlink:href="#DejaVuSans-69" x="990.380859"/>
     <use xlink:href="#DejaVuSans-6f" x="1018.164062"/>
     <use xlink:href="#DejaVuSans-75" x="1079.345703"/>
     <use xlink:href="#DejaVuSans-73" x="1142.724609"/>
     <use xlink:href="#DejaVuSans-20" x="1194.824219"/>
     <use xlink:href="#DejaVuSans-74" x="1226.611328"/>
     <use xlink:href="#DejaVuSans-68" x="1265.820312"/>
     <use xlink:href="#DejaVuSans-72" x="1329.199219"/>
     <use xlink:href="#DejaVuSans-65" x="1368.0625"/>
     <use xlink:href="#DejaVuSans-73" x="1429.585938"/>
     <use xlink:href="#DejaVuSans-68" x="1481.685547"/>
     <use xlink:href="#DejaVuSans-6f" x="1545.064453"/>
     <use xlink:href="#DejaVuSans-6c" x="1606.246094"/>
     <use xlink:href="#DejaVuSans-64" x="1634.029297"/>
     <use xlink:href="#DejaVuSans-69" x="1697.505859"/>
     <use xlink:href="#DejaVuSans-6e" x="1725.289062"/>
     <use xlink:href="#DejaVuSans-67" x="1788.667969"/>
     <use xlink:href="#DejaVuSans-20" x="1852.144531"/>
     <use xlink:href="#DejaVuSans-6d" x="1883.931641"/>
     <use xlink:href="#DejaVuSans-65" x="1981.34375"/>
     <use xlink:href="#DejaVuSans-74" x="2042.867188"/>
     <use xlink:href="#DejaVuSans-68" x="2082.076172"/>
     <use xlink:href="#DejaVuSans-6f" x="2145.455078"/>
     <use xlink:href="#DejaVuSans-64" x="2206.636719"/>
     <use xlink:href="#DejaVuSans-73" x="2270.113281"/>
    </g>
   </g>
   <g id="legend_1">
    <g id="patch_7">
     <path d="M 263.0325 93.506375 
L 407.72 93.506375 
Q 409.72 93.506375 409.72 91.506375 
L 409.72 48.472 
Q 409.72 46.472 407.72 46.472 
L 263.0325 46.472 
Q 261.0325 46.472 261.0325 48.472 
L 261.0325 91.506375 
Q 261.0325 93.506375 263.0325 93.506375 
z
" style="fill: #ffffff; opacity: 0.8; stroke: #cccccc; stroke-linejoin: miter"/>
    </g>
    <g id="line2d_16">
     <path d="M 265.0325 54.570438 
L 275.0325 54.570438 
L 285.0325 54.570438 
" style="fill: none; stroke: #000000; stroke-width: 1.5; stroke-linecap: square"/>
    </g>
    <g id="text_16">
     <!-- All -->
     <g transform="translate(293.0325 58.070438) scale(0.1 -0.1)">
      <use xlink:href="#DejaVuSans-41"/>
      <use xlink:href="#DejaVuSans-6c" x="68.408203"/>
      <use xlink:href="#DejaVuSans-6c" x="96.191406"/>
     </g>
    </g>
    <g id="line2d_17">
     <path d="M 265.0325 69.248563 
L 275.0325 69.248563 
L 285.0325 69.248563 
" style="fill: none; stroke-dasharray: 5.55,2.4; stroke-dashoffset: 0; stroke: #ffa500; stroke-width: 1.5"/>
    </g>
    <g id="text_17">
     <!-- Per Row -->
     <g transform="translate(293.0325 72.748563) scale(0.1 -0.1)">
      <defs>
       <path id="DejaVuSans-50" d="M 1259 4147 
L 1259 2394 
L 2053 2394 
Q 2494 2394 2734 2622 
Q 2975 2850 2975 3272 
Q 2975 3691 2734 3919 
Q 2494 4147 2053 4147 
L 1259 4147 
z
M 628 4666 
L 2053 4666 
Q 2838 4666 3239 4311 
Q 3641 3956 3641 3272 
Q 3641 2581 3239 2228 
Q 2838 1875 2053 1875 
L 1259 1875 
L 1259 0 
L 628 0 
L 628 4666 
z
" transform="scale(0.015625)"/>
       <path id="DejaVuSans-52" d="M 2841 2188 
Q 3044 2119 3236 1894 
Q 3428 1669 3622 1275 
L 4263 0 
L 3584 0 
L 2988 1197 
Q 2756 1666 2539 1819 
Q 2322 1972 1947 1972 
L 1259 1972 
L 1259 0 
L 628 0 
L 628 4666 
L 2053 4666 
Q 2853 4666 3247 4331 
Q 3641 3997 3641 3322 
Q 3641 2881 3436 2590 
Q 3231 2300 2841 2188 
z
M 1259 4147 
L 1259 2491 
L 2053 2491 
Q 2509 2491 2742 2702 
Q 2975 2913 2975 3322 
Q 2975 3731 2742 3939 
Q 2509 4147 2053 4147 
L 1259 4147 
z
" transform="scale(0.015625)"/>
       <path id="DejaVuSans-77" d="M 269 3500 
L 844 3500 
L 1563 769 
L 2278 3500 
L 2956 3500 
L 3675 769 
L 4391 3500 
L 4966 3500 
L 4050 0 
L 3372 0 
L 2619 2869 
L 1863 0 
L 1184 0 
L 269 3500 
z
" transform="scale(0.015625)"/>
      </defs>
      <use xlink:href="#DejaVuSans-50"/>
      <use xlink:href="#DejaVuSans-65" x="56.677734"/>
      <use xlink:href="#DejaVuSans-72" x="118.201172"/>
      <use xlink:href="#DejaVuSans-20" x="159.314453"/>
      <use xlink:href="#DejaVuSans-52" x="191.101562"/>
      <use xlink:href="#DejaVuSans-6f" x="256.083984"/>
      <use xlink:href="#DejaVuSans-77" x="317.265625"/>
     </g>
    </g>
    <g id="line2d_18">
     <path d="M 265.0325 83.926688 
L 275.0325 83.926688 
L 285.0325 83.926688 
" style="fill: none; stroke-dasharray: 1.5,2.475; stroke-dashoffset: 0; stroke: #bf00bf; stroke-width: 1.5"/>
    </g>
    <g id="text_18">
     <!-- Per Row, Col-Weighted -->
     <g transform="translate(293.0325 87.426688) scale(0.1 -0.1)">
      <defs>
       <path id="DejaVuSans-2c" d="M 750 794 
L 1409 794 
L 1409 256 
L 897 -744 
L 494 -744 
L 750 256 
L 750 794 
z
" transform="scale(0.015625)"/>
       <path id="DejaVuSans-43" d="M 4122 4306 
L 4122 3641 
Q 3803 3938 3442 4084 
Q 3081 4231 2675 4231 
Q 1875 4231 1450 3742 
Q 1025 3253 1025 2328 
Q 1025 1406 1450 917 
Q 1875 428 2675 428 
Q 3081 428 3442 575 
Q 3803 722 4122 1019 
L 4122 359 
Q 3791 134 3420 21 
Q 3050 -91 2638 -91 
Q 1578 -91 968 557 
Q 359 1206 359 2328 
Q 359 3453 968 4101 
Q 1578 4750 2638 4750 
Q 3056 4750 3426 4639 
Q 3797 4528 4122 4306 
z
" transform="scale(0.015625)"/>
       <path id="DejaVuSans-2d" d="M 313 2009 
L 1997 2009 
L 1997 1497 
L 313 1497 
L 313 2009 
z
" transform="scale(0.015625)"/>
       <path id="DejaVuSans-57" d="M 213 4666 
L 850 4666 
L 1831 722 
L 2809 4666 
L 3519 4666 
L 4500 722 
L 5478 4666 
L 6119 4666 
L 4947 0 
L 4153 0 
L 3169 4050 
L 2175 0 
L 1381 0 
L 213 4666 
z
" transform="scale(0.015625)"/>
      </defs>
      <use xlink:href="#DejaVuSans-50"/>
      <use xlink:href="#DejaVuSans-65" x="56.677734"/>
      <use xlink:href="#DejaVuSans-72" x="118.201172"/>
      <use xlink:href="#DejaVuSans-20" x="159.314453"/>
      <use xlink:href="#DejaVuSans-52" x="191.101562"/>
      <use xlink:href="#DejaVuSans-6f" x="256.083984"/>
      <use xlink:href="#DejaVuSans-77" x="317.265625"/>
      <use xlink:href="#DejaVuSans-2c" x="399.052734"/>
      <use xlink:href="#DejaVuSans-20" x="430.839844"/>
      <use xlink:href="#DejaVuSans-43" x="462.626953"/>
      <use xlink:href="#DejaVuSans-6f" x="532.451172"/>
      <use xlink:href="#DejaVuSans-6c" x="593.632812"/>
      <use xlink:href="#DejaVuSans-2d" x="621.416016"/>
      <use xlink:href="#DejaVuSans-57" x="653.5"/>
      <use xlink:href="#DejaVuSans-65" x="746.501953"/>
      <use xlink:href="#DejaVuSans-69" x="808.025391"/>
      <use xlink:href="#DejaVuSans-67" x="835.808594"/>
      <use xlink:href="#DejaVuSans-68" x="899.285156"/>
      <use xlink:href="#DejaVuSans-74" x="962.664062"/>
      <use xlink:href="#DejaVuSans-65" x="1001.873047"/>
      <use xlink:href="#DejaVuSans-64" x="1063.396484"/>
     </g>
    </g>
   </g>
  </g>
 </g>
 <defs>
  <clipPath id="p8945904617">
   <rect x="57.6" y="41.472" width="357.12" height="266.112"/>
  </clipPath>
 </defs>
</svg>
