<?xml version="1.0" encoding="utf-8" standalone="no"?>
<!DOCTYPE svg PUBLIC "-//W3C//DTD SVG 1.1//EN"
  "http://www.w3.org/Graphics/SVG/1.1/DTD/svg11.dtd">
<svg xmlns:xlink="http://www.w3.org/1999/xlink" width="460.8pt" height="345.6pt" viewBox="0 0 460.8 345.6" xmlns="http://www.w3.org/2000/svg" version="1.1">
 <metadata>
  <rdf:RDF xmlns:dc="http://purl.org/dc/elements/1.1/" xmlns:cc="http://creativecommons.org/ns#" xmlns:rdf="http://www.w3.org/1999/02/22-rdf-syntax-ns#">
   <cc:Work>
    <dc:type rdf:resource="http://purl.org/dc/dcmitype/StillImage"/>
    <dc:date>2023-10-14T15:19:01.368737</dc:date>
    <dc:format>image/svg+xml</dc:format>
    <dc:creator>
     <cc:Agent>
      <dc:title>Matplotlib v3.7.2, https://matplotlib.org/</dc:title>
     </cc:Agent>
    </dc:creator>
   </cc:Work>
  </rdf:RDF>
 </metadata>
 <defs>
  <style type="text/css">*{stroke-linejoin: round; stroke-linecap: butt}</style>
 </defs>
 <g id="figure_1">
  <g id="patch_1">
   <path d="M 0 345.6 
L 460.8 345.6 
L 460.8 0 
L 0 0 
z
" style="fill: #ffffff"/>
  </g>
  <g id="axes_1">
   <g id="patch_2">
    <path d="M 57.6 307.584 
L 414.72 307.584 
L 414.72 41.472 
L 57.6 41.472 
z
" style="fill: #ffffff"/>
   </g>
   <g id="matplotlib.axis_1">
    <g id="xtick_1">
     <g id="line2d_1">
      <defs>
       <path id="m11b29ef3dd" d="M 0 0 
L 0 3.5 
" style="stroke: #000000; stroke-width: 0.8"/>
      </defs>
      <g>
       <use xlink:href="#m11b29ef3dd" x="57.6" y="307.584" style="stroke: #000000; stroke-width: 0.8"/>
      </g>
     </g>
     <g id="text_1">
      <!-- 0 -->
      <g transform="translate(54.41875 322.182437) scale(0.1 -0.1)">
       <defs>
        <path id="DejaVuSans-30" d="M 2034 4250 
Q 1547 4250 1301 3770 
Q 1056 3291 1056 2328 
Q 1056 1369 1301 889 
Q 1547 409 2034 409 
Q 2525 409 2770 889 
Q 3016 1369 3016 2328 
Q 3016 3291 2770 3770 
Q 2525 4250 2034 4250 
z
M 2034 4750 
Q 2819 4750 3233 4129 
Q 3647 3509 3647 2328 
Q 3647 1150 3233 529 
Q 2819 -91 2034 -91 
Q 1250 -91 836 529 
Q 422 1150 422 2328 
Q 422 3509 836 4129 
Q 1250 4750 2034 4750 
z
" transform="scale(0.015625)"/>
       </defs>
       <use xlink:href="#DejaVuSans-30"/>
      </g>
     </g>
    </g>
    <g id="xtick_2">
     <g id="line2d_2">
      <g>
       <use xlink:href="#m11b29ef3dd" x="119.6" y="307.584" style="stroke: #000000; stroke-width: 0.8"/>
      </g>
     </g>
     <g id="text_2">
      <!-- 50 -->
      <g transform="translate(113.2375 322.182437) scale(0.1 -0.1)">
       <defs>
        <path id="DejaVuSans-35" d="M 691 4666 
L 3169 4666 
L 3169 4134 
L 1269 4134 
L 1269 2991 
Q 1406 3038 1543 3061 
Q 1681 3084 1819 3084 
Q 2600 3084 3056 2656 
Q 3513 2228 3513 1497 
Q 3513 744 3044 326 
Q 2575 -91 1722 -91 
Q 1428 -91 1123 -41 
Q 819 9 494 109 
L 494 744 
Q 775 591 1075 516 
Q 1375 441 1709 441 
Q 2250 441 2565 725 
Q 2881 1009 2881 1497 
Q 2881 1984 2565 2268 
Q 2250 2553 1709 2553 
Q 1456 2553 1204 2497 
Q 953 2441 691 2322 
L 691 4666 
z
" transform="scale(0.015625)"/>
       </defs>
       <use xlink:href="#DejaVuSans-35"/>
       <use xlink:href="#DejaVuSans-30" x="63.623047"/>
      </g>
     </g>
    </g>
    <g id="xtick_3">
     <g id="line2d_3">
      <g>
       <use xlink:href="#m11b29ef3dd" x="181.6" y="307.584" style="stroke: #000000; stroke-width: 0.8"/>
      </g>
     </g>
     <g id="text_3">
      <!-- 100 -->
      <g transform="translate(172.05625 322.182437) scale(0.1 -0.1)">
       <defs>
        <path id="DejaVuSans-31" d="M 794 531 
L 1825 531 
L 1825 4091 
L 703 3866 
L 703 4441 
L 1819 4666 
L 2450 4666 
L 2450 531 
L 3481 531 
L 3481 0 
L 794 0 
L 794 531 
z
" transform="scale(0.015625)"/>
       </defs>
       <use xlink:href="#DejaVuSans-31"/>
       <use xlink:href="#DejaVuSans-30" x="63.623047"/>
       <use xlink:href="#DejaVuSans-30" x="127.246094"/>
      </g>
     </g>
    </g>
    <g id="xtick_4">
     <g id="line2d_4">
      <g>
       <use xlink:href="#m11b29ef3dd" x="243.6" y="307.584" style="stroke: #000000; stroke-width: 0.8"/>
      </g>
     </g>
     <g id="text_4">
      <!-- 150 -->
      <g transform="translate(234.05625 322.182437) scale(0.1 -0.1)">
       <use xlink:href="#DejaVuSans-31"/>
       <use xlink:href="#DejaVuSans-35" x="63.623047"/>
       <use xlink:href="#DejaVuSans-30" x="127.246094"/>
      </g>
     </g>
    </g>
    <g id="xtick_5">
     <g id="line2d_5">
      <g>
       <use xlink:href="#m11b29ef3dd" x="305.6" y="307.584" style="stroke: #000000; stroke-width: 0.8"/>
      </g>
     </g>
     <g id="text_5">
      <!-- 200 -->
      <g transform="translate(296.05625 322.182437) scale(0.1 -0.1)">
       <defs>
        <path id="DejaVuSans-32" d="M 1228 531 
L 3431 531 
L 3431 0 
L 469 0 
L 469 531 
Q 828 903 1448 1529 
Q 2069 2156 2228 2338 
Q 2531 2678 2651 2914 
Q 2772 3150 2772 3378 
Q 2772 3750 2511 3984 
Q 2250 4219 1831 4219 
Q 1534 4219 1204 4116 
Q 875 4013 500 3803 
L 500 4441 
Q 881 4594 1212 4672 
Q 1544 4750 1819 4750 
Q 2544 4750 2975 4387 
Q 3406 4025 3406 3419 
Q 3406 3131 3298 2873 
Q 3191 2616 2906 2266 
Q 2828 2175 2409 1742 
Q 1991 1309 1228 531 
z
" transform="scale(0.015625)"/>
       </defs>
       <use xlink:href="#DejaVuSans-32"/>
       <use xlink:href="#DejaVuSans-30" x="63.623047"/>
       <use xlink:href="#DejaVuSans-30" x="127.246094"/>
      </g>
     </g>
    </g>
    <g id="xtick_6">
     <g id="line2d_6">
      <g>
       <use xlink:href="#m11b29ef3dd" x="367.6" y="307.584" style="stroke: #000000; stroke-width: 0.8"/>
      </g>
     </g>
     <g id="text_6">
      <!-- 250 -->
      <g transform="translate(358.05625 322.182437) scale(0.1 -0.1)">
       <use xlink:href="#DejaVuSans-32"/>
       <use xlink:href="#DejaVuSans-35" x="63.623047"/>
       <use xlink:href="#DejaVuSans-30" x="127.246094"/>
      </g>
     </g>
    </g>
    <g id="text_7">
     <!-- Number of edges per cell -->
     <g transform="translate(172.881875 335.860562) scale(0.1 -0.1)">
      <defs>
       <path id="DejaVuSans-4e" d="M 628 4666 
L 1478 4666 
L 3547 763 
L 3547 4666 
L 4159 4666 
L 4159 0 
L 3309 0 
L 1241 3903 
L 1241 0 
L 628 0 
L 628 4666 
z
" transform="scale(0.015625)"/>
       <path id="DejaVuSans-75" d="M 544 1381 
L 544 3500 
L 1119 3500 
L 1119 1403 
Q 1119 906 1312 657 
Q 1506 409 1894 409 
Q 2359 409 2629 706 
Q 2900 1003 2900 1516 
L 2900 3500 
L 3475 3500 
L 3475 0 
L 2900 0 
L 2900 538 
Q 2691 219 2414 64 
Q 2138 -91 1772 -91 
Q 1169 -91 856 284 
Q 544 659 544 1381 
z
M 1991 3584 
L 1991 3584 
z
" transform="scale(0.015625)"/>
       <path id="DejaVuSans-6d" d="M 3328 2828 
Q 3544 3216 3844 3400 
Q 4144 3584 4550 3584 
Q 5097 3584 5394 3201 
Q 5691 2819 5691 2113 
L 5691 0 
L 5113 0 
L 5113 2094 
Q 5113 2597 4934 2840 
Q 4756 3084 4391 3084 
Q 3944 3084 3684 2787 
Q 3425 2491 3425 1978 
L 3425 0 
L 2847 0 
L 2847 2094 
Q 2847 2600 2669 2842 
Q 2491 3084 2119 3084 
Q 1678 3084 1418 2786 
Q 1159 2488 1159 1978 
L 1159 0 
L 581 0 
L 581 3500 
L 1159 3500 
L 1159 2956 
Q 1356 3278 1631 3431 
Q 1906 3584 2284 3584 
Q 2666 3584 2933 3390 
Q 3200 3197 3328 2828 
z
" transform="scale(0.015625)"/>
       <path id="DejaVuSans-62" d="M 3116 1747 
Q 3116 2381 2855 2742 
Q 2594 3103 2138 3103 
Q 1681 3103 1420 2742 
Q 1159 2381 1159 1747 
Q 1159 1113 1420 752 
Q 1681 391 2138 391 
Q 2594 391 2855 752 
Q 3116 1113 3116 1747 
z
M 1159 2969 
Q 1341 3281 1617 3432 
Q 1894 3584 2278 3584 
Q 2916 3584 3314 3078 
Q 3713 2572 3713 1747 
Q 3713 922 3314 415 
Q 2916 -91 2278 -91 
Q 1894 -91 1617 61 
Q 1341 213 1159 525 
L 1159 0 
L 581 0 
L 581 4863 
L 1159 4863 
L 1159 2969 
z
" transform="scale(0.015625)"/>
       <path id="DejaVuSans-65" d="M 3597 1894 
L 3597 1613 
L 953 1613 
Q 991 1019 1311 708 
Q 1631 397 2203 397 
Q 2534 397 2845 478 
Q 3156 559 3463 722 
L 3463 178 
Q 3153 47 2828 -22 
Q 2503 -91 2169 -91 
Q 1331 -91 842 396 
Q 353 884 353 1716 
Q 353 2575 817 3079 
Q 1281 3584 2069 3584 
Q 2775 3584 3186 3129 
Q 3597 2675 3597 1894 
z
M 3022 2063 
Q 3016 2534 2758 2815 
Q 2500 3097 2075 3097 
Q 1594 3097 1305 2825 
Q 1016 2553 972 2059 
L 3022 2063 
z
" transform="scale(0.015625)"/>
       <path id="DejaVuSans-72" d="M 2631 2963 
Q 2534 3019 2420 3045 
Q 2306 3072 2169 3072 
Q 1681 3072 1420 2755 
Q 1159 2438 1159 1844 
L 1159 0 
L 581 0 
L 581 3500 
L 1159 3500 
L 1159 2956 
Q 1341 3275 1631 3429 
Q 1922 3584 2338 3584 
Q 2397 3584 2469 3576 
Q 2541 3569 2628 3553 
L 2631 2963 
z
" transform="scale(0.015625)"/>
       <path id="DejaVuSans-20" transform="scale(0.015625)"/>
       <path id="DejaVuSans-6f" d="M 1959 3097 
Q 1497 3097 1228 2736 
Q 959 2375 959 1747 
Q 959 1119 1226 758 
Q 1494 397 1959 397 
Q 2419 397 2687 759 
Q 2956 1122 2956 1747 
Q 2956 2369 2687 2733 
Q 2419 3097 1959 3097 
z
M 1959 3584 
Q 2709 3584 3137 3096 
Q 3566 2609 3566 1747 
Q 3566 888 3137 398 
Q 2709 -91 1959 -91 
Q 1206 -91 779 398 
Q 353 888 353 1747 
Q 353 2609 779 3096 
Q 1206 3584 1959 3584 
z
" transform="scale(0.015625)"/>
       <path id="DejaVuSans-66" d="M 2375 4863 
L 2375 4384 
L 1825 4384 
Q 1516 4384 1395 4259 
Q 1275 4134 1275 3809 
L 1275 3500 
L 2222 3500 
L 2222 3053 
L 1275 3053 
L 1275 0 
L 697 0 
L 697 3053 
L 147 3053 
L 147 3500 
L 697 3500 
L 697 3744 
Q 697 4328 969 4595 
Q 1241 4863 1831 4863 
L 2375 4863 
z
" transform="scale(0.015625)"/>
       <path id="DejaVuSans-64" d="M 2906 2969 
L 2906 4863 
L 3481 4863 
L 3481 0 
L 2906 0 
L 2906 525 
Q 2725 213 2448 61 
Q 2172 -91 1784 -91 
Q 1150 -91 751 415 
Q 353 922 353 1747 
Q 353 2572 751 3078 
Q 1150 3584 1784 3584 
Q 2172 3584 2448 3432 
Q 2725 3281 2906 2969 
z
M 947 1747 
Q 947 1113 1208 752 
Q 1469 391 1925 391 
Q 2381 391 2643 752 
Q 2906 1113 2906 1747 
Q 2906 2381 2643 2742 
Q 2381 3103 1925 3103 
Q 1469 3103 1208 2742 
Q 947 2381 947 1747 
z
" transform="scale(0.015625)"/>
       <path id="DejaVuSans-67" d="M 2906 1791 
Q 2906 2416 2648 2759 
Q 2391 3103 1925 3103 
Q 1463 3103 1205 2759 
Q 947 2416 947 1791 
Q 947 1169 1205 825 
Q 1463 481 1925 481 
Q 2391 481 2648 825 
Q 2906 1169 2906 1791 
z
M 3481 434 
Q 3481 -459 3084 -895 
Q 2688 -1331 1869 -1331 
Q 1566 -1331 1297 -1286 
Q 1028 -1241 775 -1147 
L 775 -588 
Q 1028 -725 1275 -790 
Q 1522 -856 1778 -856 
Q 2344 -856 2625 -561 
Q 2906 -266 2906 331 
L 2906 616 
Q 2728 306 2450 153 
Q 2172 0 1784 0 
Q 1141 0 747 490 
Q 353 981 353 1791 
Q 353 2603 747 3093 
Q 1141 3584 1784 3584 
Q 2172 3584 2450 3431 
Q 2728 3278 2906 2969 
L 2906 3500 
L 3481 3500 
L 3481 434 
z
" transform="scale(0.015625)"/>
       <path id="DejaVuSans-73" d="M 2834 3397 
L 2834 2853 
Q 2591 2978 2328 3040 
Q 2066 3103 1784 3103 
Q 1356 3103 1142 2972 
Q 928 2841 928 2578 
Q 928 2378 1081 2264 
Q 1234 2150 1697 2047 
L 1894 2003 
Q 2506 1872 2764 1633 
Q 3022 1394 3022 966 
Q 3022 478 2636 193 
Q 2250 -91 1575 -91 
Q 1294 -91 989 -36 
Q 684 19 347 128 
L 347 722 
Q 666 556 975 473 
Q 1284 391 1588 391 
Q 1994 391 2212 530 
Q 2431 669 2431 922 
Q 2431 1156 2273 1281 
Q 2116 1406 1581 1522 
L 1381 1569 
Q 847 1681 609 1914 
Q 372 2147 372 2553 
Q 372 3047 722 3315 
Q 1072 3584 1716 3584 
Q 2034 3584 2315 3537 
Q 2597 3491 2834 3397 
z
" transform="scale(0.015625)"/>
       <path id="DejaVuSans-70" d="M 1159 525 
L 1159 -1331 
L 581 -1331 
L 581 3500 
L 1159 3500 
L 1159 2969 
Q 1341 3281 1617 3432 
Q 1894 3584 2278 3584 
Q 2916 3584 3314 3078 
Q 3713 2572 3713 1747 
Q 3713 922 3314 415 
Q 2916 -91 2278 -91 
Q 1894 -91 1617 61 
Q 1341 213 1159 525 
z
M 3116 1747 
Q 3116 2381 2855 2742 
Q 2594 3103 2138 3103 
Q 1681 3103 1420 2742 
Q 1159 2381 1159 1747 
Q 1159 1113 1420 752 
Q 1681 391 2138 391 
Q 2594 391 2855 752 
Q 3116 1113 3116 1747 
z
" transform="scale(0.015625)"/>
       <path id="DejaVuSans-63" d="M 3122 3366 
L 3122 2828 
Q 2878 2963 2633 3030 
Q 2388 3097 2138 3097 
Q 1578 3097 1268 2742 
Q 959 2388 959 1747 
Q 959 1106 1268 751 
Q 1578 397 2138 397 
Q 2388 397 2633 464 
Q 2878 531 3122 666 
L 3122 134 
Q 2881 22 2623 -34 
Q 2366 -91 2075 -91 
Q 1284 -91 818 406 
Q 353 903 353 1747 
Q 353 2603 823 3093 
Q 1294 3584 2113 3584 
Q 2378 3584 2631 3529 
Q 2884 3475 3122 3366 
z
" transform="scale(0.015625)"/>
       <path id="DejaVuSans-6c" d="M 603 4863 
L 1178 4863 
L 1178 0 
L 603 0 
L 603 4863 
z
" transform="scale(0.015625)"/>
      </defs>
      <use xlink:href="#DejaVuSans-4e"/>
      <use xlink:href="#DejaVuSans-75" x="74.804688"/>
      <use xlink:href="#DejaVuSans-6d" x="138.183594"/>
      <use xlink:href="#DejaVuSans-62" x="235.595703"/>
      <use xlink:href="#DejaVuSans-65" x="299.072266"/>
      <use xlink:href="#DejaVuSans-72" x="360.595703"/>
      <use xlink:href="#DejaVuSans-20" x="401.708984"/>
      <use xlink:href="#DejaVuSans-6f" x="433.496094"/>
      <use xlink:href="#DejaVuSans-66" x="494.677734"/>
      <use xlink:href="#DejaVuSans-20" x="529.882812"/>
      <use xlink:href="#DejaVuSans-65" x="561.669922"/>
      <use xlink:href="#DejaVuSans-64" x="623.193359"/>
      <use xlink:href="#DejaVuSans-67" x="686.669922"/>
      <use xlink:href="#DejaVuSans-65" x="750.146484"/>
      <use xlink:href="#DejaVuSans-73" x="811.669922"/>
      <use xlink:href="#DejaVuSans-20" x="863.769531"/>
      <use xlink:href="#DejaVuSans-70" x="895.556641"/>
      <use xlink:href="#DejaVuSans-65" x="959.033203"/>
      <use xlink:href="#DejaVuSans-72" x="1020.556641"/>
      <use xlink:href="#DejaVuSans-20" x="1061.669922"/>
      <use xlink:href="#DejaVuSans-63" x="1093.457031"/>
      <use xlink:href="#DejaVuSans-65" x="1148.4375"/>
      <use xlink:href="#DejaVuSans-6c" x="1209.960938"/>
      <use xlink:href="#DejaVuSans-6c" x="1237.744141"/>
     </g>
    </g>
   </g>
   <g id="matplotlib.axis_2">
    <g id="ytick_1">
     <g id="line2d_7">
      <defs>
       <path id="m4079cd7598" d="M 0 0 
L -3.5 0 
" style="stroke: #000000; stroke-width: 0.8"/>
      </defs>
      <g>
       <use xlink:href="#m4079cd7598" x="57.6" y="307.584" style="stroke: #000000; stroke-width: 0.8"/>
      </g>
     </g>
     <g id="text_8">
      <!-- 0.0 -->
      <g transform="translate(34.696875 311.383219) scale(0.1 -0.1)">
       <defs>
        <path id="DejaVuSans-2e" d="M 684 794 
L 1344 794 
L 1344 0 
L 684 0 
L 684 794 
z
" transform="scale(0.015625)"/>
       </defs>
       <use xlink:href="#DejaVuSans-30"/>
       <use xlink:href="#DejaVuSans-2e" x="63.623047"/>
       <use xlink:href="#DejaVuSans-30" x="95.410156"/>
      </g>
     </g>
    </g>
    <g id="ytick_2">
     <g id="line2d_8">
      <g>
       <use xlink:href="#m4079cd7598" x="57.6" y="254.3616" style="stroke: #000000; stroke-width: 0.8"/>
      </g>
     </g>
     <g id="text_9">
      <!-- 0.1 -->
      <g transform="translate(34.696875 258.160819) scale(0.1 -0.1)">
       <use xlink:href="#DejaVuSans-30"/>
       <use xlink:href="#DejaVuSans-2e" x="63.623047"/>
       <use xlink:href="#DejaVuSans-31" x="95.410156"/>
      </g>
     </g>
    </g>
    <g id="ytick_3">
     <g id="line2d_9">
      <g>
       <use xlink:href="#m4079cd7598" x="57.6" y="201.1392" style="stroke: #000000; stroke-width: 0.8"/>
      </g>
     </g>
     <g id="text_10">
      <!-- 0.2 -->
      <g transform="translate(34.696875 204.938419) scale(0.1 -0.1)">
       <use xlink:href="#DejaVuSans-30"/>
       <use xlink:href="#DejaVuSans-2e" x="63.623047"/>
       <use xlink:href="#DejaVuSans-32" x="95.410156"/>
      </g>
     </g>
    </g>
    <g id="ytick_4">
     <g id="line2d_10">
      <g>
       <use xlink:href="#m4079cd7598" x="57.6" y="147.9168" style="stroke: #000000; stroke-width: 0.8"/>
      </g>
     </g>
     <g id="text_11">
      <!-- 0.3 -->
      <g transform="translate(34.696875 151.716019) scale(0.1 -0.1)">
       <defs>
        <path id="DejaVuSans-33" d="M 2597 2516 
Q 3050 2419 3304 2112 
Q 3559 1806 3559 1356 
Q 3559 666 3084 287 
Q 2609 -91 1734 -91 
Q 1441 -91 1130 -33 
Q 819 25 488 141 
L 488 750 
Q 750 597 1062 519 
Q 1375 441 1716 441 
Q 2309 441 2620 675 
Q 2931 909 2931 1356 
Q 2931 1769 2642 2001 
Q 2353 2234 1838 2234 
L 1294 2234 
L 1294 2753 
L 1863 2753 
Q 2328 2753 2575 2939 
Q 2822 3125 2822 3475 
Q 2822 3834 2567 4026 
Q 2313 4219 1838 4219 
Q 1578 4219 1281 4162 
Q 984 4106 628 3988 
L 628 4550 
Q 988 4650 1302 4700 
Q 1616 4750 1894 4750 
Q 2613 4750 3031 4423 
Q 3450 4097 3450 3541 
Q 3450 3153 3228 2886 
Q 3006 2619 2597 2516 
z
" transform="scale(0.015625)"/>
       </defs>
       <use xlink:href="#DejaVuSans-30"/>
       <use xlink:href="#DejaVuSans-2e" x="63.623047"/>
       <use xlink:href="#DejaVuSans-33" x="95.410156"/>
      </g>
     </g>
    </g>
    <g id="ytick_5">
     <g id="line2d_11">
      <g>
       <use xlink:href="#m4079cd7598" x="57.6" y="94.6944" style="stroke: #000000; stroke-width: 0.8"/>
      </g>
     </g>
     <g id="text_12">
      <!-- 0.4 -->
      <g transform="translate(34.696875 98.493619) scale(0.1 -0.1)">
       <defs>
        <path id="DejaVuSans-34" d="M 2419 4116 
L 825 1625 
L 2419 1625 
L 2419 4116 
z
M 2253 4666 
L 3047 4666 
L 3047 1625 
L 3713 1625 
L 3713 1100 
L 3047 1100 
L 3047 0 
L 2419 0 
L 2419 1100 
L 313 1100 
L 313 1709 
L 2253 4666 
z
" transform="scale(0.015625)"/>
       </defs>
       <use xlink:href="#DejaVuSans-30"/>
       <use xlink:href="#DejaVuSans-2e" x="63.623047"/>
       <use xlink:href="#DejaVuSans-34" x="95.410156"/>
      </g>
     </g>
    </g>
    <g id="ytick_6">
     <g id="line2d_12">
      <g>
       <use xlink:href="#m4079cd7598" x="57.6" y="41.472" style="stroke: #000000; stroke-width: 0.8"/>
      </g>
     </g>
     <g id="text_13">
      <!-- 0.5 -->
      <g transform="translate(34.696875 45.271219) scale(0.1 -0.1)">
       <use xlink:href="#DejaVuSans-30"/>
       <use xlink:href="#DejaVuSans-2e" x="63.623047"/>
       <use xlink:href="#DejaVuSans-35" x="95.410156"/>
      </g>
     </g>
    </g>
    <g id="text_14">
     <!-- Assortativity -->
     <g transform="translate(28.617187 205.913938) rotate(-90) scale(0.1 -0.1)">
      <defs>
       <path id="DejaVuSans-41" d="M 2188 4044 
L 1331 1722 
L 3047 1722 
L 2188 4044 
z
M 1831 4666 
L 2547 4666 
L 4325 0 
L 3669 0 
L 3244 1197 
L 1141 1197 
L 716 0 
L 50 0 
L 1831 4666 
z
" transform="scale(0.015625)"/>
       <path id="DejaVuSans-74" d="M 1172 4494 
L 1172 3500 
L 2356 3500 
L 2356 3053 
L 1172 3053 
L 1172 1153 
Q 1172 725 1289 603 
Q 1406 481 1766 481 
L 2356 481 
L 2356 0 
L 1766 0 
Q 1100 0 847 248 
Q 594 497 594 1153 
L 594 3053 
L 172 3053 
L 172 3500 
L 594 3500 
L 594 4494 
L 1172 4494 
z
" transform="scale(0.015625)"/>
       <path id="DejaVuSans-61" d="M 2194 1759 
Q 1497 1759 1228 1600 
Q 959 1441 959 1056 
Q 959 750 1161 570 
Q 1363 391 1709 391 
Q 2188 391 2477 730 
Q 2766 1069 2766 1631 
L 2766 1759 
L 2194 1759 
z
M 3341 1997 
L 3341 0 
L 2766 0 
L 2766 531 
Q 2569 213 2275 61 
Q 1981 -91 1556 -91 
Q 1019 -91 701 211 
Q 384 513 384 1019 
Q 384 1609 779 1909 
Q 1175 2209 1959 2209 
L 2766 2209 
L 2766 2266 
Q 2766 2663 2505 2880 
Q 2244 3097 1772 3097 
Q 1472 3097 1187 3025 
Q 903 2953 641 2809 
L 641 3341 
Q 956 3463 1253 3523 
Q 1550 3584 1831 3584 
Q 2591 3584 2966 3190 
Q 3341 2797 3341 1997 
z
" transform="scale(0.015625)"/>
       <path id="DejaVuSans-69" d="M 603 3500 
L 1178 3500 
L 1178 0 
L 603 0 
L 603 3500 
z
M 603 4863 
L 1178 4863 
L 1178 4134 
L 603 4134 
L 603 4863 
z
" transform="scale(0.015625)"/>
       <path id="DejaVuSans-76" d="M 191 3500 
L 800 3500 
L 1894 563 
L 2988 3500 
L 3597 3500 
L 2284 0 
L 1503 0 
L 191 3500 
z
" transform="scale(0.015625)"/>
       <path id="DejaVuSans-79" d="M 2059 -325 
Q 1816 -950 1584 -1140 
Q 1353 -1331 966 -1331 
L 506 -1331 
L 506 -850 
L 844 -850 
Q 1081 -850 1212 -737 
Q 1344 -625 1503 -206 
L 1606 56 
L 191 3500 
L 800 3500 
L 1894 763 
L 2988 3500 
L 3597 3500 
L 2059 -325 
z
" transform="scale(0.015625)"/>
      </defs>
      <use xlink:href="#DejaVuSans-41"/>
      <use xlink:href="#DejaVuSans-73" x="68.408203"/>
      <use xlink:href="#DejaVuSans-73" x="120.507812"/>
      <use xlink:href="#DejaVuSans-6f" x="172.607422"/>
      <use xlink:href="#DejaVuSans-72" x="233.789062"/>
      <use xlink:href="#DejaVuSans-74" x="274.902344"/>
      <use xlink:href="#DejaVuSans-61" x="314.111328"/>
      <use xlink:href="#DejaVuSans-74" x="375.390625"/>
      <use xlink:href="#DejaVuSans-69" x="414.599609"/>
      <use xlink:href="#DejaVuSans-76" x="442.382812"/>
      <use xlink:href="#DejaVuSans-69" x="501.5625"/>
      <use xlink:href="#DejaVuSans-74" x="529.345703"/>
      <use xlink:href="#DejaVuSans-79" x="568.554688"/>
     </g>
    </g>
   </g>
   <g id="line2d_13">
    <path d="M 58.84 299.500121 
L 60.08 259.149096 
L 61.32 176.887897 
L 62.56 165.403185 
L 63.8 141.577171 
L 65.04 141.217751 
L 66.28 139.634271 
L 67.52 141.184761 
L 68.76 145.926038 
L 70 144.314318 
L 71.24 141.916819 
L 72.48 141.364353 
L 73.72 141.624719 
L 74.96 137.310848 
L 76.2 136.149587 
L 77.44 137.256856 
L 78.68 139.376233 
L 79.92 143.78642 
L 81.16 143.169452 
L 82.4 140.814216 
L 83.64 141.545325 
L 84.88 141.096425 
L 86.12 145.303846 
L 87.36 150.328973 
L 88.6 150.038471 
L 89.84 148.968733 
L 91.08 149.874163 
L 92.32 150.135511 
L 93.56 153.100767 
L 94.8 152.792354 
L 96.04 154.364295 
L 97.28 157.939053 
L 98.52 158.825374 
L 101 159.488755 
L 102.24 161.550945 
L 103.48 161.985033 
L 104.72 162.10341 
L 105.96 163.099977 
L 107.2 162.025504 
L 109.68 163.192143 
L 110.92 162.968243 
L 112.16 164.404646 
L 113.4 164.864958 
L 114.64 165.204439 
L 117.12 167.187339 
L 118.36 167.58999 
L 119.6 169.227692 
L 120.84 169.671546 
L 122.08 170.89692 
L 123.32 170.084945 
L 124.56 171.383348 
L 125.8 171.647905 
L 127.04 172.439802 
L 128.28 171.793976 
L 129.52 172.702628 
L 130.76 173.221369 
L 133.24 175.964134 
L 134.48 176.246648 
L 135.72 177.383545 
L 136.96 178.791078 
L 138.2 180.669513 
L 139.44 181.135472 
L 140.68 182.156503 
L 141.92 182.0658 
L 143.16 183.002437 
L 146.88 184.798702 
L 148.12 184.544557 
L 149.36 184.477494 
L 150.6 186.366228 
L 151.84 187.012798 
L 153.08 186.63489 
L 155.56 189.408821 
L 156.8 189.982235 
L 159.28 191.476866 
L 160.52 191.494806 
L 161.76 192.88347 
L 163 193.951065 
L 164.24 194.543668 
L 165.48 195.538568 
L 166.72 197.083715 
L 169.2 197.343133 
L 170.44 198.029886 
L 171.68 198.083869 
L 172.92 198.566154 
L 174.16 200.227156 
L 175.4 201.332968 
L 176.64 201.361908 
L 179.12 205.203715 
L 180.36 205.473568 
L 181.6 206.029699 
L 182.84 206.813739 
L 184.08 207.053356 
L 185.32 207.098828 
L 186.56 208.460201 
L 190.28 210.914506 
L 191.52 212.387015 
L 192.76 212.685441 
L 194 213.606471 
L 196.48 214.681543 
L 197.72 215.578257 
L 198.96 216.119614 
L 200.2 217.199134 
L 202.68 218.614719 
L 203.92 219.387255 
L 205.16 219.17183 
L 206.4 219.988347 
L 207.64 220.125555 
L 208.88 221.394214 
L 210.12 222.307681 
L 211.36 222.743447 
L 212.6 223.300441 
L 213.84 224.076464 
L 215.08 224.686185 
L 216.32 224.902646 
L 217.56 224.854168 
L 220.04 226.544504 
L 221.28 226.837425 
L 222.52 227.723662 
L 223.76 228.36941 
L 225 229.698354 
L 227.48 231.841457 
L 228.72 232.412987 
L 229.96 232.831515 
L 231.2 233.916566 
L 232.44 234.746036 
L 234.92 235.453612 
L 236.16 236.138957 
L 237.4 237.171709 
L 238.64 237.621196 
L 239.88 238.371734 
L 241.12 238.890501 
L 242.36 238.981906 
L 246.08 241.813151 
L 247.32 242.054091 
L 248.56 243.139944 
L 249.8 243.787658 
L 251.04 244.738686 
L 252.28 244.991557 
L 253.52 245.916109 
L 254.76 246.34403 
L 257.24 248.302687 
L 258.48 249.032492 
L 260.96 250.176798 
L 262.2 251.118339 
L 264.68 252.339125 
L 265.92 252.846475 
L 267.16 253.486322 
L 268.4 253.876869 
L 269.64 254.129464 
L 270.88 255.204916 
L 272.12 255.788433 
L 273.36 256.774601 
L 274.6 257.513342 
L 275.84 257.839991 
L 278.32 258.899601 
L 279.56 259.810071 
L 280.8 260.269542 
L 282.04 260.502273 
L 284.52 261.412967 
L 285.76 262.297468 
L 287 262.991006 
L 289.48 263.600166 
L 293.2 264.863548 
L 294.44 265.69044 
L 295.68 266.09549 
L 299.4 268.181971 
L 300.64 269.105589 
L 301.88 269.35191 
L 304.36 270.374451 
L 306.84 272.269839 
L 309.32 272.90271 
L 310.56 273.59313 
L 311.8 274.024608 
L 314.28 275.654911 
L 315.52 276.544388 
L 316.76 277.11588 
L 319.24 277.764026 
L 321.72 278.118106 
L 324.2 279.544686 
L 331.64 282.32411 
L 332.88 282.533658 
L 334.12 283.211248 
L 335.36 283.58826 
L 336.6 284.251019 
L 339.08 285.112731 
L 340.32 285.598529 
L 341.56 285.85542 
L 342.8 286.757027 
L 346.52 288.686822 
L 347.76 289.186797 
L 350.24 289.974136 
L 351.48 290.583871 
L 358.92 293.5122 
L 360.16 293.850702 
L 361.4 294.519108 
L 362.64 295.005791 
L 363.88 295.284825 
L 365.12 295.365306 
L 367.6 296.067058 
L 368.84 296.62026 
L 370.08 296.99689 
L 371.32 297.613569 
L 372.56 298.355552 
L 375.04 298.857253 
L 376.28 299.753252 
L 377.52 300.304662 
L 380 301.059218 
L 387.44 304.090248 
L 392.4 305.626588 
L 397.36 306.945949 
L 398.6 307.405226 
L 401.08 307.762188 
L 402.32 307.741985 
L 404.8 308.525982 
L 407.28 308.638427 
L 408.52 308.927854 
L 409.76 308.905554 
L 411 309.01946 
L 412.24 309.248835 
L 414.72 309.438439 
L 414.72 309.438439 
" clip-path="url(#pf3e9e56a45)" style="fill: none; stroke: #000000; stroke-width: 1.5; stroke-linecap: square"/>
   </g>
   <g id="line2d_14">
    <path d="M 57.6 309.438439 
L 58.84 78.996853 
L 60.08 104.892669 
L 61.32 114.67525 
L 62.56 127.433059 
L 63.8 122.386171 
L 65.04 126.087517 
L 66.28 130.44287 
L 67.52 131.750029 
L 68.76 130.277579 
L 70 132.457023 
L 71.24 134.89796 
L 72.48 139.266474 
L 73.72 141.383261 
L 74.96 142.399798 
L 76.2 144.2697 
L 77.44 144.279538 
L 78.68 145.13609 
L 79.92 148.46872 
L 82.4 150.333659 
L 83.64 154.689754 
L 84.88 155.38854 
L 86.12 156.36741 
L 87.36 156.284871 
L 88.6 157.123077 
L 89.84 157.603896 
L 91.08 160.049422 
L 92.32 161.621169 
L 96.04 164.736549 
L 97.28 164.463921 
L 98.52 164.982236 
L 99.76 166.905169 
L 101 167.362155 
L 103.48 168.711276 
L 107.2 171.395901 
L 109.68 172.748979 
L 110.92 172.902202 
L 112.16 174.03018 
L 113.4 175.59649 
L 114.64 175.858202 
L 115.88 174.860852 
L 117.12 175.595155 
L 118.36 177.022822 
L 119.6 178.00856 
L 122.08 178.969627 
L 123.32 180.129107 
L 125.8 181.773839 
L 127.04 183.322869 
L 128.28 183.204465 
L 132 185.897811 
L 133.24 185.392427 
L 134.48 186.434687 
L 135.72 188.472869 
L 136.96 189.474858 
L 138.2 189.888839 
L 141.92 192.038547 
L 143.16 192.631193 
L 145.64 194.15561 
L 146.88 195.34622 
L 148.12 195.903101 
L 150.6 197.683441 
L 151.84 198.986886 
L 153.08 199.955007 
L 154.32 200.590971 
L 155.56 200.758302 
L 156.8 201.062021 
L 158.04 201.634361 
L 159.28 201.974602 
L 161.76 203.418917 
L 163 204.162332 
L 164.24 204.458342 
L 166.72 207.22394 
L 169.2 207.96016 
L 170.44 208.919188 
L 171.68 210.228826 
L 172.92 210.559885 
L 174.16 211.289834 
L 175.4 211.14781 
L 177.88 212.882966 
L 179.12 214.0847 
L 180.36 214.561485 
L 181.6 215.291517 
L 184.08 217.141434 
L 185.32 217.48248 
L 186.56 218.60696 
L 187.8 219.003478 
L 189.04 220.744649 
L 192.76 223.773886 
L 194 224.0992 
L 197.72 225.94484 
L 198.96 226.935211 
L 200.2 227.110586 
L 203.92 229.208947 
L 205.16 229.444673 
L 207.64 230.764298 
L 208.88 231.716945 
L 211.36 233.295017 
L 212.6 233.900211 
L 213.84 234.763635 
L 215.08 234.791651 
L 216.32 235.182957 
L 217.56 235.815001 
L 218.8 236.25828 
L 220.04 236.46984 
L 221.28 236.913815 
L 222.52 237.997645 
L 223.76 238.913588 
L 225 239.116791 
L 226.24 239.862818 
L 227.48 240.805032 
L 228.72 241.498475 
L 229.96 241.989418 
L 231.2 242.726627 
L 233.68 243.790447 
L 234.92 244.819952 
L 236.16 245.179129 
L 239.88 247.34355 
L 241.12 247.744672 
L 242.36 248.659729 
L 243.6 249.31289 
L 244.84 249.717744 
L 246.08 250.623002 
L 247.32 251.35409 
L 249.8 253.503919 
L 251.04 254.126895 
L 252.28 254.886482 
L 253.52 255.507197 
L 256 256.489704 
L 257.24 257.411607 
L 258.48 258.094172 
L 259.72 258.573624 
L 262.2 259.763944 
L 263.44 260.549259 
L 264.68 261.197895 
L 265.92 261.70619 
L 267.16 262.411097 
L 268.4 262.897488 
L 269.64 263.682139 
L 270.88 264.019003 
L 272.12 264.520223 
L 273.36 265.236764 
L 274.6 265.766163 
L 275.84 266.080895 
L 278.32 267.356271 
L 279.56 267.939069 
L 282.04 268.882869 
L 283.28 269.617603 
L 284.52 270.019064 
L 287 271.571471 
L 288.24 272.538902 
L 289.48 272.987306 
L 293.2 275.268943 
L 294.44 275.670745 
L 295.68 276.368892 
L 299.4 277.738507 
L 304.36 279.665173 
L 305.6 280.03479 
L 308.08 281.05011 
L 309.32 281.362936 
L 310.56 281.798801 
L 311.8 282.491684 
L 313.04 282.893505 
L 314.28 283.088224 
L 315.52 283.668575 
L 316.76 284.088795 
L 318 285.018304 
L 326.68 288.032347 
L 329.16 289.089628 
L 334.12 291.265302 
L 335.36 291.285294 
L 344.04 294.448826 
L 345.28 295.121866 
L 347.76 295.625847 
L 349 295.927354 
L 351.48 297.030075 
L 355.2 298.173465 
L 360.16 299.84447 
L 362.64 300.840347 
L 363.88 301.077619 
L 365.12 301.477102 
L 367.6 302.130012 
L 370.08 302.979169 
L 371.32 303.188083 
L 373.8 303.766163 
L 375.04 303.992206 
L 381.24 305.805868 
L 384.96 306.661005 
L 386.2 306.700887 
L 388.68 307.094863 
L 391.16 307.662762 
L 392.4 307.740635 
L 394.88 308.207716 
L 399.84 308.729391 
L 404.8 309.209983 
L 406.04 309.34463 
L 408.52 309.362837 
L 412.24 309.438742 
L 414.72 309.438439 
L 414.72 309.438439 
" clip-path="url(#pf3e9e56a45)" style="fill: none; stroke-dasharray: 5.55,2.4; stroke-dashoffset: 0; stroke: #ffa500; stroke-width: 1.5"/>
   </g>
   <g id="line2d_15">
    <path d="M 57.6 309.438439 
L 58.84 110.376802 
L 60.08 92.728971 
L 61.32 104.152138 
L 62.56 105.36683 
L 63.8 110.662455 
L 66.28 118.761212 
L 67.52 117.626943 
L 68.76 121.16627 
L 70 119.387456 
L 71.24 122.940131 
L 72.48 119.223661 
L 73.72 119.546365 
L 74.96 123.982756 
L 76.2 125.314089 
L 77.44 127.207578 
L 78.68 127.276793 
L 79.92 129.728235 
L 82.4 129.622557 
L 83.64 132.617277 
L 84.88 134.37237 
L 86.12 134.658731 
L 87.36 135.163141 
L 88.6 134.661192 
L 91.08 135.195562 
L 92.32 135.772967 
L 93.56 135.580204 
L 94.8 136.982683 
L 96.04 136.415849 
L 97.28 138.346598 
L 98.52 139.476883 
L 99.76 139.17721 
L 101 140.274262 
L 102.24 142.221247 
L 103.48 142.267871 
L 104.72 142.772815 
L 105.96 144.09242 
L 107.2 144.995402 
L 108.44 146.732929 
L 110.92 146.9381 
L 112.16 147.240062 
L 113.4 146.572338 
L 114.64 146.856427 
L 115.88 146.539839 
L 117.12 147.903508 
L 118.36 147.892888 
L 119.6 148.307248 
L 120.84 148.561972 
L 122.08 149.358325 
L 123.32 149.744692 
L 124.56 152.022189 
L 125.8 151.932616 
L 127.04 152.62663 
L 128.28 153.173208 
L 129.52 152.826719 
L 132 153.972226 
L 133.24 154.927978 
L 134.48 155.356568 
L 135.72 156.414089 
L 136.96 157.87976 
L 138.2 158.573529 
L 139.44 159.097134 
L 140.68 159.763756 
L 141.92 160.102557 
L 143.16 160.16321 
L 144.4 161.416952 
L 145.64 162.36766 
L 146.88 163.592815 
L 148.12 164.491095 
L 149.36 164.153528 
L 150.6 165.48965 
L 153.08 166.733519 
L 154.32 167.135641 
L 156.8 168.410581 
L 158.04 168.366418 
L 159.28 169.089276 
L 160.52 169.562129 
L 161.76 170.974458 
L 163 172.030587 
L 164.24 172.22714 
L 165.48 171.983656 
L 167.96 172.378038 
L 169.2 173.29985 
L 170.44 173.9799 
L 171.68 174.81623 
L 174.16 175.997901 
L 175.4 177.01125 
L 176.64 177.624894 
L 177.88 178.64573 
L 180.36 181.090965 
L 181.6 181.072571 
L 184.08 182.306837 
L 185.32 182.318414 
L 187.8 184.178132 
L 189.04 184.880349 
L 190.28 185.248321 
L 192.76 186.191954 
L 195.24 187.92961 
L 196.48 187.679154 
L 197.72 188.257801 
L 202.68 191.919162 
L 206.4 194.211214 
L 207.64 195.345371 
L 208.88 196.235438 
L 210.12 196.564415 
L 211.36 196.534948 
L 212.6 197.835084 
L 213.84 198.687478 
L 215.08 199.315789 
L 216.32 200.499973 
L 218.8 201.803189 
L 220.04 202.794149 
L 221.28 204.306343 
L 222.52 205.216825 
L 223.76 205.578285 
L 225 206.38231 
L 226.24 207.506493 
L 227.48 209.078223 
L 228.72 209.652671 
L 229.96 210.737949 
L 231.2 211.664644 
L 232.44 212.017986 
L 236.16 214.757215 
L 237.4 215.034378 
L 238.64 216.276386 
L 239.88 217.173025 
L 242.36 219.344676 
L 243.6 220.830623 
L 244.84 221.173014 
L 246.08 221.898877 
L 247.32 222.848948 
L 248.56 223.336674 
L 249.8 225.080367 
L 251.04 225.750185 
L 253.52 227.511197 
L 256 228.693032 
L 257.24 229.93624 
L 258.48 231.368085 
L 260.96 232.604808 
L 263.44 234.131813 
L 264.68 234.924217 
L 267.16 237.196342 
L 269.64 238.958934 
L 270.88 240.412626 
L 272.12 241.218544 
L 274.6 242.437613 
L 277.08 244.387255 
L 278.32 245.364303 
L 279.56 246.141445 
L 280.8 247.41927 
L 284.52 250.319673 
L 285.76 251.060257 
L 287 252.171903 
L 288.24 252.794662 
L 289.48 253.631526 
L 291.96 255.528623 
L 293.2 256.195755 
L 301.88 262.556576 
L 304.36 264.192805 
L 305.6 265.200227 
L 306.84 265.808289 
L 308.08 266.724623 
L 313.04 269.640327 
L 314.28 270.701249 
L 315.52 271.323523 
L 316.76 272.184259 
L 318 272.636122 
L 320.48 274.687592 
L 321.72 275.044619 
L 324.2 276.229599 
L 325.44 277.202907 
L 326.68 277.747777 
L 329.16 279.278367 
L 330.4 279.517538 
L 332.88 281.029014 
L 336.6 282.838561 
L 337.84 283.715465 
L 340.32 285.029053 
L 344.04 286.853288 
L 345.28 287.759066 
L 346.52 288.243195 
L 347.76 289.073657 
L 350.24 289.907372 
L 352.72 291.184548 
L 353.96 291.766626 
L 355.2 292.646489 
L 361.4 296.1331 
L 362.64 296.642198 
L 365.12 298.059906 
L 367.6 299.355625 
L 371.32 300.692069 
L 372.56 301.071045 
L 373.8 301.752928 
L 375.04 302.24798 
L 377.52 303.571963 
L 378.76 303.92033 
L 380 304.524591 
L 381.24 304.887302 
L 382.48 305.367932 
L 386.2 306.245941 
L 387.44 306.326541 
L 388.68 306.740743 
L 391.16 307.251715 
L 392.4 307.349736 
L 393.64 307.584182 
L 394.88 307.954304 
L 401.08 308.72871 
L 406.04 309.325272 
L 411 309.419857 
L 414.72 309.438439 
L 414.72 309.438439 
" clip-path="url(#pf3e9e56a45)" style="fill: none; stroke-dasharray: 1.5,2.475; stroke-dashoffset: 0; stroke: #bf00bf; stroke-width: 1.5"/>
   </g>
   <g id="patch_3">
    <path d="M 57.6 307.584 
L 57.6 41.472 
" style="fill: none; stroke: #000000; stroke-width: 0.8; stroke-linejoin: miter; stroke-linecap: square"/>
   </g>
   <g id="patch_4">
    <path d="M 414.72 307.584 
L 414.72 41.472 
" style="fill: none; stroke: #000000; stroke-width: 0.8; stroke-linejoin: miter; stroke-linecap: square"/>
   </g>
   <g id="patch_5">
    <path d="M 57.6 307.584 
L 414.72 307.584 
" style="fill: none; stroke: #000000; stroke-width: 0.8; stroke-linejoin: miter; stroke-linecap: square"/>
   </g>
   <g id="patch_6">
    <path d="M 57.6 41.472 
L 414.72 41.472 
" style="fill: none; stroke: #000000; stroke-width: 0.8; stroke-linejoin: miter; stroke-linecap: square"/>
   </g>
   <g id="text_15">
    <!-- Assortativity for various thresholding methods (de-meaned) -->
    <g transform="translate(56.05875 35.472) scale(0.12 -0.12)">
     <defs>
      <path id="DejaVuSans-68" d="M 3513 2113 
L 3513 0 
L 2938 0 
L 2938 2094 
Q 2938 2591 2744 2837 
Q 2550 3084 2163 3084 
Q 1697 3084 1428 2787 
Q 1159 2491 1159 1978 
L 1159 0 
L 581 0 
L 581 4863 
L 1159 4863 
L 1159 2956 
Q 1366 3272 1645 3428 
Q 1925 3584 2291 3584 
Q 2894 3584 3203 3211 
Q 3513 2838 3513 2113 
z
" transform="scale(0.015625)"/>
      <path id="DejaVuSans-6e" d="M 3513 2113 
L 3513 0 
L 2938 0 
L 2938 2094 
Q 2938 2591 2744 2837 
Q 2550 3084 2163 3084 
Q 1697 3084 1428 2787 
Q 1159 2491 1159 1978 
L 1159 0 
L 581 0 
L 581 3500 
L 1159 3500 
L 1159 2956 
Q 1366 3272 1645 3428 
Q 1925 3584 2291 3584 
Q 2894 3584 3203 3211 
Q 3513 2838 3513 2113 
z
" transform="scale(0.015625)"/>
      <path id="DejaVuSans-28" d="M 1984 4856 
Q 1566 4138 1362 3434 
Q 1159 2731 1159 2009 
Q 1159 1288 1364 580 
Q 1569 -128 1984 -844 
L 1484 -844 
Q 1016 -109 783 600 
Q 550 1309 550 2009 
Q 550 2706 781 3412 
Q 1013 4119 1484 4856 
L 1984 4856 
z
" transform="scale(0.015625)"/>
      <path id="DejaVuSans-2d" d="M 313 2009 
L 1997 2009 
L 1997 1497 
L 313 1497 
L 313 2009 
z
" transform="scale(0.015625)"/>
      <path id="DejaVuSans-29" d="M 513 4856 
L 1013 4856 
Q 1481 4119 1714 3412 
Q 1947 2706 1947 2009 
Q 1947 1309 1714 600 
Q 1481 -109 1013 -844 
L 513 -844 
Q 928 -128 1133 580 
Q 1338 1288 1338 2009 
Q 1338 2731 1133 3434 
Q 928 4138 513 4856 
z
" transform="scale(0.015625)"/>
     </defs>
     <use xlink:href="#DejaVuSans-41"/>
     <use xlink:href="#DejaVuSans-73" x="68.408203"/>
     <use xlink:href="#DejaVuSans-73" x="120.507812"/>
     <use xlink:href="#DejaVuSans-6f" x="172.607422"/>
     <use xlink:href="#DejaVuSans-72" x="233.789062"/>
     <use xlink:href="#DejaVuSans-74" x="274.902344"/>
     <use xlink:href="#DejaVuSans-61" x="314.111328"/>
     <use xlink:href="#DejaVuSans-74" x="375.390625"/>
     <use xlink:href="#DejaVuSans-69" x="414.599609"/>
     <use xlink:href="#DejaVuSans-76" x="442.382812"/>
     <use xlink:href="#DejaVuSans-69" x="501.5625"/>
     <use xlink:href="#DejaVuSans-74" x="529.345703"/>
     <use xlink:href="#DejaVuSans-79" x="568.554688"/>
     <use xlink:href="#DejaVuSans-20" x="627.734375"/>
     <use xlink:href="#DejaVuSans-66" x="659.521484"/>
     <use xlink:href="#DejaVuSans-6f" x="694.726562"/>
     <use xlink:href="#DejaVuSans-72" x="755.908203"/>
     <use xlink:href="#DejaVuSans-20" x="797.021484"/>
     <use xlink:href="#DejaVuSans-76" x="828.808594"/>
     <use xlink:href="#DejaVuSans-61" x="887.988281"/>
     <use xlink:href="#DejaVuSans-72" x="949.267578"/>
     <use xlink:href="#DejaVuSans-69" x="990.380859"/>
     <use xlink:href="#DejaVuSans-6f" x="1018.164062"/>
     <use xlink:href="#DejaVuSans-75" x="1079.345703"/>
     <use xlink:href="#DejaVuSans-73" x="1142.724609"/>
     <use xlink:href="#DejaVuSans-20" x="1194.824219"/>
     <use xlink:href="#DejaVuSans-74" x="1226.611328"/>
     <use xlink:href="#DejaVuSans-68" x="1265.820312"/>
     <use xlink:href="#DejaVuSans-72" x="1329.199219"/>
     <use xlink:href="#DejaVuSans-65" x="1368.0625"/>
     <use xlink:href="#DejaVuSans-73" x="1429.585938"/>
     <use xlink:href="#DejaVuSans-68" x="1481.685547"/>
     <use xlink:href="#DejaVuSans-6f" x="1545.064453"/>
     <use xlink:href="#DejaVuSans-6c" x="1606.246094"/>
     <use xlink:href="#DejaVuSans-64" x="1634.029297"/>
     <use xlink:href="#DejaVuSans-69" x="1697.505859"/>
     <use xlink:href="#DejaVuSans-6e" x="1725.289062"/>
     <use xlink:href="#DejaVuSans-67" x="1788.667969"/>
     <use xlink:href="#DejaVuSans-20" x="1852.144531"/>
     <use xlink:href="#DejaVuSans-6d" x="1883.931641"/>
     <use xlink:href="#DejaVuSans-65" x="1981.34375"/>
     <use xlink:href="#DejaVuSans-74" x="2042.867188"/>
     <use xlink:href="#DejaVuSans-68" x="2082.076172"/>
     <use xlink:href="#DejaVuSans-6f" x="2145.455078"/>
     <use xlink:href="#DejaVuSans-64" x="2206.636719"/>
     <use xlink:href="#DejaVuSans-73" x="2270.113281"/>
     <use xlink:href="#DejaVuSans-20" x="2322.212891"/>
     <use xlink:href="#DejaVuSans-28" x="2354"/>
     <use xlink:href="#DejaVuSans-64" x="2393.013672"/>
     <use xlink:href="#DejaVuSans-65" x="2456.490234"/>
     <use xlink:href="#DejaVuSans-2d" x="2518.013672"/>
     <use xlink:href="#DejaVuSans-6d" x="2554.097656"/>
     <use xlink:href="#DejaVuSans-65" x="2651.509766"/>
     <use xlink:href="#DejaVuSans-61" x="2713.033203"/>
     <use xlink:href="#DejaVuSans-6e" x="2774.3125"/>
     <use xlink:href="#DejaVuSans-65" x="2837.691406"/>
     <use xlink:href="#DejaVuSans-64" x="2899.214844"/>
     <use xlink:href="#DejaVuSans-29" x="2962.691406"/>
    </g>
   </g>
   <g id="legend_1">
    <g id="patch_7">
     <path d="M 263.0325 93.506375 
L 407.72 93.506375 
Q 409.72 93.506375 409.72 91.506375 
L 409.72 48.472 
Q 409.72 46.472 407.72 46.472 
L 263.0325 46.472 
Q 261.0325 46.472 261.0325 48.472 
L 261.0325 91.506375 
Q 261.0325 93.506375 263.0325 93.506375 
z
" style="fill: #ffffff; opacity: 0.8; stroke: #cccccc; stroke-linejoin: miter"/>
    </g>
    <g id="line2d_16">
     <path d="M 265.0325 54.570438 
L 275.0325 54.570438 
L 285.0325 54.570438 
" style="fill: none; stroke: #000000; stroke-width: 1.5; stroke-linecap: square"/>
    </g>
    <g id="text_16">
     <!-- All -->
     <g transform="translate(293.0325 58.070438) scale(0.1 -0.1)">
      <use xlink:href="#DejaVuSans-41"/>
      <use xlink:href="#DejaVuSans-6c" x="68.408203"/>
      <use xlink:href="#DejaVuSans-6c" x="96.191406"/>
     </g>
    </g>
    <g id="line2d_17">
     <path d="M 265.0325 69.248563 
L 275.0325 69.248563 
L 285.0325 69.248563 
" style="fill: none; stroke-dasharray: 5.55,2.4; stroke-dashoffset: 0; stroke: #ffa500; stroke-width: 1.5"/>
    </g>
    <g id="text_17">
     <!-- Per Row -->
     <g transform="translate(293.0325 72.748563) scale(0.1 -0.1)">
      <defs>
       <path id="DejaVuSans-50" d="M 1259 4147 
L 1259 2394 
L 2053 2394 
Q 2494 2394 2734 2622 
Q 2975 2850 2975 3272 
Q 2975 3691 2734 3919 
Q 2494 4147 2053 4147 
L 1259 4147 
z
M 628 4666 
L 2053 4666 
Q 2838 4666 3239 4311 
Q 3641 3956 3641 3272 
Q 3641 2581 3239 2228 
Q 2838 1875 2053 1875 
L 1259 1875 
L 1259 0 
L 628 0 
L 628 4666 
z
" transform="scale(0.015625)"/>
       <path id="DejaVuSans-52" d="M 2841 2188 
Q 3044 2119 3236 1894 
Q 3428 1669 3622 1275 
L 4263 0 
L 3584 0 
L 2988 1197 
Q 2756 1666 2539 1819 
Q 2322 1972 1947 1972 
L 1259 1972 
L 1259 0 
L 628 0 
L 628 4666 
L 2053 4666 
Q 2853 4666 3247 4331 
Q 3641 3997 3641 3322 
Q 3641 2881 3436 2590 
Q 3231 2300 2841 2188 
z
M 1259 4147 
L 1259 2491 
L 2053 2491 
Q 2509 2491 2742 2702 
Q 2975 2913 2975 3322 
Q 2975 3731 2742 3939 
Q 2509 4147 2053 4147 
L 1259 4147 
z
" transform="scale(0.015625)"/>
       <path id="DejaVuSans-77" d="M 269 3500 
L 844 3500 
L 1563 769 
L 2278 3500 
L 2956 3500 
L 3675 769 
L 4391 3500 
L 4966 3500 
L 4050 0 
L 3372 0 
L 2619 2869 
L 1863 0 
L 1184 0 
L 269 3500 
z
" transform="scale(0.015625)"/>
      </defs>
      <use xlink:href="#DejaVuSans-50"/>
      <use xlink:href="#DejaVuSans-65" x="56.677734"/>
      <use xlink:href="#DejaVuSans-72" x="118.201172"/>
      <use xlink:href="#DejaVuSans-20" x="159.314453"/>
      <use xlink:href="#DejaVuSans-52" x="191.101562"/>
      <use xlink:href="#DejaVuSans-6f" x="256.083984"/>
      <use xlink:href="#DejaVuSans-77" x="317.265625"/>
     </g>
    </g>
    <g id="line2d_18">
     <path d="M 265.0325 83.926688 
L 275.0325 83.926688 
L 285.0325 83.926688 
" style="fill: none; stroke-dasharray: 1.5,2.475; stroke-dashoffset: 0; stroke: #bf00bf; stroke-width: 1.5"/>
    </g>
    <g id="text_18">
     <!-- Per Row, Col-Weighted -->
     <g transform="translate(293.0325 87.426688) scale(0.1 -0.1)">
      <defs>
       <path id="DejaVuSans-2c" d="M 750 794 
L 1409 794 
L 1409 256 
L 897 -744 
L 494 -744 
L 750 256 
L 750 794 
z
" transform="scale(0.015625)"/>
       <path id="DejaVuSans-43" d="M 4122 4306 
L 4122 3641 
Q 3803 3938 3442 4084 
Q 3081 4231 2675 4231 
Q 1875 4231 1450 3742 
Q 1025 3253 1025 2328 
Q 1025 1406 1450 917 
Q 1875 428 2675 428 
Q 3081 428 3442 575 
Q 3803 722 4122 1019 
L 4122 359 
Q 3791 134 3420 21 
Q 3050 -91 2638 -91 
Q 1578 -91 968 557 
Q 359 1206 359 2328 
Q 359 3453 968 4101 
Q 1578 4750 2638 4750 
Q 3056 4750 3426 4639 
Q 3797 4528 4122 4306 
z
" transform="scale(0.015625)"/>
       <path id="DejaVuSans-57" d="M 213 4666 
L 850 4666 
L 1831 722 
L 2809 4666 
L 3519 4666 
L 4500 722 
L 5478 4666 
L 6119 4666 
L 4947 0 
L 4153 0 
L 3169 4050 
L 2175 0 
L 1381 0 
L 213 4666 
z
" transform="scale(0.015625)"/>
      </defs>
      <use xlink:href="#DejaVuSans-50"/>
      <use xlink:href="#DejaVuSans-65" x="56.677734"/>
      <use xlink:href="#DejaVuSans-72" x="118.201172"/>
      <use xlink:href="#DejaVuSans-20" x="159.314453"/>
      <use xlink:href="#DejaVuSans-52" x="191.101562"/>
      <use xlink:href="#DejaVuSans-6f" x="256.083984"/>
      <use xlink:href="#DejaVuSans-77" x="317.265625"/>
      <use xlink:href="#DejaVuSans-2c" x="399.052734"/>
      <use xlink:href="#DejaVuSans-20" x="430.839844"/>
      <use xlink:href="#DejaVuSans-43" x="462.626953"/>
      <use xlink:href="#DejaVuSans-6f" x="532.451172"/>
      <use xlink:href="#DejaVuSans-6c" x="593.632812"/>
      <use xlink:href="#DejaVuSans-2d" x="621.416016"/>
      <use xlink:href="#DejaVuSans-57" x="653.5"/>
      <use xlink:href="#DejaVuSans-65" x="746.501953"/>
      <use xlink:href="#DejaVuSans-69" x="808.025391"/>
      <use xlink:href="#DejaVuSans-67" x="835.808594"/>
      <use xlink:href="#DejaVuSans-68" x="899.285156"/>
      <use xlink:href="#DejaVuSans-74" x="962.664062"/>
      <use xlink:href="#DejaVuSans-65" x="1001.873047"/>
      <use xlink:href="#DejaVuSans-64" x="1063.396484"/>
     </g>
    </g>
   </g>
  </g>
 </g>
 <defs>
  <clipPath id="pf3e9e56a45">
   <rect x="57.6" y="41.472" width="357.12" height="266.112"/>
  </clipPath>
 </defs>
</svg>
