<?xml version="1.0" encoding="utf-8" standalone="no"?>
<!DOCTYPE svg PUBLIC "-//W3C//DTD SVG 1.1//EN"
  "http://www.w3.org/Graphics/SVG/1.1/DTD/svg11.dtd">
<svg xmlns:xlink="http://www.w3.org/1999/xlink" width="437.322188pt" height="325.986375pt" viewBox="0 0 437.322188 325.986375" xmlns="http://www.w3.org/2000/svg" version="1.1">
 <metadata>
  <rdf:RDF xmlns:dc="http://purl.org/dc/elements/1.1/" xmlns:cc="http://creativecommons.org/ns#" xmlns:rdf="http://www.w3.org/1999/02/22-rdf-syntax-ns#">
   <cc:Work>
    <dc:type rdf:resource="http://purl.org/dc/dcmitype/StillImage"/>
    <dc:date>2023-10-12T18:05:06.792787</dc:date>
    <dc:format>image/svg+xml</dc:format>
    <dc:creator>
     <cc:Agent>
      <dc:title>Matplotlib v3.7.2, https://matplotlib.org/</dc:title>
     </cc:Agent>
    </dc:creator>
   </cc:Work>
  </rdf:RDF>
 </metadata>
 <defs>
  <style type="text/css">*{stroke-linejoin: round; stroke-linecap: butt}</style>
 </defs>
 <g id="figure_1">
  <g id="patch_1">
   <path d="M 0 325.986375 
L 437.322188 325.986375 
L 437.322188 0 
L 0 0 
z
" style="fill: #ffffff"/>
  </g>
  <g id="axes_1">
   <g id="patch_2">
    <path d="M 43.78125 288.430125 
L 400.90125 288.430125 
L 400.90125 22.318125 
L 43.78125 22.318125 
z
" style="fill: #ffffff"/>
   </g>
   <g id="PolyCollection_1">
    <path d="M 68.142108 7.475704 
L 68.142108 81.512546 
L 71.020332 93.373566 
L 71.020332 93.373566 
L 77.434468 118.266518 
L 80.277404 124.3305 
L 85.77192 144.262445 
L 89.480836 142.710202 
L 95.237285 157.6915 
L 98.231961 169.378353 
L 103.645314 175.480174 
L 113.070882 177.979667 
L 116.98791 186.162487 
L 125.487165 199.219778 
L 133.671042 205.178955 
L 142.559096 207.679669 
L 148.672665 218.822255 
L 157.890837 218.856998 
L 165.904159 223.685995 
L 184.596185 221.978681 
L 192.330817 229.522646 
L 206.617231 231.73692 
L 217.177779 239.538026 
L 226.189262 245.105446 
L 246.795328 248.830664 
L 252.675205 254.483048 
L 262.421054 258.168087 
L 275.746552 260.89301 
L 291.089403 263.632424 
L 305.109581 266.423734 
L 328.553835 268.21586 
L 339.32549 270.643198 
L 346.634635 273.187776 
L 357.432504 275.074908 
L 362.99416 277.14313 
L 377.691514 278.549175 
L 382.528866 279.946013 
L 388.765863 281.141607 
L 393.164409 282.244162 
L 397.492377 283.204257 
L 399.11565 283.833604 
L 399.11565 282.473928 
L 399.11565 282.473928 
L 397.492377 281.608516 
L 393.164409 280.415356 
L 388.765863 278.983372 
L 382.528866 277.285505 
L 377.691514 275.192771 
L 362.99416 273.35232 
L 357.432504 270.910469 
L 346.634635 268.015223 
L 339.32549 264.728724 
L 328.553835 260.919139 
L 305.109581 258.257693 
L 291.089403 254.572825 
L 275.746552 249.971464 
L 262.421054 244.687683 
L 252.675205 238.310002 
L 246.795328 230.71939 
L 226.189262 227.885281 
L 217.177779 219.61884 
L 206.617231 213.290834 
L 192.330817 204.577038 
L 184.596185 192.625019 
L 165.904159 185.880919 
L 157.890837 170.599643 
L 148.672665 151.061995 
L 142.559096 135.002021 
L 133.671042 126.039448 
L 125.487165 115.445272 
L 116.98791 106.844963 
L 113.070882 85.311943 
L 103.645314 77.951645 
L 98.231961 67.987497 
L 95.237285 50.16011 
L 89.480836 34.982048 
L 85.77192 33.429805 
L 80.277404 26.75055 
L 77.434468 25.718212 
L 71.020332 4.485084 
L 71.020332 4.485084 
L 68.142108 7.475704 
z
" clip-path="url(#pa53410900f)" style="fill-opacity: 0.2"/>
   </g>
   <g id="PolyCollection_2">
    <path d="M 61.87199 44.494125 
L 61.87199 44.494125 
L 65.063433 48.929325 
L 65.063433 48.929325 
L 67.139619 71.992365 
L 70.272277 75.540525 
L 72.375139 88.846125 
L 75.267709 88.846125 
L 80.014976 103.925805 
L 82.004779 118.682925 
L 85.24784 126.71591 
L 89.902867 131.645805 
L 94.63974 146.503725 
L 99.11264 157.332525 
L 107.453205 165.609202 
L 114.533163 171.340845 
L 116.591106 184.942125 
L 131.26512 194.72832 
L 139.711908 204.783457 
L 160.155694 207.30185 
L 165.954153 217.049842 
L 183.797366 222.513877 
L 187.616888 229.578433 
L 195.322936 236.495364 
L 212.388667 239.775027 
L 216.566459 246.396525 
L 230.454535 251.427885 
L 247.517503 255.432237 
L 261.419593 259.102625 
L 280.919548 262.340713 
L 308.01405 264.5675 
L 320.562166 267.685961 
L 328.009834 270.601499 
L 341.817492 272.992689 
L 346.289823 275.247725 
L 361.981064 276.870973 
L 369.962226 278.615759 
L 377.493884 280.062489 
L 386.280897 281.329759 
L 391.069785 282.406386 
L 394.103325 283.153766 
L 394.103325 283.153766 
L 394.103325 283.153766 
L 391.069785 282.406386 
L 386.280897 281.329759 
L 377.493884 280.062489 
L 369.962226 278.615759 
L 361.981064 276.870973 
L 346.289823 275.247725 
L 341.817492 272.992689 
L 328.009834 270.601499 
L 320.562166 267.685961 
L 308.01405 264.5675 
L 280.919548 262.340713 
L 261.419593 259.102625 
L 247.517503 255.432237 
L 230.454535 251.427885 
L 216.566459 246.396525 
L 212.388667 239.775027 
L 195.322936 236.495364 
L 187.616888 229.578433 
L 183.797366 222.513877 
L 165.954153 217.049842 
L 160.155694 207.30185 
L 139.711908 204.783457 
L 131.26512 194.72832 
L 116.591106 184.942125 
L 114.533163 171.340845 
L 107.453205 165.609202 
L 99.11264 157.332525 
L 94.63974 146.503725 
L 89.902867 131.645805 
L 85.24784 126.71591 
L 82.004779 118.682925 
L 80.014976 103.925805 
L 75.267709 88.846125 
L 72.375139 88.846125 
L 70.272277 75.540525 
L 67.139619 71.992365 
L 65.063433 48.929325 
L 65.063433 48.929325 
L 61.87199 44.494125 
z
" clip-path="url(#pa53410900f)" style="fill: #ff0000; fill-opacity: 0.2"/>
   </g>
   <g id="PolyCollection_3">
    <path d="M 57.905407 60.520569 
L 57.905407 241.357281 
L 59.293044 244.699648 
L 59.293044 244.699648 
L 63.675357 243.794999 
L 65.282397 240.44215 
L 67.527544 244.268173 
L 69.772692 243.586281 
L 72.134292 258.21491 
L 74.138772 258.035931 
L 80.701432 247.660899 
L 82.231946 250.60866 
L 86.48855 239.423472 
L 90.701579 245.390922 
L 93.129008 252.004052 
L 96.234399 252.650781 
L 104.65118 255.805469 
L 113.82499 256.069746 
L 115.25347 259.642261 
L 118.40995 264.437552 
L 129.747542 261.062584 
L 136.244263 261.55257 
L 141.893252 263.207026 
L 151.854501 264.928509 
L 157.540372 267.362292 
L 171.472469 268.007477 
L 185.051257 270.406405 
L 201.891331 270.930148 
L 214.264299 271.680018 
L 223.635523 273.60464 
L 230.382691 275.248491 
L 250.149255 276.563882 
L 264.965361 277.734651 
L 281.339626 278.635311 
L 307.862634 279.340054 
L 324.195158 280.265267 
L 340.75131 281.102866 
L 352.950658 281.957826 
L 365.454275 282.730099 
L 379.993901 283.49139 
L 399.625821 283.866043 
L 399.625821 282.618897 
L 399.625821 282.618897 
L 379.993901 281.931382 
L 365.454275 281.08247 
L 352.950658 279.911237 
L 340.75131 278.556905 
L 324.195158 277.197374 
L 307.862634 275.713796 
L 281.339626 274.84825 
L 264.965361 273.129179 
L 250.149255 271.380261 
L 230.382691 270.627826 
L 223.635523 267.504996 
L 214.264299 264.636274 
L 201.891331 260.797507 
L 185.051257 258.300245 
L 171.472469 257.444773 
L 157.540372 254.837114 
L 151.854501 250.125082 
L 141.893252 246.101716 
L 136.244263 239.519983 
L 129.747542 231.776817 
L 118.40995 225.341732 
L 115.25347 218.961251 
L 113.82499 206.694281 
L 104.65118 199.825981 
L 96.234399 200.023869 
L 93.129008 189.753182 
L 90.701579 181.478928 
L 86.48855 171.855978 
L 82.231946 157.27047 
L 80.701432 143.213382 
L 74.138772 135.771519 
L 72.134292 116.40022 
L 69.772692 107.078769 
L 67.527544 106.396877 
L 65.282397 88.0469 
L 63.675357 84.694051 
L 59.293044 66.048602 
L 59.293044 66.048602 
L 57.905407 60.520569 
z
" clip-path="url(#pa53410900f)" style="fill: #bf00bf; fill-opacity: 0.2"/>
   </g>
   <g id="PolyCollection_4">
    <path d="M 48.231344 150.938925 
L 48.231344 150.938925 
L 48.755585 155.374125 
L 48.755585 155.374125 
L 50.86539 164.244525 
L 52.304177 164.244525 
L 53.883605 175.332525 
L 54.813014 175.332525 
L 53.428368 187.307565 
L 55.341272 196.903725 
L 58.708464 195.43714 
L 60.412038 203.939565 
L 67.823212 205.639725 
L 70.359925 213.434925 
L 71.78785 220.878617 
L 75.366594 226.337325 
L 79.98386 227.815725 
L 85.430184 231.382013 
L 87.756101 239.301756 
L 89.327773 244.889642 
L 104.994405 246.4197 
L 116.390004 250.536277 
L 123.558234 254.654371 
L 127.66464 257.526796 
L 135.45111 261.099703 
L 148.498641 262.726125 
L 158.540594 264.353325 
L 173.828915 265.863827 
L 192.694209 268.158146 
L 198.663997 270.554818 
L 204.519519 272.938159 
L 222.372172 273.972071 
L 236.961382 275.431915 
L 256.268669 276.74178 
L 282.199671 277.526925 
L 302.053769 278.73132 
L 321.488295 279.829886 
L 337.366918 280.934532 
L 349.352143 281.906285 
L 362.985632 282.711386 
L 396.416652 283.24247 
L 396.416652 283.24247 
L 396.416652 283.24247 
L 362.985632 282.711386 
L 349.352143 281.906285 
L 337.366918 280.934532 
L 321.488295 279.829886 
L 302.053769 278.73132 
L 282.199671 277.526925 
L 256.268669 276.74178 
L 236.961382 275.431915 
L 222.372172 273.972071 
L 204.519519 272.938159 
L 198.663997 270.554818 
L 192.694209 268.158146 
L 173.828915 265.863827 
L 158.540594 264.353325 
L 148.498641 262.726125 
L 135.45111 261.099703 
L 127.66464 257.526796 
L 123.558234 254.654371 
L 116.390004 250.536277 
L 104.994405 246.4197 
L 89.327773 244.889642 
L 87.756101 239.301756 
L 85.430184 231.382013 
L 79.98386 227.815725 
L 75.366594 226.337325 
L 71.78785 220.878617 
L 70.359925 213.434925 
L 67.823212 205.639725 
L 60.412038 203.939565 
L 58.708464 195.43714 
L 55.341272 196.903725 
L 53.428368 187.307565 
L 54.813014 175.332525 
L 53.883605 175.332525 
L 52.304177 164.244525 
L 50.86539 164.244525 
L 48.755585 155.374125 
L 48.755585 155.374125 
L 48.231344 150.938925 
z
" clip-path="url(#pa53410900f)" style="fill: #006400; fill-opacity: 0.2"/>
   </g>
   <g id="PolyCollection_5">
    <path d="M 43.78125 22.318125 
L 43.78125 22.318125 
L 43.78125 22.318125 
L 43.78125 22.318125 
L 43.78125 22.318125 
L 43.78125 22.318125 
L 43.78125 22.318125 
L 43.78125 22.318125 
L 43.78125 22.318125 
L 43.78125 22.318125 
L 43.78125 22.318125 
L 43.78125 22.318125 
L 43.78125 22.318125 
L 43.78125 22.318125 
L 43.78125 22.318125 
L 45.56685 22.318125 
L 56.527047 22.318125 
L 86.815039 87.694333 
L 115.402749 186.125111 
L 183.31391 221.050408 
L 237.282163 244.493748 
L 272.738375 258.721446 
L 325.740451 266.26222 
L 343.458666 272.834489 
L 361.441464 276.265833 
L 371.17725 278.428974 
L 380.743266 279.681841 
L 387.490435 280.593235 
L 389.917863 281.411566 
L 393.164409 281.88085 
L 393.164409 282.349686 
L 393.164409 282.658961 
L 394.717105 282.910155 
L 397.492377 283.090567 
L 397.492377 283.252861 
L 397.492377 283.3903 
L 397.492377 283.494871 
L 397.492377 283.57578 
L 397.492377 283.634754 
L 397.492377 283.694838 
L 397.492377 283.732837 
L 397.492377 282.314669 
L 397.492377 282.314669 
L 397.492377 282.264526 
L 397.492377 282.191816 
L 397.492377 282.11138 
L 397.492377 282.002604 
L 397.492377 281.905803 
L 397.492377 281.750824 
L 397.492377 281.546698 
L 394.717105 281.364248 
L 393.164409 281.107504 
L 393.164409 280.678464 
L 393.164409 280.115431 
L 389.917863 279.392405 
L 387.490435 278.527 
L 380.743266 277.130215 
L 371.17725 274.968997 
L 361.441464 272.268005 
L 343.458666 267.699879 
L 325.740451 260.613636 
L 272.738375 249.32696 
L 237.282163 222.92929 
L 183.31391 180.452311 
L 115.402749 105.726499 
L 86.815039 7.946717 
L 56.527047 22.318125 
L 45.56685 22.318125 
L 43.78125 22.318125 
L 43.78125 22.318125 
L 43.78125 22.318125 
L 43.78125 22.318125 
L 43.78125 22.318125 
L 43.78125 22.318125 
L 43.78125 22.318125 
L 43.78125 22.318125 
L 43.78125 22.318125 
L 43.78125 22.318125 
L 43.78125 22.318125 
L 43.78125 22.318125 
L 43.78125 22.318125 
L 43.78125 22.318125 
z
" clip-path="url(#pa53410900f)" style="fill-opacity: 0.2"/>
   </g>
   <g id="PolyCollection_6">
    <path d="M 43.78125 22.318125 
L 43.78125 22.318125 
L 43.78125 22.318125 
L 43.78125 22.318125 
L 43.78125 22.318125 
L 43.78125 22.318125 
L 43.78125 22.318125 
L 43.78125 22.318125 
L 43.78125 22.318125 
L 43.78125 22.318125 
L 43.78125 22.318125 
L 43.78125 22.318125 
L 43.78125 22.318125 
L 43.78125 22.318125 
L 43.78125 22.318125 
L 40.667588 22.318125 
L 42.552376 22.318125 
L 58.215181 47.820525 
L 86.619284 145.925805 
L 161.981396 200.75136 
L 199.408789 233.711519 
L 246.97299 254.024203 
L 306.749718 263.437928 
L 323.047806 270.267184 
L 343.784388 274.266919 
L 353.949018 276.698985 
L 367.281378 278.406028 
L 376.70203 279.560117 
L 379.118576 280.401985 
L 386.280897 280.99814 
L 386.280897 281.514075 
L 386.280897 281.883233 
L 387.943872 282.137202 
L 391.069785 282.318633 
L 391.069785 282.501842 
L 391.069785 282.648051 
L 391.069785 282.748737 
L 391.069785 282.84358 
L 391.069785 282.913285 
L 391.069785 282.979682 
L 391.069785 283.023753 
L 391.069785 283.023753 
L 391.069785 283.023753 
L 391.069785 282.979682 
L 391.069785 282.913285 
L 391.069785 282.84358 
L 391.069785 282.748737 
L 391.069785 282.648051 
L 391.069785 282.501842 
L 391.069785 282.318633 
L 387.943872 282.137202 
L 386.280897 281.883233 
L 386.280897 281.514075 
L 386.280897 280.99814 
L 379.118576 280.401985 
L 376.70203 279.560117 
L 367.281378 278.406028 
L 353.949018 276.698985 
L 343.784388 274.266919 
L 323.047806 270.267184 
L 306.749718 263.437928 
L 246.97299 254.024203 
L 199.408789 233.711519 
L 161.981396 200.75136 
L 86.619284 145.925805 
L 58.215181 47.820525 
L 42.552376 22.318125 
L 40.667588 22.318125 
L 43.78125 22.318125 
L 43.78125 22.318125 
L 43.78125 22.318125 
L 43.78125 22.318125 
L 43.78125 22.318125 
L 43.78125 22.318125 
L 43.78125 22.318125 
L 43.78125 22.318125 
L 43.78125 22.318125 
L 43.78125 22.318125 
L 43.78125 22.318125 
L 43.78125 22.318125 
L 43.78125 22.318125 
L 43.78125 22.318125 
z
" clip-path="url(#pa53410900f)" style="fill: #ff0000; fill-opacity: 0.2"/>
   </g>
   <g id="PolyCollection_7">
    <path d="M 396.296802 282.317865 
L 396.296802 283.722805 
L 394.744106 283.695917 
L 396.367379 283.596728 
L 395.09195 283.504993 
L 392.387254 283.413193 
L 384.456408 283.457995 
L 380.600499 283.346375 
L 376.690952 283.21618 
L 369.311231 283.108226 
L 364.42024 283.034385 
L 359.891832 282.81654 
L 356.84008 282.551901 
L 348.88806 282.435087 
L 346.82598 282.104781 
L 341.864411 281.753805 
L 334.20821 281.247807 
L 326.858112 280.636667 
L 319.316064 279.683746 
L 299.88077 279.134697 
L 286.340093 277.47633 
L 262.743575 275.245433 
L 241.618061 271.878484 
L 187.982424 269.783463 
L 157.609115 265.667473 
L 116.783984 259.346445 
L 83.470232 267.112594 
L 61.588028 184.791461 
L 48.813395 131.998269 
L 45.56685 111.324942 
L 43.78125 22.318125 
L 43.78125 22.318125 
L 43.78125 22.318125 
L 43.78125 22.318125 
L 43.78125 22.318125 
L 43.78125 22.318125 
L 43.78125 22.318125 
L 43.78125 22.318125 
L 43.78125 22.318125 
L 43.78125 22.318125 
L 43.78125 22.318125 
L 43.78125 22.318125 
L 43.78125 22.318125 
L 43.78125 22.318125 
L 43.78125 22.318125 
L 43.78125 22.318125 
L 43.78125 22.318125 
L 43.78125 22.318125 
L 43.78125 22.318125 
L 43.78125 22.318125 
L 43.78125 22.318125 
L 43.78125 22.318125 
L 43.78125 22.318125 
L 45.56685 -13.466292 
L 48.813395 -16.398819 
L 61.588028 12.669109 
L 83.470232 141.34476 
L 116.783984 220.86905 
L 157.609115 240.255346 
L 187.982424 257.075756 
L 241.618061 262.748609 
L 262.743575 269.34142 
L 286.340093 272.429143 
L 299.88077 274.703862 
L 319.316064 276.212988 
L 326.858112 277.520092 
L 334.20821 278.347582 
L 341.864411 279.146254 
L 346.82598 279.887331 
L 348.88806 280.583585 
L 356.84008 281.037533 
L 359.891832 281.389605 
L 364.42024 281.655526 
L 369.311231 281.892537 
L 376.690952 281.933279 
L 380.600499 282.016348 
L 384.456408 282.031258 
L 392.387254 282.089501 
L 395.09195 282.128224 
L 396.367379 282.176348 
L 394.744106 282.266576 
L 396.296802 282.317865 
z
" clip-path="url(#pa53410900f)" style="fill: #bf00bf; fill-opacity: 0.2"/>
   </g>
   <g id="PolyCollection_8">
    <path d="M 390.110007 283.020335 
L 390.110007 283.020335 
L 388.15269 282.981246 
L 390.42174 282.886538 
L 388.874567 282.816609 
L 383.683296 282.751347 
L 374.851562 282.744626 
L 371.033636 282.681362 
L 361.372146 282.57473 
L 353.927947 282.500381 
L 347.029859 282.344955 
L 344.86324 282.103072 
L 343.076329 281.794717 
L 329.856264 281.509336 
L 326.699012 280.996056 
L 319.828651 280.450029 
L 312.400118 279.797694 
L 301.072639 279.078379 
L 293.137103 277.948367 
L 266.233515 276.919279 
L 255.971297 274.952736 
L 231.720315 272.293427 
L 210.916405 267.313546 
L 151.758602 263.429609 
L 121.92537 252.961409 
L 85.881843 240.107748 
L 57.382453 204.228677 
L 44.86098 98.730285 
L 40.291998 57.799725 
L 40.667588 48.929325 
L 43.78125 22.318125 
L 43.78125 22.318125 
L 43.78125 22.318125 
L 43.78125 22.318125 
L 43.78125 22.318125 
L 43.78125 22.318125 
L 43.78125 22.318125 
L 43.78125 22.318125 
L 43.78125 22.318125 
L 43.78125 22.318125 
L 43.78125 22.318125 
L 43.78125 22.318125 
L 43.78125 22.318125 
L 43.78125 22.318125 
L 43.78125 22.318125 
L 43.78125 22.318125 
L 43.78125 22.318125 
L 43.78125 22.318125 
L 43.78125 22.318125 
L 43.78125 22.318125 
L 43.78125 22.318125 
L 43.78125 22.318125 
L 43.78125 22.318125 
L 40.667588 48.929325 
L 40.291998 57.799725 
L 44.86098 98.730285 
L 57.382453 204.228677 
L 85.881843 240.107748 
L 121.92537 252.961409 
L 151.758602 263.429609 
L 210.916405 267.313546 
L 231.720315 272.293427 
L 255.971297 274.952736 
L 266.233515 276.919279 
L 293.137103 277.948367 
L 301.072639 279.078379 
L 312.400118 279.797694 
L 319.828651 280.450029 
L 326.699012 280.996056 
L 329.856264 281.509336 
L 343.076329 281.794717 
L 344.86324 282.103072 
L 347.029859 282.344955 
L 353.927947 282.500381 
L 361.372146 282.57473 
L 371.033636 282.681362 
L 374.851562 282.744626 
L 383.683296 282.751347 
L 388.874567 282.816609 
L 390.42174 282.886538 
L 388.15269 282.981246 
L 390.110007 283.020335 
z
" clip-path="url(#pa53410900f)" style="fill: #006400; fill-opacity: 0.2"/>
   </g>
   <g id="matplotlib.axis_1">
    <g id="xtick_1">
     <g id="line2d_1">
      <defs>
       <path id="m5d1e2b9b73" d="M 0 0 
L 0 3.5 
" style="stroke: #000000; stroke-width: 0.8"/>
      </defs>
      <g>
       <use xlink:href="#m5d1e2b9b73" x="43.78125" y="288.430125" style="stroke: #000000; stroke-width: 0.8"/>
      </g>
     </g>
     <g id="text_1">
      <!-- 0.0 -->
      <g transform="translate(35.829688 303.028562) scale(0.1 -0.1)">
       <defs>
        <path id="DejaVuSans-30" d="M 2034 4250 
Q 1547 4250 1301 3770 
Q 1056 3291 1056 2328 
Q 1056 1369 1301 889 
Q 1547 409 2034 409 
Q 2525 409 2770 889 
Q 3016 1369 3016 2328 
Q 3016 3291 2770 3770 
Q 2525 4250 2034 4250 
z
M 2034 4750 
Q 2819 4750 3233 4129 
Q 3647 3509 3647 2328 
Q 3647 1150 3233 529 
Q 2819 -91 2034 -91 
Q 1250 -91 836 529 
Q 422 1150 422 2328 
Q 422 3509 836 4129 
Q 1250 4750 2034 4750 
z
" transform="scale(0.015625)"/>
        <path id="DejaVuSans-2e" d="M 684 794 
L 1344 794 
L 1344 0 
L 684 0 
L 684 794 
z
" transform="scale(0.015625)"/>
       </defs>
       <use xlink:href="#DejaVuSans-30"/>
       <use xlink:href="#DejaVuSans-2e" x="63.623047"/>
       <use xlink:href="#DejaVuSans-30" x="95.410156"/>
      </g>
     </g>
    </g>
    <g id="xtick_2">
     <g id="line2d_2">
      <g>
       <use xlink:href="#m5d1e2b9b73" x="115.20525" y="288.430125" style="stroke: #000000; stroke-width: 0.8"/>
      </g>
     </g>
     <g id="text_2">
      <!-- 0.2 -->
      <g transform="translate(107.253688 303.028562) scale(0.1 -0.1)">
       <defs>
        <path id="DejaVuSans-32" d="M 1228 531 
L 3431 531 
L 3431 0 
L 469 0 
L 469 531 
Q 828 903 1448 1529 
Q 2069 2156 2228 2338 
Q 2531 2678 2651 2914 
Q 2772 3150 2772 3378 
Q 2772 3750 2511 3984 
Q 2250 4219 1831 4219 
Q 1534 4219 1204 4116 
Q 875 4013 500 3803 
L 500 4441 
Q 881 4594 1212 4672 
Q 1544 4750 1819 4750 
Q 2544 4750 2975 4387 
Q 3406 4025 3406 3419 
Q 3406 3131 3298 2873 
Q 3191 2616 2906 2266 
Q 2828 2175 2409 1742 
Q 1991 1309 1228 531 
z
" transform="scale(0.015625)"/>
       </defs>
       <use xlink:href="#DejaVuSans-30"/>
       <use xlink:href="#DejaVuSans-2e" x="63.623047"/>
       <use xlink:href="#DejaVuSans-32" x="95.410156"/>
      </g>
     </g>
    </g>
    <g id="xtick_3">
     <g id="line2d_3">
      <g>
       <use xlink:href="#m5d1e2b9b73" x="186.62925" y="288.430125" style="stroke: #000000; stroke-width: 0.8"/>
      </g>
     </g>
     <g id="text_3">
      <!-- 0.4 -->
      <g transform="translate(178.677688 303.028562) scale(0.1 -0.1)">
       <defs>
        <path id="DejaVuSans-34" d="M 2419 4116 
L 825 1625 
L 2419 1625 
L 2419 4116 
z
M 2253 4666 
L 3047 4666 
L 3047 1625 
L 3713 1625 
L 3713 1100 
L 3047 1100 
L 3047 0 
L 2419 0 
L 2419 1100 
L 313 1100 
L 313 1709 
L 2253 4666 
z
" transform="scale(0.015625)"/>
       </defs>
       <use xlink:href="#DejaVuSans-30"/>
       <use xlink:href="#DejaVuSans-2e" x="63.623047"/>
       <use xlink:href="#DejaVuSans-34" x="95.410156"/>
      </g>
     </g>
    </g>
    <g id="xtick_4">
     <g id="line2d_4">
      <g>
       <use xlink:href="#m5d1e2b9b73" x="258.05325" y="288.430125" style="stroke: #000000; stroke-width: 0.8"/>
      </g>
     </g>
     <g id="text_4">
      <!-- 0.6 -->
      <g transform="translate(250.101688 303.028562) scale(0.1 -0.1)">
       <defs>
        <path id="DejaVuSans-36" d="M 2113 2584 
Q 1688 2584 1439 2293 
Q 1191 2003 1191 1497 
Q 1191 994 1439 701 
Q 1688 409 2113 409 
Q 2538 409 2786 701 
Q 3034 994 3034 1497 
Q 3034 2003 2786 2293 
Q 2538 2584 2113 2584 
z
M 3366 4563 
L 3366 3988 
Q 3128 4100 2886 4159 
Q 2644 4219 2406 4219 
Q 1781 4219 1451 3797 
Q 1122 3375 1075 2522 
Q 1259 2794 1537 2939 
Q 1816 3084 2150 3084 
Q 2853 3084 3261 2657 
Q 3669 2231 3669 1497 
Q 3669 778 3244 343 
Q 2819 -91 2113 -91 
Q 1303 -91 875 529 
Q 447 1150 447 2328 
Q 447 3434 972 4092 
Q 1497 4750 2381 4750 
Q 2619 4750 2861 4703 
Q 3103 4656 3366 4563 
z
" transform="scale(0.015625)"/>
       </defs>
       <use xlink:href="#DejaVuSans-30"/>
       <use xlink:href="#DejaVuSans-2e" x="63.623047"/>
       <use xlink:href="#DejaVuSans-36" x="95.410156"/>
      </g>
     </g>
    </g>
    <g id="xtick_5">
     <g id="line2d_5">
      <g>
       <use xlink:href="#m5d1e2b9b73" x="329.47725" y="288.430125" style="stroke: #000000; stroke-width: 0.8"/>
      </g>
     </g>
     <g id="text_5">
      <!-- 0.8 -->
      <g transform="translate(321.525688 303.028562) scale(0.1 -0.1)">
       <defs>
        <path id="DejaVuSans-38" d="M 2034 2216 
Q 1584 2216 1326 1975 
Q 1069 1734 1069 1313 
Q 1069 891 1326 650 
Q 1584 409 2034 409 
Q 2484 409 2743 651 
Q 3003 894 3003 1313 
Q 3003 1734 2745 1975 
Q 2488 2216 2034 2216 
z
M 1403 2484 
Q 997 2584 770 2862 
Q 544 3141 544 3541 
Q 544 4100 942 4425 
Q 1341 4750 2034 4750 
Q 2731 4750 3128 4425 
Q 3525 4100 3525 3541 
Q 3525 3141 3298 2862 
Q 3072 2584 2669 2484 
Q 3125 2378 3379 2068 
Q 3634 1759 3634 1313 
Q 3634 634 3220 271 
Q 2806 -91 2034 -91 
Q 1263 -91 848 271 
Q 434 634 434 1313 
Q 434 1759 690 2068 
Q 947 2378 1403 2484 
z
M 1172 3481 
Q 1172 3119 1398 2916 
Q 1625 2713 2034 2713 
Q 2441 2713 2670 2916 
Q 2900 3119 2900 3481 
Q 2900 3844 2670 4047 
Q 2441 4250 2034 4250 
Q 1625 4250 1398 4047 
Q 1172 3844 1172 3481 
z
" transform="scale(0.015625)"/>
       </defs>
       <use xlink:href="#DejaVuSans-30"/>
       <use xlink:href="#DejaVuSans-2e" x="63.623047"/>
       <use xlink:href="#DejaVuSans-38" x="95.410156"/>
      </g>
     </g>
    </g>
    <g id="xtick_6">
     <g id="line2d_6">
      <g>
       <use xlink:href="#m5d1e2b9b73" x="400.90125" y="288.430125" style="stroke: #000000; stroke-width: 0.8"/>
      </g>
     </g>
     <g id="text_6">
      <!-- 1.0 -->
      <g transform="translate(392.949687 303.028562) scale(0.1 -0.1)">
       <defs>
        <path id="DejaVuSans-31" d="M 794 531 
L 1825 531 
L 1825 4091 
L 703 3866 
L 703 4441 
L 1819 4666 
L 2450 4666 
L 2450 531 
L 3481 531 
L 3481 0 
L 794 0 
L 794 531 
z
" transform="scale(0.015625)"/>
       </defs>
       <use xlink:href="#DejaVuSans-31"/>
       <use xlink:href="#DejaVuSans-2e" x="63.623047"/>
       <use xlink:href="#DejaVuSans-30" x="95.410156"/>
      </g>
     </g>
    </g>
    <g id="text_7">
     <!-- Recall -->
     <g transform="translate(207.424062 316.706687) scale(0.1 -0.1)">
      <defs>
       <path id="DejaVuSans-52" d="M 2841 2188 
Q 3044 2119 3236 1894 
Q 3428 1669 3622 1275 
L 4263 0 
L 3584 0 
L 2988 1197 
Q 2756 1666 2539 1819 
Q 2322 1972 1947 1972 
L 1259 1972 
L 1259 0 
L 628 0 
L 628 4666 
L 2053 4666 
Q 2853 4666 3247 4331 
Q 3641 3997 3641 3322 
Q 3641 2881 3436 2590 
Q 3231 2300 2841 2188 
z
M 1259 4147 
L 1259 2491 
L 2053 2491 
Q 2509 2491 2742 2702 
Q 2975 2913 2975 3322 
Q 2975 3731 2742 3939 
Q 2509 4147 2053 4147 
L 1259 4147 
z
" transform="scale(0.015625)"/>
       <path id="DejaVuSans-65" d="M 3597 1894 
L 3597 1613 
L 953 1613 
Q 991 1019 1311 708 
Q 1631 397 2203 397 
Q 2534 397 2845 478 
Q 3156 559 3463 722 
L 3463 178 
Q 3153 47 2828 -22 
Q 2503 -91 2169 -91 
Q 1331 -91 842 396 
Q 353 884 353 1716 
Q 353 2575 817 3079 
Q 1281 3584 2069 3584 
Q 2775 3584 3186 3129 
Q 3597 2675 3597 1894 
z
M 3022 2063 
Q 3016 2534 2758 2815 
Q 2500 3097 2075 3097 
Q 1594 3097 1305 2825 
Q 1016 2553 972 2059 
L 3022 2063 
z
" transform="scale(0.015625)"/>
       <path id="DejaVuSans-63" d="M 3122 3366 
L 3122 2828 
Q 2878 2963 2633 3030 
Q 2388 3097 2138 3097 
Q 1578 3097 1268 2742 
Q 959 2388 959 1747 
Q 959 1106 1268 751 
Q 1578 397 2138 397 
Q 2388 397 2633 464 
Q 2878 531 3122 666 
L 3122 134 
Q 2881 22 2623 -34 
Q 2366 -91 2075 -91 
Q 1284 -91 818 406 
Q 353 903 353 1747 
Q 353 2603 823 3093 
Q 1294 3584 2113 3584 
Q 2378 3584 2631 3529 
Q 2884 3475 3122 3366 
z
" transform="scale(0.015625)"/>
       <path id="DejaVuSans-61" d="M 2194 1759 
Q 1497 1759 1228 1600 
Q 959 1441 959 1056 
Q 959 750 1161 570 
Q 1363 391 1709 391 
Q 2188 391 2477 730 
Q 2766 1069 2766 1631 
L 2766 1759 
L 2194 1759 
z
M 3341 1997 
L 3341 0 
L 2766 0 
L 2766 531 
Q 2569 213 2275 61 
Q 1981 -91 1556 -91 
Q 1019 -91 701 211 
Q 384 513 384 1019 
Q 384 1609 779 1909 
Q 1175 2209 1959 2209 
L 2766 2209 
L 2766 2266 
Q 2766 2663 2505 2880 
Q 2244 3097 1772 3097 
Q 1472 3097 1187 3025 
Q 903 2953 641 2809 
L 641 3341 
Q 956 3463 1253 3523 
Q 1550 3584 1831 3584 
Q 2591 3584 2966 3190 
Q 3341 2797 3341 1997 
z
" transform="scale(0.015625)"/>
       <path id="DejaVuSans-6c" d="M 603 4863 
L 1178 4863 
L 1178 0 
L 603 0 
L 603 4863 
z
" transform="scale(0.015625)"/>
      </defs>
      <use xlink:href="#DejaVuSans-52"/>
      <use xlink:href="#DejaVuSans-65" x="64.982422"/>
      <use xlink:href="#DejaVuSans-63" x="126.505859"/>
      <use xlink:href="#DejaVuSans-61" x="181.486328"/>
      <use xlink:href="#DejaVuSans-6c" x="242.765625"/>
      <use xlink:href="#DejaVuSans-6c" x="270.548828"/>
     </g>
    </g>
   </g>
   <g id="matplotlib.axis_2">
    <g id="ytick_1">
     <g id="line2d_7">
      <defs>
       <path id="m0b80d45962" d="M 0 0 
L -3.5 0 
" style="stroke: #000000; stroke-width: 0.8"/>
      </defs>
      <g>
       <use xlink:href="#m0b80d45962" x="43.78125" y="288.430125" style="stroke: #000000; stroke-width: 0.8"/>
      </g>
     </g>
     <g id="text_8">
      <!-- 0.0 -->
      <g transform="translate(20.878125 292.229344) scale(0.1 -0.1)">
       <use xlink:href="#DejaVuSans-30"/>
       <use xlink:href="#DejaVuSans-2e" x="63.623047"/>
       <use xlink:href="#DejaVuSans-30" x="95.410156"/>
      </g>
     </g>
    </g>
    <g id="ytick_2">
     <g id="line2d_8">
      <g>
       <use xlink:href="#m0b80d45962" x="43.78125" y="235.207725" style="stroke: #000000; stroke-width: 0.8"/>
      </g>
     </g>
     <g id="text_9">
      <!-- 0.2 -->
      <g transform="translate(20.878125 239.006944) scale(0.1 -0.1)">
       <use xlink:href="#DejaVuSans-30"/>
       <use xlink:href="#DejaVuSans-2e" x="63.623047"/>
       <use xlink:href="#DejaVuSans-32" x="95.410156"/>
      </g>
     </g>
    </g>
    <g id="ytick_3">
     <g id="line2d_9">
      <g>
       <use xlink:href="#m0b80d45962" x="43.78125" y="181.985325" style="stroke: #000000; stroke-width: 0.8"/>
      </g>
     </g>
     <g id="text_10">
      <!-- 0.4 -->
      <g transform="translate(20.878125 185.784544) scale(0.1 -0.1)">
       <use xlink:href="#DejaVuSans-30"/>
       <use xlink:href="#DejaVuSans-2e" x="63.623047"/>
       <use xlink:href="#DejaVuSans-34" x="95.410156"/>
      </g>
     </g>
    </g>
    <g id="ytick_4">
     <g id="line2d_10">
      <g>
       <use xlink:href="#m0b80d45962" x="43.78125" y="128.762925" style="stroke: #000000; stroke-width: 0.8"/>
      </g>
     </g>
     <g id="text_11">
      <!-- 0.6 -->
      <g transform="translate(20.878125 132.562144) scale(0.1 -0.1)">
       <use xlink:href="#DejaVuSans-30"/>
       <use xlink:href="#DejaVuSans-2e" x="63.623047"/>
       <use xlink:href="#DejaVuSans-36" x="95.410156"/>
      </g>
     </g>
    </g>
    <g id="ytick_5">
     <g id="line2d_11">
      <g>
       <use xlink:href="#m0b80d45962" x="43.78125" y="75.540525" style="stroke: #000000; stroke-width: 0.8"/>
      </g>
     </g>
     <g id="text_12">
      <!-- 0.8 -->
      <g transform="translate(20.878125 79.339744) scale(0.1 -0.1)">
       <use xlink:href="#DejaVuSans-30"/>
       <use xlink:href="#DejaVuSans-2e" x="63.623047"/>
       <use xlink:href="#DejaVuSans-38" x="95.410156"/>
      </g>
     </g>
    </g>
    <g id="ytick_6">
     <g id="line2d_12">
      <g>
       <use xlink:href="#m0b80d45962" x="43.78125" y="22.318125" style="stroke: #000000; stroke-width: 0.8"/>
      </g>
     </g>
     <g id="text_13">
      <!-- 1.0 -->
      <g transform="translate(20.878125 26.117344) scale(0.1 -0.1)">
       <use xlink:href="#DejaVuSans-31"/>
       <use xlink:href="#DejaVuSans-2e" x="63.623047"/>
       <use xlink:href="#DejaVuSans-30" x="95.410156"/>
      </g>
     </g>
    </g>
    <g id="text_14">
     <!-- Precision -->
     <g transform="translate(14.798438 177.681156) rotate(-90) scale(0.1 -0.1)">
      <defs>
       <path id="DejaVuSans-50" d="M 1259 4147 
L 1259 2394 
L 2053 2394 
Q 2494 2394 2734 2622 
Q 2975 2850 2975 3272 
Q 2975 3691 2734 3919 
Q 2494 4147 2053 4147 
L 1259 4147 
z
M 628 4666 
L 2053 4666 
Q 2838 4666 3239 4311 
Q 3641 3956 3641 3272 
Q 3641 2581 3239 2228 
Q 2838 1875 2053 1875 
L 1259 1875 
L 1259 0 
L 628 0 
L 628 4666 
z
" transform="scale(0.015625)"/>
       <path id="DejaVuSans-72" d="M 2631 2963 
Q 2534 3019 2420 3045 
Q 2306 3072 2169 3072 
Q 1681 3072 1420 2755 
Q 1159 2438 1159 1844 
L 1159 0 
L 581 0 
L 581 3500 
L 1159 3500 
L 1159 2956 
Q 1341 3275 1631 3429 
Q 1922 3584 2338 3584 
Q 2397 3584 2469 3576 
Q 2541 3569 2628 3553 
L 2631 2963 
z
" transform="scale(0.015625)"/>
       <path id="DejaVuSans-69" d="M 603 3500 
L 1178 3500 
L 1178 0 
L 603 0 
L 603 3500 
z
M 603 4863 
L 1178 4863 
L 1178 4134 
L 603 4134 
L 603 4863 
z
" transform="scale(0.015625)"/>
       <path id="DejaVuSans-73" d="M 2834 3397 
L 2834 2853 
Q 2591 2978 2328 3040 
Q 2066 3103 1784 3103 
Q 1356 3103 1142 2972 
Q 928 2841 928 2578 
Q 928 2378 1081 2264 
Q 1234 2150 1697 2047 
L 1894 2003 
Q 2506 1872 2764 1633 
Q 3022 1394 3022 966 
Q 3022 478 2636 193 
Q 2250 -91 1575 -91 
Q 1294 -91 989 -36 
Q 684 19 347 128 
L 347 722 
Q 666 556 975 473 
Q 1284 391 1588 391 
Q 1994 391 2212 530 
Q 2431 669 2431 922 
Q 2431 1156 2273 1281 
Q 2116 1406 1581 1522 
L 1381 1569 
Q 847 1681 609 1914 
Q 372 2147 372 2553 
Q 372 3047 722 3315 
Q 1072 3584 1716 3584 
Q 2034 3584 2315 3537 
Q 2597 3491 2834 3397 
z
" transform="scale(0.015625)"/>
       <path id="DejaVuSans-6f" d="M 1959 3097 
Q 1497 3097 1228 2736 
Q 959 2375 959 1747 
Q 959 1119 1226 758 
Q 1494 397 1959 397 
Q 2419 397 2687 759 
Q 2956 1122 2956 1747 
Q 2956 2369 2687 2733 
Q 2419 3097 1959 3097 
z
M 1959 3584 
Q 2709 3584 3137 3096 
Q 3566 2609 3566 1747 
Q 3566 888 3137 398 
Q 2709 -91 1959 -91 
Q 1206 -91 779 398 
Q 353 888 353 1747 
Q 353 2609 779 3096 
Q 1206 3584 1959 3584 
z
" transform="scale(0.015625)"/>
       <path id="DejaVuSans-6e" d="M 3513 2113 
L 3513 0 
L 2938 0 
L 2938 2094 
Q 2938 2591 2744 2837 
Q 2550 3084 2163 3084 
Q 1697 3084 1428 2787 
Q 1159 2491 1159 1978 
L 1159 0 
L 581 0 
L 581 3500 
L 1159 3500 
L 1159 2956 
Q 1366 3272 1645 3428 
Q 1925 3584 2291 3584 
Q 2894 3584 3203 3211 
Q 3513 2838 3513 2113 
z
" transform="scale(0.015625)"/>
      </defs>
      <use xlink:href="#DejaVuSans-50"/>
      <use xlink:href="#DejaVuSans-72" x="58.552734"/>
      <use xlink:href="#DejaVuSans-65" x="97.416016"/>
      <use xlink:href="#DejaVuSans-63" x="158.939453"/>
      <use xlink:href="#DejaVuSans-69" x="213.919922"/>
      <use xlink:href="#DejaVuSans-73" x="241.703125"/>
      <use xlink:href="#DejaVuSans-69" x="293.802734"/>
      <use xlink:href="#DejaVuSans-6f" x="321.585938"/>
      <use xlink:href="#DejaVuSans-6e" x="382.767578"/>
     </g>
    </g>
   </g>
   <g id="line2d_13">
    <path d="M 68.142108 44.494125 
L 71.020332 48.929325 
L 71.020332 48.929325 
L 77.434468 71.992365 
L 80.277404 75.540525 
L 85.77192 88.846125 
L 89.480836 88.846125 
L 95.237285 103.925805 
L 98.231961 118.682925 
L 103.645314 126.71591 
L 113.070882 131.645805 
L 116.98791 146.503725 
L 125.487165 157.332525 
L 133.671042 165.609202 
L 142.559096 171.340845 
L 148.672665 184.942125 
L 157.890837 194.72832 
L 165.904159 204.783457 
L 184.596185 207.30185 
L 192.330817 217.049842 
L 206.617231 222.513877 
L 217.177779 229.578433 
L 226.189262 236.495364 
L 246.795328 239.775027 
L 252.675205 246.396525 
L 262.421054 251.427885 
L 275.746552 255.432237 
L 291.089403 259.102625 
L 305.109581 262.340713 
L 328.553835 264.5675 
L 339.32549 267.685961 
L 346.634635 270.601499 
L 357.432504 272.992689 
L 362.99416 275.247725 
L 377.691514 276.870973 
L 382.528866 278.615759 
L 388.765863 280.062489 
L 393.164409 281.329759 
L 397.492377 282.406386 
L 399.11565 283.153766 
" clip-path="url(#pa53410900f)" style="fill: none; stroke: #000000; stroke-width: 1.5; stroke-linecap: square"/>
   </g>
   <g id="line2d_14">
    <path d="M 57.905407 150.938925 
L 59.293044 155.374125 
L 59.293044 155.374125 
L 63.675357 164.244525 
L 65.282397 164.244525 
L 67.527544 175.332525 
L 69.772692 175.332525 
L 72.134292 187.307565 
L 74.138772 196.903725 
L 80.701432 195.43714 
L 82.231946 203.939565 
L 86.48855 205.639725 
L 90.701579 213.434925 
L 93.129008 220.878617 
L 96.234399 226.337325 
L 104.65118 227.815725 
L 113.82499 231.382013 
L 115.25347 239.301756 
L 118.40995 244.889642 
L 129.747542 246.4197 
L 136.244263 250.536277 
L 141.893252 254.654371 
L 151.854501 257.526796 
L 157.540372 261.099703 
L 171.472469 262.726125 
L 185.051257 264.353325 
L 201.891331 265.863827 
L 214.264299 268.158146 
L 223.635523 270.554818 
L 230.382691 272.938159 
L 250.149255 273.972071 
L 264.965361 275.431915 
L 281.339626 276.74178 
L 307.862634 277.526925 
L 324.195158 278.73132 
L 340.75131 279.829886 
L 352.950658 280.934532 
L 365.454275 281.906285 
L 379.993901 282.711386 
L 399.625821 283.24247 
" clip-path="url(#pa53410900f)" style="fill: none; stroke-dasharray: 5.55,2.4; stroke-dashoffset: 0; stroke: #ff0000; stroke-width: 1.5"/>
   </g>
   <g id="line2d_15">
    <path d="M 43.78125 22.318125 
L 43.78125 22.318125 
L 43.78125 22.318125 
L 43.78125 22.318125 
L 43.78125 22.318125 
L 43.78125 22.318125 
L 43.78125 22.318125 
L 43.78125 22.318125 
L 43.78125 22.318125 
L 43.78125 22.318125 
L 43.78125 22.318125 
L 43.78125 22.318125 
L 43.78125 22.318125 
L 43.78125 22.318125 
L 45.56685 22.318125 
L 56.527047 22.318125 
L 86.815039 47.820525 
L 115.402749 145.925805 
L 183.31391 200.75136 
L 237.282163 233.711519 
L 272.738375 254.024203 
L 325.740451 263.437928 
L 343.458666 270.267184 
L 361.441464 274.266919 
L 371.17725 276.698985 
L 380.743266 278.406028 
L 387.490435 279.560117 
L 389.917863 280.401985 
L 393.164409 280.99814 
L 393.164409 281.514075 
L 393.164409 281.883233 
L 394.717105 282.137202 
L 397.492377 282.318633 
L 397.492377 282.501842 
L 397.492377 282.648051 
L 397.492377 282.748737 
L 397.492377 282.84358 
L 397.492377 282.913285 
L 397.492377 282.979682 
L 397.492377 283.023753 
" clip-path="url(#pa53410900f)" style="fill: none; stroke-dasharray: 9.6,2.4,1.5,2.4; stroke-dashoffset: 0; stroke: #bf00bf; stroke-width: 1.5"/>
   </g>
   <g id="line2d_16">
    <path d="M 396.296802 283.020335 
L 394.744106 282.981246 
L 396.367379 282.886538 
L 395.09195 282.816609 
L 392.387254 282.751347 
L 384.456408 282.744626 
L 380.600499 282.681362 
L 376.690952 282.57473 
L 369.311231 282.500381 
L 364.42024 282.344955 
L 359.891832 282.103072 
L 356.84008 281.794717 
L 348.88806 281.509336 
L 346.82598 280.996056 
L 341.864411 280.450029 
L 334.20821 279.797694 
L 326.858112 279.078379 
L 319.316064 277.948367 
L 299.88077 276.919279 
L 286.340093 274.952736 
L 262.743575 272.293427 
L 241.618061 267.313546 
L 187.982424 263.429609 
L 157.609115 252.961409 
L 116.783984 240.107748 
L 83.470232 204.228677 
L 61.588028 98.730285 
L 48.813395 57.799725 
L 45.56685 48.929325 
L 43.78125 22.318125 
L 43.78125 22.318125 
L 43.78125 22.318125 
L 43.78125 22.318125 
L 43.78125 22.318125 
L 43.78125 22.318125 
L 43.78125 22.318125 
L 43.78125 22.318125 
L 43.78125 22.318125 
L 43.78125 22.318125 
L 43.78125 22.318125 
" clip-path="url(#pa53410900f)" style="fill: none; stroke-dasharray: 1.5,2.475; stroke-dashoffset: 0; stroke: #006400; stroke-width: 1.5"/>
   </g>
   <g id="patch_3">
    <path d="M 43.78125 288.430125 
L 43.78125 22.318125 
" style="fill: none; stroke: #000000; stroke-width: 0.8; stroke-linejoin: miter; stroke-linecap: square"/>
   </g>
   <g id="patch_4">
    <path d="M 43.78125 288.430125 
L 400.90125 288.430125 
" style="fill: none; stroke: #000000; stroke-width: 0.8; stroke-linejoin: miter; stroke-linecap: square"/>
   </g>
   <g id="text_15">
    <!-- PR Curve on Shared Axis of Two 50x50 Tensors [1 sample; 2% edges] -->
    <g transform="translate(14.560313 16.318125) scale(0.12 -0.12)">
     <defs>
      <path id="DejaVuSans-20" transform="scale(0.015625)"/>
      <path id="DejaVuSans-43" d="M 4122 4306 
L 4122 3641 
Q 3803 3938 3442 4084 
Q 3081 4231 2675 4231 
Q 1875 4231 1450 3742 
Q 1025 3253 1025 2328 
Q 1025 1406 1450 917 
Q 1875 428 2675 428 
Q 3081 428 3442 575 
Q 3803 722 4122 1019 
L 4122 359 
Q 3791 134 3420 21 
Q 3050 -91 2638 -91 
Q 1578 -91 968 557 
Q 359 1206 359 2328 
Q 359 3453 968 4101 
Q 1578 4750 2638 4750 
Q 3056 4750 3426 4639 
Q 3797 4528 4122 4306 
z
" transform="scale(0.015625)"/>
      <path id="DejaVuSans-75" d="M 544 1381 
L 544 3500 
L 1119 3500 
L 1119 1403 
Q 1119 906 1312 657 
Q 1506 409 1894 409 
Q 2359 409 2629 706 
Q 2900 1003 2900 1516 
L 2900 3500 
L 3475 3500 
L 3475 0 
L 2900 0 
L 2900 538 
Q 2691 219 2414 64 
Q 2138 -91 1772 -91 
Q 1169 -91 856 284 
Q 544 659 544 1381 
z
M 1991 3584 
L 1991 3584 
z
" transform="scale(0.015625)"/>
      <path id="DejaVuSans-76" d="M 191 3500 
L 800 3500 
L 1894 563 
L 2988 3500 
L 3597 3500 
L 2284 0 
L 1503 0 
L 191 3500 
z
" transform="scale(0.015625)"/>
      <path id="DejaVuSans-53" d="M 3425 4513 
L 3425 3897 
Q 3066 4069 2747 4153 
Q 2428 4238 2131 4238 
Q 1616 4238 1336 4038 
Q 1056 3838 1056 3469 
Q 1056 3159 1242 3001 
Q 1428 2844 1947 2747 
L 2328 2669 
Q 3034 2534 3370 2195 
Q 3706 1856 3706 1288 
Q 3706 609 3251 259 
Q 2797 -91 1919 -91 
Q 1588 -91 1214 -16 
Q 841 59 441 206 
L 441 856 
Q 825 641 1194 531 
Q 1563 422 1919 422 
Q 2459 422 2753 634 
Q 3047 847 3047 1241 
Q 3047 1584 2836 1778 
Q 2625 1972 2144 2069 
L 1759 2144 
Q 1053 2284 737 2584 
Q 422 2884 422 3419 
Q 422 4038 858 4394 
Q 1294 4750 2059 4750 
Q 2388 4750 2728 4690 
Q 3069 4631 3425 4513 
z
" transform="scale(0.015625)"/>
      <path id="DejaVuSans-68" d="M 3513 2113 
L 3513 0 
L 2938 0 
L 2938 2094 
Q 2938 2591 2744 2837 
Q 2550 3084 2163 3084 
Q 1697 3084 1428 2787 
Q 1159 2491 1159 1978 
L 1159 0 
L 581 0 
L 581 4863 
L 1159 4863 
L 1159 2956 
Q 1366 3272 1645 3428 
Q 1925 3584 2291 3584 
Q 2894 3584 3203 3211 
Q 3513 2838 3513 2113 
z
" transform="scale(0.015625)"/>
      <path id="DejaVuSans-64" d="M 2906 2969 
L 2906 4863 
L 3481 4863 
L 3481 0 
L 2906 0 
L 2906 525 
Q 2725 213 2448 61 
Q 2172 -91 1784 -91 
Q 1150 -91 751 415 
Q 353 922 353 1747 
Q 353 2572 751 3078 
Q 1150 3584 1784 3584 
Q 2172 3584 2448 3432 
Q 2725 3281 2906 2969 
z
M 947 1747 
Q 947 1113 1208 752 
Q 1469 391 1925 391 
Q 2381 391 2643 752 
Q 2906 1113 2906 1747 
Q 2906 2381 2643 2742 
Q 2381 3103 1925 3103 
Q 1469 3103 1208 2742 
Q 947 2381 947 1747 
z
" transform="scale(0.015625)"/>
      <path id="DejaVuSans-41" d="M 2188 4044 
L 1331 1722 
L 3047 1722 
L 2188 4044 
z
M 1831 4666 
L 2547 4666 
L 4325 0 
L 3669 0 
L 3244 1197 
L 1141 1197 
L 716 0 
L 50 0 
L 1831 4666 
z
" transform="scale(0.015625)"/>
      <path id="DejaVuSans-78" d="M 3513 3500 
L 2247 1797 
L 3578 0 
L 2900 0 
L 1881 1375 
L 863 0 
L 184 0 
L 1544 1831 
L 300 3500 
L 978 3500 
L 1906 2253 
L 2834 3500 
L 3513 3500 
z
" transform="scale(0.015625)"/>
      <path id="DejaVuSans-66" d="M 2375 4863 
L 2375 4384 
L 1825 4384 
Q 1516 4384 1395 4259 
Q 1275 4134 1275 3809 
L 1275 3500 
L 2222 3500 
L 2222 3053 
L 1275 3053 
L 1275 0 
L 697 0 
L 697 3053 
L 147 3053 
L 147 3500 
L 697 3500 
L 697 3744 
Q 697 4328 969 4595 
Q 1241 4863 1831 4863 
L 2375 4863 
z
" transform="scale(0.015625)"/>
      <path id="DejaVuSans-54" d="M -19 4666 
L 3928 4666 
L 3928 4134 
L 2272 4134 
L 2272 0 
L 1638 0 
L 1638 4134 
L -19 4134 
L -19 4666 
z
" transform="scale(0.015625)"/>
      <path id="DejaVuSans-77" d="M 269 3500 
L 844 3500 
L 1563 769 
L 2278 3500 
L 2956 3500 
L 3675 769 
L 4391 3500 
L 4966 3500 
L 4050 0 
L 3372 0 
L 2619 2869 
L 1863 0 
L 1184 0 
L 269 3500 
z
" transform="scale(0.015625)"/>
      <path id="DejaVuSans-35" d="M 691 4666 
L 3169 4666 
L 3169 4134 
L 1269 4134 
L 1269 2991 
Q 1406 3038 1543 3061 
Q 1681 3084 1819 3084 
Q 2600 3084 3056 2656 
Q 3513 2228 3513 1497 
Q 3513 744 3044 326 
Q 2575 -91 1722 -91 
Q 1428 -91 1123 -41 
Q 819 9 494 109 
L 494 744 
Q 775 591 1075 516 
Q 1375 441 1709 441 
Q 2250 441 2565 725 
Q 2881 1009 2881 1497 
Q 2881 1984 2565 2268 
Q 2250 2553 1709 2553 
Q 1456 2553 1204 2497 
Q 953 2441 691 2322 
L 691 4666 
z
" transform="scale(0.015625)"/>
      <path id="DejaVuSans-5b" d="M 550 4863 
L 1875 4863 
L 1875 4416 
L 1125 4416 
L 1125 -397 
L 1875 -397 
L 1875 -844 
L 550 -844 
L 550 4863 
z
" transform="scale(0.015625)"/>
      <path id="DejaVuSans-6d" d="M 3328 2828 
Q 3544 3216 3844 3400 
Q 4144 3584 4550 3584 
Q 5097 3584 5394 3201 
Q 5691 2819 5691 2113 
L 5691 0 
L 5113 0 
L 5113 2094 
Q 5113 2597 4934 2840 
Q 4756 3084 4391 3084 
Q 3944 3084 3684 2787 
Q 3425 2491 3425 1978 
L 3425 0 
L 2847 0 
L 2847 2094 
Q 2847 2600 2669 2842 
Q 2491 3084 2119 3084 
Q 1678 3084 1418 2786 
Q 1159 2488 1159 1978 
L 1159 0 
L 581 0 
L 581 3500 
L 1159 3500 
L 1159 2956 
Q 1356 3278 1631 3431 
Q 1906 3584 2284 3584 
Q 2666 3584 2933 3390 
Q 3200 3197 3328 2828 
z
" transform="scale(0.015625)"/>
      <path id="DejaVuSans-70" d="M 1159 525 
L 1159 -1331 
L 581 -1331 
L 581 3500 
L 1159 3500 
L 1159 2969 
Q 1341 3281 1617 3432 
Q 1894 3584 2278 3584 
Q 2916 3584 3314 3078 
Q 3713 2572 3713 1747 
Q 3713 922 3314 415 
Q 2916 -91 2278 -91 
Q 1894 -91 1617 61 
Q 1341 213 1159 525 
z
M 3116 1747 
Q 3116 2381 2855 2742 
Q 2594 3103 2138 3103 
Q 1681 3103 1420 2742 
Q 1159 2381 1159 1747 
Q 1159 1113 1420 752 
Q 1681 391 2138 391 
Q 2594 391 2855 752 
Q 3116 1113 3116 1747 
z
" transform="scale(0.015625)"/>
      <path id="DejaVuSans-3b" d="M 750 3309 
L 1409 3309 
L 1409 2516 
L 750 2516 
L 750 3309 
z
M 750 794 
L 1409 794 
L 1409 256 
L 897 -744 
L 494 -744 
L 750 256 
L 750 794 
z
" transform="scale(0.015625)"/>
      <path id="DejaVuSans-25" d="M 4653 2053 
Q 4381 2053 4226 1822 
Q 4072 1591 4072 1178 
Q 4072 772 4226 539 
Q 4381 306 4653 306 
Q 4919 306 5073 539 
Q 5228 772 5228 1178 
Q 5228 1588 5073 1820 
Q 4919 2053 4653 2053 
z
M 4653 2450 
Q 5147 2450 5437 2106 
Q 5728 1763 5728 1178 
Q 5728 594 5436 251 
Q 5144 -91 4653 -91 
Q 4153 -91 3862 251 
Q 3572 594 3572 1178 
Q 3572 1766 3864 2108 
Q 4156 2450 4653 2450 
z
M 1428 4353 
Q 1159 4353 1004 4120 
Q 850 3888 850 3481 
Q 850 3069 1003 2837 
Q 1156 2606 1428 2606 
Q 1700 2606 1854 2837 
Q 2009 3069 2009 3481 
Q 2009 3884 1853 4118 
Q 1697 4353 1428 4353 
z
M 4250 4750 
L 4750 4750 
L 1831 -91 
L 1331 -91 
L 4250 4750 
z
M 1428 4750 
Q 1922 4750 2215 4408 
Q 2509 4066 2509 3481 
Q 2509 2891 2217 2550 
Q 1925 2209 1428 2209 
Q 931 2209 642 2551 
Q 353 2894 353 3481 
Q 353 4063 643 4406 
Q 934 4750 1428 4750 
z
" transform="scale(0.015625)"/>
      <path id="DejaVuSans-67" d="M 2906 1791 
Q 2906 2416 2648 2759 
Q 2391 3103 1925 3103 
Q 1463 3103 1205 2759 
Q 947 2416 947 1791 
Q 947 1169 1205 825 
Q 1463 481 1925 481 
Q 2391 481 2648 825 
Q 2906 1169 2906 1791 
z
M 3481 434 
Q 3481 -459 3084 -895 
Q 2688 -1331 1869 -1331 
Q 1566 -1331 1297 -1286 
Q 1028 -1241 775 -1147 
L 775 -588 
Q 1028 -725 1275 -790 
Q 1522 -856 1778 -856 
Q 2344 -856 2625 -561 
Q 2906 -266 2906 331 
L 2906 616 
Q 2728 306 2450 153 
Q 2172 0 1784 0 
Q 1141 0 747 490 
Q 353 981 353 1791 
Q 353 2603 747 3093 
Q 1141 3584 1784 3584 
Q 2172 3584 2450 3431 
Q 2728 3278 2906 2969 
L 2906 3500 
L 3481 3500 
L 3481 434 
z
" transform="scale(0.015625)"/>
      <path id="DejaVuSans-5d" d="M 1947 4863 
L 1947 -844 
L 622 -844 
L 622 -397 
L 1369 -397 
L 1369 4416 
L 622 4416 
L 622 4863 
L 1947 4863 
z
" transform="scale(0.015625)"/>
     </defs>
     <use xlink:href="#DejaVuSans-50"/>
     <use xlink:href="#DejaVuSans-52" x="60.302734"/>
     <use xlink:href="#DejaVuSans-20" x="129.785156"/>
     <use xlink:href="#DejaVuSans-43" x="161.572266"/>
     <use xlink:href="#DejaVuSans-75" x="231.396484"/>
     <use xlink:href="#DejaVuSans-72" x="294.775391"/>
     <use xlink:href="#DejaVuSans-76" x="335.888672"/>
     <use xlink:href="#DejaVuSans-65" x="395.068359"/>
     <use xlink:href="#DejaVuSans-20" x="456.591797"/>
     <use xlink:href="#DejaVuSans-6f" x="488.378906"/>
     <use xlink:href="#DejaVuSans-6e" x="549.560547"/>
     <use xlink:href="#DejaVuSans-20" x="612.939453"/>
     <use xlink:href="#DejaVuSans-53" x="644.726562"/>
     <use xlink:href="#DejaVuSans-68" x="708.203125"/>
     <use xlink:href="#DejaVuSans-61" x="771.582031"/>
     <use xlink:href="#DejaVuSans-72" x="832.861328"/>
     <use xlink:href="#DejaVuSans-65" x="871.724609"/>
     <use xlink:href="#DejaVuSans-64" x="933.248047"/>
     <use xlink:href="#DejaVuSans-20" x="996.724609"/>
     <use xlink:href="#DejaVuSans-41" x="1028.511719"/>
     <use xlink:href="#DejaVuSans-78" x="1096.919922"/>
     <use xlink:href="#DejaVuSans-69" x="1156.099609"/>
     <use xlink:href="#DejaVuSans-73" x="1183.882812"/>
     <use xlink:href="#DejaVuSans-20" x="1235.982422"/>
     <use xlink:href="#DejaVuSans-6f" x="1267.769531"/>
     <use xlink:href="#DejaVuSans-66" x="1328.951172"/>
     <use xlink:href="#DejaVuSans-20" x="1364.15625"/>
     <use xlink:href="#DejaVuSans-54" x="1395.943359"/>
     <use xlink:href="#DejaVuSans-77" x="1440.527344"/>
     <use xlink:href="#DejaVuSans-6f" x="1522.314453"/>
     <use xlink:href="#DejaVuSans-20" x="1583.496094"/>
     <use xlink:href="#DejaVuSans-35" x="1615.283203"/>
     <use xlink:href="#DejaVuSans-30" x="1678.90625"/>
     <use xlink:href="#DejaVuSans-78" x="1742.529297"/>
     <use xlink:href="#DejaVuSans-35" x="1801.708984"/>
     <use xlink:href="#DejaVuSans-30" x="1865.332031"/>
     <use xlink:href="#DejaVuSans-20" x="1928.955078"/>
     <use xlink:href="#DejaVuSans-54" x="1960.742188"/>
     <use xlink:href="#DejaVuSans-65" x="2004.826172"/>
     <use xlink:href="#DejaVuSans-6e" x="2066.349609"/>
     <use xlink:href="#DejaVuSans-73" x="2129.728516"/>
     <use xlink:href="#DejaVuSans-6f" x="2181.828125"/>
     <use xlink:href="#DejaVuSans-72" x="2243.009766"/>
     <use xlink:href="#DejaVuSans-73" x="2284.123047"/>
     <use xlink:href="#DejaVuSans-20" x="2336.222656"/>
     <use xlink:href="#DejaVuSans-5b" x="2368.009766"/>
     <use xlink:href="#DejaVuSans-31" x="2407.023438"/>
     <use xlink:href="#DejaVuSans-20" x="2470.646484"/>
     <use xlink:href="#DejaVuSans-73" x="2502.433594"/>
     <use xlink:href="#DejaVuSans-61" x="2554.533203"/>
     <use xlink:href="#DejaVuSans-6d" x="2615.8125"/>
     <use xlink:href="#DejaVuSans-70" x="2713.224609"/>
     <use xlink:href="#DejaVuSans-6c" x="2776.701172"/>
     <use xlink:href="#DejaVuSans-65" x="2804.484375"/>
     <use xlink:href="#DejaVuSans-3b" x="2866.007812"/>
     <use xlink:href="#DejaVuSans-20" x="2899.699219"/>
     <use xlink:href="#DejaVuSans-32" x="2931.486328"/>
     <use xlink:href="#DejaVuSans-25" x="2995.109375"/>
     <use xlink:href="#DejaVuSans-20" x="3090.128906"/>
     <use xlink:href="#DejaVuSans-65" x="3121.916016"/>
     <use xlink:href="#DejaVuSans-64" x="3183.439453"/>
     <use xlink:href="#DejaVuSans-67" x="3246.916016"/>
     <use xlink:href="#DejaVuSans-65" x="3310.392578"/>
     <use xlink:href="#DejaVuSans-73" x="3371.916016"/>
     <use xlink:href="#DejaVuSans-5d" x="3424.015625"/>
    </g>
   </g>
   <g id="legend_1">
    <g id="patch_5">
     <path d="M 277.309062 89.030625 
L 393.90125 89.030625 
Q 395.90125 89.030625 395.90125 87.030625 
L 395.90125 29.318125 
Q 395.90125 27.318125 393.90125 27.318125 
L 277.309062 27.318125 
Q 275.309062 27.318125 275.309062 29.318125 
L 275.309062 87.030625 
Q 275.309062 89.030625 277.309062 89.030625 
z
" style="fill: #ffffff; opacity: 0.8; stroke: #cccccc; stroke-linejoin: miter"/>
    </g>
    <g id="line2d_17">
     <path d="M 279.309062 35.416562 
L 289.309062 35.416562 
L 299.309062 35.416562 
" style="fill: none; stroke: #000000; stroke-width: 1.5; stroke-linecap: square"/>
    </g>
    <g id="text_16">
     <!-- GmGM -->
     <g transform="translate(307.309062 38.916562) scale(0.1 -0.1)">
      <defs>
       <path id="DejaVuSans-47" d="M 3809 666 
L 3809 1919 
L 2778 1919 
L 2778 2438 
L 4434 2438 
L 4434 434 
Q 4069 175 3628 42 
Q 3188 -91 2688 -91 
Q 1594 -91 976 548 
Q 359 1188 359 2328 
Q 359 3472 976 4111 
Q 1594 4750 2688 4750 
Q 3144 4750 3555 4637 
Q 3966 4525 4313 4306 
L 4313 3634 
Q 3963 3931 3569 4081 
Q 3175 4231 2741 4231 
Q 1884 4231 1454 3753 
Q 1025 3275 1025 2328 
Q 1025 1384 1454 906 
Q 1884 428 2741 428 
Q 3075 428 3337 486 
Q 3600 544 3809 666 
z
" transform="scale(0.015625)"/>
       <path id="DejaVuSans-4d" d="M 628 4666 
L 1569 4666 
L 2759 1491 
L 3956 4666 
L 4897 4666 
L 4897 0 
L 4281 0 
L 4281 4097 
L 3078 897 
L 2444 897 
L 1241 4097 
L 1241 0 
L 628 0 
L 628 4666 
z
" transform="scale(0.015625)"/>
      </defs>
      <use xlink:href="#DejaVuSans-47"/>
      <use xlink:href="#DejaVuSans-6d" x="77.490234"/>
      <use xlink:href="#DejaVuSans-47" x="174.902344"/>
      <use xlink:href="#DejaVuSans-4d" x="252.392578"/>
     </g>
    </g>
    <g id="line2d_18">
     <path d="M 279.309062 50.094688 
L 289.309062 50.094688 
L 299.309062 50.094688 
" style="fill: none; stroke-dasharray: 5.55,2.4; stroke-dashoffset: 0; stroke: #ff0000; stroke-width: 1.5"/>
    </g>
    <g id="text_17">
     <!-- Unimodal GmGM -->
     <g transform="translate(307.309062 53.594688) scale(0.1 -0.1)">
      <defs>
       <path id="DejaVuSans-55" d="M 556 4666 
L 1191 4666 
L 1191 1831 
Q 1191 1081 1462 751 
Q 1734 422 2344 422 
Q 2950 422 3222 751 
Q 3494 1081 3494 1831 
L 3494 4666 
L 4128 4666 
L 4128 1753 
Q 4128 841 3676 375 
Q 3225 -91 2344 -91 
Q 1459 -91 1007 375 
Q 556 841 556 1753 
L 556 4666 
z
" transform="scale(0.015625)"/>
      </defs>
      <use xlink:href="#DejaVuSans-55"/>
      <use xlink:href="#DejaVuSans-6e" x="73.193359"/>
      <use xlink:href="#DejaVuSans-69" x="136.572266"/>
      <use xlink:href="#DejaVuSans-6d" x="164.355469"/>
      <use xlink:href="#DejaVuSans-6f" x="261.767578"/>
      <use xlink:href="#DejaVuSans-64" x="322.949219"/>
      <use xlink:href="#DejaVuSans-61" x="386.425781"/>
      <use xlink:href="#DejaVuSans-6c" x="447.705078"/>
      <use xlink:href="#DejaVuSans-20" x="475.488281"/>
      <use xlink:href="#DejaVuSans-47" x="507.275391"/>
      <use xlink:href="#DejaVuSans-6d" x="584.765625"/>
      <use xlink:href="#DejaVuSans-47" x="682.177734"/>
      <use xlink:href="#DejaVuSans-4d" x="759.667969"/>
     </g>
    </g>
    <g id="line2d_19">
     <path d="M 279.309062 64.772812 
L 289.309062 64.772812 
L 299.309062 64.772812 
" style="fill: none; stroke-dasharray: 9.6,2.4,1.5,2.4; stroke-dashoffset: 0; stroke: #bf00bf; stroke-width: 1.5"/>
    </g>
    <g id="text_18">
     <!-- GmGM L1 -->
     <g transform="translate(307.309062 68.272812) scale(0.1 -0.1)">
      <defs>
       <path id="DejaVuSans-4c" d="M 628 4666 
L 1259 4666 
L 1259 531 
L 3531 531 
L 3531 0 
L 628 0 
L 628 4666 
z
" transform="scale(0.015625)"/>
      </defs>
      <use xlink:href="#DejaVuSans-47"/>
      <use xlink:href="#DejaVuSans-6d" x="77.490234"/>
      <use xlink:href="#DejaVuSans-47" x="174.902344"/>
      <use xlink:href="#DejaVuSans-4d" x="252.392578"/>
      <use xlink:href="#DejaVuSans-20" x="338.671875"/>
      <use xlink:href="#DejaVuSans-4c" x="370.458984"/>
      <use xlink:href="#DejaVuSans-31" x="426.171875"/>
     </g>
    </g>
    <g id="line2d_20">
     <path d="M 279.309062 79.450938 
L 289.309062 79.450938 
L 299.309062 79.450938 
" style="fill: none; stroke-dasharray: 1.5,2.475; stroke-dashoffset: 0; stroke: #006400; stroke-width: 1.5"/>
    </g>
    <g id="text_19">
     <!-- EiGLasso -->
     <g transform="translate(307.309062 82.950938) scale(0.1 -0.1)">
      <defs>
       <path id="DejaVuSans-45" d="M 628 4666 
L 3578 4666 
L 3578 4134 
L 1259 4134 
L 1259 2753 
L 3481 2753 
L 3481 2222 
L 1259 2222 
L 1259 531 
L 3634 531 
L 3634 0 
L 628 0 
L 628 4666 
z
" transform="scale(0.015625)"/>
      </defs>
      <use xlink:href="#DejaVuSans-45"/>
      <use xlink:href="#DejaVuSans-69" x="63.183594"/>
      <use xlink:href="#DejaVuSans-47" x="90.966797"/>
      <use xlink:href="#DejaVuSans-4c" x="168.457031"/>
      <use xlink:href="#DejaVuSans-61" x="224.169922"/>
      <use xlink:href="#DejaVuSans-73" x="285.449219"/>
      <use xlink:href="#DejaVuSans-73" x="337.548828"/>
      <use xlink:href="#DejaVuSans-6f" x="389.648438"/>
     </g>
    </g>
   </g>
  </g>
 </g>
 <defs>
  <clipPath id="pa53410900f">
   <rect x="43.78125" y="22.318125" width="357.12" height="266.112"/>
  </clipPath>
 </defs>
</svg>
