<?xml version="1.0" encoding="utf-8" standalone="no"?>
<!DOCTYPE svg PUBLIC "-//W3C//DTD SVG 1.1//EN"
  "http://www.w3.org/Graphics/SVG/1.1/DTD/svg11.dtd">
<svg xmlns:xlink="http://www.w3.org/1999/xlink" width="416.052813pt" height="325.986375pt" viewBox="0 0 416.052813 325.986375" xmlns="http://www.w3.org/2000/svg" version="1.1">
 <metadata>
  <rdf:RDF xmlns:dc="http://purl.org/dc/elements/1.1/" xmlns:cc="http://creativecommons.org/ns#" xmlns:rdf="http://www.w3.org/1999/02/22-rdf-syntax-ns#">
   <cc:Work>
    <dc:type rdf:resource="http://purl.org/dc/dcmitype/StillImage"/>
    <dc:date>2023-10-12T17:53:56.318132</dc:date>
    <dc:format>image/svg+xml</dc:format>
    <dc:creator>
     <cc:Agent>
      <dc:title>Matplotlib v3.7.2, https://matplotlib.org/</dc:title>
     </cc:Agent>
    </dc:creator>
   </cc:Work>
  </rdf:RDF>
 </metadata>
 <defs>
  <style type="text/css">*{stroke-linejoin: round; stroke-linecap: butt}</style>
 </defs>
 <g id="figure_1">
  <g id="patch_1">
   <path d="M 0 325.986375 
L 416.052813 325.986375 
L 416.052813 0 
L 0 0 
z
" style="fill: #ffffff"/>
  </g>
  <g id="axes_1">
   <g id="patch_2">
    <path d="M 43.78125 288.430125 
L 400.90125 288.430125 
L 400.90125 22.318125 
L 43.78125 22.318125 
z
" style="fill: #ffffff"/>
   </g>
   <g id="PolyCollection_1">
    <path d="M 69.072484 22.318125 
L 69.072484 22.318125 
L 72.928841 22.318125 
L 72.928841 22.318125 
L 83.26046 22.318125 
L 87.502637 22.318125 
L 99.362421 22.318125 
L 102.076433 22.318125 
L 114.231552 22.318125 
L 126.868157 22.318125 
L 140.991706 22.318125 
L 156.638622 22.318125 
L 174.945411 22.318125 
L 204.093002 22.318125 
L 233.240593 22.318125 
L 262.388185 22.318125 
L 306.109571 22.318125 
L 350.996804 40.43951 
L 379.871909 71.211904 
L 391.43388 105.841138 
L 400.418655 138.430701 
L 400.90125 162.173291 
L 400.90125 182.612495 
L 400.90125 199.679854 
L 400.90125 213.869234 
L 400.90125 225.901525 
L 400.90125 236.025203 
L 400.90125 244.409991 
L 400.90125 251.640565 
L 400.90125 257.617799 
L 400.90125 262.596713 
L 400.90125 266.766673 
L 400.90125 270.270004 
L 400.90125 273.229802 
L 400.90125 275.692818 
L 400.90125 277.758696 
L 400.90125 279.491783 
L 400.90125 280.942475 
L 400.90125 282.155876 
L 400.90125 283.174617 
L 400.90125 283.851451 
L 400.90125 281.690386 
L 400.90125 281.690386 
L 400.90125 280.672324 
L 400.90125 279.168531 
L 400.90125 277.37483 
L 400.90125 275.237714 
L 400.90125 272.678735 
L 400.90125 269.628232 
L 400.90125 265.992507 
L 400.90125 261.623466 
L 400.90125 256.452103 
L 400.90125 250.296709 
L 400.90125 242.931442 
L 400.90125 234.112667 
L 400.90125 223.450784 
L 400.90125 211.073767 
L 400.90125 196.129925 
L 400.90125 178.513117 
L 400.90125 157.423389 
L 400.90125 132.229786 
L 400.90125 101.789856 
L 400.418655 67.232374 
L 391.43388 45.155477 
L 379.871909 22.552716 
L 350.996804 16.574042 
L 306.109571 22.318125 
L 262.388185 22.318125 
L 233.240593 22.318125 
L 204.093002 22.318125 
L 174.945411 22.318125 
L 156.638622 22.318125 
L 140.991706 22.318125 
L 126.868157 22.318125 
L 114.231552 22.318125 
L 102.076433 22.318125 
L 99.362421 22.318125 
L 87.502637 22.318125 
L 83.26046 22.318125 
L 72.928841 22.318125 
L 72.928841 22.318125 
L 69.072484 22.318125 
z
" clip-path="url(#p7eabf9889e)" style="fill-opacity: 0.2"/>
   </g>
   <g id="PolyCollection_2">
    <path d="M 63.959978 22.318125 
L 63.959978 22.318125 
L 67.766419 22.318125 
L 67.766419 22.318125 
L 75.244545 22.318125 
L 79.759004 22.318125 
L 88.646392 22.318125 
L 91.751588 22.318125 
L 102.217109 22.318125 
L 111.591294 22.318125 
L 122.325918 22.318125 
L 136.206334 22.318125 
L 151.714511 22.318125 
L 175.69968 22.318125 
L 199.684849 22.318125 
L 223.670018 22.318125 
L 259.647772 22.318125 
L 306.413283 28.506776 
L 346.987508 46.88231 
L 374.597237 75.498307 
L 399.204375 102.831537 
L 400.90125 131.981573 
L 400.90125 157.42114 
L 400.90125 178.551622 
L 400.90125 196.191175 
L 400.90125 211.015725 
L 400.90125 223.549485 
L 400.90125 233.930387 
L 400.90125 242.876616 
L 400.90125 250.274621 
L 400.90125 256.446711 
L 400.90125 261.609388 
L 400.90125 265.946735 
L 400.90125 269.611155 
L 400.90125 272.660525 
L 400.90125 275.218715 
L 400.90125 277.364749 
L 400.90125 279.158652 
L 400.90125 280.662203 
L 400.90125 281.923471 
L 400.90125 282.770919 
L 400.90125 282.770919 
L 400.90125 282.770919 
L 400.90125 281.923471 
L 400.90125 280.662203 
L 400.90125 279.158652 
L 400.90125 277.364749 
L 400.90125 275.218715 
L 400.90125 272.660525 
L 400.90125 269.611155 
L 400.90125 265.946735 
L 400.90125 261.609388 
L 400.90125 256.446711 
L 400.90125 250.274621 
L 400.90125 242.876616 
L 400.90125 233.930387 
L 400.90125 223.549485 
L 400.90125 211.015725 
L 400.90125 196.191175 
L 400.90125 178.551622 
L 400.90125 157.42114 
L 400.90125 131.981573 
L 399.204375 102.831537 
L 374.597237 75.498307 
L 346.987508 46.88231 
L 306.413283 28.506776 
L 259.647772 22.318125 
L 223.670018 22.318125 
L 199.684849 22.318125 
L 175.69968 22.318125 
L 151.714511 22.318125 
L 136.206334 22.318125 
L 122.325918 22.318125 
L 111.591294 22.318125 
L 102.217109 22.318125 
L 91.751588 22.318125 
L 88.646392 22.318125 
L 79.759004 22.318125 
L 75.244545 22.318125 
L 67.766419 22.318125 
L 67.766419 22.318125 
L 63.959978 22.318125 
z
" clip-path="url(#p7eabf9889e)" style="fill: #ff0000; fill-opacity: 0.2"/>
   </g>
   <g id="PolyCollection_3">
    <path d="M 43.78125 22.318125 
L 43.78125 22.318125 
L 43.78125 22.318125 
L 43.78125 22.318125 
L 43.78125 22.318125 
L 43.78125 22.318125 
L 43.78125 22.318125 
L 43.78125 22.318125 
L 43.78125 22.318125 
L 43.78125 22.318125 
L 53.742498 22.318125 
L 122.281725 22.318125 
L 250.432285 22.318125 
L 352.888167 22.318125 
L 394.944519 26.539417 
L 399.41325 31.458397 
L 400.90125 64.155376 
L 400.90125 134.177018 
L 400.90125 200.016613 
L 400.90125 240.99435 
L 400.90125 259.287916 
L 400.90125 268.879672 
L 400.90125 273.840294 
L 400.90125 276.961982 
L 400.90125 278.87072 
L 400.90125 280.130722 
L 400.90125 281.049356 
L 400.90125 281.725318 
L 400.90125 282.207178 
L 400.90125 282.597731 
L 400.90125 282.886554 
L 400.90125 283.093304 
L 400.90125 283.23761 
L 400.90125 283.354359 
L 400.90125 283.458664 
L 400.90125 283.536522 
L 400.90125 283.59337 
L 400.90125 283.641135 
L 400.90125 283.684474 
L 400.90125 283.725657 
L 400.90125 283.759621 
L 400.90125 281.576435 
L 400.90125 281.576435 
L 400.90125 281.533736 
L 400.90125 281.466675 
L 400.90125 281.399446 
L 400.90125 281.319579 
L 400.90125 281.226407 
L 400.90125 281.125953 
L 400.90125 280.975349 
L 400.90125 280.771033 
L 400.90125 280.541919 
L 400.90125 280.242103 
L 400.90125 279.795124 
L 400.90125 279.249831 
L 400.90125 278.468372 
L 400.90125 277.451767 
L 400.90125 276.053466 
L 400.90125 274.154671 
L 400.90125 271.241661 
L 400.90125 266.788083 
L 400.90125 258.765913 
L 400.90125 245.012746 
L 400.90125 216.138893 
L 400.90125 160.848215 
L 400.90125 85.884748 
L 400.90125 39.481706 
L 399.41325 21.898271 
L 394.944519 20.314433 
L 352.888167 22.318125 
L 250.432285 22.318125 
L 122.281725 22.318125 
L 53.742498 22.318125 
L 43.78125 22.318125 
L 43.78125 22.318125 
L 43.78125 22.318125 
L 43.78125 22.318125 
L 43.78125 22.318125 
L 43.78125 22.318125 
L 43.78125 22.318125 
L 43.78125 22.318125 
L 43.78125 22.318125 
z
" clip-path="url(#p7eabf9889e)" style="fill: #bf00bf; fill-opacity: 0.2"/>
   </g>
   <g id="PolyCollection_4">
    <path d="M 43.78125 22.318125 
L 43.78125 22.318125 
L 43.78125 22.318125 
L 43.78125 22.318125 
L 43.78125 22.318125 
L 43.78125 22.318125 
L 43.78125 22.318125 
L 43.78125 22.318125 
L 43.78125 22.318125 
L 43.78125 22.318125 
L 39.290459 22.318125 
L 67.512458 22.318125 
L 193.152464 22.318125 
L 322.747963 22.318125 
L 386.69311 23.426925 
L 395.924318 26.678334 
L 400.90125 51.818541 
L 400.90125 110.030883 
L 400.90125 180.432414 
L 400.90125 228.566621 
L 400.90125 252.150331 
L 400.90125 263.822792 
L 400.90125 270.314189 
L 400.90125 274.101821 
L 400.90125 276.512696 
L 400.90125 278.092094 
L 400.90125 279.250561 
L 400.90125 280.096845 
L 400.90125 280.728504 
L 400.90125 281.196428 
L 400.90125 281.564328 
L 400.90125 281.817611 
L 400.90125 282.004322 
L 400.90125 282.164854 
L 400.90125 282.292308 
L 400.90125 282.381465 
L 400.90125 282.456475 
L 400.90125 282.520291 
L 400.90125 282.575575 
L 400.90125 282.629697 
L 400.90125 282.668028 
L 400.90125 282.668028 
L 400.90125 282.668028 
L 400.90125 282.629697 
L 400.90125 282.575575 
L 400.90125 282.520291 
L 400.90125 282.456475 
L 400.90125 282.381465 
L 400.90125 282.292308 
L 400.90125 282.164854 
L 400.90125 282.004322 
L 400.90125 281.817611 
L 400.90125 281.564328 
L 400.90125 281.196428 
L 400.90125 280.728504 
L 400.90125 280.096845 
L 400.90125 279.250561 
L 400.90125 278.092094 
L 400.90125 276.512696 
L 400.90125 274.101821 
L 400.90125 270.314189 
L 400.90125 263.822792 
L 400.90125 252.150331 
L 400.90125 228.566621 
L 400.90125 180.432414 
L 400.90125 110.030883 
L 400.90125 51.818541 
L 395.924318 26.678334 
L 386.69311 23.426925 
L 322.747963 22.318125 
L 193.152464 22.318125 
L 67.512458 22.318125 
L 39.290459 22.318125 
L 43.78125 22.318125 
L 43.78125 22.318125 
L 43.78125 22.318125 
L 43.78125 22.318125 
L 43.78125 22.318125 
L 43.78125 22.318125 
L 43.78125 22.318125 
L 43.78125 22.318125 
L 43.78125 22.318125 
z
" clip-path="url(#p7eabf9889e)" style="fill: #006400; fill-opacity: 0.2"/>
   </g>
   <g id="PolyCollection_5">
    <path d="M 400.90125 280.635749 
L 400.90125 283.219041 
L 400.90125 283.081856 
L 400.90125 282.905385 
L 400.90125 282.643866 
L 400.90125 282.360179 
L 400.90125 281.947518 
L 400.90125 281.440232 
L 400.90125 280.723321 
L 400.90125 279.731644 
L 400.90125 278.423549 
L 400.90125 276.437203 
L 400.90125 273.24124 
L 400.90125 268.281519 
L 400.90125 258.893789 
L 400.90125 240.351441 
L 400.90125 197.598806 
L 400.90125 131.19194 
L 400.90125 69.614564 
L 393.707016 36.42403 
L 381.273492 22.318125 
L 324.683093 22.318125 
L 235.363452 22.318125 
L 123.464737 22.318125 
L 74.092692 22.318125 
L 45.56685 22.318125 
L 43.78125 22.318125 
L 43.78125 22.318125 
L 43.78125 22.318125 
L 43.78125 22.318125 
L 43.78125 22.318125 
L 43.78125 22.318125 
L 43.78125 22.318125 
L 43.78125 22.318125 
L 43.78125 22.318125 
L 43.78125 22.318125 
L 43.78125 22.318125 
L 43.78125 22.318125 
L 43.78125 22.318125 
L 43.78125 22.318125 
L 43.78125 22.318125 
L 43.78125 22.318125 
L 43.78125 22.318125 
L 43.78125 22.318125 
L 43.78125 22.318125 
L 43.78125 22.318125 
L 43.78125 22.318125 
L 43.78125 22.318125 
L 43.78125 22.318125 
L 43.78125 22.318125 
L 43.78125 22.318125 
L 43.78125 22.318125 
L 43.78125 22.318125 
L 43.78125 22.318125 
L 43.78125 22.318125 
L 43.78125 22.318125 
L 43.78125 22.318125 
L 45.56685 22.318125 
L 74.092692 22.318125 
L 123.464737 22.318125 
L 235.363452 22.318125 
L 324.683093 22.318125 
L 381.273492 22.318125 
L 393.707016 19.622429 
L 400.90125 25.904386 
L 400.90125 66.020869 
L 400.90125 128.62742 
L 400.90125 188.582239 
L 400.90125 228.608731 
L 400.90125 250.776341 
L 400.90125 261.288358 
L 400.90125 267.780951 
L 400.90125 271.55455 
L 400.90125 274.14523 
L 400.90125 276.040621 
L 400.90125 277.25957 
L 400.90125 278.360875 
L 400.90125 279.076451 
L 400.90125 279.593732 
L 400.90125 280.002437 
L 400.90125 280.366561 
L 400.90125 280.635749 
z
" clip-path="url(#p7eabf9889e)" style="fill-opacity: 0.2"/>
   </g>
   <g id="PolyCollection_6">
    <path d="M 400.90125 281.927395 
L 400.90125 281.927395 
L 400.90125 281.724208 
L 400.90125 281.453911 
L 400.90125 281.118799 
L 400.90125 280.718315 
L 400.90125 280.154197 
L 400.90125 279.349901 
L 400.90125 278.381971 
L 400.90125 276.938437 
L 400.90125 274.98905 
L 400.90125 272.109077 
L 400.90125 267.264799 
L 400.90125 259.52893 
L 400.90125 243.75126 
L 400.90125 214.46684 
L 400.90125 163.113113 
L 400.90125 98.606404 
L 400.90125 47.759475 
L 383.875833 28.02323 
L 359.488041 22.318125 
L 267.090753 22.318125 
L 151.420485 22.318125 
L 43.040562 22.318125 
L 25.972459 22.318125 
L 40.755141 22.318125 
L 43.78125 22.318125 
L 43.78125 22.318125 
L 43.78125 22.318125 
L 43.78125 22.318125 
L 43.78125 22.318125 
L 43.78125 22.318125 
L 43.78125 22.318125 
L 43.78125 22.318125 
L 43.78125 22.318125 
L 43.78125 22.318125 
L 43.78125 22.318125 
L 43.78125 22.318125 
L 43.78125 22.318125 
L 43.78125 22.318125 
L 43.78125 22.318125 
L 43.78125 22.318125 
L 43.78125 22.318125 
L 43.78125 22.318125 
L 43.78125 22.318125 
L 43.78125 22.318125 
L 43.78125 22.318125 
L 43.78125 22.318125 
L 43.78125 22.318125 
L 43.78125 22.318125 
L 43.78125 22.318125 
L 43.78125 22.318125 
L 43.78125 22.318125 
L 43.78125 22.318125 
L 43.78125 22.318125 
L 43.78125 22.318125 
L 43.78125 22.318125 
L 40.755141 22.318125 
L 25.972459 22.318125 
L 43.040562 22.318125 
L 151.420485 22.318125 
L 267.090753 22.318125 
L 359.488041 22.318125 
L 383.875833 28.02323 
L 400.90125 47.759475 
L 400.90125 98.606404 
L 400.90125 163.113113 
L 400.90125 214.46684 
L 400.90125 243.75126 
L 400.90125 259.52893 
L 400.90125 267.264799 
L 400.90125 272.109077 
L 400.90125 274.98905 
L 400.90125 276.938437 
L 400.90125 278.381971 
L 400.90125 279.349901 
L 400.90125 280.154197 
L 400.90125 280.718315 
L 400.90125 281.118799 
L 400.90125 281.453911 
L 400.90125 281.724208 
L 400.90125 281.927395 
z
" clip-path="url(#p7eabf9889e)" style="fill: #ff0000; fill-opacity: 0.2"/>
   </g>
   <g id="matplotlib.axis_1">
    <g id="xtick_1">
     <g id="line2d_1">
      <defs>
       <path id="mc1bf32648e" d="M 0 0 
L 0 3.5 
" style="stroke: #000000; stroke-width: 0.8"/>
      </defs>
      <g>
       <use xlink:href="#mc1bf32648e" x="43.78125" y="288.430125" style="stroke: #000000; stroke-width: 0.8"/>
      </g>
     </g>
     <g id="text_1">
      <!-- 0.0 -->
      <g transform="translate(35.829688 303.028562) scale(0.1 -0.1)">
       <defs>
        <path id="DejaVuSans-30" d="M 2034 4250 
Q 1547 4250 1301 3770 
Q 1056 3291 1056 2328 
Q 1056 1369 1301 889 
Q 1547 409 2034 409 
Q 2525 409 2770 889 
Q 3016 1369 3016 2328 
Q 3016 3291 2770 3770 
Q 2525 4250 2034 4250 
z
M 2034 4750 
Q 2819 4750 3233 4129 
Q 3647 3509 3647 2328 
Q 3647 1150 3233 529 
Q 2819 -91 2034 -91 
Q 1250 -91 836 529 
Q 422 1150 422 2328 
Q 422 3509 836 4129 
Q 1250 4750 2034 4750 
z
" transform="scale(0.015625)"/>
        <path id="DejaVuSans-2e" d="M 684 794 
L 1344 794 
L 1344 0 
L 684 0 
L 684 794 
z
" transform="scale(0.015625)"/>
       </defs>
       <use xlink:href="#DejaVuSans-30"/>
       <use xlink:href="#DejaVuSans-2e" x="63.623047"/>
       <use xlink:href="#DejaVuSans-30" x="95.410156"/>
      </g>
     </g>
    </g>
    <g id="xtick_2">
     <g id="line2d_2">
      <g>
       <use xlink:href="#mc1bf32648e" x="115.20525" y="288.430125" style="stroke: #000000; stroke-width: 0.8"/>
      </g>
     </g>
     <g id="text_2">
      <!-- 0.2 -->
      <g transform="translate(107.253688 303.028562) scale(0.1 -0.1)">
       <defs>
        <path id="DejaVuSans-32" d="M 1228 531 
L 3431 531 
L 3431 0 
L 469 0 
L 469 531 
Q 828 903 1448 1529 
Q 2069 2156 2228 2338 
Q 2531 2678 2651 2914 
Q 2772 3150 2772 3378 
Q 2772 3750 2511 3984 
Q 2250 4219 1831 4219 
Q 1534 4219 1204 4116 
Q 875 4013 500 3803 
L 500 4441 
Q 881 4594 1212 4672 
Q 1544 4750 1819 4750 
Q 2544 4750 2975 4387 
Q 3406 4025 3406 3419 
Q 3406 3131 3298 2873 
Q 3191 2616 2906 2266 
Q 2828 2175 2409 1742 
Q 1991 1309 1228 531 
z
" transform="scale(0.015625)"/>
       </defs>
       <use xlink:href="#DejaVuSans-30"/>
       <use xlink:href="#DejaVuSans-2e" x="63.623047"/>
       <use xlink:href="#DejaVuSans-32" x="95.410156"/>
      </g>
     </g>
    </g>
    <g id="xtick_3">
     <g id="line2d_3">
      <g>
       <use xlink:href="#mc1bf32648e" x="186.62925" y="288.430125" style="stroke: #000000; stroke-width: 0.8"/>
      </g>
     </g>
     <g id="text_3">
      <!-- 0.4 -->
      <g transform="translate(178.677688 303.028562) scale(0.1 -0.1)">
       <defs>
        <path id="DejaVuSans-34" d="M 2419 4116 
L 825 1625 
L 2419 1625 
L 2419 4116 
z
M 2253 4666 
L 3047 4666 
L 3047 1625 
L 3713 1625 
L 3713 1100 
L 3047 1100 
L 3047 0 
L 2419 0 
L 2419 1100 
L 313 1100 
L 313 1709 
L 2253 4666 
z
" transform="scale(0.015625)"/>
       </defs>
       <use xlink:href="#DejaVuSans-30"/>
       <use xlink:href="#DejaVuSans-2e" x="63.623047"/>
       <use xlink:href="#DejaVuSans-34" x="95.410156"/>
      </g>
     </g>
    </g>
    <g id="xtick_4">
     <g id="line2d_4">
      <g>
       <use xlink:href="#mc1bf32648e" x="258.05325" y="288.430125" style="stroke: #000000; stroke-width: 0.8"/>
      </g>
     </g>
     <g id="text_4">
      <!-- 0.6 -->
      <g transform="translate(250.101688 303.028562) scale(0.1 -0.1)">
       <defs>
        <path id="DejaVuSans-36" d="M 2113 2584 
Q 1688 2584 1439 2293 
Q 1191 2003 1191 1497 
Q 1191 994 1439 701 
Q 1688 409 2113 409 
Q 2538 409 2786 701 
Q 3034 994 3034 1497 
Q 3034 2003 2786 2293 
Q 2538 2584 2113 2584 
z
M 3366 4563 
L 3366 3988 
Q 3128 4100 2886 4159 
Q 2644 4219 2406 4219 
Q 1781 4219 1451 3797 
Q 1122 3375 1075 2522 
Q 1259 2794 1537 2939 
Q 1816 3084 2150 3084 
Q 2853 3084 3261 2657 
Q 3669 2231 3669 1497 
Q 3669 778 3244 343 
Q 2819 -91 2113 -91 
Q 1303 -91 875 529 
Q 447 1150 447 2328 
Q 447 3434 972 4092 
Q 1497 4750 2381 4750 
Q 2619 4750 2861 4703 
Q 3103 4656 3366 4563 
z
" transform="scale(0.015625)"/>
       </defs>
       <use xlink:href="#DejaVuSans-30"/>
       <use xlink:href="#DejaVuSans-2e" x="63.623047"/>
       <use xlink:href="#DejaVuSans-36" x="95.410156"/>
      </g>
     </g>
    </g>
    <g id="xtick_5">
     <g id="line2d_5">
      <g>
       <use xlink:href="#mc1bf32648e" x="329.47725" y="288.430125" style="stroke: #000000; stroke-width: 0.8"/>
      </g>
     </g>
     <g id="text_5">
      <!-- 0.8 -->
      <g transform="translate(321.525688 303.028562) scale(0.1 -0.1)">
       <defs>
        <path id="DejaVuSans-38" d="M 2034 2216 
Q 1584 2216 1326 1975 
Q 1069 1734 1069 1313 
Q 1069 891 1326 650 
Q 1584 409 2034 409 
Q 2484 409 2743 651 
Q 3003 894 3003 1313 
Q 3003 1734 2745 1975 
Q 2488 2216 2034 2216 
z
M 1403 2484 
Q 997 2584 770 2862 
Q 544 3141 544 3541 
Q 544 4100 942 4425 
Q 1341 4750 2034 4750 
Q 2731 4750 3128 4425 
Q 3525 4100 3525 3541 
Q 3525 3141 3298 2862 
Q 3072 2584 2669 2484 
Q 3125 2378 3379 2068 
Q 3634 1759 3634 1313 
Q 3634 634 3220 271 
Q 2806 -91 2034 -91 
Q 1263 -91 848 271 
Q 434 634 434 1313 
Q 434 1759 690 2068 
Q 947 2378 1403 2484 
z
M 1172 3481 
Q 1172 3119 1398 2916 
Q 1625 2713 2034 2713 
Q 2441 2713 2670 2916 
Q 2900 3119 2900 3481 
Q 2900 3844 2670 4047 
Q 2441 4250 2034 4250 
Q 1625 4250 1398 4047 
Q 1172 3844 1172 3481 
z
" transform="scale(0.015625)"/>
       </defs>
       <use xlink:href="#DejaVuSans-30"/>
       <use xlink:href="#DejaVuSans-2e" x="63.623047"/>
       <use xlink:href="#DejaVuSans-38" x="95.410156"/>
      </g>
     </g>
    </g>
    <g id="xtick_6">
     <g id="line2d_6">
      <g>
       <use xlink:href="#mc1bf32648e" x="400.90125" y="288.430125" style="stroke: #000000; stroke-width: 0.8"/>
      </g>
     </g>
     <g id="text_6">
      <!-- 1.0 -->
      <g transform="translate(392.949687 303.028562) scale(0.1 -0.1)">
       <defs>
        <path id="DejaVuSans-31" d="M 794 531 
L 1825 531 
L 1825 4091 
L 703 3866 
L 703 4441 
L 1819 4666 
L 2450 4666 
L 2450 531 
L 3481 531 
L 3481 0 
L 794 0 
L 794 531 
z
" transform="scale(0.015625)"/>
       </defs>
       <use xlink:href="#DejaVuSans-31"/>
       <use xlink:href="#DejaVuSans-2e" x="63.623047"/>
       <use xlink:href="#DejaVuSans-30" x="95.410156"/>
      </g>
     </g>
    </g>
    <g id="text_7">
     <!-- Recall -->
     <g transform="translate(207.424062 316.706687) scale(0.1 -0.1)">
      <defs>
       <path id="DejaVuSans-52" d="M 2841 2188 
Q 3044 2119 3236 1894 
Q 3428 1669 3622 1275 
L 4263 0 
L 3584 0 
L 2988 1197 
Q 2756 1666 2539 1819 
Q 2322 1972 1947 1972 
L 1259 1972 
L 1259 0 
L 628 0 
L 628 4666 
L 2053 4666 
Q 2853 4666 3247 4331 
Q 3641 3997 3641 3322 
Q 3641 2881 3436 2590 
Q 3231 2300 2841 2188 
z
M 1259 4147 
L 1259 2491 
L 2053 2491 
Q 2509 2491 2742 2702 
Q 2975 2913 2975 3322 
Q 2975 3731 2742 3939 
Q 2509 4147 2053 4147 
L 1259 4147 
z
" transform="scale(0.015625)"/>
       <path id="DejaVuSans-65" d="M 3597 1894 
L 3597 1613 
L 953 1613 
Q 991 1019 1311 708 
Q 1631 397 2203 397 
Q 2534 397 2845 478 
Q 3156 559 3463 722 
L 3463 178 
Q 3153 47 2828 -22 
Q 2503 -91 2169 -91 
Q 1331 -91 842 396 
Q 353 884 353 1716 
Q 353 2575 817 3079 
Q 1281 3584 2069 3584 
Q 2775 3584 3186 3129 
Q 3597 2675 3597 1894 
z
M 3022 2063 
Q 3016 2534 2758 2815 
Q 2500 3097 2075 3097 
Q 1594 3097 1305 2825 
Q 1016 2553 972 2059 
L 3022 2063 
z
" transform="scale(0.015625)"/>
       <path id="DejaVuSans-63" d="M 3122 3366 
L 3122 2828 
Q 2878 2963 2633 3030 
Q 2388 3097 2138 3097 
Q 1578 3097 1268 2742 
Q 959 2388 959 1747 
Q 959 1106 1268 751 
Q 1578 397 2138 397 
Q 2388 397 2633 464 
Q 2878 531 3122 666 
L 3122 134 
Q 2881 22 2623 -34 
Q 2366 -91 2075 -91 
Q 1284 -91 818 406 
Q 353 903 353 1747 
Q 353 2603 823 3093 
Q 1294 3584 2113 3584 
Q 2378 3584 2631 3529 
Q 2884 3475 3122 3366 
z
" transform="scale(0.015625)"/>
       <path id="DejaVuSans-61" d="M 2194 1759 
Q 1497 1759 1228 1600 
Q 959 1441 959 1056 
Q 959 750 1161 570 
Q 1363 391 1709 391 
Q 2188 391 2477 730 
Q 2766 1069 2766 1631 
L 2766 1759 
L 2194 1759 
z
M 3341 1997 
L 3341 0 
L 2766 0 
L 2766 531 
Q 2569 213 2275 61 
Q 1981 -91 1556 -91 
Q 1019 -91 701 211 
Q 384 513 384 1019 
Q 384 1609 779 1909 
Q 1175 2209 1959 2209 
L 2766 2209 
L 2766 2266 
Q 2766 2663 2505 2880 
Q 2244 3097 1772 3097 
Q 1472 3097 1187 3025 
Q 903 2953 641 2809 
L 641 3341 
Q 956 3463 1253 3523 
Q 1550 3584 1831 3584 
Q 2591 3584 2966 3190 
Q 3341 2797 3341 1997 
z
" transform="scale(0.015625)"/>
       <path id="DejaVuSans-6c" d="M 603 4863 
L 1178 4863 
L 1178 0 
L 603 0 
L 603 4863 
z
" transform="scale(0.015625)"/>
      </defs>
      <use xlink:href="#DejaVuSans-52"/>
      <use xlink:href="#DejaVuSans-65" x="64.982422"/>
      <use xlink:href="#DejaVuSans-63" x="126.505859"/>
      <use xlink:href="#DejaVuSans-61" x="181.486328"/>
      <use xlink:href="#DejaVuSans-6c" x="242.765625"/>
      <use xlink:href="#DejaVuSans-6c" x="270.548828"/>
     </g>
    </g>
   </g>
   <g id="matplotlib.axis_2">
    <g id="ytick_1">
     <g id="line2d_7">
      <defs>
       <path id="m5ef36f7255" d="M 0 0 
L -3.5 0 
" style="stroke: #000000; stroke-width: 0.8"/>
      </defs>
      <g>
       <use xlink:href="#m5ef36f7255" x="43.78125" y="288.430125" style="stroke: #000000; stroke-width: 0.8"/>
      </g>
     </g>
     <g id="text_8">
      <!-- 0.0 -->
      <g transform="translate(20.878125 292.229344) scale(0.1 -0.1)">
       <use xlink:href="#DejaVuSans-30"/>
       <use xlink:href="#DejaVuSans-2e" x="63.623047"/>
       <use xlink:href="#DejaVuSans-30" x="95.410156"/>
      </g>
     </g>
    </g>
    <g id="ytick_2">
     <g id="line2d_8">
      <g>
       <use xlink:href="#m5ef36f7255" x="43.78125" y="235.207725" style="stroke: #000000; stroke-width: 0.8"/>
      </g>
     </g>
     <g id="text_9">
      <!-- 0.2 -->
      <g transform="translate(20.878125 239.006944) scale(0.1 -0.1)">
       <use xlink:href="#DejaVuSans-30"/>
       <use xlink:href="#DejaVuSans-2e" x="63.623047"/>
       <use xlink:href="#DejaVuSans-32" x="95.410156"/>
      </g>
     </g>
    </g>
    <g id="ytick_3">
     <g id="line2d_9">
      <g>
       <use xlink:href="#m5ef36f7255" x="43.78125" y="181.985325" style="stroke: #000000; stroke-width: 0.8"/>
      </g>
     </g>
     <g id="text_10">
      <!-- 0.4 -->
      <g transform="translate(20.878125 185.784544) scale(0.1 -0.1)">
       <use xlink:href="#DejaVuSans-30"/>
       <use xlink:href="#DejaVuSans-2e" x="63.623047"/>
       <use xlink:href="#DejaVuSans-34" x="95.410156"/>
      </g>
     </g>
    </g>
    <g id="ytick_4">
     <g id="line2d_10">
      <g>
       <use xlink:href="#m5ef36f7255" x="43.78125" y="128.762925" style="stroke: #000000; stroke-width: 0.8"/>
      </g>
     </g>
     <g id="text_11">
      <!-- 0.6 -->
      <g transform="translate(20.878125 132.562144) scale(0.1 -0.1)">
       <use xlink:href="#DejaVuSans-30"/>
       <use xlink:href="#DejaVuSans-2e" x="63.623047"/>
       <use xlink:href="#DejaVuSans-36" x="95.410156"/>
      </g>
     </g>
    </g>
    <g id="ytick_5">
     <g id="line2d_11">
      <g>
       <use xlink:href="#m5ef36f7255" x="43.78125" y="75.540525" style="stroke: #000000; stroke-width: 0.8"/>
      </g>
     </g>
     <g id="text_12">
      <!-- 0.8 -->
      <g transform="translate(20.878125 79.339744) scale(0.1 -0.1)">
       <use xlink:href="#DejaVuSans-30"/>
       <use xlink:href="#DejaVuSans-2e" x="63.623047"/>
       <use xlink:href="#DejaVuSans-38" x="95.410156"/>
      </g>
     </g>
    </g>
    <g id="ytick_6">
     <g id="line2d_12">
      <g>
       <use xlink:href="#m5ef36f7255" x="43.78125" y="22.318125" style="stroke: #000000; stroke-width: 0.8"/>
      </g>
     </g>
     <g id="text_13">
      <!-- 1.0 -->
      <g transform="translate(20.878125 26.117344) scale(0.1 -0.1)">
       <use xlink:href="#DejaVuSans-31"/>
       <use xlink:href="#DejaVuSans-2e" x="63.623047"/>
       <use xlink:href="#DejaVuSans-30" x="95.410156"/>
      </g>
     </g>
    </g>
    <g id="text_14">
     <!-- Precision -->
     <g transform="translate(14.798438 177.681156) rotate(-90) scale(0.1 -0.1)">
      <defs>
       <path id="DejaVuSans-50" d="M 1259 4147 
L 1259 2394 
L 2053 2394 
Q 2494 2394 2734 2622 
Q 2975 2850 2975 3272 
Q 2975 3691 2734 3919 
Q 2494 4147 2053 4147 
L 1259 4147 
z
M 628 4666 
L 2053 4666 
Q 2838 4666 3239 4311 
Q 3641 3956 3641 3272 
Q 3641 2581 3239 2228 
Q 2838 1875 2053 1875 
L 1259 1875 
L 1259 0 
L 628 0 
L 628 4666 
z
" transform="scale(0.015625)"/>
       <path id="DejaVuSans-72" d="M 2631 2963 
Q 2534 3019 2420 3045 
Q 2306 3072 2169 3072 
Q 1681 3072 1420 2755 
Q 1159 2438 1159 1844 
L 1159 0 
L 581 0 
L 581 3500 
L 1159 3500 
L 1159 2956 
Q 1341 3275 1631 3429 
Q 1922 3584 2338 3584 
Q 2397 3584 2469 3576 
Q 2541 3569 2628 3553 
L 2631 2963 
z
" transform="scale(0.015625)"/>
       <path id="DejaVuSans-69" d="M 603 3500 
L 1178 3500 
L 1178 0 
L 603 0 
L 603 3500 
z
M 603 4863 
L 1178 4863 
L 1178 4134 
L 603 4134 
L 603 4863 
z
" transform="scale(0.015625)"/>
       <path id="DejaVuSans-73" d="M 2834 3397 
L 2834 2853 
Q 2591 2978 2328 3040 
Q 2066 3103 1784 3103 
Q 1356 3103 1142 2972 
Q 928 2841 928 2578 
Q 928 2378 1081 2264 
Q 1234 2150 1697 2047 
L 1894 2003 
Q 2506 1872 2764 1633 
Q 3022 1394 3022 966 
Q 3022 478 2636 193 
Q 2250 -91 1575 -91 
Q 1294 -91 989 -36 
Q 684 19 347 128 
L 347 722 
Q 666 556 975 473 
Q 1284 391 1588 391 
Q 1994 391 2212 530 
Q 2431 669 2431 922 
Q 2431 1156 2273 1281 
Q 2116 1406 1581 1522 
L 1381 1569 
Q 847 1681 609 1914 
Q 372 2147 372 2553 
Q 372 3047 722 3315 
Q 1072 3584 1716 3584 
Q 2034 3584 2315 3537 
Q 2597 3491 2834 3397 
z
" transform="scale(0.015625)"/>
       <path id="DejaVuSans-6f" d="M 1959 3097 
Q 1497 3097 1228 2736 
Q 959 2375 959 1747 
Q 959 1119 1226 758 
Q 1494 397 1959 397 
Q 2419 397 2687 759 
Q 2956 1122 2956 1747 
Q 2956 2369 2687 2733 
Q 2419 3097 1959 3097 
z
M 1959 3584 
Q 2709 3584 3137 3096 
Q 3566 2609 3566 1747 
Q 3566 888 3137 398 
Q 2709 -91 1959 -91 
Q 1206 -91 779 398 
Q 353 888 353 1747 
Q 353 2609 779 3096 
Q 1206 3584 1959 3584 
z
" transform="scale(0.015625)"/>
       <path id="DejaVuSans-6e" d="M 3513 2113 
L 3513 0 
L 2938 0 
L 2938 2094 
Q 2938 2591 2744 2837 
Q 2550 3084 2163 3084 
Q 1697 3084 1428 2787 
Q 1159 2491 1159 1978 
L 1159 0 
L 581 0 
L 581 3500 
L 1159 3500 
L 1159 2956 
Q 1366 3272 1645 3428 
Q 1925 3584 2291 3584 
Q 2894 3584 3203 3211 
Q 3513 2838 3513 2113 
z
" transform="scale(0.015625)"/>
      </defs>
      <use xlink:href="#DejaVuSans-50"/>
      <use xlink:href="#DejaVuSans-72" x="58.552734"/>
      <use xlink:href="#DejaVuSans-65" x="97.416016"/>
      <use xlink:href="#DejaVuSans-63" x="158.939453"/>
      <use xlink:href="#DejaVuSans-69" x="213.919922"/>
      <use xlink:href="#DejaVuSans-73" x="241.703125"/>
      <use xlink:href="#DejaVuSans-69" x="293.802734"/>
      <use xlink:href="#DejaVuSans-6f" x="321.585938"/>
      <use xlink:href="#DejaVuSans-6e" x="382.767578"/>
     </g>
    </g>
   </g>
   <g id="line2d_13">
    <path d="M 69.072484 22.318125 
L 72.928841 22.318125 
L 72.928841 22.318125 
L 83.26046 22.318125 
L 87.502637 22.318125 
L 99.362421 22.318125 
L 102.076433 22.318125 
L 114.231552 22.318125 
L 126.868157 22.318125 
L 140.991706 22.318125 
L 156.638622 22.318125 
L 174.945411 22.318125 
L 204.093002 22.318125 
L 233.240593 22.318125 
L 262.388185 22.318125 
L 306.109571 22.318125 
L 350.996804 28.506776 
L 379.871909 46.88231 
L 391.43388 75.498307 
L 400.418655 102.831537 
L 400.90125 131.981573 
L 400.90125 157.42114 
L 400.90125 178.551622 
L 400.90125 196.191175 
L 400.90125 211.015725 
L 400.90125 223.549485 
L 400.90125 233.930387 
L 400.90125 242.876616 
L 400.90125 250.274621 
L 400.90125 256.446711 
L 400.90125 261.609388 
L 400.90125 265.946735 
L 400.90125 269.611155 
L 400.90125 272.660525 
L 400.90125 275.218715 
L 400.90125 277.364749 
L 400.90125 279.158652 
L 400.90125 280.662203 
L 400.90125 281.923471 
L 400.90125 282.770919 
" clip-path="url(#p7eabf9889e)" style="fill: none; stroke: #000000; stroke-width: 1.5; stroke-linecap: square"/>
   </g>
   <g id="line2d_14">
    <path d="M 43.78125 22.318125 
L 43.78125 22.318125 
L 43.78125 22.318125 
L 43.78125 22.318125 
L 43.78125 22.318125 
L 43.78125 22.318125 
L 43.78125 22.318125 
L 43.78125 22.318125 
L 43.78125 22.318125 
L 53.742498 22.318125 
L 122.281725 22.318125 
L 250.432285 22.318125 
L 352.888167 22.318125 
L 394.944519 23.426925 
L 399.41325 26.678334 
L 400.90125 51.818541 
L 400.90125 110.030883 
L 400.90125 180.432414 
L 400.90125 228.566621 
L 400.90125 252.150331 
L 400.90125 263.822792 
L 400.90125 270.314189 
L 400.90125 274.101821 
L 400.90125 276.512696 
L 400.90125 278.092094 
L 400.90125 279.250561 
L 400.90125 280.096845 
L 400.90125 280.728504 
L 400.90125 281.196428 
L 400.90125 281.564328 
L 400.90125 281.817611 
L 400.90125 282.004322 
L 400.90125 282.164854 
L 400.90125 282.292308 
L 400.90125 282.381465 
L 400.90125 282.456475 
L 400.90125 282.520291 
L 400.90125 282.575575 
L 400.90125 282.629697 
L 400.90125 282.668028 
" clip-path="url(#p7eabf9889e)" style="fill: none; stroke-dasharray: 5.55,2.4; stroke-dashoffset: 0; stroke: #ff0000; stroke-width: 1.5"/>
   </g>
   <g id="line2d_15">
    <path d="M 400.90125 281.927395 
L 400.90125 281.724208 
L 400.90125 281.453911 
L 400.90125 281.118799 
L 400.90125 280.718315 
L 400.90125 280.154197 
L 400.90125 279.349901 
L 400.90125 278.381971 
L 400.90125 276.938437 
L 400.90125 274.98905 
L 400.90125 272.109077 
L 400.90125 267.264799 
L 400.90125 259.52893 
L 400.90125 243.75126 
L 400.90125 214.46684 
L 400.90125 163.113113 
L 400.90125 98.606404 
L 400.90125 47.759475 
L 393.707016 28.02323 
L 381.273492 22.318125 
L 324.683093 22.318125 
L 235.363452 22.318125 
L 123.464737 22.318125 
L 74.092692 22.318125 
L 45.56685 22.318125 
L 43.78125 22.318125 
L 43.78125 22.318125 
L 43.78125 22.318125 
L 43.78125 22.318125 
L 43.78125 22.318125 
L 43.78125 22.318125 
L 43.78125 22.318125 
L 43.78125 22.318125 
L 43.78125 22.318125 
L 43.78125 22.318125 
L 43.78125 22.318125 
L 43.78125 22.318125 
L 43.78125 22.318125 
L 43.78125 22.318125 
L 43.78125 22.318125 
" clip-path="url(#p7eabf9889e)" style="fill: none; stroke-dasharray: 9.6,2.4,1.5,2.4; stroke-dashoffset: 0; stroke: #bf00bf; stroke-width: 1.5"/>
   </g>
   <g id="patch_3">
    <path d="M 43.78125 288.430125 
L 43.78125 22.318125 
" style="fill: none; stroke: #000000; stroke-width: 0.8; stroke-linejoin: miter; stroke-linecap: square"/>
   </g>
   <g id="patch_4">
    <path d="M 43.78125 288.430125 
L 400.90125 288.430125 
" style="fill: none; stroke: #000000; stroke-width: 0.8; stroke-linejoin: miter; stroke-linecap: square"/>
   </g>
   <g id="text_15">
    <!-- PR Curve on 50x50 Tensors [20 samples; 2% edges] -->
    <g transform="translate(65.85 16.318125) scale(0.12 -0.12)">
     <defs>
      <path id="DejaVuSans-20" transform="scale(0.015625)"/>
      <path id="DejaVuSans-43" d="M 4122 4306 
L 4122 3641 
Q 3803 3938 3442 4084 
Q 3081 4231 2675 4231 
Q 1875 4231 1450 3742 
Q 1025 3253 1025 2328 
Q 1025 1406 1450 917 
Q 1875 428 2675 428 
Q 3081 428 3442 575 
Q 3803 722 4122 1019 
L 4122 359 
Q 3791 134 3420 21 
Q 3050 -91 2638 -91 
Q 1578 -91 968 557 
Q 359 1206 359 2328 
Q 359 3453 968 4101 
Q 1578 4750 2638 4750 
Q 3056 4750 3426 4639 
Q 3797 4528 4122 4306 
z
" transform="scale(0.015625)"/>
      <path id="DejaVuSans-75" d="M 544 1381 
L 544 3500 
L 1119 3500 
L 1119 1403 
Q 1119 906 1312 657 
Q 1506 409 1894 409 
Q 2359 409 2629 706 
Q 2900 1003 2900 1516 
L 2900 3500 
L 3475 3500 
L 3475 0 
L 2900 0 
L 2900 538 
Q 2691 219 2414 64 
Q 2138 -91 1772 -91 
Q 1169 -91 856 284 
Q 544 659 544 1381 
z
M 1991 3584 
L 1991 3584 
z
" transform="scale(0.015625)"/>
      <path id="DejaVuSans-76" d="M 191 3500 
L 800 3500 
L 1894 563 
L 2988 3500 
L 3597 3500 
L 2284 0 
L 1503 0 
L 191 3500 
z
" transform="scale(0.015625)"/>
      <path id="DejaVuSans-35" d="M 691 4666 
L 3169 4666 
L 3169 4134 
L 1269 4134 
L 1269 2991 
Q 1406 3038 1543 3061 
Q 1681 3084 1819 3084 
Q 2600 3084 3056 2656 
Q 3513 2228 3513 1497 
Q 3513 744 3044 326 
Q 2575 -91 1722 -91 
Q 1428 -91 1123 -41 
Q 819 9 494 109 
L 494 744 
Q 775 591 1075 516 
Q 1375 441 1709 441 
Q 2250 441 2565 725 
Q 2881 1009 2881 1497 
Q 2881 1984 2565 2268 
Q 2250 2553 1709 2553 
Q 1456 2553 1204 2497 
Q 953 2441 691 2322 
L 691 4666 
z
" transform="scale(0.015625)"/>
      <path id="DejaVuSans-78" d="M 3513 3500 
L 2247 1797 
L 3578 0 
L 2900 0 
L 1881 1375 
L 863 0 
L 184 0 
L 1544 1831 
L 300 3500 
L 978 3500 
L 1906 2253 
L 2834 3500 
L 3513 3500 
z
" transform="scale(0.015625)"/>
      <path id="DejaVuSans-54" d="M -19 4666 
L 3928 4666 
L 3928 4134 
L 2272 4134 
L 2272 0 
L 1638 0 
L 1638 4134 
L -19 4134 
L -19 4666 
z
" transform="scale(0.015625)"/>
      <path id="DejaVuSans-5b" d="M 550 4863 
L 1875 4863 
L 1875 4416 
L 1125 4416 
L 1125 -397 
L 1875 -397 
L 1875 -844 
L 550 -844 
L 550 4863 
z
" transform="scale(0.015625)"/>
      <path id="DejaVuSans-6d" d="M 3328 2828 
Q 3544 3216 3844 3400 
Q 4144 3584 4550 3584 
Q 5097 3584 5394 3201 
Q 5691 2819 5691 2113 
L 5691 0 
L 5113 0 
L 5113 2094 
Q 5113 2597 4934 2840 
Q 4756 3084 4391 3084 
Q 3944 3084 3684 2787 
Q 3425 2491 3425 1978 
L 3425 0 
L 2847 0 
L 2847 2094 
Q 2847 2600 2669 2842 
Q 2491 3084 2119 3084 
Q 1678 3084 1418 2786 
Q 1159 2488 1159 1978 
L 1159 0 
L 581 0 
L 581 3500 
L 1159 3500 
L 1159 2956 
Q 1356 3278 1631 3431 
Q 1906 3584 2284 3584 
Q 2666 3584 2933 3390 
Q 3200 3197 3328 2828 
z
" transform="scale(0.015625)"/>
      <path id="DejaVuSans-70" d="M 1159 525 
L 1159 -1331 
L 581 -1331 
L 581 3500 
L 1159 3500 
L 1159 2969 
Q 1341 3281 1617 3432 
Q 1894 3584 2278 3584 
Q 2916 3584 3314 3078 
Q 3713 2572 3713 1747 
Q 3713 922 3314 415 
Q 2916 -91 2278 -91 
Q 1894 -91 1617 61 
Q 1341 213 1159 525 
z
M 3116 1747 
Q 3116 2381 2855 2742 
Q 2594 3103 2138 3103 
Q 1681 3103 1420 2742 
Q 1159 2381 1159 1747 
Q 1159 1113 1420 752 
Q 1681 391 2138 391 
Q 2594 391 2855 752 
Q 3116 1113 3116 1747 
z
" transform="scale(0.015625)"/>
      <path id="DejaVuSans-3b" d="M 750 3309 
L 1409 3309 
L 1409 2516 
L 750 2516 
L 750 3309 
z
M 750 794 
L 1409 794 
L 1409 256 
L 897 -744 
L 494 -744 
L 750 256 
L 750 794 
z
" transform="scale(0.015625)"/>
      <path id="DejaVuSans-25" d="M 4653 2053 
Q 4381 2053 4226 1822 
Q 4072 1591 4072 1178 
Q 4072 772 4226 539 
Q 4381 306 4653 306 
Q 4919 306 5073 539 
Q 5228 772 5228 1178 
Q 5228 1588 5073 1820 
Q 4919 2053 4653 2053 
z
M 4653 2450 
Q 5147 2450 5437 2106 
Q 5728 1763 5728 1178 
Q 5728 594 5436 251 
Q 5144 -91 4653 -91 
Q 4153 -91 3862 251 
Q 3572 594 3572 1178 
Q 3572 1766 3864 2108 
Q 4156 2450 4653 2450 
z
M 1428 4353 
Q 1159 4353 1004 4120 
Q 850 3888 850 3481 
Q 850 3069 1003 2837 
Q 1156 2606 1428 2606 
Q 1700 2606 1854 2837 
Q 2009 3069 2009 3481 
Q 2009 3884 1853 4118 
Q 1697 4353 1428 4353 
z
M 4250 4750 
L 4750 4750 
L 1831 -91 
L 1331 -91 
L 4250 4750 
z
M 1428 4750 
Q 1922 4750 2215 4408 
Q 2509 4066 2509 3481 
Q 2509 2891 2217 2550 
Q 1925 2209 1428 2209 
Q 931 2209 642 2551 
Q 353 2894 353 3481 
Q 353 4063 643 4406 
Q 934 4750 1428 4750 
z
" transform="scale(0.015625)"/>
      <path id="DejaVuSans-64" d="M 2906 2969 
L 2906 4863 
L 3481 4863 
L 3481 0 
L 2906 0 
L 2906 525 
Q 2725 213 2448 61 
Q 2172 -91 1784 -91 
Q 1150 -91 751 415 
Q 353 922 353 1747 
Q 353 2572 751 3078 
Q 1150 3584 1784 3584 
Q 2172 3584 2448 3432 
Q 2725 3281 2906 2969 
z
M 947 1747 
Q 947 1113 1208 752 
Q 1469 391 1925 391 
Q 2381 391 2643 752 
Q 2906 1113 2906 1747 
Q 2906 2381 2643 2742 
Q 2381 3103 1925 3103 
Q 1469 3103 1208 2742 
Q 947 2381 947 1747 
z
" transform="scale(0.015625)"/>
      <path id="DejaVuSans-67" d="M 2906 1791 
Q 2906 2416 2648 2759 
Q 2391 3103 1925 3103 
Q 1463 3103 1205 2759 
Q 947 2416 947 1791 
Q 947 1169 1205 825 
Q 1463 481 1925 481 
Q 2391 481 2648 825 
Q 2906 1169 2906 1791 
z
M 3481 434 
Q 3481 -459 3084 -895 
Q 2688 -1331 1869 -1331 
Q 1566 -1331 1297 -1286 
Q 1028 -1241 775 -1147 
L 775 -588 
Q 1028 -725 1275 -790 
Q 1522 -856 1778 -856 
Q 2344 -856 2625 -561 
Q 2906 -266 2906 331 
L 2906 616 
Q 2728 306 2450 153 
Q 2172 0 1784 0 
Q 1141 0 747 490 
Q 353 981 353 1791 
Q 353 2603 747 3093 
Q 1141 3584 1784 3584 
Q 2172 3584 2450 3431 
Q 2728 3278 2906 2969 
L 2906 3500 
L 3481 3500 
L 3481 434 
z
" transform="scale(0.015625)"/>
      <path id="DejaVuSans-5d" d="M 1947 4863 
L 1947 -844 
L 622 -844 
L 622 -397 
L 1369 -397 
L 1369 4416 
L 622 4416 
L 622 4863 
L 1947 4863 
z
" transform="scale(0.015625)"/>
     </defs>
     <use xlink:href="#DejaVuSans-50"/>
     <use xlink:href="#DejaVuSans-52" x="60.302734"/>
     <use xlink:href="#DejaVuSans-20" x="129.785156"/>
     <use xlink:href="#DejaVuSans-43" x="161.572266"/>
     <use xlink:href="#DejaVuSans-75" x="231.396484"/>
     <use xlink:href="#DejaVuSans-72" x="294.775391"/>
     <use xlink:href="#DejaVuSans-76" x="335.888672"/>
     <use xlink:href="#DejaVuSans-65" x="395.068359"/>
     <use xlink:href="#DejaVuSans-20" x="456.591797"/>
     <use xlink:href="#DejaVuSans-6f" x="488.378906"/>
     <use xlink:href="#DejaVuSans-6e" x="549.560547"/>
     <use xlink:href="#DejaVuSans-20" x="612.939453"/>
     <use xlink:href="#DejaVuSans-35" x="644.726562"/>
     <use xlink:href="#DejaVuSans-30" x="708.349609"/>
     <use xlink:href="#DejaVuSans-78" x="771.972656"/>
     <use xlink:href="#DejaVuSans-35" x="831.152344"/>
     <use xlink:href="#DejaVuSans-30" x="894.775391"/>
     <use xlink:href="#DejaVuSans-20" x="958.398438"/>
     <use xlink:href="#DejaVuSans-54" x="990.185547"/>
     <use xlink:href="#DejaVuSans-65" x="1034.269531"/>
     <use xlink:href="#DejaVuSans-6e" x="1095.792969"/>
     <use xlink:href="#DejaVuSans-73" x="1159.171875"/>
     <use xlink:href="#DejaVuSans-6f" x="1211.271484"/>
     <use xlink:href="#DejaVuSans-72" x="1272.453125"/>
     <use xlink:href="#DejaVuSans-73" x="1313.566406"/>
     <use xlink:href="#DejaVuSans-20" x="1365.666016"/>
     <use xlink:href="#DejaVuSans-5b" x="1397.453125"/>
     <use xlink:href="#DejaVuSans-32" x="1436.466797"/>
     <use xlink:href="#DejaVuSans-30" x="1500.089844"/>
     <use xlink:href="#DejaVuSans-20" x="1563.712891"/>
     <use xlink:href="#DejaVuSans-73" x="1595.5"/>
     <use xlink:href="#DejaVuSans-61" x="1647.599609"/>
     <use xlink:href="#DejaVuSans-6d" x="1708.878906"/>
     <use xlink:href="#DejaVuSans-70" x="1806.291016"/>
     <use xlink:href="#DejaVuSans-6c" x="1869.767578"/>
     <use xlink:href="#DejaVuSans-65" x="1897.550781"/>
     <use xlink:href="#DejaVuSans-73" x="1959.074219"/>
     <use xlink:href="#DejaVuSans-3b" x="2011.173828"/>
     <use xlink:href="#DejaVuSans-20" x="2044.865234"/>
     <use xlink:href="#DejaVuSans-32" x="2076.652344"/>
     <use xlink:href="#DejaVuSans-25" x="2140.275391"/>
     <use xlink:href="#DejaVuSans-20" x="2235.294922"/>
     <use xlink:href="#DejaVuSans-65" x="2267.082031"/>
     <use xlink:href="#DejaVuSans-64" x="2328.605469"/>
     <use xlink:href="#DejaVuSans-67" x="2392.082031"/>
     <use xlink:href="#DejaVuSans-65" x="2455.558594"/>
     <use xlink:href="#DejaVuSans-73" x="2517.082031"/>
     <use xlink:href="#DejaVuSans-5d" x="2569.181641"/>
    </g>
   </g>
   <g id="legend_1">
    <g id="patch_5">
     <path d="M 50.78125 74.3525 
L 131.759375 74.3525 
Q 133.759375 74.3525 133.759375 72.3525 
L 133.759375 29.318125 
Q 133.759375 27.318125 131.759375 27.318125 
L 50.78125 27.318125 
Q 48.78125 27.318125 48.78125 29.318125 
L 48.78125 72.3525 
Q 48.78125 74.3525 50.78125 74.3525 
z
" style="fill: #ffffff; opacity: 0.8; stroke: #cccccc; stroke-linejoin: miter"/>
    </g>
    <g id="line2d_16">
     <path d="M 52.78125 35.416562 
L 62.78125 35.416562 
L 72.78125 35.416562 
" style="fill: none; stroke: #000000; stroke-width: 1.5; stroke-linecap: square"/>
    </g>
    <g id="text_16">
     <!-- GmGM -->
     <g transform="translate(80.78125 38.916562) scale(0.1 -0.1)">
      <defs>
       <path id="DejaVuSans-47" d="M 3809 666 
L 3809 1919 
L 2778 1919 
L 2778 2438 
L 4434 2438 
L 4434 434 
Q 4069 175 3628 42 
Q 3188 -91 2688 -91 
Q 1594 -91 976 548 
Q 359 1188 359 2328 
Q 359 3472 976 4111 
Q 1594 4750 2688 4750 
Q 3144 4750 3555 4637 
Q 3966 4525 4313 4306 
L 4313 3634 
Q 3963 3931 3569 4081 
Q 3175 4231 2741 4231 
Q 1884 4231 1454 3753 
Q 1025 3275 1025 2328 
Q 1025 1384 1454 906 
Q 1884 428 2741 428 
Q 3075 428 3337 486 
Q 3600 544 3809 666 
z
" transform="scale(0.015625)"/>
       <path id="DejaVuSans-4d" d="M 628 4666 
L 1569 4666 
L 2759 1491 
L 3956 4666 
L 4897 4666 
L 4897 0 
L 4281 0 
L 4281 4097 
L 3078 897 
L 2444 897 
L 1241 4097 
L 1241 0 
L 628 0 
L 628 4666 
z
" transform="scale(0.015625)"/>
      </defs>
      <use xlink:href="#DejaVuSans-47"/>
      <use xlink:href="#DejaVuSans-6d" x="77.490234"/>
      <use xlink:href="#DejaVuSans-47" x="174.902344"/>
      <use xlink:href="#DejaVuSans-4d" x="252.392578"/>
     </g>
    </g>
    <g id="line2d_17">
     <path d="M 52.78125 50.094688 
L 62.78125 50.094688 
L 72.78125 50.094688 
" style="fill: none; stroke-dasharray: 5.55,2.4; stroke-dashoffset: 0; stroke: #ff0000; stroke-width: 1.5"/>
    </g>
    <g id="text_17">
     <!-- GmGM L1 -->
     <g transform="translate(80.78125 53.594688) scale(0.1 -0.1)">
      <defs>
       <path id="DejaVuSans-4c" d="M 628 4666 
L 1259 4666 
L 1259 531 
L 3531 531 
L 3531 0 
L 628 0 
L 628 4666 
z
" transform="scale(0.015625)"/>
      </defs>
      <use xlink:href="#DejaVuSans-47"/>
      <use xlink:href="#DejaVuSans-6d" x="77.490234"/>
      <use xlink:href="#DejaVuSans-47" x="174.902344"/>
      <use xlink:href="#DejaVuSans-4d" x="252.392578"/>
      <use xlink:href="#DejaVuSans-20" x="338.671875"/>
      <use xlink:href="#DejaVuSans-4c" x="370.458984"/>
      <use xlink:href="#DejaVuSans-31" x="426.171875"/>
     </g>
    </g>
    <g id="line2d_18">
     <path d="M 52.78125 64.772812 
L 62.78125 64.772812 
L 72.78125 64.772812 
" style="fill: none; stroke-dasharray: 9.6,2.4,1.5,2.4; stroke-dashoffset: 0; stroke: #bf00bf; stroke-width: 1.5"/>
    </g>
    <g id="text_18">
     <!-- EiGLasso -->
     <g transform="translate(80.78125 68.272812) scale(0.1 -0.1)">
      <defs>
       <path id="DejaVuSans-45" d="M 628 4666 
L 3578 4666 
L 3578 4134 
L 1259 4134 
L 1259 2753 
L 3481 2753 
L 3481 2222 
L 1259 2222 
L 1259 531 
L 3634 531 
L 3634 0 
L 628 0 
L 628 4666 
z
" transform="scale(0.015625)"/>
      </defs>
      <use xlink:href="#DejaVuSans-45"/>
      <use xlink:href="#DejaVuSans-69" x="63.183594"/>
      <use xlink:href="#DejaVuSans-47" x="90.966797"/>
      <use xlink:href="#DejaVuSans-4c" x="168.457031"/>
      <use xlink:href="#DejaVuSans-61" x="224.169922"/>
      <use xlink:href="#DejaVuSans-73" x="285.449219"/>
      <use xlink:href="#DejaVuSans-73" x="337.548828"/>
      <use xlink:href="#DejaVuSans-6f" x="389.648438"/>
     </g>
    </g>
   </g>
  </g>
 </g>
 <defs>
  <clipPath id="p7eabf9889e">
   <rect x="43.78125" y="22.318125" width="357.12" height="266.112"/>
  </clipPath>
 </defs>
</svg>
