<?xml version="1.0" encoding="utf-8" standalone="no"?>
<!DOCTYPE svg PUBLIC "-//W3C//DTD SVG 1.1//EN"
  "http://www.w3.org/Graphics/SVG/1.1/DTD/svg11.dtd">
<svg xmlns:xlink="http://www.w3.org/1999/xlink" width="416.052813pt" height="325.986375pt" viewBox="0 0 416.052813 325.986375" xmlns="http://www.w3.org/2000/svg" version="1.1">
 <metadata>
  <rdf:RDF xmlns:dc="http://purl.org/dc/elements/1.1/" xmlns:cc="http://creativecommons.org/ns#" xmlns:rdf="http://www.w3.org/1999/02/22-rdf-syntax-ns#">
   <cc:Work>
    <dc:type rdf:resource="http://purl.org/dc/dcmitype/StillImage"/>
    <dc:date>2023-10-13T22:31:54.321196</dc:date>
    <dc:format>image/svg+xml</dc:format>
    <dc:creator>
     <cc:Agent>
      <dc:title>Matplotlib v3.7.2, https://matplotlib.org/</dc:title>
     </cc:Agent>
    </dc:creator>
   </cc:Work>
  </rdf:RDF>
 </metadata>
 <defs>
  <style type="text/css">*{stroke-linejoin: round; stroke-linecap: butt}</style>
 </defs>
 <g id="figure_1">
  <g id="patch_1">
   <path d="M 0 325.986375 
L 416.052813 325.986375 
L 416.052813 0 
L 0 0 
z
" style="fill: #ffffff"/>
  </g>
  <g id="axes_1">
   <g id="patch_2">
    <path d="M 43.78125 288.430125 
L 400.90125 288.430125 
L 400.90125 22.318125 
L 43.78125 22.318125 
z
" style="fill: #ffffff"/>
   </g>
   <g id="PolyCollection_1">
    <path d="M 53.255862 8.391936 
L 53.255862 151.559514 
L 53.62027 151.488598 
L 54.713495 165.500495 
L 54.713495 165.500495 
L 54.713495 165.500495 
L 54.713495 165.500495 
L 54.713495 165.500495 
L 58.357577 164.546969 
L 58.357577 164.546969 
L 58.721985 163.00755 
L 59.086393 166.860559 
L 59.086393 166.860559 
L 59.086393 166.860559 
L 63.459291 137.379554 
L 64.188107 135.761638 
L 64.916923 135.761638 
L 64.916923 135.761638 
L 67.832189 152.323731 
L 69.289821 153.533 
L 69.289821 153.533 
L 71.47627 164.848447 
L 71.840679 166.15535 
L 72.205087 168.004144 
L 75.120352 172.559409 
L 75.849168 173.979045 
L 76.213577 180.721793 
L 76.577985 180.768534 
L 80.222066 179.733819 
L 80.950883 180.926322 
L 84.594964 183.441393 
L 88.239046 182.536576 
L 88.967862 182.840028 
L 93.34076 181.645391 
L 96.256026 182.724052 
L 98.442474 184.889486 
L 100.628923 189.794621 
L 103.544189 186.192771 
L 105.730638 185.132245 
L 107.18827 189.861357 
L 108.645903 194.045947 
L 112.289985 193.122785 
L 112.289985 197.735715 
L 116.662883 200.903158 
L 117.756107 204.638032 
L 120.306964 204.357016 
L 124.679862 206.190519 
L 131.239209 204.715853 
L 135.612107 207.951919 
L 139.256189 209.372102 
L 142.535862 210.505598 
L 145.815536 210.144817 
L 148.730801 213.895522 
L 154.92574 213.752501 
L 157.476597 215.497624 
L 161.849495 218.101605 
L 163.307128 220.408522 
L 168.408842 223.32028 
L 172.78174 224.949091 
L 181.527536 224.043581 
L 185.171617 226.597306 
L 191.730964 230.621615 
L 195.739454 233.218291 
L 203.392026 233.37444 
L 209.586964 234.564565 
L 212.866638 237.324181 
L 218.697168 239.276385 
L 224.527699 241.114215 
L 228.900597 243.128244 
L 234.731128 244.640553 
L 239.468434 246.265596 
L 242.019291 248.808737 
L 248.578638 250.058469 
L 255.137985 251.116396 
L 258.05325 253.377494 
L 264.612597 255.007894 
L 274.087209 256.033854 
L 279.91774 257.120144 
L 287.205903 258.24092 
L 293.036434 259.539614 
L 295.222883 261.099404 
L 298.138148 262.756224 
L 302.511046 264.118378 
L 306.883944 265.575202 
L 312.714474 266.553621 
L 320.731454 267.345951 
L 325.833168 268.415236 
L 330.570474 269.281617 
L 338.223046 270.241868 
L 344.782393 271.116653 
L 352.799372 271.742275 
L 357.17227 272.590409 
L 363.002801 273.344704 
L 367.375699 274.18963 
L 373.20623 274.675619 
L 376.850311 275.328538 
L 381.952026 275.892325 
L 384.867291 276.532045 
L 389.240189 277.086164 
L 395.070719 277.624702 
L 399.443617 277.876288 
L 399.443617 277.722905 
L 399.443617 277.722905 
L 395.070719 277.225084 
L 389.240189 276.56579 
L 384.867291 275.76402 
L 381.952026 274.849264 
L 376.850311 273.955026 
L 373.20623 272.940194 
L 367.375699 271.861304 
L 363.002801 270.939684 
L 357.17227 269.958549 
L 352.799372 268.837753 
L 344.782393 267.845578 
L 338.223046 266.873743 
L 330.570474 266.094313 
L 325.833168 264.696014 
L 320.731454 263.444795 
L 312.714474 262.372392 
L 306.883944 260.988487 
L 302.511046 259.668973 
L 298.138148 258.156382 
L 295.222883 256.529465 
L 293.036434 254.337726 
L 287.205903 252.685432 
L 279.91774 251.202137 
L 274.087209 249.182474 
L 264.612597 248.18363 
L 258.05325 246.779885 
L 255.137985 244.509665 
L 248.578638 242.618751 
L 242.019291 240.733301 
L 239.468434 238.189144 
L 234.731128 235.384497 
L 228.900597 232.847755 
L 224.527699 230.152793 
L 218.697168 228.409711 
L 212.866638 226.255364 
L 209.586964 223.181455 
L 203.392026 220.794172 
L 195.739454 218.594827 
L 191.730964 215.574631 
L 185.171617 216.170144 
L 181.527536 213.107869 
L 172.78174 211.308699 
L 168.408842 208.754767 
L 163.307128 205.960804 
L 161.849495 201.559473 
L 157.476597 198.440707 
L 154.92574 193.064515 
L 148.730801 188.782328 
L 145.815536 184.980409 
L 142.535862 179.659759 
L 139.256189 173.817748 
L 135.612107 169.920104 
L 131.239209 166.122204 
L 124.679862 166.956407 
L 120.306964 165.527234 
L 117.756107 162.423209 
L 116.662883 153.819628 
L 112.289985 151.719735 
L 112.289985 144.947533 
L 108.645903 133.509377 
L 107.18827 129.757293 
L 105.730638 125.616005 
L 103.544189 117.366163 
L 100.628923 110.309149 
L 98.442474 106.850764 
L 96.256026 99.365982 
L 93.34076 93.621259 
L 88.967862 94.039422 
L 88.239046 94.803674 
L 84.594964 95.373417 
L 80.950883 94.340328 
L 80.222066 94.837113 
L 76.577985 96.715716 
L 76.213577 88.335577 
L 75.849168 68.340405 
L 75.120352 68.005456 
L 72.205087 62.910506 
L 71.840679 63.1465 
L 71.47627 61.227803 
L 69.289821 50.77045 
L 69.289821 50.77045 
L 67.832189 50.796999 
L 64.916923 55.236212 
L 64.916923 55.236212 
L 64.188107 55.236212 
L 63.459291 57.419896 
L 59.086393 37.442891 
L 59.086393 37.442891 
L 59.086393 37.442891 
L 58.721985 37.74774 
L 58.357577 29.112001 
L 58.357577 29.112001 
L 54.713495 12.191755 
L 54.713495 12.191755 
L 54.713495 12.191755 
L 54.713495 12.191755 
L 54.713495 12.191755 
L 53.62027 8.462852 
L 53.255862 8.391936 
z
" clip-path="url(#pf19aa1dd4e)" style="fill-opacity: 0.2"/>
   </g>
   <g id="PolyCollection_2">
    <path d="M 49.784846 79.975725 
L 49.784846 79.975725 
L 49.925547 79.975725 
L 50.51474 88.846125 
L 50.51474 88.846125 
L 50.51474 88.846125 
L 50.51474 88.846125 
L 50.51474 88.846125 
L 52.807888 96.829485 
L 52.807888 96.829485 
L 53.603162 100.377645 
L 53.769738 102.151725 
L 53.769738 102.151725 
L 53.769738 102.151725 
L 59.957828 97.399725 
L 60.633231 95.498925 
L 60.506131 95.498925 
L 60.506131 95.498925 
L 61.792505 101.560365 
L 62.253778 102.151725 
L 62.253778 102.151725 
L 63.679315 113.038125 
L 63.532302 114.650925 
L 63.570306 115.457325 
L 65.226857 120.282433 
L 65.723015 121.159725 
L 66.588755 134.528685 
L 67.369972 138.742125 
L 70.055456 137.285466 
L 70.279669 137.633325 
L 72.535121 139.407405 
L 75.208415 138.670125 
L 75.591678 138.439725 
L 78.876153 137.633325 
L 81.416684 141.045017 
L 83.481433 145.870125 
L 84.302064 150.051885 
L 88.313423 151.779467 
L 91.875589 155.374125 
L 92.373328 159.809325 
L 92.895378 163.777662 
L 98.427056 169.035159 
L 98.427056 174.727725 
L 101.093656 177.361393 
L 102.769663 183.530621 
L 105.950339 184.942125 
L 109.099216 186.573463 
L 114.855917 185.419028 
L 118.190422 188.936012 
L 121.728731 191.594925 
L 126.487609 195.082679 
L 131.687095 197.562613 
L 133.59943 201.338925 
L 141.639608 203.408508 
L 145.40939 206.969166 
L 149.424739 209.830539 
L 151.832175 213.184663 
L 155.737192 216.037523 
L 160.2669 218.128895 
L 170.74544 218.575725 
L 174.176991 221.383725 
L 174.857734 223.098123 
L 178.094027 225.906559 
L 187.02623 227.084306 
L 193.743235 228.87301 
L 196.345067 231.789773 
L 201.286872 233.843048 
L 205.764773 235.633504 
L 210.036231 237.988 
L 216.47906 240.012525 
L 222.378976 242.22737 
L 223.795796 244.771019 
L 230.435977 246.33861 
L 237.94846 247.81303 
L 239.622612 250.07869 
L 244.109359 251.595762 
L 252.08145 252.608164 
L 259.546679 254.161141 
L 266.633037 255.463176 
L 272.449937 256.93867 
L 275.823152 258.814435 
L 277.22571 260.456303 
L 280.820244 261.893676 
L 282.89071 263.281844 
L 289.209586 264.463006 
L 297.279366 265.395373 
L 301.850573 266.555625 
L 308.583859 267.687965 
L 313.270826 268.557806 
L 318.802212 269.481115 
L 328.059999 270.290014 
L 333.133499 271.274479 
L 339.414817 272.142194 
L 342.920975 273.025467 
L 353.648797 273.807906 
L 360.261139 274.641782 
L 368.447018 275.370795 
L 374.202886 276.148033 
L 381.494357 276.825977 
L 388.692773 277.424893 
L 396.813238 277.799596 
L 396.813238 277.799596 
L 396.813238 277.799596 
L 388.692773 277.424893 
L 381.494357 276.825977 
L 374.202886 276.148033 
L 368.447018 275.370795 
L 360.261139 274.641782 
L 353.648797 273.807906 
L 342.920975 273.025467 
L 339.414817 272.142194 
L 333.133499 271.274479 
L 328.059999 270.290014 
L 318.802212 269.481115 
L 313.270826 268.557806 
L 308.583859 267.687965 
L 301.850573 266.555625 
L 297.279366 265.395373 
L 289.209586 264.463006 
L 282.89071 263.281844 
L 280.820244 261.893676 
L 277.22571 260.456303 
L 275.823152 258.814435 
L 272.449937 256.93867 
L 266.633037 255.463176 
L 259.546679 254.161141 
L 252.08145 252.608164 
L 244.109359 251.595762 
L 239.622612 250.07869 
L 237.94846 247.81303 
L 230.435977 246.33861 
L 223.795796 244.771019 
L 222.378976 242.22737 
L 216.47906 240.012525 
L 210.036231 237.988 
L 205.764773 235.633504 
L 201.286872 233.843048 
L 196.345067 231.789773 
L 193.743235 228.87301 
L 187.02623 227.084306 
L 178.094027 225.906559 
L 174.857734 223.098123 
L 174.176991 221.383725 
L 170.74544 218.575725 
L 160.2669 218.128895 
L 155.737192 216.037523 
L 151.832175 213.184663 
L 149.424739 209.830539 
L 145.40939 206.969166 
L 141.639608 203.408508 
L 133.59943 201.338925 
L 131.687095 197.562613 
L 126.487609 195.082679 
L 121.728731 191.594925 
L 118.190422 188.936012 
L 114.855917 185.419028 
L 109.099216 186.573463 
L 105.950339 184.942125 
L 102.769663 183.530621 
L 101.093656 177.361393 
L 98.427056 174.727725 
L 98.427056 169.035159 
L 92.895378 163.777662 
L 92.373328 159.809325 
L 91.875589 155.374125 
L 88.313423 151.779467 
L 84.302064 150.051885 
L 83.481433 145.870125 
L 81.416684 141.045017 
L 78.876153 137.633325 
L 75.591678 138.439725 
L 75.208415 138.670125 
L 72.535121 139.407405 
L 70.279669 137.633325 
L 70.055456 137.285466 
L 67.369972 138.742125 
L 66.588755 134.528685 
L 65.723015 121.159725 
L 65.226857 120.282433 
L 63.570306 115.457325 
L 63.532302 114.650925 
L 63.679315 113.038125 
L 62.253778 102.151725 
L 62.253778 102.151725 
L 61.792505 101.560365 
L 60.506131 95.498925 
L 60.506131 95.498925 
L 60.633231 95.498925 
L 59.957828 97.399725 
L 53.769738 102.151725 
L 53.769738 102.151725 
L 53.769738 102.151725 
L 53.603162 100.377645 
L 52.807888 96.829485 
L 52.807888 96.829485 
L 50.51474 88.846125 
L 50.51474 88.846125 
L 50.51474 88.846125 
L 50.51474 88.846125 
L 50.51474 88.846125 
L 49.925547 79.975725 
L 49.784846 79.975725 
z
" clip-path="url(#pf19aa1dd4e)" style="fill: #ff0000; fill-opacity: 0.2"/>
   </g>
   <g id="PolyCollection_3">
    <path d="M 43.78125 22.318125 
L 43.78125 22.318125 
L 43.78125 22.318125 
L 43.78125 22.318125 
L 43.78125 22.318125 
L 43.78125 22.318125 
L 43.78125 22.318125 
L 43.78125 22.318125 
L 43.78125 22.318125 
L 43.78125 22.318125 
L 43.78125 22.318125 
L 43.78125 22.318125 
L 43.78125 22.318125 
L 43.78125 22.318125 
L 43.78125 22.318125 
L 43.78125 22.318125 
L 43.78125 22.318125 
L 43.78125 22.318125 
L 43.78125 22.318125 
L 43.78125 22.318125 
L 44.510066 22.318125 
L 45.238883 22.318125 
L 46.696515 22.318125 
L 55.442311 143.541286 
L 62.730474 157.024812 
L 72.205087 168.458586 
L 80.950883 171.266453 
L 97.713658 178.608925 
L 108.645903 194.606833 
L 124.679862 208.805096 
L 144.357903 209.509516 
L 162.578311 221.734684 
L 185.900434 228.466309 
L 205.578474 235.037305 
L 221.612434 243.09812 
L 237.646393 248.108811 
L 250.03627 252.626471 
L 268.985495 255.851162 
L 282.833005 258.836446 
L 295.222883 261.334404 
L 301.053413 263.862931 
L 305.426311 265.981748 
L 316.358556 267.192486 
L 320.731454 268.678651 
L 328.748434 269.720647 
L 335.307781 270.579889 
L 343.32476 271.201568 
L 352.070556 271.939886 
L 355.714638 272.562796 
L 357.17227 273.238758 
L 362.273985 273.714629 
L 366.646883 273.961286 
L 368.833332 274.466987 
L 371.748597 274.595059 
L 373.935046 274.970556 
L 375.392679 275.225387 
L 378.307944 275.377902 
L 381.223209 275.537964 
L 381.952026 275.739705 
L 382.680842 275.946609 
L 384.138474 276.08301 
L 384.138474 276.275349 
L 384.867291 276.441507 
L 384.867291 276.590594 
L 384.867291 276.756316 
L 385.596107 276.81911 
L 385.596107 276.964041 
L 387.05374 277.025716 
L 387.782556 277.116671 
L 390.697821 277.034018 
L 390.697821 277.119865 
L 391.426638 277.192817 
L 392.155454 277.273894 
L 392.88427 277.325044 
L 393.613087 277.351605 
L 393.613087 277.38988 
L 393.613087 277.443785 
L 393.613087 277.508594 
L 394.341903 277.532528 
L 394.341903 277.592551 
L 395.070719 277.61901 
L 395.070719 277.662534 
L 395.070719 277.681522 
L 395.070719 277.712764 
L 395.070719 277.750185 
L 395.070719 277.768402 
L 395.799536 277.737185 
L 395.799536 277.756087 
L 395.799536 277.787981 
L 397.257168 277.73962 
L 397.985985 277.741401 
L 397.985985 277.761035 
L 397.985985 277.780688 
L 398.714801 277.728926 
L 398.714801 277.74585 
L 398.714801 277.755218 
L 398.714801 277.761123 
L 398.714801 277.76969 
L 398.714801 277.778625 
L 399.443617 277.75897 
L 399.443617 277.767933 
L 399.443617 277.618443 
L 399.443617 277.618443 
L 399.443617 277.607814 
L 398.714801 277.614547 
L 398.714801 277.598481 
L 398.714801 277.576547 
L 398.714801 277.560841 
L 398.714801 277.546822 
L 398.714801 277.531363 
L 397.985985 277.504121 
L 397.985985 277.484146 
L 397.985985 277.449214 
L 397.257168 277.444839 
L 395.799536 277.419838 
L 395.799536 277.393296 
L 395.799536 277.36611 
L 395.070719 277.316884 
L 395.070719 277.288614 
L 395.070719 277.257384 
L 395.070719 277.211324 
L 395.070719 277.165364 
L 395.070719 277.119614 
L 394.341903 277.131483 
L 394.341903 277.096153 
L 393.613087 277.06195 
L 393.613087 276.995648 
L 393.613087 276.922369 
L 393.613087 276.843364 
L 392.88427 276.781462 
L 392.155454 276.72722 
L 391.426638 276.689242 
L 390.697821 276.653887 
L 390.697821 276.556816 
L 387.782556 276.438646 
L 387.05374 276.308858 
L 385.596107 276.214967 
L 385.596107 276.062025 
L 384.867291 275.8666 
L 384.867291 275.636507 
L 384.867291 275.453536 
L 384.138474 275.216341 
L 384.138474 274.960729 
L 382.680842 274.67988 
L 381.952026 274.395708 
L 381.223209 274.068768 
L 378.307944 273.800754 
L 375.392679 273.379522 
L 373.935046 272.873004 
L 371.748597 272.465818 
L 368.833332 271.820915 
L 366.646883 271.36274 
L 362.273985 270.758361 
L 357.17227 270.155224 
L 355.714638 269.219337 
L 352.070556 268.259759 
L 343.32476 267.619243 
L 335.307781 266.614056 
L 328.748434 265.190617 
L 320.731454 263.930669 
L 316.358556 262.359021 
L 305.426311 261.075595 
L 301.053413 258.046712 
L 295.222883 254.566423 
L 282.833005 251.396645 
L 268.985495 248.351744 
L 250.03627 243.480174 
L 237.646393 237.300702 
L 221.612434 230.794417 
L 205.578474 224.939232 
L 185.900434 216.459431 
L 162.578311 203.916965 
L 144.357903 188.97088 
L 124.679862 173.0383 
L 108.645903 148.095529 
L 97.713658 110.268582 
L 80.950883 78.022597 
L 72.205087 66.664704 
L 62.730474 13.571118 
L 55.442311 -1.330636 
L 46.696515 22.318125 
L 45.238883 22.318125 
L 44.510066 22.318125 
L 43.78125 22.318125 
L 43.78125 22.318125 
L 43.78125 22.318125 
L 43.78125 22.318125 
L 43.78125 22.318125 
L 43.78125 22.318125 
L 43.78125 22.318125 
L 43.78125 22.318125 
L 43.78125 22.318125 
L 43.78125 22.318125 
L 43.78125 22.318125 
L 43.78125 22.318125 
L 43.78125 22.318125 
L 43.78125 22.318125 
L 43.78125 22.318125 
L 43.78125 22.318125 
L 43.78125 22.318125 
L 43.78125 22.318125 
L 43.78125 22.318125 
z
" clip-path="url(#pf19aa1dd4e)" style="fill: #bf00bf; fill-opacity: 0.2"/>
   </g>
   <g id="PolyCollection_4">
    <path d="M 43.78125 22.318125 
L 43.78125 22.318125 
L 43.78125 22.318125 
L 43.78125 22.318125 
L 43.78125 22.318125 
L 43.78125 22.318125 
L 43.78125 22.318125 
L 43.78125 22.318125 
L 43.78125 22.318125 
L 43.78125 22.318125 
L 43.78125 22.318125 
L 43.78125 22.318125 
L 43.78125 22.318125 
L 43.78125 22.318125 
L 43.78125 22.318125 
L 43.78125 22.318125 
L 43.78125 22.318125 
L 43.78125 22.318125 
L 43.78125 22.318125 
L 43.78125 22.318125 
L 42.464219 22.318125 
L 42.608503 22.318125 
L 42.341031 22.318125 
L 49.804839 71.105325 
L 49.726154 85.297965 
L 55.613872 117.561645 
L 61.348969 124.644525 
L 79.328843 144.438753 
L 89.032164 171.351181 
L 100.263643 190.921698 
L 119.17 199.240198 
L 139.549605 212.825825 
L 163.740106 222.46287 
L 180.034276 229.988269 
L 200.870079 236.946268 
L 217.942566 242.704756 
L 234.762677 248.053323 
L 250.625967 252.101453 
L 263.2564 255.116546 
L 274.83564 257.950413 
L 277.86391 260.954821 
L 282.037192 263.528672 
L 293.927935 264.775754 
L 297.493895 266.30466 
L 304.568605 267.455632 
L 314.053269 268.596972 
L 322.602601 269.410406 
L 328.781173 270.099823 
L 333.400581 270.891066 
L 334.384168 271.696991 
L 339.449943 272.236495 
L 345.180785 272.662013 
L 345.739256 273.143951 
L 352.545977 273.530439 
L 354.301646 273.92178 
L 358.516885 274.302454 
L 363.369962 274.589328 
L 367.431203 274.803366 
L 368.447018 275.067706 
L 370.236052 275.313244 
L 372.959886 275.52187 
L 372.959886 275.745845 
L 374.202886 275.947521 
L 374.202886 276.11355 
L 374.202886 276.311458 
L 376.272274 276.440568 
L 376.272274 276.589504 
L 378.235975 276.667287 
L 378.789809 276.777658 
L 384.821372 276.795417 
L 384.821372 276.886876 
L 384.94522 276.94103 
L 385.168373 277.000557 
L 386.138965 277.053253 
L 387.187972 277.097485 
L 387.187972 277.156124 
L 387.187972 277.219716 
L 387.187972 277.285272 
L 388.227636 277.31434 
L 388.227636 277.362017 
L 388.692773 277.369312 
L 388.692773 277.413949 
L 388.692773 277.446423 
L 388.692773 277.485074 
L 388.692773 277.519399 
L 388.692773 277.542643 
L 390.682383 277.551648 
L 390.682383 277.574691 
L 390.682383 277.60391 
L 392.911879 277.592229 
L 393.783541 277.595308 
L 393.783541 277.622591 
L 393.783541 277.642404 
L 395.840278 277.630145 
L 395.840278 277.646336 
L 395.840278 277.658029 
L 395.840278 277.668835 
L 395.840278 277.684085 
L 395.840278 277.696586 
L 396.957424 277.683392 
L 396.957424 277.693188 
L 396.957424 277.693188 
L 396.957424 277.693188 
L 396.957424 277.683392 
L 395.840278 277.696586 
L 395.840278 277.684085 
L 395.840278 277.668835 
L 395.840278 277.658029 
L 395.840278 277.646336 
L 395.840278 277.630145 
L 393.783541 277.642404 
L 393.783541 277.622591 
L 393.783541 277.595308 
L 392.911879 277.592229 
L 390.682383 277.60391 
L 390.682383 277.574691 
L 390.682383 277.551648 
L 388.692773 277.542643 
L 388.692773 277.519399 
L 388.692773 277.485074 
L 388.692773 277.446423 
L 388.692773 277.413949 
L 388.692773 277.369312 
L 388.227636 277.362017 
L 388.227636 277.31434 
L 387.187972 277.285272 
L 387.187972 277.219716 
L 387.187972 277.156124 
L 387.187972 277.097485 
L 386.138965 277.053253 
L 385.168373 277.000557 
L 384.94522 276.94103 
L 384.821372 276.886876 
L 384.821372 276.795417 
L 378.789809 276.777658 
L 378.235975 276.667287 
L 376.272274 276.589504 
L 376.272274 276.440568 
L 374.202886 276.311458 
L 374.202886 276.11355 
L 374.202886 275.947521 
L 372.959886 275.745845 
L 372.959886 275.52187 
L 370.236052 275.313244 
L 368.447018 275.067706 
L 367.431203 274.803366 
L 363.369962 274.589328 
L 358.516885 274.302454 
L 354.301646 273.92178 
L 352.545977 273.530439 
L 345.739256 273.143951 
L 345.180785 272.662013 
L 339.449943 272.236495 
L 334.384168 271.696991 
L 333.400581 270.891066 
L 328.781173 270.099823 
L 322.602601 269.410406 
L 314.053269 268.596972 
L 304.568605 267.455632 
L 297.493895 266.30466 
L 293.927935 264.775754 
L 282.037192 263.528672 
L 277.86391 260.954821 
L 274.83564 257.950413 
L 263.2564 255.116546 
L 250.625967 252.101453 
L 234.762677 248.053323 
L 217.942566 242.704756 
L 200.870079 236.946268 
L 180.034276 229.988269 
L 163.740106 222.46287 
L 139.549605 212.825825 
L 119.17 199.240198 
L 100.263643 190.921698 
L 89.032164 171.351181 
L 79.328843 144.438753 
L 61.348969 124.644525 
L 55.613872 117.561645 
L 49.726154 85.297965 
L 49.804839 71.105325 
L 42.341031 22.318125 
L 42.608503 22.318125 
L 42.464219 22.318125 
L 43.78125 22.318125 
L 43.78125 22.318125 
L 43.78125 22.318125 
L 43.78125 22.318125 
L 43.78125 22.318125 
L 43.78125 22.318125 
L 43.78125 22.318125 
L 43.78125 22.318125 
L 43.78125 22.318125 
L 43.78125 22.318125 
L 43.78125 22.318125 
L 43.78125 22.318125 
L 43.78125 22.318125 
L 43.78125 22.318125 
L 43.78125 22.318125 
L 43.78125 22.318125 
L 43.78125 22.318125 
L 43.78125 22.318125 
L 43.78125 22.318125 
z
" clip-path="url(#pf19aa1dd4e)" style="fill: #006400; fill-opacity: 0.2"/>
   </g>
   <g id="PolyCollection_5">
    <path d="M 394.341903 277.345862 
L 394.341903 277.664519 
L 392.155454 277.738887 
L 390.697821 277.72559 
L 389.969005 277.681025 
L 389.969005 277.698761 
L 387.05374 277.751465 
L 386.324923 277.719211 
L 387.05374 277.642903 
L 385.596107 277.637654 
L 385.596107 277.56866 
L 385.596107 277.471012 
L 385.596107 277.421981 
L 383.409658 277.356896 
L 381.952026 277.328159 
L 382.680842 277.253742 
L 381.952026 277.241939 
L 378.307944 277.307845 
L 378.307944 277.200512 
L 377.579128 277.037053 
L 377.579128 276.997613 
L 378.307944 276.657634 
L 377.579128 276.586002 
L 374.663862 276.676944 
L 376.121495 276.524785 
L 374.663862 276.381364 
L 373.20623 276.309262 
L 373.20623 276.129379 
L 371.019781 276.098341 
L 369.562148 275.863191 
L 370.290964 275.609771 
L 368.833332 275.447853 
L 367.375699 275.200327 
L 366.646883 275.060784 
L 363.002801 274.908861 
L 361.545168 274.538819 
L 360.087536 274.188665 
L 357.901087 273.869281 
L 354.257005 273.539467 
L 351.34174 273.114024 
L 350.612923 272.669767 
L 347.697658 272.122737 
L 345.511209 271.632237 
L 338.223046 271.188453 
L 338.223046 270.539353 
L 333.121332 269.764415 
L 331.663699 268.979535 
L 326.561985 268.370276 
L 321.46027 267.459052 
L 316.358556 266.628265 
L 312.714474 265.393256 
L 310.528026 263.939229 
L 305.426311 262.722826 
L 301.053413 260.734324 
L 297.409332 258.904216 
L 289.392352 257.403744 
L 282.833005 254.420553 
L 271.171944 252.445911 
L 259.510883 249.965174 
L 247.121005 246.300486 
L 235.459944 242.315163 
L 223.070066 237.812629 
L 209.951372 232.597131 
L 191.730964 228.451342 
L 167.680026 222.266645 
L 148.001985 214.858726 
L 133.425658 203.342197 
L 113.018801 200.958743 
L 106.459454 177.894503 
L 86.781413 185.368052 
L 80.222066 176.761346 
L 65.64574 190.114314 
L 59.815209 190.581882 
L 52.527046 178.644349 
L 47.425332 132.242099 
L 46.696515 121.944139 
L 45.967699 121.944139 
L 45.238883 22.318125 
L 44.510066 22.318125 
L 43.78125 22.318125 
L 43.78125 22.318125 
L 43.78125 22.318125 
L 43.78125 22.318125 
L 43.78125 22.318125 
L 43.78125 22.318125 
L 43.78125 22.318125 
L 43.78125 22.318125 
L 43.78125 22.318125 
L 43.78125 22.318125 
L 43.78125 22.318125 
L 43.78125 22.318125 
L 43.78125 22.318125 
L 43.78125 22.318125 
L 43.78125 22.318125 
L 43.78125 22.318125 
L 43.78125 22.318125 
L 43.78125 22.318125 
L 43.78125 22.318125 
L 43.78125 22.318125 
L 43.78125 22.318125 
L 43.78125 22.318125 
L 43.78125 22.318125 
L 43.78125 22.318125 
L 43.78125 22.318125 
L 43.78125 22.318125 
L 43.78125 22.318125 
L 43.78125 22.318125 
L 43.78125 22.318125 
L 43.78125 22.318125 
L 43.78125 22.318125 
L 43.78125 22.318125 
L 43.78125 22.318125 
L 43.78125 22.318125 
L 43.78125 22.318125 
L 43.78125 22.318125 
L 43.78125 22.318125 
L 43.78125 22.318125 
L 43.78125 22.318125 
L 43.78125 22.318125 
L 43.78125 22.318125 
L 43.78125 22.318125 
L 43.78125 22.318125 
L 43.78125 22.318125 
L 43.78125 22.318125 
L 44.510066 22.318125 
L 45.238883 22.318125 
L 45.967699 -24.085489 
L 46.696515 -24.085489 
L 47.425332 -16.642649 
L 52.527046 21.857501 
L 59.815209 44.472288 
L 65.64574 67.019856 
L 80.222066 78.762978 
L 86.781413 109.366388 
L 106.459454 115.023593 
L 113.018801 138.83139 
L 133.425658 153.946853 
L 148.001985 185.317718 
L 167.680026 196.687677 
L 191.730964 203.636809 
L 209.951372 214.936182 
L 223.070066 224.008197 
L 235.459944 232.636663 
L 247.121005 238.954311 
L 259.510883 243.03894 
L 271.171944 247.689964 
L 282.833005 250.757758 
L 289.392352 253.259144 
L 297.409332 255.334014 
L 301.053413 257.198852 
L 305.426311 259.030411 
L 310.528026 260.31486 
L 312.714474 261.916417 
L 316.358556 263.422057 
L 321.46027 264.540837 
L 326.561985 265.284958 
L 331.663699 266.297801 
L 333.121332 266.976206 
L 338.223046 267.80873 
L 338.223046 268.560278 
L 345.511209 269.007636 
L 347.697658 269.770637 
L 350.612923 270.130062 
L 351.34174 270.669955 
L 354.257005 270.958214 
L 357.901087 271.406534 
L 360.087536 271.855689 
L 361.545168 272.307522 
L 363.002801 272.584774 
L 366.646883 272.748534 
L 367.375699 273.169016 
L 368.833332 273.532657 
L 370.290964 273.861106 
L 369.562148 274.258482 
L 371.019781 274.525091 
L 373.20623 274.782722 
L 373.20623 275.018538 
L 374.663862 275.230667 
L 376.121495 275.353374 
L 374.663862 275.680066 
L 377.579128 275.860237 
L 378.307944 276.098998 
L 377.579128 276.06266 
L 377.579128 276.354843 
L 378.307944 276.376208 
L 378.307944 276.514954 
L 381.952026 276.557763 
L 382.680842 276.692073 
L 381.952026 276.822895 
L 383.409658 276.92405 
L 385.596107 276.834323 
L 385.596107 276.956715 
L 385.596107 276.999966 
L 385.596107 277.081221 
L 387.05374 277.111507 
L 386.324923 277.176907 
L 387.05374 277.222623 
L 389.969005 277.218213 
L 389.969005 277.300078 
L 390.697821 277.328847 
L 392.155454 277.329241 
L 394.341903 277.345862 
z
" clip-path="url(#pf19aa1dd4e)" style="fill-opacity: 0.2"/>
   </g>
   <g id="PolyCollection_6">
    <path d="M 388.24211 277.505191 
L 388.24211 277.505191 
L 383.939504 277.534064 
L 382.832901 277.527218 
L 382.667275 277.490551 
L 381.096979 277.458487 
L 377.571305 277.487044 
L 377.491278 277.448059 
L 377.987006 277.377205 
L 376.51889 277.359438 
L 376.413842 277.284313 
L 378.729866 277.213864 
L 378.094896 277.128152 
L 378.100006 277.140473 
L 374.048205 277.075527 
L 374.172088 276.972908 
L 372.12912 276.899851 
L 365.876175 276.9114 
L 365.906898 276.78836 
L 366.647954 276.695948 
L 364.54642 276.530137 
L 370.505746 276.378316 
L 368.211945 276.223119 
L 360.847076 276.178505 
L 361.315425 275.93908 
L 359.554946 275.806015 
L 356.751252 275.6639 
L 355.781596 275.45605 
L 351.60767 275.311716 
L 350.039279 275.060837 
L 350.344176 274.735439 
L 346.717157 274.490255 
L 345.776443 274.184671 
L 342.361533 273.904659 
L 338.641419 273.746818 
L 339.1737 273.423171 
L 337.216526 273.022177 
L 333.955349 272.637907 
L 329.516089 272.24884 
L 327.82053 271.89199 
L 326.981253 271.399914 
L 325.28685 270.946687 
L 321.932813 270.319937 
L 316.398219 269.874366 
L 316.6335 269.174041 
L 311.051737 268.370311 
L 310.046448 267.638668 
L 304.034865 266.827617 
L 299.326477 265.999944 
L 294.922652 265.025161 
L 289.760931 263.654836 
L 287.457397 262.127044 
L 280.55513 260.876618 
L 276.863555 258.966588 
L 271.724878 257.119115 
L 263.553057 255.331444 
L 258.402113 252.589155 
L 245.303616 250.067937 
L 231.718856 246.502057 
L 222.426097 242.627398 
L 211.200513 237.475913 
L 200.652335 230.910413 
L 187.173737 223.766656 
L 171.445895 216.044075 
L 151.462315 209.477161 
L 131.618573 200.088222 
L 117.66754 178.644525 
L 96.9984 169.895067 
L 92.227059 146.459048 
L 70.894933 147.36722 
L 65.03259 127.762162 
L 54.932558 128.567085 
L 50.569033 117.527085 
L 44.662547 100.250925 
L 42.965803 57.799725 
L 43.537501 48.929325 
L 42.824005 48.929325 
L 42.494455 22.318125 
L 42.464219 22.318125 
L 43.78125 22.318125 
L 43.78125 22.318125 
L 43.78125 22.318125 
L 43.78125 22.318125 
L 43.78125 22.318125 
L 43.78125 22.318125 
L 43.78125 22.318125 
L 43.78125 22.318125 
L 43.78125 22.318125 
L 43.78125 22.318125 
L 43.78125 22.318125 
L 43.78125 22.318125 
L 43.78125 22.318125 
L 43.78125 22.318125 
L 43.78125 22.318125 
L 43.78125 22.318125 
L 43.78125 22.318125 
L 43.78125 22.318125 
L 43.78125 22.318125 
L 43.78125 22.318125 
L 43.78125 22.318125 
L 43.78125 22.318125 
L 43.78125 22.318125 
L 43.78125 22.318125 
L 43.78125 22.318125 
L 43.78125 22.318125 
L 43.78125 22.318125 
L 43.78125 22.318125 
L 43.78125 22.318125 
L 43.78125 22.318125 
L 43.78125 22.318125 
L 43.78125 22.318125 
L 43.78125 22.318125 
L 43.78125 22.318125 
L 43.78125 22.318125 
L 43.78125 22.318125 
L 43.78125 22.318125 
L 43.78125 22.318125 
L 43.78125 22.318125 
L 43.78125 22.318125 
L 43.78125 22.318125 
L 43.78125 22.318125 
L 43.78125 22.318125 
L 43.78125 22.318125 
L 43.78125 22.318125 
L 42.464219 22.318125 
L 42.494455 22.318125 
L 42.824005 48.929325 
L 43.537501 48.929325 
L 42.965803 57.799725 
L 44.662547 100.250925 
L 50.569033 117.527085 
L 54.932558 128.567085 
L 65.03259 127.762162 
L 70.894933 147.36722 
L 92.227059 146.459048 
L 96.9984 169.895067 
L 117.66754 178.644525 
L 131.618573 200.088222 
L 151.462315 209.477161 
L 171.445895 216.044075 
L 187.173737 223.766656 
L 200.652335 230.910413 
L 211.200513 237.475913 
L 222.426097 242.627398 
L 231.718856 246.502057 
L 245.303616 250.067937 
L 258.402113 252.589155 
L 263.553057 255.331444 
L 271.724878 257.119115 
L 276.863555 258.966588 
L 280.55513 260.876618 
L 287.457397 262.127044 
L 289.760931 263.654836 
L 294.922652 265.025161 
L 299.326477 265.999944 
L 304.034865 266.827617 
L 310.046448 267.638668 
L 311.051737 268.370311 
L 316.6335 269.174041 
L 316.398219 269.874366 
L 321.932813 270.319937 
L 325.28685 270.946687 
L 326.981253 271.399914 
L 327.82053 271.89199 
L 329.516089 272.24884 
L 333.955349 272.637907 
L 337.216526 273.022177 
L 339.1737 273.423171 
L 338.641419 273.746818 
L 342.361533 273.904659 
L 345.776443 274.184671 
L 346.717157 274.490255 
L 350.344176 274.735439 
L 350.039279 275.060837 
L 351.60767 275.311716 
L 355.781596 275.45605 
L 356.751252 275.6639 
L 359.554946 275.806015 
L 361.315425 275.93908 
L 360.847076 276.178505 
L 368.211945 276.223119 
L 370.505746 276.378316 
L 364.54642 276.530137 
L 366.647954 276.695948 
L 365.906898 276.78836 
L 365.876175 276.9114 
L 372.12912 276.899851 
L 374.172088 276.972908 
L 374.048205 277.075527 
L 378.100006 277.140473 
L 378.094896 277.128152 
L 378.729866 277.213864 
L 376.413842 277.284313 
L 376.51889 277.359438 
L 377.987006 277.377205 
L 377.491278 277.448059 
L 377.571305 277.487044 
L 381.096979 277.458487 
L 382.667275 277.490551 
L 382.832901 277.527218 
L 383.939504 277.534064 
L 388.24211 277.505191 
z
" clip-path="url(#pf19aa1dd4e)" style="fill: #ff0000; fill-opacity: 0.2"/>
   </g>
   <g id="matplotlib.axis_1">
    <g id="xtick_1">
     <g id="line2d_1">
      <defs>
       <path id="m7e54fa2d73" d="M 0 0 
L 0 3.5 
" style="stroke: #000000; stroke-width: 0.8"/>
      </defs>
      <g>
       <use xlink:href="#m7e54fa2d73" x="43.78125" y="288.430125" style="stroke: #000000; stroke-width: 0.8"/>
      </g>
     </g>
     <g id="text_1">
      <!-- 0.0 -->
      <g transform="translate(35.829688 303.028562) scale(0.1 -0.1)">
       <defs>
        <path id="DejaVuSans-30" d="M 2034 4250 
Q 1547 4250 1301 3770 
Q 1056 3291 1056 2328 
Q 1056 1369 1301 889 
Q 1547 409 2034 409 
Q 2525 409 2770 889 
Q 3016 1369 3016 2328 
Q 3016 3291 2770 3770 
Q 2525 4250 2034 4250 
z
M 2034 4750 
Q 2819 4750 3233 4129 
Q 3647 3509 3647 2328 
Q 3647 1150 3233 529 
Q 2819 -91 2034 -91 
Q 1250 -91 836 529 
Q 422 1150 422 2328 
Q 422 3509 836 4129 
Q 1250 4750 2034 4750 
z
" transform="scale(0.015625)"/>
        <path id="DejaVuSans-2e" d="M 684 794 
L 1344 794 
L 1344 0 
L 684 0 
L 684 794 
z
" transform="scale(0.015625)"/>
       </defs>
       <use xlink:href="#DejaVuSans-30"/>
       <use xlink:href="#DejaVuSans-2e" x="63.623047"/>
       <use xlink:href="#DejaVuSans-30" x="95.410156"/>
      </g>
     </g>
    </g>
    <g id="xtick_2">
     <g id="line2d_2">
      <g>
       <use xlink:href="#m7e54fa2d73" x="115.20525" y="288.430125" style="stroke: #000000; stroke-width: 0.8"/>
      </g>
     </g>
     <g id="text_2">
      <!-- 0.2 -->
      <g transform="translate(107.253688 303.028562) scale(0.1 -0.1)">
       <defs>
        <path id="DejaVuSans-32" d="M 1228 531 
L 3431 531 
L 3431 0 
L 469 0 
L 469 531 
Q 828 903 1448 1529 
Q 2069 2156 2228 2338 
Q 2531 2678 2651 2914 
Q 2772 3150 2772 3378 
Q 2772 3750 2511 3984 
Q 2250 4219 1831 4219 
Q 1534 4219 1204 4116 
Q 875 4013 500 3803 
L 500 4441 
Q 881 4594 1212 4672 
Q 1544 4750 1819 4750 
Q 2544 4750 2975 4387 
Q 3406 4025 3406 3419 
Q 3406 3131 3298 2873 
Q 3191 2616 2906 2266 
Q 2828 2175 2409 1742 
Q 1991 1309 1228 531 
z
" transform="scale(0.015625)"/>
       </defs>
       <use xlink:href="#DejaVuSans-30"/>
       <use xlink:href="#DejaVuSans-2e" x="63.623047"/>
       <use xlink:href="#DejaVuSans-32" x="95.410156"/>
      </g>
     </g>
    </g>
    <g id="xtick_3">
     <g id="line2d_3">
      <g>
       <use xlink:href="#m7e54fa2d73" x="186.62925" y="288.430125" style="stroke: #000000; stroke-width: 0.8"/>
      </g>
     </g>
     <g id="text_3">
      <!-- 0.4 -->
      <g transform="translate(178.677688 303.028562) scale(0.1 -0.1)">
       <defs>
        <path id="DejaVuSans-34" d="M 2419 4116 
L 825 1625 
L 2419 1625 
L 2419 4116 
z
M 2253 4666 
L 3047 4666 
L 3047 1625 
L 3713 1625 
L 3713 1100 
L 3047 1100 
L 3047 0 
L 2419 0 
L 2419 1100 
L 313 1100 
L 313 1709 
L 2253 4666 
z
" transform="scale(0.015625)"/>
       </defs>
       <use xlink:href="#DejaVuSans-30"/>
       <use xlink:href="#DejaVuSans-2e" x="63.623047"/>
       <use xlink:href="#DejaVuSans-34" x="95.410156"/>
      </g>
     </g>
    </g>
    <g id="xtick_4">
     <g id="line2d_4">
      <g>
       <use xlink:href="#m7e54fa2d73" x="258.05325" y="288.430125" style="stroke: #000000; stroke-width: 0.8"/>
      </g>
     </g>
     <g id="text_4">
      <!-- 0.6 -->
      <g transform="translate(250.101688 303.028562) scale(0.1 -0.1)">
       <defs>
        <path id="DejaVuSans-36" d="M 2113 2584 
Q 1688 2584 1439 2293 
Q 1191 2003 1191 1497 
Q 1191 994 1439 701 
Q 1688 409 2113 409 
Q 2538 409 2786 701 
Q 3034 994 3034 1497 
Q 3034 2003 2786 2293 
Q 2538 2584 2113 2584 
z
M 3366 4563 
L 3366 3988 
Q 3128 4100 2886 4159 
Q 2644 4219 2406 4219 
Q 1781 4219 1451 3797 
Q 1122 3375 1075 2522 
Q 1259 2794 1537 2939 
Q 1816 3084 2150 3084 
Q 2853 3084 3261 2657 
Q 3669 2231 3669 1497 
Q 3669 778 3244 343 
Q 2819 -91 2113 -91 
Q 1303 -91 875 529 
Q 447 1150 447 2328 
Q 447 3434 972 4092 
Q 1497 4750 2381 4750 
Q 2619 4750 2861 4703 
Q 3103 4656 3366 4563 
z
" transform="scale(0.015625)"/>
       </defs>
       <use xlink:href="#DejaVuSans-30"/>
       <use xlink:href="#DejaVuSans-2e" x="63.623047"/>
       <use xlink:href="#DejaVuSans-36" x="95.410156"/>
      </g>
     </g>
    </g>
    <g id="xtick_5">
     <g id="line2d_5">
      <g>
       <use xlink:href="#m7e54fa2d73" x="329.47725" y="288.430125" style="stroke: #000000; stroke-width: 0.8"/>
      </g>
     </g>
     <g id="text_5">
      <!-- 0.8 -->
      <g transform="translate(321.525688 303.028562) scale(0.1 -0.1)">
       <defs>
        <path id="DejaVuSans-38" d="M 2034 2216 
Q 1584 2216 1326 1975 
Q 1069 1734 1069 1313 
Q 1069 891 1326 650 
Q 1584 409 2034 409 
Q 2484 409 2743 651 
Q 3003 894 3003 1313 
Q 3003 1734 2745 1975 
Q 2488 2216 2034 2216 
z
M 1403 2484 
Q 997 2584 770 2862 
Q 544 3141 544 3541 
Q 544 4100 942 4425 
Q 1341 4750 2034 4750 
Q 2731 4750 3128 4425 
Q 3525 4100 3525 3541 
Q 3525 3141 3298 2862 
Q 3072 2584 2669 2484 
Q 3125 2378 3379 2068 
Q 3634 1759 3634 1313 
Q 3634 634 3220 271 
Q 2806 -91 2034 -91 
Q 1263 -91 848 271 
Q 434 634 434 1313 
Q 434 1759 690 2068 
Q 947 2378 1403 2484 
z
M 1172 3481 
Q 1172 3119 1398 2916 
Q 1625 2713 2034 2713 
Q 2441 2713 2670 2916 
Q 2900 3119 2900 3481 
Q 2900 3844 2670 4047 
Q 2441 4250 2034 4250 
Q 1625 4250 1398 4047 
Q 1172 3844 1172 3481 
z
" transform="scale(0.015625)"/>
       </defs>
       <use xlink:href="#DejaVuSans-30"/>
       <use xlink:href="#DejaVuSans-2e" x="63.623047"/>
       <use xlink:href="#DejaVuSans-38" x="95.410156"/>
      </g>
     </g>
    </g>
    <g id="xtick_6">
     <g id="line2d_6">
      <g>
       <use xlink:href="#m7e54fa2d73" x="400.90125" y="288.430125" style="stroke: #000000; stroke-width: 0.8"/>
      </g>
     </g>
     <g id="text_6">
      <!-- 1.0 -->
      <g transform="translate(392.949687 303.028562) scale(0.1 -0.1)">
       <defs>
        <path id="DejaVuSans-31" d="M 794 531 
L 1825 531 
L 1825 4091 
L 703 3866 
L 703 4441 
L 1819 4666 
L 2450 4666 
L 2450 531 
L 3481 531 
L 3481 0 
L 794 0 
L 794 531 
z
" transform="scale(0.015625)"/>
       </defs>
       <use xlink:href="#DejaVuSans-31"/>
       <use xlink:href="#DejaVuSans-2e" x="63.623047"/>
       <use xlink:href="#DejaVuSans-30" x="95.410156"/>
      </g>
     </g>
    </g>
    <g id="text_7">
     <!-- Recall -->
     <g transform="translate(207.424062 316.706687) scale(0.1 -0.1)">
      <defs>
       <path id="DejaVuSans-52" d="M 2841 2188 
Q 3044 2119 3236 1894 
Q 3428 1669 3622 1275 
L 4263 0 
L 3584 0 
L 2988 1197 
Q 2756 1666 2539 1819 
Q 2322 1972 1947 1972 
L 1259 1972 
L 1259 0 
L 628 0 
L 628 4666 
L 2053 4666 
Q 2853 4666 3247 4331 
Q 3641 3997 3641 3322 
Q 3641 2881 3436 2590 
Q 3231 2300 2841 2188 
z
M 1259 4147 
L 1259 2491 
L 2053 2491 
Q 2509 2491 2742 2702 
Q 2975 2913 2975 3322 
Q 2975 3731 2742 3939 
Q 2509 4147 2053 4147 
L 1259 4147 
z
" transform="scale(0.015625)"/>
       <path id="DejaVuSans-65" d="M 3597 1894 
L 3597 1613 
L 953 1613 
Q 991 1019 1311 708 
Q 1631 397 2203 397 
Q 2534 397 2845 478 
Q 3156 559 3463 722 
L 3463 178 
Q 3153 47 2828 -22 
Q 2503 -91 2169 -91 
Q 1331 -91 842 396 
Q 353 884 353 1716 
Q 353 2575 817 3079 
Q 1281 3584 2069 3584 
Q 2775 3584 3186 3129 
Q 3597 2675 3597 1894 
z
M 3022 2063 
Q 3016 2534 2758 2815 
Q 2500 3097 2075 3097 
Q 1594 3097 1305 2825 
Q 1016 2553 972 2059 
L 3022 2063 
z
" transform="scale(0.015625)"/>
       <path id="DejaVuSans-63" d="M 3122 3366 
L 3122 2828 
Q 2878 2963 2633 3030 
Q 2388 3097 2138 3097 
Q 1578 3097 1268 2742 
Q 959 2388 959 1747 
Q 959 1106 1268 751 
Q 1578 397 2138 397 
Q 2388 397 2633 464 
Q 2878 531 3122 666 
L 3122 134 
Q 2881 22 2623 -34 
Q 2366 -91 2075 -91 
Q 1284 -91 818 406 
Q 353 903 353 1747 
Q 353 2603 823 3093 
Q 1294 3584 2113 3584 
Q 2378 3584 2631 3529 
Q 2884 3475 3122 3366 
z
" transform="scale(0.015625)"/>
       <path id="DejaVuSans-61" d="M 2194 1759 
Q 1497 1759 1228 1600 
Q 959 1441 959 1056 
Q 959 750 1161 570 
Q 1363 391 1709 391 
Q 2188 391 2477 730 
Q 2766 1069 2766 1631 
L 2766 1759 
L 2194 1759 
z
M 3341 1997 
L 3341 0 
L 2766 0 
L 2766 531 
Q 2569 213 2275 61 
Q 1981 -91 1556 -91 
Q 1019 -91 701 211 
Q 384 513 384 1019 
Q 384 1609 779 1909 
Q 1175 2209 1959 2209 
L 2766 2209 
L 2766 2266 
Q 2766 2663 2505 2880 
Q 2244 3097 1772 3097 
Q 1472 3097 1187 3025 
Q 903 2953 641 2809 
L 641 3341 
Q 956 3463 1253 3523 
Q 1550 3584 1831 3584 
Q 2591 3584 2966 3190 
Q 3341 2797 3341 1997 
z
" transform="scale(0.015625)"/>
       <path id="DejaVuSans-6c" d="M 603 4863 
L 1178 4863 
L 1178 0 
L 603 0 
L 603 4863 
z
" transform="scale(0.015625)"/>
      </defs>
      <use xlink:href="#DejaVuSans-52"/>
      <use xlink:href="#DejaVuSans-65" x="64.982422"/>
      <use xlink:href="#DejaVuSans-63" x="126.505859"/>
      <use xlink:href="#DejaVuSans-61" x="181.486328"/>
      <use xlink:href="#DejaVuSans-6c" x="242.765625"/>
      <use xlink:href="#DejaVuSans-6c" x="270.548828"/>
     </g>
    </g>
   </g>
   <g id="matplotlib.axis_2">
    <g id="ytick_1">
     <g id="line2d_7">
      <defs>
       <path id="m10762b3aae" d="M 0 0 
L -3.5 0 
" style="stroke: #000000; stroke-width: 0.8"/>
      </defs>
      <g>
       <use xlink:href="#m10762b3aae" x="43.78125" y="288.430125" style="stroke: #000000; stroke-width: 0.8"/>
      </g>
     </g>
     <g id="text_8">
      <!-- 0.0 -->
      <g transform="translate(20.878125 292.229344) scale(0.1 -0.1)">
       <use xlink:href="#DejaVuSans-30"/>
       <use xlink:href="#DejaVuSans-2e" x="63.623047"/>
       <use xlink:href="#DejaVuSans-30" x="95.410156"/>
      </g>
     </g>
    </g>
    <g id="ytick_2">
     <g id="line2d_8">
      <g>
       <use xlink:href="#m10762b3aae" x="43.78125" y="235.207725" style="stroke: #000000; stroke-width: 0.8"/>
      </g>
     </g>
     <g id="text_9">
      <!-- 0.2 -->
      <g transform="translate(20.878125 239.006944) scale(0.1 -0.1)">
       <use xlink:href="#DejaVuSans-30"/>
       <use xlink:href="#DejaVuSans-2e" x="63.623047"/>
       <use xlink:href="#DejaVuSans-32" x="95.410156"/>
      </g>
     </g>
    </g>
    <g id="ytick_3">
     <g id="line2d_9">
      <g>
       <use xlink:href="#m10762b3aae" x="43.78125" y="181.985325" style="stroke: #000000; stroke-width: 0.8"/>
      </g>
     </g>
     <g id="text_10">
      <!-- 0.4 -->
      <g transform="translate(20.878125 185.784544) scale(0.1 -0.1)">
       <use xlink:href="#DejaVuSans-30"/>
       <use xlink:href="#DejaVuSans-2e" x="63.623047"/>
       <use xlink:href="#DejaVuSans-34" x="95.410156"/>
      </g>
     </g>
    </g>
    <g id="ytick_4">
     <g id="line2d_10">
      <g>
       <use xlink:href="#m10762b3aae" x="43.78125" y="128.762925" style="stroke: #000000; stroke-width: 0.8"/>
      </g>
     </g>
     <g id="text_11">
      <!-- 0.6 -->
      <g transform="translate(20.878125 132.562144) scale(0.1 -0.1)">
       <use xlink:href="#DejaVuSans-30"/>
       <use xlink:href="#DejaVuSans-2e" x="63.623047"/>
       <use xlink:href="#DejaVuSans-36" x="95.410156"/>
      </g>
     </g>
    </g>
    <g id="ytick_5">
     <g id="line2d_11">
      <g>
       <use xlink:href="#m10762b3aae" x="43.78125" y="75.540525" style="stroke: #000000; stroke-width: 0.8"/>
      </g>
     </g>
     <g id="text_12">
      <!-- 0.8 -->
      <g transform="translate(20.878125 79.339744) scale(0.1 -0.1)">
       <use xlink:href="#DejaVuSans-30"/>
       <use xlink:href="#DejaVuSans-2e" x="63.623047"/>
       <use xlink:href="#DejaVuSans-38" x="95.410156"/>
      </g>
     </g>
    </g>
    <g id="ytick_6">
     <g id="line2d_12">
      <g>
       <use xlink:href="#m10762b3aae" x="43.78125" y="22.318125" style="stroke: #000000; stroke-width: 0.8"/>
      </g>
     </g>
     <g id="text_13">
      <!-- 1.0 -->
      <g transform="translate(20.878125 26.117344) scale(0.1 -0.1)">
       <use xlink:href="#DejaVuSans-31"/>
       <use xlink:href="#DejaVuSans-2e" x="63.623047"/>
       <use xlink:href="#DejaVuSans-30" x="95.410156"/>
      </g>
     </g>
    </g>
    <g id="text_14">
     <!-- Precision -->
     <g transform="translate(14.798438 177.681156) rotate(-90) scale(0.1 -0.1)">
      <defs>
       <path id="DejaVuSans-50" d="M 1259 4147 
L 1259 2394 
L 2053 2394 
Q 2494 2394 2734 2622 
Q 2975 2850 2975 3272 
Q 2975 3691 2734 3919 
Q 2494 4147 2053 4147 
L 1259 4147 
z
M 628 4666 
L 2053 4666 
Q 2838 4666 3239 4311 
Q 3641 3956 3641 3272 
Q 3641 2581 3239 2228 
Q 2838 1875 2053 1875 
L 1259 1875 
L 1259 0 
L 628 0 
L 628 4666 
z
" transform="scale(0.015625)"/>
       <path id="DejaVuSans-72" d="M 2631 2963 
Q 2534 3019 2420 3045 
Q 2306 3072 2169 3072 
Q 1681 3072 1420 2755 
Q 1159 2438 1159 1844 
L 1159 0 
L 581 0 
L 581 3500 
L 1159 3500 
L 1159 2956 
Q 1341 3275 1631 3429 
Q 1922 3584 2338 3584 
Q 2397 3584 2469 3576 
Q 2541 3569 2628 3553 
L 2631 2963 
z
" transform="scale(0.015625)"/>
       <path id="DejaVuSans-69" d="M 603 3500 
L 1178 3500 
L 1178 0 
L 603 0 
L 603 3500 
z
M 603 4863 
L 1178 4863 
L 1178 4134 
L 603 4134 
L 603 4863 
z
" transform="scale(0.015625)"/>
       <path id="DejaVuSans-73" d="M 2834 3397 
L 2834 2853 
Q 2591 2978 2328 3040 
Q 2066 3103 1784 3103 
Q 1356 3103 1142 2972 
Q 928 2841 928 2578 
Q 928 2378 1081 2264 
Q 1234 2150 1697 2047 
L 1894 2003 
Q 2506 1872 2764 1633 
Q 3022 1394 3022 966 
Q 3022 478 2636 193 
Q 2250 -91 1575 -91 
Q 1294 -91 989 -36 
Q 684 19 347 128 
L 347 722 
Q 666 556 975 473 
Q 1284 391 1588 391 
Q 1994 391 2212 530 
Q 2431 669 2431 922 
Q 2431 1156 2273 1281 
Q 2116 1406 1581 1522 
L 1381 1569 
Q 847 1681 609 1914 
Q 372 2147 372 2553 
Q 372 3047 722 3315 
Q 1072 3584 1716 3584 
Q 2034 3584 2315 3537 
Q 2597 3491 2834 3397 
z
" transform="scale(0.015625)"/>
       <path id="DejaVuSans-6f" d="M 1959 3097 
Q 1497 3097 1228 2736 
Q 959 2375 959 1747 
Q 959 1119 1226 758 
Q 1494 397 1959 397 
Q 2419 397 2687 759 
Q 2956 1122 2956 1747 
Q 2956 2369 2687 2733 
Q 2419 3097 1959 3097 
z
M 1959 3584 
Q 2709 3584 3137 3096 
Q 3566 2609 3566 1747 
Q 3566 888 3137 398 
Q 2709 -91 1959 -91 
Q 1206 -91 779 398 
Q 353 888 353 1747 
Q 353 2609 779 3096 
Q 1206 3584 1959 3584 
z
" transform="scale(0.015625)"/>
       <path id="DejaVuSans-6e" d="M 3513 2113 
L 3513 0 
L 2938 0 
L 2938 2094 
Q 2938 2591 2744 2837 
Q 2550 3084 2163 3084 
Q 1697 3084 1428 2787 
Q 1159 2491 1159 1978 
L 1159 0 
L 581 0 
L 581 3500 
L 1159 3500 
L 1159 2956 
Q 1366 3272 1645 3428 
Q 1925 3584 2291 3584 
Q 2894 3584 3203 3211 
Q 3513 2838 3513 2113 
z
" transform="scale(0.015625)"/>
      </defs>
      <use xlink:href="#DejaVuSans-50"/>
      <use xlink:href="#DejaVuSans-72" x="58.552734"/>
      <use xlink:href="#DejaVuSans-65" x="97.416016"/>
      <use xlink:href="#DejaVuSans-63" x="158.939453"/>
      <use xlink:href="#DejaVuSans-69" x="213.919922"/>
      <use xlink:href="#DejaVuSans-73" x="241.703125"/>
      <use xlink:href="#DejaVuSans-69" x="293.802734"/>
      <use xlink:href="#DejaVuSans-6f" x="321.585938"/>
      <use xlink:href="#DejaVuSans-6e" x="382.767578"/>
     </g>
    </g>
   </g>
   <g id="line2d_13">
    <path d="M 53.255862 79.975725 
L 53.62027 79.975725 
L 54.713495 88.846125 
L 54.713495 88.846125 
L 54.713495 88.846125 
L 54.713495 88.846125 
L 54.713495 88.846125 
L 58.357577 96.829485 
L 58.357577 96.829485 
L 58.721985 100.377645 
L 59.086393 102.151725 
L 59.086393 102.151725 
L 59.086393 102.151725 
L 63.459291 97.399725 
L 64.188107 95.498925 
L 64.916923 95.498925 
L 64.916923 95.498925 
L 67.832189 101.560365 
L 69.289821 102.151725 
L 69.289821 102.151725 
L 71.47627 113.038125 
L 71.840679 114.650925 
L 72.205087 115.457325 
L 75.120352 120.282433 
L 75.849168 121.159725 
L 76.213577 134.528685 
L 76.577985 138.742125 
L 80.222066 137.285466 
L 80.950883 137.633325 
L 84.594964 139.407405 
L 88.239046 138.670125 
L 88.967862 138.439725 
L 93.34076 137.633325 
L 96.256026 141.045017 
L 98.442474 145.870125 
L 100.628923 150.051885 
L 103.544189 151.779467 
L 105.730638 155.374125 
L 107.18827 159.809325 
L 108.645903 163.777662 
L 112.289985 169.035159 
L 112.289985 174.727725 
L 116.662883 177.361393 
L 117.756107 183.530621 
L 120.306964 184.942125 
L 124.679862 186.573463 
L 131.239209 185.419028 
L 135.612107 188.936012 
L 139.256189 191.594925 
L 142.535862 195.082679 
L 145.815536 197.562613 
L 148.730801 201.338925 
L 154.92574 203.408508 
L 157.476597 206.969166 
L 161.849495 209.830539 
L 163.307128 213.184663 
L 168.408842 216.037523 
L 172.78174 218.128895 
L 181.527536 218.575725 
L 185.171617 221.383725 
L 191.730964 223.098123 
L 195.739454 225.906559 
L 203.392026 227.084306 
L 209.586964 228.87301 
L 212.866638 231.789773 
L 218.697168 233.843048 
L 224.527699 235.633504 
L 228.900597 237.988 
L 234.731128 240.012525 
L 239.468434 242.22737 
L 242.019291 244.771019 
L 248.578638 246.33861 
L 255.137985 247.81303 
L 258.05325 250.07869 
L 264.612597 251.595762 
L 274.087209 252.608164 
L 279.91774 254.161141 
L 287.205903 255.463176 
L 293.036434 256.93867 
L 295.222883 258.814435 
L 298.138148 260.456303 
L 302.511046 261.893676 
L 306.883944 263.281844 
L 312.714474 264.463006 
L 320.731454 265.395373 
L 325.833168 266.555625 
L 330.570474 267.687965 
L 338.223046 268.557806 
L 344.782393 269.481115 
L 352.799372 270.290014 
L 357.17227 271.274479 
L 363.002801 272.142194 
L 367.375699 273.025467 
L 373.20623 273.807906 
L 376.850311 274.641782 
L 381.952026 275.370795 
L 384.867291 276.148033 
L 389.240189 276.825977 
L 395.070719 277.424893 
L 399.443617 277.799596 
" clip-path="url(#pf19aa1dd4e)" style="fill: none; stroke: #000000; stroke-width: 1.5; stroke-linecap: square"/>
   </g>
   <g id="line2d_14">
    <path d="M 43.78125 22.318125 
L 43.78125 22.318125 
L 43.78125 22.318125 
L 43.78125 22.318125 
L 43.78125 22.318125 
L 43.78125 22.318125 
L 43.78125 22.318125 
L 43.78125 22.318125 
L 43.78125 22.318125 
L 43.78125 22.318125 
L 43.78125 22.318125 
L 43.78125 22.318125 
L 43.78125 22.318125 
L 43.78125 22.318125 
L 43.78125 22.318125 
L 43.78125 22.318125 
L 43.78125 22.318125 
L 43.78125 22.318125 
L 43.78125 22.318125 
L 44.510066 22.318125 
L 45.238883 22.318125 
L 46.696515 22.318125 
L 55.442311 71.105325 
L 62.730474 85.297965 
L 72.205087 117.561645 
L 80.950883 124.644525 
L 97.713658 144.438753 
L 108.645903 171.351181 
L 124.679862 190.921698 
L 144.357903 199.240198 
L 162.578311 212.825825 
L 185.900434 222.46287 
L 205.578474 229.988269 
L 221.612434 236.946268 
L 237.646393 242.704756 
L 250.03627 248.053323 
L 268.985495 252.101453 
L 282.833005 255.116546 
L 295.222883 257.950413 
L 301.053413 260.954821 
L 305.426311 263.528672 
L 316.358556 264.775754 
L 320.731454 266.30466 
L 328.748434 267.455632 
L 335.307781 268.596972 
L 343.32476 269.410406 
L 352.070556 270.099823 
L 355.714638 270.891066 
L 357.17227 271.696991 
L 362.273985 272.236495 
L 366.646883 272.662013 
L 368.833332 273.143951 
L 371.748597 273.530439 
L 373.935046 273.92178 
L 375.392679 274.302454 
L 378.307944 274.589328 
L 381.223209 274.803366 
L 381.952026 275.067706 
L 382.680842 275.313244 
L 384.138474 275.52187 
L 384.138474 275.745845 
L 384.867291 275.947521 
L 384.867291 276.11355 
L 384.867291 276.311458 
L 385.596107 276.440568 
L 385.596107 276.589504 
L 387.05374 276.667287 
L 387.782556 276.777658 
L 390.697821 276.795417 
L 390.697821 276.886876 
L 391.426638 276.94103 
L 392.155454 277.000557 
L 392.88427 277.053253 
L 393.613087 277.097485 
L 393.613087 277.156124 
L 393.613087 277.219716 
L 393.613087 277.285272 
L 394.341903 277.31434 
L 394.341903 277.362017 
L 395.070719 277.369312 
L 395.070719 277.413949 
L 395.070719 277.446423 
L 395.070719 277.485074 
L 395.070719 277.519399 
L 395.070719 277.542643 
L 395.799536 277.551648 
L 395.799536 277.574691 
L 395.799536 277.60391 
L 397.257168 277.592229 
L 397.985985 277.595308 
L 397.985985 277.622591 
L 397.985985 277.642404 
L 398.714801 277.630145 
L 398.714801 277.646336 
L 398.714801 277.658029 
L 398.714801 277.668835 
L 398.714801 277.684085 
L 398.714801 277.696586 
L 399.443617 277.683392 
L 399.443617 277.693188 
" clip-path="url(#pf19aa1dd4e)" style="fill: none; stroke-dasharray: 5.55,2.4; stroke-dashoffset: 0; stroke: #ff0000; stroke-width: 1.5"/>
   </g>
   <g id="line2d_15">
    <path d="M 394.341903 277.505191 
L 392.155454 277.534064 
L 390.697821 277.527218 
L 389.969005 277.490551 
L 389.969005 277.458487 
L 387.05374 277.487044 
L 386.324923 277.448059 
L 387.05374 277.377205 
L 385.596107 277.359438 
L 385.596107 277.284313 
L 385.596107 277.213864 
L 385.596107 277.128152 
L 383.409658 277.140473 
L 381.952026 277.075527 
L 382.680842 276.972908 
L 381.952026 276.899851 
L 378.307944 276.9114 
L 378.307944 276.78836 
L 377.579128 276.695948 
L 377.579128 276.530137 
L 378.307944 276.378316 
L 377.579128 276.223119 
L 374.663862 276.178505 
L 376.121495 275.93908 
L 374.663862 275.806015 
L 373.20623 275.6639 
L 373.20623 275.45605 
L 371.019781 275.311716 
L 369.562148 275.060837 
L 370.290964 274.735439 
L 368.833332 274.490255 
L 367.375699 274.184671 
L 366.646883 273.904659 
L 363.002801 273.746818 
L 361.545168 273.423171 
L 360.087536 273.022177 
L 357.901087 272.637907 
L 354.257005 272.24884 
L 351.34174 271.89199 
L 350.612923 271.399914 
L 347.697658 270.946687 
L 345.511209 270.319937 
L 338.223046 269.874366 
L 338.223046 269.174041 
L 333.121332 268.370311 
L 331.663699 267.638668 
L 326.561985 266.827617 
L 321.46027 265.999944 
L 316.358556 265.025161 
L 312.714474 263.654836 
L 310.528026 262.127044 
L 305.426311 260.876618 
L 301.053413 258.966588 
L 297.409332 257.119115 
L 289.392352 255.331444 
L 282.833005 252.589155 
L 271.171944 250.067937 
L 259.510883 246.502057 
L 247.121005 242.627398 
L 235.459944 237.475913 
L 223.070066 230.910413 
L 209.951372 223.766656 
L 191.730964 216.044075 
L 167.680026 209.477161 
L 148.001985 200.088222 
L 133.425658 178.644525 
L 113.018801 169.895067 
L 106.459454 146.459048 
L 86.781413 147.36722 
L 80.222066 127.762162 
L 65.64574 128.567085 
L 59.815209 117.527085 
L 52.527046 100.250925 
L 47.425332 57.799725 
L 46.696515 48.929325 
L 45.967699 48.929325 
L 45.238883 22.318125 
L 44.510066 22.318125 
L 43.78125 22.318125 
L 43.78125 22.318125 
L 43.78125 22.318125 
L 43.78125 22.318125 
L 43.78125 22.318125 
L 43.78125 22.318125 
L 43.78125 22.318125 
L 43.78125 22.318125 
L 43.78125 22.318125 
L 43.78125 22.318125 
L 43.78125 22.318125 
L 43.78125 22.318125 
L 43.78125 22.318125 
L 43.78125 22.318125 
L 43.78125 22.318125 
L 43.78125 22.318125 
L 43.78125 22.318125 
L 43.78125 22.318125 
L 43.78125 22.318125 
L 43.78125 22.318125 
L 43.78125 22.318125 
L 43.78125 22.318125 
" clip-path="url(#pf19aa1dd4e)" style="fill: none; stroke-dasharray: 9.6,2.4,1.5,2.4; stroke-dashoffset: 0; stroke: #bf00bf; stroke-width: 1.5"/>
   </g>
   <g id="patch_3">
    <path d="M 43.78125 288.430125 
L 43.78125 22.318125 
" style="fill: none; stroke: #000000; stroke-width: 0.8; stroke-linejoin: miter; stroke-linecap: square"/>
   </g>
   <g id="patch_4">
    <path d="M 43.78125 288.430125 
L 400.90125 288.430125 
" style="fill: none; stroke: #000000; stroke-width: 0.8; stroke-linejoin: miter; stroke-linecap: square"/>
   </g>
   <g id="text_15">
    <!-- PR Curve on 50x50 Tensors [1 sample; AR(1)] -->
    <g transform="translate(85.573125 16.318125) scale(0.12 -0.12)">
     <defs>
      <path id="DejaVuSans-20" transform="scale(0.015625)"/>
      <path id="DejaVuSans-43" d="M 4122 4306 
L 4122 3641 
Q 3803 3938 3442 4084 
Q 3081 4231 2675 4231 
Q 1875 4231 1450 3742 
Q 1025 3253 1025 2328 
Q 1025 1406 1450 917 
Q 1875 428 2675 428 
Q 3081 428 3442 575 
Q 3803 722 4122 1019 
L 4122 359 
Q 3791 134 3420 21 
Q 3050 -91 2638 -91 
Q 1578 -91 968 557 
Q 359 1206 359 2328 
Q 359 3453 968 4101 
Q 1578 4750 2638 4750 
Q 3056 4750 3426 4639 
Q 3797 4528 4122 4306 
z
" transform="scale(0.015625)"/>
      <path id="DejaVuSans-75" d="M 544 1381 
L 544 3500 
L 1119 3500 
L 1119 1403 
Q 1119 906 1312 657 
Q 1506 409 1894 409 
Q 2359 409 2629 706 
Q 2900 1003 2900 1516 
L 2900 3500 
L 3475 3500 
L 3475 0 
L 2900 0 
L 2900 538 
Q 2691 219 2414 64 
Q 2138 -91 1772 -91 
Q 1169 -91 856 284 
Q 544 659 544 1381 
z
M 1991 3584 
L 1991 3584 
z
" transform="scale(0.015625)"/>
      <path id="DejaVuSans-76" d="M 191 3500 
L 800 3500 
L 1894 563 
L 2988 3500 
L 3597 3500 
L 2284 0 
L 1503 0 
L 191 3500 
z
" transform="scale(0.015625)"/>
      <path id="DejaVuSans-35" d="M 691 4666 
L 3169 4666 
L 3169 4134 
L 1269 4134 
L 1269 2991 
Q 1406 3038 1543 3061 
Q 1681 3084 1819 3084 
Q 2600 3084 3056 2656 
Q 3513 2228 3513 1497 
Q 3513 744 3044 326 
Q 2575 -91 1722 -91 
Q 1428 -91 1123 -41 
Q 819 9 494 109 
L 494 744 
Q 775 591 1075 516 
Q 1375 441 1709 441 
Q 2250 441 2565 725 
Q 2881 1009 2881 1497 
Q 2881 1984 2565 2268 
Q 2250 2553 1709 2553 
Q 1456 2553 1204 2497 
Q 953 2441 691 2322 
L 691 4666 
z
" transform="scale(0.015625)"/>
      <path id="DejaVuSans-78" d="M 3513 3500 
L 2247 1797 
L 3578 0 
L 2900 0 
L 1881 1375 
L 863 0 
L 184 0 
L 1544 1831 
L 300 3500 
L 978 3500 
L 1906 2253 
L 2834 3500 
L 3513 3500 
z
" transform="scale(0.015625)"/>
      <path id="DejaVuSans-54" d="M -19 4666 
L 3928 4666 
L 3928 4134 
L 2272 4134 
L 2272 0 
L 1638 0 
L 1638 4134 
L -19 4134 
L -19 4666 
z
" transform="scale(0.015625)"/>
      <path id="DejaVuSans-5b" d="M 550 4863 
L 1875 4863 
L 1875 4416 
L 1125 4416 
L 1125 -397 
L 1875 -397 
L 1875 -844 
L 550 -844 
L 550 4863 
z
" transform="scale(0.015625)"/>
      <path id="DejaVuSans-6d" d="M 3328 2828 
Q 3544 3216 3844 3400 
Q 4144 3584 4550 3584 
Q 5097 3584 5394 3201 
Q 5691 2819 5691 2113 
L 5691 0 
L 5113 0 
L 5113 2094 
Q 5113 2597 4934 2840 
Q 4756 3084 4391 3084 
Q 3944 3084 3684 2787 
Q 3425 2491 3425 1978 
L 3425 0 
L 2847 0 
L 2847 2094 
Q 2847 2600 2669 2842 
Q 2491 3084 2119 3084 
Q 1678 3084 1418 2786 
Q 1159 2488 1159 1978 
L 1159 0 
L 581 0 
L 581 3500 
L 1159 3500 
L 1159 2956 
Q 1356 3278 1631 3431 
Q 1906 3584 2284 3584 
Q 2666 3584 2933 3390 
Q 3200 3197 3328 2828 
z
" transform="scale(0.015625)"/>
      <path id="DejaVuSans-70" d="M 1159 525 
L 1159 -1331 
L 581 -1331 
L 581 3500 
L 1159 3500 
L 1159 2969 
Q 1341 3281 1617 3432 
Q 1894 3584 2278 3584 
Q 2916 3584 3314 3078 
Q 3713 2572 3713 1747 
Q 3713 922 3314 415 
Q 2916 -91 2278 -91 
Q 1894 -91 1617 61 
Q 1341 213 1159 525 
z
M 3116 1747 
Q 3116 2381 2855 2742 
Q 2594 3103 2138 3103 
Q 1681 3103 1420 2742 
Q 1159 2381 1159 1747 
Q 1159 1113 1420 752 
Q 1681 391 2138 391 
Q 2594 391 2855 752 
Q 3116 1113 3116 1747 
z
" transform="scale(0.015625)"/>
      <path id="DejaVuSans-3b" d="M 750 3309 
L 1409 3309 
L 1409 2516 
L 750 2516 
L 750 3309 
z
M 750 794 
L 1409 794 
L 1409 256 
L 897 -744 
L 494 -744 
L 750 256 
L 750 794 
z
" transform="scale(0.015625)"/>
      <path id="DejaVuSans-41" d="M 2188 4044 
L 1331 1722 
L 3047 1722 
L 2188 4044 
z
M 1831 4666 
L 2547 4666 
L 4325 0 
L 3669 0 
L 3244 1197 
L 1141 1197 
L 716 0 
L 50 0 
L 1831 4666 
z
" transform="scale(0.015625)"/>
      <path id="DejaVuSans-28" d="M 1984 4856 
Q 1566 4138 1362 3434 
Q 1159 2731 1159 2009 
Q 1159 1288 1364 580 
Q 1569 -128 1984 -844 
L 1484 -844 
Q 1016 -109 783 600 
Q 550 1309 550 2009 
Q 550 2706 781 3412 
Q 1013 4119 1484 4856 
L 1984 4856 
z
" transform="scale(0.015625)"/>
      <path id="DejaVuSans-29" d="M 513 4856 
L 1013 4856 
Q 1481 4119 1714 3412 
Q 1947 2706 1947 2009 
Q 1947 1309 1714 600 
Q 1481 -109 1013 -844 
L 513 -844 
Q 928 -128 1133 580 
Q 1338 1288 1338 2009 
Q 1338 2731 1133 3434 
Q 928 4138 513 4856 
z
" transform="scale(0.015625)"/>
      <path id="DejaVuSans-5d" d="M 1947 4863 
L 1947 -844 
L 622 -844 
L 622 -397 
L 1369 -397 
L 1369 4416 
L 622 4416 
L 622 4863 
L 1947 4863 
z
" transform="scale(0.015625)"/>
     </defs>
     <use xlink:href="#DejaVuSans-50"/>
     <use xlink:href="#DejaVuSans-52" x="60.302734"/>
     <use xlink:href="#DejaVuSans-20" x="129.785156"/>
     <use xlink:href="#DejaVuSans-43" x="161.572266"/>
     <use xlink:href="#DejaVuSans-75" x="231.396484"/>
     <use xlink:href="#DejaVuSans-72" x="294.775391"/>
     <use xlink:href="#DejaVuSans-76" x="335.888672"/>
     <use xlink:href="#DejaVuSans-65" x="395.068359"/>
     <use xlink:href="#DejaVuSans-20" x="456.591797"/>
     <use xlink:href="#DejaVuSans-6f" x="488.378906"/>
     <use xlink:href="#DejaVuSans-6e" x="549.560547"/>
     <use xlink:href="#DejaVuSans-20" x="612.939453"/>
     <use xlink:href="#DejaVuSans-35" x="644.726562"/>
     <use xlink:href="#DejaVuSans-30" x="708.349609"/>
     <use xlink:href="#DejaVuSans-78" x="771.972656"/>
     <use xlink:href="#DejaVuSans-35" x="831.152344"/>
     <use xlink:href="#DejaVuSans-30" x="894.775391"/>
     <use xlink:href="#DejaVuSans-20" x="958.398438"/>
     <use xlink:href="#DejaVuSans-54" x="990.185547"/>
     <use xlink:href="#DejaVuSans-65" x="1034.269531"/>
     <use xlink:href="#DejaVuSans-6e" x="1095.792969"/>
     <use xlink:href="#DejaVuSans-73" x="1159.171875"/>
     <use xlink:href="#DejaVuSans-6f" x="1211.271484"/>
     <use xlink:href="#DejaVuSans-72" x="1272.453125"/>
     <use xlink:href="#DejaVuSans-73" x="1313.566406"/>
     <use xlink:href="#DejaVuSans-20" x="1365.666016"/>
     <use xlink:href="#DejaVuSans-5b" x="1397.453125"/>
     <use xlink:href="#DejaVuSans-31" x="1436.466797"/>
     <use xlink:href="#DejaVuSans-20" x="1500.089844"/>
     <use xlink:href="#DejaVuSans-73" x="1531.876953"/>
     <use xlink:href="#DejaVuSans-61" x="1583.976562"/>
     <use xlink:href="#DejaVuSans-6d" x="1645.255859"/>
     <use xlink:href="#DejaVuSans-70" x="1742.667969"/>
     <use xlink:href="#DejaVuSans-6c" x="1806.144531"/>
     <use xlink:href="#DejaVuSans-65" x="1833.927734"/>
     <use xlink:href="#DejaVuSans-3b" x="1895.451172"/>
     <use xlink:href="#DejaVuSans-20" x="1929.142578"/>
     <use xlink:href="#DejaVuSans-41" x="1960.929688"/>
     <use xlink:href="#DejaVuSans-52" x="2029.337891"/>
     <use xlink:href="#DejaVuSans-28" x="2098.820312"/>
     <use xlink:href="#DejaVuSans-31" x="2137.833984"/>
     <use xlink:href="#DejaVuSans-29" x="2201.457031"/>
     <use xlink:href="#DejaVuSans-5d" x="2240.470703"/>
    </g>
   </g>
   <g id="legend_1">
    <g id="patch_5">
     <path d="M 312.923125 74.3525 
L 393.90125 74.3525 
Q 395.90125 74.3525 395.90125 72.3525 
L 395.90125 29.318125 
Q 395.90125 27.318125 393.90125 27.318125 
L 312.923125 27.318125 
Q 310.923125 27.318125 310.923125 29.318125 
L 310.923125 72.3525 
Q 310.923125 74.3525 312.923125 74.3525 
z
" style="fill: #ffffff; opacity: 0.8; stroke: #cccccc; stroke-linejoin: miter"/>
    </g>
    <g id="line2d_16">
     <path d="M 314.923125 35.416562 
L 324.923125 35.416562 
L 334.923125 35.416562 
" style="fill: none; stroke: #000000; stroke-width: 1.5; stroke-linecap: square"/>
    </g>
    <g id="text_16">
     <!-- GmGM -->
     <g transform="translate(342.923125 38.916562) scale(0.1 -0.1)">
      <defs>
       <path id="DejaVuSans-47" d="M 3809 666 
L 3809 1919 
L 2778 1919 
L 2778 2438 
L 4434 2438 
L 4434 434 
Q 4069 175 3628 42 
Q 3188 -91 2688 -91 
Q 1594 -91 976 548 
Q 359 1188 359 2328 
Q 359 3472 976 4111 
Q 1594 4750 2688 4750 
Q 3144 4750 3555 4637 
Q 3966 4525 4313 4306 
L 4313 3634 
Q 3963 3931 3569 4081 
Q 3175 4231 2741 4231 
Q 1884 4231 1454 3753 
Q 1025 3275 1025 2328 
Q 1025 1384 1454 906 
Q 1884 428 2741 428 
Q 3075 428 3337 486 
Q 3600 544 3809 666 
z
" transform="scale(0.015625)"/>
       <path id="DejaVuSans-4d" d="M 628 4666 
L 1569 4666 
L 2759 1491 
L 3956 4666 
L 4897 4666 
L 4897 0 
L 4281 0 
L 4281 4097 
L 3078 897 
L 2444 897 
L 1241 4097 
L 1241 0 
L 628 0 
L 628 4666 
z
" transform="scale(0.015625)"/>
      </defs>
      <use xlink:href="#DejaVuSans-47"/>
      <use xlink:href="#DejaVuSans-6d" x="77.490234"/>
      <use xlink:href="#DejaVuSans-47" x="174.902344"/>
      <use xlink:href="#DejaVuSans-4d" x="252.392578"/>
     </g>
    </g>
    <g id="line2d_17">
     <path d="M 314.923125 50.094688 
L 324.923125 50.094688 
L 334.923125 50.094688 
" style="fill: none; stroke-dasharray: 5.55,2.4; stroke-dashoffset: 0; stroke: #ff0000; stroke-width: 1.5"/>
    </g>
    <g id="text_17">
     <!-- GmGM L1 -->
     <g transform="translate(342.923125 53.594688) scale(0.1 -0.1)">
      <defs>
       <path id="DejaVuSans-4c" d="M 628 4666 
L 1259 4666 
L 1259 531 
L 3531 531 
L 3531 0 
L 628 0 
L 628 4666 
z
" transform="scale(0.015625)"/>
      </defs>
      <use xlink:href="#DejaVuSans-47"/>
      <use xlink:href="#DejaVuSans-6d" x="77.490234"/>
      <use xlink:href="#DejaVuSans-47" x="174.902344"/>
      <use xlink:href="#DejaVuSans-4d" x="252.392578"/>
      <use xlink:href="#DejaVuSans-20" x="338.671875"/>
      <use xlink:href="#DejaVuSans-4c" x="370.458984"/>
      <use xlink:href="#DejaVuSans-31" x="426.171875"/>
     </g>
    </g>
    <g id="line2d_18">
     <path d="M 314.923125 64.772812 
L 324.923125 64.772812 
L 334.923125 64.772812 
" style="fill: none; stroke-dasharray: 9.6,2.4,1.5,2.4; stroke-dashoffset: 0; stroke: #bf00bf; stroke-width: 1.5"/>
    </g>
    <g id="text_18">
     <!-- EiGLasso -->
     <g transform="translate(342.923125 68.272812) scale(0.1 -0.1)">
      <defs>
       <path id="DejaVuSans-45" d="M 628 4666 
L 3578 4666 
L 3578 4134 
L 1259 4134 
L 1259 2753 
L 3481 2753 
L 3481 2222 
L 1259 2222 
L 1259 531 
L 3634 531 
L 3634 0 
L 628 0 
L 628 4666 
z
" transform="scale(0.015625)"/>
      </defs>
      <use xlink:href="#DejaVuSans-45"/>
      <use xlink:href="#DejaVuSans-69" x="63.183594"/>
      <use xlink:href="#DejaVuSans-47" x="90.966797"/>
      <use xlink:href="#DejaVuSans-4c" x="168.457031"/>
      <use xlink:href="#DejaVuSans-61" x="224.169922"/>
      <use xlink:href="#DejaVuSans-73" x="285.449219"/>
      <use xlink:href="#DejaVuSans-73" x="337.548828"/>
      <use xlink:href="#DejaVuSans-6f" x="389.648438"/>
     </g>
    </g>
   </g>
  </g>
 </g>
 <defs>
  <clipPath id="pf19aa1dd4e">
   <rect x="43.78125" y="22.318125" width="357.12" height="266.112"/>
  </clipPath>
 </defs>
</svg>
