<?xml version="1.0" encoding="utf-8" standalone="no"?>
<!DOCTYPE svg PUBLIC "-//W3C//DTD SVG 1.1//EN"
  "http://www.w3.org/Graphics/SVG/1.1/DTD/svg11.dtd">
<svg xmlns:xlink="http://www.w3.org/1999/xlink" width="416.052813pt" height="325.986375pt" viewBox="0 0 416.052813 325.986375" xmlns="http://www.w3.org/2000/svg" version="1.1">
 <metadata>
  <rdf:RDF xmlns:dc="http://purl.org/dc/elements/1.1/" xmlns:cc="http://creativecommons.org/ns#" xmlns:rdf="http://www.w3.org/1999/02/22-rdf-syntax-ns#">
   <cc:Work>
    <dc:type rdf:resource="http://purl.org/dc/dcmitype/StillImage"/>
    <dc:date>2023-10-13T22:40:35.601833</dc:date>
    <dc:format>image/svg+xml</dc:format>
    <dc:creator>
     <cc:Agent>
      <dc:title>Matplotlib v3.7.2, https://matplotlib.org/</dc:title>
     </cc:Agent>
    </dc:creator>
   </cc:Work>
  </rdf:RDF>
 </metadata>
 <defs>
  <style type="text/css">*{stroke-linejoin: round; stroke-linecap: butt}</style>
 </defs>
 <g id="figure_1">
  <g id="patch_1">
   <path d="M 0 325.986375 
L 416.052813 325.986375 
L 416.052813 0 
L 0 0 
z
" style="fill: #ffffff"/>
  </g>
  <g id="axes_1">
   <g id="patch_2">
    <path d="M 43.78125 288.430125 
L 400.90125 288.430125 
L 400.90125 22.318125 
L 43.78125 22.318125 
z
" style="fill: #ffffff"/>
   </g>
   <g id="PolyCollection_1">
    <path d="M 55.806719 22.318125 
L 55.806719 22.318125 
L 56.535536 22.318125 
L 58.357577 22.318125 
L 58.357577 22.318125 
L 62.366066 22.318125 
L 65.64574 22.318125 
L 65.64574 22.318125 
L 70.383046 22.318125 
L 72.933903 22.318125 
L 78.764434 22.318125 
L 84.594964 22.318125 
L 87.51023 22.318125 
L 94.798393 22.318125 
L 102.086556 22.318125 
L 109.374719 22.318125 
L 121.400189 22.318125 
L 131.239209 22.318125 
L 145.815536 22.318125 
L 160.391862 22.318125 
L 178.976679 22.318125 
L 196.832679 22.318125 
L 223.070066 22.318125 
L 247.849821 22.318125 
L 277.002474 22.318125 
L 313.443291 22.318125 
L 354.985821 22.318125 
L 400.90125 22.318125 
L 400.90125 57.642727 
L 400.90125 87.822617 
L 400.90125 114.570285 
L 400.90125 136.808172 
L 400.90125 156.718125 
L 400.90125 174.048651 
L 400.90125 188.892049 
L 400.90125 202.0759 
L 400.90125 213.490539 
L 400.90125 223.232685 
L 400.90125 231.859678 
L 400.90125 239.351737 
L 400.90125 245.7745 
L 400.90125 251.351959 
L 400.90125 256.233858 
L 400.90125 260.448391 
L 400.90125 264.132963 
L 400.90125 267.32279 
L 400.90125 270.090479 
L 400.90125 272.508894 
L 400.90125 274.494057 
L 400.90125 274.507864 
L 400.90125 274.507864 
L 400.90125 274.009719 
L 400.90125 274.009719 
L 400.90125 274.009719 
L 400.90125 274.011845 
L 400.90125 272.508894 
L 400.90125 270.090479 
L 400.90125 267.311134 
L 400.90125 264.122351 
L 400.90125 260.448391 
L 400.90125 256.233858 
L 400.90125 251.325442 
L 400.90125 245.734802 
L 400.90125 239.301078 
L 400.90125 231.859678 
L 400.90125 223.232685 
L 400.90125 213.490539 
L 400.90125 202.0759 
L 400.90125 188.892049 
L 400.90125 174.048651 
L 400.90125 156.718125 
L 400.90125 136.808172 
L 400.90125 114.570285 
L 400.90125 87.822617 
L 400.90125 57.642727 
L 400.90125 22.318125 
L 354.985821 22.318125 
L 313.443291 22.318125 
L 277.002474 22.318125 
L 247.849821 22.318125 
L 223.070066 22.318125 
L 196.832679 22.318125 
L 178.976679 22.318125 
L 160.391862 22.318125 
L 145.815536 22.318125 
L 131.239209 22.318125 
L 121.400189 22.318125 
L 109.374719 22.318125 
L 102.086556 22.318125 
L 94.798393 22.318125 
L 87.51023 22.318125 
L 84.594964 22.318125 
L 78.764434 22.318125 
L 72.933903 22.318125 
L 70.383046 22.318125 
L 65.64574 22.318125 
L 65.64574 22.318125 
L 62.366066 22.318125 
L 58.357577 22.318125 
L 58.357577 22.318125 
L 56.535536 22.318125 
L 55.806719 22.318125 
z
" clip-path="url(#p30710cf0e2)" style="fill-opacity: 0.2"/>
   </g>
   <g id="PolyCollection_2">
    <path d="M 54.367054 22.318125 
L 54.367054 22.318125 
L 54.9059 22.318125 
L 58.357577 22.318125 
L 58.357577 22.318125 
L 61.366217 22.318125 
L 65.64574 22.318125 
L 65.64574 22.318125 
L 68.852956 22.318125 
L 72.933903 22.318125 
L 77.172613 22.318125 
L 83.343304 22.318125 
L 87.51023 22.318125 
L 94.798393 22.318125 
L 102.086556 22.318125 
L 109.374719 22.318125 
L 119.92902 22.318125 
L 131.239209 22.318125 
L 145.815536 22.318125 
L 160.391862 22.318125 
L 177.994697 22.318125 
L 196.832679 22.318125 
L 221.747129 22.318125 
L 247.849821 22.318125 
L 277.002474 22.318125 
L 313.443291 22.318125 
L 353.427456 22.318125 
L 400.90125 22.318125 
L 400.90125 57.642727 
L 400.90125 87.822617 
L 400.90125 114.570285 
L 400.90125 136.808172 
L 400.90125 156.718125 
L 400.90125 174.048651 
L 400.90125 188.892049 
L 400.90125 202.0759 
L 400.90125 213.490539 
L 400.90125 223.232685 
L 400.90125 231.859678 
L 400.90125 239.326408 
L 400.90125 245.754651 
L 400.90125 251.3387 
L 400.90125 256.233858 
L 400.90125 260.448391 
L 400.90125 264.127657 
L 400.90125 267.316962 
L 400.90125 270.090479 
L 400.90125 272.508894 
L 400.90125 274.252951 
L 400.90125 274.258792 
L 400.90125 274.258792 
L 400.90125 274.258792 
L 400.90125 274.258792 
L 400.90125 274.258792 
L 400.90125 274.252951 
L 400.90125 272.508894 
L 400.90125 270.090479 
L 400.90125 267.316962 
L 400.90125 264.127657 
L 400.90125 260.448391 
L 400.90125 256.233858 
L 400.90125 251.3387 
L 400.90125 245.754651 
L 400.90125 239.326408 
L 400.90125 231.859678 
L 400.90125 223.232685 
L 400.90125 213.490539 
L 400.90125 202.0759 
L 400.90125 188.892049 
L 400.90125 174.048651 
L 400.90125 156.718125 
L 400.90125 136.808172 
L 400.90125 114.570285 
L 400.90125 87.822617 
L 400.90125 57.642727 
L 400.90125 22.318125 
L 353.427456 22.318125 
L 313.443291 22.318125 
L 277.002474 22.318125 
L 247.849821 22.318125 
L 221.747129 22.318125 
L 196.832679 22.318125 
L 177.994697 22.318125 
L 160.391862 22.318125 
L 145.815536 22.318125 
L 131.239209 22.318125 
L 119.92902 22.318125 
L 109.374719 22.318125 
L 102.086556 22.318125 
L 94.798393 22.318125 
L 87.51023 22.318125 
L 83.343304 22.318125 
L 77.172613 22.318125 
L 72.933903 22.318125 
L 68.852956 22.318125 
L 65.64574 22.318125 
L 65.64574 22.318125 
L 61.366217 22.318125 
L 58.357577 22.318125 
L 58.357577 22.318125 
L 54.9059 22.318125 
L 54.367054 22.318125 
z
" clip-path="url(#p30710cf0e2)" style="fill: #ff0000; fill-opacity: 0.2"/>
   </g>
   <g id="PolyCollection_3">
    <path d="M 43.78125 22.318125 
L 43.78125 22.318125 
L 43.78125 22.318125 
L 43.78125 22.318125 
L 43.78125 22.318125 
L 43.78125 22.318125 
L 43.78125 22.318125 
L 43.78125 22.318125 
L 43.78125 22.318125 
L 43.78125 22.318125 
L 43.78125 22.318125 
L 43.78125 22.318125 
L 43.78125 22.318125 
L 43.78125 22.318125 
L 43.78125 22.318125 
L 43.78125 22.318125 
L 43.78125 22.318125 
L 43.78125 22.318125 
L 43.78125 22.318125 
L 43.78125 22.318125 
L 43.78125 22.318125 
L 43.78125 22.318125 
L 43.78125 22.318125 
L 43.78125 22.318125 
L 43.78125 22.318125 
L 47.425332 22.318125 
L 83.137332 22.318125 
L 229.629413 22.318125 
L 352.070556 22.318125 
L 393.613087 22.318125 
L 400.90125 22.318125 
L 400.90125 22.318125 
L 400.90125 26.017452 
L 400.90125 35.671854 
L 400.90125 58.493555 
L 400.90125 99.68535 
L 400.90125 135.628983 
L 400.90125 179.311774 
L 400.90125 209.306625 
L 400.90125 229.166529 
L 400.90125 243.126241 
L 400.90125 252.452195 
L 400.90125 258.632484 
L 400.90125 263.305814 
L 400.90125 266.506739 
L 400.90125 268.80978 
L 400.90125 270.626376 
L 400.90125 271.977116 
L 400.90125 272.990963 
L 400.90125 273.864433 
L 400.90125 274.499526 
L 400.90125 274.009034 
L 400.90125 274.009034 
L 400.90125 273.394191 
L 400.90125 272.503069 
L 400.90125 271.273976 
L 400.90125 269.763989 
L 400.90125 267.645599 
L 400.90125 265.069364 
L 400.90125 261.429233 
L 400.90125 256.641861 
L 400.90125 249.640257 
L 400.90125 238.440868 
L 400.90125 221.969544 
L 400.90125 197.70998 
L 400.90125 165.529952 
L 400.90125 119.153231 
L 400.90125 80.36012 
L 400.90125 42.719142 
L 400.90125 26.608063 
L 400.90125 21.812142 
L 400.90125 22.318125 
L 400.90125 22.318125 
L 393.613087 22.318125 
L 352.070556 22.318125 
L 229.629413 22.318125 
L 83.137332 22.318125 
L 47.425332 22.318125 
L 43.78125 22.318125 
L 43.78125 22.318125 
L 43.78125 22.318125 
L 43.78125 22.318125 
L 43.78125 22.318125 
L 43.78125 22.318125 
L 43.78125 22.318125 
L 43.78125 22.318125 
L 43.78125 22.318125 
L 43.78125 22.318125 
L 43.78125 22.318125 
L 43.78125 22.318125 
L 43.78125 22.318125 
L 43.78125 22.318125 
L 43.78125 22.318125 
L 43.78125 22.318125 
L 43.78125 22.318125 
L 43.78125 22.318125 
L 43.78125 22.318125 
L 43.78125 22.318125 
L 43.78125 22.318125 
L 43.78125 22.318125 
L 43.78125 22.318125 
L 43.78125 22.318125 
z
" clip-path="url(#p30710cf0e2)" style="fill: #bf00bf; fill-opacity: 0.2"/>
   </g>
   <g id="PolyCollection_4">
    <path d="M 43.78125 22.318125 
L 43.78125 22.318125 
L 43.78125 22.318125 
L 43.78125 22.318125 
L 43.78125 22.318125 
L 43.78125 22.318125 
L 43.78125 22.318125 
L 43.78125 22.318125 
L 43.78125 22.318125 
L 43.78125 22.318125 
L 43.78125 22.318125 
L 43.78125 22.318125 
L 43.78125 22.318125 
L 43.78125 22.318125 
L 43.78125 22.318125 
L 43.78125 22.318125 
L 43.78125 22.318125 
L 43.78125 22.318125 
L 43.78125 22.318125 
L 43.78125 22.318125 
L 43.78125 22.318125 
L 43.78125 22.318125 
L 43.78125 22.318125 
L 43.78125 22.318125 
L 43.78125 22.318125 
L 43.120772 22.318125 
L 70.612628 22.318125 
L 207.510071 22.318125 
L 340.527028 22.318125 
L 387.861412 22.318125 
L 400.90125 22.318125 
L 400.90125 22.318125 
L 400.90125 23.914797 
L 400.90125 31.139959 
L 400.90125 50.606349 
L 400.90125 90.022735 
L 400.90125 127.391107 
L 400.90125 172.420863 
L 400.90125 203.508302 
L 400.90125 225.568037 
L 400.90125 240.783554 
L 400.90125 251.046226 
L 400.90125 257.637173 
L 400.90125 262.367523 
L 400.90125 265.788052 
L 400.90125 268.22769 
L 400.90125 270.195182 
L 400.90125 271.625546 
L 400.90125 272.747016 
L 400.90125 273.629312 
L 400.90125 274.25428 
L 400.90125 274.25428 
L 400.90125 274.25428 
L 400.90125 273.629312 
L 400.90125 272.747016 
L 400.90125 271.625546 
L 400.90125 270.195182 
L 400.90125 268.22769 
L 400.90125 265.788052 
L 400.90125 262.367523 
L 400.90125 257.637173 
L 400.90125 251.046226 
L 400.90125 240.783554 
L 400.90125 225.568037 
L 400.90125 203.508302 
L 400.90125 172.420863 
L 400.90125 127.391107 
L 400.90125 90.022735 
L 400.90125 50.606349 
L 400.90125 31.139959 
L 400.90125 23.914797 
L 400.90125 22.318125 
L 400.90125 22.318125 
L 387.861412 22.318125 
L 340.527028 22.318125 
L 207.510071 22.318125 
L 70.612628 22.318125 
L 43.120772 22.318125 
L 43.78125 22.318125 
L 43.78125 22.318125 
L 43.78125 22.318125 
L 43.78125 22.318125 
L 43.78125 22.318125 
L 43.78125 22.318125 
L 43.78125 22.318125 
L 43.78125 22.318125 
L 43.78125 22.318125 
L 43.78125 22.318125 
L 43.78125 22.318125 
L 43.78125 22.318125 
L 43.78125 22.318125 
L 43.78125 22.318125 
L 43.78125 22.318125 
L 43.78125 22.318125 
L 43.78125 22.318125 
L 43.78125 22.318125 
L 43.78125 22.318125 
L 43.78125 22.318125 
L 43.78125 22.318125 
L 43.78125 22.318125 
L 43.78125 22.318125 
L 43.78125 22.318125 
z
" clip-path="url(#p30710cf0e2)" style="fill: #006400; fill-opacity: 0.2"/>
   </g>
   <g id="PolyCollection_5">
    <path d="M 400.90125 255.265115 
L 400.90125 270.014941 
L 400.90125 266.532003 
L 400.90125 256.920727 
L 400.90125 265.630458 
L 400.90125 207.603129 
L 399.443617 221.023121 
L 400.90125 196.57474 
L 400.90125 172.45656 
L 400.90125 188.853933 
L 400.90125 126.897679 
L 400.90125 112.302197 
L 400.172434 156.904168 
L 397.257168 117.332376 
L 387.05374 48.338864 
L 314.900923 88.35311 
L 172.78174 36.713351 
L 64.188107 22.318125 
L 44.510066 22.318125 
L 43.78125 22.318125 
L 43.78125 22.318125 
L 43.78125 22.318125 
L 43.78125 22.318125 
L 43.78125 22.318125 
L 43.78125 22.318125 
L 43.78125 22.318125 
L 43.78125 22.318125 
L 43.78125 22.318125 
L 43.78125 22.318125 
L 43.78125 22.318125 
L 43.78125 22.318125 
L 43.78125 22.318125 
L 43.78125 22.318125 
L 43.78125 22.318125 
L 43.78125 22.318125 
L 43.78125 22.318125 
L 43.78125 22.318125 
L 43.78125 22.318125 
L 43.78125 22.318125 
L 43.78125 22.318125 
L 43.78125 22.318125 
L 43.78125 22.318125 
L 43.78125 22.318125 
L 43.78125 22.318125 
L 43.78125 22.318125 
L 43.78125 22.318125 
L 43.78125 22.318125 
L 43.78125 22.318125 
L 43.78125 22.318125 
L 43.78125 22.318125 
L 43.78125 22.318125 
L 43.78125 22.318125 
L 43.78125 22.318125 
L 43.78125 22.318125 
L 43.78125 22.318125 
L 43.78125 22.318125 
L 43.78125 22.318125 
L 43.78125 22.318125 
L 43.78125 22.318125 
L 43.78125 22.318125 
L 43.78125 22.318125 
L 43.78125 22.318125 
L 43.78125 22.318125 
L 43.78125 22.318125 
L 43.78125 22.318125 
L 43.78125 22.318125 
L 43.78125 22.318125 
L 43.78125 22.318125 
L 43.78125 22.318125 
L 43.78125 22.318125 
L 43.78125 22.318125 
L 43.78125 22.318125 
L 43.78125 22.318125 
L 43.78125 22.318125 
L 43.78125 22.318125 
L 43.78125 22.318125 
L 43.78125 22.318125 
L 43.78125 22.318125 
L 43.78125 22.318125 
L 43.78125 22.318125 
L 43.78125 22.318125 
L 43.78125 22.318125 
L 43.78125 22.318125 
L 43.78125 22.318125 
L 44.510066 22.318125 
L 64.188107 22.318125 
L 172.78174 16.11096 
L 314.900923 10.486229 
L 387.05374 15.541567 
L 397.257168 11.51443 
L 400.172434 11.305123 
L 400.90125 6.490892 
L 400.90125 16.024376 
L 400.90125 41.001198 
L 400.90125 56.469605 
L 400.90125 113.446354 
L 399.443617 159.532404 
L 400.90125 190.501789 
L 400.90125 223.10517 
L 400.90125 241.570102 
L 400.90125 249.175059 
L 400.90125 255.265115 
z
" clip-path="url(#p30710cf0e2)" style="fill-opacity: 0.2"/>
   </g>
   <g id="PolyCollection_6">
    <path d="M 400.90125 262.640028 
L 400.90125 262.640028 
L 400.90125 257.853531 
L 400.90125 249.245415 
L 400.90125 244.367814 
L 400.90125 199.052459 
L 395.351924 190.277763 
L 400.90125 155.010547 
L 400.90125 114.463083 
L 400.90125 114.927565 
L 400.90125 71.461028 
L 400.90125 59.396544 
L 398.208471 84.104646 
L 393.985237 64.423403 
L 379.096394 31.940215 
L 293.394558 49.419669 
L 141.000574 26.412156 
L 54.874121 22.318125 
L 42.510367 22.318125 
L 43.78125 22.318125 
L 43.78125 22.318125 
L 43.78125 22.318125 
L 43.78125 22.318125 
L 43.78125 22.318125 
L 43.78125 22.318125 
L 43.78125 22.318125 
L 43.78125 22.318125 
L 43.78125 22.318125 
L 43.78125 22.318125 
L 43.78125 22.318125 
L 43.78125 22.318125 
L 43.78125 22.318125 
L 43.78125 22.318125 
L 43.78125 22.318125 
L 43.78125 22.318125 
L 43.78125 22.318125 
L 43.78125 22.318125 
L 43.78125 22.318125 
L 43.78125 22.318125 
L 43.78125 22.318125 
L 43.78125 22.318125 
L 43.78125 22.318125 
L 43.78125 22.318125 
L 43.78125 22.318125 
L 43.78125 22.318125 
L 43.78125 22.318125 
L 43.78125 22.318125 
L 43.78125 22.318125 
L 43.78125 22.318125 
L 43.78125 22.318125 
L 43.78125 22.318125 
L 43.78125 22.318125 
L 43.78125 22.318125 
L 43.78125 22.318125 
L 43.78125 22.318125 
L 43.78125 22.318125 
L 43.78125 22.318125 
L 43.78125 22.318125 
L 43.78125 22.318125 
L 43.78125 22.318125 
L 43.78125 22.318125 
L 43.78125 22.318125 
L 43.78125 22.318125 
L 43.78125 22.318125 
L 43.78125 22.318125 
L 43.78125 22.318125 
L 43.78125 22.318125 
L 43.78125 22.318125 
L 43.78125 22.318125 
L 43.78125 22.318125 
L 43.78125 22.318125 
L 43.78125 22.318125 
L 43.78125 22.318125 
L 43.78125 22.318125 
L 43.78125 22.318125 
L 43.78125 22.318125 
L 43.78125 22.318125 
L 43.78125 22.318125 
L 43.78125 22.318125 
L 43.78125 22.318125 
L 43.78125 22.318125 
L 43.78125 22.318125 
L 43.78125 22.318125 
L 43.78125 22.318125 
L 42.510367 22.318125 
L 54.874121 22.318125 
L 141.000574 26.412156 
L 293.394558 49.419669 
L 379.096394 31.940215 
L 393.985237 64.423403 
L 398.208471 84.104646 
L 400.90125 59.396544 
L 400.90125 71.461028 
L 400.90125 114.927565 
L 400.90125 114.463083 
L 400.90125 155.010547 
L 395.351924 190.277763 
L 400.90125 199.052459 
L 400.90125 244.367814 
L 400.90125 249.245415 
L 400.90125 257.853531 
L 400.90125 262.640028 
z
" clip-path="url(#p30710cf0e2)" style="fill: #ff0000; fill-opacity: 0.2"/>
   </g>
   <g id="matplotlib.axis_1">
    <g id="xtick_1">
     <g id="line2d_1">
      <defs>
       <path id="m0ca1abba2d" d="M 0 0 
L 0 3.5 
" style="stroke: #000000; stroke-width: 0.8"/>
      </defs>
      <g>
       <use xlink:href="#m0ca1abba2d" x="43.78125" y="288.430125" style="stroke: #000000; stroke-width: 0.8"/>
      </g>
     </g>
     <g id="text_1">
      <!-- 0.0 -->
      <g transform="translate(35.829688 303.028562) scale(0.1 -0.1)">
       <defs>
        <path id="DejaVuSans-30" d="M 2034 4250 
Q 1547 4250 1301 3770 
Q 1056 3291 1056 2328 
Q 1056 1369 1301 889 
Q 1547 409 2034 409 
Q 2525 409 2770 889 
Q 3016 1369 3016 2328 
Q 3016 3291 2770 3770 
Q 2525 4250 2034 4250 
z
M 2034 4750 
Q 2819 4750 3233 4129 
Q 3647 3509 3647 2328 
Q 3647 1150 3233 529 
Q 2819 -91 2034 -91 
Q 1250 -91 836 529 
Q 422 1150 422 2328 
Q 422 3509 836 4129 
Q 1250 4750 2034 4750 
z
" transform="scale(0.015625)"/>
        <path id="DejaVuSans-2e" d="M 684 794 
L 1344 794 
L 1344 0 
L 684 0 
L 684 794 
z
" transform="scale(0.015625)"/>
       </defs>
       <use xlink:href="#DejaVuSans-30"/>
       <use xlink:href="#DejaVuSans-2e" x="63.623047"/>
       <use xlink:href="#DejaVuSans-30" x="95.410156"/>
      </g>
     </g>
    </g>
    <g id="xtick_2">
     <g id="line2d_2">
      <g>
       <use xlink:href="#m0ca1abba2d" x="115.20525" y="288.430125" style="stroke: #000000; stroke-width: 0.8"/>
      </g>
     </g>
     <g id="text_2">
      <!-- 0.2 -->
      <g transform="translate(107.253688 303.028562) scale(0.1 -0.1)">
       <defs>
        <path id="DejaVuSans-32" d="M 1228 531 
L 3431 531 
L 3431 0 
L 469 0 
L 469 531 
Q 828 903 1448 1529 
Q 2069 2156 2228 2338 
Q 2531 2678 2651 2914 
Q 2772 3150 2772 3378 
Q 2772 3750 2511 3984 
Q 2250 4219 1831 4219 
Q 1534 4219 1204 4116 
Q 875 4013 500 3803 
L 500 4441 
Q 881 4594 1212 4672 
Q 1544 4750 1819 4750 
Q 2544 4750 2975 4387 
Q 3406 4025 3406 3419 
Q 3406 3131 3298 2873 
Q 3191 2616 2906 2266 
Q 2828 2175 2409 1742 
Q 1991 1309 1228 531 
z
" transform="scale(0.015625)"/>
       </defs>
       <use xlink:href="#DejaVuSans-30"/>
       <use xlink:href="#DejaVuSans-2e" x="63.623047"/>
       <use xlink:href="#DejaVuSans-32" x="95.410156"/>
      </g>
     </g>
    </g>
    <g id="xtick_3">
     <g id="line2d_3">
      <g>
       <use xlink:href="#m0ca1abba2d" x="186.62925" y="288.430125" style="stroke: #000000; stroke-width: 0.8"/>
      </g>
     </g>
     <g id="text_3">
      <!-- 0.4 -->
      <g transform="translate(178.677688 303.028562) scale(0.1 -0.1)">
       <defs>
        <path id="DejaVuSans-34" d="M 2419 4116 
L 825 1625 
L 2419 1625 
L 2419 4116 
z
M 2253 4666 
L 3047 4666 
L 3047 1625 
L 3713 1625 
L 3713 1100 
L 3047 1100 
L 3047 0 
L 2419 0 
L 2419 1100 
L 313 1100 
L 313 1709 
L 2253 4666 
z
" transform="scale(0.015625)"/>
       </defs>
       <use xlink:href="#DejaVuSans-30"/>
       <use xlink:href="#DejaVuSans-2e" x="63.623047"/>
       <use xlink:href="#DejaVuSans-34" x="95.410156"/>
      </g>
     </g>
    </g>
    <g id="xtick_4">
     <g id="line2d_4">
      <g>
       <use xlink:href="#m0ca1abba2d" x="258.05325" y="288.430125" style="stroke: #000000; stroke-width: 0.8"/>
      </g>
     </g>
     <g id="text_4">
      <!-- 0.6 -->
      <g transform="translate(250.101688 303.028562) scale(0.1 -0.1)">
       <defs>
        <path id="DejaVuSans-36" d="M 2113 2584 
Q 1688 2584 1439 2293 
Q 1191 2003 1191 1497 
Q 1191 994 1439 701 
Q 1688 409 2113 409 
Q 2538 409 2786 701 
Q 3034 994 3034 1497 
Q 3034 2003 2786 2293 
Q 2538 2584 2113 2584 
z
M 3366 4563 
L 3366 3988 
Q 3128 4100 2886 4159 
Q 2644 4219 2406 4219 
Q 1781 4219 1451 3797 
Q 1122 3375 1075 2522 
Q 1259 2794 1537 2939 
Q 1816 3084 2150 3084 
Q 2853 3084 3261 2657 
Q 3669 2231 3669 1497 
Q 3669 778 3244 343 
Q 2819 -91 2113 -91 
Q 1303 -91 875 529 
Q 447 1150 447 2328 
Q 447 3434 972 4092 
Q 1497 4750 2381 4750 
Q 2619 4750 2861 4703 
Q 3103 4656 3366 4563 
z
" transform="scale(0.015625)"/>
       </defs>
       <use xlink:href="#DejaVuSans-30"/>
       <use xlink:href="#DejaVuSans-2e" x="63.623047"/>
       <use xlink:href="#DejaVuSans-36" x="95.410156"/>
      </g>
     </g>
    </g>
    <g id="xtick_5">
     <g id="line2d_5">
      <g>
       <use xlink:href="#m0ca1abba2d" x="329.47725" y="288.430125" style="stroke: #000000; stroke-width: 0.8"/>
      </g>
     </g>
     <g id="text_5">
      <!-- 0.8 -->
      <g transform="translate(321.525688 303.028562) scale(0.1 -0.1)">
       <defs>
        <path id="DejaVuSans-38" d="M 2034 2216 
Q 1584 2216 1326 1975 
Q 1069 1734 1069 1313 
Q 1069 891 1326 650 
Q 1584 409 2034 409 
Q 2484 409 2743 651 
Q 3003 894 3003 1313 
Q 3003 1734 2745 1975 
Q 2488 2216 2034 2216 
z
M 1403 2484 
Q 997 2584 770 2862 
Q 544 3141 544 3541 
Q 544 4100 942 4425 
Q 1341 4750 2034 4750 
Q 2731 4750 3128 4425 
Q 3525 4100 3525 3541 
Q 3525 3141 3298 2862 
Q 3072 2584 2669 2484 
Q 3125 2378 3379 2068 
Q 3634 1759 3634 1313 
Q 3634 634 3220 271 
Q 2806 -91 2034 -91 
Q 1263 -91 848 271 
Q 434 634 434 1313 
Q 434 1759 690 2068 
Q 947 2378 1403 2484 
z
M 1172 3481 
Q 1172 3119 1398 2916 
Q 1625 2713 2034 2713 
Q 2441 2713 2670 2916 
Q 2900 3119 2900 3481 
Q 2900 3844 2670 4047 
Q 2441 4250 2034 4250 
Q 1625 4250 1398 4047 
Q 1172 3844 1172 3481 
z
" transform="scale(0.015625)"/>
       </defs>
       <use xlink:href="#DejaVuSans-30"/>
       <use xlink:href="#DejaVuSans-2e" x="63.623047"/>
       <use xlink:href="#DejaVuSans-38" x="95.410156"/>
      </g>
     </g>
    </g>
    <g id="xtick_6">
     <g id="line2d_6">
      <g>
       <use xlink:href="#m0ca1abba2d" x="400.90125" y="288.430125" style="stroke: #000000; stroke-width: 0.8"/>
      </g>
     </g>
     <g id="text_6">
      <!-- 1.0 -->
      <g transform="translate(392.949687 303.028562) scale(0.1 -0.1)">
       <defs>
        <path id="DejaVuSans-31" d="M 794 531 
L 1825 531 
L 1825 4091 
L 703 3866 
L 703 4441 
L 1819 4666 
L 2450 4666 
L 2450 531 
L 3481 531 
L 3481 0 
L 794 0 
L 794 531 
z
" transform="scale(0.015625)"/>
       </defs>
       <use xlink:href="#DejaVuSans-31"/>
       <use xlink:href="#DejaVuSans-2e" x="63.623047"/>
       <use xlink:href="#DejaVuSans-30" x="95.410156"/>
      </g>
     </g>
    </g>
    <g id="text_7">
     <!-- Recall -->
     <g transform="translate(207.424062 316.706687) scale(0.1 -0.1)">
      <defs>
       <path id="DejaVuSans-52" d="M 2841 2188 
Q 3044 2119 3236 1894 
Q 3428 1669 3622 1275 
L 4263 0 
L 3584 0 
L 2988 1197 
Q 2756 1666 2539 1819 
Q 2322 1972 1947 1972 
L 1259 1972 
L 1259 0 
L 628 0 
L 628 4666 
L 2053 4666 
Q 2853 4666 3247 4331 
Q 3641 3997 3641 3322 
Q 3641 2881 3436 2590 
Q 3231 2300 2841 2188 
z
M 1259 4147 
L 1259 2491 
L 2053 2491 
Q 2509 2491 2742 2702 
Q 2975 2913 2975 3322 
Q 2975 3731 2742 3939 
Q 2509 4147 2053 4147 
L 1259 4147 
z
" transform="scale(0.015625)"/>
       <path id="DejaVuSans-65" d="M 3597 1894 
L 3597 1613 
L 953 1613 
Q 991 1019 1311 708 
Q 1631 397 2203 397 
Q 2534 397 2845 478 
Q 3156 559 3463 722 
L 3463 178 
Q 3153 47 2828 -22 
Q 2503 -91 2169 -91 
Q 1331 -91 842 396 
Q 353 884 353 1716 
Q 353 2575 817 3079 
Q 1281 3584 2069 3584 
Q 2775 3584 3186 3129 
Q 3597 2675 3597 1894 
z
M 3022 2063 
Q 3016 2534 2758 2815 
Q 2500 3097 2075 3097 
Q 1594 3097 1305 2825 
Q 1016 2553 972 2059 
L 3022 2063 
z
" transform="scale(0.015625)"/>
       <path id="DejaVuSans-63" d="M 3122 3366 
L 3122 2828 
Q 2878 2963 2633 3030 
Q 2388 3097 2138 3097 
Q 1578 3097 1268 2742 
Q 959 2388 959 1747 
Q 959 1106 1268 751 
Q 1578 397 2138 397 
Q 2388 397 2633 464 
Q 2878 531 3122 666 
L 3122 134 
Q 2881 22 2623 -34 
Q 2366 -91 2075 -91 
Q 1284 -91 818 406 
Q 353 903 353 1747 
Q 353 2603 823 3093 
Q 1294 3584 2113 3584 
Q 2378 3584 2631 3529 
Q 2884 3475 3122 3366 
z
" transform="scale(0.015625)"/>
       <path id="DejaVuSans-61" d="M 2194 1759 
Q 1497 1759 1228 1600 
Q 959 1441 959 1056 
Q 959 750 1161 570 
Q 1363 391 1709 391 
Q 2188 391 2477 730 
Q 2766 1069 2766 1631 
L 2766 1759 
L 2194 1759 
z
M 3341 1997 
L 3341 0 
L 2766 0 
L 2766 531 
Q 2569 213 2275 61 
Q 1981 -91 1556 -91 
Q 1019 -91 701 211 
Q 384 513 384 1019 
Q 384 1609 779 1909 
Q 1175 2209 1959 2209 
L 2766 2209 
L 2766 2266 
Q 2766 2663 2505 2880 
Q 2244 3097 1772 3097 
Q 1472 3097 1187 3025 
Q 903 2953 641 2809 
L 641 3341 
Q 956 3463 1253 3523 
Q 1550 3584 1831 3584 
Q 2591 3584 2966 3190 
Q 3341 2797 3341 1997 
z
" transform="scale(0.015625)"/>
       <path id="DejaVuSans-6c" d="M 603 4863 
L 1178 4863 
L 1178 0 
L 603 0 
L 603 4863 
z
" transform="scale(0.015625)"/>
      </defs>
      <use xlink:href="#DejaVuSans-52"/>
      <use xlink:href="#DejaVuSans-65" x="64.982422"/>
      <use xlink:href="#DejaVuSans-63" x="126.505859"/>
      <use xlink:href="#DejaVuSans-61" x="181.486328"/>
      <use xlink:href="#DejaVuSans-6c" x="242.765625"/>
      <use xlink:href="#DejaVuSans-6c" x="270.548828"/>
     </g>
    </g>
   </g>
   <g id="matplotlib.axis_2">
    <g id="ytick_1">
     <g id="line2d_7">
      <defs>
       <path id="ma56d3af6d5" d="M 0 0 
L -3.5 0 
" style="stroke: #000000; stroke-width: 0.8"/>
      </defs>
      <g>
       <use xlink:href="#ma56d3af6d5" x="43.78125" y="288.430125" style="stroke: #000000; stroke-width: 0.8"/>
      </g>
     </g>
     <g id="text_8">
      <!-- 0.0 -->
      <g transform="translate(20.878125 292.229344) scale(0.1 -0.1)">
       <use xlink:href="#DejaVuSans-30"/>
       <use xlink:href="#DejaVuSans-2e" x="63.623047"/>
       <use xlink:href="#DejaVuSans-30" x="95.410156"/>
      </g>
     </g>
    </g>
    <g id="ytick_2">
     <g id="line2d_8">
      <g>
       <use xlink:href="#ma56d3af6d5" x="43.78125" y="235.207725" style="stroke: #000000; stroke-width: 0.8"/>
      </g>
     </g>
     <g id="text_9">
      <!-- 0.2 -->
      <g transform="translate(20.878125 239.006944) scale(0.1 -0.1)">
       <use xlink:href="#DejaVuSans-30"/>
       <use xlink:href="#DejaVuSans-2e" x="63.623047"/>
       <use xlink:href="#DejaVuSans-32" x="95.410156"/>
      </g>
     </g>
    </g>
    <g id="ytick_3">
     <g id="line2d_9">
      <g>
       <use xlink:href="#ma56d3af6d5" x="43.78125" y="181.985325" style="stroke: #000000; stroke-width: 0.8"/>
      </g>
     </g>
     <g id="text_10">
      <!-- 0.4 -->
      <g transform="translate(20.878125 185.784544) scale(0.1 -0.1)">
       <use xlink:href="#DejaVuSans-30"/>
       <use xlink:href="#DejaVuSans-2e" x="63.623047"/>
       <use xlink:href="#DejaVuSans-34" x="95.410156"/>
      </g>
     </g>
    </g>
    <g id="ytick_4">
     <g id="line2d_10">
      <g>
       <use xlink:href="#ma56d3af6d5" x="43.78125" y="128.762925" style="stroke: #000000; stroke-width: 0.8"/>
      </g>
     </g>
     <g id="text_11">
      <!-- 0.6 -->
      <g transform="translate(20.878125 132.562144) scale(0.1 -0.1)">
       <use xlink:href="#DejaVuSans-30"/>
       <use xlink:href="#DejaVuSans-2e" x="63.623047"/>
       <use xlink:href="#DejaVuSans-36" x="95.410156"/>
      </g>
     </g>
    </g>
    <g id="ytick_5">
     <g id="line2d_11">
      <g>
       <use xlink:href="#ma56d3af6d5" x="43.78125" y="75.540525" style="stroke: #000000; stroke-width: 0.8"/>
      </g>
     </g>
     <g id="text_12">
      <!-- 0.8 -->
      <g transform="translate(20.878125 79.339744) scale(0.1 -0.1)">
       <use xlink:href="#DejaVuSans-30"/>
       <use xlink:href="#DejaVuSans-2e" x="63.623047"/>
       <use xlink:href="#DejaVuSans-38" x="95.410156"/>
      </g>
     </g>
    </g>
    <g id="ytick_6">
     <g id="line2d_12">
      <g>
       <use xlink:href="#ma56d3af6d5" x="43.78125" y="22.318125" style="stroke: #000000; stroke-width: 0.8"/>
      </g>
     </g>
     <g id="text_13">
      <!-- 1.0 -->
      <g transform="translate(20.878125 26.117344) scale(0.1 -0.1)">
       <use xlink:href="#DejaVuSans-31"/>
       <use xlink:href="#DejaVuSans-2e" x="63.623047"/>
       <use xlink:href="#DejaVuSans-30" x="95.410156"/>
      </g>
     </g>
    </g>
    <g id="text_14">
     <!-- Precision -->
     <g transform="translate(14.798438 177.681156) rotate(-90) scale(0.1 -0.1)">
      <defs>
       <path id="DejaVuSans-50" d="M 1259 4147 
L 1259 2394 
L 2053 2394 
Q 2494 2394 2734 2622 
Q 2975 2850 2975 3272 
Q 2975 3691 2734 3919 
Q 2494 4147 2053 4147 
L 1259 4147 
z
M 628 4666 
L 2053 4666 
Q 2838 4666 3239 4311 
Q 3641 3956 3641 3272 
Q 3641 2581 3239 2228 
Q 2838 1875 2053 1875 
L 1259 1875 
L 1259 0 
L 628 0 
L 628 4666 
z
" transform="scale(0.015625)"/>
       <path id="DejaVuSans-72" d="M 2631 2963 
Q 2534 3019 2420 3045 
Q 2306 3072 2169 3072 
Q 1681 3072 1420 2755 
Q 1159 2438 1159 1844 
L 1159 0 
L 581 0 
L 581 3500 
L 1159 3500 
L 1159 2956 
Q 1341 3275 1631 3429 
Q 1922 3584 2338 3584 
Q 2397 3584 2469 3576 
Q 2541 3569 2628 3553 
L 2631 2963 
z
" transform="scale(0.015625)"/>
       <path id="DejaVuSans-69" d="M 603 3500 
L 1178 3500 
L 1178 0 
L 603 0 
L 603 3500 
z
M 603 4863 
L 1178 4863 
L 1178 4134 
L 603 4134 
L 603 4863 
z
" transform="scale(0.015625)"/>
       <path id="DejaVuSans-73" d="M 2834 3397 
L 2834 2853 
Q 2591 2978 2328 3040 
Q 2066 3103 1784 3103 
Q 1356 3103 1142 2972 
Q 928 2841 928 2578 
Q 928 2378 1081 2264 
Q 1234 2150 1697 2047 
L 1894 2003 
Q 2506 1872 2764 1633 
Q 3022 1394 3022 966 
Q 3022 478 2636 193 
Q 2250 -91 1575 -91 
Q 1294 -91 989 -36 
Q 684 19 347 128 
L 347 722 
Q 666 556 975 473 
Q 1284 391 1588 391 
Q 1994 391 2212 530 
Q 2431 669 2431 922 
Q 2431 1156 2273 1281 
Q 2116 1406 1581 1522 
L 1381 1569 
Q 847 1681 609 1914 
Q 372 2147 372 2553 
Q 372 3047 722 3315 
Q 1072 3584 1716 3584 
Q 2034 3584 2315 3537 
Q 2597 3491 2834 3397 
z
" transform="scale(0.015625)"/>
       <path id="DejaVuSans-6f" d="M 1959 3097 
Q 1497 3097 1228 2736 
Q 959 2375 959 1747 
Q 959 1119 1226 758 
Q 1494 397 1959 397 
Q 2419 397 2687 759 
Q 2956 1122 2956 1747 
Q 2956 2369 2687 2733 
Q 2419 3097 1959 3097 
z
M 1959 3584 
Q 2709 3584 3137 3096 
Q 3566 2609 3566 1747 
Q 3566 888 3137 398 
Q 2709 -91 1959 -91 
Q 1206 -91 779 398 
Q 353 888 353 1747 
Q 353 2609 779 3096 
Q 1206 3584 1959 3584 
z
" transform="scale(0.015625)"/>
       <path id="DejaVuSans-6e" d="M 3513 2113 
L 3513 0 
L 2938 0 
L 2938 2094 
Q 2938 2591 2744 2837 
Q 2550 3084 2163 3084 
Q 1697 3084 1428 2787 
Q 1159 2491 1159 1978 
L 1159 0 
L 581 0 
L 581 3500 
L 1159 3500 
L 1159 2956 
Q 1366 3272 1645 3428 
Q 1925 3584 2291 3584 
Q 2894 3584 3203 3211 
Q 3513 2838 3513 2113 
z
" transform="scale(0.015625)"/>
      </defs>
      <use xlink:href="#DejaVuSans-50"/>
      <use xlink:href="#DejaVuSans-72" x="58.552734"/>
      <use xlink:href="#DejaVuSans-65" x="97.416016"/>
      <use xlink:href="#DejaVuSans-63" x="158.939453"/>
      <use xlink:href="#DejaVuSans-69" x="213.919922"/>
      <use xlink:href="#DejaVuSans-73" x="241.703125"/>
      <use xlink:href="#DejaVuSans-69" x="293.802734"/>
      <use xlink:href="#DejaVuSans-6f" x="321.585938"/>
      <use xlink:href="#DejaVuSans-6e" x="382.767578"/>
     </g>
    </g>
   </g>
   <g id="line2d_13">
    <path d="M 55.806719 22.318125 
L 56.535536 22.318125 
L 58.357577 22.318125 
L 58.357577 22.318125 
L 62.366066 22.318125 
L 65.64574 22.318125 
L 65.64574 22.318125 
L 70.383046 22.318125 
L 72.933903 22.318125 
L 78.764434 22.318125 
L 84.594964 22.318125 
L 87.51023 22.318125 
L 94.798393 22.318125 
L 102.086556 22.318125 
L 109.374719 22.318125 
L 121.400189 22.318125 
L 131.239209 22.318125 
L 145.815536 22.318125 
L 160.391862 22.318125 
L 178.976679 22.318125 
L 196.832679 22.318125 
L 223.070066 22.318125 
L 247.849821 22.318125 
L 277.002474 22.318125 
L 313.443291 22.318125 
L 354.985821 22.318125 
L 400.90125 22.318125 
L 400.90125 57.642727 
L 400.90125 87.822617 
L 400.90125 114.570285 
L 400.90125 136.808172 
L 400.90125 156.718125 
L 400.90125 174.048651 
L 400.90125 188.892049 
L 400.90125 202.0759 
L 400.90125 213.490539 
L 400.90125 223.232685 
L 400.90125 231.859678 
L 400.90125 239.326408 
L 400.90125 245.754651 
L 400.90125 251.3387 
L 400.90125 256.233858 
L 400.90125 260.448391 
L 400.90125 264.127657 
L 400.90125 267.316962 
L 400.90125 270.090479 
L 400.90125 272.508894 
L 400.90125 274.252951 
L 400.90125 274.258792 
L 400.90125 274.258792 
" clip-path="url(#p30710cf0e2)" style="fill: none; stroke: #000000; stroke-width: 1.5; stroke-linecap: square"/>
   </g>
   <g id="line2d_14">
    <path d="M 43.78125 22.318125 
L 43.78125 22.318125 
L 43.78125 22.318125 
L 43.78125 22.318125 
L 43.78125 22.318125 
L 43.78125 22.318125 
L 43.78125 22.318125 
L 43.78125 22.318125 
L 43.78125 22.318125 
L 43.78125 22.318125 
L 43.78125 22.318125 
L 43.78125 22.318125 
L 43.78125 22.318125 
L 43.78125 22.318125 
L 43.78125 22.318125 
L 43.78125 22.318125 
L 43.78125 22.318125 
L 43.78125 22.318125 
L 43.78125 22.318125 
L 43.78125 22.318125 
L 43.78125 22.318125 
L 43.78125 22.318125 
L 43.78125 22.318125 
L 43.78125 22.318125 
L 47.425332 22.318125 
L 83.137332 22.318125 
L 229.629413 22.318125 
L 352.070556 22.318125 
L 393.613087 22.318125 
L 400.90125 22.318125 
L 400.90125 22.318125 
L 400.90125 23.914797 
L 400.90125 31.139959 
L 400.90125 50.606349 
L 400.90125 90.022735 
L 400.90125 127.391107 
L 400.90125 172.420863 
L 400.90125 203.508302 
L 400.90125 225.568037 
L 400.90125 240.783554 
L 400.90125 251.046226 
L 400.90125 257.637173 
L 400.90125 262.367523 
L 400.90125 265.788052 
L 400.90125 268.22769 
L 400.90125 270.195182 
L 400.90125 271.625546 
L 400.90125 272.747016 
L 400.90125 273.629312 
L 400.90125 274.25428 
" clip-path="url(#p30710cf0e2)" style="fill: none; stroke-dasharray: 5.55,2.4; stroke-dashoffset: 0; stroke: #ff0000; stroke-width: 1.5"/>
   </g>
   <g id="line2d_15">
    <path d="M 400.90125 262.640028 
L 400.90125 257.853531 
L 400.90125 249.245415 
L 400.90125 244.367814 
L 400.90125 199.052459 
L 399.443617 190.277763 
L 400.90125 155.010547 
L 400.90125 114.463083 
L 400.90125 114.927565 
L 400.90125 71.461028 
L 400.90125 59.396544 
L 400.172434 84.104646 
L 397.257168 64.423403 
L 387.05374 31.940215 
L 314.900923 49.419669 
L 172.78174 26.412156 
L 64.188107 22.318125 
L 44.510066 22.318125 
L 43.78125 22.318125 
L 43.78125 22.318125 
L 43.78125 22.318125 
L 43.78125 22.318125 
L 43.78125 22.318125 
L 43.78125 22.318125 
L 43.78125 22.318125 
L 43.78125 22.318125 
L 43.78125 22.318125 
L 43.78125 22.318125 
L 43.78125 22.318125 
L 43.78125 22.318125 
L 43.78125 22.318125 
L 43.78125 22.318125 
L 43.78125 22.318125 
L 43.78125 22.318125 
L 43.78125 22.318125 
L 43.78125 22.318125 
L 43.78125 22.318125 
L 43.78125 22.318125 
L 43.78125 22.318125 
L 43.78125 22.318125 
L 43.78125 22.318125 
L 43.78125 22.318125 
L 43.78125 22.318125 
L 43.78125 22.318125 
L 43.78125 22.318125 
L 43.78125 22.318125 
L 43.78125 22.318125 
L 43.78125 22.318125 
L 43.78125 22.318125 
L 43.78125 22.318125 
" clip-path="url(#p30710cf0e2)" style="fill: none; stroke-dasharray: 9.6,2.4,1.5,2.4; stroke-dashoffset: 0; stroke: #bf00bf; stroke-width: 1.5"/>
   </g>
   <g id="patch_3">
    <path d="M 43.78125 288.430125 
L 43.78125 22.318125 
" style="fill: none; stroke: #000000; stroke-width: 0.8; stroke-linejoin: miter; stroke-linecap: square"/>
   </g>
   <g id="patch_4">
    <path d="M 43.78125 288.430125 
L 400.90125 288.430125 
" style="fill: none; stroke: #000000; stroke-width: 0.8; stroke-linejoin: miter; stroke-linecap: square"/>
   </g>
   <g id="text_15">
    <!-- PR Curve on 50x50x50 Tensors [1 sample; AR(1)] -->
    <g transform="translate(74.386875 16.318125) scale(0.12 -0.12)">
     <defs>
      <path id="DejaVuSans-20" transform="scale(0.015625)"/>
      <path id="DejaVuSans-43" d="M 4122 4306 
L 4122 3641 
Q 3803 3938 3442 4084 
Q 3081 4231 2675 4231 
Q 1875 4231 1450 3742 
Q 1025 3253 1025 2328 
Q 1025 1406 1450 917 
Q 1875 428 2675 428 
Q 3081 428 3442 575 
Q 3803 722 4122 1019 
L 4122 359 
Q 3791 134 3420 21 
Q 3050 -91 2638 -91 
Q 1578 -91 968 557 
Q 359 1206 359 2328 
Q 359 3453 968 4101 
Q 1578 4750 2638 4750 
Q 3056 4750 3426 4639 
Q 3797 4528 4122 4306 
z
" transform="scale(0.015625)"/>
      <path id="DejaVuSans-75" d="M 544 1381 
L 544 3500 
L 1119 3500 
L 1119 1403 
Q 1119 906 1312 657 
Q 1506 409 1894 409 
Q 2359 409 2629 706 
Q 2900 1003 2900 1516 
L 2900 3500 
L 3475 3500 
L 3475 0 
L 2900 0 
L 2900 538 
Q 2691 219 2414 64 
Q 2138 -91 1772 -91 
Q 1169 -91 856 284 
Q 544 659 544 1381 
z
M 1991 3584 
L 1991 3584 
z
" transform="scale(0.015625)"/>
      <path id="DejaVuSans-76" d="M 191 3500 
L 800 3500 
L 1894 563 
L 2988 3500 
L 3597 3500 
L 2284 0 
L 1503 0 
L 191 3500 
z
" transform="scale(0.015625)"/>
      <path id="DejaVuSans-35" d="M 691 4666 
L 3169 4666 
L 3169 4134 
L 1269 4134 
L 1269 2991 
Q 1406 3038 1543 3061 
Q 1681 3084 1819 3084 
Q 2600 3084 3056 2656 
Q 3513 2228 3513 1497 
Q 3513 744 3044 326 
Q 2575 -91 1722 -91 
Q 1428 -91 1123 -41 
Q 819 9 494 109 
L 494 744 
Q 775 591 1075 516 
Q 1375 441 1709 441 
Q 2250 441 2565 725 
Q 2881 1009 2881 1497 
Q 2881 1984 2565 2268 
Q 2250 2553 1709 2553 
Q 1456 2553 1204 2497 
Q 953 2441 691 2322 
L 691 4666 
z
" transform="scale(0.015625)"/>
      <path id="DejaVuSans-78" d="M 3513 3500 
L 2247 1797 
L 3578 0 
L 2900 0 
L 1881 1375 
L 863 0 
L 184 0 
L 1544 1831 
L 300 3500 
L 978 3500 
L 1906 2253 
L 2834 3500 
L 3513 3500 
z
" transform="scale(0.015625)"/>
      <path id="DejaVuSans-54" d="M -19 4666 
L 3928 4666 
L 3928 4134 
L 2272 4134 
L 2272 0 
L 1638 0 
L 1638 4134 
L -19 4134 
L -19 4666 
z
" transform="scale(0.015625)"/>
      <path id="DejaVuSans-5b" d="M 550 4863 
L 1875 4863 
L 1875 4416 
L 1125 4416 
L 1125 -397 
L 1875 -397 
L 1875 -844 
L 550 -844 
L 550 4863 
z
" transform="scale(0.015625)"/>
      <path id="DejaVuSans-6d" d="M 3328 2828 
Q 3544 3216 3844 3400 
Q 4144 3584 4550 3584 
Q 5097 3584 5394 3201 
Q 5691 2819 5691 2113 
L 5691 0 
L 5113 0 
L 5113 2094 
Q 5113 2597 4934 2840 
Q 4756 3084 4391 3084 
Q 3944 3084 3684 2787 
Q 3425 2491 3425 1978 
L 3425 0 
L 2847 0 
L 2847 2094 
Q 2847 2600 2669 2842 
Q 2491 3084 2119 3084 
Q 1678 3084 1418 2786 
Q 1159 2488 1159 1978 
L 1159 0 
L 581 0 
L 581 3500 
L 1159 3500 
L 1159 2956 
Q 1356 3278 1631 3431 
Q 1906 3584 2284 3584 
Q 2666 3584 2933 3390 
Q 3200 3197 3328 2828 
z
" transform="scale(0.015625)"/>
      <path id="DejaVuSans-70" d="M 1159 525 
L 1159 -1331 
L 581 -1331 
L 581 3500 
L 1159 3500 
L 1159 2969 
Q 1341 3281 1617 3432 
Q 1894 3584 2278 3584 
Q 2916 3584 3314 3078 
Q 3713 2572 3713 1747 
Q 3713 922 3314 415 
Q 2916 -91 2278 -91 
Q 1894 -91 1617 61 
Q 1341 213 1159 525 
z
M 3116 1747 
Q 3116 2381 2855 2742 
Q 2594 3103 2138 3103 
Q 1681 3103 1420 2742 
Q 1159 2381 1159 1747 
Q 1159 1113 1420 752 
Q 1681 391 2138 391 
Q 2594 391 2855 752 
Q 3116 1113 3116 1747 
z
" transform="scale(0.015625)"/>
      <path id="DejaVuSans-3b" d="M 750 3309 
L 1409 3309 
L 1409 2516 
L 750 2516 
L 750 3309 
z
M 750 794 
L 1409 794 
L 1409 256 
L 897 -744 
L 494 -744 
L 750 256 
L 750 794 
z
" transform="scale(0.015625)"/>
      <path id="DejaVuSans-41" d="M 2188 4044 
L 1331 1722 
L 3047 1722 
L 2188 4044 
z
M 1831 4666 
L 2547 4666 
L 4325 0 
L 3669 0 
L 3244 1197 
L 1141 1197 
L 716 0 
L 50 0 
L 1831 4666 
z
" transform="scale(0.015625)"/>
      <path id="DejaVuSans-28" d="M 1984 4856 
Q 1566 4138 1362 3434 
Q 1159 2731 1159 2009 
Q 1159 1288 1364 580 
Q 1569 -128 1984 -844 
L 1484 -844 
Q 1016 -109 783 600 
Q 550 1309 550 2009 
Q 550 2706 781 3412 
Q 1013 4119 1484 4856 
L 1984 4856 
z
" transform="scale(0.015625)"/>
      <path id="DejaVuSans-29" d="M 513 4856 
L 1013 4856 
Q 1481 4119 1714 3412 
Q 1947 2706 1947 2009 
Q 1947 1309 1714 600 
Q 1481 -109 1013 -844 
L 513 -844 
Q 928 -128 1133 580 
Q 1338 1288 1338 2009 
Q 1338 2731 1133 3434 
Q 928 4138 513 4856 
z
" transform="scale(0.015625)"/>
      <path id="DejaVuSans-5d" d="M 1947 4863 
L 1947 -844 
L 622 -844 
L 622 -397 
L 1369 -397 
L 1369 4416 
L 622 4416 
L 622 4863 
L 1947 4863 
z
" transform="scale(0.015625)"/>
     </defs>
     <use xlink:href="#DejaVuSans-50"/>
     <use xlink:href="#DejaVuSans-52" x="60.302734"/>
     <use xlink:href="#DejaVuSans-20" x="129.785156"/>
     <use xlink:href="#DejaVuSans-43" x="161.572266"/>
     <use xlink:href="#DejaVuSans-75" x="231.396484"/>
     <use xlink:href="#DejaVuSans-72" x="294.775391"/>
     <use xlink:href="#DejaVuSans-76" x="335.888672"/>
     <use xlink:href="#DejaVuSans-65" x="395.068359"/>
     <use xlink:href="#DejaVuSans-20" x="456.591797"/>
     <use xlink:href="#DejaVuSans-6f" x="488.378906"/>
     <use xlink:href="#DejaVuSans-6e" x="549.560547"/>
     <use xlink:href="#DejaVuSans-20" x="612.939453"/>
     <use xlink:href="#DejaVuSans-35" x="644.726562"/>
     <use xlink:href="#DejaVuSans-30" x="708.349609"/>
     <use xlink:href="#DejaVuSans-78" x="771.972656"/>
     <use xlink:href="#DejaVuSans-35" x="831.152344"/>
     <use xlink:href="#DejaVuSans-30" x="894.775391"/>
     <use xlink:href="#DejaVuSans-78" x="958.398438"/>
     <use xlink:href="#DejaVuSans-35" x="1017.578125"/>
     <use xlink:href="#DejaVuSans-30" x="1081.201172"/>
     <use xlink:href="#DejaVuSans-20" x="1144.824219"/>
     <use xlink:href="#DejaVuSans-54" x="1176.611328"/>
     <use xlink:href="#DejaVuSans-65" x="1220.695312"/>
     <use xlink:href="#DejaVuSans-6e" x="1282.21875"/>
     <use xlink:href="#DejaVuSans-73" x="1345.597656"/>
     <use xlink:href="#DejaVuSans-6f" x="1397.697266"/>
     <use xlink:href="#DejaVuSans-72" x="1458.878906"/>
     <use xlink:href="#DejaVuSans-73" x="1499.992188"/>
     <use xlink:href="#DejaVuSans-20" x="1552.091797"/>
     <use xlink:href="#DejaVuSans-5b" x="1583.878906"/>
     <use xlink:href="#DejaVuSans-31" x="1622.892578"/>
     <use xlink:href="#DejaVuSans-20" x="1686.515625"/>
     <use xlink:href="#DejaVuSans-73" x="1718.302734"/>
     <use xlink:href="#DejaVuSans-61" x="1770.402344"/>
     <use xlink:href="#DejaVuSans-6d" x="1831.681641"/>
     <use xlink:href="#DejaVuSans-70" x="1929.09375"/>
     <use xlink:href="#DejaVuSans-6c" x="1992.570312"/>
     <use xlink:href="#DejaVuSans-65" x="2020.353516"/>
     <use xlink:href="#DejaVuSans-3b" x="2081.876953"/>
     <use xlink:href="#DejaVuSans-20" x="2115.568359"/>
     <use xlink:href="#DejaVuSans-41" x="2147.355469"/>
     <use xlink:href="#DejaVuSans-52" x="2215.763672"/>
     <use xlink:href="#DejaVuSans-28" x="2285.246094"/>
     <use xlink:href="#DejaVuSans-31" x="2324.259766"/>
     <use xlink:href="#DejaVuSans-29" x="2387.882812"/>
     <use xlink:href="#DejaVuSans-5d" x="2426.896484"/>
    </g>
   </g>
   <g id="legend_1">
    <g id="patch_5">
     <path d="M 50.78125 74.3525 
L 131.81875 74.3525 
Q 133.81875 74.3525 133.81875 72.3525 
L 133.81875 29.318125 
Q 133.81875 27.318125 131.81875 27.318125 
L 50.78125 27.318125 
Q 48.78125 27.318125 48.78125 29.318125 
L 48.78125 72.3525 
Q 48.78125 74.3525 50.78125 74.3525 
z
" style="fill: #ffffff; opacity: 0.8; stroke: #cccccc; stroke-linejoin: miter"/>
    </g>
    <g id="line2d_16">
     <path d="M 52.78125 35.416562 
L 62.78125 35.416562 
L 72.78125 35.416562 
" style="fill: none; stroke: #000000; stroke-width: 1.5; stroke-linecap: square"/>
    </g>
    <g id="text_16">
     <!-- GmGM -->
     <g transform="translate(80.78125 38.916562) scale(0.1 -0.1)">
      <defs>
       <path id="DejaVuSans-47" d="M 3809 666 
L 3809 1919 
L 2778 1919 
L 2778 2438 
L 4434 2438 
L 4434 434 
Q 4069 175 3628 42 
Q 3188 -91 2688 -91 
Q 1594 -91 976 548 
Q 359 1188 359 2328 
Q 359 3472 976 4111 
Q 1594 4750 2688 4750 
Q 3144 4750 3555 4637 
Q 3966 4525 4313 4306 
L 4313 3634 
Q 3963 3931 3569 4081 
Q 3175 4231 2741 4231 
Q 1884 4231 1454 3753 
Q 1025 3275 1025 2328 
Q 1025 1384 1454 906 
Q 1884 428 2741 428 
Q 3075 428 3337 486 
Q 3600 544 3809 666 
z
" transform="scale(0.015625)"/>
       <path id="DejaVuSans-4d" d="M 628 4666 
L 1569 4666 
L 2759 1491 
L 3956 4666 
L 4897 4666 
L 4897 0 
L 4281 0 
L 4281 4097 
L 3078 897 
L 2444 897 
L 1241 4097 
L 1241 0 
L 628 0 
L 628 4666 
z
" transform="scale(0.015625)"/>
      </defs>
      <use xlink:href="#DejaVuSans-47"/>
      <use xlink:href="#DejaVuSans-6d" x="77.490234"/>
      <use xlink:href="#DejaVuSans-47" x="174.902344"/>
      <use xlink:href="#DejaVuSans-4d" x="252.392578"/>
     </g>
    </g>
    <g id="line2d_17">
     <path d="M 52.78125 50.094688 
L 62.78125 50.094688 
L 72.78125 50.094688 
" style="fill: none; stroke-dasharray: 5.55,2.4; stroke-dashoffset: 0; stroke: #ff0000; stroke-width: 1.5"/>
    </g>
    <g id="text_17">
     <!-- GmGM L1 -->
     <g transform="translate(80.78125 53.594688) scale(0.1 -0.1)">
      <defs>
       <path id="DejaVuSans-4c" d="M 628 4666 
L 1259 4666 
L 1259 531 
L 3531 531 
L 3531 0 
L 628 0 
L 628 4666 
z
" transform="scale(0.015625)"/>
      </defs>
      <use xlink:href="#DejaVuSans-47"/>
      <use xlink:href="#DejaVuSans-6d" x="77.490234"/>
      <use xlink:href="#DejaVuSans-47" x="174.902344"/>
      <use xlink:href="#DejaVuSans-4d" x="252.392578"/>
      <use xlink:href="#DejaVuSans-20" x="338.671875"/>
      <use xlink:href="#DejaVuSans-4c" x="370.458984"/>
      <use xlink:href="#DejaVuSans-31" x="426.171875"/>
     </g>
    </g>
    <g id="line2d_18">
     <path d="M 52.78125 64.772812 
L 62.78125 64.772812 
L 72.78125 64.772812 
" style="fill: none; stroke-dasharray: 9.6,2.4,1.5,2.4; stroke-dashoffset: 0; stroke: #bf00bf; stroke-width: 1.5"/>
    </g>
    <g id="text_18">
     <!-- TeraLasso -->
     <g transform="translate(80.78125 68.272812) scale(0.1 -0.1)">
      <use xlink:href="#DejaVuSans-54"/>
      <use xlink:href="#DejaVuSans-65" x="44.083984"/>
      <use xlink:href="#DejaVuSans-72" x="105.607422"/>
      <use xlink:href="#DejaVuSans-61" x="146.720703"/>
      <use xlink:href="#DejaVuSans-4c" x="208"/>
      <use xlink:href="#DejaVuSans-61" x="263.712891"/>
      <use xlink:href="#DejaVuSans-73" x="324.992188"/>
      <use xlink:href="#DejaVuSans-73" x="377.091797"/>
      <use xlink:href="#DejaVuSans-6f" x="429.191406"/>
     </g>
    </g>
   </g>
  </g>
 </g>
 <defs>
  <clipPath id="p30710cf0e2">
   <rect x="43.78125" y="22.318125" width="357.12" height="266.112"/>
  </clipPath>
 </defs>
</svg>
