<?xml version="1.0" encoding="utf-8" standalone="no"?>
<!DOCTYPE svg PUBLIC "-//W3C//DTD SVG 1.1//EN"
  "http://www.w3.org/Graphics/SVG/1.1/DTD/svg11.dtd">
<svg xmlns:xlink="http://www.w3.org/1999/xlink" width="416.052813pt" height="325.986375pt" viewBox="0 0 416.052813 325.986375" xmlns="http://www.w3.org/2000/svg" version="1.1">
 <metadata>
  <rdf:RDF xmlns:dc="http://purl.org/dc/elements/1.1/" xmlns:cc="http://creativecommons.org/ns#" xmlns:rdf="http://www.w3.org/1999/02/22-rdf-syntax-ns#">
   <cc:Work>
    <dc:type rdf:resource="http://purl.org/dc/dcmitype/StillImage"/>
    <dc:date>2023-10-12T17:55:58.919057</dc:date>
    <dc:format>image/svg+xml</dc:format>
    <dc:creator>
     <cc:Agent>
      <dc:title>Matplotlib v3.7.2, https://matplotlib.org/</dc:title>
     </cc:Agent>
    </dc:creator>
   </cc:Work>
  </rdf:RDF>
 </metadata>
 <defs>
  <style type="text/css">*{stroke-linejoin: round; stroke-linecap: butt}</style>
 </defs>
 <g id="figure_1">
  <g id="patch_1">
   <path d="M 0 325.986375 
L 416.052813 325.986375 
L 416.052813 0 
L 0 0 
z
" style="fill: #ffffff"/>
  </g>
  <g id="axes_1">
   <g id="patch_2">
    <path d="M 43.78125 288.430125 
L 400.90125 288.430125 
L 400.90125 22.318125 
L 43.78125 22.318125 
z
" style="fill: #ffffff"/>
   </g>
   <g id="PolyCollection_1">
    <path d="M 49.5934 149.602209 
L 49.5934 311.942841 
L 49.5934 311.276969 
L 49.5934 311.276969 
L 49.5934 311.276969 
L 49.5934 311.276969 
L 49.5934 311.276969 
L 49.5934 311.276969 
L 52.805322 291.26733 
L 52.805322 291.26733 
L 53.797322 288.166101 
L 56.017245 281.41266 
L 56.017245 281.41266 
L 56.017245 281.41266 
L 56.910045 279.89421 
L 57.802845 275.158295 
L 57.802845 275.158295 
L 57.802845 275.158295 
L 59.910845 263.777837 
L 59.910845 262.87422 
L 60.902845 260.089378 
L 64.346502 252.710473 
L 66.089587 250.262279 
L 66.089587 250.262279 
L 66.939873 254.970483 
L 67.790159 257.057632 
L 69.669738 257.951641 
L 69.669738 258.442301 
L 70.562538 259.638822 
L 71.455338 258.411755 
L 71.455338 261.413592 
L 73.245413 261.799832 
L 75.035488 262.885027 
L 78.135488 258.248401 
L 80.95206 261.119188 
L 84.617239 259.915988 
L 90.551524 256.076129 
L 94.887981 256.60881 
L 97.789581 255.032812 
L 99.575181 254.570972 
L 101.559181 255.028473 
L 103.259753 257.712716 
L 105.243753 256.899643 
L 105.243753 259.527184 
L 110.044324 260.241961 
L 110.044324 261.540357 
L 113.709503 262.264309 
L 113.709503 263.952426 
L 119.041503 264.40254 
L 120.157503 266.298664 
L 123.153082 266.826127 
L 123.153082 267.998604 
L 129.378526 266.298246 
L 134.744277 266.610779 
L 140.497877 266.236781 
L 143.845877 267.897984 
L 148.542027 268.404706 
L 152.311627 269.050126 
L 158.716079 268.561059 
L 163.33493 269.274956 
L 165.12053 269.94125 
L 171.905102 269.827436 
L 176.121102 270.873526 
L 179.728375 270.927818 
L 184.613975 271.310021 
L 185.729975 272.470506 
L 187.961975 273.746705 
L 189.841553 274.610843 
L 196.651569 274.290374 
L 200.154421 274.839418 
L 203.15 275.818365 
L 208.620171 275.951386 
L 210.628971 276.79365 
L 211.521771 277.498118 
L 218.615215 277.590965 
L 222.470488 278.19641 
L 230.481532 278.34413 
L 238.853304 278.439498 
L 240.638904 278.963217 
L 247.826327 279.005272 
L 254.299127 279.427287 
L 263.51242 279.747127 
L 266.328991 280.195159 
L 274.031163 280.556695 
L 275.147163 281.122477 
L 285.340607 281.213864 
L 290.027807 281.608283 
L 305.407994 281.409536 
L 309.340565 281.848569 
L 321.51801 281.903005 
L 330.491033 282.00801 
L 335.187183 282.399972 
L 343.738606 282.728366 
L 351.708424 282.927099 
L 355.726024 283.295566 
L 363.428196 283.543164 
L 372.649219 283.751102 
L 377.25139 284.010044 
L 383.20339 284.15782 
L 396.461406 284.342665 
L 400.90125 284.498215 
L 400.90125 282.646216 
L 400.90125 282.646216 
L 396.461406 282.471315 
L 383.20339 282.371311 
L 377.25139 281.932791 
L 372.649219 281.570695 
L 363.428196 281.308857 
L 355.726024 281.012023 
L 351.708424 280.679593 
L 343.738606 280.301019 
L 335.187183 280.097412 
L 330.491033 279.706959 
L 321.51801 279.17405 
L 309.340565 278.779341 
L 305.407994 278.375614 
L 290.027807 277.959439 
L 285.340607 277.461056 
L 275.147163 277.025691 
L 274.031163 276.379987 
L 266.328991 276.033936 
L 263.51242 275.311176 
L 254.299127 275.113892 
L 247.826327 274.650748 
L 240.638904 273.821331 
L 238.853304 272.83616 
L 230.481532 272.224356 
L 222.470488 271.659185 
L 218.615215 271.09272 
L 211.521771 270.229871 
L 210.628971 269.058804 
L 208.620171 268.159449 
L 203.15 266.987105 
L 200.154421 266.169632 
L 196.651569 264.837578 
L 189.841553 263.5035 
L 187.961975 262.173237 
L 185.729975 261.421201 
L 184.613975 260.020993 
L 179.728375 258.872625 
L 176.121102 256.852377 
L 171.905102 256.173263 
L 165.12053 255.079 
L 163.33493 252.884494 
L 158.716079 251.899334 
L 152.311627 250.890879 
L 148.542027 248.809751 
L 143.845877 248.673139 
L 140.497877 249.052457 
L 134.744277 247.771509 
L 129.378526 246.453204 
L 123.153082 245.254388 
L 123.153082 242.650985 
L 120.157503 241.076786 
L 119.041503 240.264025 
L 113.709503 240.800056 
L 113.709503 237.515224 
L 110.044324 236.471893 
L 110.044324 233.97506 
L 105.243753 235.281866 
L 105.243753 230.450207 
L 103.259753 227.352802 
L 101.559181 223.790514 
L 99.575181 221.758078 
L 97.789581 218.513368 
L 94.887981 217.13304 
L 90.551524 218.866284 
L 84.617239 221.622662 
L 80.95206 221.578354 
L 78.135488 225.472649 
L 75.035488 222.045623 
L 73.245413 223.822018 
L 71.455338 224.968578 
L 71.455338 217.917295 
L 70.562538 216.690228 
L 69.669738 211.973149 
L 69.669738 208.472129 
L 67.790159 205.754618 
L 66.939873 206.087183 
L 66.089587 202.412371 
L 66.089587 202.412371 
L 64.346502 204.802577 
L 60.902845 199.681592 
L 59.910845 200.44491 
L 59.910845 193.627693 
L 57.802845 181.951555 
L 57.802845 181.951555 
L 57.802845 181.951555 
L 56.910045 175.31484 
L 56.017245 153.52119 
L 56.017245 153.52119 
L 56.017245 153.52119 
L 53.797322 160.960389 
L 52.805322 164.95548 
L 52.805322 164.95548 
L 49.5934 159.138481 
L 49.5934 159.138481 
L 49.5934 159.138481 
L 49.5934 159.138481 
L 49.5934 159.138481 
L 49.5934 159.138481 
L 49.5934 149.602209 
z
" clip-path="url(#p640da415fd)" style="fill-opacity: 0.2"/>
   </g>
   <g id="PolyCollection_2">
    <path d="M 41.698862 230.772525 
L 41.698862 230.772525 
L 41.698862 235.207725 
L 41.698862 235.207725 
L 41.698862 235.207725 
L 41.698862 235.207725 
L 41.698862 235.207725 
L 41.698862 235.207725 
L 44.907627 228.111405 
L 44.907627 228.111405 
L 45.315325 224.563245 
L 46.525111 217.466925 
L 46.525111 217.466925 
L 46.525111 217.466925 
L 47.868761 227.604525 
L 48.666005 228.554925 
L 48.666005 228.554925 
L 48.666005 228.554925 
L 52.950554 228.702765 
L 52.950554 231.659565 
L 54.15444 229.885485 
L 57.504877 228.756525 
L 59.156922 226.337325 
L 59.156922 226.337325 
L 58.668185 230.528833 
L 57.85348 231.406125 
L 59.116389 233.211885 
L 59.116389 235.207725 
L 60.256028 238.164525 
L 60.841601 238.164525 
L 60.841601 243.191085 
L 61.202994 242.810925 
L 61.041499 242.465325 
L 65.658096 241.860525 
L 65.813964 241.348771 
L 68.076049 240.769325 
L 73.815593 237.471206 
L 75.334832 236.870925 
L 78.653143 236.77309 
L 81.171788 238.164525 
L 82.022992 239.409493 
L 82.493257 242.532759 
L 85.433992 243.674925 
L 85.433992 247.404525 
L 87.82615 247.108511 
L 87.82615 249.006125 
L 89.754201 249.889766 
L 89.754201 252.376241 
L 94.521316 252.333282 
L 94.930388 253.687725 
L 97.461966 254.738556 
L 97.461966 256.626496 
L 106.175214 256.375725 
L 109.782157 257.191144 
L 113.548904 257.644619 
L 116.600144 258.285561 
L 118.74784 258.607228 
L 121.01837 259.970503 
L 129.313103 260.230197 
L 133.165882 261.079725 
L 135.939531 262.510125 
L 142.124669 263.00035 
L 145.232031 263.862952 
L 150.867363 264.900222 
L 155.628904 265.665507 
L 157.174277 266.945853 
L 158.817055 267.959971 
L 158.449242 269.057171 
L 169.180193 269.563976 
L 172.40156 270.504525 
L 172.388143 271.402735 
L 178.61346 272.055418 
L 180.260368 272.926227 
L 180.527836 273.863994 
L 186.880999 274.341843 
L 191.642713 274.927797 
L 200.938869 275.284243 
L 209.482924 275.637829 
L 211.604986 276.392274 
L 221.613832 276.82801 
L 225.035911 277.27059 
L 232.698693 277.529152 
L 238.543723 278.114547 
L 244.755634 278.468341 
L 245.300385 279.074084 
L 254.839711 279.33746 
L 257.846161 279.783861 
L 279.184685 279.892575 
L 284.789354 280.313955 
L 295.966493 280.538528 
L 307.547467 280.857484 
L 310.823103 281.248692 
L 323.317603 281.514692 
L 338.476085 281.803346 
L 343.348497 282.153795 
L 350.523775 282.426011 
L 357.820654 282.660898 
L 361.920902 282.971417 
L 371.520363 283.264565 
L 389.972779 283.40699 
L 400.90125 283.572216 
L 400.90125 283.572216 
L 400.90125 283.572216 
L 389.972779 283.40699 
L 371.520363 283.264565 
L 361.920902 282.971417 
L 357.820654 282.660898 
L 350.523775 282.426011 
L 343.348497 282.153795 
L 338.476085 281.803346 
L 323.317603 281.514692 
L 310.823103 281.248692 
L 307.547467 280.857484 
L 295.966493 280.538528 
L 284.789354 280.313955 
L 279.184685 279.892575 
L 257.846161 279.783861 
L 254.839711 279.33746 
L 245.300385 279.074084 
L 244.755634 278.468341 
L 238.543723 278.114547 
L 232.698693 277.529152 
L 225.035911 277.27059 
L 221.613832 276.82801 
L 211.604986 276.392274 
L 209.482924 275.637829 
L 200.938869 275.284243 
L 191.642713 274.927797 
L 186.880999 274.341843 
L 180.527836 273.863994 
L 180.260368 272.926227 
L 178.61346 272.055418 
L 172.388143 271.402735 
L 172.40156 270.504525 
L 169.180193 269.563976 
L 158.449242 269.057171 
L 158.817055 267.959971 
L 157.174277 266.945853 
L 155.628904 265.665507 
L 150.867363 264.900222 
L 145.232031 263.862952 
L 142.124669 263.00035 
L 135.939531 262.510125 
L 133.165882 261.079725 
L 129.313103 260.230197 
L 121.01837 259.970503 
L 118.74784 258.607228 
L 116.600144 258.285561 
L 113.548904 257.644619 
L 109.782157 257.191144 
L 106.175214 256.375725 
L 97.461966 256.626496 
L 97.461966 254.738556 
L 94.930388 253.687725 
L 94.521316 252.333282 
L 89.754201 252.376241 
L 89.754201 249.889766 
L 87.82615 249.006125 
L 87.82615 247.108511 
L 85.433992 247.404525 
L 85.433992 243.674925 
L 82.493257 242.532759 
L 82.022992 239.409493 
L 81.171788 238.164525 
L 78.653143 236.77309 
L 75.334832 236.870925 
L 73.815593 237.471206 
L 68.076049 240.769325 
L 65.813964 241.348771 
L 65.658096 241.860525 
L 61.041499 242.465325 
L 61.202994 242.810925 
L 60.841601 243.191085 
L 60.841601 238.164525 
L 60.256028 238.164525 
L 59.116389 235.207725 
L 59.116389 233.211885 
L 57.85348 231.406125 
L 58.668185 230.528833 
L 59.156922 226.337325 
L 59.156922 226.337325 
L 57.504877 228.756525 
L 54.15444 229.885485 
L 52.950554 231.659565 
L 52.950554 228.702765 
L 48.666005 228.554925 
L 48.666005 228.554925 
L 48.666005 228.554925 
L 47.868761 227.604525 
L 46.525111 217.466925 
L 46.525111 217.466925 
L 46.525111 217.466925 
L 45.315325 224.563245 
L 44.907627 228.111405 
L 44.907627 228.111405 
L 41.698862 235.207725 
L 41.698862 235.207725 
L 41.698862 235.207725 
L 41.698862 235.207725 
L 41.698862 235.207725 
L 41.698862 235.207725 
L 41.698862 230.772525 
z
" clip-path="url(#p640da415fd)" style="fill: #ff0000; fill-opacity: 0.2"/>
   </g>
   <g id="PolyCollection_3">
    <path d="M 43.78125 22.318125 
L 43.78125 22.318125 
L 43.78125 22.318125 
L 43.78125 22.318125 
L 43.78125 22.318125 
L 43.78125 22.318125 
L 43.78125 22.318125 
L 43.78125 22.318125 
L 43.78125 22.318125 
L 43.78125 22.318125 
L 43.78125 22.318125 
L 43.78125 22.318125 
L 43.78125 22.318125 
L 43.78125 22.318125 
L 43.78125 22.318125 
L 43.78125 22.318125 
L 43.78125 22.318125 
L 43.78125 22.318125 
L 43.78125 22.318125 
L 43.78125 122.900063 
L 43.78125 122.900063 
L 43.78125 122.900063 
L 45.481821 173.552549 
L 45.481821 249.658503 
L 50.530393 261.911541 
L 58.833816 260.818216 
L 63.719416 262.985177 
L 74.084138 268.952138 
L 91.952631 261.917067 
L 113.675753 260.895155 
L 128.813347 264.809647 
L 141.029305 268.988179 
L 165.191201 270.634613 
L 183.359803 272.809338 
L 196.841663 274.396388 
L 204.191413 276.514409 
L 219.491589 277.655153 
L 225.879361 278.843725 
L 246.478176 278.969009 
L 258.052691 279.391256 
L 263.864841 280.248193 
L 272.330591 280.932239 
L 283.640036 281.24793 
L 300.136223 281.200952 
L 308.224565 281.452931 
L 315.849438 281.839894 
L 323.30361 281.981097 
L 331.607033 282.093934 
L 336.810456 282.299693 
L 340.743027 282.575358 
L 348.101152 282.707815 
L 351.708424 282.827445 
L 352.824424 283.047738 
L 355.640996 283.172432 
L 360.328196 283.287197 
L 363.428196 283.380583 
L 365.128767 283.493274 
L 368.53764 283.539964 
L 371.533219 283.63133 
L 373.765219 283.749525 
L 375.550819 283.806839 
L 377.25139 283.85335 
L 377.25139 283.935756 
L 377.25139 284.008742 
L 379.23539 284.024966 
L 379.23539 284.082406 
L 383.20339 284.016786 
L 383.20339 284.060615 
L 383.20339 284.111219 
L 383.20339 284.137115 
L 384.31939 284.186843 
L 384.31939 284.225726 
L 389.20499 284.199495 
L 389.20499 284.227152 
L 390.828263 284.226553 
L 392.528834 284.216564 
L 392.528834 284.238736 
L 393.644834 284.269735 
L 393.644834 284.286148 
L 394.760834 284.329312 
L 394.760834 284.349901 
L 394.760834 284.366575 
L 396.461406 284.348585 
L 396.461406 284.357211 
L 398.161977 284.339748 
L 398.161977 284.346294 
L 398.161977 284.357366 
L 398.161977 284.36623 
L 398.161977 284.372635 
L 398.161977 284.382835 
L 398.161977 284.393646 
L 398.161977 284.405462 
L 398.161977 284.412589 
L 398.161977 284.419909 
L 398.161977 284.425177 
L 398.161977 284.431742 
L 398.161977 284.43826 
L 398.161977 284.440748 
L 398.161977 284.442832 
L 398.161977 284.448483 
L 398.161977 284.454659 
L 398.161977 282.67382 
L 398.161977 282.67382 
L 398.161977 282.667659 
L 398.161977 282.663414 
L 398.161977 282.649977 
L 398.161977 282.642029 
L 398.161977 282.638049 
L 398.161977 282.628972 
L 398.161977 282.618423 
L 398.161977 282.607867 
L 398.161977 282.594605 
L 398.161977 282.58546 
L 398.161977 282.571185 
L 398.161977 282.558308 
L 398.161977 282.542864 
L 398.161977 282.524192 
L 398.161977 282.508709 
L 398.161977 282.493749 
L 396.461406 282.490487 
L 396.461406 282.46447 
L 394.760834 282.457848 
L 394.760834 282.438772 
L 394.760834 282.411231 
L 393.644834 282.455408 
L 393.644834 282.433948 
L 392.528834 282.457159 
L 392.528834 282.409684 
L 390.828263 282.391506 
L 389.20499 282.366268 
L 389.20499 282.329141 
L 384.31939 282.36964 
L 384.31939 282.328993 
L 383.20339 282.340232 
L 383.20339 282.298471 
L 383.20339 282.237161 
L 383.20339 282.170592 
L 379.23539 282.08666 
L 379.23539 282.016082 
L 377.25139 281.952416 
L 377.25139 281.873227 
L 377.25139 281.794308 
L 375.550819 281.705158 
L 373.765219 281.582534 
L 371.533219 281.574282 
L 368.53764 281.511302 
L 365.128767 281.408642 
L 363.428196 281.237547 
L 360.328196 281.08721 
L 355.640996 281.006447 
L 352.824424 280.854533 
L 351.708424 280.673488 
L 348.101152 280.340746 
L 340.743027 280.231936 
L 336.810456 280.03891 
L 331.607033 279.715604 
L 323.30361 279.375447 
L 315.849438 278.813898 
L 308.224565 278.414993 
L 300.136223 277.864341 
L 283.640036 277.293609 
L 272.330591 276.591883 
L 263.864841 275.736826 
L 258.052691 274.626741 
L 246.478176 273.121365 
L 225.879361 272.244312 
L 219.491589 269.601127 
L 204.191413 267.482261 
L 196.841663 263.674158 
L 183.359803 257.642258 
L 165.191201 254.522968 
L 141.029305 249.599296 
L 128.813347 239.489823 
L 113.675753 234.864034 
L 91.952631 221.495964 
L 74.084138 224.041605 
L 63.719416 206.836993 
L 58.833816 99.477554 
L 50.530393 48.836709 
L 45.481821 7.867347 
L 45.481821 -22.471499 
L 43.78125 -25.041413 
L 43.78125 -25.041413 
L 43.78125 -25.041413 
L 43.78125 22.318125 
L 43.78125 22.318125 
L 43.78125 22.318125 
L 43.78125 22.318125 
L 43.78125 22.318125 
L 43.78125 22.318125 
L 43.78125 22.318125 
L 43.78125 22.318125 
L 43.78125 22.318125 
L 43.78125 22.318125 
L 43.78125 22.318125 
L 43.78125 22.318125 
L 43.78125 22.318125 
L 43.78125 22.318125 
L 43.78125 22.318125 
L 43.78125 22.318125 
L 43.78125 22.318125 
L 43.78125 22.318125 
z
" clip-path="url(#p640da415fd)" style="fill: #bf00bf; fill-opacity: 0.2"/>
   </g>
   <g id="PolyCollection_4">
    <path d="M 43.78125 22.318125 
L 43.78125 22.318125 
L 43.78125 22.318125 
L 43.78125 22.318125 
L 43.78125 22.318125 
L 43.78125 22.318125 
L 43.78125 22.318125 
L 43.78125 22.318125 
L 43.78125 22.318125 
L 43.78125 22.318125 
L 43.78125 22.318125 
L 43.78125 22.318125 
L 43.78125 22.318125 
L 43.78125 22.318125 
L 43.78125 22.318125 
L 43.78125 22.318125 
L 43.78125 22.318125 
L 43.78125 22.318125 
L 43.78125 22.318125 
L 43.78125 48.929325 
L 43.78125 48.929325 
L 43.78125 48.929325 
L 41.019136 75.540525 
L 41.019136 128.762925 
L 43.267293 155.374125 
L 48.33094 180.147885 
L 55.773375 234.911085 
L 59.024041 246.496871 
L 72.392268 241.706515 
L 93.814672 247.879595 
L 106.449702 252.149735 
L 116.25029 259.293737 
L 139.451947 262.57879 
L 153.919331 265.225798 
L 176.627553 269.035273 
L 180.494734 271.998335 
L 192.367733 273.62814 
L 199.338165 275.544018 
L 224.577645 276.045187 
L 238.325163 277.008999 
L 240.660445 277.99251 
L 244.777924 278.762061 
L 256.37307 279.270769 
L 275.196488 279.532647 
L 283.840044 279.933962 
L 291.905818 280.326896 
L 297.72098 280.678272 
L 309.719242 280.904769 
L 314.935848 281.169301 
L 321.379883 281.403647 
L 332.063256 281.524281 
L 338.476085 281.750466 
L 339.694985 281.951135 
L 345.355343 282.089439 
L 347.738001 282.187203 
L 350.523775 282.309065 
L 352.930047 282.450958 
L 354.262299 282.525633 
L 356.513081 282.602806 
L 358.670108 282.666029 
L 360.278659 282.755998 
L 361.920902 282.823829 
L 361.920902 282.904491 
L 361.920902 282.980579 
L 362.522286 283.020524 
L 362.522286 283.084533 
L 371.520363 283.093689 
L 371.520363 283.148888 
L 371.520363 283.204845 
L 371.520363 283.238673 
L 372.362756 283.257918 
L 372.362756 283.297683 
L 376.986194 283.264318 
L 376.986194 283.29671 
L 380.289028 283.309029 
L 384.667493 283.313124 
L 384.667493 283.347947 
L 385.397836 283.351842 
L 385.397836 283.370778 
L 387.769958 283.370272 
L 387.769958 283.394337 
L 387.769958 283.412212 
L 390.205425 283.406527 
L 390.205425 283.423849 
L 392.943439 283.416748 
L 392.943439 283.427502 
L 392.943439 283.440779 
L 392.943439 283.454547 
L 392.943439 283.465471 
L 392.943439 283.47701 
L 392.943439 283.489553 
L 392.943439 283.500033 
L 392.943439 283.510228 
L 392.943439 283.519166 
L 392.943439 283.527074 
L 392.943439 283.534895 
L 392.943439 283.540144 
L 392.943439 283.545363 
L 392.943439 283.553123 
L 392.943439 283.558071 
L 392.943439 283.56424 
L 392.943439 283.56424 
L 392.943439 283.56424 
L 392.943439 283.558071 
L 392.943439 283.553123 
L 392.943439 283.545363 
L 392.943439 283.540144 
L 392.943439 283.534895 
L 392.943439 283.527074 
L 392.943439 283.519166 
L 392.943439 283.510228 
L 392.943439 283.500033 
L 392.943439 283.489553 
L 392.943439 283.47701 
L 392.943439 283.465471 
L 392.943439 283.454547 
L 392.943439 283.440779 
L 392.943439 283.427502 
L 392.943439 283.416748 
L 390.205425 283.423849 
L 390.205425 283.406527 
L 387.769958 283.412212 
L 387.769958 283.394337 
L 387.769958 283.370272 
L 385.397836 283.370778 
L 385.397836 283.351842 
L 384.667493 283.347947 
L 384.667493 283.313124 
L 380.289028 283.309029 
L 376.986194 283.29671 
L 376.986194 283.264318 
L 372.362756 283.297683 
L 372.362756 283.257918 
L 371.520363 283.238673 
L 371.520363 283.204845 
L 371.520363 283.148888 
L 371.520363 283.093689 
L 362.522286 283.084533 
L 362.522286 283.020524 
L 361.920902 282.980579 
L 361.920902 282.904491 
L 361.920902 282.823829 
L 360.278659 282.755998 
L 358.670108 282.666029 
L 356.513081 282.602806 
L 354.262299 282.525633 
L 352.930047 282.450958 
L 350.523775 282.309065 
L 347.738001 282.187203 
L 345.355343 282.089439 
L 339.694985 281.951135 
L 338.476085 281.750466 
L 332.063256 281.524281 
L 321.379883 281.403647 
L 314.935848 281.169301 
L 309.719242 280.904769 
L 297.72098 280.678272 
L 291.905818 280.326896 
L 283.840044 279.933962 
L 275.196488 279.532647 
L 256.37307 279.270769 
L 244.777924 278.762061 
L 240.660445 277.99251 
L 238.325163 277.008999 
L 224.577645 276.045187 
L 199.338165 275.544018 
L 192.367733 273.62814 
L 180.494734 271.998335 
L 176.627553 269.035273 
L 153.919331 265.225798 
L 139.451947 262.57879 
L 116.25029 259.293737 
L 106.449702 252.149735 
L 93.814672 247.879595 
L 72.392268 241.706515 
L 59.024041 246.496871 
L 55.773375 234.911085 
L 48.33094 180.147885 
L 43.267293 155.374125 
L 41.019136 128.762925 
L 41.019136 75.540525 
L 43.78125 48.929325 
L 43.78125 48.929325 
L 43.78125 48.929325 
L 43.78125 22.318125 
L 43.78125 22.318125 
L 43.78125 22.318125 
L 43.78125 22.318125 
L 43.78125 22.318125 
L 43.78125 22.318125 
L 43.78125 22.318125 
L 43.78125 22.318125 
L 43.78125 22.318125 
L 43.78125 22.318125 
L 43.78125 22.318125 
L 43.78125 22.318125 
L 43.78125 22.318125 
L 43.78125 22.318125 
L 43.78125 22.318125 
L 43.78125 22.318125 
L 43.78125 22.318125 
L 43.78125 22.318125 
z
" clip-path="url(#p640da415fd)" style="fill: #006400; fill-opacity: 0.2"/>
   </g>
   <g id="PolyCollection_5">
    <path d="M 390.32099 282.538161 
L 390.32099 284.425067 
L 390.32099 284.403279 
L 388.697718 284.421552 
L 388.697718 284.399371 
L 386.997146 284.415732 
L 383.897146 284.435634 
L 382.858445 284.388434 
L 381.742445 284.368843 
L 381.742445 284.327649 
L 378.840845 284.299428 
L 375.439702 284.354319 
L 372.030829 284.391355 
L 373.146829 284.352392 
L 373.146829 284.353064 
L 368.16725 284.369197 
L 369.95285 284.288865 
L 369.95285 284.242586 
L 370.82085 284.147027 
L 364.81925 284.137248 
L 362.83525 284.110018 
L 362.83525 284.059312 
L 360.095978 284.005735 
L 359.227978 284.006175 
L 356.995978 283.943644 
L 355.879978 283.807926 
L 356.577344 283.72423 
L 357.340923 283.56697 
L 356.756352 283.554739 
L 358.541952 283.346774 
L 358.541952 283.224118 
L 353.93978 283.15277 
L 350.332507 283.147124 
L 348.546907 283.064507 
L 346.667328 282.945334 
L 346.5823 282.706071 
L 340.596482 282.690819 
L 336.079339 282.537287 
L 329.011339 282.513903 
L 325.930731 282.319371 
L 319.429588 282.126682 
L 318.313588 281.834591 
L 313.796446 281.639541 
L 308.77203 281.614485 
L 298.71908 281.383824 
L 298.71908 280.98681 
L 291.094207 280.725277 
L 284.739355 280.628859 
L 284.739355 280.131313 
L 283.116083 279.638021 
L 267.796768 279.472649 
L 260.679168 278.776346 
L 256.823896 277.860021 
L 241.134836 277.989111 
L 232.935834 276.953676 
L 221.077891 276.104012 
L 218.338618 274.397706 
L 207.271766 271.850292 
L 196.675471 271.305178 
L 175.982676 270.816827 
L 161.550754 266.883676 
L 148.681233 262.293192 
L 128.074111 256.417954 
L 100.767446 264.677392 
L 86.319488 268.430334 
L 70.313894 289.069479 
L 62.696751 283.354311 
L 57.915572 247.502672 
L 53.029972 250.450423 
L 51.045972 168.117491 
L 47.465821 140.29018 
L 47.465821 122.900063 
L 47.465821 22.318125 
L 47.465821 22.318125 
L 47.465821 22.318125 
L 45.481821 22.318125 
L 43.78125 22.318125 
L 43.78125 22.318125 
L 43.78125 22.318125 
L 43.78125 22.318125 
L 43.78125 22.318125 
L 43.78125 22.318125 
L 43.78125 22.318125 
L 43.78125 22.318125 
L 43.78125 22.318125 
L 43.78125 22.318125 
L 43.78125 22.318125 
L 43.78125 22.318125 
L 43.78125 22.318125 
L 43.78125 22.318125 
L 43.78125 22.318125 
L 43.78125 22.318125 
L 43.78125 22.318125 
L 43.78125 22.318125 
L 43.78125 22.318125 
L 43.78125 22.318125 
L 43.78125 22.318125 
L 43.78125 22.318125 
L 43.78125 22.318125 
L 43.78125 22.318125 
L 43.78125 22.318125 
L 43.78125 22.318125 
L 43.78125 22.318125 
L 43.78125 22.318125 
L 43.78125 22.318125 
L 43.78125 22.318125 
L 43.78125 22.318125 
L 43.78125 22.318125 
L 43.78125 22.318125 
L 43.78125 22.318125 
L 43.78125 22.318125 
L 43.78125 22.318125 
L 43.78125 22.318125 
L 43.78125 22.318125 
L 43.78125 22.318125 
L 43.78125 22.318125 
L 43.78125 22.318125 
L 43.78125 22.318125 
L 43.78125 22.318125 
L 43.78125 22.318125 
L 43.78125 22.318125 
L 43.78125 22.318125 
L 43.78125 22.318125 
L 43.78125 22.318125 
L 43.78125 22.318125 
L 43.78125 22.318125 
L 43.78125 22.318125 
L 45.481821 22.318125 
L 47.465821 22.318125 
L 47.465821 22.318125 
L 47.465821 22.318125 
L 47.465821 -25.041413 
L 47.465821 -15.82033 
L 51.045972 -9.940121 
L 53.029972 29.332067 
L 57.915572 50.066698 
L 62.696751 182.625939 
L 70.313894 185.781171 
L 86.319488 189.497436 
L 100.767446 214.913066 
L 128.074111 225.982062 
L 148.681233 235.270763 
L 161.550754 242.620418 
L 175.982676 247.804227 
L 196.675471 252.925622 
L 207.271766 259.456067 
L 218.338618 261.141804 
L 221.077891 265.027487 
L 232.935834 267.090045 
L 241.134836 268.862129 
L 256.823896 270.611198 
L 260.679168 271.831106 
L 267.796768 273.063135 
L 283.116083 273.198323 
L 284.739355 274.35155 
L 284.739355 275.333352 
L 291.094207 276.370347 
L 298.71908 276.851137 
L 298.71908 277.68917 
L 308.77203 278.020937 
L 313.796446 278.536192 
L 318.313588 278.79755 
L 319.429588 279.160163 
L 325.930731 279.356071 
L 329.011339 279.495204 
L 336.079339 279.710123 
L 340.596482 279.828814 
L 346.5823 279.976853 
L 346.667328 280.193538 
L 348.546907 280.449113 
L 350.332507 280.641261 
L 353.93978 280.847648 
L 358.541952 280.916281 
L 358.541952 281.087661 
L 356.756352 281.272182 
L 357.340923 281.497914 
L 356.577344 281.590904 
L 355.879978 281.802153 
L 356.995978 281.825785 
L 359.227978 281.833707 
L 360.095978 282.02251 
L 362.83525 282.031948 
L 362.83525 282.127138 
L 364.81925 282.200177 
L 370.82085 282.093475 
L 369.95285 282.10854 
L 369.95285 282.170811 
L 368.16725 282.274537 
L 373.146829 282.266102 
L 373.146829 282.337001 
L 372.030829 282.430087 
L 375.439702 282.458659 
L 378.840845 282.483684 
L 381.742445 282.437005 
L 381.742445 282.49416 
L 382.858445 282.475138 
L 383.897146 282.445199 
L 386.997146 282.436745 
L 388.697718 282.46521 
L 388.697718 282.492338 
L 390.32099 282.513379 
L 390.32099 282.538161 
z
" clip-path="url(#p640da415fd)" style="fill-opacity: 0.2"/>
   </g>
   <g id="PolyCollection_6">
    <path d="M 377.964387 283.481614 
L 377.964387 283.481614 
L 377.964387 283.458329 
L 373.348821 283.456945 
L 373.348821 283.432291 
L 368.97745 283.426239 
L 366.127295 283.440416 
L 364.728696 283.431786 
L 363.053721 283.431501 
L 363.053721 283.382327 
L 361.201933 283.391556 
L 353.619195 283.406489 
L 348.53646 283.410721 
L 349.744234 283.344697 
L 349.744234 283.309583 
L 347.470555 283.321867 
L 347.665495 283.229838 
L 347.665495 283.175563 
L 346.504 283.120251 
L 340.615303 283.168712 
L 340.725101 283.118578 
L 340.725101 283.04563 
L 335.007209 283.014123 
L 334.875249 282.919941 
L 331.086099 282.884714 
L 330.179458 282.80504 
L 335.525475 282.657567 
L 336.103382 282.532442 
L 336.445433 282.413461 
L 339.768077 282.217217 
L 339.768077 282.0702 
L 335.1103 282.000209 
L 329.685535 281.894193 
L 327.557449 281.75681 
L 326.799764 281.569436 
L 332.293342 281.341462 
L 315.230139 281.259816 
L 311.026759 281.123705 
L 303.536847 281.004554 
L 301.381134 280.837721 
L 295.991719 280.643423 
L 293.930084 280.31607 
L 290.250624 280.087867 
L 279.287233 279.817711 
L 273.199139 279.536497 
L 273.199139 278.918973 
L 263.536825 278.547812 
L 257.178685 277.981106 
L 257.178685 277.241432 
L 252.174621 276.418172 
L 235.01781 276.267892 
L 227.837702 275.303726 
L 220.700714 274.235609 
L 203.134695 273.42562 
L 196.57721 272.02186 
L 185.43694 270.56575 
L 178.783756 267.769755 
L 164.909546 265.65318 
L 152.721075 262.1154 
L 134.775687 259.310527 
L 122.538385 254.752047 
L 110.612959 248.781978 
L 89.35033 241.200008 
L 66.207133 239.795229 
L 56.310069 228.963885 
L 44.787877 237.425325 
L 44.466497 232.990125 
L 40.5635 148.784685 
L 39.574149 139.891245 
L 40.834867 79.088685 
L 40.70371 62.234925 
L 40.70371 48.929325 
L 40.70371 22.318125 
L 40.70371 22.318125 
L 40.70371 22.318125 
L 41.019136 22.318125 
L 43.78125 22.318125 
L 43.78125 22.318125 
L 43.78125 22.318125 
L 43.78125 22.318125 
L 43.78125 22.318125 
L 43.78125 22.318125 
L 43.78125 22.318125 
L 43.78125 22.318125 
L 43.78125 22.318125 
L 43.78125 22.318125 
L 43.78125 22.318125 
L 43.78125 22.318125 
L 43.78125 22.318125 
L 43.78125 22.318125 
L 43.78125 22.318125 
L 43.78125 22.318125 
L 43.78125 22.318125 
L 43.78125 22.318125 
L 43.78125 22.318125 
L 43.78125 22.318125 
L 43.78125 22.318125 
L 43.78125 22.318125 
L 43.78125 22.318125 
L 43.78125 22.318125 
L 43.78125 22.318125 
L 43.78125 22.318125 
L 43.78125 22.318125 
L 43.78125 22.318125 
L 43.78125 22.318125 
L 43.78125 22.318125 
L 43.78125 22.318125 
L 43.78125 22.318125 
L 43.78125 22.318125 
L 43.78125 22.318125 
L 43.78125 22.318125 
L 43.78125 22.318125 
L 43.78125 22.318125 
L 43.78125 22.318125 
L 43.78125 22.318125 
L 43.78125 22.318125 
L 43.78125 22.318125 
L 43.78125 22.318125 
L 43.78125 22.318125 
L 43.78125 22.318125 
L 43.78125 22.318125 
L 43.78125 22.318125 
L 43.78125 22.318125 
L 43.78125 22.318125 
L 43.78125 22.318125 
L 43.78125 22.318125 
L 43.78125 22.318125 
L 41.019136 22.318125 
L 40.70371 22.318125 
L 40.70371 22.318125 
L 40.70371 22.318125 
L 40.70371 48.929325 
L 40.70371 62.234925 
L 40.834867 79.088685 
L 39.574149 139.891245 
L 40.5635 148.784685 
L 44.466497 232.990125 
L 44.787877 237.425325 
L 56.310069 228.963885 
L 66.207133 239.795229 
L 89.35033 241.200008 
L 110.612959 248.781978 
L 122.538385 254.752047 
L 134.775687 259.310527 
L 152.721075 262.1154 
L 164.909546 265.65318 
L 178.783756 267.769755 
L 185.43694 270.56575 
L 196.57721 272.02186 
L 203.134695 273.42562 
L 220.700714 274.235609 
L 227.837702 275.303726 
L 235.01781 276.267892 
L 252.174621 276.418172 
L 257.178685 277.241432 
L 257.178685 277.981106 
L 263.536825 278.547812 
L 273.199139 278.918973 
L 273.199139 279.536497 
L 279.287233 279.817711 
L 290.250624 280.087867 
L 293.930084 280.31607 
L 295.991719 280.643423 
L 301.381134 280.837721 
L 303.536847 281.004554 
L 311.026759 281.123705 
L 315.230139 281.259816 
L 332.293342 281.341462 
L 326.799764 281.569436 
L 327.557449 281.75681 
L 329.685535 281.894193 
L 335.1103 282.000209 
L 339.768077 282.0702 
L 339.768077 282.217217 
L 336.445433 282.413461 
L 336.103382 282.532442 
L 335.525475 282.657567 
L 330.179458 282.80504 
L 331.086099 282.884714 
L 334.875249 282.919941 
L 335.007209 283.014123 
L 340.725101 283.04563 
L 340.725101 283.118578 
L 340.615303 283.168712 
L 346.504 283.120251 
L 347.665495 283.175563 
L 347.665495 283.229838 
L 347.470555 283.321867 
L 349.744234 283.309583 
L 349.744234 283.344697 
L 348.53646 283.410721 
L 353.619195 283.406489 
L 361.201933 283.391556 
L 363.053721 283.382327 
L 363.053721 283.431501 
L 364.728696 283.431786 
L 366.127295 283.440416 
L 368.97745 283.426239 
L 373.348821 283.432291 
L 373.348821 283.456945 
L 377.964387 283.458329 
L 377.964387 283.481614 
z
" clip-path="url(#p640da415fd)" style="fill: #ff0000; fill-opacity: 0.2"/>
   </g>
   <g id="matplotlib.axis_1">
    <g id="xtick_1">
     <g id="line2d_1">
      <defs>
       <path id="m4d7f8a35b5" d="M 0 0 
L 0 3.5 
" style="stroke: #000000; stroke-width: 0.8"/>
      </defs>
      <g>
       <use xlink:href="#m4d7f8a35b5" x="43.78125" y="288.430125" style="stroke: #000000; stroke-width: 0.8"/>
      </g>
     </g>
     <g id="text_1">
      <!-- 0.0 -->
      <g transform="translate(35.829688 303.028562) scale(0.1 -0.1)">
       <defs>
        <path id="DejaVuSans-30" d="M 2034 4250 
Q 1547 4250 1301 3770 
Q 1056 3291 1056 2328 
Q 1056 1369 1301 889 
Q 1547 409 2034 409 
Q 2525 409 2770 889 
Q 3016 1369 3016 2328 
Q 3016 3291 2770 3770 
Q 2525 4250 2034 4250 
z
M 2034 4750 
Q 2819 4750 3233 4129 
Q 3647 3509 3647 2328 
Q 3647 1150 3233 529 
Q 2819 -91 2034 -91 
Q 1250 -91 836 529 
Q 422 1150 422 2328 
Q 422 3509 836 4129 
Q 1250 4750 2034 4750 
z
" transform="scale(0.015625)"/>
        <path id="DejaVuSans-2e" d="M 684 794 
L 1344 794 
L 1344 0 
L 684 0 
L 684 794 
z
" transform="scale(0.015625)"/>
       </defs>
       <use xlink:href="#DejaVuSans-30"/>
       <use xlink:href="#DejaVuSans-2e" x="63.623047"/>
       <use xlink:href="#DejaVuSans-30" x="95.410156"/>
      </g>
     </g>
    </g>
    <g id="xtick_2">
     <g id="line2d_2">
      <g>
       <use xlink:href="#m4d7f8a35b5" x="115.20525" y="288.430125" style="stroke: #000000; stroke-width: 0.8"/>
      </g>
     </g>
     <g id="text_2">
      <!-- 0.2 -->
      <g transform="translate(107.253688 303.028562) scale(0.1 -0.1)">
       <defs>
        <path id="DejaVuSans-32" d="M 1228 531 
L 3431 531 
L 3431 0 
L 469 0 
L 469 531 
Q 828 903 1448 1529 
Q 2069 2156 2228 2338 
Q 2531 2678 2651 2914 
Q 2772 3150 2772 3378 
Q 2772 3750 2511 3984 
Q 2250 4219 1831 4219 
Q 1534 4219 1204 4116 
Q 875 4013 500 3803 
L 500 4441 
Q 881 4594 1212 4672 
Q 1544 4750 1819 4750 
Q 2544 4750 2975 4387 
Q 3406 4025 3406 3419 
Q 3406 3131 3298 2873 
Q 3191 2616 2906 2266 
Q 2828 2175 2409 1742 
Q 1991 1309 1228 531 
z
" transform="scale(0.015625)"/>
       </defs>
       <use xlink:href="#DejaVuSans-30"/>
       <use xlink:href="#DejaVuSans-2e" x="63.623047"/>
       <use xlink:href="#DejaVuSans-32" x="95.410156"/>
      </g>
     </g>
    </g>
    <g id="xtick_3">
     <g id="line2d_3">
      <g>
       <use xlink:href="#m4d7f8a35b5" x="186.62925" y="288.430125" style="stroke: #000000; stroke-width: 0.8"/>
      </g>
     </g>
     <g id="text_3">
      <!-- 0.4 -->
      <g transform="translate(178.677688 303.028562) scale(0.1 -0.1)">
       <defs>
        <path id="DejaVuSans-34" d="M 2419 4116 
L 825 1625 
L 2419 1625 
L 2419 4116 
z
M 2253 4666 
L 3047 4666 
L 3047 1625 
L 3713 1625 
L 3713 1100 
L 3047 1100 
L 3047 0 
L 2419 0 
L 2419 1100 
L 313 1100 
L 313 1709 
L 2253 4666 
z
" transform="scale(0.015625)"/>
       </defs>
       <use xlink:href="#DejaVuSans-30"/>
       <use xlink:href="#DejaVuSans-2e" x="63.623047"/>
       <use xlink:href="#DejaVuSans-34" x="95.410156"/>
      </g>
     </g>
    </g>
    <g id="xtick_4">
     <g id="line2d_4">
      <g>
       <use xlink:href="#m4d7f8a35b5" x="258.05325" y="288.430125" style="stroke: #000000; stroke-width: 0.8"/>
      </g>
     </g>
     <g id="text_4">
      <!-- 0.6 -->
      <g transform="translate(250.101688 303.028562) scale(0.1 -0.1)">
       <defs>
        <path id="DejaVuSans-36" d="M 2113 2584 
Q 1688 2584 1439 2293 
Q 1191 2003 1191 1497 
Q 1191 994 1439 701 
Q 1688 409 2113 409 
Q 2538 409 2786 701 
Q 3034 994 3034 1497 
Q 3034 2003 2786 2293 
Q 2538 2584 2113 2584 
z
M 3366 4563 
L 3366 3988 
Q 3128 4100 2886 4159 
Q 2644 4219 2406 4219 
Q 1781 4219 1451 3797 
Q 1122 3375 1075 2522 
Q 1259 2794 1537 2939 
Q 1816 3084 2150 3084 
Q 2853 3084 3261 2657 
Q 3669 2231 3669 1497 
Q 3669 778 3244 343 
Q 2819 -91 2113 -91 
Q 1303 -91 875 529 
Q 447 1150 447 2328 
Q 447 3434 972 4092 
Q 1497 4750 2381 4750 
Q 2619 4750 2861 4703 
Q 3103 4656 3366 4563 
z
" transform="scale(0.015625)"/>
       </defs>
       <use xlink:href="#DejaVuSans-30"/>
       <use xlink:href="#DejaVuSans-2e" x="63.623047"/>
       <use xlink:href="#DejaVuSans-36" x="95.410156"/>
      </g>
     </g>
    </g>
    <g id="xtick_5">
     <g id="line2d_5">
      <g>
       <use xlink:href="#m4d7f8a35b5" x="329.47725" y="288.430125" style="stroke: #000000; stroke-width: 0.8"/>
      </g>
     </g>
     <g id="text_5">
      <!-- 0.8 -->
      <g transform="translate(321.525688 303.028562) scale(0.1 -0.1)">
       <defs>
        <path id="DejaVuSans-38" d="M 2034 2216 
Q 1584 2216 1326 1975 
Q 1069 1734 1069 1313 
Q 1069 891 1326 650 
Q 1584 409 2034 409 
Q 2484 409 2743 651 
Q 3003 894 3003 1313 
Q 3003 1734 2745 1975 
Q 2488 2216 2034 2216 
z
M 1403 2484 
Q 997 2584 770 2862 
Q 544 3141 544 3541 
Q 544 4100 942 4425 
Q 1341 4750 2034 4750 
Q 2731 4750 3128 4425 
Q 3525 4100 3525 3541 
Q 3525 3141 3298 2862 
Q 3072 2584 2669 2484 
Q 3125 2378 3379 2068 
Q 3634 1759 3634 1313 
Q 3634 634 3220 271 
Q 2806 -91 2034 -91 
Q 1263 -91 848 271 
Q 434 634 434 1313 
Q 434 1759 690 2068 
Q 947 2378 1403 2484 
z
M 1172 3481 
Q 1172 3119 1398 2916 
Q 1625 2713 2034 2713 
Q 2441 2713 2670 2916 
Q 2900 3119 2900 3481 
Q 2900 3844 2670 4047 
Q 2441 4250 2034 4250 
Q 1625 4250 1398 4047 
Q 1172 3844 1172 3481 
z
" transform="scale(0.015625)"/>
       </defs>
       <use xlink:href="#DejaVuSans-30"/>
       <use xlink:href="#DejaVuSans-2e" x="63.623047"/>
       <use xlink:href="#DejaVuSans-38" x="95.410156"/>
      </g>
     </g>
    </g>
    <g id="xtick_6">
     <g id="line2d_6">
      <g>
       <use xlink:href="#m4d7f8a35b5" x="400.90125" y="288.430125" style="stroke: #000000; stroke-width: 0.8"/>
      </g>
     </g>
     <g id="text_6">
      <!-- 1.0 -->
      <g transform="translate(392.949687 303.028562) scale(0.1 -0.1)">
       <defs>
        <path id="DejaVuSans-31" d="M 794 531 
L 1825 531 
L 1825 4091 
L 703 3866 
L 703 4441 
L 1819 4666 
L 2450 4666 
L 2450 531 
L 3481 531 
L 3481 0 
L 794 0 
L 794 531 
z
" transform="scale(0.015625)"/>
       </defs>
       <use xlink:href="#DejaVuSans-31"/>
       <use xlink:href="#DejaVuSans-2e" x="63.623047"/>
       <use xlink:href="#DejaVuSans-30" x="95.410156"/>
      </g>
     </g>
    </g>
    <g id="text_7">
     <!-- Recall -->
     <g transform="translate(207.424062 316.706687) scale(0.1 -0.1)">
      <defs>
       <path id="DejaVuSans-52" d="M 2841 2188 
Q 3044 2119 3236 1894 
Q 3428 1669 3622 1275 
L 4263 0 
L 3584 0 
L 2988 1197 
Q 2756 1666 2539 1819 
Q 2322 1972 1947 1972 
L 1259 1972 
L 1259 0 
L 628 0 
L 628 4666 
L 2053 4666 
Q 2853 4666 3247 4331 
Q 3641 3997 3641 3322 
Q 3641 2881 3436 2590 
Q 3231 2300 2841 2188 
z
M 1259 4147 
L 1259 2491 
L 2053 2491 
Q 2509 2491 2742 2702 
Q 2975 2913 2975 3322 
Q 2975 3731 2742 3939 
Q 2509 4147 2053 4147 
L 1259 4147 
z
" transform="scale(0.015625)"/>
       <path id="DejaVuSans-65" d="M 3597 1894 
L 3597 1613 
L 953 1613 
Q 991 1019 1311 708 
Q 1631 397 2203 397 
Q 2534 397 2845 478 
Q 3156 559 3463 722 
L 3463 178 
Q 3153 47 2828 -22 
Q 2503 -91 2169 -91 
Q 1331 -91 842 396 
Q 353 884 353 1716 
Q 353 2575 817 3079 
Q 1281 3584 2069 3584 
Q 2775 3584 3186 3129 
Q 3597 2675 3597 1894 
z
M 3022 2063 
Q 3016 2534 2758 2815 
Q 2500 3097 2075 3097 
Q 1594 3097 1305 2825 
Q 1016 2553 972 2059 
L 3022 2063 
z
" transform="scale(0.015625)"/>
       <path id="DejaVuSans-63" d="M 3122 3366 
L 3122 2828 
Q 2878 2963 2633 3030 
Q 2388 3097 2138 3097 
Q 1578 3097 1268 2742 
Q 959 2388 959 1747 
Q 959 1106 1268 751 
Q 1578 397 2138 397 
Q 2388 397 2633 464 
Q 2878 531 3122 666 
L 3122 134 
Q 2881 22 2623 -34 
Q 2366 -91 2075 -91 
Q 1284 -91 818 406 
Q 353 903 353 1747 
Q 353 2603 823 3093 
Q 1294 3584 2113 3584 
Q 2378 3584 2631 3529 
Q 2884 3475 3122 3366 
z
" transform="scale(0.015625)"/>
       <path id="DejaVuSans-61" d="M 2194 1759 
Q 1497 1759 1228 1600 
Q 959 1441 959 1056 
Q 959 750 1161 570 
Q 1363 391 1709 391 
Q 2188 391 2477 730 
Q 2766 1069 2766 1631 
L 2766 1759 
L 2194 1759 
z
M 3341 1997 
L 3341 0 
L 2766 0 
L 2766 531 
Q 2569 213 2275 61 
Q 1981 -91 1556 -91 
Q 1019 -91 701 211 
Q 384 513 384 1019 
Q 384 1609 779 1909 
Q 1175 2209 1959 2209 
L 2766 2209 
L 2766 2266 
Q 2766 2663 2505 2880 
Q 2244 3097 1772 3097 
Q 1472 3097 1187 3025 
Q 903 2953 641 2809 
L 641 3341 
Q 956 3463 1253 3523 
Q 1550 3584 1831 3584 
Q 2591 3584 2966 3190 
Q 3341 2797 3341 1997 
z
" transform="scale(0.015625)"/>
       <path id="DejaVuSans-6c" d="M 603 4863 
L 1178 4863 
L 1178 0 
L 603 0 
L 603 4863 
z
" transform="scale(0.015625)"/>
      </defs>
      <use xlink:href="#DejaVuSans-52"/>
      <use xlink:href="#DejaVuSans-65" x="64.982422"/>
      <use xlink:href="#DejaVuSans-63" x="126.505859"/>
      <use xlink:href="#DejaVuSans-61" x="181.486328"/>
      <use xlink:href="#DejaVuSans-6c" x="242.765625"/>
      <use xlink:href="#DejaVuSans-6c" x="270.548828"/>
     </g>
    </g>
   </g>
   <g id="matplotlib.axis_2">
    <g id="ytick_1">
     <g id="line2d_7">
      <defs>
       <path id="m3e1fcf9b14" d="M 0 0 
L -3.5 0 
" style="stroke: #000000; stroke-width: 0.8"/>
      </defs>
      <g>
       <use xlink:href="#m3e1fcf9b14" x="43.78125" y="288.430125" style="stroke: #000000; stroke-width: 0.8"/>
      </g>
     </g>
     <g id="text_8">
      <!-- 0.0 -->
      <g transform="translate(20.878125 292.229344) scale(0.1 -0.1)">
       <use xlink:href="#DejaVuSans-30"/>
       <use xlink:href="#DejaVuSans-2e" x="63.623047"/>
       <use xlink:href="#DejaVuSans-30" x="95.410156"/>
      </g>
     </g>
    </g>
    <g id="ytick_2">
     <g id="line2d_8">
      <g>
       <use xlink:href="#m3e1fcf9b14" x="43.78125" y="235.207725" style="stroke: #000000; stroke-width: 0.8"/>
      </g>
     </g>
     <g id="text_9">
      <!-- 0.2 -->
      <g transform="translate(20.878125 239.006944) scale(0.1 -0.1)">
       <use xlink:href="#DejaVuSans-30"/>
       <use xlink:href="#DejaVuSans-2e" x="63.623047"/>
       <use xlink:href="#DejaVuSans-32" x="95.410156"/>
      </g>
     </g>
    </g>
    <g id="ytick_3">
     <g id="line2d_9">
      <g>
       <use xlink:href="#m3e1fcf9b14" x="43.78125" y="181.985325" style="stroke: #000000; stroke-width: 0.8"/>
      </g>
     </g>
     <g id="text_10">
      <!-- 0.4 -->
      <g transform="translate(20.878125 185.784544) scale(0.1 -0.1)">
       <use xlink:href="#DejaVuSans-30"/>
       <use xlink:href="#DejaVuSans-2e" x="63.623047"/>
       <use xlink:href="#DejaVuSans-34" x="95.410156"/>
      </g>
     </g>
    </g>
    <g id="ytick_4">
     <g id="line2d_10">
      <g>
       <use xlink:href="#m3e1fcf9b14" x="43.78125" y="128.762925" style="stroke: #000000; stroke-width: 0.8"/>
      </g>
     </g>
     <g id="text_11">
      <!-- 0.6 -->
      <g transform="translate(20.878125 132.562144) scale(0.1 -0.1)">
       <use xlink:href="#DejaVuSans-30"/>
       <use xlink:href="#DejaVuSans-2e" x="63.623047"/>
       <use xlink:href="#DejaVuSans-36" x="95.410156"/>
      </g>
     </g>
    </g>
    <g id="ytick_5">
     <g id="line2d_11">
      <g>
       <use xlink:href="#m3e1fcf9b14" x="43.78125" y="75.540525" style="stroke: #000000; stroke-width: 0.8"/>
      </g>
     </g>
     <g id="text_12">
      <!-- 0.8 -->
      <g transform="translate(20.878125 79.339744) scale(0.1 -0.1)">
       <use xlink:href="#DejaVuSans-30"/>
       <use xlink:href="#DejaVuSans-2e" x="63.623047"/>
       <use xlink:href="#DejaVuSans-38" x="95.410156"/>
      </g>
     </g>
    </g>
    <g id="ytick_6">
     <g id="line2d_12">
      <g>
       <use xlink:href="#m3e1fcf9b14" x="43.78125" y="22.318125" style="stroke: #000000; stroke-width: 0.8"/>
      </g>
     </g>
     <g id="text_13">
      <!-- 1.0 -->
      <g transform="translate(20.878125 26.117344) scale(0.1 -0.1)">
       <use xlink:href="#DejaVuSans-31"/>
       <use xlink:href="#DejaVuSans-2e" x="63.623047"/>
       <use xlink:href="#DejaVuSans-30" x="95.410156"/>
      </g>
     </g>
    </g>
    <g id="text_14">
     <!-- Precision -->
     <g transform="translate(14.798438 177.681156) rotate(-90) scale(0.1 -0.1)">
      <defs>
       <path id="DejaVuSans-50" d="M 1259 4147 
L 1259 2394 
L 2053 2394 
Q 2494 2394 2734 2622 
Q 2975 2850 2975 3272 
Q 2975 3691 2734 3919 
Q 2494 4147 2053 4147 
L 1259 4147 
z
M 628 4666 
L 2053 4666 
Q 2838 4666 3239 4311 
Q 3641 3956 3641 3272 
Q 3641 2581 3239 2228 
Q 2838 1875 2053 1875 
L 1259 1875 
L 1259 0 
L 628 0 
L 628 4666 
z
" transform="scale(0.015625)"/>
       <path id="DejaVuSans-72" d="M 2631 2963 
Q 2534 3019 2420 3045 
Q 2306 3072 2169 3072 
Q 1681 3072 1420 2755 
Q 1159 2438 1159 1844 
L 1159 0 
L 581 0 
L 581 3500 
L 1159 3500 
L 1159 2956 
Q 1341 3275 1631 3429 
Q 1922 3584 2338 3584 
Q 2397 3584 2469 3576 
Q 2541 3569 2628 3553 
L 2631 2963 
z
" transform="scale(0.015625)"/>
       <path id="DejaVuSans-69" d="M 603 3500 
L 1178 3500 
L 1178 0 
L 603 0 
L 603 3500 
z
M 603 4863 
L 1178 4863 
L 1178 4134 
L 603 4134 
L 603 4863 
z
" transform="scale(0.015625)"/>
       <path id="DejaVuSans-73" d="M 2834 3397 
L 2834 2853 
Q 2591 2978 2328 3040 
Q 2066 3103 1784 3103 
Q 1356 3103 1142 2972 
Q 928 2841 928 2578 
Q 928 2378 1081 2264 
Q 1234 2150 1697 2047 
L 1894 2003 
Q 2506 1872 2764 1633 
Q 3022 1394 3022 966 
Q 3022 478 2636 193 
Q 2250 -91 1575 -91 
Q 1294 -91 989 -36 
Q 684 19 347 128 
L 347 722 
Q 666 556 975 473 
Q 1284 391 1588 391 
Q 1994 391 2212 530 
Q 2431 669 2431 922 
Q 2431 1156 2273 1281 
Q 2116 1406 1581 1522 
L 1381 1569 
Q 847 1681 609 1914 
Q 372 2147 372 2553 
Q 372 3047 722 3315 
Q 1072 3584 1716 3584 
Q 2034 3584 2315 3537 
Q 2597 3491 2834 3397 
z
" transform="scale(0.015625)"/>
       <path id="DejaVuSans-6f" d="M 1959 3097 
Q 1497 3097 1228 2736 
Q 959 2375 959 1747 
Q 959 1119 1226 758 
Q 1494 397 1959 397 
Q 2419 397 2687 759 
Q 2956 1122 2956 1747 
Q 2956 2369 2687 2733 
Q 2419 3097 1959 3097 
z
M 1959 3584 
Q 2709 3584 3137 3096 
Q 3566 2609 3566 1747 
Q 3566 888 3137 398 
Q 2709 -91 1959 -91 
Q 1206 -91 779 398 
Q 353 888 353 1747 
Q 353 2609 779 3096 
Q 1206 3584 1959 3584 
z
" transform="scale(0.015625)"/>
       <path id="DejaVuSans-6e" d="M 3513 2113 
L 3513 0 
L 2938 0 
L 2938 2094 
Q 2938 2591 2744 2837 
Q 2550 3084 2163 3084 
Q 1697 3084 1428 2787 
Q 1159 2491 1159 1978 
L 1159 0 
L 581 0 
L 581 3500 
L 1159 3500 
L 1159 2956 
Q 1366 3272 1645 3428 
Q 1925 3584 2291 3584 
Q 2894 3584 3203 3211 
Q 3513 2838 3513 2113 
z
" transform="scale(0.015625)"/>
      </defs>
      <use xlink:href="#DejaVuSans-50"/>
      <use xlink:href="#DejaVuSans-72" x="58.552734"/>
      <use xlink:href="#DejaVuSans-65" x="97.416016"/>
      <use xlink:href="#DejaVuSans-63" x="158.939453"/>
      <use xlink:href="#DejaVuSans-69" x="213.919922"/>
      <use xlink:href="#DejaVuSans-73" x="241.703125"/>
      <use xlink:href="#DejaVuSans-69" x="293.802734"/>
      <use xlink:href="#DejaVuSans-6f" x="321.585938"/>
      <use xlink:href="#DejaVuSans-6e" x="382.767578"/>
     </g>
    </g>
   </g>
   <g id="line2d_13">
    <path d="M 49.5934 230.772525 
L 49.5934 235.207725 
L 49.5934 235.207725 
L 49.5934 235.207725 
L 49.5934 235.207725 
L 49.5934 235.207725 
L 49.5934 235.207725 
L 52.805322 228.111405 
L 52.805322 228.111405 
L 53.797322 224.563245 
L 56.017245 217.466925 
L 56.017245 217.466925 
L 56.017245 217.466925 
L 56.910045 227.604525 
L 57.802845 228.554925 
L 57.802845 228.554925 
L 57.802845 228.554925 
L 59.910845 228.702765 
L 59.910845 231.659565 
L 60.902845 229.885485 
L 64.346502 228.756525 
L 66.089587 226.337325 
L 66.089587 226.337325 
L 66.939873 230.528833 
L 67.790159 231.406125 
L 69.669738 233.211885 
L 69.669738 235.207725 
L 70.562538 238.164525 
L 71.455338 238.164525 
L 71.455338 243.191085 
L 73.245413 242.810925 
L 75.035488 242.465325 
L 78.135488 241.860525 
L 80.95206 241.348771 
L 84.617239 240.769325 
L 90.551524 237.471206 
L 94.887981 236.870925 
L 97.789581 236.77309 
L 99.575181 238.164525 
L 101.559181 239.409493 
L 103.259753 242.532759 
L 105.243753 243.674925 
L 105.243753 247.404525 
L 110.044324 247.108511 
L 110.044324 249.006125 
L 113.709503 249.889766 
L 113.709503 252.376241 
L 119.041503 252.333282 
L 120.157503 253.687725 
L 123.153082 254.738556 
L 123.153082 256.626496 
L 129.378526 256.375725 
L 134.744277 257.191144 
L 140.497877 257.644619 
L 143.845877 258.285561 
L 148.542027 258.607228 
L 152.311627 259.970503 
L 158.716079 260.230197 
L 163.33493 261.079725 
L 165.12053 262.510125 
L 171.905102 263.00035 
L 176.121102 263.862952 
L 179.728375 264.900222 
L 184.613975 265.665507 
L 185.729975 266.945853 
L 187.961975 267.959971 
L 189.841553 269.057171 
L 196.651569 269.563976 
L 200.154421 270.504525 
L 203.15 271.402735 
L 208.620171 272.055418 
L 210.628971 272.926227 
L 211.521771 273.863994 
L 218.615215 274.341843 
L 222.470488 274.927797 
L 230.481532 275.284243 
L 238.853304 275.637829 
L 240.638904 276.392274 
L 247.826327 276.82801 
L 254.299127 277.27059 
L 263.51242 277.529152 
L 266.328991 278.114547 
L 274.031163 278.468341 
L 275.147163 279.074084 
L 285.340607 279.33746 
L 290.027807 279.783861 
L 305.407994 279.892575 
L 309.340565 280.313955 
L 321.51801 280.538528 
L 330.491033 280.857484 
L 335.187183 281.248692 
L 343.738606 281.514692 
L 351.708424 281.803346 
L 355.726024 282.153795 
L 363.428196 282.426011 
L 372.649219 282.660898 
L 377.25139 282.971417 
L 383.20339 283.264565 
L 396.461406 283.40699 
L 400.90125 283.572216 
" clip-path="url(#p640da415fd)" style="fill: none; stroke: #000000; stroke-width: 1.5; stroke-linecap: square"/>
   </g>
   <g id="line2d_14">
    <path d="M 43.78125 22.318125 
L 43.78125 22.318125 
L 43.78125 22.318125 
L 43.78125 22.318125 
L 43.78125 22.318125 
L 43.78125 22.318125 
L 43.78125 22.318125 
L 43.78125 22.318125 
L 43.78125 22.318125 
L 43.78125 22.318125 
L 43.78125 22.318125 
L 43.78125 22.318125 
L 43.78125 22.318125 
L 43.78125 22.318125 
L 43.78125 22.318125 
L 43.78125 22.318125 
L 43.78125 22.318125 
L 43.78125 22.318125 
L 43.78125 48.929325 
L 43.78125 48.929325 
L 43.78125 48.929325 
L 45.481821 75.540525 
L 45.481821 128.762925 
L 50.530393 155.374125 
L 58.833816 180.147885 
L 63.719416 234.911085 
L 74.084138 246.496871 
L 91.952631 241.706515 
L 113.675753 247.879595 
L 128.813347 252.149735 
L 141.029305 259.293737 
L 165.191201 262.57879 
L 183.359803 265.225798 
L 196.841663 269.035273 
L 204.191413 271.998335 
L 219.491589 273.62814 
L 225.879361 275.544018 
L 246.478176 276.045187 
L 258.052691 277.008999 
L 263.864841 277.99251 
L 272.330591 278.762061 
L 283.640036 279.270769 
L 300.136223 279.532647 
L 308.224565 279.933962 
L 315.849438 280.326896 
L 323.30361 280.678272 
L 331.607033 280.904769 
L 336.810456 281.169301 
L 340.743027 281.403647 
L 348.101152 281.524281 
L 351.708424 281.750466 
L 352.824424 281.951135 
L 355.640996 282.089439 
L 360.328196 282.187203 
L 363.428196 282.309065 
L 365.128767 282.450958 
L 368.53764 282.525633 
L 371.533219 282.602806 
L 373.765219 282.666029 
L 375.550819 282.755998 
L 377.25139 282.823829 
L 377.25139 282.904491 
L 377.25139 282.980579 
L 379.23539 283.020524 
L 379.23539 283.084533 
L 383.20339 283.093689 
L 383.20339 283.148888 
L 383.20339 283.204845 
L 383.20339 283.238673 
L 384.31939 283.257918 
L 384.31939 283.297683 
L 389.20499 283.264318 
L 389.20499 283.29671 
L 390.828263 283.309029 
L 392.528834 283.313124 
L 392.528834 283.347947 
L 393.644834 283.351842 
L 393.644834 283.370778 
L 394.760834 283.370272 
L 394.760834 283.394337 
L 394.760834 283.412212 
L 396.461406 283.406527 
L 396.461406 283.423849 
L 398.161977 283.416748 
L 398.161977 283.427502 
L 398.161977 283.440779 
L 398.161977 283.454547 
L 398.161977 283.465471 
L 398.161977 283.47701 
L 398.161977 283.489553 
L 398.161977 283.500033 
L 398.161977 283.510228 
L 398.161977 283.519166 
L 398.161977 283.527074 
L 398.161977 283.534895 
L 398.161977 283.540144 
L 398.161977 283.545363 
L 398.161977 283.553123 
L 398.161977 283.558071 
L 398.161977 283.56424 
" clip-path="url(#p640da415fd)" style="fill: none; stroke-dasharray: 5.55,2.4; stroke-dashoffset: 0; stroke: #ff0000; stroke-width: 1.5"/>
   </g>
   <g id="line2d_15">
    <path d="M 390.32099 283.481614 
L 390.32099 283.458329 
L 388.697718 283.456945 
L 388.697718 283.432291 
L 386.997146 283.426239 
L 383.897146 283.440416 
L 382.858445 283.431786 
L 381.742445 283.431501 
L 381.742445 283.382327 
L 378.840845 283.391556 
L 375.439702 283.406489 
L 372.030829 283.410721 
L 373.146829 283.344697 
L 373.146829 283.309583 
L 368.16725 283.321867 
L 369.95285 283.229838 
L 369.95285 283.175563 
L 370.82085 283.120251 
L 364.81925 283.168712 
L 362.83525 283.118578 
L 362.83525 283.04563 
L 360.095978 283.014123 
L 359.227978 282.919941 
L 356.995978 282.884714 
L 355.879978 282.80504 
L 356.577344 282.657567 
L 357.340923 282.532442 
L 356.756352 282.413461 
L 358.541952 282.217217 
L 358.541952 282.0702 
L 353.93978 282.000209 
L 350.332507 281.894193 
L 348.546907 281.75681 
L 346.667328 281.569436 
L 346.5823 281.341462 
L 340.596482 281.259816 
L 336.079339 281.123705 
L 329.011339 281.004554 
L 325.930731 280.837721 
L 319.429588 280.643423 
L 318.313588 280.31607 
L 313.796446 280.087867 
L 308.77203 279.817711 
L 298.71908 279.536497 
L 298.71908 278.918973 
L 291.094207 278.547812 
L 284.739355 277.981106 
L 284.739355 277.241432 
L 283.116083 276.418172 
L 267.796768 276.267892 
L 260.679168 275.303726 
L 256.823896 274.235609 
L 241.134836 273.42562 
L 232.935834 272.02186 
L 221.077891 270.56575 
L 218.338618 267.769755 
L 207.271766 265.65318 
L 196.675471 262.1154 
L 175.982676 259.310527 
L 161.550754 254.752047 
L 148.681233 248.781978 
L 128.074111 241.200008 
L 100.767446 239.795229 
L 86.319488 228.963885 
L 70.313894 237.425325 
L 62.696751 232.990125 
L 57.915572 148.784685 
L 53.029972 139.891245 
L 51.045972 79.088685 
L 47.465821 62.234925 
L 47.465821 48.929325 
L 47.465821 22.318125 
L 47.465821 22.318125 
L 47.465821 22.318125 
L 45.481821 22.318125 
L 43.78125 22.318125 
L 43.78125 22.318125 
L 43.78125 22.318125 
L 43.78125 22.318125 
L 43.78125 22.318125 
L 43.78125 22.318125 
L 43.78125 22.318125 
L 43.78125 22.318125 
L 43.78125 22.318125 
L 43.78125 22.318125 
L 43.78125 22.318125 
L 43.78125 22.318125 
L 43.78125 22.318125 
L 43.78125 22.318125 
L 43.78125 22.318125 
L 43.78125 22.318125 
L 43.78125 22.318125 
L 43.78125 22.318125 
L 43.78125 22.318125 
L 43.78125 22.318125 
L 43.78125 22.318125 
L 43.78125 22.318125 
L 43.78125 22.318125 
L 43.78125 22.318125 
L 43.78125 22.318125 
" clip-path="url(#p640da415fd)" style="fill: none; stroke-dasharray: 9.6,2.4,1.5,2.4; stroke-dashoffset: 0; stroke: #bf00bf; stroke-width: 1.5"/>
   </g>
   <g id="patch_3">
    <path d="M 43.78125 288.430125 
L 43.78125 22.318125 
" style="fill: none; stroke: #000000; stroke-width: 0.8; stroke-linejoin: miter; stroke-linecap: square"/>
   </g>
   <g id="patch_4">
    <path d="M 43.78125 288.430125 
L 400.90125 288.430125 
" style="fill: none; stroke: #000000; stroke-width: 0.8; stroke-linejoin: miter; stroke-linecap: square"/>
   </g>
   <g id="text_15">
    <!-- PR Curve on 50x50 Tensors [1 sample; 2% edges] -->
    <g transform="translate(72.793125 16.318125) scale(0.12 -0.12)">
     <defs>
      <path id="DejaVuSans-20" transform="scale(0.015625)"/>
      <path id="DejaVuSans-43" d="M 4122 4306 
L 4122 3641 
Q 3803 3938 3442 4084 
Q 3081 4231 2675 4231 
Q 1875 4231 1450 3742 
Q 1025 3253 1025 2328 
Q 1025 1406 1450 917 
Q 1875 428 2675 428 
Q 3081 428 3442 575 
Q 3803 722 4122 1019 
L 4122 359 
Q 3791 134 3420 21 
Q 3050 -91 2638 -91 
Q 1578 -91 968 557 
Q 359 1206 359 2328 
Q 359 3453 968 4101 
Q 1578 4750 2638 4750 
Q 3056 4750 3426 4639 
Q 3797 4528 4122 4306 
z
" transform="scale(0.015625)"/>
      <path id="DejaVuSans-75" d="M 544 1381 
L 544 3500 
L 1119 3500 
L 1119 1403 
Q 1119 906 1312 657 
Q 1506 409 1894 409 
Q 2359 409 2629 706 
Q 2900 1003 2900 1516 
L 2900 3500 
L 3475 3500 
L 3475 0 
L 2900 0 
L 2900 538 
Q 2691 219 2414 64 
Q 2138 -91 1772 -91 
Q 1169 -91 856 284 
Q 544 659 544 1381 
z
M 1991 3584 
L 1991 3584 
z
" transform="scale(0.015625)"/>
      <path id="DejaVuSans-76" d="M 191 3500 
L 800 3500 
L 1894 563 
L 2988 3500 
L 3597 3500 
L 2284 0 
L 1503 0 
L 191 3500 
z
" transform="scale(0.015625)"/>
      <path id="DejaVuSans-35" d="M 691 4666 
L 3169 4666 
L 3169 4134 
L 1269 4134 
L 1269 2991 
Q 1406 3038 1543 3061 
Q 1681 3084 1819 3084 
Q 2600 3084 3056 2656 
Q 3513 2228 3513 1497 
Q 3513 744 3044 326 
Q 2575 -91 1722 -91 
Q 1428 -91 1123 -41 
Q 819 9 494 109 
L 494 744 
Q 775 591 1075 516 
Q 1375 441 1709 441 
Q 2250 441 2565 725 
Q 2881 1009 2881 1497 
Q 2881 1984 2565 2268 
Q 2250 2553 1709 2553 
Q 1456 2553 1204 2497 
Q 953 2441 691 2322 
L 691 4666 
z
" transform="scale(0.015625)"/>
      <path id="DejaVuSans-78" d="M 3513 3500 
L 2247 1797 
L 3578 0 
L 2900 0 
L 1881 1375 
L 863 0 
L 184 0 
L 1544 1831 
L 300 3500 
L 978 3500 
L 1906 2253 
L 2834 3500 
L 3513 3500 
z
" transform="scale(0.015625)"/>
      <path id="DejaVuSans-54" d="M -19 4666 
L 3928 4666 
L 3928 4134 
L 2272 4134 
L 2272 0 
L 1638 0 
L 1638 4134 
L -19 4134 
L -19 4666 
z
" transform="scale(0.015625)"/>
      <path id="DejaVuSans-5b" d="M 550 4863 
L 1875 4863 
L 1875 4416 
L 1125 4416 
L 1125 -397 
L 1875 -397 
L 1875 -844 
L 550 -844 
L 550 4863 
z
" transform="scale(0.015625)"/>
      <path id="DejaVuSans-6d" d="M 3328 2828 
Q 3544 3216 3844 3400 
Q 4144 3584 4550 3584 
Q 5097 3584 5394 3201 
Q 5691 2819 5691 2113 
L 5691 0 
L 5113 0 
L 5113 2094 
Q 5113 2597 4934 2840 
Q 4756 3084 4391 3084 
Q 3944 3084 3684 2787 
Q 3425 2491 3425 1978 
L 3425 0 
L 2847 0 
L 2847 2094 
Q 2847 2600 2669 2842 
Q 2491 3084 2119 3084 
Q 1678 3084 1418 2786 
Q 1159 2488 1159 1978 
L 1159 0 
L 581 0 
L 581 3500 
L 1159 3500 
L 1159 2956 
Q 1356 3278 1631 3431 
Q 1906 3584 2284 3584 
Q 2666 3584 2933 3390 
Q 3200 3197 3328 2828 
z
" transform="scale(0.015625)"/>
      <path id="DejaVuSans-70" d="M 1159 525 
L 1159 -1331 
L 581 -1331 
L 581 3500 
L 1159 3500 
L 1159 2969 
Q 1341 3281 1617 3432 
Q 1894 3584 2278 3584 
Q 2916 3584 3314 3078 
Q 3713 2572 3713 1747 
Q 3713 922 3314 415 
Q 2916 -91 2278 -91 
Q 1894 -91 1617 61 
Q 1341 213 1159 525 
z
M 3116 1747 
Q 3116 2381 2855 2742 
Q 2594 3103 2138 3103 
Q 1681 3103 1420 2742 
Q 1159 2381 1159 1747 
Q 1159 1113 1420 752 
Q 1681 391 2138 391 
Q 2594 391 2855 752 
Q 3116 1113 3116 1747 
z
" transform="scale(0.015625)"/>
      <path id="DejaVuSans-3b" d="M 750 3309 
L 1409 3309 
L 1409 2516 
L 750 2516 
L 750 3309 
z
M 750 794 
L 1409 794 
L 1409 256 
L 897 -744 
L 494 -744 
L 750 256 
L 750 794 
z
" transform="scale(0.015625)"/>
      <path id="DejaVuSans-25" d="M 4653 2053 
Q 4381 2053 4226 1822 
Q 4072 1591 4072 1178 
Q 4072 772 4226 539 
Q 4381 306 4653 306 
Q 4919 306 5073 539 
Q 5228 772 5228 1178 
Q 5228 1588 5073 1820 
Q 4919 2053 4653 2053 
z
M 4653 2450 
Q 5147 2450 5437 2106 
Q 5728 1763 5728 1178 
Q 5728 594 5436 251 
Q 5144 -91 4653 -91 
Q 4153 -91 3862 251 
Q 3572 594 3572 1178 
Q 3572 1766 3864 2108 
Q 4156 2450 4653 2450 
z
M 1428 4353 
Q 1159 4353 1004 4120 
Q 850 3888 850 3481 
Q 850 3069 1003 2837 
Q 1156 2606 1428 2606 
Q 1700 2606 1854 2837 
Q 2009 3069 2009 3481 
Q 2009 3884 1853 4118 
Q 1697 4353 1428 4353 
z
M 4250 4750 
L 4750 4750 
L 1831 -91 
L 1331 -91 
L 4250 4750 
z
M 1428 4750 
Q 1922 4750 2215 4408 
Q 2509 4066 2509 3481 
Q 2509 2891 2217 2550 
Q 1925 2209 1428 2209 
Q 931 2209 642 2551 
Q 353 2894 353 3481 
Q 353 4063 643 4406 
Q 934 4750 1428 4750 
z
" transform="scale(0.015625)"/>
      <path id="DejaVuSans-64" d="M 2906 2969 
L 2906 4863 
L 3481 4863 
L 3481 0 
L 2906 0 
L 2906 525 
Q 2725 213 2448 61 
Q 2172 -91 1784 -91 
Q 1150 -91 751 415 
Q 353 922 353 1747 
Q 353 2572 751 3078 
Q 1150 3584 1784 3584 
Q 2172 3584 2448 3432 
Q 2725 3281 2906 2969 
z
M 947 1747 
Q 947 1113 1208 752 
Q 1469 391 1925 391 
Q 2381 391 2643 752 
Q 2906 1113 2906 1747 
Q 2906 2381 2643 2742 
Q 2381 3103 1925 3103 
Q 1469 3103 1208 2742 
Q 947 2381 947 1747 
z
" transform="scale(0.015625)"/>
      <path id="DejaVuSans-67" d="M 2906 1791 
Q 2906 2416 2648 2759 
Q 2391 3103 1925 3103 
Q 1463 3103 1205 2759 
Q 947 2416 947 1791 
Q 947 1169 1205 825 
Q 1463 481 1925 481 
Q 2391 481 2648 825 
Q 2906 1169 2906 1791 
z
M 3481 434 
Q 3481 -459 3084 -895 
Q 2688 -1331 1869 -1331 
Q 1566 -1331 1297 -1286 
Q 1028 -1241 775 -1147 
L 775 -588 
Q 1028 -725 1275 -790 
Q 1522 -856 1778 -856 
Q 2344 -856 2625 -561 
Q 2906 -266 2906 331 
L 2906 616 
Q 2728 306 2450 153 
Q 2172 0 1784 0 
Q 1141 0 747 490 
Q 353 981 353 1791 
Q 353 2603 747 3093 
Q 1141 3584 1784 3584 
Q 2172 3584 2450 3431 
Q 2728 3278 2906 2969 
L 2906 3500 
L 3481 3500 
L 3481 434 
z
" transform="scale(0.015625)"/>
      <path id="DejaVuSans-5d" d="M 1947 4863 
L 1947 -844 
L 622 -844 
L 622 -397 
L 1369 -397 
L 1369 4416 
L 622 4416 
L 622 4863 
L 1947 4863 
z
" transform="scale(0.015625)"/>
     </defs>
     <use xlink:href="#DejaVuSans-50"/>
     <use xlink:href="#DejaVuSans-52" x="60.302734"/>
     <use xlink:href="#DejaVuSans-20" x="129.785156"/>
     <use xlink:href="#DejaVuSans-43" x="161.572266"/>
     <use xlink:href="#DejaVuSans-75" x="231.396484"/>
     <use xlink:href="#DejaVuSans-72" x="294.775391"/>
     <use xlink:href="#DejaVuSans-76" x="335.888672"/>
     <use xlink:href="#DejaVuSans-65" x="395.068359"/>
     <use xlink:href="#DejaVuSans-20" x="456.591797"/>
     <use xlink:href="#DejaVuSans-6f" x="488.378906"/>
     <use xlink:href="#DejaVuSans-6e" x="549.560547"/>
     <use xlink:href="#DejaVuSans-20" x="612.939453"/>
     <use xlink:href="#DejaVuSans-35" x="644.726562"/>
     <use xlink:href="#DejaVuSans-30" x="708.349609"/>
     <use xlink:href="#DejaVuSans-78" x="771.972656"/>
     <use xlink:href="#DejaVuSans-35" x="831.152344"/>
     <use xlink:href="#DejaVuSans-30" x="894.775391"/>
     <use xlink:href="#DejaVuSans-20" x="958.398438"/>
     <use xlink:href="#DejaVuSans-54" x="990.185547"/>
     <use xlink:href="#DejaVuSans-65" x="1034.269531"/>
     <use xlink:href="#DejaVuSans-6e" x="1095.792969"/>
     <use xlink:href="#DejaVuSans-73" x="1159.171875"/>
     <use xlink:href="#DejaVuSans-6f" x="1211.271484"/>
     <use xlink:href="#DejaVuSans-72" x="1272.453125"/>
     <use xlink:href="#DejaVuSans-73" x="1313.566406"/>
     <use xlink:href="#DejaVuSans-20" x="1365.666016"/>
     <use xlink:href="#DejaVuSans-5b" x="1397.453125"/>
     <use xlink:href="#DejaVuSans-31" x="1436.466797"/>
     <use xlink:href="#DejaVuSans-20" x="1500.089844"/>
     <use xlink:href="#DejaVuSans-73" x="1531.876953"/>
     <use xlink:href="#DejaVuSans-61" x="1583.976562"/>
     <use xlink:href="#DejaVuSans-6d" x="1645.255859"/>
     <use xlink:href="#DejaVuSans-70" x="1742.667969"/>
     <use xlink:href="#DejaVuSans-6c" x="1806.144531"/>
     <use xlink:href="#DejaVuSans-65" x="1833.927734"/>
     <use xlink:href="#DejaVuSans-3b" x="1895.451172"/>
     <use xlink:href="#DejaVuSans-20" x="1929.142578"/>
     <use xlink:href="#DejaVuSans-32" x="1960.929688"/>
     <use xlink:href="#DejaVuSans-25" x="2024.552734"/>
     <use xlink:href="#DejaVuSans-20" x="2119.572266"/>
     <use xlink:href="#DejaVuSans-65" x="2151.359375"/>
     <use xlink:href="#DejaVuSans-64" x="2212.882812"/>
     <use xlink:href="#DejaVuSans-67" x="2276.359375"/>
     <use xlink:href="#DejaVuSans-65" x="2339.835938"/>
     <use xlink:href="#DejaVuSans-73" x="2401.359375"/>
     <use xlink:href="#DejaVuSans-5d" x="2453.458984"/>
    </g>
   </g>
   <g id="legend_1">
    <g id="patch_5">
     <path d="M 312.923125 74.3525 
L 393.90125 74.3525 
Q 395.90125 74.3525 395.90125 72.3525 
L 395.90125 29.318125 
Q 395.90125 27.318125 393.90125 27.318125 
L 312.923125 27.318125 
Q 310.923125 27.318125 310.923125 29.318125 
L 310.923125 72.3525 
Q 310.923125 74.3525 312.923125 74.3525 
z
" style="fill: #ffffff; opacity: 0.8; stroke: #cccccc; stroke-linejoin: miter"/>
    </g>
    <g id="line2d_16">
     <path d="M 314.923125 35.416562 
L 324.923125 35.416562 
L 334.923125 35.416562 
" style="fill: none; stroke: #000000; stroke-width: 1.5; stroke-linecap: square"/>
    </g>
    <g id="text_16">
     <!-- GmGM -->
     <g transform="translate(342.923125 38.916562) scale(0.1 -0.1)">
      <defs>
       <path id="DejaVuSans-47" d="M 3809 666 
L 3809 1919 
L 2778 1919 
L 2778 2438 
L 4434 2438 
L 4434 434 
Q 4069 175 3628 42 
Q 3188 -91 2688 -91 
Q 1594 -91 976 548 
Q 359 1188 359 2328 
Q 359 3472 976 4111 
Q 1594 4750 2688 4750 
Q 3144 4750 3555 4637 
Q 3966 4525 4313 4306 
L 4313 3634 
Q 3963 3931 3569 4081 
Q 3175 4231 2741 4231 
Q 1884 4231 1454 3753 
Q 1025 3275 1025 2328 
Q 1025 1384 1454 906 
Q 1884 428 2741 428 
Q 3075 428 3337 486 
Q 3600 544 3809 666 
z
" transform="scale(0.015625)"/>
       <path id="DejaVuSans-4d" d="M 628 4666 
L 1569 4666 
L 2759 1491 
L 3956 4666 
L 4897 4666 
L 4897 0 
L 4281 0 
L 4281 4097 
L 3078 897 
L 2444 897 
L 1241 4097 
L 1241 0 
L 628 0 
L 628 4666 
z
" transform="scale(0.015625)"/>
      </defs>
      <use xlink:href="#DejaVuSans-47"/>
      <use xlink:href="#DejaVuSans-6d" x="77.490234"/>
      <use xlink:href="#DejaVuSans-47" x="174.902344"/>
      <use xlink:href="#DejaVuSans-4d" x="252.392578"/>
     </g>
    </g>
    <g id="line2d_17">
     <path d="M 314.923125 50.094688 
L 324.923125 50.094688 
L 334.923125 50.094688 
" style="fill: none; stroke-dasharray: 5.55,2.4; stroke-dashoffset: 0; stroke: #ff0000; stroke-width: 1.5"/>
    </g>
    <g id="text_17">
     <!-- GmGM L1 -->
     <g transform="translate(342.923125 53.594688) scale(0.1 -0.1)">
      <defs>
       <path id="DejaVuSans-4c" d="M 628 4666 
L 1259 4666 
L 1259 531 
L 3531 531 
L 3531 0 
L 628 0 
L 628 4666 
z
" transform="scale(0.015625)"/>
      </defs>
      <use xlink:href="#DejaVuSans-47"/>
      <use xlink:href="#DejaVuSans-6d" x="77.490234"/>
      <use xlink:href="#DejaVuSans-47" x="174.902344"/>
      <use xlink:href="#DejaVuSans-4d" x="252.392578"/>
      <use xlink:href="#DejaVuSans-20" x="338.671875"/>
      <use xlink:href="#DejaVuSans-4c" x="370.458984"/>
      <use xlink:href="#DejaVuSans-31" x="426.171875"/>
     </g>
    </g>
    <g id="line2d_18">
     <path d="M 314.923125 64.772812 
L 324.923125 64.772812 
L 334.923125 64.772812 
" style="fill: none; stroke-dasharray: 9.6,2.4,1.5,2.4; stroke-dashoffset: 0; stroke: #bf00bf; stroke-width: 1.5"/>
    </g>
    <g id="text_18">
     <!-- EiGLasso -->
     <g transform="translate(342.923125 68.272812) scale(0.1 -0.1)">
      <defs>
       <path id="DejaVuSans-45" d="M 628 4666 
L 3578 4666 
L 3578 4134 
L 1259 4134 
L 1259 2753 
L 3481 2753 
L 3481 2222 
L 1259 2222 
L 1259 531 
L 3634 531 
L 3634 0 
L 628 0 
L 628 4666 
z
" transform="scale(0.015625)"/>
      </defs>
      <use xlink:href="#DejaVuSans-45"/>
      <use xlink:href="#DejaVuSans-69" x="63.183594"/>
      <use xlink:href="#DejaVuSans-47" x="90.966797"/>
      <use xlink:href="#DejaVuSans-4c" x="168.457031"/>
      <use xlink:href="#DejaVuSans-61" x="224.169922"/>
      <use xlink:href="#DejaVuSans-73" x="285.449219"/>
      <use xlink:href="#DejaVuSans-73" x="337.548828"/>
      <use xlink:href="#DejaVuSans-6f" x="389.648438"/>
     </g>
    </g>
   </g>
  </g>
 </g>
 <defs>
  <clipPath id="p640da415fd">
   <rect x="43.78125" y="22.318125" width="357.12" height="266.112"/>
  </clipPath>
 </defs>
</svg>
