<?xml version="1.0" encoding="utf-8" standalone="no"?>
<!DOCTYPE svg PUBLIC "-//W3C//DTD SVG 1.1//EN"
  "http://www.w3.org/Graphics/SVG/1.1/DTD/svg11.dtd">
<svg xmlns:xlink="http://www.w3.org/1999/xlink" width="408.10125pt" height="325.986375pt" viewBox="0 0 408.10125 325.986375" xmlns="http://www.w3.org/2000/svg" version="1.1">
 <metadata>
  <rdf:RDF xmlns:dc="http://purl.org/dc/elements/1.1/" xmlns:cc="http://creativecommons.org/ns#" xmlns:rdf="http://www.w3.org/1999/02/22-rdf-syntax-ns#">
   <cc:Work>
    <dc:type rdf:resource="http://purl.org/dc/dcmitype/StillImage"/>
    <dc:date>2023-10-14T18:23:50.668633</dc:date>
    <dc:format>image/svg+xml</dc:format>
    <dc:creator>
     <cc:Agent>
      <dc:title>Matplotlib v3.7.2, https://matplotlib.org/</dc:title>
     </cc:Agent>
    </dc:creator>
   </cc:Work>
  </rdf:RDF>
 </metadata>
 <defs>
  <style type="text/css">*{stroke-linejoin: round; stroke-linecap: butt}</style>
 </defs>
 <g id="figure_1">
  <g id="patch_1">
   <path d="M 0 325.986375 
L 408.10125 325.986375 
L 408.10125 0 
L 0 0 
z
" style="fill: #ffffff"/>
  </g>
  <g id="axes_1">
   <g id="patch_2">
    <path d="M 43.78125 288.430125 
L 400.90125 288.430125 
L 400.90125 22.318125 
L 43.78125 22.318125 
z
" style="fill: #ffffff"/>
   </g>
   <g id="matplotlib.axis_1">
    <g id="xtick_1">
     <g id="line2d_1">
      <defs>
       <path id="m3609758b50" d="M 0 0 
L 0 3.5 
" style="stroke: #000000; stroke-width: 0.8"/>
      </defs>
      <g>
       <use xlink:href="#m3609758b50" x="91.190776" y="288.430125" style="stroke: #000000; stroke-width: 0.8"/>
      </g>
     </g>
     <g id="text_1">
      <!-- 2000 -->
      <g transform="translate(78.465776 303.028562) scale(0.1 -0.1)">
       <defs>
        <path id="DejaVuSans-32" d="M 1228 531 
L 3431 531 
L 3431 0 
L 469 0 
L 469 531 
Q 828 903 1448 1529 
Q 2069 2156 2228 2338 
Q 2531 2678 2651 2914 
Q 2772 3150 2772 3378 
Q 2772 3750 2511 3984 
Q 2250 4219 1831 4219 
Q 1534 4219 1204 4116 
Q 875 4013 500 3803 
L 500 4441 
Q 881 4594 1212 4672 
Q 1544 4750 1819 4750 
Q 2544 4750 2975 4387 
Q 3406 4025 3406 3419 
Q 3406 3131 3298 2873 
Q 3191 2616 2906 2266 
Q 2828 2175 2409 1742 
Q 1991 1309 1228 531 
z
" transform="scale(0.015625)"/>
        <path id="DejaVuSans-30" d="M 2034 4250 
Q 1547 4250 1301 3770 
Q 1056 3291 1056 2328 
Q 1056 1369 1301 889 
Q 1547 409 2034 409 
Q 2525 409 2770 889 
Q 3016 1369 3016 2328 
Q 3016 3291 2770 3770 
Q 2525 4250 2034 4250 
z
M 2034 4750 
Q 2819 4750 3233 4129 
Q 3647 3509 3647 2328 
Q 3647 1150 3233 529 
Q 2819 -91 2034 -91 
Q 1250 -91 836 529 
Q 422 1150 422 2328 
Q 422 3509 836 4129 
Q 1250 4750 2034 4750 
z
" transform="scale(0.015625)"/>
       </defs>
       <use xlink:href="#DejaVuSans-32"/>
       <use xlink:href="#DejaVuSans-30" x="63.623047"/>
       <use xlink:href="#DejaVuSans-30" x="127.246094"/>
       <use xlink:href="#DejaVuSans-30" x="190.869141"/>
      </g>
     </g>
    </g>
    <g id="xtick_2">
     <g id="line2d_2">
      <g>
       <use xlink:href="#m3609758b50" x="138.838542" y="288.430125" style="stroke: #000000; stroke-width: 0.8"/>
      </g>
     </g>
     <g id="text_2">
      <!-- 4000 -->
      <g transform="translate(126.113542 303.028562) scale(0.1 -0.1)">
       <defs>
        <path id="DejaVuSans-34" d="M 2419 4116 
L 825 1625 
L 2419 1625 
L 2419 4116 
z
M 2253 4666 
L 3047 4666 
L 3047 1625 
L 3713 1625 
L 3713 1100 
L 3047 1100 
L 3047 0 
L 2419 0 
L 2419 1100 
L 313 1100 
L 313 1709 
L 2253 4666 
z
" transform="scale(0.015625)"/>
       </defs>
       <use xlink:href="#DejaVuSans-34"/>
       <use xlink:href="#DejaVuSans-30" x="63.623047"/>
       <use xlink:href="#DejaVuSans-30" x="127.246094"/>
       <use xlink:href="#DejaVuSans-30" x="190.869141"/>
      </g>
     </g>
    </g>
    <g id="xtick_3">
     <g id="line2d_3">
      <g>
       <use xlink:href="#m3609758b50" x="186.486307" y="288.430125" style="stroke: #000000; stroke-width: 0.8"/>
      </g>
     </g>
     <g id="text_3">
      <!-- 6000 -->
      <g transform="translate(173.761307 303.028562) scale(0.1 -0.1)">
       <defs>
        <path id="DejaVuSans-36" d="M 2113 2584 
Q 1688 2584 1439 2293 
Q 1191 2003 1191 1497 
Q 1191 994 1439 701 
Q 1688 409 2113 409 
Q 2538 409 2786 701 
Q 3034 994 3034 1497 
Q 3034 2003 2786 2293 
Q 2538 2584 2113 2584 
z
M 3366 4563 
L 3366 3988 
Q 3128 4100 2886 4159 
Q 2644 4219 2406 4219 
Q 1781 4219 1451 3797 
Q 1122 3375 1075 2522 
Q 1259 2794 1537 2939 
Q 1816 3084 2150 3084 
Q 2853 3084 3261 2657 
Q 3669 2231 3669 1497 
Q 3669 778 3244 343 
Q 2819 -91 2113 -91 
Q 1303 -91 875 529 
Q 447 1150 447 2328 
Q 447 3434 972 4092 
Q 1497 4750 2381 4750 
Q 2619 4750 2861 4703 
Q 3103 4656 3366 4563 
z
" transform="scale(0.015625)"/>
       </defs>
       <use xlink:href="#DejaVuSans-36"/>
       <use xlink:href="#DejaVuSans-30" x="63.623047"/>
       <use xlink:href="#DejaVuSans-30" x="127.246094"/>
       <use xlink:href="#DejaVuSans-30" x="190.869141"/>
      </g>
     </g>
    </g>
    <g id="xtick_4">
     <g id="line2d_4">
      <g>
       <use xlink:href="#m3609758b50" x="234.134072" y="288.430125" style="stroke: #000000; stroke-width: 0.8"/>
      </g>
     </g>
     <g id="text_4">
      <!-- 8000 -->
      <g transform="translate(221.409072 303.028562) scale(0.1 -0.1)">
       <defs>
        <path id="DejaVuSans-38" d="M 2034 2216 
Q 1584 2216 1326 1975 
Q 1069 1734 1069 1313 
Q 1069 891 1326 650 
Q 1584 409 2034 409 
Q 2484 409 2743 651 
Q 3003 894 3003 1313 
Q 3003 1734 2745 1975 
Q 2488 2216 2034 2216 
z
M 1403 2484 
Q 997 2584 770 2862 
Q 544 3141 544 3541 
Q 544 4100 942 4425 
Q 1341 4750 2034 4750 
Q 2731 4750 3128 4425 
Q 3525 4100 3525 3541 
Q 3525 3141 3298 2862 
Q 3072 2584 2669 2484 
Q 3125 2378 3379 2068 
Q 3634 1759 3634 1313 
Q 3634 634 3220 271 
Q 2806 -91 2034 -91 
Q 1263 -91 848 271 
Q 434 634 434 1313 
Q 434 1759 690 2068 
Q 947 2378 1403 2484 
z
M 1172 3481 
Q 1172 3119 1398 2916 
Q 1625 2713 2034 2713 
Q 2441 2713 2670 2916 
Q 2900 3119 2900 3481 
Q 2900 3844 2670 4047 
Q 2441 4250 2034 4250 
Q 1625 4250 1398 4047 
Q 1172 3844 1172 3481 
z
" transform="scale(0.015625)"/>
       </defs>
       <use xlink:href="#DejaVuSans-38"/>
       <use xlink:href="#DejaVuSans-30" x="63.623047"/>
       <use xlink:href="#DejaVuSans-30" x="127.246094"/>
       <use xlink:href="#DejaVuSans-30" x="190.869141"/>
      </g>
     </g>
    </g>
    <g id="xtick_5">
     <g id="line2d_5">
      <g>
       <use xlink:href="#m3609758b50" x="281.781837" y="288.430125" style="stroke: #000000; stroke-width: 0.8"/>
      </g>
     </g>
     <g id="text_5">
      <!-- 10000 -->
      <g transform="translate(265.875587 303.028562) scale(0.1 -0.1)">
       <defs>
        <path id="DejaVuSans-31" d="M 794 531 
L 1825 531 
L 1825 4091 
L 703 3866 
L 703 4441 
L 1819 4666 
L 2450 4666 
L 2450 531 
L 3481 531 
L 3481 0 
L 794 0 
L 794 531 
z
" transform="scale(0.015625)"/>
       </defs>
       <use xlink:href="#DejaVuSans-31"/>
       <use xlink:href="#DejaVuSans-30" x="63.623047"/>
       <use xlink:href="#DejaVuSans-30" x="127.246094"/>
       <use xlink:href="#DejaVuSans-30" x="190.869141"/>
       <use xlink:href="#DejaVuSans-30" x="254.492188"/>
      </g>
     </g>
    </g>
    <g id="xtick_6">
     <g id="line2d_6">
      <g>
       <use xlink:href="#m3609758b50" x="329.429602" y="288.430125" style="stroke: #000000; stroke-width: 0.8"/>
      </g>
     </g>
     <g id="text_6">
      <!-- 12000 -->
      <g transform="translate(313.523352 303.028562) scale(0.1 -0.1)">
       <use xlink:href="#DejaVuSans-31"/>
       <use xlink:href="#DejaVuSans-32" x="63.623047"/>
       <use xlink:href="#DejaVuSans-30" x="127.246094"/>
       <use xlink:href="#DejaVuSans-30" x="190.869141"/>
       <use xlink:href="#DejaVuSans-30" x="254.492188"/>
      </g>
     </g>
    </g>
    <g id="xtick_7">
     <g id="line2d_7">
      <g>
       <use xlink:href="#m3609758b50" x="377.077367" y="288.430125" style="stroke: #000000; stroke-width: 0.8"/>
      </g>
     </g>
     <g id="text_7">
      <!-- 14000 -->
      <g transform="translate(361.171117 303.028562) scale(0.1 -0.1)">
       <use xlink:href="#DejaVuSans-31"/>
       <use xlink:href="#DejaVuSans-34" x="63.623047"/>
       <use xlink:href="#DejaVuSans-30" x="127.246094"/>
       <use xlink:href="#DejaVuSans-30" x="190.869141"/>
       <use xlink:href="#DejaVuSans-30" x="254.492188"/>
      </g>
     </g>
    </g>
    <g id="text_8">
     <!-- Number of edges -->
     <g transform="translate(179.151406 316.706687) scale(0.1 -0.1)">
      <defs>
       <path id="DejaVuSans-4e" d="M 628 4666 
L 1478 4666 
L 3547 763 
L 3547 4666 
L 4159 4666 
L 4159 0 
L 3309 0 
L 1241 3903 
L 1241 0 
L 628 0 
L 628 4666 
z
" transform="scale(0.015625)"/>
       <path id="DejaVuSans-75" d="M 544 1381 
L 544 3500 
L 1119 3500 
L 1119 1403 
Q 1119 906 1312 657 
Q 1506 409 1894 409 
Q 2359 409 2629 706 
Q 2900 1003 2900 1516 
L 2900 3500 
L 3475 3500 
L 3475 0 
L 2900 0 
L 2900 538 
Q 2691 219 2414 64 
Q 2138 -91 1772 -91 
Q 1169 -91 856 284 
Q 544 659 544 1381 
z
M 1991 3584 
L 1991 3584 
z
" transform="scale(0.015625)"/>
       <path id="DejaVuSans-6d" d="M 3328 2828 
Q 3544 3216 3844 3400 
Q 4144 3584 4550 3584 
Q 5097 3584 5394 3201 
Q 5691 2819 5691 2113 
L 5691 0 
L 5113 0 
L 5113 2094 
Q 5113 2597 4934 2840 
Q 4756 3084 4391 3084 
Q 3944 3084 3684 2787 
Q 3425 2491 3425 1978 
L 3425 0 
L 2847 0 
L 2847 2094 
Q 2847 2600 2669 2842 
Q 2491 3084 2119 3084 
Q 1678 3084 1418 2786 
Q 1159 2488 1159 1978 
L 1159 0 
L 581 0 
L 581 3500 
L 1159 3500 
L 1159 2956 
Q 1356 3278 1631 3431 
Q 1906 3584 2284 3584 
Q 2666 3584 2933 3390 
Q 3200 3197 3328 2828 
z
" transform="scale(0.015625)"/>
       <path id="DejaVuSans-62" d="M 3116 1747 
Q 3116 2381 2855 2742 
Q 2594 3103 2138 3103 
Q 1681 3103 1420 2742 
Q 1159 2381 1159 1747 
Q 1159 1113 1420 752 
Q 1681 391 2138 391 
Q 2594 391 2855 752 
Q 3116 1113 3116 1747 
z
M 1159 2969 
Q 1341 3281 1617 3432 
Q 1894 3584 2278 3584 
Q 2916 3584 3314 3078 
Q 3713 2572 3713 1747 
Q 3713 922 3314 415 
Q 2916 -91 2278 -91 
Q 1894 -91 1617 61 
Q 1341 213 1159 525 
L 1159 0 
L 581 0 
L 581 4863 
L 1159 4863 
L 1159 2969 
z
" transform="scale(0.015625)"/>
       <path id="DejaVuSans-65" d="M 3597 1894 
L 3597 1613 
L 953 1613 
Q 991 1019 1311 708 
Q 1631 397 2203 397 
Q 2534 397 2845 478 
Q 3156 559 3463 722 
L 3463 178 
Q 3153 47 2828 -22 
Q 2503 -91 2169 -91 
Q 1331 -91 842 396 
Q 353 884 353 1716 
Q 353 2575 817 3079 
Q 1281 3584 2069 3584 
Q 2775 3584 3186 3129 
Q 3597 2675 3597 1894 
z
M 3022 2063 
Q 3016 2534 2758 2815 
Q 2500 3097 2075 3097 
Q 1594 3097 1305 2825 
Q 1016 2553 972 2059 
L 3022 2063 
z
" transform="scale(0.015625)"/>
       <path id="DejaVuSans-72" d="M 2631 2963 
Q 2534 3019 2420 3045 
Q 2306 3072 2169 3072 
Q 1681 3072 1420 2755 
Q 1159 2438 1159 1844 
L 1159 0 
L 581 0 
L 581 3500 
L 1159 3500 
L 1159 2956 
Q 1341 3275 1631 3429 
Q 1922 3584 2338 3584 
Q 2397 3584 2469 3576 
Q 2541 3569 2628 3553 
L 2631 2963 
z
" transform="scale(0.015625)"/>
       <path id="DejaVuSans-20" transform="scale(0.015625)"/>
       <path id="DejaVuSans-6f" d="M 1959 3097 
Q 1497 3097 1228 2736 
Q 959 2375 959 1747 
Q 959 1119 1226 758 
Q 1494 397 1959 397 
Q 2419 397 2687 759 
Q 2956 1122 2956 1747 
Q 2956 2369 2687 2733 
Q 2419 3097 1959 3097 
z
M 1959 3584 
Q 2709 3584 3137 3096 
Q 3566 2609 3566 1747 
Q 3566 888 3137 398 
Q 2709 -91 1959 -91 
Q 1206 -91 779 398 
Q 353 888 353 1747 
Q 353 2609 779 3096 
Q 1206 3584 1959 3584 
z
" transform="scale(0.015625)"/>
       <path id="DejaVuSans-66" d="M 2375 4863 
L 2375 4384 
L 1825 4384 
Q 1516 4384 1395 4259 
Q 1275 4134 1275 3809 
L 1275 3500 
L 2222 3500 
L 2222 3053 
L 1275 3053 
L 1275 0 
L 697 0 
L 697 3053 
L 147 3053 
L 147 3500 
L 697 3500 
L 697 3744 
Q 697 4328 969 4595 
Q 1241 4863 1831 4863 
L 2375 4863 
z
" transform="scale(0.015625)"/>
       <path id="DejaVuSans-64" d="M 2906 2969 
L 2906 4863 
L 3481 4863 
L 3481 0 
L 2906 0 
L 2906 525 
Q 2725 213 2448 61 
Q 2172 -91 1784 -91 
Q 1150 -91 751 415 
Q 353 922 353 1747 
Q 353 2572 751 3078 
Q 1150 3584 1784 3584 
Q 2172 3584 2448 3432 
Q 2725 3281 2906 2969 
z
M 947 1747 
Q 947 1113 1208 752 
Q 1469 391 1925 391 
Q 2381 391 2643 752 
Q 2906 1113 2906 1747 
Q 2906 2381 2643 2742 
Q 2381 3103 1925 3103 
Q 1469 3103 1208 2742 
Q 947 2381 947 1747 
z
" transform="scale(0.015625)"/>
       <path id="DejaVuSans-67" d="M 2906 1791 
Q 2906 2416 2648 2759 
Q 2391 3103 1925 3103 
Q 1463 3103 1205 2759 
Q 947 2416 947 1791 
Q 947 1169 1205 825 
Q 1463 481 1925 481 
Q 2391 481 2648 825 
Q 2906 1169 2906 1791 
z
M 3481 434 
Q 3481 -459 3084 -895 
Q 2688 -1331 1869 -1331 
Q 1566 -1331 1297 -1286 
Q 1028 -1241 775 -1147 
L 775 -588 
Q 1028 -725 1275 -790 
Q 1522 -856 1778 -856 
Q 2344 -856 2625 -561 
Q 2906 -266 2906 331 
L 2906 616 
Q 2728 306 2450 153 
Q 2172 0 1784 0 
Q 1141 0 747 490 
Q 353 981 353 1791 
Q 353 2603 747 3093 
Q 1141 3584 1784 3584 
Q 2172 3584 2450 3431 
Q 2728 3278 2906 2969 
L 2906 3500 
L 3481 3500 
L 3481 434 
z
" transform="scale(0.015625)"/>
       <path id="DejaVuSans-73" d="M 2834 3397 
L 2834 2853 
Q 2591 2978 2328 3040 
Q 2066 3103 1784 3103 
Q 1356 3103 1142 2972 
Q 928 2841 928 2578 
Q 928 2378 1081 2264 
Q 1234 2150 1697 2047 
L 1894 2003 
Q 2506 1872 2764 1633 
Q 3022 1394 3022 966 
Q 3022 478 2636 193 
Q 2250 -91 1575 -91 
Q 1294 -91 989 -36 
Q 684 19 347 128 
L 347 722 
Q 666 556 975 473 
Q 1284 391 1588 391 
Q 1994 391 2212 530 
Q 2431 669 2431 922 
Q 2431 1156 2273 1281 
Q 2116 1406 1581 1522 
L 1381 1569 
Q 847 1681 609 1914 
Q 372 2147 372 2553 
Q 372 3047 722 3315 
Q 1072 3584 1716 3584 
Q 2034 3584 2315 3537 
Q 2597 3491 2834 3397 
z
" transform="scale(0.015625)"/>
      </defs>
      <use xlink:href="#DejaVuSans-4e"/>
      <use xlink:href="#DejaVuSans-75" x="74.804688"/>
      <use xlink:href="#DejaVuSans-6d" x="138.183594"/>
      <use xlink:href="#DejaVuSans-62" x="235.595703"/>
      <use xlink:href="#DejaVuSans-65" x="299.072266"/>
      <use xlink:href="#DejaVuSans-72" x="360.595703"/>
      <use xlink:href="#DejaVuSans-20" x="401.708984"/>
      <use xlink:href="#DejaVuSans-6f" x="433.496094"/>
      <use xlink:href="#DejaVuSans-66" x="494.677734"/>
      <use xlink:href="#DejaVuSans-20" x="529.882812"/>
      <use xlink:href="#DejaVuSans-65" x="561.669922"/>
      <use xlink:href="#DejaVuSans-64" x="623.193359"/>
      <use xlink:href="#DejaVuSans-67" x="686.669922"/>
      <use xlink:href="#DejaVuSans-65" x="750.146484"/>
      <use xlink:href="#DejaVuSans-73" x="811.669922"/>
     </g>
    </g>
   </g>
   <g id="matplotlib.axis_2">
    <g id="ytick_1">
     <g id="line2d_8">
      <defs>
       <path id="m7f31eb037e" d="M 0 0 
L -3.5 0 
" style="stroke: #000000; stroke-width: 0.8"/>
      </defs>
      <g>
       <use xlink:href="#m7f31eb037e" x="43.78125" y="288.430125" style="stroke: #000000; stroke-width: 0.8"/>
      </g>
     </g>
     <g id="text_9">
      <!-- 0.0 -->
      <g transform="translate(20.878125 292.229344) scale(0.1 -0.1)">
       <defs>
        <path id="DejaVuSans-2e" d="M 684 794 
L 1344 794 
L 1344 0 
L 684 0 
L 684 794 
z
" transform="scale(0.015625)"/>
       </defs>
       <use xlink:href="#DejaVuSans-30"/>
       <use xlink:href="#DejaVuSans-2e" x="63.623047"/>
       <use xlink:href="#DejaVuSans-30" x="95.410156"/>
      </g>
     </g>
    </g>
    <g id="ytick_2">
     <g id="line2d_9">
      <g>
       <use xlink:href="#m7f31eb037e" x="43.78125" y="235.207725" style="stroke: #000000; stroke-width: 0.8"/>
      </g>
     </g>
     <g id="text_10">
      <!-- 0.2 -->
      <g transform="translate(20.878125 239.006944) scale(0.1 -0.1)">
       <use xlink:href="#DejaVuSans-30"/>
       <use xlink:href="#DejaVuSans-2e" x="63.623047"/>
       <use xlink:href="#DejaVuSans-32" x="95.410156"/>
      </g>
     </g>
    </g>
    <g id="ytick_3">
     <g id="line2d_10">
      <g>
       <use xlink:href="#m7f31eb037e" x="43.78125" y="181.985325" style="stroke: #000000; stroke-width: 0.8"/>
      </g>
     </g>
     <g id="text_11">
      <!-- 0.4 -->
      <g transform="translate(20.878125 185.784544) scale(0.1 -0.1)">
       <use xlink:href="#DejaVuSans-30"/>
       <use xlink:href="#DejaVuSans-2e" x="63.623047"/>
       <use xlink:href="#DejaVuSans-34" x="95.410156"/>
      </g>
     </g>
    </g>
    <g id="ytick_4">
     <g id="line2d_11">
      <g>
       <use xlink:href="#m7f31eb037e" x="43.78125" y="128.762925" style="stroke: #000000; stroke-width: 0.8"/>
      </g>
     </g>
     <g id="text_12">
      <!-- 0.6 -->
      <g transform="translate(20.878125 132.562144) scale(0.1 -0.1)">
       <use xlink:href="#DejaVuSans-30"/>
       <use xlink:href="#DejaVuSans-2e" x="63.623047"/>
       <use xlink:href="#DejaVuSans-36" x="95.410156"/>
      </g>
     </g>
    </g>
    <g id="ytick_5">
     <g id="line2d_12">
      <g>
       <use xlink:href="#m7f31eb037e" x="43.78125" y="75.540525" style="stroke: #000000; stroke-width: 0.8"/>
      </g>
     </g>
     <g id="text_13">
      <!-- 0.8 -->
      <g transform="translate(20.878125 79.339744) scale(0.1 -0.1)">
       <use xlink:href="#DejaVuSans-30"/>
       <use xlink:href="#DejaVuSans-2e" x="63.623047"/>
       <use xlink:href="#DejaVuSans-38" x="95.410156"/>
      </g>
     </g>
    </g>
    <g id="ytick_6">
     <g id="line2d_13">
      <g>
       <use xlink:href="#m7f31eb037e" x="43.78125" y="22.318125" style="stroke: #000000; stroke-width: 0.8"/>
      </g>
     </g>
     <g id="text_14">
      <!-- 1.0 -->
      <g transform="translate(20.878125 26.117344) scale(0.1 -0.1)">
       <use xlink:href="#DejaVuSans-31"/>
       <use xlink:href="#DejaVuSans-2e" x="63.623047"/>
       <use xlink:href="#DejaVuSans-30" x="95.410156"/>
      </g>
     </g>
    </g>
    <g id="text_15">
     <!-- Assortativity -->
     <g transform="translate(14.798438 186.760062) rotate(-90) scale(0.1 -0.1)">
      <defs>
       <path id="DejaVuSans-41" d="M 2188 4044 
L 1331 1722 
L 3047 1722 
L 2188 4044 
z
M 1831 4666 
L 2547 4666 
L 4325 0 
L 3669 0 
L 3244 1197 
L 1141 1197 
L 716 0 
L 50 0 
L 1831 4666 
z
" transform="scale(0.015625)"/>
       <path id="DejaVuSans-74" d="M 1172 4494 
L 1172 3500 
L 2356 3500 
L 2356 3053 
L 1172 3053 
L 1172 1153 
Q 1172 725 1289 603 
Q 1406 481 1766 481 
L 2356 481 
L 2356 0 
L 1766 0 
Q 1100 0 847 248 
Q 594 497 594 1153 
L 594 3053 
L 172 3053 
L 172 3500 
L 594 3500 
L 594 4494 
L 1172 4494 
z
" transform="scale(0.015625)"/>
       <path id="DejaVuSans-61" d="M 2194 1759 
Q 1497 1759 1228 1600 
Q 959 1441 959 1056 
Q 959 750 1161 570 
Q 1363 391 1709 391 
Q 2188 391 2477 730 
Q 2766 1069 2766 1631 
L 2766 1759 
L 2194 1759 
z
M 3341 1997 
L 3341 0 
L 2766 0 
L 2766 531 
Q 2569 213 2275 61 
Q 1981 -91 1556 -91 
Q 1019 -91 701 211 
Q 384 513 384 1019 
Q 384 1609 779 1909 
Q 1175 2209 1959 2209 
L 2766 2209 
L 2766 2266 
Q 2766 2663 2505 2880 
Q 2244 3097 1772 3097 
Q 1472 3097 1187 3025 
Q 903 2953 641 2809 
L 641 3341 
Q 956 3463 1253 3523 
Q 1550 3584 1831 3584 
Q 2591 3584 2966 3190 
Q 3341 2797 3341 1997 
z
" transform="scale(0.015625)"/>
       <path id="DejaVuSans-69" d="M 603 3500 
L 1178 3500 
L 1178 0 
L 603 0 
L 603 3500 
z
M 603 4863 
L 1178 4863 
L 1178 4134 
L 603 4134 
L 603 4863 
z
" transform="scale(0.015625)"/>
       <path id="DejaVuSans-76" d="M 191 3500 
L 800 3500 
L 1894 563 
L 2988 3500 
L 3597 3500 
L 2284 0 
L 1503 0 
L 191 3500 
z
" transform="scale(0.015625)"/>
       <path id="DejaVuSans-79" d="M 2059 -325 
Q 1816 -950 1584 -1140 
Q 1353 -1331 966 -1331 
L 506 -1331 
L 506 -850 
L 844 -850 
Q 1081 -850 1212 -737 
Q 1344 -625 1503 -206 
L 1606 56 
L 191 3500 
L 800 3500 
L 1894 763 
L 2988 3500 
L 3597 3500 
L 2059 -325 
z
" transform="scale(0.015625)"/>
      </defs>
      <use xlink:href="#DejaVuSans-41"/>
      <use xlink:href="#DejaVuSans-73" x="68.408203"/>
      <use xlink:href="#DejaVuSans-73" x="120.507812"/>
      <use xlink:href="#DejaVuSans-6f" x="172.607422"/>
      <use xlink:href="#DejaVuSans-72" x="233.789062"/>
      <use xlink:href="#DejaVuSans-74" x="274.902344"/>
      <use xlink:href="#DejaVuSans-61" x="314.111328"/>
      <use xlink:href="#DejaVuSans-74" x="375.390625"/>
      <use xlink:href="#DejaVuSans-69" x="414.599609"/>
      <use xlink:href="#DejaVuSans-76" x="442.382812"/>
      <use xlink:href="#DejaVuSans-69" x="501.5625"/>
      <use xlink:href="#DejaVuSans-74" x="529.345703"/>
      <use xlink:href="#DejaVuSans-79" x="568.554688"/>
     </g>
    </g>
   </g>
   <g id="line2d_14">
    <path d="M 43.78125 297.183809 
L 47.378656 214.724021 
L 50.976063 254.32897 
L 54.597293 256.574041 
L 58.194699 267.900183 
L 61.815929 269.090634 
L 65.413335 275.071949 
L 69.010742 277.054976 
L 72.631972 278.676951 
L 76.229378 277.729533 
L 79.850608 274.322615 
L 83.448015 272.878879 
L 87.045421 273.967974 
L 90.666651 270.63437 
L 94.264057 268.845722 
L 97.885287 272.03361 
L 101.482694 272.805172 
L 105.103924 270.620645 
L 108.70133 271.531841 
L 112.298736 273.536146 
L 115.919966 272.868378 
L 119.517373 273.122156 
L 123.138603 273.060066 
L 126.736009 273.360688 
L 130.333415 273.404064 
L 133.954646 274.475588 
L 137.552052 274.699687 
L 141.173282 274.427239 
L 144.770688 274.581567 
L 148.391918 274.434192 
L 151.989325 274.590195 
L 155.586731 275.006762 
L 159.207961 274.707872 
L 162.805367 276.884158 
L 166.426598 277.659587 
L 170.024004 277.106754 
L 173.62141 278.093211 
L 177.24264 277.804615 
L 180.840047 278.296031 
L 184.461277 278.691324 
L 188.058683 278.796619 
L 191.656089 279.489544 
L 195.277319 279.808771 
L 198.874726 280.503579 
L 202.495956 279.721142 
L 206.093362 278.892287 
L 209.714592 279.213673 
L 213.311998 278.665443 
L 216.909405 278.370485 
L 220.530635 278.103753 
L 224.128041 277.533824 
L 227.749271 276.241401 
L 231.346678 275.695995 
L 234.944084 275.591228 
L 238.565314 275.188126 
L 242.16272 274.865157 
L 245.78395 274.438597 
L 249.381357 274.270727 
L 253.002587 273.406357 
L 256.599993 273.997539 
L 260.197399 273.317403 
L 263.81863 272.911234 
L 267.416036 273.550164 
L 271.037266 274.071872 
L 274.634672 274.238869 
L 278.232079 274.760781 
L 281.853309 275.074663 
L 285.450715 275.998439 
L 289.071945 275.416084 
L 292.669351 275.872774 
L 296.266758 275.829229 
L 299.887988 275.892352 
L 303.485394 275.787842 
L 307.106624 276.902932 
L 310.704031 277.238288 
L 314.325261 276.75756 
L 317.922667 276.341509 
L 321.520073 276.22564 
L 325.141303 276.431616 
L 328.73871 275.895299 
L 332.35994 275.279402 
L 335.957346 275.113689 
L 339.554752 274.872516 
L 343.175982 274.804735 
L 346.773389 275.815811 
L 350.394619 275.724158 
L 353.992025 276.17748 
L 357.613255 276.266109 
L 361.210662 276.032344 
L 364.808068 276.335919 
L 368.429298 276.707122 
L 372.026704 276.443263 
L 375.647934 276.575249 
L 379.245341 276.883928 
L 382.842747 277.257618 
L 386.463977 277.328399 
L 390.061383 277.389542 
L 393.682614 277.373402 
L 397.28002 277.156141 
L 400.90125 277.587485 
" clip-path="url(#pd24b7bbfb7)" style="fill: none; stroke: #e69f00; stroke-width: 1.5; stroke-linecap: square"/>
   </g>
   <g id="line2d_15">
    <path d="M 44.448319 308.971697 
L 44.829501 299.006914 
L 45.163035 235.785565 
L 45.591865 231.56375 
L 46.258934 232.251961 
L 46.640116 240.03244 
L 46.97365 241.166603 
L 47.354832 232.137733 
L 47.878958 216.666557 
L 48.117197 209.846716 
L 48.593674 220.974376 
L 49.213095 227.86358 
L 50.023107 242.904662 
L 50.690176 241.994474 
L 51.02371 237.243488 
L 51.88137 243.281346 
L 52.357848 248.476893 
L 53.215508 249.896485 
L 53.882576 242.912013 
L 54.692588 241.122864 
L 55.454952 240.886355 
L 56.598499 240.798164 
L 57.456159 245.292429 
L 58.361466 248.520094 
L 59.219126 246.8352 
L 60.076786 243.831233 
L 61.26798 240.46732 
L 62.220935 235.088933 
L 63.364481 231.628931 
L 64.555676 234.277296 
L 65.556279 241.520092 
L 67.366894 245.211296 
L 69.034566 248.811435 
L 70.082816 249.461422 
L 71.464602 252.349449 
L 72.322261 251.298496 
L 73.370512 251.705746 
L 75.038184 253.882541 
L 76.467617 254.280586 
L 78.230584 255.317898 
L 79.850608 254.486123 
L 81.804167 254.382457 
L 83.900668 257.219185 
L 85.711283 259.400429 
L 87.569546 259.409931 
L 89.808991 257.725717 
L 92.096084 254.060803 
L 94.764359 253.040398 
L 96.003201 254.0981 
L 98.433237 255.312878 
L 100.672682 256.696262 
L 103.007422 258.03374 
L 105.532754 259.115551 
L 108.248676 259.883366 
L 111.107542 261.877929 
L 114.490534 263.552974 
L 116.872922 262.242532 
L 119.207662 262.479255 
L 123.067131 262.57296 
L 126.259532 261.851636 
L 129.737818 264.510465 
L 133.406696 263.87103 
L 136.980279 265.245103 
L 141.030339 263.603668 
L 145.556876 263.351645 
L 149.797528 265.513641 
L 154.6576 265.516891 
L 158.993546 265.614232 
L 163.996562 266.426364 
L 168.761338 266.811807 
L 173.907297 265.718116 
" clip-path="url(#pd24b7bbfb7)" style="fill: none; stroke-dasharray: 9.6,2.4,1.5,2.4; stroke-dashoffset: 0; stroke: #e69f00; stroke-width: 1.5"/>
   </g>
   <g id="line2d_16">
    <path d="M 44.926437 326.986375 
L 47.378656 207.626774 
L 50.976063 256.803543 
L 54.597293 267.227485 
L 58.194699 270.356914 
L 61.815929 269.322118 
L 65.413335 269.814389 
L 69.010742 269.401798 
L 72.631972 272.46257 
L 76.229378 274.383938 
L 79.850608 276.00281 
L 83.448015 277.636578 
L 87.045421 277.443069 
L 90.666651 278.16659 
L 94.264057 280.342456 
L 97.885287 276.664345 
L 101.482694 278.064028 
L 105.103924 277.817382 
L 108.70133 278.44868 
L 112.298736 280.275803 
L 115.919966 279.604019 
L 119.517373 281.648037 
L 123.138603 282.003109 
L 126.736009 280.955391 
L 130.333415 283.262812 
L 133.954646 282.568352 
L 137.552052 282.25668 
L 141.173282 283.233061 
L 144.770688 282.440086 
L 148.391918 282.560356 
L 151.989325 282.889434 
L 155.586731 284.549783 
L 159.207961 282.944813 
L 162.805367 283.215099 
L 166.426598 283.941497 
L 170.024004 282.903168 
L 173.62141 282.636979 
L 177.24264 282.617084 
L 180.840047 282.313861 
L 184.461277 282.938896 
L 188.058683 283.866493 
L 191.656089 283.03723 
L 195.277319 283.526324 
L 198.874726 283.01707 
L 202.495956 282.55454 
L 206.093362 282.939108 
L 209.714592 284.698547 
L 213.311998 284.135607 
L 216.909405 284.250624 
L 220.530635 284.49187 
L 224.128041 284.181537 
L 227.749271 282.711561 
L 231.346678 283.060268 
L 234.944084 282.940118 
L 238.565314 283.600084 
L 242.16272 283.754287 
L 245.78395 283.764667 
L 249.381357 284.472383 
L 253.002587 283.906489 
L 256.599993 284.718909 
L 260.197399 284.573501 
L 263.81863 284.181714 
L 267.416036 285.022211 
L 271.037266 285.768801 
L 274.634672 285.634892 
L 278.232079 286.183148 
L 281.853309 285.934193 
L 285.450715 286.454635 
L 289.071945 285.837836 
L 292.669351 285.843494 
L 296.266758 286.585502 
L 299.887988 286.70872 
L 303.485394 287.067535 
L 307.106624 287.793016 
L 310.704031 288.186813 
L 314.325261 288.030345 
L 317.922667 287.396432 
L 321.520073 287.244892 
L 325.141303 286.890095 
L 328.73871 286.690039 
L 332.35994 286.211221 
L 335.957346 285.747473 
L 339.554752 285.496355 
L 343.175982 285.745831 
L 346.773389 285.901643 
L 350.394619 286.18307 
L 353.992025 286.715559 
L 357.613255 286.561073 
L 361.210662 286.42067 
L 364.808068 286.291838 
L 368.429298 286.428868 
L 372.026704 285.966445 
L 375.647934 285.932512 
L 379.245341 285.766385 
L 382.842747 285.795385 
L 386.463977 285.721936 
L 390.061383 285.5364 
L 393.682614 285.46601 
L 397.28002 285.210083 
L 400.90125 285.250329 
" clip-path="url(#pd24b7bbfb7)" style="fill: none; stroke: #56b4e9; stroke-width: 1.5; stroke-linecap: square"/>
   </g>
   <g id="line2d_17">
    <path d="M 44.448319 298.251941 
L 44.829501 325.483456 
L 44.923441 326.986375 
M 45.922119 326.986375 
L 46.258934 310.204182 
L 46.640116 313.752048 
L 46.97365 313.834073 
L 47.354832 309.778477 
L 47.878958 300.908955 
L 48.117197 304.937993 
L 48.593674 315.857921 
L 49.213095 314.883343 
L 50.023107 306.924316 
L 50.690176 297.52293 
L 51.02371 290.893774 
L 51.88137 286.569561 
L 52.357848 292.759346 
L 53.215508 293.991941 
L 53.882576 289.905024 
L 54.692588 282.314045 
L 55.454952 279.469252 
L 56.598499 270.378098 
L 57.456159 267.428994 
L 58.361466 270.89831 
L 59.219126 272.961653 
L 60.076786 272.843669 
L 61.26798 265.163167 
L 62.220935 263.072373 
L 63.364481 266.167863 
L 64.555676 268.806076 
L 65.556279 272.252 
L 67.366894 268.161539 
L 69.034566 272.776933 
L 70.082816 273.866484 
L 71.464602 279.591723 
L 72.322261 279.715553 
L 73.370512 282.292334 
L 75.038184 281.933285 
L 76.467617 277.312799 
L 78.230584 276.122277 
L 79.850608 281.089048 
L 81.804167 279.755811 
L 83.900668 281.244312 
L 85.711283 281.43998 
L 87.569546 280.196254 
L 89.808991 280.526777 
L 92.096084 281.487054 
L 94.764359 280.715838 
L 96.003201 281.861216 
L 98.433237 281.77235 
L 100.672682 280.41483 
L 103.007422 281.471404 
L 105.532754 282.476462 
L 108.248676 284.695866 
L 111.107542 284.276563 
L 114.490534 284.906979 
L 116.872922 283.877215 
L 119.207662 284.134257 
L 123.067131 283.792937 
L 126.259532 284.969969 
L 129.737818 283.599868 
L 133.406696 284.200078 
L 136.980279 283.221896 
L 141.030339 283.800785 
L 145.556876 282.585641 
L 149.797528 281.193839 
L 154.6576 280.255805 
L 158.993546 279.479686 
L 163.996562 278.77081 
L 168.761338 278.6686 
L 173.907297 278.000736 
" clip-path="url(#pd24b7bbfb7)" style="fill: none; stroke-dasharray: 9.6,2.4,1.5,2.4; stroke-dashoffset: 0; stroke: #56b4e9; stroke-width: 1.5"/>
   </g>
   <g id="line2d_18">
    <path d="M 43.78125 275.704392 
L 47.378656 271.016517 
L 50.976063 307.907774 
L 54.597293 306.533843 
L 58.194699 305.378664 
L 61.815929 296.157586 
L 65.413335 293.242122 
L 69.010742 295.980808 
L 72.631972 290.537494 
L 76.229378 295.091896 
L 79.850608 296.798996 
L 83.448015 298.968353 
L 87.045421 299.651015 
L 90.666651 299.946607 
L 94.264057 302.748988 
L 97.885287 297.988557 
L 101.482694 297.667815 
L 105.103924 298.806031 
L 108.70133 295.278518 
L 112.298736 293.958307 
L 115.919966 291.673867 
L 119.517373 291.007645 
L 123.138603 291.071737 
L 126.736009 288.294966 
L 130.333415 289.884657 
L 133.954646 289.029499 
L 137.552052 289.799299 
L 141.173282 291.553616 
L 144.770688 290.52388 
L 148.391918 291.852917 
L 151.989325 292.792983 
L 155.586731 292.567178 
L 159.207961 291.966888 
L 162.805367 291.840751 
L 166.426598 292.491624 
L 170.024004 292.334687 
L 173.62141 291.506106 
L 177.24264 291.690003 
L 180.840047 290.5558 
L 184.461277 291.54144 
L 188.058683 292.156697 
L 191.656089 291.149264 
L 195.277319 292.784506 
L 198.874726 291.724604 
L 202.495956 291.478589 
L 206.093362 291.331979 
L 209.714592 291.320133 
L 213.311998 290.796734 
L 216.909405 289.878603 
L 220.530635 290.569366 
L 224.128041 290.334173 
L 227.749271 290.639282 
L 231.346678 289.890331 
L 234.944084 289.335296 
L 238.565314 290.036949 
L 242.16272 290.200063 
L 245.78395 290.230232 
L 249.381357 289.916224 
L 253.002587 290.804711 
L 256.599993 291.209159 
L 260.197399 291.292513 
L 263.81863 291.843311 
L 267.416036 292.552037 
L 271.037266 292.166505 
L 274.634672 292.510336 
L 278.232079 292.317532 
L 281.853309 292.217403 
L 285.450715 291.678499 
L 289.071945 290.937545 
L 292.669351 291.987445 
L 296.266758 291.91749 
L 299.887988 291.939651 
L 303.485394 292.520307 
L 307.106624 292.987562 
L 310.704031 292.841346 
L 314.325261 292.468459 
L 317.922667 292.898121 
L 321.520073 293.08245 
L 325.141303 292.492056 
L 328.73871 292.11422 
L 332.35994 291.694832 
L 335.957346 291.568785 
L 339.554752 291.227644 
L 343.175982 291.795966 
L 346.773389 292.074174 
L 350.394619 291.504393 
L 353.992025 291.717722 
L 357.613255 291.867434 
L 361.210662 291.368987 
L 364.808068 291.385323 
L 368.429298 291.778044 
L 372.026704 291.419842 
L 375.647934 291.099078 
L 379.245341 291.052891 
L 382.842747 290.487471 
L 386.463977 290.842215 
L 390.061383 291.081622 
L 393.682614 290.588869 
L 397.28002 290.70408 
L 400.90125 290.462947 
" clip-path="url(#pd24b7bbfb7)" style="fill: none; stroke: #009e73; stroke-width: 1.5; stroke-linecap: square"/>
   </g>
   <g id="line2d_19">
    <path d="M 44.448319 271.237442 
L 44.829501 245.415519 
L 45.163035 226.45713 
L 45.591865 250.114453 
L 46.258934 252.053813 
L 46.640116 256.528106 
L 46.97365 265.216073 
L 47.354832 251.303281 
L 47.878958 243.651591 
L 48.117197 241.123812 
L 48.593674 243.185488 
L 49.213095 266.926032 
L 50.023107 274.657062 
L 50.690176 262.423277 
L 51.02371 256.603188 
L 51.88137 256.018553 
L 52.357848 252.699706 
L 53.215508 248.886789 
L 53.882576 245.741808 
L 54.692588 248.90199 
L 55.454952 250.839351 
L 56.598499 251.093308 
L 57.456159 256.119869 
L 58.361466 253.106424 
L 59.219126 249.410672 
L 60.076786 247.446524 
L 61.26798 244.382778 
L 62.220935 240.308979 
L 63.364481 242.173992 
L 64.555676 244.55137 
L 65.556279 245.778762 
L 67.366894 249.33752 
L 69.034566 250.880895 
L 70.082816 251.599782 
L 71.464602 251.065055 
L 72.322261 251.237181 
L 73.370512 251.817323 
L 75.038184 253.41008 
L 76.467617 254.518512 
L 78.230584 254.279094 
L 79.850608 252.379256 
L 81.804167 252.759585 
L 83.900668 250.806967 
L 85.711283 255.677956 
L 87.569546 256.289356 
L 89.808991 255.027735 
L 92.096084 253.274262 
L 94.764359 253.049956 
L 96.003201 253.784053 
L 98.433237 254.626994 
L 100.672682 257.92004 
L 103.007422 259.347577 
L 105.532754 259.041879 
L 108.248676 260.389688 
L 111.107542 260.96776 
L 114.490534 260.058011 
L 116.872922 258.48435 
L 119.207662 257.829929 
L 123.067131 255.479375 
L 126.259532 256.647327 
L 129.737818 259.634709 
L 133.406696 258.636337 
L 136.980279 258.81755 
L 141.030339 258.265409 
L 145.556876 256.66116 
L 149.797528 258.36093 
L 154.6576 257.464088 
L 158.993546 258.654907 
L 163.996562 257.637963 
L 168.761338 259.331006 
L 173.907297 259.047451 
" clip-path="url(#pd24b7bbfb7)" style="fill: none; stroke-dasharray: 9.6,2.4,1.5,2.4; stroke-dashoffset: 0; stroke: #009e73; stroke-width: 1.5"/>
   </g>
   <g id="line2d_20">
    <path d="M 43.78125 288.080088 
L 47.378656 298.478787 
L 50.976063 281.631421 
L 54.597293 276.17661 
L 58.194699 273.904335 
L 61.815929 272.757166 
L 65.413335 269.714428 
L 69.010742 276.057592 
L 72.631972 275.865152 
L 76.229378 290.574583 
L 79.850608 287.850185 
L 83.448015 285.912232 
L 87.045421 292.633004 
L 90.666651 292.197978 
L 94.264057 293.891902 
L 97.885287 294.793277 
L 101.482694 295.028774 
L 105.103924 296.276299 
L 108.70133 294.310672 
L 112.298736 291.336386 
L 115.919966 287.814853 
L 119.517373 286.648003 
L 123.138603 285.06237 
L 126.736009 283.661481 
L 130.333415 284.022102 
L 133.954646 283.621188 
L 137.552052 285.383411 
L 141.173282 285.385635 
L 144.770688 283.132809 
L 148.391918 284.692996 
L 151.989325 284.90142 
L 155.586731 284.670372 
L 159.207961 285.866596 
L 162.805367 286.452854 
L 166.426598 286.543168 
L 170.024004 285.726508 
L 173.62141 285.176564 
L 177.24264 284.981121 
L 180.840047 283.81063 
L 184.461277 283.940111 
L 188.058683 285.754691 
L 191.656089 285.983292 
L 195.277319 285.989947 
L 198.874726 285.748144 
L 202.495956 285.667053 
L 206.093362 284.875942 
L 209.714592 285.350953 
L 213.311998 285.366597 
L 216.909405 284.623593 
L 220.530635 283.970165 
L 224.128041 283.232941 
L 227.749271 283.449796 
L 231.346678 282.803819 
L 234.944084 281.969677 
L 238.565314 282.908277 
L 242.16272 283.278118 
L 245.78395 283.872644 
L 249.381357 283.78367 
L 253.002587 283.819044 
L 256.599993 283.511066 
L 260.197399 283.781288 
L 263.81863 284.656682 
L 267.416036 285.460819 
L 271.037266 285.940723 
L 274.634672 287.372688 
L 278.232079 286.831779 
L 281.853309 287.258312 
L 285.450715 286.436356 
L 289.071945 285.857964 
L 292.669351 286.311727 
L 296.266758 286.258043 
L 299.887988 286.372385 
L 303.485394 287.001153 
L 307.106624 287.355 
L 310.704031 286.792014 
L 314.325261 286.784775 
L 317.922667 286.748749 
L 321.520073 286.814033 
L 325.141303 285.935966 
L 328.73871 285.885284 
L 332.35994 285.917041 
L 335.957346 285.944393 
L 339.554752 286.128272 
L 343.175982 286.637857 
L 346.773389 286.279897 
L 350.394619 286.184339 
L 353.992025 286.574198 
L 357.613255 286.354813 
L 361.210662 286.559111 
L 364.808068 286.159893 
L 368.429298 286.063314 
L 372.026704 285.982043 
L 375.647934 285.95317 
L 379.245341 286.138832 
L 382.842747 285.78458 
L 386.463977 285.911696 
L 390.061383 285.846761 
L 393.682614 286.139876 
L 397.28002 286.00899 
L 400.90125 286.085425 
" clip-path="url(#pd24b7bbfb7)" style="fill: none; stroke: #f0e442; stroke-width: 1.5; stroke-linecap: square"/>
   </g>
   <g id="line2d_21">
    <path d="M 44.448319 276.474574 
L 44.829501 295.883971 
L 45.163035 279.013899 
L 45.591865 303.567884 
L 46.258934 310.645789 
L 46.640116 303.882446 
L 46.97365 304.039066 
L 47.354832 292.802452 
L 47.878958 288.669243 
L 48.117197 295.091625 
L 48.593674 299.104898 
L 49.213095 305.197933 
L 50.023107 304.59503 
L 50.690176 294.743792 
L 51.02371 289.761742 
L 51.88137 286.93259 
L 52.357848 287.670798 
L 53.215508 287.72514 
L 53.882576 278.807429 
L 54.692588 273.575084 
L 55.454952 270.790312 
L 56.598499 266.095933 
L 57.456159 276.700976 
L 58.361466 277.604177 
L 59.219126 271.916615 
L 60.076786 273.148977 
L 61.26798 271.598539 
L 62.220935 272.742247 
L 63.364481 272.390794 
L 64.555676 275.285564 
L 65.556279 274.387626 
L 67.366894 280.246578 
L 69.034566 286.15382 
L 70.082816 284.485121 
L 71.464602 284.690841 
L 72.322261 284.346781 
L 73.370512 286.578636 
L 75.038184 288.435555 
L 76.467617 289.994286 
L 78.230584 286.429753 
L 79.850608 288.366474 
L 81.804167 287.023993 
L 83.900668 285.62905 
L 85.711283 286.420133 
L 87.569546 283.204261 
L 89.808991 285.006898 
L 92.096084 285.754445 
L 94.764359 283.497159 
L 96.003201 283.653054 
L 98.433237 283.113711 
L 100.672682 282.581376 
L 103.007422 282.043334 
L 105.532754 281.046032 
L 108.248676 278.369897 
L 111.107542 278.790254 
L 114.490534 278.352727 
L 116.872922 276.644143 
L 119.207662 276.897785 
L 123.067131 278.161937 
L 126.259532 280.518162 
L 129.737818 280.115585 
L 133.406696 280.331553 
L 136.980279 279.115368 
L 141.030339 278.872324 
L 145.556876 279.59705 
L 149.797528 277.347221 
L 154.6576 277.282057 
L 158.993546 278.13475 
L 163.996562 278.268195 
L 168.761338 279.506972 
L 173.907297 279.7358 
" clip-path="url(#pd24b7bbfb7)" style="fill: none; stroke-dasharray: 9.6,2.4,1.5,2.4; stroke-dashoffset: 0; stroke: #f0e442; stroke-width: 1.5"/>
   </g>
   <g id="line2d_22">
    <path d="M 44.063064 326.986375 
L 47.378656 213.013175 
L 50.976063 246.211372 
L 54.597293 266.808464 
L 58.194699 268.310101 
L 61.815929 263.486792 
L 65.413335 266.099634 
L 69.010742 271.684631 
L 72.631972 272.834558 
L 76.229378 276.415064 
L 79.850608 278.385784 
L 83.448015 279.128321 
L 87.045421 284.24683 
L 90.666651 281.31883 
L 94.264057 283.20068 
L 97.885287 280.84505 
L 101.482694 282.9268 
L 105.103924 282.29798 
L 108.70133 280.49489 
L 112.298736 277.848895 
L 115.919966 277.547631 
L 119.517373 279.460304 
L 123.138603 280.008377 
L 126.736009 278.986512 
L 130.333415 280.248392 
L 133.954646 279.095176 
L 137.552052 279.035296 
L 141.173282 278.570666 
L 144.770688 277.494982 
L 148.391918 278.320243 
L 151.989325 278.385832 
L 155.586731 278.039937 
L 159.207961 279.235631 
L 162.805367 279.284288 
L 166.426598 279.8618 
L 170.024004 281.758604 
L 173.62141 280.356614 
L 177.24264 281.316847 
L 180.840047 281.74109 
L 184.461277 283.046104 
L 188.058683 283.578989 
L 191.656089 283.463024 
L 195.277319 283.189205 
L 198.874726 283.797806 
L 202.495956 282.632693 
L 206.093362 282.100842 
L 209.714592 282.960579 
L 213.311998 283.032937 
L 216.909405 282.809488 
L 220.530635 282.773809 
L 224.128041 283.047647 
L 227.749271 283.343031 
L 231.346678 284.835497 
L 234.944084 285.272442 
L 238.565314 286.286089 
L 242.16272 285.429365 
L 245.78395 285.666063 
L 249.381357 284.826517 
L 253.002587 285.689307 
L 256.599993 285.737799 
L 260.197399 286.19577 
L 263.81863 287.122612 
L 267.416036 287.667719 
L 271.037266 287.656572 
L 274.634672 288.044463 
L 278.232079 287.929213 
L 281.853309 287.748498 
L 285.450715 287.580954 
L 289.071945 287.407605 
L 292.669351 287.448891 
L 296.266758 287.230681 
L 299.887988 286.877044 
L 303.485394 286.612574 
L 307.106624 287.160917 
L 310.704031 286.616411 
L 314.325261 287.31862 
L 317.922667 287.715304 
L 321.520073 288.423747 
L 325.141303 288.014028 
L 328.73871 287.856807 
L 332.35994 287.329078 
L 335.957346 286.791113 
L 339.554752 287.238294 
L 343.175982 287.811543 
L 346.773389 287.075265 
L 350.394619 287.269067 
L 353.992025 287.190861 
L 357.613255 287.000862 
L 361.210662 287.443034 
L 364.808068 287.528791 
L 368.429298 286.937991 
L 372.026704 286.495734 
L 375.647934 286.41203 
L 379.245341 286.654181 
L 382.842747 286.385904 
L 386.463977 286.090807 
L 390.061383 286.460665 
L 393.682614 286.810029 
L 397.28002 286.788866 
L 400.90125 286.670981 
" clip-path="url(#pd24b7bbfb7)" style="fill: none; stroke: #0072b2; stroke-width: 1.5; stroke-linecap: square"/>
   </g>
   <g id="line2d_23">
    <path d="M 44.448319 299.748507 
L 44.829501 266.71208 
L 45.163035 279.660761 
L 45.591865 309.929161 
L 46.258934 310.167522 
L 46.640116 317.542177 
L 46.97365 321.143073 
L 47.354832 305.122175 
L 47.878958 281.82012 
L 48.117197 285.783908 
L 48.593674 288.54467 
L 49.213095 286.441298 
L 50.023107 302.150482 
L 50.690176 303.944964 
L 51.02371 301.01783 
L 51.88137 296.782878 
L 52.357848 291.848648 
L 53.215508 290.900833 
L 53.882576 280.554519 
L 54.692588 283.250816 
L 55.454952 278.531519 
L 56.598499 274.608059 
L 57.456159 278.47794 
L 58.361466 281.651342 
L 59.219126 273.205772 
L 60.076786 278.831626 
L 61.26798 285.842573 
L 62.220935 285.868803 
L 63.364481 285.870313 
L 64.555676 289.707202 
L 65.556279 287.41647 
L 67.366894 291.286552 
L 69.034566 299.883201 
L 70.082816 298.89352 
L 71.464602 300.26187 
L 72.322261 297.813554 
L 73.370512 298.18733 
L 75.038184 297.746094 
L 76.467617 297.663762 
L 78.230584 291.754984 
L 79.850608 292.373635 
L 81.804167 292.175281 
L 83.900668 289.205733 
L 85.711283 292.311158 
L 87.569546 289.849777 
L 89.808991 292.855655 
L 92.096084 291.80013 
L 94.764359 288.344124 
L 96.003201 289.771504 
L 98.433237 288.736242 
L 100.672682 288.216233 
L 103.007422 287.280358 
L 105.532754 286.189256 
L 108.248676 284.866771 
L 111.107542 286.062527 
L 114.490534 285.419867 
L 116.872922 282.771987 
L 119.207662 281.826575 
L 123.067131 283.390365 
L 126.259532 284.258872 
L 129.737818 284.796287 
L 133.406696 285.878121 
L 136.980279 284.359721 
L 141.030339 284.978863 
L 145.556876 282.402429 
L 149.797528 281.052509 
L 154.6576 280.574589 
L 158.993546 281.397768 
L 163.996562 281.007841 
L 168.761338 280.208985 
L 173.907297 280.738592 
" clip-path="url(#pd24b7bbfb7)" style="fill: none; stroke-dasharray: 9.6,2.4,1.5,2.4; stroke-dashoffset: 0; stroke: #0072b2; stroke-width: 1.5"/>
   </g>
   <g id="patch_3">
    <path d="M 43.78125 288.430125 
L 43.78125 22.318125 
" style="fill: none; stroke: #000000; stroke-width: 0.8; stroke-linejoin: miter; stroke-linecap: square"/>
   </g>
   <g id="patch_4">
    <path d="M 400.90125 288.430125 
L 400.90125 22.318125 
" style="fill: none; stroke: #000000; stroke-width: 0.8; stroke-linejoin: miter; stroke-linecap: square"/>
   </g>
   <g id="patch_5">
    <path d="M 43.78125 288.430125 
L 400.90125 288.430125 
" style="fill: none; stroke: #000000; stroke-width: 0.8; stroke-linejoin: miter; stroke-linecap: square"/>
   </g>
   <g id="patch_6">
    <path d="M 43.78125 22.318125 
L 400.90125 22.318125 
" style="fill: none; stroke: #000000; stroke-width: 0.8; stroke-linejoin: miter; stroke-linecap: square"/>
   </g>
   <g id="text_16">
    <!-- Assortativity - Metagenomics -->
    <g transform="translate(134.89125 16.318125) scale(0.12 -0.12)">
     <defs>
      <path id="DejaVuSans-2d" d="M 313 2009 
L 1997 2009 
L 1997 1497 
L 313 1497 
L 313 2009 
z
" transform="scale(0.015625)"/>
      <path id="DejaVuSans-4d" d="M 628 4666 
L 1569 4666 
L 2759 1491 
L 3956 4666 
L 4897 4666 
L 4897 0 
L 4281 0 
L 4281 4097 
L 3078 897 
L 2444 897 
L 1241 4097 
L 1241 0 
L 628 0 
L 628 4666 
z
" transform="scale(0.015625)"/>
      <path id="DejaVuSans-6e" d="M 3513 2113 
L 3513 0 
L 2938 0 
L 2938 2094 
Q 2938 2591 2744 2837 
Q 2550 3084 2163 3084 
Q 1697 3084 1428 2787 
Q 1159 2491 1159 1978 
L 1159 0 
L 581 0 
L 581 3500 
L 1159 3500 
L 1159 2956 
Q 1366 3272 1645 3428 
Q 1925 3584 2291 3584 
Q 2894 3584 3203 3211 
Q 3513 2838 3513 2113 
z
" transform="scale(0.015625)"/>
      <path id="DejaVuSans-63" d="M 3122 3366 
L 3122 2828 
Q 2878 2963 2633 3030 
Q 2388 3097 2138 3097 
Q 1578 3097 1268 2742 
Q 959 2388 959 1747 
Q 959 1106 1268 751 
Q 1578 397 2138 397 
Q 2388 397 2633 464 
Q 2878 531 3122 666 
L 3122 134 
Q 2881 22 2623 -34 
Q 2366 -91 2075 -91 
Q 1284 -91 818 406 
Q 353 903 353 1747 
Q 353 2603 823 3093 
Q 1294 3584 2113 3584 
Q 2378 3584 2631 3529 
Q 2884 3475 3122 3366 
z
" transform="scale(0.015625)"/>
     </defs>
     <use xlink:href="#DejaVuSans-41"/>
     <use xlink:href="#DejaVuSans-73" x="68.408203"/>
     <use xlink:href="#DejaVuSans-73" x="120.507812"/>
     <use xlink:href="#DejaVuSans-6f" x="172.607422"/>
     <use xlink:href="#DejaVuSans-72" x="233.789062"/>
     <use xlink:href="#DejaVuSans-74" x="274.902344"/>
     <use xlink:href="#DejaVuSans-61" x="314.111328"/>
     <use xlink:href="#DejaVuSans-74" x="375.390625"/>
     <use xlink:href="#DejaVuSans-69" x="414.599609"/>
     <use xlink:href="#DejaVuSans-76" x="442.382812"/>
     <use xlink:href="#DejaVuSans-69" x="501.5625"/>
     <use xlink:href="#DejaVuSans-74" x="529.345703"/>
     <use xlink:href="#DejaVuSans-79" x="568.554688"/>
     <use xlink:href="#DejaVuSans-20" x="627.734375"/>
     <use xlink:href="#DejaVuSans-2d" x="659.521484"/>
     <use xlink:href="#DejaVuSans-20" x="695.605469"/>
     <use xlink:href="#DejaVuSans-4d" x="727.392578"/>
     <use xlink:href="#DejaVuSans-65" x="813.671875"/>
     <use xlink:href="#DejaVuSans-74" x="875.195312"/>
     <use xlink:href="#DejaVuSans-61" x="914.404297"/>
     <use xlink:href="#DejaVuSans-67" x="975.683594"/>
     <use xlink:href="#DejaVuSans-65" x="1039.160156"/>
     <use xlink:href="#DejaVuSans-6e" x="1100.683594"/>
     <use xlink:href="#DejaVuSans-6f" x="1164.0625"/>
     <use xlink:href="#DejaVuSans-6d" x="1225.244141"/>
     <use xlink:href="#DejaVuSans-69" x="1322.65625"/>
     <use xlink:href="#DejaVuSans-63" x="1350.439453"/>
     <use xlink:href="#DejaVuSans-73" x="1405.419922"/>
    </g>
   </g>
   <g id="legend_1">
    <g id="patch_7">
     <path d="M 324.759063 103.70875 
L 393.90125 103.70875 
Q 395.90125 103.70875 395.90125 101.70875 
L 395.90125 29.318125 
Q 395.90125 27.318125 393.90125 27.318125 
L 324.759063 27.318125 
Q 322.759063 27.318125 322.759063 29.318125 
L 322.759063 101.70875 
Q 322.759063 103.70875 324.759063 103.70875 
z
" style="fill: #ffffff; opacity: 0.8; stroke: #cccccc; stroke-linejoin: miter"/>
    </g>
    <g id="line2d_24">
     <path d="M 326.759063 35.416562 
L 336.759063 35.416562 
L 346.759063 35.416562 
" style="fill: none; stroke: #e69f00; stroke-width: 1.5; stroke-linecap: square"/>
    </g>
    <g id="text_17">
     <!-- Phylum -->
     <g transform="translate(354.759063 38.916562) scale(0.1 -0.1)">
      <defs>
       <path id="DejaVuSans-50" d="M 1259 4147 
L 1259 2394 
L 2053 2394 
Q 2494 2394 2734 2622 
Q 2975 2850 2975 3272 
Q 2975 3691 2734 3919 
Q 2494 4147 2053 4147 
L 1259 4147 
z
M 628 4666 
L 2053 4666 
Q 2838 4666 3239 4311 
Q 3641 3956 3641 3272 
Q 3641 2581 3239 2228 
Q 2838 1875 2053 1875 
L 1259 1875 
L 1259 0 
L 628 0 
L 628 4666 
z
" transform="scale(0.015625)"/>
       <path id="DejaVuSans-68" d="M 3513 2113 
L 3513 0 
L 2938 0 
L 2938 2094 
Q 2938 2591 2744 2837 
Q 2550 3084 2163 3084 
Q 1697 3084 1428 2787 
Q 1159 2491 1159 1978 
L 1159 0 
L 581 0 
L 581 4863 
L 1159 4863 
L 1159 2956 
Q 1366 3272 1645 3428 
Q 1925 3584 2291 3584 
Q 2894 3584 3203 3211 
Q 3513 2838 3513 2113 
z
" transform="scale(0.015625)"/>
       <path id="DejaVuSans-6c" d="M 603 4863 
L 1178 4863 
L 1178 0 
L 603 0 
L 603 4863 
z
" transform="scale(0.015625)"/>
      </defs>
      <use xlink:href="#DejaVuSans-50"/>
      <use xlink:href="#DejaVuSans-68" x="60.302734"/>
      <use xlink:href="#DejaVuSans-79" x="123.681641"/>
      <use xlink:href="#DejaVuSans-6c" x="182.861328"/>
      <use xlink:href="#DejaVuSans-75" x="210.644531"/>
      <use xlink:href="#DejaVuSans-6d" x="274.023438"/>
     </g>
    </g>
    <g id="line2d_25">
     <path d="M 326.759063 50.094688 
L 336.759063 50.094688 
L 346.759063 50.094688 
" style="fill: none; stroke: #56b4e9; stroke-width: 1.5; stroke-linecap: square"/>
    </g>
    <g id="text_18">
     <!-- Class -->
     <g transform="translate(354.759063 53.594688) scale(0.1 -0.1)">
      <defs>
       <path id="DejaVuSans-43" d="M 4122 4306 
L 4122 3641 
Q 3803 3938 3442 4084 
Q 3081 4231 2675 4231 
Q 1875 4231 1450 3742 
Q 1025 3253 1025 2328 
Q 1025 1406 1450 917 
Q 1875 428 2675 428 
Q 3081 428 3442 575 
Q 3803 722 4122 1019 
L 4122 359 
Q 3791 134 3420 21 
Q 3050 -91 2638 -91 
Q 1578 -91 968 557 
Q 359 1206 359 2328 
Q 359 3453 968 4101 
Q 1578 4750 2638 4750 
Q 3056 4750 3426 4639 
Q 3797 4528 4122 4306 
z
" transform="scale(0.015625)"/>
      </defs>
      <use xlink:href="#DejaVuSans-43"/>
      <use xlink:href="#DejaVuSans-6c" x="69.824219"/>
      <use xlink:href="#DejaVuSans-61" x="97.607422"/>
      <use xlink:href="#DejaVuSans-73" x="158.886719"/>
      <use xlink:href="#DejaVuSans-73" x="210.986328"/>
     </g>
    </g>
    <g id="line2d_26">
     <path d="M 326.759063 64.772812 
L 336.759063 64.772812 
L 346.759063 64.772812 
" style="fill: none; stroke: #009e73; stroke-width: 1.5; stroke-linecap: square"/>
    </g>
    <g id="text_19">
     <!-- Order -->
     <g transform="translate(354.759063 68.272812) scale(0.1 -0.1)">
      <defs>
       <path id="DejaVuSans-4f" d="M 2522 4238 
Q 1834 4238 1429 3725 
Q 1025 3213 1025 2328 
Q 1025 1447 1429 934 
Q 1834 422 2522 422 
Q 3209 422 3611 934 
Q 4013 1447 4013 2328 
Q 4013 3213 3611 3725 
Q 3209 4238 2522 4238 
z
M 2522 4750 
Q 3503 4750 4090 4092 
Q 4678 3434 4678 2328 
Q 4678 1225 4090 567 
Q 3503 -91 2522 -91 
Q 1538 -91 948 565 
Q 359 1222 359 2328 
Q 359 3434 948 4092 
Q 1538 4750 2522 4750 
z
" transform="scale(0.015625)"/>
      </defs>
      <use xlink:href="#DejaVuSans-4f"/>
      <use xlink:href="#DejaVuSans-72" x="78.710938"/>
      <use xlink:href="#DejaVuSans-64" x="118.074219"/>
      <use xlink:href="#DejaVuSans-65" x="181.550781"/>
      <use xlink:href="#DejaVuSans-72" x="243.074219"/>
     </g>
    </g>
    <g id="line2d_27">
     <path d="M 326.759063 79.450938 
L 336.759063 79.450938 
L 346.759063 79.450938 
" style="fill: none; stroke: #f0e442; stroke-width: 1.5; stroke-linecap: square"/>
    </g>
    <g id="text_20">
     <!-- Family -->
     <g transform="translate(354.759063 82.950938) scale(0.1 -0.1)">
      <defs>
       <path id="DejaVuSans-46" d="M 628 4666 
L 3309 4666 
L 3309 4134 
L 1259 4134 
L 1259 2759 
L 3109 2759 
L 3109 2228 
L 1259 2228 
L 1259 0 
L 628 0 
L 628 4666 
z
" transform="scale(0.015625)"/>
      </defs>
      <use xlink:href="#DejaVuSans-46"/>
      <use xlink:href="#DejaVuSans-61" x="48.394531"/>
      <use xlink:href="#DejaVuSans-6d" x="109.673828"/>
      <use xlink:href="#DejaVuSans-69" x="207.085938"/>
      <use xlink:href="#DejaVuSans-6c" x="234.869141"/>
      <use xlink:href="#DejaVuSans-79" x="262.652344"/>
     </g>
    </g>
    <g id="line2d_28">
     <path d="M 326.759063 94.129063 
L 336.759063 94.129063 
L 346.759063 94.129063 
" style="fill: none; stroke: #0072b2; stroke-width: 1.5; stroke-linecap: square"/>
    </g>
    <g id="text_21">
     <!-- Genus -->
     <g transform="translate(354.759063 97.629063) scale(0.1 -0.1)">
      <defs>
       <path id="DejaVuSans-47" d="M 3809 666 
L 3809 1919 
L 2778 1919 
L 2778 2438 
L 4434 2438 
L 4434 434 
Q 4069 175 3628 42 
Q 3188 -91 2688 -91 
Q 1594 -91 976 548 
Q 359 1188 359 2328 
Q 359 3472 976 4111 
Q 1594 4750 2688 4750 
Q 3144 4750 3555 4637 
Q 3966 4525 4313 4306 
L 4313 3634 
Q 3963 3931 3569 4081 
Q 3175 4231 2741 4231 
Q 1884 4231 1454 3753 
Q 1025 3275 1025 2328 
Q 1025 1384 1454 906 
Q 1884 428 2741 428 
Q 3075 428 3337 486 
Q 3600 544 3809 666 
z
" transform="scale(0.015625)"/>
      </defs>
      <use xlink:href="#DejaVuSans-47"/>
      <use xlink:href="#DejaVuSans-65" x="77.490234"/>
      <use xlink:href="#DejaVuSans-6e" x="139.013672"/>
      <use xlink:href="#DejaVuSans-75" x="202.392578"/>
      <use xlink:href="#DejaVuSans-73" x="265.771484"/>
     </g>
    </g>
   </g>
  </g>
 </g>
 <defs>
  <clipPath id="pd24b7bbfb7">
   <rect x="43.78125" y="22.318125" width="357.12" height="266.112"/>
  </clipPath>
 </defs>
</svg>
