<?xml version="1.0" encoding="utf-8" standalone="no"?>
<!DOCTYPE svg PUBLIC "-//W3C//DTD SVG 1.1//EN"
  "http://www.w3.org/Graphics/SVG/1.1/DTD/svg11.dtd">
<svg xmlns:xlink="http://www.w3.org/1999/xlink" width="408.10125pt" height="325.986375pt" viewBox="0 0 408.10125 325.986375" xmlns="http://www.w3.org/2000/svg" version="1.1">
 <metadata>
  <rdf:RDF xmlns:dc="http://purl.org/dc/elements/1.1/" xmlns:cc="http://creativecommons.org/ns#" xmlns:rdf="http://www.w3.org/1999/02/22-rdf-syntax-ns#">
   <cc:Work>
    <dc:type rdf:resource="http://purl.org/dc/dcmitype/StillImage"/>
    <dc:date>2023-10-14T20:49:50.185982</dc:date>
    <dc:format>image/svg+xml</dc:format>
    <dc:creator>
     <cc:Agent>
      <dc:title>Matplotlib v3.7.2, https://matplotlib.org/</dc:title>
     </cc:Agent>
    </dc:creator>
   </cc:Work>
  </rdf:RDF>
 </metadata>
 <defs>
  <style type="text/css">*{stroke-linejoin: round; stroke-linecap: butt}</style>
 </defs>
 <g id="figure_1">
  <g id="patch_1">
   <path d="M 0 325.986375 
L 408.10125 325.986375 
L 408.10125 0 
L 0 0 
z
" style="fill: #ffffff"/>
  </g>
  <g id="axes_1">
   <g id="patch_2">
    <path d="M 43.78125 288.430125 
L 400.90125 288.430125 
L 400.90125 22.318125 
L 43.78125 22.318125 
z
" style="fill: #ffffff"/>
   </g>
   <g id="matplotlib.axis_1">
    <g id="xtick_1">
     <g id="line2d_1">
      <defs>
       <path id="m5ec2d703c2" d="M 0 0 
L 0 3.5 
" style="stroke: #000000; stroke-width: 0.8"/>
      </defs>
      <g>
       <use xlink:href="#m5ec2d703c2" x="89.320042" y="288.430125" style="stroke: #000000; stroke-width: 0.8"/>
      </g>
     </g>
     <g id="text_1">
      <!-- 200 -->
      <g transform="translate(79.776292 303.028562) scale(0.1 -0.1)">
       <defs>
        <path id="DejaVuSans-32" d="M 1228 531 
L 3431 531 
L 3431 0 
L 469 0 
L 469 531 
Q 828 903 1448 1529 
Q 2069 2156 2228 2338 
Q 2531 2678 2651 2914 
Q 2772 3150 2772 3378 
Q 2772 3750 2511 3984 
Q 2250 4219 1831 4219 
Q 1534 4219 1204 4116 
Q 875 4013 500 3803 
L 500 4441 
Q 881 4594 1212 4672 
Q 1544 4750 1819 4750 
Q 2544 4750 2975 4387 
Q 3406 4025 3406 3419 
Q 3406 3131 3298 2873 
Q 3191 2616 2906 2266 
Q 2828 2175 2409 1742 
Q 1991 1309 1228 531 
z
" transform="scale(0.015625)"/>
        <path id="DejaVuSans-30" d="M 2034 4250 
Q 1547 4250 1301 3770 
Q 1056 3291 1056 2328 
Q 1056 1369 1301 889 
Q 1547 409 2034 409 
Q 2525 409 2770 889 
Q 3016 1369 3016 2328 
Q 3016 3291 2770 3770 
Q 2525 4250 2034 4250 
z
M 2034 4750 
Q 2819 4750 3233 4129 
Q 3647 3509 3647 2328 
Q 3647 1150 3233 529 
Q 2819 -91 2034 -91 
Q 1250 -91 836 529 
Q 422 1150 422 2328 
Q 422 3509 836 4129 
Q 1250 4750 2034 4750 
z
" transform="scale(0.015625)"/>
       </defs>
       <use xlink:href="#DejaVuSans-32"/>
       <use xlink:href="#DejaVuSans-30" x="63.623047"/>
       <use xlink:href="#DejaVuSans-30" x="127.246094"/>
      </g>
     </g>
    </g>
    <g id="xtick_2">
     <g id="line2d_2">
      <g>
       <use xlink:href="#m5ec2d703c2" x="137.255612" y="288.430125" style="stroke: #000000; stroke-width: 0.8"/>
      </g>
     </g>
     <g id="text_2">
      <!-- 400 -->
      <g transform="translate(127.711862 303.028562) scale(0.1 -0.1)">
       <defs>
        <path id="DejaVuSans-34" d="M 2419 4116 
L 825 1625 
L 2419 1625 
L 2419 4116 
z
M 2253 4666 
L 3047 4666 
L 3047 1625 
L 3713 1625 
L 3713 1100 
L 3047 1100 
L 3047 0 
L 2419 0 
L 2419 1100 
L 313 1100 
L 313 1709 
L 2253 4666 
z
" transform="scale(0.015625)"/>
       </defs>
       <use xlink:href="#DejaVuSans-34"/>
       <use xlink:href="#DejaVuSans-30" x="63.623047"/>
       <use xlink:href="#DejaVuSans-30" x="127.246094"/>
      </g>
     </g>
    </g>
    <g id="xtick_3">
     <g id="line2d_3">
      <g>
       <use xlink:href="#m5ec2d703c2" x="185.191183" y="288.430125" style="stroke: #000000; stroke-width: 0.8"/>
      </g>
     </g>
     <g id="text_3">
      <!-- 600 -->
      <g transform="translate(175.647433 303.028562) scale(0.1 -0.1)">
       <defs>
        <path id="DejaVuSans-36" d="M 2113 2584 
Q 1688 2584 1439 2293 
Q 1191 2003 1191 1497 
Q 1191 994 1439 701 
Q 1688 409 2113 409 
Q 2538 409 2786 701 
Q 3034 994 3034 1497 
Q 3034 2003 2786 2293 
Q 2538 2584 2113 2584 
z
M 3366 4563 
L 3366 3988 
Q 3128 4100 2886 4159 
Q 2644 4219 2406 4219 
Q 1781 4219 1451 3797 
Q 1122 3375 1075 2522 
Q 1259 2794 1537 2939 
Q 1816 3084 2150 3084 
Q 2853 3084 3261 2657 
Q 3669 2231 3669 1497 
Q 3669 778 3244 343 
Q 2819 -91 2113 -91 
Q 1303 -91 875 529 
Q 447 1150 447 2328 
Q 447 3434 972 4092 
Q 1497 4750 2381 4750 
Q 2619 4750 2861 4703 
Q 3103 4656 3366 4563 
z
" transform="scale(0.015625)"/>
       </defs>
       <use xlink:href="#DejaVuSans-36"/>
       <use xlink:href="#DejaVuSans-30" x="63.623047"/>
       <use xlink:href="#DejaVuSans-30" x="127.246094"/>
      </g>
     </g>
    </g>
    <g id="xtick_4">
     <g id="line2d_4">
      <g>
       <use xlink:href="#m5ec2d703c2" x="233.126753" y="288.430125" style="stroke: #000000; stroke-width: 0.8"/>
      </g>
     </g>
     <g id="text_4">
      <!-- 800 -->
      <g transform="translate(223.583003 303.028562) scale(0.1 -0.1)">
       <defs>
        <path id="DejaVuSans-38" d="M 2034 2216 
Q 1584 2216 1326 1975 
Q 1069 1734 1069 1313 
Q 1069 891 1326 650 
Q 1584 409 2034 409 
Q 2484 409 2743 651 
Q 3003 894 3003 1313 
Q 3003 1734 2745 1975 
Q 2488 2216 2034 2216 
z
M 1403 2484 
Q 997 2584 770 2862 
Q 544 3141 544 3541 
Q 544 4100 942 4425 
Q 1341 4750 2034 4750 
Q 2731 4750 3128 4425 
Q 3525 4100 3525 3541 
Q 3525 3141 3298 2862 
Q 3072 2584 2669 2484 
Q 3125 2378 3379 2068 
Q 3634 1759 3634 1313 
Q 3634 634 3220 271 
Q 2806 -91 2034 -91 
Q 1263 -91 848 271 
Q 434 634 434 1313 
Q 434 1759 690 2068 
Q 947 2378 1403 2484 
z
M 1172 3481 
Q 1172 3119 1398 2916 
Q 1625 2713 2034 2713 
Q 2441 2713 2670 2916 
Q 2900 3119 2900 3481 
Q 2900 3844 2670 4047 
Q 2441 4250 2034 4250 
Q 1625 4250 1398 4047 
Q 1172 3844 1172 3481 
z
" transform="scale(0.015625)"/>
       </defs>
       <use xlink:href="#DejaVuSans-38"/>
       <use xlink:href="#DejaVuSans-30" x="63.623047"/>
       <use xlink:href="#DejaVuSans-30" x="127.246094"/>
      </g>
     </g>
    </g>
    <g id="xtick_5">
     <g id="line2d_5">
      <g>
       <use xlink:href="#m5ec2d703c2" x="281.062324" y="288.430125" style="stroke: #000000; stroke-width: 0.8"/>
      </g>
     </g>
     <g id="text_5">
      <!-- 1000 -->
      <g transform="translate(268.337324 303.028562) scale(0.1 -0.1)">
       <defs>
        <path id="DejaVuSans-31" d="M 794 531 
L 1825 531 
L 1825 4091 
L 703 3866 
L 703 4441 
L 1819 4666 
L 2450 4666 
L 2450 531 
L 3481 531 
L 3481 0 
L 794 0 
L 794 531 
z
" transform="scale(0.015625)"/>
       </defs>
       <use xlink:href="#DejaVuSans-31"/>
       <use xlink:href="#DejaVuSans-30" x="63.623047"/>
       <use xlink:href="#DejaVuSans-30" x="127.246094"/>
       <use xlink:href="#DejaVuSans-30" x="190.869141"/>
      </g>
     </g>
    </g>
    <g id="xtick_6">
     <g id="line2d_6">
      <g>
       <use xlink:href="#m5ec2d703c2" x="328.997894" y="288.430125" style="stroke: #000000; stroke-width: 0.8"/>
      </g>
     </g>
     <g id="text_6">
      <!-- 1200 -->
      <g transform="translate(316.272894 303.028562) scale(0.1 -0.1)">
       <use xlink:href="#DejaVuSans-31"/>
       <use xlink:href="#DejaVuSans-32" x="63.623047"/>
       <use xlink:href="#DejaVuSans-30" x="127.246094"/>
       <use xlink:href="#DejaVuSans-30" x="190.869141"/>
      </g>
     </g>
    </g>
    <g id="xtick_7">
     <g id="line2d_7">
      <g>
       <use xlink:href="#m5ec2d703c2" x="376.933465" y="288.430125" style="stroke: #000000; stroke-width: 0.8"/>
      </g>
     </g>
     <g id="text_7">
      <!-- 1400 -->
      <g transform="translate(364.208465 303.028562) scale(0.1 -0.1)">
       <use xlink:href="#DejaVuSans-31"/>
       <use xlink:href="#DejaVuSans-34" x="63.623047"/>
       <use xlink:href="#DejaVuSans-30" x="127.246094"/>
       <use xlink:href="#DejaVuSans-30" x="190.869141"/>
      </g>
     </g>
    </g>
    <g id="text_8">
     <!-- Number of edges -->
     <g transform="translate(179.151406 316.706687) scale(0.1 -0.1)">
      <defs>
       <path id="DejaVuSans-4e" d="M 628 4666 
L 1478 4666 
L 3547 763 
L 3547 4666 
L 4159 4666 
L 4159 0 
L 3309 0 
L 1241 3903 
L 1241 0 
L 628 0 
L 628 4666 
z
" transform="scale(0.015625)"/>
       <path id="DejaVuSans-75" d="M 544 1381 
L 544 3500 
L 1119 3500 
L 1119 1403 
Q 1119 906 1312 657 
Q 1506 409 1894 409 
Q 2359 409 2629 706 
Q 2900 1003 2900 1516 
L 2900 3500 
L 3475 3500 
L 3475 0 
L 2900 0 
L 2900 538 
Q 2691 219 2414 64 
Q 2138 -91 1772 -91 
Q 1169 -91 856 284 
Q 544 659 544 1381 
z
M 1991 3584 
L 1991 3584 
z
" transform="scale(0.015625)"/>
       <path id="DejaVuSans-6d" d="M 3328 2828 
Q 3544 3216 3844 3400 
Q 4144 3584 4550 3584 
Q 5097 3584 5394 3201 
Q 5691 2819 5691 2113 
L 5691 0 
L 5113 0 
L 5113 2094 
Q 5113 2597 4934 2840 
Q 4756 3084 4391 3084 
Q 3944 3084 3684 2787 
Q 3425 2491 3425 1978 
L 3425 0 
L 2847 0 
L 2847 2094 
Q 2847 2600 2669 2842 
Q 2491 3084 2119 3084 
Q 1678 3084 1418 2786 
Q 1159 2488 1159 1978 
L 1159 0 
L 581 0 
L 581 3500 
L 1159 3500 
L 1159 2956 
Q 1356 3278 1631 3431 
Q 1906 3584 2284 3584 
Q 2666 3584 2933 3390 
Q 3200 3197 3328 2828 
z
" transform="scale(0.015625)"/>
       <path id="DejaVuSans-62" d="M 3116 1747 
Q 3116 2381 2855 2742 
Q 2594 3103 2138 3103 
Q 1681 3103 1420 2742 
Q 1159 2381 1159 1747 
Q 1159 1113 1420 752 
Q 1681 391 2138 391 
Q 2594 391 2855 752 
Q 3116 1113 3116 1747 
z
M 1159 2969 
Q 1341 3281 1617 3432 
Q 1894 3584 2278 3584 
Q 2916 3584 3314 3078 
Q 3713 2572 3713 1747 
Q 3713 922 3314 415 
Q 2916 -91 2278 -91 
Q 1894 -91 1617 61 
Q 1341 213 1159 525 
L 1159 0 
L 581 0 
L 581 4863 
L 1159 4863 
L 1159 2969 
z
" transform="scale(0.015625)"/>
       <path id="DejaVuSans-65" d="M 3597 1894 
L 3597 1613 
L 953 1613 
Q 991 1019 1311 708 
Q 1631 397 2203 397 
Q 2534 397 2845 478 
Q 3156 559 3463 722 
L 3463 178 
Q 3153 47 2828 -22 
Q 2503 -91 2169 -91 
Q 1331 -91 842 396 
Q 353 884 353 1716 
Q 353 2575 817 3079 
Q 1281 3584 2069 3584 
Q 2775 3584 3186 3129 
Q 3597 2675 3597 1894 
z
M 3022 2063 
Q 3016 2534 2758 2815 
Q 2500 3097 2075 3097 
Q 1594 3097 1305 2825 
Q 1016 2553 972 2059 
L 3022 2063 
z
" transform="scale(0.015625)"/>
       <path id="DejaVuSans-72" d="M 2631 2963 
Q 2534 3019 2420 3045 
Q 2306 3072 2169 3072 
Q 1681 3072 1420 2755 
Q 1159 2438 1159 1844 
L 1159 0 
L 581 0 
L 581 3500 
L 1159 3500 
L 1159 2956 
Q 1341 3275 1631 3429 
Q 1922 3584 2338 3584 
Q 2397 3584 2469 3576 
Q 2541 3569 2628 3553 
L 2631 2963 
z
" transform="scale(0.015625)"/>
       <path id="DejaVuSans-20" transform="scale(0.015625)"/>
       <path id="DejaVuSans-6f" d="M 1959 3097 
Q 1497 3097 1228 2736 
Q 959 2375 959 1747 
Q 959 1119 1226 758 
Q 1494 397 1959 397 
Q 2419 397 2687 759 
Q 2956 1122 2956 1747 
Q 2956 2369 2687 2733 
Q 2419 3097 1959 3097 
z
M 1959 3584 
Q 2709 3584 3137 3096 
Q 3566 2609 3566 1747 
Q 3566 888 3137 398 
Q 2709 -91 1959 -91 
Q 1206 -91 779 398 
Q 353 888 353 1747 
Q 353 2609 779 3096 
Q 1206 3584 1959 3584 
z
" transform="scale(0.015625)"/>
       <path id="DejaVuSans-66" d="M 2375 4863 
L 2375 4384 
L 1825 4384 
Q 1516 4384 1395 4259 
Q 1275 4134 1275 3809 
L 1275 3500 
L 2222 3500 
L 2222 3053 
L 1275 3053 
L 1275 0 
L 697 0 
L 697 3053 
L 147 3053 
L 147 3500 
L 697 3500 
L 697 3744 
Q 697 4328 969 4595 
Q 1241 4863 1831 4863 
L 2375 4863 
z
" transform="scale(0.015625)"/>
       <path id="DejaVuSans-64" d="M 2906 2969 
L 2906 4863 
L 3481 4863 
L 3481 0 
L 2906 0 
L 2906 525 
Q 2725 213 2448 61 
Q 2172 -91 1784 -91 
Q 1150 -91 751 415 
Q 353 922 353 1747 
Q 353 2572 751 3078 
Q 1150 3584 1784 3584 
Q 2172 3584 2448 3432 
Q 2725 3281 2906 2969 
z
M 947 1747 
Q 947 1113 1208 752 
Q 1469 391 1925 391 
Q 2381 391 2643 752 
Q 2906 1113 2906 1747 
Q 2906 2381 2643 2742 
Q 2381 3103 1925 3103 
Q 1469 3103 1208 2742 
Q 947 2381 947 1747 
z
" transform="scale(0.015625)"/>
       <path id="DejaVuSans-67" d="M 2906 1791 
Q 2906 2416 2648 2759 
Q 2391 3103 1925 3103 
Q 1463 3103 1205 2759 
Q 947 2416 947 1791 
Q 947 1169 1205 825 
Q 1463 481 1925 481 
Q 2391 481 2648 825 
Q 2906 1169 2906 1791 
z
M 3481 434 
Q 3481 -459 3084 -895 
Q 2688 -1331 1869 -1331 
Q 1566 -1331 1297 -1286 
Q 1028 -1241 775 -1147 
L 775 -588 
Q 1028 -725 1275 -790 
Q 1522 -856 1778 -856 
Q 2344 -856 2625 -561 
Q 2906 -266 2906 331 
L 2906 616 
Q 2728 306 2450 153 
Q 2172 0 1784 0 
Q 1141 0 747 490 
Q 353 981 353 1791 
Q 353 2603 747 3093 
Q 1141 3584 1784 3584 
Q 2172 3584 2450 3431 
Q 2728 3278 2906 2969 
L 2906 3500 
L 3481 3500 
L 3481 434 
z
" transform="scale(0.015625)"/>
       <path id="DejaVuSans-73" d="M 2834 3397 
L 2834 2853 
Q 2591 2978 2328 3040 
Q 2066 3103 1784 3103 
Q 1356 3103 1142 2972 
Q 928 2841 928 2578 
Q 928 2378 1081 2264 
Q 1234 2150 1697 2047 
L 1894 2003 
Q 2506 1872 2764 1633 
Q 3022 1394 3022 966 
Q 3022 478 2636 193 
Q 2250 -91 1575 -91 
Q 1294 -91 989 -36 
Q 684 19 347 128 
L 347 722 
Q 666 556 975 473 
Q 1284 391 1588 391 
Q 1994 391 2212 530 
Q 2431 669 2431 922 
Q 2431 1156 2273 1281 
Q 2116 1406 1581 1522 
L 1381 1569 
Q 847 1681 609 1914 
Q 372 2147 372 2553 
Q 372 3047 722 3315 
Q 1072 3584 1716 3584 
Q 2034 3584 2315 3537 
Q 2597 3491 2834 3397 
z
" transform="scale(0.015625)"/>
      </defs>
      <use xlink:href="#DejaVuSans-4e"/>
      <use xlink:href="#DejaVuSans-75" x="74.804688"/>
      <use xlink:href="#DejaVuSans-6d" x="138.183594"/>
      <use xlink:href="#DejaVuSans-62" x="235.595703"/>
      <use xlink:href="#DejaVuSans-65" x="299.072266"/>
      <use xlink:href="#DejaVuSans-72" x="360.595703"/>
      <use xlink:href="#DejaVuSans-20" x="401.708984"/>
      <use xlink:href="#DejaVuSans-6f" x="433.496094"/>
      <use xlink:href="#DejaVuSans-66" x="494.677734"/>
      <use xlink:href="#DejaVuSans-20" x="529.882812"/>
      <use xlink:href="#DejaVuSans-65" x="561.669922"/>
      <use xlink:href="#DejaVuSans-64" x="623.193359"/>
      <use xlink:href="#DejaVuSans-67" x="686.669922"/>
      <use xlink:href="#DejaVuSans-65" x="750.146484"/>
      <use xlink:href="#DejaVuSans-73" x="811.669922"/>
     </g>
    </g>
   </g>
   <g id="matplotlib.axis_2">
    <g id="ytick_1">
     <g id="line2d_8">
      <defs>
       <path id="m542928f36e" d="M 0 0 
L -3.5 0 
" style="stroke: #000000; stroke-width: 0.8"/>
      </defs>
      <g>
       <use xlink:href="#m542928f36e" x="43.78125" y="288.430125" style="stroke: #000000; stroke-width: 0.8"/>
      </g>
     </g>
     <g id="text_9">
      <!-- 0.0 -->
      <g transform="translate(20.878125 292.229344) scale(0.1 -0.1)">
       <defs>
        <path id="DejaVuSans-2e" d="M 684 794 
L 1344 794 
L 1344 0 
L 684 0 
L 684 794 
z
" transform="scale(0.015625)"/>
       </defs>
       <use xlink:href="#DejaVuSans-30"/>
       <use xlink:href="#DejaVuSans-2e" x="63.623047"/>
       <use xlink:href="#DejaVuSans-30" x="95.410156"/>
      </g>
     </g>
    </g>
    <g id="ytick_2">
     <g id="line2d_9">
      <g>
       <use xlink:href="#m542928f36e" x="43.78125" y="235.207725" style="stroke: #000000; stroke-width: 0.8"/>
      </g>
     </g>
     <g id="text_10">
      <!-- 0.2 -->
      <g transform="translate(20.878125 239.006944) scale(0.1 -0.1)">
       <use xlink:href="#DejaVuSans-30"/>
       <use xlink:href="#DejaVuSans-2e" x="63.623047"/>
       <use xlink:href="#DejaVuSans-32" x="95.410156"/>
      </g>
     </g>
    </g>
    <g id="ytick_3">
     <g id="line2d_10">
      <g>
       <use xlink:href="#m542928f36e" x="43.78125" y="181.985325" style="stroke: #000000; stroke-width: 0.8"/>
      </g>
     </g>
     <g id="text_11">
      <!-- 0.4 -->
      <g transform="translate(20.878125 185.784544) scale(0.1 -0.1)">
       <use xlink:href="#DejaVuSans-30"/>
       <use xlink:href="#DejaVuSans-2e" x="63.623047"/>
       <use xlink:href="#DejaVuSans-34" x="95.410156"/>
      </g>
     </g>
    </g>
    <g id="ytick_4">
     <g id="line2d_11">
      <g>
       <use xlink:href="#m542928f36e" x="43.78125" y="128.762925" style="stroke: #000000; stroke-width: 0.8"/>
      </g>
     </g>
     <g id="text_12">
      <!-- 0.6 -->
      <g transform="translate(20.878125 132.562144) scale(0.1 -0.1)">
       <use xlink:href="#DejaVuSans-30"/>
       <use xlink:href="#DejaVuSans-2e" x="63.623047"/>
       <use xlink:href="#DejaVuSans-36" x="95.410156"/>
      </g>
     </g>
    </g>
    <g id="ytick_5">
     <g id="line2d_12">
      <g>
       <use xlink:href="#m542928f36e" x="43.78125" y="75.540525" style="stroke: #000000; stroke-width: 0.8"/>
      </g>
     </g>
     <g id="text_13">
      <!-- 0.8 -->
      <g transform="translate(20.878125 79.339744) scale(0.1 -0.1)">
       <use xlink:href="#DejaVuSans-30"/>
       <use xlink:href="#DejaVuSans-2e" x="63.623047"/>
       <use xlink:href="#DejaVuSans-38" x="95.410156"/>
      </g>
     </g>
    </g>
    <g id="ytick_6">
     <g id="line2d_13">
      <g>
       <use xlink:href="#m542928f36e" x="43.78125" y="22.318125" style="stroke: #000000; stroke-width: 0.8"/>
      </g>
     </g>
     <g id="text_14">
      <!-- 1.0 -->
      <g transform="translate(20.878125 26.117344) scale(0.1 -0.1)">
       <use xlink:href="#DejaVuSans-31"/>
       <use xlink:href="#DejaVuSans-2e" x="63.623047"/>
       <use xlink:href="#DejaVuSans-30" x="95.410156"/>
      </g>
     </g>
    </g>
    <g id="text_15">
     <!-- Assortativity -->
     <g transform="translate(14.798438 186.760062) rotate(-90) scale(0.1 -0.1)">
      <defs>
       <path id="DejaVuSans-41" d="M 2188 4044 
L 1331 1722 
L 3047 1722 
L 2188 4044 
z
M 1831 4666 
L 2547 4666 
L 4325 0 
L 3669 0 
L 3244 1197 
L 1141 1197 
L 716 0 
L 50 0 
L 1831 4666 
z
" transform="scale(0.015625)"/>
       <path id="DejaVuSans-74" d="M 1172 4494 
L 1172 3500 
L 2356 3500 
L 2356 3053 
L 1172 3053 
L 1172 1153 
Q 1172 725 1289 603 
Q 1406 481 1766 481 
L 2356 481 
L 2356 0 
L 1766 0 
Q 1100 0 847 248 
Q 594 497 594 1153 
L 594 3053 
L 172 3053 
L 172 3500 
L 594 3500 
L 594 4494 
L 1172 4494 
z
" transform="scale(0.015625)"/>
       <path id="DejaVuSans-61" d="M 2194 1759 
Q 1497 1759 1228 1600 
Q 959 1441 959 1056 
Q 959 750 1161 570 
Q 1363 391 1709 391 
Q 2188 391 2477 730 
Q 2766 1069 2766 1631 
L 2766 1759 
L 2194 1759 
z
M 3341 1997 
L 3341 0 
L 2766 0 
L 2766 531 
Q 2569 213 2275 61 
Q 1981 -91 1556 -91 
Q 1019 -91 701 211 
Q 384 513 384 1019 
Q 384 1609 779 1909 
Q 1175 2209 1959 2209 
L 2766 2209 
L 2766 2266 
Q 2766 2663 2505 2880 
Q 2244 3097 1772 3097 
Q 1472 3097 1187 3025 
Q 903 2953 641 2809 
L 641 3341 
Q 956 3463 1253 3523 
Q 1550 3584 1831 3584 
Q 2591 3584 2966 3190 
Q 3341 2797 3341 1997 
z
" transform="scale(0.015625)"/>
       <path id="DejaVuSans-69" d="M 603 3500 
L 1178 3500 
L 1178 0 
L 603 0 
L 603 3500 
z
M 603 4863 
L 1178 4863 
L 1178 4134 
L 603 4134 
L 603 4863 
z
" transform="scale(0.015625)"/>
       <path id="DejaVuSans-76" d="M 191 3500 
L 800 3500 
L 1894 563 
L 2988 3500 
L 3597 3500 
L 2284 0 
L 1503 0 
L 191 3500 
z
" transform="scale(0.015625)"/>
       <path id="DejaVuSans-79" d="M 2059 -325 
Q 1816 -950 1584 -1140 
Q 1353 -1331 966 -1331 
L 506 -1331 
L 506 -850 
L 844 -850 
Q 1081 -850 1212 -737 
Q 1344 -625 1503 -206 
L 1606 56 
L 191 3500 
L 800 3500 
L 1894 763 
L 2988 3500 
L 3597 3500 
L 2059 -325 
z
" transform="scale(0.015625)"/>
      </defs>
      <use xlink:href="#DejaVuSans-41"/>
      <use xlink:href="#DejaVuSans-73" x="68.408203"/>
      <use xlink:href="#DejaVuSans-73" x="120.507812"/>
      <use xlink:href="#DejaVuSans-6f" x="172.607422"/>
      <use xlink:href="#DejaVuSans-72" x="233.789062"/>
      <use xlink:href="#DejaVuSans-74" x="274.902344"/>
      <use xlink:href="#DejaVuSans-61" x="314.111328"/>
      <use xlink:href="#DejaVuSans-74" x="375.390625"/>
      <use xlink:href="#DejaVuSans-69" x="414.599609"/>
      <use xlink:href="#DejaVuSans-76" x="442.382812"/>
      <use xlink:href="#DejaVuSans-69" x="501.5625"/>
      <use xlink:href="#DejaVuSans-74" x="529.345703"/>
      <use xlink:href="#DejaVuSans-79" x="568.554688"/>
     </g>
    </g>
   </g>
   <g id="line2d_14">
    <path d="M 43.78125 292.736144 
L 47.376418 295.121529 
L 50.971586 152.991826 
L 54.566753 158.929192 
L 58.161921 161.974273 
L 61.757089 185.603261 
L 65.352257 184.811659 
L 68.947424 210.3588 
L 72.542592 223.539279 
L 76.13776 242.621802 
L 79.732928 251.498923 
L 83.328096 252.115333 
L 86.923263 259.689584 
L 90.518431 257.631273 
L 94.113599 259.345291 
L 97.708767 259.60503 
L 101.303935 248.027435 
L 104.899102 248.336045 
L 108.49427 245.489536 
L 112.089438 249.583716 
L 115.924284 250.901658 
L 119.519451 248.166789 
L 123.114619 249.201697 
L 126.709787 250.398941 
L 130.304955 254.73501 
L 133.900122 253.865786 
L 137.49529 244.361419 
L 141.090458 248.184029 
L 144.685626 249.281818 
L 148.280794 246.823456 
L 151.875961 246.384467 
L 155.471129 245.615498 
L 159.066297 246.676532 
L 162.661465 242.355837 
L 166.256633 243.240077 
L 169.8518 245.676958 
L 173.446968 243.700004 
L 177.042136 242.750714 
L 180.637304 241.049001 
L 184.232471 239.640126 
L 188.067317 238.528105 
L 191.662485 239.901761 
L 195.257653 240.05839 
L 198.85282 236.999372 
L 202.447988 237.004361 
L 206.043156 240.553242 
L 209.638324 240.857019 
L 213.233492 242.564357 
L 216.828659 243.15344 
L 220.423827 241.911802 
L 224.018995 240.665165 
L 227.614163 238.438263 
L 231.209331 241.31309 
L 234.804498 243.858098 
L 238.399666 244.444141 
L 241.994834 245.18761 
L 245.590002 251.758438 
L 249.185169 251.507695 
L 252.780337 249.552644 
L 256.375505 243.787062 
L 260.210351 241.714428 
L 263.805518 241.126292 
L 267.400686 242.726087 
L 270.995854 242.255903 
L 274.591022 242.197846 
L 278.18619 242.386029 
L 281.781357 243.657333 
L 285.376525 243.673608 
L 288.971693 243.233948 
L 292.566861 244.651311 
L 296.162029 244.463001 
L 299.757196 243.932791 
L 303.352364 243.520118 
L 306.947532 242.966593 
L 310.5427 243.957031 
L 314.137867 242.926769 
L 317.733035 244.140861 
L 321.328203 244.320705 
L 324.923371 245.19766 
L 328.518539 246.943992 
L 332.353384 247.427 
L 335.948552 246.162395 
L 339.54372 248.651775 
L 343.138888 247.939343 
L 346.734055 249.53801 
L 350.329223 248.523046 
L 353.924391 247.321715 
L 357.519559 248.620965 
L 361.114727 246.816065 
L 364.709894 247.329485 
L 368.305062 247.644492 
L 371.90023 246.888433 
L 375.495398 247.985878 
L 379.090565 247.873634 
L 382.685733 250.151154 
L 386.280901 249.854644 
L 389.876069 250.852016 
L 393.471237 250.371903 
L 397.066404 250.651781 
L 400.90125 250.026785 
" clip-path="url(#pe1745e0ebf)" style="fill: none; stroke: #e69f00; stroke-width: 1.5; stroke-linecap: square"/>
   </g>
   <g id="line2d_15">
    <path d="M 50.49223 308.971697 
L 54.327076 299.006914 
L 57.682565 235.785565 
L 61.996767 231.56375 
L 68.707747 232.251961 
L 72.542592 240.03244 
L 75.898082 241.166603 
L 79.732928 232.137733 
L 85.005841 216.666557 
L 87.402619 209.846716 
L 92.196176 220.974376 
L 98.4278 227.86358 
L 106.576847 242.904662 
L 113.287827 241.994474 
L 116.643317 237.243488 
L 125.27172 243.281346 
L 130.065277 248.476893 
L 138.69368 249.896485 
L 145.404659 242.912013 
L 153.553706 241.122864 
L 161.223398 240.886355 
L 172.727935 240.798164 
L 181.356337 245.292429 
L 190.464096 248.520094 
L 199.092498 246.8352 
L 207.720901 243.831233 
L 219.704794 240.46732 
L 229.291908 235.088933 
L 240.796445 231.628931 
L 252.780337 234.277296 
L 262.846807 241.520092 
L 281.062324 245.211296 
L 297.839773 248.811435 
L 308.385599 249.461422 
L 322.286914 252.349449 
L 330.915317 251.298496 
L 341.461143 251.705746 
L 358.238592 253.882541 
L 372.619263 254.280586 
L 390.355424 255.317898 
L 406.653518 254.486123 
L 409.10125 254.473212 
" clip-path="url(#pe1745e0ebf)" style="fill: none; stroke-dasharray: 9.6,2.4,1.5,2.4; stroke-dashoffset: 0; stroke: #e69f00; stroke-width: 1.5"/>
   </g>
   <g id="line2d_16">
    <path d="M 43.78125 288.937972 
L 47.376418 318.256164 
L 50.971586 253.401175 
L 54.566753 201.920652 
L 58.161921 193.961181 
L 61.757089 217.877725 
L 65.352257 215.107077 
L 68.947424 258.009099 
L 72.542592 257.226605 
L 76.13776 258.074488 
L 79.732928 262.94546 
L 83.328096 265.883608 
L 86.923263 268.305377 
L 90.518431 270.749763 
L 94.113599 271.817004 
L 97.708767 284.475723 
L 101.303935 285.291072 
L 104.899102 289.06678 
L 108.49427 284.771131 
L 112.089438 285.411779 
L 115.924284 282.447665 
L 119.519451 284.470162 
L 123.114619 277.895843 
L 126.709787 278.927095 
L 130.304955 286.585827 
L 133.900122 281.519221 
L 137.49529 277.498168 
L 141.090458 277.394082 
L 144.685626 282.197962 
L 148.280794 280.864528 
L 151.875961 281.78817 
L 155.471129 279.845586 
L 159.066297 279.664073 
L 162.661465 277.835145 
L 166.256633 280.546535 
L 169.8518 279.061007 
L 173.446968 276.788649 
L 177.042136 277.70805 
L 180.637304 274.669868 
L 184.232471 271.91469 
L 188.067317 272.562786 
L 191.662485 271.237018 
L 195.257653 271.588443 
L 198.85282 269.42672 
L 202.447988 269.245843 
L 206.043156 268.312934 
L 209.638324 269.378226 
L 213.233492 272.253929 
L 216.828659 270.890666 
L 220.423827 266.395919 
L 224.018995 267.001876 
L 227.614163 265.695294 
L 231.209331 268.118297 
L 234.804498 269.380832 
L 238.399666 270.213643 
L 241.994834 268.87963 
L 245.590002 271.925947 
L 249.185169 269.332398 
L 252.780337 267.490341 
L 256.375505 265.776388 
L 260.210351 266.709837 
L 263.805518 266.675442 
L 267.400686 265.61461 
L 270.995854 264.263686 
L 274.591022 264.420965 
L 278.18619 263.625812 
L 281.781357 264.292873 
L 285.376525 264.302316 
L 288.971693 265.516408 
L 292.566861 266.936627 
L 296.162029 266.862913 
L 299.757196 267.442289 
L 303.352364 266.568088 
L 306.947532 265.700538 
L 310.5427 264.935532 
L 314.137867 265.17576 
L 317.733035 264.762925 
L 321.328203 264.654599 
L 324.923371 265.987736 
L 328.518539 265.084036 
L 332.353384 263.912259 
L 335.948552 261.924852 
L 339.54372 264.186396 
L 343.138888 262.928666 
L 346.734055 264.398228 
L 350.329223 264.581914 
L 353.924391 263.345769 
L 357.519559 264.931137 
L 361.114727 263.222265 
L 364.709894 264.201758 
L 368.305062 264.355508 
L 371.90023 263.293672 
L 375.495398 264.134313 
L 379.090565 263.781182 
L 382.685733 263.356132 
L 386.280901 263.495241 
L 389.876069 263.515911 
L 393.471237 264.521175 
L 397.066404 267.447848 
L 400.90125 267.141248 
" clip-path="url(#pe1745e0ebf)" style="fill: none; stroke: #56b4e9; stroke-width: 1.5; stroke-linecap: square"/>
   </g>
   <g id="line2d_17">
    <path d="M 50.49223 298.251941 
L 54.327076 325.483456 
L 55.272149 326.986375 
M 65.31925 326.986375 
L 68.707747 310.204182 
L 72.542592 313.752048 
L 75.898082 313.834073 
L 79.732928 309.778477 
L 85.005841 300.908955 
L 87.402619 304.937993 
L 92.196176 315.857921 
L 98.4278 314.883343 
L 106.576847 306.924316 
L 113.287827 297.52293 
L 116.643317 290.893774 
L 125.27172 286.569561 
L 130.065277 292.759346 
L 138.69368 293.991941 
L 145.404659 289.905024 
L 153.553706 282.314045 
L 161.223398 279.469252 
L 172.727935 270.378098 
L 181.356337 267.428994 
L 190.464096 270.89831 
L 199.092498 272.961653 
L 207.720901 272.843669 
L 219.704794 265.163167 
L 229.291908 263.072373 
L 240.796445 266.167863 
L 252.780337 268.806076 
L 262.846807 272.252 
L 281.062324 268.161539 
L 297.839773 272.776933 
L 308.385599 273.866484 
L 322.286914 279.591723 
L 330.915317 279.715553 
L 341.461143 282.292334 
L 358.238592 281.933285 
L 372.619263 277.312799 
L 390.355424 276.122277 
L 406.653518 281.089048 
L 409.10125 280.923002 
" clip-path="url(#pe1745e0ebf)" style="fill: none; stroke-dasharray: 9.6,2.4,1.5,2.4; stroke-dashoffset: 0; stroke: #56b4e9; stroke-width: 1.5"/>
   </g>
   <g id="line2d_18">
    <path d="M 43.78125 316.513059 
L 45.257812 326.986375 
M 48.439336 326.986375 
L 50.971586 291.185867 
L 54.566753 238.209574 
L 58.161921 274.269175 
L 61.757089 298.272725 
L 65.352257 304.209794 
L 68.947424 294.21712 
L 72.542592 287.826282 
L 76.13776 285.682033 
L 79.732928 278.042075 
L 83.328096 286.306458 
L 86.923263 286.708127 
L 90.518431 293.334219 
L 94.113599 293.926999 
L 97.708767 308.275184 
L 101.303935 308.149475 
L 104.899102 310.350904 
L 108.49427 301.014403 
L 112.089438 314.559548 
L 115.924284 313.588746 
L 119.519451 315.204291 
L 123.114619 309.345532 
L 126.709787 308.541698 
L 130.304955 306.582182 
L 133.900122 298.20545 
L 137.49529 297.816639 
L 141.090458 301.261816 
L 144.685626 302.111346 
L 148.280794 304.282805 
L 151.875961 305.373735 
L 155.471129 304.381348 
L 159.066297 302.765148 
L 162.661465 307.477782 
L 166.256633 309.179949 
L 169.8518 306.001142 
L 173.446968 299.128306 
L 177.042136 299.111953 
L 180.637304 294.238129 
L 184.232471 291.31268 
L 188.067317 293.484613 
L 191.662485 295.085908 
L 195.257653 296.287022 
L 198.85282 297.57974 
L 202.447988 294.969817 
L 206.043156 292.09594 
L 209.638324 292.672814 
L 213.233492 293.033092 
L 216.828659 293.717104 
L 220.423827 288.06997 
L 224.018995 289.762954 
L 227.614163 290.073557 
L 231.209331 292.879891 
L 234.804498 292.453562 
L 238.399666 294.321828 
L 241.994834 294.300865 
L 245.590002 294.3125 
L 249.185169 294.668161 
L 252.780337 289.80146 
L 256.375505 287.186889 
L 260.210351 285.926656 
L 263.805518 284.100811 
L 267.400686 281.79149 
L 270.995854 280.317387 
L 274.591022 280.241057 
L 278.18619 278.735322 
L 281.781357 278.257754 
L 285.376525 280.582724 
L 288.971693 280.580159 
L 292.566861 280.845272 
L 296.162029 281.707599 
L 299.757196 282.207831 
L 303.352364 280.638215 
L 306.947532 280.267261 
L 310.5427 278.679809 
L 314.137867 278.408188 
L 317.733035 277.919029 
L 321.328203 277.162869 
L 324.923371 278.678243 
L 328.518539 276.973967 
L 332.353384 275.73824 
L 335.948552 274.708752 
L 339.54372 277.535676 
L 343.138888 277.539022 
L 346.734055 279.023167 
L 350.329223 280.828942 
L 353.924391 279.03215 
L 357.519559 278.959725 
L 361.114727 277.425249 
L 364.709894 277.794802 
L 368.305062 278.556429 
L 371.90023 277.074069 
L 375.495398 278.136211 
L 379.090565 279.177144 
L 382.685733 278.65599 
L 386.280901 279.065505 
L 389.876069 277.587645 
L 393.471237 277.253756 
L 397.066404 277.496194 
L 400.90125 279.130203 
" clip-path="url(#pe1745e0ebf)" style="fill: none; stroke: #009e73; stroke-width: 1.5; stroke-linecap: square"/>
   </g>
   <g id="line2d_19">
    <path d="M 50.49223 271.237442 
L 54.327076 245.415519 
L 57.682565 226.45713 
L 61.996767 250.114453 
L 68.707747 252.053813 
L 72.542592 256.528106 
L 75.898082 265.216073 
L 79.732928 251.303281 
L 85.005841 243.651591 
L 87.402619 241.123812 
L 92.196176 243.185488 
L 98.4278 266.926032 
L 106.576847 274.657062 
L 113.287827 262.423277 
L 116.643317 256.603188 
L 125.27172 256.018553 
L 130.065277 252.699706 
L 138.69368 248.886789 
L 145.404659 245.741808 
L 153.553706 248.90199 
L 161.223398 250.839351 
L 172.727935 251.093308 
L 181.356337 256.119869 
L 190.464096 253.106424 
L 199.092498 249.410672 
L 207.720901 247.446524 
L 219.704794 244.382778 
L 229.291908 240.308979 
L 240.796445 242.173992 
L 252.780337 244.55137 
L 262.846807 245.778762 
L 281.062324 249.33752 
L 297.839773 250.880895 
L 308.385599 251.599782 
L 322.286914 251.065055 
L 330.915317 251.237181 
L 341.461143 251.817323 
L 358.238592 253.41008 
L 372.619263 254.518512 
L 390.355424 254.279094 
L 406.653518 252.379256 
L 409.10125 252.426624 
" clip-path="url(#pe1745e0ebf)" style="fill: none; stroke-dasharray: 9.6,2.4,1.5,2.4; stroke-dashoffset: 0; stroke: #009e73; stroke-width: 1.5"/>
   </g>
   <g id="line2d_20">
    <path d="M 46.543594 326.986375 
L 47.376418 314.694874 
L 48.616398 326.986375 
M 53.173997 326.986375 
L 54.566753 312.222758 
L 58.161921 289.15205 
L 61.757089 275.542413 
L 65.352257 280.352015 
L 68.947424 273.737639 
L 72.542592 272.60153 
L 76.13776 281.957775 
L 79.732928 275.847957 
L 83.328096 292.383115 
L 86.923263 297.385348 
L 90.518431 294.700606 
L 94.113599 300.072195 
L 97.708767 297.826152 
L 101.303935 292.433724 
L 104.899102 299.009973 
L 108.49427 294.039398 
L 112.089438 301.60903 
L 115.924284 305.4076 
L 119.519451 301.789842 
L 123.114619 300.729594 
L 126.709787 298.860234 
L 130.304955 303.230129 
L 133.900122 299.718369 
L 137.49529 302.063957 
L 141.090458 308.266721 
L 144.685626 311.060644 
L 148.280794 307.31288 
L 151.875961 307.655908 
L 155.471129 309.982997 
L 159.066297 310.374031 
L 162.661465 312.57264 
L 166.256633 312.080418 
L 169.8518 308.804999 
L 173.446968 303.532729 
L 177.042136 301.468787 
L 180.637304 297.639838 
L 184.232471 293.791638 
L 188.067317 292.065712 
L 191.662485 291.569311 
L 195.257653 292.90549 
L 198.85282 295.184284 
L 202.447988 293.188048 
L 206.043156 295.013587 
L 209.638324 293.781579 
L 213.233492 293.074513 
L 216.828659 295.034544 
L 220.423827 293.527404 
L 224.018995 295.076386 
L 227.614163 294.858541 
L 231.209331 298.167828 
L 234.804498 297.521864 
L 238.399666 298.456275 
L 241.994834 295.374021 
L 245.590002 295.854165 
L 249.185169 296.965045 
L 252.780337 293.495816 
L 256.375505 292.487959 
L 260.210351 291.92408 
L 263.805518 291.385066 
L 267.400686 289.705971 
L 270.995854 289.241588 
L 274.591022 292.507034 
L 278.18619 291.785251 
L 281.781357 291.048343 
L 285.376525 292.958828 
L 288.971693 291.389749 
L 292.566861 290.763286 
L 296.162029 288.353148 
L 299.757196 288.246999 
L 303.352364 287.777433 
L 306.947532 289.756565 
L 310.5427 289.35193 
L 314.137867 287.960209 
L 317.733035 288.204904 
L 321.328203 285.679183 
L 324.923371 287.658981 
L 328.518539 286.589931 
L 332.353384 285.592395 
L 335.948552 283.031833 
L 339.54372 283.463373 
L 343.138888 284.592799 
L 346.734055 283.134761 
L 350.329223 283.566403 
L 353.924391 283.014977 
L 357.519559 282.657348 
L 361.114727 282.801392 
L 364.709894 282.817492 
L 368.305062 283.715214 
L 371.90023 284.117275 
L 375.495398 284.934289 
L 379.090565 285.809426 
L 382.685733 285.728202 
L 386.280901 286.614118 
L 389.876069 286.905625 
L 393.471237 288.076454 
L 397.066404 287.327294 
L 400.90125 287.634902 
" clip-path="url(#pe1745e0ebf)" style="fill: none; stroke: #f0e442; stroke-width: 1.5; stroke-linecap: square"/>
   </g>
   <g id="line2d_21">
    <path d="M 50.49223 276.474574 
L 54.327076 295.883971 
L 57.682565 279.013899 
L 61.996767 303.567884 
L 68.707747 310.645789 
L 72.542592 303.882446 
L 75.898082 304.039066 
L 79.732928 292.802452 
L 85.005841 288.669243 
L 87.402619 295.091625 
L 92.196176 299.104898 
L 98.4278 305.197933 
L 106.576847 304.59503 
L 113.287827 294.743792 
L 116.643317 289.761742 
L 125.27172 286.93259 
L 130.065277 287.670798 
L 138.69368 287.72514 
L 145.404659 278.807429 
L 153.553706 273.575084 
L 161.223398 270.790312 
L 172.727935 266.095933 
L 181.356337 276.700976 
L 190.464096 277.604177 
L 199.092498 271.916615 
L 207.720901 273.148977 
L 219.704794 271.598539 
L 229.291908 272.742247 
L 240.796445 272.390794 
L 252.780337 275.285564 
L 262.846807 274.387626 
L 281.062324 280.246578 
L 297.839773 286.15382 
L 308.385599 284.485121 
L 322.286914 284.690841 
L 330.915317 284.346781 
L 341.461143 286.578636 
L 358.238592 288.435555 
L 372.619263 289.994286 
L 390.355424 286.429753 
L 406.653518 288.366474 
L 409.10125 288.199276 
" clip-path="url(#pe1745e0ebf)" style="fill: none; stroke-dasharray: 9.6,2.4,1.5,2.4; stroke-dashoffset: 0; stroke: #f0e442; stroke-width: 1.5"/>
   </g>
   <g id="line2d_22">
    <path d="M 60.480541 326.986375 
L 61.757089 314.457727 
L 63.693209 326.986375 
M 70.35555 326.986375 
L 72.542592 322.458329 
L 76.13776 324.624452 
L 79.732928 305.941573 
L 83.328096 304.092049 
L 86.923263 314.151494 
L 90.518431 318.088552 
L 94.113599 324.44822 
L 97.708767 314.485801 
L 101.303935 300.626603 
L 104.899102 295.297645 
L 108.49427 293.757539 
L 112.089438 292.676795 
L 115.924284 291.936729 
L 119.519451 290.2067 
L 123.114619 286.677841 
L 126.709787 283.865103 
L 130.304955 284.307206 
L 133.900122 283.857344 
L 137.49529 291.957557 
L 141.090458 285.633271 
L 144.685626 287.39525 
L 148.280794 288.536841 
L 151.875961 293.148658 
L 155.471129 294.289467 
L 159.066297 294.65347 
L 162.661465 294.419088 
L 166.256633 293.810401 
L 169.8518 290.150025 
L 173.446968 285.829558 
L 177.042136 282.765436 
L 180.637304 285.028206 
L 184.232471 283.661914 
L 188.067317 284.311958 
L 191.662485 286.514822 
L 195.257653 291.061825 
L 198.85282 294.690888 
L 202.447988 289.701911 
L 206.043156 286.455252 
L 209.638324 286.938619 
L 213.233492 288.610098 
L 216.828659 291.415403 
L 220.423827 289.669637 
L 224.018995 291.770357 
L 227.614163 287.865149 
L 231.209331 290.420724 
L 234.804498 292.236562 
L 238.399666 294.900248 
L 241.994834 295.248666 
L 245.590002 294.508219 
L 249.185169 294.813149 
L 252.780337 290.89667 
L 256.375505 293.643877 
L 260.210351 292.334735 
L 263.805518 292.398109 
L 267.400686 290.692418 
L 270.995854 292.00369 
L 274.591022 292.964156 
L 278.18619 293.033437 
L 281.781357 292.227278 
L 285.376525 292.057108 
L 288.971693 291.844231 
L 292.566861 292.698842 
L 296.162029 290.934751 
L 299.757196 291.878823 
L 303.352364 292.243816 
L 306.947532 295.629207 
L 310.5427 294.04653 
L 314.137867 291.457065 
L 317.733035 290.536529 
L 321.328203 288.866424 
L 324.923371 292.190697 
L 328.518539 291.932468 
L 332.353384 292.749062 
L 335.948552 291.750477 
L 339.54372 291.33662 
L 343.138888 291.207685 
L 346.734055 288.75812 
L 350.329223 289.106755 
L 353.924391 288.447699 
L 357.519559 288.378629 
L 361.114727 286.93036 
L 364.709894 286.855176 
L 368.305062 288.978232 
L 371.90023 287.136585 
L 375.495398 286.916819 
L 379.090565 285.455526 
L 382.685733 285.890225 
L 386.280901 287.258771 
L 389.876069 288.612494 
L 393.471237 290.150067 
L 397.066404 288.702232 
L 400.90125 287.337956 
" clip-path="url(#pe1745e0ebf)" style="fill: none; stroke: #0072b2; stroke-width: 1.5; stroke-linecap: square"/>
   </g>
   <g id="line2d_23">
    <path d="M 50.49223 299.748507 
L 54.327076 266.71208 
L 57.682565 279.660761 
L 61.996767 309.929161 
L 68.707747 310.167522 
L 72.542592 317.542177 
L 75.898082 321.143073 
L 79.732928 305.122175 
L 85.005841 281.82012 
L 87.402619 285.783908 
L 92.196176 288.54467 
L 98.4278 286.441298 
L 106.576847 302.150482 
L 113.287827 303.944964 
L 116.643317 301.01783 
L 125.27172 296.782878 
L 130.065277 291.848648 
L 138.69368 290.900833 
L 145.404659 280.554519 
L 153.553706 283.250816 
L 161.223398 278.531519 
L 172.727935 274.608059 
L 181.356337 278.47794 
L 190.464096 281.651342 
L 199.092498 273.205772 
L 207.720901 278.831626 
L 219.704794 285.842573 
L 229.291908 285.868803 
L 240.796445 285.870313 
L 252.780337 289.707202 
L 262.846807 287.41647 
L 281.062324 291.286552 
L 297.839773 299.883201 
L 308.385599 298.89352 
L 322.286914 300.26187 
L 330.915317 297.813554 
L 341.461143 298.18733 
L 358.238592 297.746094 
L 372.619263 297.663762 
L 390.355424 291.754984 
L 406.653518 292.373635 
L 409.10125 292.348931 
" clip-path="url(#pe1745e0ebf)" style="fill: none; stroke-dasharray: 9.6,2.4,1.5,2.4; stroke-dashoffset: 0; stroke: #0072b2; stroke-width: 1.5"/>
   </g>
   <g id="patch_3">
    <path d="M 43.78125 288.430125 
L 43.78125 22.318125 
" style="fill: none; stroke: #000000; stroke-width: 0.8; stroke-linejoin: miter; stroke-linecap: square"/>
   </g>
   <g id="patch_4">
    <path d="M 400.90125 288.430125 
L 400.90125 22.318125 
" style="fill: none; stroke: #000000; stroke-width: 0.8; stroke-linejoin: miter; stroke-linecap: square"/>
   </g>
   <g id="patch_5">
    <path d="M 43.78125 288.430125 
L 400.90125 288.430125 
" style="fill: none; stroke: #000000; stroke-width: 0.8; stroke-linejoin: miter; stroke-linecap: square"/>
   </g>
   <g id="patch_6">
    <path d="M 43.78125 22.318125 
L 400.90125 22.318125 
" style="fill: none; stroke: #000000; stroke-width: 0.8; stroke-linejoin: miter; stroke-linecap: square"/>
   </g>
   <g id="text_16">
    <!-- Assortativity - Metagenomics -->
    <g transform="translate(134.89125 16.318125) scale(0.12 -0.12)">
     <defs>
      <path id="DejaVuSans-2d" d="M 313 2009 
L 1997 2009 
L 1997 1497 
L 313 1497 
L 313 2009 
z
" transform="scale(0.015625)"/>
      <path id="DejaVuSans-4d" d="M 628 4666 
L 1569 4666 
L 2759 1491 
L 3956 4666 
L 4897 4666 
L 4897 0 
L 4281 0 
L 4281 4097 
L 3078 897 
L 2444 897 
L 1241 4097 
L 1241 0 
L 628 0 
L 628 4666 
z
" transform="scale(0.015625)"/>
      <path id="DejaVuSans-6e" d="M 3513 2113 
L 3513 0 
L 2938 0 
L 2938 2094 
Q 2938 2591 2744 2837 
Q 2550 3084 2163 3084 
Q 1697 3084 1428 2787 
Q 1159 2491 1159 1978 
L 1159 0 
L 581 0 
L 581 3500 
L 1159 3500 
L 1159 2956 
Q 1366 3272 1645 3428 
Q 1925 3584 2291 3584 
Q 2894 3584 3203 3211 
Q 3513 2838 3513 2113 
z
" transform="scale(0.015625)"/>
      <path id="DejaVuSans-63" d="M 3122 3366 
L 3122 2828 
Q 2878 2963 2633 3030 
Q 2388 3097 2138 3097 
Q 1578 3097 1268 2742 
Q 959 2388 959 1747 
Q 959 1106 1268 751 
Q 1578 397 2138 397 
Q 2388 397 2633 464 
Q 2878 531 3122 666 
L 3122 134 
Q 2881 22 2623 -34 
Q 2366 -91 2075 -91 
Q 1284 -91 818 406 
Q 353 903 353 1747 
Q 353 2603 823 3093 
Q 1294 3584 2113 3584 
Q 2378 3584 2631 3529 
Q 2884 3475 3122 3366 
z
" transform="scale(0.015625)"/>
     </defs>
     <use xlink:href="#DejaVuSans-41"/>
     <use xlink:href="#DejaVuSans-73" x="68.408203"/>
     <use xlink:href="#DejaVuSans-73" x="120.507812"/>
     <use xlink:href="#DejaVuSans-6f" x="172.607422"/>
     <use xlink:href="#DejaVuSans-72" x="233.789062"/>
     <use xlink:href="#DejaVuSans-74" x="274.902344"/>
     <use xlink:href="#DejaVuSans-61" x="314.111328"/>
     <use xlink:href="#DejaVuSans-74" x="375.390625"/>
     <use xlink:href="#DejaVuSans-69" x="414.599609"/>
     <use xlink:href="#DejaVuSans-76" x="442.382812"/>
     <use xlink:href="#DejaVuSans-69" x="501.5625"/>
     <use xlink:href="#DejaVuSans-74" x="529.345703"/>
     <use xlink:href="#DejaVuSans-79" x="568.554688"/>
     <use xlink:href="#DejaVuSans-20" x="627.734375"/>
     <use xlink:href="#DejaVuSans-2d" x="659.521484"/>
     <use xlink:href="#DejaVuSans-20" x="695.605469"/>
     <use xlink:href="#DejaVuSans-4d" x="727.392578"/>
     <use xlink:href="#DejaVuSans-65" x="813.671875"/>
     <use xlink:href="#DejaVuSans-74" x="875.195312"/>
     <use xlink:href="#DejaVuSans-61" x="914.404297"/>
     <use xlink:href="#DejaVuSans-67" x="975.683594"/>
     <use xlink:href="#DejaVuSans-65" x="1039.160156"/>
     <use xlink:href="#DejaVuSans-6e" x="1100.683594"/>
     <use xlink:href="#DejaVuSans-6f" x="1164.0625"/>
     <use xlink:href="#DejaVuSans-6d" x="1225.244141"/>
     <use xlink:href="#DejaVuSans-69" x="1322.65625"/>
     <use xlink:href="#DejaVuSans-63" x="1350.439453"/>
     <use xlink:href="#DejaVuSans-73" x="1405.419922"/>
    </g>
   </g>
   <g id="legend_1">
    <g id="patch_7">
     <path d="M 324.759063 103.70875 
L 393.90125 103.70875 
Q 395.90125 103.70875 395.90125 101.70875 
L 395.90125 29.318125 
Q 395.90125 27.318125 393.90125 27.318125 
L 324.759063 27.318125 
Q 322.759063 27.318125 322.759063 29.318125 
L 322.759063 101.70875 
Q 322.759063 103.70875 324.759063 103.70875 
z
" style="fill: #ffffff; opacity: 0.8; stroke: #cccccc; stroke-linejoin: miter"/>
    </g>
    <g id="line2d_24">
     <path d="M 326.759063 35.416562 
L 336.759063 35.416562 
L 346.759063 35.416562 
" style="fill: none; stroke: #e69f00; stroke-width: 1.5; stroke-linecap: square"/>
    </g>
    <g id="text_17">
     <!-- Phylum -->
     <g transform="translate(354.759063 38.916562) scale(0.1 -0.1)">
      <defs>
       <path id="DejaVuSans-50" d="M 1259 4147 
L 1259 2394 
L 2053 2394 
Q 2494 2394 2734 2622 
Q 2975 2850 2975 3272 
Q 2975 3691 2734 3919 
Q 2494 4147 2053 4147 
L 1259 4147 
z
M 628 4666 
L 2053 4666 
Q 2838 4666 3239 4311 
Q 3641 3956 3641 3272 
Q 3641 2581 3239 2228 
Q 2838 1875 2053 1875 
L 1259 1875 
L 1259 0 
L 628 0 
L 628 4666 
z
" transform="scale(0.015625)"/>
       <path id="DejaVuSans-68" d="M 3513 2113 
L 3513 0 
L 2938 0 
L 2938 2094 
Q 2938 2591 2744 2837 
Q 2550 3084 2163 3084 
Q 1697 3084 1428 2787 
Q 1159 2491 1159 1978 
L 1159 0 
L 581 0 
L 581 4863 
L 1159 4863 
L 1159 2956 
Q 1366 3272 1645 3428 
Q 1925 3584 2291 3584 
Q 2894 3584 3203 3211 
Q 3513 2838 3513 2113 
z
" transform="scale(0.015625)"/>
       <path id="DejaVuSans-6c" d="M 603 4863 
L 1178 4863 
L 1178 0 
L 603 0 
L 603 4863 
z
" transform="scale(0.015625)"/>
      </defs>
      <use xlink:href="#DejaVuSans-50"/>
      <use xlink:href="#DejaVuSans-68" x="60.302734"/>
      <use xlink:href="#DejaVuSans-79" x="123.681641"/>
      <use xlink:href="#DejaVuSans-6c" x="182.861328"/>
      <use xlink:href="#DejaVuSans-75" x="210.644531"/>
      <use xlink:href="#DejaVuSans-6d" x="274.023438"/>
     </g>
    </g>
    <g id="line2d_25">
     <path d="M 326.759063 50.094688 
L 336.759063 50.094688 
L 346.759063 50.094688 
" style="fill: none; stroke: #56b4e9; stroke-width: 1.5; stroke-linecap: square"/>
    </g>
    <g id="text_18">
     <!-- Class -->
     <g transform="translate(354.759063 53.594688) scale(0.1 -0.1)">
      <defs>
       <path id="DejaVuSans-43" d="M 4122 4306 
L 4122 3641 
Q 3803 3938 3442 4084 
Q 3081 4231 2675 4231 
Q 1875 4231 1450 3742 
Q 1025 3253 1025 2328 
Q 1025 1406 1450 917 
Q 1875 428 2675 428 
Q 3081 428 3442 575 
Q 3803 722 4122 1019 
L 4122 359 
Q 3791 134 3420 21 
Q 3050 -91 2638 -91 
Q 1578 -91 968 557 
Q 359 1206 359 2328 
Q 359 3453 968 4101 
Q 1578 4750 2638 4750 
Q 3056 4750 3426 4639 
Q 3797 4528 4122 4306 
z
" transform="scale(0.015625)"/>
      </defs>
      <use xlink:href="#DejaVuSans-43"/>
      <use xlink:href="#DejaVuSans-6c" x="69.824219"/>
      <use xlink:href="#DejaVuSans-61" x="97.607422"/>
      <use xlink:href="#DejaVuSans-73" x="158.886719"/>
      <use xlink:href="#DejaVuSans-73" x="210.986328"/>
     </g>
    </g>
    <g id="line2d_26">
     <path d="M 326.759063 64.772812 
L 336.759063 64.772812 
L 346.759063 64.772812 
" style="fill: none; stroke: #009e73; stroke-width: 1.5; stroke-linecap: square"/>
    </g>
    <g id="text_19">
     <!-- Order -->
     <g transform="translate(354.759063 68.272812) scale(0.1 -0.1)">
      <defs>
       <path id="DejaVuSans-4f" d="M 2522 4238 
Q 1834 4238 1429 3725 
Q 1025 3213 1025 2328 
Q 1025 1447 1429 934 
Q 1834 422 2522 422 
Q 3209 422 3611 934 
Q 4013 1447 4013 2328 
Q 4013 3213 3611 3725 
Q 3209 4238 2522 4238 
z
M 2522 4750 
Q 3503 4750 4090 4092 
Q 4678 3434 4678 2328 
Q 4678 1225 4090 567 
Q 3503 -91 2522 -91 
Q 1538 -91 948 565 
Q 359 1222 359 2328 
Q 359 3434 948 4092 
Q 1538 4750 2522 4750 
z
" transform="scale(0.015625)"/>
      </defs>
      <use xlink:href="#DejaVuSans-4f"/>
      <use xlink:href="#DejaVuSans-72" x="78.710938"/>
      <use xlink:href="#DejaVuSans-64" x="118.074219"/>
      <use xlink:href="#DejaVuSans-65" x="181.550781"/>
      <use xlink:href="#DejaVuSans-72" x="243.074219"/>
     </g>
    </g>
    <g id="line2d_27">
     <path d="M 326.759063 79.450938 
L 336.759063 79.450938 
L 346.759063 79.450938 
" style="fill: none; stroke: #f0e442; stroke-width: 1.5; stroke-linecap: square"/>
    </g>
    <g id="text_20">
     <!-- Family -->
     <g transform="translate(354.759063 82.950938) scale(0.1 -0.1)">
      <defs>
       <path id="DejaVuSans-46" d="M 628 4666 
L 3309 4666 
L 3309 4134 
L 1259 4134 
L 1259 2759 
L 3109 2759 
L 3109 2228 
L 1259 2228 
L 1259 0 
L 628 0 
L 628 4666 
z
" transform="scale(0.015625)"/>
      </defs>
      <use xlink:href="#DejaVuSans-46"/>
      <use xlink:href="#DejaVuSans-61" x="48.394531"/>
      <use xlink:href="#DejaVuSans-6d" x="109.673828"/>
      <use xlink:href="#DejaVuSans-69" x="207.085938"/>
      <use xlink:href="#DejaVuSans-6c" x="234.869141"/>
      <use xlink:href="#DejaVuSans-79" x="262.652344"/>
     </g>
    </g>
    <g id="line2d_28">
     <path d="M 326.759063 94.129063 
L 336.759063 94.129063 
L 346.759063 94.129063 
" style="fill: none; stroke: #0072b2; stroke-width: 1.5; stroke-linecap: square"/>
    </g>
    <g id="text_21">
     <!-- Genus -->
     <g transform="translate(354.759063 97.629063) scale(0.1 -0.1)">
      <defs>
       <path id="DejaVuSans-47" d="M 3809 666 
L 3809 1919 
L 2778 1919 
L 2778 2438 
L 4434 2438 
L 4434 434 
Q 4069 175 3628 42 
Q 3188 -91 2688 -91 
Q 1594 -91 976 548 
Q 359 1188 359 2328 
Q 359 3472 976 4111 
Q 1594 4750 2688 4750 
Q 3144 4750 3555 4637 
Q 3966 4525 4313 4306 
L 4313 3634 
Q 3963 3931 3569 4081 
Q 3175 4231 2741 4231 
Q 1884 4231 1454 3753 
Q 1025 3275 1025 2328 
Q 1025 1384 1454 906 
Q 1884 428 2741 428 
Q 3075 428 3337 486 
Q 3600 544 3809 666 
z
" transform="scale(0.015625)"/>
      </defs>
      <use xlink:href="#DejaVuSans-47"/>
      <use xlink:href="#DejaVuSans-65" x="77.490234"/>
      <use xlink:href="#DejaVuSans-6e" x="139.013672"/>
      <use xlink:href="#DejaVuSans-75" x="202.392578"/>
      <use xlink:href="#DejaVuSans-73" x="265.771484"/>
     </g>
    </g>
   </g>
  </g>
 </g>
 <defs>
  <clipPath id="pe1745e0ebf">
   <rect x="43.78125" y="22.318125" width="357.12" height="266.112"/>
  </clipPath>
 </defs>
</svg>
