<?xml version="1.0" encoding="utf-8" standalone="no"?>
<!DOCTYPE svg PUBLIC "-//W3C//DTD SVG 1.1//EN"
  "http://www.w3.org/Graphics/SVG/1.1/DTD/svg11.dtd">
<svg xmlns:xlink="http://www.w3.org/1999/xlink" width="720pt" height="720pt" viewBox="0 0 720 720" xmlns="http://www.w3.org/2000/svg" version="1.1">
 <metadata>
  <rdf:RDF xmlns:dc="http://purl.org/dc/elements/1.1/" xmlns:cc="http://creativecommons.org/ns#" xmlns:rdf="http://www.w3.org/1999/02/22-rdf-syntax-ns#">
   <cc:Work>
    <dc:type rdf:resource="http://purl.org/dc/dcmitype/StillImage"/>
    <dc:date>2023-05-11T19:38:35.900846</dc:date>
    <dc:format>image/svg+xml</dc:format>
    <dc:creator>
     <cc:Agent>
      <dc:title>Matplotlib v3.7.1, https://matplotlib.org/</dc:title>
     </cc:Agent>
    </dc:creator>
   </cc:Work>
  </rdf:RDF>
 </metadata>
 <defs>
  <style type="text/css">*{stroke-linejoin: round; stroke-linecap: butt}</style>
 </defs>
 <g id="figure_1">
  <g id="patch_1">
   <path d="M 0 720 
L 720 720 
L 720 0 
L 0 0 
z
" style="fill: #ffffff"/>
  </g>
  <g id="axes_1">
   <g id="patch_2">
    <path d="M 90 640.8 
L 648 640.8 
L 648 86.4 
L 90 86.4 
z
" style="fill: #ffffff"/>
   </g>
   <g id="patch_3">
    <path d="M 92.128555 86.4 
L 121.57907 86.4 
L 152.311538 86.4 
L 182.30805 86.4 
L 213.887119 86.4 
L 244.695817 86.4 
L 274.616099 86.4 
L 305.552882 86.4 
L 335.34508 86.4 
L 366.924149 86.4 
L 397.643637 86.4 
L 427.653129 86.4 
L 458.904101 86.4 
L 489.903825 86.4 
L 519.961179 86.4 
L 550.728236 86.4 
L 580.690159 86.4 
L 611.898918 85.781135 
L 638.167785 82.432487 
L 650.525393 81.470379 
L 651.94804 89.672074 
L 649.116 110.722128 
L 648 133.885917 
L 648 155.915189 
L 648 175.710511 
L 648 194.84394 
L 648 211.871674 
L 648 227.538666 
L 648 242.247822 
L 648 256.339144 
L 648 268.973839 
L 648 280.910156 
L 648 291.982884 
L 648 302.857278 
L 648 312.695284 
L 648 321.971685 
L 648 330.798992 
L 648 339.039582 
L 648 347.21226 
L 648 354.695708 
L 648 361.746307 
L 648 368.61227 
L 648 375.159821 
L 648 381.274926 
L 648 387.145196 
L 648 392.697685 
L 648 398.249027 
L 648 403.355252 
L 648 408.255256 
L 648 412.993265 
L 648 417.665765 
L 648 421.97684 
L 648 426.149852 
L 648 430.154088 
L 648 434.169333 
L 648 437.894684 
L 648 441.475933 
L 648 444.946631 
L 648 448.42322 
L 648 451.642799 
L 648 454.773268 
L 648 457.784266 
L 648 460.822842 
L 648 463.649637 
L 648 466.391442 
L 648 469.058876 
L 648 471.728541 
L 648 474.225396 
L 648 476.653705 
L 648 479.006527 
L 648 481.335432 
L 648 483.608572 
L 648 485.77017 
L 648 487.873125 
L 648 489.919791 
L 648 491.991008 
L 648 493.929951 
L 648 495.8184 
L 648 497.666198 
L 648 499.524697 
L 648 501.273153 
L 648 502.979037 
L 648 504.643367 
L 648 506.332333 
L 648 507.916847 
L 648 509.465317 
L 648 510.980057 
L 648 512.514051 
L 648 513.957412 
L 648 515.368751 
L 648 516.748842 
L 648 518.15238 
L 648 519.472307 
L 648 520.764127 
L 648 522.028727 
L 648 523.315952 
L 648 524.527628 
L 648 525.714565 
L 648 525.761539 
L 648 525.761539 
L 648 536.79389 
L 648 536.79389 
L 648 536.751421 
L 648 535.678313 
L 648 534.582839 
L 648 533.41906 
L 648 532.275737 
L 648 531.107805 
L 648 529.91446 
L 648 528.645524 
L 648 527.399633 
L 648 526.121796 
L 648 524.816855 
L 648 523.427859 
L 648 522.060499 
L 648 520.663588 
L 648 519.227972 
L 648 517.700981 
L 648 516.200813 
L 648 514.653975 
L 648 513.073198 
L 648 511.401302 
L 648 509.722341 
L 648 508.019933 
L 648 506.262001 
L 648 504.389417 
L 648 502.539029 
L 648 500.63775 
L 648 498.683452 
L 648 496.631279 
L 648 494.52275 
L 648 492.39372 
L 648 490.200136 
L 648 487.944122 
L 648 485.529231 
L 648 483.117469 
L 648 480.644886 
L 648 478.082906 
L 648 475.335734 
L 648 472.619313 
L 648 469.783242 
L 648 466.866811 
L 648 463.739747 
L 648 460.591393 
L 648 457.347482 
L 648 453.985506 
L 648 450.355329 
L 648 446.758695 
L 648 442.96229 
L 648 439.053454 
L 648 434.817724 
L 648 430.556625 
L 648 426.137829 
L 648 421.510009 
L 648 416.491048 
L 648 411.465706 
L 648 406.163748 
L 648 400.63509 
L 648 394.735607 
L 648 388.507951 
L 648 382.128239 
L 648 375.36774 
L 648 367.978833 
L 648 360.521136 
L 648 352.547772 
L 648 344.197604 
L 648 335.266463 
L 648 325.434938 
L 648 315.440274 
L 648 304.632494 
L 648 293.219482 
L 648 280.520041 
L 648 267.171012 
L 648 253.042261 
L 648 237.611756 
L 648 220.313251 
L 648 202.415919 
L 648 182.499694 
L 646.512 160.896299 
L 638.810629 135.475193 
L 618.351089 110.733621 
L 590.914343 93.680873 
L 561.918356 87.225153 
L 533.232743 86.4 
L 506.011563 86.4 
L 478.377206 86.4 
L 451.110524 86.4 
L 423.29048 86.4 
L 394.996789 86.4 
L 367.685811 86.4 
L 340.141251 86.4 
L 311.616372 86.4 
L 284.547832 86.4 
L 256.760834 86.4 
L 229.588387 86.4 
L 201.905297 86.4 
L 173.380417 86.4 
L 146.360774 86.4 
L 118.52488 86.4 
L 91.012868 86.4 
z
" clip-path="url(#pd984e113c5)" style="fill: #537fbf; opacity: 0.2; stroke: #537fbf; stroke-linejoin: miter"/>
   </g>
   <g id="patch_4">
    <path d="M 648 500.818848 
L 648 498.505118 
L 648 495.920393 
L 648 492.762076 
L 648 489.537705 
L 648 485.365176 
L 648 480.176422 
L 648 475.154573 
L 648 468.976719 
L 648 462.132992 
L 648 454.283336 
L 648 445.598409 
L 648 436.268219 
L 648 424.185759 
L 648 410.747515 
L 648 394.466419 
L 648 376.921386 
L 648 356.857889 
L 648 334.26399 
L 648 309.304789 
L 648 282.341306 
L 648 254.561358 
L 648 228.301771 
L 648 201.280206 
L 648 175.836402 
L 648 152.562148 
L 648 132.068631 
L 648 117.340114 
L 648 106.92206 
L 648 98.050422 
L 648 93.300945 
L 648.257538 89.388235 
L 648.257538 87.782641 
L 648.257538 86.48381 
L 648.89618 86.172251 
L 649.057734 85.913859 
L 648.243216 85.922002 
L 644.454456 86.4 
L 629.307156 86.4 
L 588.178297 86.4 
L 508.678593 86.4 
L 382.881694 86.4 
L 241.374455 86.4 
L 140.622145 86.4 
L 101.464455 86.4 
L 90.927785 86.4 
L 90 86.4 
L 90 86.4 
L 90 86.4 
L 90 86.4 
L 90 86.4 
L 90 86.4 
L 90 86.4 
L 90 86.4 
L 90 86.4 
L 90 86.4 
L 90 86.4 
L 90 86.4 
L 90 86.4 
L 90 86.4 
L 90 86.4 
L 90 86.4 
L 90 86.4 
L 90 86.4 
L 90 86.4 
L 90 86.4 
L 90 86.4 
L 90 86.4 
L 90 86.4 
L 90 86.4 
L 90 86.4 
L 90 86.4 
L 90 86.4 
L 90 86.4 
L 90 86.4 
L 90 86.4 
L 90 86.4 
L 90 86.4 
L 90 86.4 
L 90 86.4 
L 90 86.4 
L 90 86.4 
L 90 86.4 
L 90 86.4 
L 90 86.4 
L 90 86.4 
L 90 86.4 
L 90 86.4 
L 90 86.4 
L 90 86.4 
L 90 86.4 
L 90 86.4 
L 90 86.4 
L 90 86.4 
L 90 86.4 
L 90 86.4 
L 90 86.4 
L 90 86.4 
L 90 86.4 
L 90 86.4 
L 90 86.4 
L 90 86.4 
L 90 86.4 
L 90 86.4 
L 90 86.4 
L 90 86.4 
L 90 86.4 
L 90 86.4 
L 90 86.4 
L 90 86.4 
L 90 86.4 
L 90 86.4 
L 90 86.4 
L 90 86.4 
L 90 86.4 
L 90 86.4 
L 90 86.4 
L 90 86.4 
L 90 86.4 
L 90 86.4 
L 90 86.4 
L 90 86.4 
L 90 86.4 
L 90 86.4 
L 90 86.4 
L 90 86.4 
L 90 86.4 
L 90 86.4 
L 90 86.4 
L 90 86.4 
L 90 86.4 
L 90 86.4 
L 90 86.4 
L 90 86.4 
L 90 86.4 
L 90 86.4 
L 90 86.4 
L 90 86.4 
L 90 86.4 
L 90 86.4 
L 90 86.4 
L 90 86.4 
L 90 86.4 
L 90 86.4 
L 90 86.4 
L 90 86.4 
L 90 86.4 
L 90 86.4 
L 90 86.4 
L 90 86.4 
L 90 86.4 
L 90 86.4 
L 90 86.4 
L 90 86.4 
L 89.535978 86.4 
L 87.516101 86.4 
L 89.672263 86.4 
L 117.725684 86.4 
L 203.090618 86.4 
L 335.426033 86.4 
L 466.827532 86.4 
L 558.270268 86.4 
L 605.815306 86.4 
L 631.988385 87.523544 
L 642.255984 88.051896 
L 646.056669 88.854597 
L 647.656615 90.755015 
L 647.656615 92.637538 
L 647.656615 96.912401 
L 648 102.071098 
L 648 109.05384 
L 648 121.053505 
L 648 134.45763 
L 648 154.770179 
L 648 175.739027 
L 648 203.324919 
L 648 230.941353 
L 648 261.561736 
L 648 289.154613 
L 648 316.379638 
L 648 341.055054 
L 648 364.554332 
L 648 387.050659 
L 648 405.829729 
L 648 422.17926 
L 648 436.093854 
L 648 447.413858 
L 648 457.29349 
L 648 466.519441 
L 648 474.597514 
L 648 481.408972 
L 648 487.402854 
L 648 492.707514 
L 648 497.009188 
L 648 500.999147 
L 648 504.661592 
L 648 507.741973 
L 648 510.570748 
L 648 512.994387 
L 648 515.072947 
z
" clip-path="url(#pd984e113c5)" style="fill: #ff800e; opacity: 0.2; stroke-dasharray: 3.7,1.6; stroke-dashoffset: 0; stroke: #ff800e; stroke-linejoin: miter"/>
   </g>
   <g id="patch_5">
    <path d="M 98.52371 473.356006 
L 104.591832 498.560851 
L 109.993241 509.171281 
L 117.993066 504.01298 
L 123.969621 506.668516 
L 128.939373 512.826239 
L 136.136007 509.825089 
L 141.220632 516.013835 
L 145.971491 518.511016 
L 154.053912 513.733629 
L 159.713075 515.269021 
L 164.915392 516.70339 
L 170.142462 518.643398 
L 179.04009 514.971505 
L 181.189626 521.904006 
L 189.405327 517.982136 
L 193.373437 520.356448 
L 200.816206 518.959888 
L 206.505342 518.918641 
L 213.929166 518.45301 
L 219.08878 519.562215 
L 223.885335 520.460409 
L 232.34983 517.153865 
L 235.668236 519.777728 
L 242.151057 519.004382 
L 248.926852 518.981785 
L 253.097546 519.857066 
L 259.713709 521.03934 
L 265.298487 521.054967 
L 269.863684 521.679568 
L 276.706892 521.577961 
L 284.364486 520.957417 
L 291.004904 520.412081 
L 293.788545 522.053388 
L 301.059238 520.009461 
L 304.590733 521.033134 
L 309.400818 522.693638 
L 317.047274 522.642535 
L 323.066506 522.891766 
L 327.816632 522.42178 
L 330.555521 524.107102 
L 341.424058 521.526374 
L 343.989246 523.355672 
L 345.376556 524.029624 
L 354.424361 523.30935 
L 360.230584 523.809209 
L 366.890963 522.740885 
L 376.08624 521.185683 
L 379.528916 523.121586 
L 384.97189 522.292118 
L 392.339724 522.277405 
L 393.183904 523.87735 
L 402.753933 524.07718 
L 404.74788 523.84275 
L 412.158118 522.951752 
L 420.943166 522.274797 
L 424.967035 524.39291 
L 436.357594 522.329322 
L 439.404094 522.865842 
L 443.992739 522.616055 
L 443.950256 524.814239 
L 451.077543 523.267169 
L 457.708138 523.708637 
L 464.474067 522.590857 
L 468.335843 524.252666 
L 476.991202 523.714998 
L 481.316126 523.525074 
L 487.219073 523.925744 
L 494.233142 523.157419 
L 495.803713 524.262076 
L 504.39182 523.818812 
L 510.96027 523.361726 
L 512.601838 524.218616 
L 521.324707 523.790105 
L 524.440902 524.70362 
L 532.6037 523.754287 
L 535.975985 523.585091 
L 542.611471 523.493827 
L 549.239474 523.38695 
L 553.163089 524.144073 
L 559.542138 524.076256 
L 566.420762 523.628001 
L 571.064537 523.693874 
L 577.252506 523.899459 
L 581.645033 524.176979 
L 587.450762 523.832626 
L 593.412691 523.727531 
L 599.202828 523.75037 
L 602.356835 524.330449 
L 609.809426 523.729916 
L 614.804608 523.696464 
L 619.170957 523.941532 
L 624.729886 524.045911 
L 629.328228 524.277469 
L 635.847007 523.704798 
L 640.355617 524.371028 
L 644.126206 524.194549 
L 648 524.133937 
L 648 524.133937 
L 648 524.133937 
L 648 535.271594 
L 648 535.271594 
L 648 535.271594 
L 639.97314 535.31624 
L 633.341788 534.970012 
L 627.122638 535.444245 
L 619.985869 535.373799 
L 615.360259 535.155038 
L 608.560239 535.445306 
L 603.792698 535.207758 
L 597.171596 535.223044 
L 589.663136 535.41985 
L 585.358934 535.12195 
L 578.133224 535.490521 
L 573.440056 535.233792 
L 564.974128 535.558663 
L 562.20463 534.873981 
L 553.487153 535.846884 
L 549.596883 535.260054 
L 541.315617 535.71994 
L 537.034088 535.485255 
L 532.175985 535.56601 
L 529.246333 535.015613 
L 520.085589 535.989949 
L 511.429653 536.027356 
L 505.015826 535.952456 
L 499.999312 535.98996 
L 493.113701 536.66639 
L 488.792364 536.084034 
L 484.519013 535.521447 
L 477.27285 536.287556 
L 472.938713 535.846964 
L 467.975395 535.301154 
L 461.099592 536.050137 
L 453.25963 536.125002 
L 448.442034 536.215085 
L 444.542511 536.667023 
L 438.810455 535.990563 
L 433.46932 536.558524 
L 427.759713 535.607427 
L 422.493925 535.745545 
L 415.90651 535.4707 
L 408.191154 535.78248 
L 402.67748 535.633835 
L 396.306002 537.232563 
L 392.785152 536.888248 
L 383.751194 537.853464 
L 381.217699 535.310932 
L 371.656383 538.231425 
L 368.835724 536.953842 
L 361.943252 537.973661 
L 355.404936 537.51494 
L 356.838915 535.605117 
L 346.499497 537.382213 
L 340.16811 537.091383 
L 331.808499 538.738394 
L 324.333727 540.265736 
L 324.052633 536.835019 
L 317.697049 537.468826 
L 309.086525 538.783451 
L 308.814237 536.464652 
L 300.574118 536.88 
L 297.831283 535.773533 
L 290.792131 537.338155 
L 282.075673 539.964946 
L 279.769011 538.005771 
L 272.495835 537.917059 
L 270.958047 535.422799 
L 265.026073 535.528463 
L 251.965509 540.579789 
L 247.990319 540.141488 
L 245.560806 537.959168 
L 242.805454 535.91778 
L 233.197049 540.212907 
L 228.086735 539.595889 
L 223.475645 539.487317 
L 218.535784 538.805632 
L 212.970115 539.176542 
L 205.420377 540.024711 
L 202.061399 538.039065 
L 193.444543 541.342638 
L 188.267382 541.995144 
L 183.051206 541.619312 
L 177.242675 542.405566 
L 171.26129 543.243864 
L 167.073488 541.011066 
L 161.456065 542.840975 
L 157.414631 541.401304 
L 150.661422 544.24541 
L 146.087931 543.038819 
L 140.304332 544.509699 
L 133.758073 546.848344 
L 128.32262 547.485205 
L 125.822726 543.045311 
L 118.755432 548.492161 
L 114.499738 546.607388 
L 109.326562 546.95662 
L 103.319795 555.399599 
L 99.20457 551.078189 
L 94.128961 560.759834 
z
" clip-path="url(#pd984e113c5)" style="fill: #eb1960; opacity: 0.2; stroke-dasharray: 6.4,1.6,1,1.6; stroke-dashoffset: 0; stroke: #eb1960; stroke-linejoin: miter"/>
   </g>
   <g id="matplotlib.axis_1">
    <g id="xtick_1">
     <g id="line2d_1">
      <defs>
       <path id="m048657fdd9" d="M 0 0 
L 0 3.5 
" style="stroke: #000000; stroke-width: 0.8"/>
      </defs>
      <g>
       <use xlink:href="#m048657fdd9" x="90" y="640.8" style="stroke: #000000; stroke-width: 0.8"/>
      </g>
     </g>
     <g id="text_1">
      <!-- 0.0 -->
      <g transform="translate(75.687187 661.477188) scale(0.18 -0.18)">
       <defs>
        <path id="DejaVuSans-30" d="M 2034 4250 
Q 1547 4250 1301 3770 
Q 1056 3291 1056 2328 
Q 1056 1369 1301 889 
Q 1547 409 2034 409 
Q 2525 409 2770 889 
Q 3016 1369 3016 2328 
Q 3016 3291 2770 3770 
Q 2525 4250 2034 4250 
z
M 2034 4750 
Q 2819 4750 3233 4129 
Q 3647 3509 3647 2328 
Q 3647 1150 3233 529 
Q 2819 -91 2034 -91 
Q 1250 -91 836 529 
Q 422 1150 422 2328 
Q 422 3509 836 4129 
Q 1250 4750 2034 4750 
z
" transform="scale(0.015625)"/>
        <path id="DejaVuSans-2e" d="M 684 794 
L 1344 794 
L 1344 0 
L 684 0 
L 684 794 
z
" transform="scale(0.015625)"/>
       </defs>
       <use xlink:href="#DejaVuSans-30"/>
       <use xlink:href="#DejaVuSans-2e" x="63.623047"/>
       <use xlink:href="#DejaVuSans-30" x="95.410156"/>
      </g>
     </g>
    </g>
    <g id="xtick_2">
     <g id="line2d_2">
      <g>
       <use xlink:href="#m048657fdd9" x="201.6" y="640.8" style="stroke: #000000; stroke-width: 0.8"/>
      </g>
     </g>
     <g id="text_2">
      <!-- 0.2 -->
      <g transform="translate(187.287188 661.477188) scale(0.18 -0.18)">
       <defs>
        <path id="DejaVuSans-32" d="M 1228 531 
L 3431 531 
L 3431 0 
L 469 0 
L 469 531 
Q 828 903 1448 1529 
Q 2069 2156 2228 2338 
Q 2531 2678 2651 2914 
Q 2772 3150 2772 3378 
Q 2772 3750 2511 3984 
Q 2250 4219 1831 4219 
Q 1534 4219 1204 4116 
Q 875 4013 500 3803 
L 500 4441 
Q 881 4594 1212 4672 
Q 1544 4750 1819 4750 
Q 2544 4750 2975 4387 
Q 3406 4025 3406 3419 
Q 3406 3131 3298 2873 
Q 3191 2616 2906 2266 
Q 2828 2175 2409 1742 
Q 1991 1309 1228 531 
z
" transform="scale(0.015625)"/>
       </defs>
       <use xlink:href="#DejaVuSans-30"/>
       <use xlink:href="#DejaVuSans-2e" x="63.623047"/>
       <use xlink:href="#DejaVuSans-32" x="95.410156"/>
      </g>
     </g>
    </g>
    <g id="xtick_3">
     <g id="line2d_3">
      <g>
       <use xlink:href="#m048657fdd9" x="313.2" y="640.8" style="stroke: #000000; stroke-width: 0.8"/>
      </g>
     </g>
     <g id="text_3">
      <!-- 0.4 -->
      <g transform="translate(298.887188 661.477188) scale(0.18 -0.18)">
       <defs>
        <path id="DejaVuSans-34" d="M 2419 4116 
L 825 1625 
L 2419 1625 
L 2419 4116 
z
M 2253 4666 
L 3047 4666 
L 3047 1625 
L 3713 1625 
L 3713 1100 
L 3047 1100 
L 3047 0 
L 2419 0 
L 2419 1100 
L 313 1100 
L 313 1709 
L 2253 4666 
z
" transform="scale(0.015625)"/>
       </defs>
       <use xlink:href="#DejaVuSans-30"/>
       <use xlink:href="#DejaVuSans-2e" x="63.623047"/>
       <use xlink:href="#DejaVuSans-34" x="95.410156"/>
      </g>
     </g>
    </g>
    <g id="xtick_4">
     <g id="line2d_4">
      <g>
       <use xlink:href="#m048657fdd9" x="424.8" y="640.8" style="stroke: #000000; stroke-width: 0.8"/>
      </g>
     </g>
     <g id="text_4">
      <!-- 0.6 -->
      <g transform="translate(410.487188 661.477188) scale(0.18 -0.18)">
       <defs>
        <path id="DejaVuSans-36" d="M 2113 2584 
Q 1688 2584 1439 2293 
Q 1191 2003 1191 1497 
Q 1191 994 1439 701 
Q 1688 409 2113 409 
Q 2538 409 2786 701 
Q 3034 994 3034 1497 
Q 3034 2003 2786 2293 
Q 2538 2584 2113 2584 
z
M 3366 4563 
L 3366 3988 
Q 3128 4100 2886 4159 
Q 2644 4219 2406 4219 
Q 1781 4219 1451 3797 
Q 1122 3375 1075 2522 
Q 1259 2794 1537 2939 
Q 1816 3084 2150 3084 
Q 2853 3084 3261 2657 
Q 3669 2231 3669 1497 
Q 3669 778 3244 343 
Q 2819 -91 2113 -91 
Q 1303 -91 875 529 
Q 447 1150 447 2328 
Q 447 3434 972 4092 
Q 1497 4750 2381 4750 
Q 2619 4750 2861 4703 
Q 3103 4656 3366 4563 
z
" transform="scale(0.015625)"/>
       </defs>
       <use xlink:href="#DejaVuSans-30"/>
       <use xlink:href="#DejaVuSans-2e" x="63.623047"/>
       <use xlink:href="#DejaVuSans-36" x="95.410156"/>
      </g>
     </g>
    </g>
    <g id="xtick_5">
     <g id="line2d_5">
      <g>
       <use xlink:href="#m048657fdd9" x="536.4" y="640.8" style="stroke: #000000; stroke-width: 0.8"/>
      </g>
     </g>
     <g id="text_5">
      <!-- 0.8 -->
      <g transform="translate(522.087188 661.477188) scale(0.18 -0.18)">
       <defs>
        <path id="DejaVuSans-38" d="M 2034 2216 
Q 1584 2216 1326 1975 
Q 1069 1734 1069 1313 
Q 1069 891 1326 650 
Q 1584 409 2034 409 
Q 2484 409 2743 651 
Q 3003 894 3003 1313 
Q 3003 1734 2745 1975 
Q 2488 2216 2034 2216 
z
M 1403 2484 
Q 997 2584 770 2862 
Q 544 3141 544 3541 
Q 544 4100 942 4425 
Q 1341 4750 2034 4750 
Q 2731 4750 3128 4425 
Q 3525 4100 3525 3541 
Q 3525 3141 3298 2862 
Q 3072 2584 2669 2484 
Q 3125 2378 3379 2068 
Q 3634 1759 3634 1313 
Q 3634 634 3220 271 
Q 2806 -91 2034 -91 
Q 1263 -91 848 271 
Q 434 634 434 1313 
Q 434 1759 690 2068 
Q 947 2378 1403 2484 
z
M 1172 3481 
Q 1172 3119 1398 2916 
Q 1625 2713 2034 2713 
Q 2441 2713 2670 2916 
Q 2900 3119 2900 3481 
Q 2900 3844 2670 4047 
Q 2441 4250 2034 4250 
Q 1625 4250 1398 4047 
Q 1172 3844 1172 3481 
z
" transform="scale(0.015625)"/>
       </defs>
       <use xlink:href="#DejaVuSans-30"/>
       <use xlink:href="#DejaVuSans-2e" x="63.623047"/>
       <use xlink:href="#DejaVuSans-38" x="95.410156"/>
      </g>
     </g>
    </g>
    <g id="xtick_6">
     <g id="line2d_6">
      <g>
       <use xlink:href="#m048657fdd9" x="648" y="640.8" style="stroke: #000000; stroke-width: 0.8"/>
      </g>
     </g>
     <g id="text_6">
      <!-- 1.0 -->
      <g transform="translate(633.687188 661.477188) scale(0.18 -0.18)">
       <defs>
        <path id="DejaVuSans-31" d="M 794 531 
L 1825 531 
L 1825 4091 
L 703 3866 
L 703 4441 
L 1819 4666 
L 2450 4666 
L 2450 531 
L 3481 531 
L 3481 0 
L 794 0 
L 794 531 
z
" transform="scale(0.015625)"/>
       </defs>
       <use xlink:href="#DejaVuSans-31"/>
       <use xlink:href="#DejaVuSans-2e" x="63.623047"/>
       <use xlink:href="#DejaVuSans-30" x="95.410156"/>
      </g>
     </g>
    </g>
    <g id="text_7">
     <!-- Recall -->
     <g transform="translate(333.19875 687.456875) scale(0.24 -0.24)">
      <defs>
       <path id="DejaVuSans-52" d="M 2841 2188 
Q 3044 2119 3236 1894 
Q 3428 1669 3622 1275 
L 4263 0 
L 3584 0 
L 2988 1197 
Q 2756 1666 2539 1819 
Q 2322 1972 1947 1972 
L 1259 1972 
L 1259 0 
L 628 0 
L 628 4666 
L 2053 4666 
Q 2853 4666 3247 4331 
Q 3641 3997 3641 3322 
Q 3641 2881 3436 2590 
Q 3231 2300 2841 2188 
z
M 1259 4147 
L 1259 2491 
L 2053 2491 
Q 2509 2491 2742 2702 
Q 2975 2913 2975 3322 
Q 2975 3731 2742 3939 
Q 2509 4147 2053 4147 
L 1259 4147 
z
" transform="scale(0.015625)"/>
       <path id="DejaVuSans-65" d="M 3597 1894 
L 3597 1613 
L 953 1613 
Q 991 1019 1311 708 
Q 1631 397 2203 397 
Q 2534 397 2845 478 
Q 3156 559 3463 722 
L 3463 178 
Q 3153 47 2828 -22 
Q 2503 -91 2169 -91 
Q 1331 -91 842 396 
Q 353 884 353 1716 
Q 353 2575 817 3079 
Q 1281 3584 2069 3584 
Q 2775 3584 3186 3129 
Q 3597 2675 3597 1894 
z
M 3022 2063 
Q 3016 2534 2758 2815 
Q 2500 3097 2075 3097 
Q 1594 3097 1305 2825 
Q 1016 2553 972 2059 
L 3022 2063 
z
" transform="scale(0.015625)"/>
       <path id="DejaVuSans-63" d="M 3122 3366 
L 3122 2828 
Q 2878 2963 2633 3030 
Q 2388 3097 2138 3097 
Q 1578 3097 1268 2742 
Q 959 2388 959 1747 
Q 959 1106 1268 751 
Q 1578 397 2138 397 
Q 2388 397 2633 464 
Q 2878 531 3122 666 
L 3122 134 
Q 2881 22 2623 -34 
Q 2366 -91 2075 -91 
Q 1284 -91 818 406 
Q 353 903 353 1747 
Q 353 2603 823 3093 
Q 1294 3584 2113 3584 
Q 2378 3584 2631 3529 
Q 2884 3475 3122 3366 
z
" transform="scale(0.015625)"/>
       <path id="DejaVuSans-61" d="M 2194 1759 
Q 1497 1759 1228 1600 
Q 959 1441 959 1056 
Q 959 750 1161 570 
Q 1363 391 1709 391 
Q 2188 391 2477 730 
Q 2766 1069 2766 1631 
L 2766 1759 
L 2194 1759 
z
M 3341 1997 
L 3341 0 
L 2766 0 
L 2766 531 
Q 2569 213 2275 61 
Q 1981 -91 1556 -91 
Q 1019 -91 701 211 
Q 384 513 384 1019 
Q 384 1609 779 1909 
Q 1175 2209 1959 2209 
L 2766 2209 
L 2766 2266 
Q 2766 2663 2505 2880 
Q 2244 3097 1772 3097 
Q 1472 3097 1187 3025 
Q 903 2953 641 2809 
L 641 3341 
Q 956 3463 1253 3523 
Q 1550 3584 1831 3584 
Q 2591 3584 2966 3190 
Q 3341 2797 3341 1997 
z
" transform="scale(0.015625)"/>
       <path id="DejaVuSans-6c" d="M 603 4863 
L 1178 4863 
L 1178 0 
L 603 0 
L 603 4863 
z
" transform="scale(0.015625)"/>
      </defs>
      <use xlink:href="#DejaVuSans-52"/>
      <use xlink:href="#DejaVuSans-65" x="64.982422"/>
      <use xlink:href="#DejaVuSans-63" x="126.505859"/>
      <use xlink:href="#DejaVuSans-61" x="181.486328"/>
      <use xlink:href="#DejaVuSans-6c" x="242.765625"/>
      <use xlink:href="#DejaVuSans-6c" x="270.548828"/>
     </g>
    </g>
   </g>
   <g id="matplotlib.axis_2">
    <g id="ytick_1">
     <g id="line2d_7">
      <defs>
       <path id="m206c2033e0" d="M 0 0 
L -3.5 0 
" style="stroke: #000000; stroke-width: 0.8"/>
      </defs>
      <g>
       <use xlink:href="#m206c2033e0" x="90" y="640.8" style="stroke: #000000; stroke-width: 0.8"/>
      </g>
     </g>
     <g id="text_8">
      <!-- 0.0 -->
      <g transform="translate(54.374375 647.638594) scale(0.18 -0.18)">
       <use xlink:href="#DejaVuSans-30"/>
       <use xlink:href="#DejaVuSans-2e" x="63.623047"/>
       <use xlink:href="#DejaVuSans-30" x="95.410156"/>
      </g>
     </g>
    </g>
    <g id="ytick_2">
     <g id="line2d_8">
      <g>
       <use xlink:href="#m206c2033e0" x="90" y="529.92" style="stroke: #000000; stroke-width: 0.8"/>
      </g>
     </g>
     <g id="text_9">
      <!-- 0.2 -->
      <g transform="translate(54.374375 536.758594) scale(0.18 -0.18)">
       <use xlink:href="#DejaVuSans-30"/>
       <use xlink:href="#DejaVuSans-2e" x="63.623047"/>
       <use xlink:href="#DejaVuSans-32" x="95.410156"/>
      </g>
     </g>
    </g>
    <g id="ytick_3">
     <g id="line2d_9">
      <g>
       <use xlink:href="#m206c2033e0" x="90" y="419.04" style="stroke: #000000; stroke-width: 0.8"/>
      </g>
     </g>
     <g id="text_10">
      <!-- 0.4 -->
      <g transform="translate(54.374375 425.878594) scale(0.18 -0.18)">
       <use xlink:href="#DejaVuSans-30"/>
       <use xlink:href="#DejaVuSans-2e" x="63.623047"/>
       <use xlink:href="#DejaVuSans-34" x="95.410156"/>
      </g>
     </g>
    </g>
    <g id="ytick_4">
     <g id="line2d_10">
      <g>
       <use xlink:href="#m206c2033e0" x="90" y="308.16" style="stroke: #000000; stroke-width: 0.8"/>
      </g>
     </g>
     <g id="text_11">
      <!-- 0.6 -->
      <g transform="translate(54.374375 314.998594) scale(0.18 -0.18)">
       <use xlink:href="#DejaVuSans-30"/>
       <use xlink:href="#DejaVuSans-2e" x="63.623047"/>
       <use xlink:href="#DejaVuSans-36" x="95.410156"/>
      </g>
     </g>
    </g>
    <g id="ytick_5">
     <g id="line2d_11">
      <g>
       <use xlink:href="#m206c2033e0" x="90" y="197.28" style="stroke: #000000; stroke-width: 0.8"/>
      </g>
     </g>
     <g id="text_12">
      <!-- 0.8 -->
      <g transform="translate(54.374375 204.118594) scale(0.18 -0.18)">
       <use xlink:href="#DejaVuSans-30"/>
       <use xlink:href="#DejaVuSans-2e" x="63.623047"/>
       <use xlink:href="#DejaVuSans-38" x="95.410156"/>
      </g>
     </g>
    </g>
    <g id="ytick_6">
     <g id="line2d_12">
      <g>
       <use xlink:href="#m206c2033e0" x="90" y="86.4" style="stroke: #000000; stroke-width: 0.8"/>
      </g>
     </g>
     <g id="text_13">
      <!-- 1.0 -->
      <g transform="translate(54.374375 93.238594) scale(0.18 -0.18)">
       <use xlink:href="#DejaVuSans-31"/>
       <use xlink:href="#DejaVuSans-2e" x="63.623047"/>
       <use xlink:href="#DejaVuSans-30" x="95.410156"/>
      </g>
     </g>
    </g>
    <g id="text_14">
     <!-- Precision -->
     <g transform="translate(45.383125 417.136875) rotate(-90) scale(0.24 -0.24)">
      <defs>
       <path id="DejaVuSans-50" d="M 1259 4147 
L 1259 2394 
L 2053 2394 
Q 2494 2394 2734 2622 
Q 2975 2850 2975 3272 
Q 2975 3691 2734 3919 
Q 2494 4147 2053 4147 
L 1259 4147 
z
M 628 4666 
L 2053 4666 
Q 2838 4666 3239 4311 
Q 3641 3956 3641 3272 
Q 3641 2581 3239 2228 
Q 2838 1875 2053 1875 
L 1259 1875 
L 1259 0 
L 628 0 
L 628 4666 
z
" transform="scale(0.015625)"/>
       <path id="DejaVuSans-72" d="M 2631 2963 
Q 2534 3019 2420 3045 
Q 2306 3072 2169 3072 
Q 1681 3072 1420 2755 
Q 1159 2438 1159 1844 
L 1159 0 
L 581 0 
L 581 3500 
L 1159 3500 
L 1159 2956 
Q 1341 3275 1631 3429 
Q 1922 3584 2338 3584 
Q 2397 3584 2469 3576 
Q 2541 3569 2628 3553 
L 2631 2963 
z
" transform="scale(0.015625)"/>
       <path id="DejaVuSans-69" d="M 603 3500 
L 1178 3500 
L 1178 0 
L 603 0 
L 603 3500 
z
M 603 4863 
L 1178 4863 
L 1178 4134 
L 603 4134 
L 603 4863 
z
" transform="scale(0.015625)"/>
       <path id="DejaVuSans-73" d="M 2834 3397 
L 2834 2853 
Q 2591 2978 2328 3040 
Q 2066 3103 1784 3103 
Q 1356 3103 1142 2972 
Q 928 2841 928 2578 
Q 928 2378 1081 2264 
Q 1234 2150 1697 2047 
L 1894 2003 
Q 2506 1872 2764 1633 
Q 3022 1394 3022 966 
Q 3022 478 2636 193 
Q 2250 -91 1575 -91 
Q 1294 -91 989 -36 
Q 684 19 347 128 
L 347 722 
Q 666 556 975 473 
Q 1284 391 1588 391 
Q 1994 391 2212 530 
Q 2431 669 2431 922 
Q 2431 1156 2273 1281 
Q 2116 1406 1581 1522 
L 1381 1569 
Q 847 1681 609 1914 
Q 372 2147 372 2553 
Q 372 3047 722 3315 
Q 1072 3584 1716 3584 
Q 2034 3584 2315 3537 
Q 2597 3491 2834 3397 
z
" transform="scale(0.015625)"/>
       <path id="DejaVuSans-6f" d="M 1959 3097 
Q 1497 3097 1228 2736 
Q 959 2375 959 1747 
Q 959 1119 1226 758 
Q 1494 397 1959 397 
Q 2419 397 2687 759 
Q 2956 1122 2956 1747 
Q 2956 2369 2687 2733 
Q 2419 3097 1959 3097 
z
M 1959 3584 
Q 2709 3584 3137 3096 
Q 3566 2609 3566 1747 
Q 3566 888 3137 398 
Q 2709 -91 1959 -91 
Q 1206 -91 779 398 
Q 353 888 353 1747 
Q 353 2609 779 3096 
Q 1206 3584 1959 3584 
z
" transform="scale(0.015625)"/>
       <path id="DejaVuSans-6e" d="M 3513 2113 
L 3513 0 
L 2938 0 
L 2938 2094 
Q 2938 2591 2744 2837 
Q 2550 3084 2163 3084 
Q 1697 3084 1428 2787 
Q 1159 2491 1159 1978 
L 1159 0 
L 581 0 
L 581 3500 
L 1159 3500 
L 1159 2956 
Q 1366 3272 1645 3428 
Q 1925 3584 2291 3584 
Q 2894 3584 3203 3211 
Q 3513 2838 3513 2113 
z
" transform="scale(0.015625)"/>
      </defs>
      <use xlink:href="#DejaVuSans-50"/>
      <use xlink:href="#DejaVuSans-72" x="58.552734"/>
      <use xlink:href="#DejaVuSans-65" x="97.416016"/>
      <use xlink:href="#DejaVuSans-63" x="158.939453"/>
      <use xlink:href="#DejaVuSans-69" x="213.919922"/>
      <use xlink:href="#DejaVuSans-73" x="241.703125"/>
      <use xlink:href="#DejaVuSans-69" x="293.802734"/>
      <use xlink:href="#DejaVuSans-6f" x="321.585938"/>
      <use xlink:href="#DejaVuSans-6e" x="382.767578"/>
     </g>
    </g>
   </g>
   <g id="line2d_13">
    <path d="M 91.570712 86.4 
L 120.051975 86.4 
L 149.336156 86.4 
L 177.844233 86.4 
L 207.896208 86.4 
L 237.142102 86.4 
L 265.688467 86.4 
L 295.050357 86.4 
L 323.480726 86.4 
L 353.5327 86.4 
L 382.664724 86.4 
L 411.324959 86.4 
L 441.09729 86.4 
L 470.507175 86.4 
L 499.169192 86.4 
L 528.369899 86.4 
L 556.961451 86.4 
L 586.908637 86.503144 
L 614.541064 88.05668 
L 634.438241 96.102 
L 645.379334 112.573633 
L 647.814 135.809213 
L 648 158.192806 
L 648 179.165554 
L 648 198.011881 
L 648 216.227848 
L 648 232.456968 
L 648 247.354839 
L 648 261.383932 
L 648 274.779313 
L 648 286.803166 
L 648 298.175215 
L 648 308.708911 
L 648 319.061871 
L 648 328.446444 
L 648 337.259729 
L 648 345.660064 
L 648 353.509208 
L 648 361.29 
L 648 368.411973 
L 648 375.127129 
L 648 381.673938 
L 648 387.897455 
L 648 393.719337 
L 648 399.305451 
L 648 404.594366 
L 648 409.879518 
L 648 414.746541 
L 648 419.405941 
L 648 423.905494 
L 648 428.359609 
L 648 432.469565 
L 648 436.454274 
L 648 440.254709 
L 648 444.077419 
L 648 447.621083 
L 648 451.033663 
L 648 454.343189 
L 648 457.645016 
L 648 460.71302 
L 648 463.696291 
L 648 466.56 
L 648 469.452874 
L 648 472.147261 
L 648 474.754455 
L 648 477.294053 
L 648 479.836331 
L 648 482.212766 
L 648 484.523712 
L 648 486.764638 
L 648 488.983355 
L 648 491.146012 
L 648 493.20396 
L 648 495.206077 
L 648 497.154604 
L 648 499.126505 
L 648 500.974942 
L 648 502.77037 
L 648 504.53375 
L 648 506.298947 
L 648 507.963564 
L 648 509.589925 
L 648 511.172174 
L 648 512.780153 
L 648 514.290218 
L 648 515.762908 
L 648 517.203958 
L 648 518.665453 
L 648 520.039604 
L 648 521.384192 
L 648 522.697183 
L 648 524.03342 
L 648 525.290056 
L 648 526.519932 
L 648 527.723894 
L 648 528.949396 
L 648 530.10297 
L 648 531.232993 
L 648 531.277714 
L 648 531.277714 
" clip-path="url(#pd984e113c5)" style="fill: none; stroke: #537fbf; stroke-width: 1.5; stroke-linecap: square"/>
   </g>
   <g id="line2d_14">
    <path d="M 648 507.945898 
L 648 505.749753 
L 648 503.24557 
L 648 500.252025 
L 648 497.099649 
L 648 493.182161 
L 648 488.592805 
L 648 483.931043 
L 648 478.189787 
L 648 471.770982 
L 648 464.440425 
L 648 456.058925 
L 648 446.780855 
L 648 435.799808 
L 648 423.420685 
L 648 408.32284 
L 648 391.375557 
L 648 371.954274 
L 648 349.409161 
L 648 325.179921 
L 648 299.360472 
L 648 271.857986 
L 648 244.931754 
L 648 216.11078 
L 648 189.580661 
L 648 164.150587 
L 648 143.419405 
L 648 125.898872 
L 648 113.987782 
L 648 103.552131 
L 648 97.686022 
L 647.957077 93.150318 
L 647.957077 90.210089 
L 647.957077 88.619413 
L 647.476425 87.513424 
L 645.656859 86.982878 
L 640.115801 86.722773 
L 625.134881 86.4 
L 593.788712 86.4 
L 527.502914 86.4 
L 422.052313 86.4 
L 292.986156 86.4 
L 179.55007 86.4 
L 115.147204 86.4 
L 94.490278 86.4 
L 90.231882 86.4 
L 90 86.4 
L 90 86.4 
L 90 86.4 
L 90 86.4 
L 90 86.4 
L 90 86.4 
L 90 86.4 
L 90 86.4 
L 90 86.4 
L 90 86.4 
L 90 86.4 
L 90 86.4 
L 90 86.4 
L 90 86.4 
L 90 86.4 
L 90 86.4 
L 90 86.4 
L 90 86.4 
L 90 86.4 
L 90 86.4 
L 90 86.4 
L 90 86.4 
L 90 86.4 
L 90 86.4 
L 90 86.4 
L 90 86.4 
L 90 86.4 
L 90 86.4 
L 90 86.4 
L 90 86.4 
L 90 86.4 
L 90 86.4 
L 90 86.4 
L 90 86.4 
L 90 86.4 
L 90 86.4 
L 90 86.4 
L 90 86.4 
L 90 86.4 
L 90 86.4 
L 90 86.4 
L 90 86.4 
L 90 86.4 
L 90 86.4 
L 90 86.4 
L 90 86.4 
L 90 86.4 
L 90 86.4 
L 90 86.4 
L 90 86.4 
L 90 86.4 
L 90 86.4 
L 90 86.4 
L 90 86.4 
" clip-path="url(#pd984e113c5)" style="fill: none; stroke-dasharray: 5.55,2.4; stroke-dashoffset: 0; stroke: #ff800e; stroke-width: 1.5"/>
   </g>
   <g id="line2d_15">
    <path d="M 96.326335 517.05792 
L 101.898201 524.81952 
L 106.656518 532.28544 
L 113.659814 525.4848 
L 119.23468 526.637952 
L 123.847403 530.6592 
L 130.979366 526.4352 
L 134.771626 531.74952 
L 139.864782 532.67968 
L 147.179122 529.121664 
L 152.900503 529.15392 
L 157.788407 530.4744 
L 163.778546 530.022351 
L 170.248078 528.90624 
L 174.131557 531.457536 
L 180.333308 530.613 
L 185.308056 531.381007 
L 191.933706 530.2896 
L 197.386362 530.456893 
L 203.686854 529.897824 
L 210.57509 528.80064 
L 214.652856 530.24256 
L 222.659973 528.165203 
L 227.10201 529.29168 
L 232.813351 529.24585 
L 238.506793 529.288837 
L 243.147298 530.034987 
L 251.259582 528.47856 
L 255.429647 529.507068 
L 258.927002 530.910528 
L 264.336201 531.078875 
L 274.695279 528.24294 
L 280.981475 527.91744 
L 283.14219 529.985224 
L 290.414124 529.007616 
L 293.333203 530.49904 
L 300.096475 530.015896 
L 307.439278 529.208034 
L 311.820312 529.885883 
L 318.315434 529.443216 
L 319.821023 531.445276 
L 329.560554 529.4976 
L 334.020939 530.095345 
L 334.855141 532.14768 
L 343.11643 531.023872 
L 350.199347 530.450296 
L 356.69523 530.061549 
L 366.462577 528.3954 
L 367.466926 530.318263 
L 373.457571 530.13289 
L 380.587724 529.615624 
L 382.420144 531.054388 
L 391.985816 529.694056 
L 394.249537 530.848107 
L 402.471635 529.92 
L 408.624584 529.75368 
L 413.822257 530.013373 
L 422.274374 529.055901 
L 427.655302 529.168271 
L 433.243332 529.1808 
L 435.854984 530.210833 
L 442.273431 529.912846 
L 448.259297 529.8496 
L 454.508289 529.62894 
L 458.388939 530.233876 
L 465.125416 529.92 
L 471.207859 529.787606 
L 477.597234 529.613449 
L 483.585928 529.502191 
L 486.538281 530.274816 
L 494.455417 529.67013 
L 499.876317 529.72288 
L 502.85777 530.442503 
L 510.66201 529.890032 
L 514.728364 530.328038 
L 522.016676 529.890821 
L 528.030787 529.78752 
L 535.928902 529.25472 
L 540.70773 529.47648 
L 545.098588 529.814664 
L 550.428878 529.898098 
L 558.008823 529.444027 
L 562.275845 529.770379 
L 569.728568 529.38672 
L 573.30958 529.867821 
L 580.445409 529.533209 
L 585.772958 529.609026 
L 592.280881 529.43616 
L 596.009986 529.87515 
L 603.490511 529.47648 
L 609.298653 529.452111 
L 613.865598 529.693419 
L 620.045073 529.600475 
L 624.657049 529.825634 
L 631.484823 529.574521 
L 636.848702 529.67052 
L 642.049673 529.755395 
L 648 529.702766 
L 648 529.702766 
L 648 529.702766 
" clip-path="url(#pd984e113c5)" style="fill: none; stroke-dasharray: 9.6,2.4,1.5,2.4; stroke-dashoffset: 0; stroke: #eb1960; stroke-width: 1.5"/>
   </g>
   <g id="patch_6">
    <path d="M 90 640.8 
L 90 86.4 
" style="fill: none; stroke: #000000; stroke-width: 0.8; stroke-linejoin: miter; stroke-linecap: square"/>
   </g>
   <g id="patch_7">
    <path d="M 648 640.8 
L 648 86.4 
" style="fill: none; stroke: #000000; stroke-width: 0.8; stroke-linejoin: miter; stroke-linecap: square"/>
   </g>
   <g id="patch_8">
    <path d="M 90 640.8 
L 648 640.8 
" style="fill: none; stroke: #000000; stroke-width: 0.8; stroke-linejoin: miter; stroke-linecap: square"/>
   </g>
   <g id="patch_9">
    <path d="M 90 86.4 
L 648 86.4 
" style="fill: none; stroke: #000000; stroke-width: 0.8; stroke-linejoin: miter; stroke-linecap: square"/>
   </g>
   <g id="text_15">
    <!-- 3-Axis Tensor -->
    <g transform="translate(263.3875 79.745) scale(0.32 -0.32)">
     <defs>
      <path id="DejaVuSans-33" d="M 2597 2516 
Q 3050 2419 3304 2112 
Q 3559 1806 3559 1356 
Q 3559 666 3084 287 
Q 2609 -91 1734 -91 
Q 1441 -91 1130 -33 
Q 819 25 488 141 
L 488 750 
Q 750 597 1062 519 
Q 1375 441 1716 441 
Q 2309 441 2620 675 
Q 2931 909 2931 1356 
Q 2931 1769 2642 2001 
Q 2353 2234 1838 2234 
L 1294 2234 
L 1294 2753 
L 1863 2753 
Q 2328 2753 2575 2939 
Q 2822 3125 2822 3475 
Q 2822 3834 2567 4026 
Q 2313 4219 1838 4219 
Q 1578 4219 1281 4162 
Q 984 4106 628 3988 
L 628 4550 
Q 988 4650 1302 4700 
Q 1616 4750 1894 4750 
Q 2613 4750 3031 4423 
Q 3450 4097 3450 3541 
Q 3450 3153 3228 2886 
Q 3006 2619 2597 2516 
z
" transform="scale(0.015625)"/>
      <path id="DejaVuSans-2d" d="M 313 2009 
L 1997 2009 
L 1997 1497 
L 313 1497 
L 313 2009 
z
" transform="scale(0.015625)"/>
      <path id="DejaVuSans-41" d="M 2188 4044 
L 1331 1722 
L 3047 1722 
L 2188 4044 
z
M 1831 4666 
L 2547 4666 
L 4325 0 
L 3669 0 
L 3244 1197 
L 1141 1197 
L 716 0 
L 50 0 
L 1831 4666 
z
" transform="scale(0.015625)"/>
      <path id="DejaVuSans-78" d="M 3513 3500 
L 2247 1797 
L 3578 0 
L 2900 0 
L 1881 1375 
L 863 0 
L 184 0 
L 1544 1831 
L 300 3500 
L 978 3500 
L 1906 2253 
L 2834 3500 
L 3513 3500 
z
" transform="scale(0.015625)"/>
      <path id="DejaVuSans-20" transform="scale(0.015625)"/>
      <path id="DejaVuSans-54" d="M -19 4666 
L 3928 4666 
L 3928 4134 
L 2272 4134 
L 2272 0 
L 1638 0 
L 1638 4134 
L -19 4134 
L -19 4666 
z
" transform="scale(0.015625)"/>
     </defs>
     <use xlink:href="#DejaVuSans-33"/>
     <use xlink:href="#DejaVuSans-2d" x="63.623047"/>
     <use xlink:href="#DejaVuSans-41" x="97.457031"/>
     <use xlink:href="#DejaVuSans-78" x="165.865234"/>
     <use xlink:href="#DejaVuSans-69" x="225.044922"/>
     <use xlink:href="#DejaVuSans-73" x="252.828125"/>
     <use xlink:href="#DejaVuSans-20" x="304.927734"/>
     <use xlink:href="#DejaVuSans-54" x="336.714844"/>
     <use xlink:href="#DejaVuSans-65" x="380.798828"/>
     <use xlink:href="#DejaVuSans-6e" x="442.322266"/>
     <use xlink:href="#DejaVuSans-73" x="505.701172"/>
     <use xlink:href="#DejaVuSans-6f" x="557.800781"/>
     <use xlink:href="#DejaVuSans-72" x="618.982422"/>
    </g>
   </g>
   <g id="legend_1">
    <g id="patch_10">
     <path d="M 102.6 631.8 
L 248.4675 631.8 
Q 252.0675 631.8 252.0675 628.2 
L 252.0675 550.738125 
Q 252.0675 547.138125 248.4675 547.138125 
L 102.6 547.138125 
Q 99 547.138125 99 550.738125 
L 99 628.2 
Q 99 631.8 102.6 631.8 
z
" style="fill: #ffffff; opacity: 0.8; stroke: #cccccc; stroke-linejoin: miter"/>
    </g>
    <g id="line2d_16">
     <path d="M 106.2 561.715313 
L 124.2 561.715313 
L 142.2 561.715313 
" style="fill: none; stroke: #537fbf; stroke-width: 1.5; stroke-linecap: square"/>
    </g>
    <g id="text_16">
     <!-- GmGM -->
     <g transform="translate(156.6 568.015313) scale(0.18 -0.18)">
      <defs>
       <path id="DejaVuSans-47" d="M 3809 666 
L 3809 1919 
L 2778 1919 
L 2778 2438 
L 4434 2438 
L 4434 434 
Q 4069 175 3628 42 
Q 3188 -91 2688 -91 
Q 1594 -91 976 548 
Q 359 1188 359 2328 
Q 359 3472 976 4111 
Q 1594 4750 2688 4750 
Q 3144 4750 3555 4637 
Q 3966 4525 4313 4306 
L 4313 3634 
Q 3963 3931 3569 4081 
Q 3175 4231 2741 4231 
Q 1884 4231 1454 3753 
Q 1025 3275 1025 2328 
Q 1025 1384 1454 906 
Q 1884 428 2741 428 
Q 3075 428 3337 486 
Q 3600 544 3809 666 
z
" transform="scale(0.015625)"/>
       <path id="DejaVuSans-6d" d="M 3328 2828 
Q 3544 3216 3844 3400 
Q 4144 3584 4550 3584 
Q 5097 3584 5394 3201 
Q 5691 2819 5691 2113 
L 5691 0 
L 5113 0 
L 5113 2094 
Q 5113 2597 4934 2840 
Q 4756 3084 4391 3084 
Q 3944 3084 3684 2787 
Q 3425 2491 3425 1978 
L 3425 0 
L 2847 0 
L 2847 2094 
Q 2847 2600 2669 2842 
Q 2491 3084 2119 3084 
Q 1678 3084 1418 2786 
Q 1159 2488 1159 1978 
L 1159 0 
L 581 0 
L 581 3500 
L 1159 3500 
L 1159 2956 
Q 1356 3278 1631 3431 
Q 1906 3584 2284 3584 
Q 2666 3584 2933 3390 
Q 3200 3197 3328 2828 
z
" transform="scale(0.015625)"/>
       <path id="DejaVuSans-4d" d="M 628 4666 
L 1569 4666 
L 2759 1491 
L 3956 4666 
L 4897 4666 
L 4897 0 
L 4281 0 
L 4281 4097 
L 3078 897 
L 2444 897 
L 1241 4097 
L 1241 0 
L 628 0 
L 628 4666 
z
" transform="scale(0.015625)"/>
      </defs>
      <use xlink:href="#DejaVuSans-47"/>
      <use xlink:href="#DejaVuSans-6d" x="77.490234"/>
      <use xlink:href="#DejaVuSans-47" x="174.902344"/>
      <use xlink:href="#DejaVuSans-4d" x="252.392578"/>
     </g>
    </g>
    <g id="line2d_17">
     <path d="M 106.2 588.135938 
L 124.2 588.135938 
L 142.2 588.135938 
" style="fill: none; stroke-dasharray: 5.55,2.4; stroke-dashoffset: 0; stroke: #ff800e; stroke-width: 1.5"/>
    </g>
    <g id="text_17">
     <!-- TeraLasso -->
     <g transform="translate(156.6 594.435938) scale(0.18 -0.18)">
      <defs>
       <path id="DejaVuSans-4c" d="M 628 4666 
L 1259 4666 
L 1259 531 
L 3531 531 
L 3531 0 
L 628 0 
L 628 4666 
z
" transform="scale(0.015625)"/>
      </defs>
      <use xlink:href="#DejaVuSans-54"/>
      <use xlink:href="#DejaVuSans-65" x="44.083984"/>
      <use xlink:href="#DejaVuSans-72" x="105.607422"/>
      <use xlink:href="#DejaVuSans-61" x="146.720703"/>
      <use xlink:href="#DejaVuSans-4c" x="208"/>
      <use xlink:href="#DejaVuSans-61" x="263.712891"/>
      <use xlink:href="#DejaVuSans-73" x="324.992188"/>
      <use xlink:href="#DejaVuSans-73" x="377.091797"/>
      <use xlink:href="#DejaVuSans-6f" x="429.191406"/>
     </g>
    </g>
    <g id="line2d_18">
     <path d="M 106.2 614.556563 
L 124.2 614.556563 
L 142.2 614.556563 
" style="fill: none; stroke-dasharray: 9.6,2.4,1.5,2.4; stroke-dashoffset: 0; stroke: #eb1960; stroke-width: 1.5"/>
    </g>
    <g id="text_18">
     <!-- Random -->
     <g transform="translate(156.6 620.856562) scale(0.18 -0.18)">
      <defs>
       <path id="DejaVuSans-64" d="M 2906 2969 
L 2906 4863 
L 3481 4863 
L 3481 0 
L 2906 0 
L 2906 525 
Q 2725 213 2448 61 
Q 2172 -91 1784 -91 
Q 1150 -91 751 415 
Q 353 922 353 1747 
Q 353 2572 751 3078 
Q 1150 3584 1784 3584 
Q 2172 3584 2448 3432 
Q 2725 3281 2906 2969 
z
M 947 1747 
Q 947 1113 1208 752 
Q 1469 391 1925 391 
Q 2381 391 2643 752 
Q 2906 1113 2906 1747 
Q 2906 2381 2643 2742 
Q 2381 3103 1925 3103 
Q 1469 3103 1208 2742 
Q 947 2381 947 1747 
z
" transform="scale(0.015625)"/>
      </defs>
      <use xlink:href="#DejaVuSans-52"/>
      <use xlink:href="#DejaVuSans-61" x="67.232422"/>
      <use xlink:href="#DejaVuSans-6e" x="128.511719"/>
      <use xlink:href="#DejaVuSans-64" x="191.890625"/>
      <use xlink:href="#DejaVuSans-6f" x="255.367188"/>
      <use xlink:href="#DejaVuSans-6d" x="316.548828"/>
     </g>
    </g>
   </g>
  </g>
 </g>
 <defs>
  <clipPath id="pd984e113c5">
   <rect x="90" y="86.4" width="558" height="554.4"/>
  </clipPath>
 </defs>
</svg>
