<?xml version="1.0" encoding="utf-8" standalone="no"?>
<!DOCTYPE svg PUBLIC "-//W3C//DTD SVG 1.1//EN"
  "http://www.w3.org/Graphics/SVG/1.1/DTD/svg11.dtd">
<svg xmlns:xlink="http://www.w3.org/1999/xlink" width="1152pt" height="576pt" viewBox="0 0 1152 576" xmlns="http://www.w3.org/2000/svg" version="1.1">
 <metadata>
  <rdf:RDF xmlns:dc="http://purl.org/dc/elements/1.1/" xmlns:cc="http://creativecommons.org/ns#" xmlns:rdf="http://www.w3.org/1999/02/22-rdf-syntax-ns#">
   <cc:Work>
    <dc:type rdf:resource="http://purl.org/dc/dcmitype/StillImage"/>
    <dc:date>2023-05-09T19:03:59.542930</dc:date>
    <dc:format>image/svg+xml</dc:format>
    <dc:creator>
     <cc:Agent>
      <dc:title>Matplotlib v3.7.1, https://matplotlib.org/</dc:title>
     </cc:Agent>
    </dc:creator>
   </cc:Work>
  </rdf:RDF>
 </metadata>
 <defs>
  <style type="text/css">*{stroke-linejoin: round; stroke-linecap: butt}</style>
 </defs>
 <g id="figure_1">
  <g id="patch_1">
   <path d="M 0 576 
L 1152 576 
L 1152 0 
L 0 0 
z
" style="fill: #ffffff"/>
  </g>
  <g id="axes_1">
   <g id="patch_2">
    <path d="M 144 512.64 
L 549.818182 512.64 
L 549.818182 69.12 
L 144 69.12 
z
" style="fill: #ffffff"/>
   </g>
   <g id="patch_3">
    <path d="M 145.563564 69.12 
L 250.794351 97.415064 
L 330.540015 148.658154 
L 387.062736 193.269803 
L 426.421762 232.103335 
L 454.368661 264.57741 
L 475.791301 290.486001 
L 491.334136 311.843897 
L 502.568954 330.268235 
L 512.558204 345.623406 
L 518.927308 358.814648 
L 525.668874 369.813164 
L 530.623778 379.540397 
L 535.370463 388.039135 
L 539.519616 395.514524 
L 542.361483 402.208033 
L 545.057564 408.077734 
L 547.565589 413.196803 
L 549.394827 417.979214 
L 549.818182 420.704508 
L 549.818182 429.991538 
L 546.198204 427.570299 
L 540.86961 423.424546 
L 536.106423 418.643762 
L 531.24015 413.289216 
L 526.300445 407.263868 
L 520.846756 400.530869 
L 514.857261 392.994564 
L 507.83243 384.105251 
L 498.963389 374.281386 
L 488.911794 362.270086 
L 477.700625 348.813622 
L 462.381731 332.989559 
L 443.834858 313.910361 
L 422.786019 289.519884 
L 394.736959 261.181043 
L 357.33282 225.37714 
L 306.10416 182.580246 
L 236.13404 135.980136 
L 144.710474 69.12 
z
" clip-path="url(#pd80d690567)" style="fill: #537fbf; opacity: 0.2; stroke: #537fbf; stroke-linejoin: miter"/>
   </g>
   <g id="patch_4">
    <path d="M 550.26471 419.550966 
L 550.275877 418.655771 
L 549.693695 417.134588 
L 548.452905 414.370653 
L 546.54882 410.296954 
L 543.293934 403.14018 
L 538.128842 389.485748 
L 528.107983 364.869649 
L 503.95537 320.302122 
L 439.415217 238.390155 
L 299.623446 119.918831 
L 163.584617 57.669919 
L 144 69.12 
L 144 69.12 
L 144 69.12 
L 144 69.12 
L 144 69.12 
L 144 69.12 
L 144 69.12 
L 144 69.12 
L 144 69.12 
L 144 69.12 
L 144 69.12 
L 144 69.12 
L 144 69.12 
L 144 69.12 
L 144 69.12 
L 144 69.12 
L 146.070701 93.429567 
L 237.615619 164.020208 
L 387.143075 264.714464 
L 470.090199 336.630263 
L 507.603726 378.382386 
L 522.670275 400.721622 
L 531.658497 412.293772 
L 538.048166 419.037339 
L 542.192651 422.879421 
L 544.433547 425.120731 
L 545.842701 426.480109 
L 547.241596 427.222991 
z
" clip-path="url(#pd80d690567)" style="fill: #ff800e; opacity: 0.2; stroke-dasharray: 3.7,1.6; stroke-dashoffset: 0; stroke: #ff800e; stroke-linejoin: miter"/>
   </g>
   <g id="patch_5">
    <path d="M 550.159065 417.139039 
L 550.016873 416.364058 
L 549.562873 414.852163 
L 548.79488 412.055374 
L 546.243272 406.983203 
L 542.4862 397.869637 
L 536.570898 383.48619 
L 526.018405 360.267303 
L 504.226704 316.825892 
L 442.05167 239.520069 
L 306.602876 127.968111 
L 167.013338 56.074785 
L 144 69.12 
L 144 69.12 
L 144 69.12 
L 144 69.12 
L 144 69.12 
L 144 69.12 
L 144 69.12 
L 144 69.12 
L 144 69.12 
L 144 69.12 
L 144 69.12 
L 144 69.12 
L 144 69.12 
L 144 69.12 
L 144 69.12 
L 144 69.12 
L 147.948459 101.194926 
L 243.702202 167.468215 
L 394.801288 268.926487 
L 473.19643 340.625938 
L 504.542851 378.910345 
L 522.071597 399.606188 
L 532.162623 411.674954 
L 538.003985 420.038013 
L 542.67111 424.82358 
L 546.145407 427.148924 
L 547.318483 428.3871 
L 548.246391 428.897461 
z
" clip-path="url(#pd80d690567)" style="fill: #eb1960; opacity: 0.2; stroke-dasharray: 6.4,1.6,1,1.6; stroke-dashoffset: 0; stroke: #eb1960; stroke-linejoin: miter"/>
   </g>
   <g id="patch_6">
    <path d="M 149.821911 385.505353 
L 172.670098 412.837108 
L 196.339431 413.318779 
L 219.047472 416.236115 
L 243.01793 413.404528 
L 263.290323 416.966066 
L 285.152383 416.884695 
L 307.818682 417.369621 
L 329.450382 417.313502 
L 351.792114 417.213257 
L 370.244171 418.499589 
L 393.218959 418.569055 
L 413.833663 418.818358 
L 435.968579 418.066093 
L 457.458985 418.737007 
L 478.995545 418.53238 
L 498.361653 418.878048 
L 519.591858 418.765998 
L 538.801806 418.97499 
L 549.818182 418.968259 
L 549.818182 429.540962 
L 533.808864 429.578484 
L 510.744029 429.597262 
L 486.609618 430.045445 
L 465.571768 429.71613 
L 443.218399 429.662993 
L 421.04813 430.425492 
L 397.906741 430.483631 
L 377.971147 429.91134 
L 355.916426 430.708315 
L 336.015821 429.843585 
L 313.096921 430.674885 
L 290.433337 431.259724 
L 272.242554 430.283829 
L 248.730493 431.796905 
L 229.715019 431.250734 
L 206.086358 433.384377 
L 185.219949 437.282575 
L 166.081334 438.67403 
L 146.408761 463.076279 
z
" clip-path="url(#pd80d690567)" style="fill: #ff5733; opacity: 0.2; stroke-dasharray: 1,1.65; stroke-dashoffset: 0; stroke: #ff5733; stroke-linejoin: miter"/>
   </g>
   <g id="matplotlib.axis_1">
    <g id="xtick_1">
     <g id="line2d_1">
      <defs>
       <path id="me3c5d0bd6d" d="M 0 0 
L 0 3.5 
" style="stroke: #000000; stroke-width: 0.8"/>
      </defs>
      <g>
       <use xlink:href="#me3c5d0bd6d" x="144" y="512.64" style="stroke: #000000; stroke-width: 0.8"/>
      </g>
     </g>
     <g id="text_1">
      <!-- 0.0 -->
      <g transform="translate(129.687187 533.317188) scale(0.18 -0.18)">
       <defs>
        <path id="DejaVuSans-30" d="M 2034 4250 
Q 1547 4250 1301 3770 
Q 1056 3291 1056 2328 
Q 1056 1369 1301 889 
Q 1547 409 2034 409 
Q 2525 409 2770 889 
Q 3016 1369 3016 2328 
Q 3016 3291 2770 3770 
Q 2525 4250 2034 4250 
z
M 2034 4750 
Q 2819 4750 3233 4129 
Q 3647 3509 3647 2328 
Q 3647 1150 3233 529 
Q 2819 -91 2034 -91 
Q 1250 -91 836 529 
Q 422 1150 422 2328 
Q 422 3509 836 4129 
Q 1250 4750 2034 4750 
z
" transform="scale(0.015625)"/>
        <path id="DejaVuSans-2e" d="M 684 794 
L 1344 794 
L 1344 0 
L 684 0 
L 684 794 
z
" transform="scale(0.015625)"/>
       </defs>
       <use xlink:href="#DejaVuSans-30"/>
       <use xlink:href="#DejaVuSans-2e" x="63.623047"/>
       <use xlink:href="#DejaVuSans-30" x="95.410156"/>
      </g>
     </g>
    </g>
    <g id="xtick_2">
     <g id="line2d_2">
      <g>
       <use xlink:href="#me3c5d0bd6d" x="225.163636" y="512.64" style="stroke: #000000; stroke-width: 0.8"/>
      </g>
     </g>
     <g id="text_2">
      <!-- 0.2 -->
      <g transform="translate(210.850824 533.317188) scale(0.18 -0.18)">
       <defs>
        <path id="DejaVuSans-32" d="M 1228 531 
L 3431 531 
L 3431 0 
L 469 0 
L 469 531 
Q 828 903 1448 1529 
Q 2069 2156 2228 2338 
Q 2531 2678 2651 2914 
Q 2772 3150 2772 3378 
Q 2772 3750 2511 3984 
Q 2250 4219 1831 4219 
Q 1534 4219 1204 4116 
Q 875 4013 500 3803 
L 500 4441 
Q 881 4594 1212 4672 
Q 1544 4750 1819 4750 
Q 2544 4750 2975 4387 
Q 3406 4025 3406 3419 
Q 3406 3131 3298 2873 
Q 3191 2616 2906 2266 
Q 2828 2175 2409 1742 
Q 1991 1309 1228 531 
z
" transform="scale(0.015625)"/>
       </defs>
       <use xlink:href="#DejaVuSans-30"/>
       <use xlink:href="#DejaVuSans-2e" x="63.623047"/>
       <use xlink:href="#DejaVuSans-32" x="95.410156"/>
      </g>
     </g>
    </g>
    <g id="xtick_3">
     <g id="line2d_3">
      <g>
       <use xlink:href="#me3c5d0bd6d" x="306.327273" y="512.64" style="stroke: #000000; stroke-width: 0.8"/>
      </g>
     </g>
     <g id="text_3">
      <!-- 0.4 -->
      <g transform="translate(292.01446 533.317188) scale(0.18 -0.18)">
       <defs>
        <path id="DejaVuSans-34" d="M 2419 4116 
L 825 1625 
L 2419 1625 
L 2419 4116 
z
M 2253 4666 
L 3047 4666 
L 3047 1625 
L 3713 1625 
L 3713 1100 
L 3047 1100 
L 3047 0 
L 2419 0 
L 2419 1100 
L 313 1100 
L 313 1709 
L 2253 4666 
z
" transform="scale(0.015625)"/>
       </defs>
       <use xlink:href="#DejaVuSans-30"/>
       <use xlink:href="#DejaVuSans-2e" x="63.623047"/>
       <use xlink:href="#DejaVuSans-34" x="95.410156"/>
      </g>
     </g>
    </g>
    <g id="xtick_4">
     <g id="line2d_4">
      <g>
       <use xlink:href="#me3c5d0bd6d" x="387.490909" y="512.64" style="stroke: #000000; stroke-width: 0.8"/>
      </g>
     </g>
     <g id="text_4">
      <!-- 0.6 -->
      <g transform="translate(373.178097 533.317188) scale(0.18 -0.18)">
       <defs>
        <path id="DejaVuSans-36" d="M 2113 2584 
Q 1688 2584 1439 2293 
Q 1191 2003 1191 1497 
Q 1191 994 1439 701 
Q 1688 409 2113 409 
Q 2538 409 2786 701 
Q 3034 994 3034 1497 
Q 3034 2003 2786 2293 
Q 2538 2584 2113 2584 
z
M 3366 4563 
L 3366 3988 
Q 3128 4100 2886 4159 
Q 2644 4219 2406 4219 
Q 1781 4219 1451 3797 
Q 1122 3375 1075 2522 
Q 1259 2794 1537 2939 
Q 1816 3084 2150 3084 
Q 2853 3084 3261 2657 
Q 3669 2231 3669 1497 
Q 3669 778 3244 343 
Q 2819 -91 2113 -91 
Q 1303 -91 875 529 
Q 447 1150 447 2328 
Q 447 3434 972 4092 
Q 1497 4750 2381 4750 
Q 2619 4750 2861 4703 
Q 3103 4656 3366 4563 
z
" transform="scale(0.015625)"/>
       </defs>
       <use xlink:href="#DejaVuSans-30"/>
       <use xlink:href="#DejaVuSans-2e" x="63.623047"/>
       <use xlink:href="#DejaVuSans-36" x="95.410156"/>
      </g>
     </g>
    </g>
    <g id="xtick_5">
     <g id="line2d_5">
      <g>
       <use xlink:href="#me3c5d0bd6d" x="468.654545" y="512.64" style="stroke: #000000; stroke-width: 0.8"/>
      </g>
     </g>
     <g id="text_5">
      <!-- 0.8 -->
      <g transform="translate(454.341733 533.317188) scale(0.18 -0.18)">
       <defs>
        <path id="DejaVuSans-38" d="M 2034 2216 
Q 1584 2216 1326 1975 
Q 1069 1734 1069 1313 
Q 1069 891 1326 650 
Q 1584 409 2034 409 
Q 2484 409 2743 651 
Q 3003 894 3003 1313 
Q 3003 1734 2745 1975 
Q 2488 2216 2034 2216 
z
M 1403 2484 
Q 997 2584 770 2862 
Q 544 3141 544 3541 
Q 544 4100 942 4425 
Q 1341 4750 2034 4750 
Q 2731 4750 3128 4425 
Q 3525 4100 3525 3541 
Q 3525 3141 3298 2862 
Q 3072 2584 2669 2484 
Q 3125 2378 3379 2068 
Q 3634 1759 3634 1313 
Q 3634 634 3220 271 
Q 2806 -91 2034 -91 
Q 1263 -91 848 271 
Q 434 634 434 1313 
Q 434 1759 690 2068 
Q 947 2378 1403 2484 
z
M 1172 3481 
Q 1172 3119 1398 2916 
Q 1625 2713 2034 2713 
Q 2441 2713 2670 2916 
Q 2900 3119 2900 3481 
Q 2900 3844 2670 4047 
Q 2441 4250 2034 4250 
Q 1625 4250 1398 4047 
Q 1172 3844 1172 3481 
z
" transform="scale(0.015625)"/>
       </defs>
       <use xlink:href="#DejaVuSans-30"/>
       <use xlink:href="#DejaVuSans-2e" x="63.623047"/>
       <use xlink:href="#DejaVuSans-38" x="95.410156"/>
      </g>
     </g>
    </g>
    <g id="xtick_6">
     <g id="line2d_6">
      <g>
       <use xlink:href="#me3c5d0bd6d" x="549.818182" y="512.64" style="stroke: #000000; stroke-width: 0.8"/>
      </g>
     </g>
     <g id="text_6">
      <!-- 1.0 -->
      <g transform="translate(535.505369 533.317188) scale(0.18 -0.18)">
       <defs>
        <path id="DejaVuSans-31" d="M 794 531 
L 1825 531 
L 1825 4091 
L 703 3866 
L 703 4441 
L 1819 4666 
L 2450 4666 
L 2450 531 
L 3481 531 
L 3481 0 
L 794 0 
L 794 531 
z
" transform="scale(0.015625)"/>
       </defs>
       <use xlink:href="#DejaVuSans-31"/>
       <use xlink:href="#DejaVuSans-2e" x="63.623047"/>
       <use xlink:href="#DejaVuSans-30" x="95.410156"/>
      </g>
     </g>
    </g>
    <g id="text_7">
     <!-- Recall -->
     <g transform="translate(311.107841 559.296875) scale(0.24 -0.24)">
      <defs>
       <path id="DejaVuSans-52" d="M 2841 2188 
Q 3044 2119 3236 1894 
Q 3428 1669 3622 1275 
L 4263 0 
L 3584 0 
L 2988 1197 
Q 2756 1666 2539 1819 
Q 2322 1972 1947 1972 
L 1259 1972 
L 1259 0 
L 628 0 
L 628 4666 
L 2053 4666 
Q 2853 4666 3247 4331 
Q 3641 3997 3641 3322 
Q 3641 2881 3436 2590 
Q 3231 2300 2841 2188 
z
M 1259 4147 
L 1259 2491 
L 2053 2491 
Q 2509 2491 2742 2702 
Q 2975 2913 2975 3322 
Q 2975 3731 2742 3939 
Q 2509 4147 2053 4147 
L 1259 4147 
z
" transform="scale(0.015625)"/>
       <path id="DejaVuSans-65" d="M 3597 1894 
L 3597 1613 
L 953 1613 
Q 991 1019 1311 708 
Q 1631 397 2203 397 
Q 2534 397 2845 478 
Q 3156 559 3463 722 
L 3463 178 
Q 3153 47 2828 -22 
Q 2503 -91 2169 -91 
Q 1331 -91 842 396 
Q 353 884 353 1716 
Q 353 2575 817 3079 
Q 1281 3584 2069 3584 
Q 2775 3584 3186 3129 
Q 3597 2675 3597 1894 
z
M 3022 2063 
Q 3016 2534 2758 2815 
Q 2500 3097 2075 3097 
Q 1594 3097 1305 2825 
Q 1016 2553 972 2059 
L 3022 2063 
z
" transform="scale(0.015625)"/>
       <path id="DejaVuSans-63" d="M 3122 3366 
L 3122 2828 
Q 2878 2963 2633 3030 
Q 2388 3097 2138 3097 
Q 1578 3097 1268 2742 
Q 959 2388 959 1747 
Q 959 1106 1268 751 
Q 1578 397 2138 397 
Q 2388 397 2633 464 
Q 2878 531 3122 666 
L 3122 134 
Q 2881 22 2623 -34 
Q 2366 -91 2075 -91 
Q 1284 -91 818 406 
Q 353 903 353 1747 
Q 353 2603 823 3093 
Q 1294 3584 2113 3584 
Q 2378 3584 2631 3529 
Q 2884 3475 3122 3366 
z
" transform="scale(0.015625)"/>
       <path id="DejaVuSans-61" d="M 2194 1759 
Q 1497 1759 1228 1600 
Q 959 1441 959 1056 
Q 959 750 1161 570 
Q 1363 391 1709 391 
Q 2188 391 2477 730 
Q 2766 1069 2766 1631 
L 2766 1759 
L 2194 1759 
z
M 3341 1997 
L 3341 0 
L 2766 0 
L 2766 531 
Q 2569 213 2275 61 
Q 1981 -91 1556 -91 
Q 1019 -91 701 211 
Q 384 513 384 1019 
Q 384 1609 779 1909 
Q 1175 2209 1959 2209 
L 2766 2209 
L 2766 2266 
Q 2766 2663 2505 2880 
Q 2244 3097 1772 3097 
Q 1472 3097 1187 3025 
Q 903 2953 641 2809 
L 641 3341 
Q 956 3463 1253 3523 
Q 1550 3584 1831 3584 
Q 2591 3584 2966 3190 
Q 3341 2797 3341 1997 
z
" transform="scale(0.015625)"/>
       <path id="DejaVuSans-6c" d="M 603 4863 
L 1178 4863 
L 1178 0 
L 603 0 
L 603 4863 
z
" transform="scale(0.015625)"/>
      </defs>
      <use xlink:href="#DejaVuSans-52"/>
      <use xlink:href="#DejaVuSans-65" x="64.982422"/>
      <use xlink:href="#DejaVuSans-63" x="126.505859"/>
      <use xlink:href="#DejaVuSans-61" x="181.486328"/>
      <use xlink:href="#DejaVuSans-6c" x="242.765625"/>
      <use xlink:href="#DejaVuSans-6c" x="270.548828"/>
     </g>
    </g>
   </g>
   <g id="matplotlib.axis_2">
    <g id="ytick_1">
     <g id="line2d_7">
      <defs>
       <path id="ma59c1cd0a7" d="M 0 0 
L -3.5 0 
" style="stroke: #000000; stroke-width: 0.8"/>
      </defs>
      <g>
       <use xlink:href="#ma59c1cd0a7" x="144" y="512.64" style="stroke: #000000; stroke-width: 0.8"/>
      </g>
     </g>
     <g id="text_8">
      <!-- 0.0 -->
      <g transform="translate(108.374375 519.478594) scale(0.18 -0.18)">
       <use xlink:href="#DejaVuSans-30"/>
       <use xlink:href="#DejaVuSans-2e" x="63.623047"/>
       <use xlink:href="#DejaVuSans-30" x="95.410156"/>
      </g>
     </g>
    </g>
    <g id="ytick_2">
     <g id="line2d_8">
      <g>
       <use xlink:href="#ma59c1cd0a7" x="144" y="423.936" style="stroke: #000000; stroke-width: 0.8"/>
      </g>
     </g>
     <g id="text_9">
      <!-- 0.2 -->
      <g transform="translate(108.374375 430.774594) scale(0.18 -0.18)">
       <use xlink:href="#DejaVuSans-30"/>
       <use xlink:href="#DejaVuSans-2e" x="63.623047"/>
       <use xlink:href="#DejaVuSans-32" x="95.410156"/>
      </g>
     </g>
    </g>
    <g id="ytick_3">
     <g id="line2d_9">
      <g>
       <use xlink:href="#ma59c1cd0a7" x="144" y="335.232" style="stroke: #000000; stroke-width: 0.8"/>
      </g>
     </g>
     <g id="text_10">
      <!-- 0.4 -->
      <g transform="translate(108.374375 342.070594) scale(0.18 -0.18)">
       <use xlink:href="#DejaVuSans-30"/>
       <use xlink:href="#DejaVuSans-2e" x="63.623047"/>
       <use xlink:href="#DejaVuSans-34" x="95.410156"/>
      </g>
     </g>
    </g>
    <g id="ytick_4">
     <g id="line2d_10">
      <g>
       <use xlink:href="#ma59c1cd0a7" x="144" y="246.528" style="stroke: #000000; stroke-width: 0.8"/>
      </g>
     </g>
     <g id="text_11">
      <!-- 0.6 -->
      <g transform="translate(108.374375 253.366594) scale(0.18 -0.18)">
       <use xlink:href="#DejaVuSans-30"/>
       <use xlink:href="#DejaVuSans-2e" x="63.623047"/>
       <use xlink:href="#DejaVuSans-36" x="95.410156"/>
      </g>
     </g>
    </g>
    <g id="ytick_5">
     <g id="line2d_11">
      <g>
       <use xlink:href="#ma59c1cd0a7" x="144" y="157.824" style="stroke: #000000; stroke-width: 0.8"/>
      </g>
     </g>
     <g id="text_12">
      <!-- 0.8 -->
      <g transform="translate(108.374375 164.662594) scale(0.18 -0.18)">
       <use xlink:href="#DejaVuSans-30"/>
       <use xlink:href="#DejaVuSans-2e" x="63.623047"/>
       <use xlink:href="#DejaVuSans-38" x="95.410156"/>
      </g>
     </g>
    </g>
    <g id="ytick_6">
     <g id="line2d_12">
      <g>
       <use xlink:href="#ma59c1cd0a7" x="144" y="69.12" style="stroke: #000000; stroke-width: 0.8"/>
      </g>
     </g>
     <g id="text_13">
      <!-- 1.0 -->
      <g transform="translate(108.374375 75.958594) scale(0.18 -0.18)">
       <use xlink:href="#DejaVuSans-31"/>
       <use xlink:href="#DejaVuSans-2e" x="63.623047"/>
       <use xlink:href="#DejaVuSans-30" x="95.410156"/>
      </g>
     </g>
    </g>
    <g id="text_14">
     <!-- Precision -->
     <g transform="translate(99.383125 344.416875) rotate(-90) scale(0.24 -0.24)">
      <defs>
       <path id="DejaVuSans-50" d="M 1259 4147 
L 1259 2394 
L 2053 2394 
Q 2494 2394 2734 2622 
Q 2975 2850 2975 3272 
Q 2975 3691 2734 3919 
Q 2494 4147 2053 4147 
L 1259 4147 
z
M 628 4666 
L 2053 4666 
Q 2838 4666 3239 4311 
Q 3641 3956 3641 3272 
Q 3641 2581 3239 2228 
Q 2838 1875 2053 1875 
L 1259 1875 
L 1259 0 
L 628 0 
L 628 4666 
z
" transform="scale(0.015625)"/>
       <path id="DejaVuSans-72" d="M 2631 2963 
Q 2534 3019 2420 3045 
Q 2306 3072 2169 3072 
Q 1681 3072 1420 2755 
Q 1159 2438 1159 1844 
L 1159 0 
L 581 0 
L 581 3500 
L 1159 3500 
L 1159 2956 
Q 1341 3275 1631 3429 
Q 1922 3584 2338 3584 
Q 2397 3584 2469 3576 
Q 2541 3569 2628 3553 
L 2631 2963 
z
" transform="scale(0.015625)"/>
       <path id="DejaVuSans-69" d="M 603 3500 
L 1178 3500 
L 1178 0 
L 603 0 
L 603 3500 
z
M 603 4863 
L 1178 4863 
L 1178 4134 
L 603 4134 
L 603 4863 
z
" transform="scale(0.015625)"/>
       <path id="DejaVuSans-73" d="M 2834 3397 
L 2834 2853 
Q 2591 2978 2328 3040 
Q 2066 3103 1784 3103 
Q 1356 3103 1142 2972 
Q 928 2841 928 2578 
Q 928 2378 1081 2264 
Q 1234 2150 1697 2047 
L 1894 2003 
Q 2506 1872 2764 1633 
Q 3022 1394 3022 966 
Q 3022 478 2636 193 
Q 2250 -91 1575 -91 
Q 1294 -91 989 -36 
Q 684 19 347 128 
L 347 722 
Q 666 556 975 473 
Q 1284 391 1588 391 
Q 1994 391 2212 530 
Q 2431 669 2431 922 
Q 2431 1156 2273 1281 
Q 2116 1406 1581 1522 
L 1381 1569 
Q 847 1681 609 1914 
Q 372 2147 372 2553 
Q 372 3047 722 3315 
Q 1072 3584 1716 3584 
Q 2034 3584 2315 3537 
Q 2597 3491 2834 3397 
z
" transform="scale(0.015625)"/>
       <path id="DejaVuSans-6f" d="M 1959 3097 
Q 1497 3097 1228 2736 
Q 959 2375 959 1747 
Q 959 1119 1226 758 
Q 1494 397 1959 397 
Q 2419 397 2687 759 
Q 2956 1122 2956 1747 
Q 2956 2369 2687 2733 
Q 2419 3097 1959 3097 
z
M 1959 3584 
Q 2709 3584 3137 3096 
Q 3566 2609 3566 1747 
Q 3566 888 3137 398 
Q 2709 -91 1959 -91 
Q 1206 -91 779 398 
Q 353 888 353 1747 
Q 353 2609 779 3096 
Q 1206 3584 1959 3584 
z
" transform="scale(0.015625)"/>
       <path id="DejaVuSans-6e" d="M 3513 2113 
L 3513 0 
L 2938 0 
L 2938 2094 
Q 2938 2591 2744 2837 
Q 2550 3084 2163 3084 
Q 1697 3084 1428 2787 
Q 1159 2491 1159 1978 
L 1159 0 
L 581 0 
L 581 3500 
L 1159 3500 
L 1159 2956 
Q 1366 3272 1645 3428 
Q 1925 3584 2291 3584 
Q 2894 3584 3203 3211 
Q 3513 2838 3513 2113 
z
" transform="scale(0.015625)"/>
      </defs>
      <use xlink:href="#DejaVuSans-50"/>
      <use xlink:href="#DejaVuSans-72" x="58.552734"/>
      <use xlink:href="#DejaVuSans-65" x="97.416016"/>
      <use xlink:href="#DejaVuSans-63" x="158.939453"/>
      <use xlink:href="#DejaVuSans-69" x="213.919922"/>
      <use xlink:href="#DejaVuSans-73" x="241.703125"/>
      <use xlink:href="#DejaVuSans-69" x="293.802734"/>
      <use xlink:href="#DejaVuSans-6f" x="321.585938"/>
      <use xlink:href="#DejaVuSans-6e" x="382.767578"/>
     </g>
    </g>
   </g>
   <g id="line2d_13">
    <path d="M 145.137019 69.12 
L 243.464195 116.6976 
L 318.322088 165.6192 
L 372.197778 209.323471 
L 410.57936 246.642189 
L 438.57734 277.048647 
L 459.813079 302.198181 
L 476.857933 322.416728 
L 490.134789 339.540929 
L 500.734999 353.946746 
L 508.945349 366.548017 
L 516.750652 376.959207 
L 522.740519 386.267481 
L 528.10861 394.285002 
L 532.910031 401.389196 
L 536.800817 407.748625 
L 540.581994 413.360748 
L 544.217599 418.310675 
L 547.796515 422.774757 
L 549.818182 425.348023 
" clip-path="url(#pd80d690567)" style="fill: none; stroke: #537fbf; stroke-width: 1.5; stroke-linecap: square"/>
   </g>
   <g id="line2d_14">
    <path d="M 548.753153 423.386979 
L 548.059289 422.56794 
L 547.063621 421.12766 
L 545.322778 418.625037 
L 542.298493 414.667147 
L 537.476216 407.716976 
L 530.399558 395.103685 
L 517.855854 371.626018 
L 487.022784 328.466193 
L 413.279146 251.55231 
L 268.619533 141.969519 
L 154.827659 75.549743 
L 144 69.12 
L 144 69.12 
L 144 69.12 
L 144 69.12 
L 144 69.12 
L 144 69.12 
L 144 69.12 
L 144 69.12 
" clip-path="url(#pd80d690567)" style="fill: none; stroke-dasharray: 5.55,2.4; stroke-dashoffset: 0; stroke: #ff800e; stroke-width: 1.5"/>
   </g>
   <g id="line2d_15">
    <path d="M 549.202728 423.01825 
L 548.667678 422.375579 
L 547.85414 421.000543 
L 545.732995 418.439477 
L 542.123628 413.510608 
L 537.324412 404.772295 
L 529.321247 391.546189 
L 515.280628 369.588824 
L 488.711567 328.725915 
L 418.426479 254.223278 
L 275.152539 147.718163 
L 157.480899 78.634855 
L 144 69.12 
L 144 69.12 
L 144 69.12 
L 144 69.12 
L 144 69.12 
L 144 69.12 
L 144 69.12 
L 144 69.12 
" clip-path="url(#pd80d690567)" style="fill: none; stroke-dasharray: 9.6,2.4,1.5,2.4; stroke-dashoffset: 0; stroke: #eb1960; stroke-width: 1.5"/>
   </g>
   <g id="line2d_16">
    <path d="M 148.115336 424.290816 
L 169.375716 425.755569 
L 190.77969 425.300677 
L 212.566915 424.810246 
L 236.366474 422.327631 
L 256.010408 424.381485 
L 278.697469 423.584262 
L 299.126009 424.314672 
L 321.273651 423.994194 
L 343.903968 423.528421 
L 363.080298 424.603952 
L 385.595053 424.240198 
L 405.870202 424.650994 
L 428.508354 424.245793 
L 450.338692 424.2 
L 472.283656 424.124255 
L 492.485635 424.461747 
L 515.167943 424.18163 
L 536.305335 424.276737 
L 549.818182 424.25461 
" clip-path="url(#pd80d690567)" style="fill: none; stroke-dasharray: 1.5,2.475; stroke-dashoffset: 0; stroke: #ff5733; stroke-width: 1.5"/>
   </g>
   <g id="patch_7">
    <path d="M 144 512.64 
L 144 69.12 
" style="fill: none; stroke: #000000; stroke-width: 0.8; stroke-linejoin: miter; stroke-linecap: square"/>
   </g>
   <g id="patch_8">
    <path d="M 549.818182 512.64 
L 549.818182 69.12 
" style="fill: none; stroke: #000000; stroke-width: 0.8; stroke-linejoin: miter; stroke-linecap: square"/>
   </g>
   <g id="patch_9">
    <path d="M 144 512.64 
L 549.818182 512.64 
" style="fill: none; stroke: #000000; stroke-width: 0.8; stroke-linejoin: miter; stroke-linecap: square"/>
   </g>
   <g id="patch_10">
    <path d="M 144 69.12 
L 549.818182 69.12 
" style="fill: none; stroke: #000000; stroke-width: 0.8; stroke-linejoin: miter; stroke-linecap: square"/>
   </g>
   <g id="text_15">
    <!-- Left Axis -->
    <g transform="translate(278.524091 62.465) scale(0.32 -0.32)">
     <defs>
      <path id="DejaVuSans-4c" d="M 628 4666 
L 1259 4666 
L 1259 531 
L 3531 531 
L 3531 0 
L 628 0 
L 628 4666 
z
" transform="scale(0.015625)"/>
      <path id="DejaVuSans-66" d="M 2375 4863 
L 2375 4384 
L 1825 4384 
Q 1516 4384 1395 4259 
Q 1275 4134 1275 3809 
L 1275 3500 
L 2222 3500 
L 2222 3053 
L 1275 3053 
L 1275 0 
L 697 0 
L 697 3053 
L 147 3053 
L 147 3500 
L 697 3500 
L 697 3744 
Q 697 4328 969 4595 
Q 1241 4863 1831 4863 
L 2375 4863 
z
" transform="scale(0.015625)"/>
      <path id="DejaVuSans-74" d="M 1172 4494 
L 1172 3500 
L 2356 3500 
L 2356 3053 
L 1172 3053 
L 1172 1153 
Q 1172 725 1289 603 
Q 1406 481 1766 481 
L 2356 481 
L 2356 0 
L 1766 0 
Q 1100 0 847 248 
Q 594 497 594 1153 
L 594 3053 
L 172 3053 
L 172 3500 
L 594 3500 
L 594 4494 
L 1172 4494 
z
" transform="scale(0.015625)"/>
      <path id="DejaVuSans-20" transform="scale(0.015625)"/>
      <path id="DejaVuSans-41" d="M 2188 4044 
L 1331 1722 
L 3047 1722 
L 2188 4044 
z
M 1831 4666 
L 2547 4666 
L 4325 0 
L 3669 0 
L 3244 1197 
L 1141 1197 
L 716 0 
L 50 0 
L 1831 4666 
z
" transform="scale(0.015625)"/>
      <path id="DejaVuSans-78" d="M 3513 3500 
L 2247 1797 
L 3578 0 
L 2900 0 
L 1881 1375 
L 863 0 
L 184 0 
L 1544 1831 
L 300 3500 
L 978 3500 
L 1906 2253 
L 2834 3500 
L 3513 3500 
z
" transform="scale(0.015625)"/>
     </defs>
     <use xlink:href="#DejaVuSans-4c"/>
     <use xlink:href="#DejaVuSans-65" x="53.962891"/>
     <use xlink:href="#DejaVuSans-66" x="115.486328"/>
     <use xlink:href="#DejaVuSans-74" x="148.941406"/>
     <use xlink:href="#DejaVuSans-20" x="188.150391"/>
     <use xlink:href="#DejaVuSans-41" x="219.9375"/>
     <use xlink:href="#DejaVuSans-78" x="288.345703"/>
     <use xlink:href="#DejaVuSans-69" x="347.525391"/>
     <use xlink:href="#DejaVuSans-73" x="375.308594"/>
    </g>
   </g>
   <g id="legend_1">
    <g id="patch_11">
     <path d="M 391.350682 189.2025 
L 537.218182 189.2025 
Q 540.818182 189.2025 540.818182 185.6025 
L 540.818182 81.72 
Q 540.818182 78.12 537.218182 78.12 
L 391.350682 78.12 
Q 387.750682 78.12 387.750682 81.72 
L 387.750682 185.6025 
Q 387.750682 189.2025 391.350682 189.2025 
z
" style="fill: #ffffff; opacity: 0.8; stroke: #cccccc; stroke-linejoin: miter"/>
    </g>
    <g id="line2d_17">
     <path d="M 394.950682 92.697187 
L 412.950682 92.697187 
L 430.950682 92.697187 
" style="fill: none; stroke: #537fbf; stroke-width: 1.5; stroke-linecap: square"/>
    </g>
    <g id="text_16">
     <!-- GmGM -->
     <g transform="translate(445.350682 98.997187) scale(0.18 -0.18)">
      <defs>
       <path id="DejaVuSans-47" d="M 3809 666 
L 3809 1919 
L 2778 1919 
L 2778 2438 
L 4434 2438 
L 4434 434 
Q 4069 175 3628 42 
Q 3188 -91 2688 -91 
Q 1594 -91 976 548 
Q 359 1188 359 2328 
Q 359 3472 976 4111 
Q 1594 4750 2688 4750 
Q 3144 4750 3555 4637 
Q 3966 4525 4313 4306 
L 4313 3634 
Q 3963 3931 3569 4081 
Q 3175 4231 2741 4231 
Q 1884 4231 1454 3753 
Q 1025 3275 1025 2328 
Q 1025 1384 1454 906 
Q 1884 428 2741 428 
Q 3075 428 3337 486 
Q 3600 544 3809 666 
z
" transform="scale(0.015625)"/>
       <path id="DejaVuSans-6d" d="M 3328 2828 
Q 3544 3216 3844 3400 
Q 4144 3584 4550 3584 
Q 5097 3584 5394 3201 
Q 5691 2819 5691 2113 
L 5691 0 
L 5113 0 
L 5113 2094 
Q 5113 2597 4934 2840 
Q 4756 3084 4391 3084 
Q 3944 3084 3684 2787 
Q 3425 2491 3425 1978 
L 3425 0 
L 2847 0 
L 2847 2094 
Q 2847 2600 2669 2842 
Q 2491 3084 2119 3084 
Q 1678 3084 1418 2786 
Q 1159 2488 1159 1978 
L 1159 0 
L 581 0 
L 581 3500 
L 1159 3500 
L 1159 2956 
Q 1356 3278 1631 3431 
Q 1906 3584 2284 3584 
Q 2666 3584 2933 3390 
Q 3200 3197 3328 2828 
z
" transform="scale(0.015625)"/>
       <path id="DejaVuSans-4d" d="M 628 4666 
L 1569 4666 
L 2759 1491 
L 3956 4666 
L 4897 4666 
L 4897 0 
L 4281 0 
L 4281 4097 
L 3078 897 
L 2444 897 
L 1241 4097 
L 1241 0 
L 628 0 
L 628 4666 
z
" transform="scale(0.015625)"/>
      </defs>
      <use xlink:href="#DejaVuSans-47"/>
      <use xlink:href="#DejaVuSans-6d" x="77.490234"/>
      <use xlink:href="#DejaVuSans-47" x="174.902344"/>
      <use xlink:href="#DejaVuSans-4d" x="252.392578"/>
     </g>
    </g>
    <g id="line2d_18">
     <path d="M 394.950682 119.117812 
L 412.950682 119.117812 
L 430.950682 119.117812 
" style="fill: none; stroke-dasharray: 5.55,2.4; stroke-dashoffset: 0; stroke: #ff800e; stroke-width: 1.5"/>
    </g>
    <g id="text_17">
     <!-- TeraLasso -->
     <g transform="translate(445.350682 125.417812) scale(0.18 -0.18)">
      <defs>
       <path id="DejaVuSans-54" d="M -19 4666 
L 3928 4666 
L 3928 4134 
L 2272 4134 
L 2272 0 
L 1638 0 
L 1638 4134 
L -19 4134 
L -19 4666 
z
" transform="scale(0.015625)"/>
      </defs>
      <use xlink:href="#DejaVuSans-54"/>
      <use xlink:href="#DejaVuSans-65" x="44.083984"/>
      <use xlink:href="#DejaVuSans-72" x="105.607422"/>
      <use xlink:href="#DejaVuSans-61" x="146.720703"/>
      <use xlink:href="#DejaVuSans-4c" x="208"/>
      <use xlink:href="#DejaVuSans-61" x="263.712891"/>
      <use xlink:href="#DejaVuSans-73" x="324.992188"/>
      <use xlink:href="#DejaVuSans-73" x="377.091797"/>
      <use xlink:href="#DejaVuSans-6f" x="429.191406"/>
     </g>
    </g>
    <g id="line2d_19">
     <path d="M 394.950682 145.538437 
L 412.950682 145.538437 
L 430.950682 145.538437 
" style="fill: none; stroke-dasharray: 9.6,2.4,1.5,2.4; stroke-dashoffset: 0; stroke: #eb1960; stroke-width: 1.5"/>
    </g>
    <g id="text_18">
     <!-- EiGLasso -->
     <g transform="translate(445.350682 151.838437) scale(0.18 -0.18)">
      <defs>
       <path id="DejaVuSans-45" d="M 628 4666 
L 3578 4666 
L 3578 4134 
L 1259 4134 
L 1259 2753 
L 3481 2753 
L 3481 2222 
L 1259 2222 
L 1259 531 
L 3634 531 
L 3634 0 
L 628 0 
L 628 4666 
z
" transform="scale(0.015625)"/>
      </defs>
      <use xlink:href="#DejaVuSans-45"/>
      <use xlink:href="#DejaVuSans-69" x="63.183594"/>
      <use xlink:href="#DejaVuSans-47" x="90.966797"/>
      <use xlink:href="#DejaVuSans-4c" x="168.457031"/>
      <use xlink:href="#DejaVuSans-61" x="224.169922"/>
      <use xlink:href="#DejaVuSans-73" x="285.449219"/>
      <use xlink:href="#DejaVuSans-73" x="337.548828"/>
      <use xlink:href="#DejaVuSans-6f" x="389.648438"/>
     </g>
    </g>
    <g id="line2d_20">
     <path d="M 394.950682 171.959062 
L 412.950682 171.959062 
L 430.950682 171.959062 
" style="fill: none; stroke-dasharray: 1.5,2.475; stroke-dashoffset: 0; stroke: #ff5733; stroke-width: 1.5"/>
    </g>
    <g id="text_19">
     <!-- Random -->
     <g transform="translate(445.350682 178.259062) scale(0.18 -0.18)">
      <defs>
       <path id="DejaVuSans-64" d="M 2906 2969 
L 2906 4863 
L 3481 4863 
L 3481 0 
L 2906 0 
L 2906 525 
Q 2725 213 2448 61 
Q 2172 -91 1784 -91 
Q 1150 -91 751 415 
Q 353 922 353 1747 
Q 353 2572 751 3078 
Q 1150 3584 1784 3584 
Q 2172 3584 2448 3432 
Q 2725 3281 2906 2969 
z
M 947 1747 
Q 947 1113 1208 752 
Q 1469 391 1925 391 
Q 2381 391 2643 752 
Q 2906 1113 2906 1747 
Q 2906 2381 2643 2742 
Q 2381 3103 1925 3103 
Q 1469 3103 1208 2742 
Q 947 2381 947 1747 
z
" transform="scale(0.015625)"/>
      </defs>
      <use xlink:href="#DejaVuSans-52"/>
      <use xlink:href="#DejaVuSans-61" x="67.232422"/>
      <use xlink:href="#DejaVuSans-6e" x="128.511719"/>
      <use xlink:href="#DejaVuSans-64" x="191.890625"/>
      <use xlink:href="#DejaVuSans-6f" x="255.367188"/>
      <use xlink:href="#DejaVuSans-6d" x="316.548828"/>
     </g>
    </g>
   </g>
  </g>
  <g id="axes_2">
   <g id="patch_12">
    <path d="M 630.981818 512.64 
L 1036.8 512.64 
L 1036.8 69.12 
L 630.981818 69.12 
z
" style="fill: #ffffff"/>
   </g>
   <g id="patch_13">
    <path d="M 632.617925 69.12 
L 736.152647 102.7889 
L 816.170877 151.315857 
L 871.857799 195.849524 
L 912.319143 232.35315 
L 939.058675 263.791415 
L 961.59094 288.786759 
L 976.949769 309.905862 
L 988.886529 327.783225 
L 997.30306 343.658902 
L 1005.786534 356.208289 
L 1012.544869 367.891825 
L 1017.978957 377.34379 
L 1022.28892 386.068899 
L 1026.257983 393.385919 
L 1028.93798 400.171637 
L 1031.570461 406.359945 
L 1034.303428 411.770828 
L 1036.529407 416.53455 
L 1036.8 419.29634 
L 1036.8 429.850101 
L 1033.280911 427.366748 
L 1028.669181 423.057399 
L 1025.352292 418.153769 
L 1021.448634 412.698462 
L 1016.296604 406.618667 
L 1009.815927 399.824423 
L 1003.507599 392.271842 
L 996.55919 383.060487 
L 988.35001 373.382724 
L 977.480934 361.717314 
L 967.47321 347.211379 
L 953.071951 330.223856 
L 935.078412 309.950513 
L 911.730478 286.531241 
L 881.5721 257.722205 
L 843.731174 221.38741 
L 791.622087 179.922543 
L 721.454544 137.3263 
L 631.784443 69.12 
z
" clip-path="url(#p8ac57ef575)" style="fill: #537fbf; opacity: 0.2; stroke: #537fbf; stroke-linejoin: miter"/>
   </g>
   <g id="patch_14">
    <path d="M 1036.948063 418.031282 
L 1036.674575 417.177838 
L 1036.503332 415.863797 
L 1035.058721 413.230826 
L 1032.591825 409.04789 
L 1029.795168 402.140705 
L 1024.688746 388.786457 
L 1014.926574 363.061857 
L 990.271498 318.01532 
L 929.945755 238.845923 
L 788.94046 122.703253 
L 649.225131 52.399902 
L 631.2704 69.12 
L 630.981818 69.12 
L 630.981818 69.12 
L 630.981818 69.12 
L 630.981818 69.12 
L 630.981818 69.12 
L 630.981818 69.12 
L 630.981818 69.12 
L 630.981818 69.12 
L 630.981818 69.12 
L 630.981818 69.12 
L 630.981818 69.12 
L 630.981818 69.12 
L 630.981818 69.12 
L 630.981818 69.12 
L 630.765382 69.12 
L 634.230934 111.837528 
L 722.577643 160.519885 
L 871.782584 265.639476 
L 957.314258 342.611758 
L 995.459543 382.695123 
L 1009.875191 404.275452 
L 1018.875669 415.933483 
L 1025.687965 422.521336 
L 1029.137685 426.229511 
L 1032.099734 428.224268 
L 1034.005269 429.462356 
L 1034.888332 430.189188 
z
" clip-path="url(#p8ac57ef575)" style="fill: #ff800e; opacity: 0.2; stroke-dasharray: 3.7,1.6; stroke-dashoffset: 0; stroke: #ff800e; stroke-linejoin: miter"/>
   </g>
   <g id="patch_15">
    <path d="M 1037.369094 419.015663 
L 1037.10297 418.317658 
L 1036.358396 417.118042 
L 1035.78147 414.176893 
L 1033.681197 408.60642 
L 1029.459864 399.018149 
L 1024.909372 384.290209 
L 1014.690104 361.164261 
L 992.953114 319.22915 
L 930.201614 240.878875 
L 799.218492 129.206046 
L 654.496454 60.49697 
L 630.981818 69.12 
L 630.981818 69.12 
L 630.981818 69.12 
L 630.981818 69.12 
L 630.981818 69.12 
L 630.981818 69.12 
L 630.981818 69.12 
L 630.981818 69.12 
L 630.981818 69.12 
L 630.981818 69.12 
L 630.981818 69.12 
L 630.981818 69.12 
L 630.981818 69.12 
L 630.981818 69.12 
L 630.981818 69.12 
L 630.981818 69.12 
L 633.182353 86.87189 
L 725.157204 168.541321 
L 881.026443 267.983041 
L 961.058793 336.84561 
L 995.770177 376.756506 
L 1010.736718 398.554277 
L 1019.890626 411.40124 
L 1026.074272 419.545325 
L 1030.217432 424.234785 
L 1032.753859 426.722654 
L 1034.666759 427.970864 
L 1035.521298 428.530154 
z
" clip-path="url(#p8ac57ef575)" style="fill: #eb1960; opacity: 0.2; stroke-dasharray: 6.4,1.6,1,1.6; stroke-dashoffset: 0; stroke: #eb1960; stroke-linejoin: miter"/>
   </g>
   <g id="patch_16">
    <path d="M 637.024737 382.172987 
L 660.244735 409.872147 
L 684.246805 410.600578 
L 706.854905 412.04759 
L 726.899346 417.049178 
L 749.009171 417.075602 
L 770.505409 416.735695 
L 793.842305 417.018141 
L 815.248388 418.002379 
L 835.965549 418.267779 
L 859.172905 416.410213 
L 878.555187 418.125298 
L 899.196939 418.033338 
L 922.447905 418.186783 
L 943.853008 418.607491 
L 965.094165 418.28454 
L 984.957185 418.390259 
L 1006.287149 418.476613 
L 1026.407279 418.45723 
L 1036.8 418.555884 
L 1036.8 427.462384 
L 1020.765989 427.4677 
L 997.529694 427.517508 
L 974.639518 427.88347 
L 951.654242 427.955916 
L 931.517427 427.114109 
L 910.247627 427.361771 
L 887.860343 428.285784 
L 863.08344 429.101804 
L 843.147604 429.310982 
L 819.219118 429.292979 
L 798.533767 428.93852 
L 778.938676 428.809028 
L 754.74176 431.883749 
L 735.985585 429.984043 
L 715.030171 430.010514 
L 693.936325 432.49801 
L 671.915418 436.402992 
L 652.558464 438.909637 
L 633.476701 458.602693 
z
" clip-path="url(#p8ac57ef575)" style="fill: #ff5733; opacity: 0.2; stroke-dasharray: 1,1.65; stroke-dashoffset: 0; stroke: #ff5733; stroke-linejoin: miter"/>
   </g>
   <g id="matplotlib.axis_3">
    <g id="xtick_7">
     <g id="line2d_21">
      <g>
       <use xlink:href="#me3c5d0bd6d" x="630.981818" y="512.64" style="stroke: #000000; stroke-width: 0.8"/>
      </g>
     </g>
     <g id="text_20">
      <!-- 0.0 -->
      <g transform="translate(616.669006 533.317188) scale(0.18 -0.18)">
       <use xlink:href="#DejaVuSans-30"/>
       <use xlink:href="#DejaVuSans-2e" x="63.623047"/>
       <use xlink:href="#DejaVuSans-30" x="95.410156"/>
      </g>
     </g>
    </g>
    <g id="xtick_8">
     <g id="line2d_22">
      <g>
       <use xlink:href="#me3c5d0bd6d" x="712.145455" y="512.64" style="stroke: #000000; stroke-width: 0.8"/>
      </g>
     </g>
     <g id="text_21">
      <!-- 0.2 -->
      <g transform="translate(697.832642 533.317188) scale(0.18 -0.18)">
       <use xlink:href="#DejaVuSans-30"/>
       <use xlink:href="#DejaVuSans-2e" x="63.623047"/>
       <use xlink:href="#DejaVuSans-32" x="95.410156"/>
      </g>
     </g>
    </g>
    <g id="xtick_9">
     <g id="line2d_23">
      <g>
       <use xlink:href="#me3c5d0bd6d" x="793.309091" y="512.64" style="stroke: #000000; stroke-width: 0.8"/>
      </g>
     </g>
     <g id="text_22">
      <!-- 0.4 -->
      <g transform="translate(778.996278 533.317188) scale(0.18 -0.18)">
       <use xlink:href="#DejaVuSans-30"/>
       <use xlink:href="#DejaVuSans-2e" x="63.623047"/>
       <use xlink:href="#DejaVuSans-34" x="95.410156"/>
      </g>
     </g>
    </g>
    <g id="xtick_10">
     <g id="line2d_24">
      <g>
       <use xlink:href="#me3c5d0bd6d" x="874.472727" y="512.64" style="stroke: #000000; stroke-width: 0.8"/>
      </g>
     </g>
     <g id="text_23">
      <!-- 0.6 -->
      <g transform="translate(860.159915 533.317188) scale(0.18 -0.18)">
       <use xlink:href="#DejaVuSans-30"/>
       <use xlink:href="#DejaVuSans-2e" x="63.623047"/>
       <use xlink:href="#DejaVuSans-36" x="95.410156"/>
      </g>
     </g>
    </g>
    <g id="xtick_11">
     <g id="line2d_25">
      <g>
       <use xlink:href="#me3c5d0bd6d" x="955.636364" y="512.64" style="stroke: #000000; stroke-width: 0.8"/>
      </g>
     </g>
     <g id="text_24">
      <!-- 0.8 -->
      <g transform="translate(941.323551 533.317188) scale(0.18 -0.18)">
       <use xlink:href="#DejaVuSans-30"/>
       <use xlink:href="#DejaVuSans-2e" x="63.623047"/>
       <use xlink:href="#DejaVuSans-38" x="95.410156"/>
      </g>
     </g>
    </g>
    <g id="xtick_12">
     <g id="line2d_26">
      <g>
       <use xlink:href="#me3c5d0bd6d" x="1036.8" y="512.64" style="stroke: #000000; stroke-width: 0.8"/>
      </g>
     </g>
     <g id="text_25">
      <!-- 1.0 -->
      <g transform="translate(1022.487188 533.317188) scale(0.18 -0.18)">
       <use xlink:href="#DejaVuSans-31"/>
       <use xlink:href="#DejaVuSans-2e" x="63.623047"/>
       <use xlink:href="#DejaVuSans-30" x="95.410156"/>
      </g>
     </g>
    </g>
    <g id="text_26">
     <!-- Recall -->
     <g transform="translate(798.089659 559.296875) scale(0.24 -0.24)">
      <use xlink:href="#DejaVuSans-52"/>
      <use xlink:href="#DejaVuSans-65" x="64.982422"/>
      <use xlink:href="#DejaVuSans-63" x="126.505859"/>
      <use xlink:href="#DejaVuSans-61" x="181.486328"/>
      <use xlink:href="#DejaVuSans-6c" x="242.765625"/>
      <use xlink:href="#DejaVuSans-6c" x="270.548828"/>
     </g>
    </g>
   </g>
   <g id="matplotlib.axis_4">
    <g id="ytick_7">
     <g id="line2d_27">
      <g>
       <use xlink:href="#ma59c1cd0a7" x="630.981818" y="512.64" style="stroke: #000000; stroke-width: 0.8"/>
      </g>
     </g>
     <g id="text_27">
      <!-- 0.0 -->
      <g transform="translate(595.356193 519.478594) scale(0.18 -0.18)">
       <use xlink:href="#DejaVuSans-30"/>
       <use xlink:href="#DejaVuSans-2e" x="63.623047"/>
       <use xlink:href="#DejaVuSans-30" x="95.410156"/>
      </g>
     </g>
    </g>
    <g id="ytick_8">
     <g id="line2d_28">
      <g>
       <use xlink:href="#ma59c1cd0a7" x="630.981818" y="423.936" style="stroke: #000000; stroke-width: 0.8"/>
      </g>
     </g>
     <g id="text_28">
      <!-- 0.2 -->
      <g transform="translate(595.356193 430.774594) scale(0.18 -0.18)">
       <use xlink:href="#DejaVuSans-30"/>
       <use xlink:href="#DejaVuSans-2e" x="63.623047"/>
       <use xlink:href="#DejaVuSans-32" x="95.410156"/>
      </g>
     </g>
    </g>
    <g id="ytick_9">
     <g id="line2d_29">
      <g>
       <use xlink:href="#ma59c1cd0a7" x="630.981818" y="335.232" style="stroke: #000000; stroke-width: 0.8"/>
      </g>
     </g>
     <g id="text_29">
      <!-- 0.4 -->
      <g transform="translate(595.356193 342.070594) scale(0.18 -0.18)">
       <use xlink:href="#DejaVuSans-30"/>
       <use xlink:href="#DejaVuSans-2e" x="63.623047"/>
       <use xlink:href="#DejaVuSans-34" x="95.410156"/>
      </g>
     </g>
    </g>
    <g id="ytick_10">
     <g id="line2d_30">
      <g>
       <use xlink:href="#ma59c1cd0a7" x="630.981818" y="246.528" style="stroke: #000000; stroke-width: 0.8"/>
      </g>
     </g>
     <g id="text_30">
      <!-- 0.6 -->
      <g transform="translate(595.356193 253.366594) scale(0.18 -0.18)">
       <use xlink:href="#DejaVuSans-30"/>
       <use xlink:href="#DejaVuSans-2e" x="63.623047"/>
       <use xlink:href="#DejaVuSans-36" x="95.410156"/>
      </g>
     </g>
    </g>
    <g id="ytick_11">
     <g id="line2d_31">
      <g>
       <use xlink:href="#ma59c1cd0a7" x="630.981818" y="157.824" style="stroke: #000000; stroke-width: 0.8"/>
      </g>
     </g>
     <g id="text_31">
      <!-- 0.8 -->
      <g transform="translate(595.356193 164.662594) scale(0.18 -0.18)">
       <use xlink:href="#DejaVuSans-30"/>
       <use xlink:href="#DejaVuSans-2e" x="63.623047"/>
       <use xlink:href="#DejaVuSans-38" x="95.410156"/>
      </g>
     </g>
    </g>
    <g id="ytick_12">
     <g id="line2d_32">
      <g>
       <use xlink:href="#ma59c1cd0a7" x="630.981818" y="69.12" style="stroke: #000000; stroke-width: 0.8"/>
      </g>
     </g>
     <g id="text_32">
      <!-- 1.0 -->
      <g transform="translate(595.356193 75.958594) scale(0.18 -0.18)">
       <use xlink:href="#DejaVuSans-31"/>
       <use xlink:href="#DejaVuSans-2e" x="63.623047"/>
       <use xlink:href="#DejaVuSans-30" x="95.410156"/>
      </g>
     </g>
    </g>
    <g id="text_33">
     <!-- Precision -->
     <g transform="translate(586.364943 344.416875) rotate(-90) scale(0.24 -0.24)">
      <use xlink:href="#DejaVuSans-50"/>
      <use xlink:href="#DejaVuSans-72" x="58.552734"/>
      <use xlink:href="#DejaVuSans-65" x="97.416016"/>
      <use xlink:href="#DejaVuSans-63" x="158.939453"/>
      <use xlink:href="#DejaVuSans-69" x="213.919922"/>
      <use xlink:href="#DejaVuSans-73" x="241.703125"/>
      <use xlink:href="#DejaVuSans-69" x="293.802734"/>
      <use xlink:href="#DejaVuSans-6f" x="321.585938"/>
      <use xlink:href="#DejaVuSans-6e" x="382.767578"/>
     </g>
    </g>
   </g>
   <g id="line2d_33">
    <path d="M 632.201184 69.12 
L 728.803595 120.0576 
L 803.896482 165.6192 
L 857.794486 208.618467 
L 896.945622 245.037677 
L 925.394576 275.161328 
L 948.334676 299.368636 
L 965.01086 320.064859 
L 978.17987 337.497302 
L 987.391997 352.688108 
L 997.068272 364.795506 
L 1004.552029 375.476156 
L 1010.743278 384.807816 
L 1016.052424 392.946661 
L 1021.277294 400.002293 
L 1025.193307 406.435049 
L 1028.461376 412.256857 
L 1031.486305 417.414114 
L 1034.905159 421.950649 
L 1036.8 424.573221 
" clip-path="url(#p8ac57ef575)" style="fill: none; stroke: #537fbf; stroke-width: 1.5; stroke-linecap: square"/>
   </g>
   <g id="line2d_34">
    <path d="M 1035.918198 424.110235 
L 1035.339922 423.320097 
L 1034.301533 422.044032 
L 1032.098203 419.730169 
L 1029.139895 415.784613 
L 1024.335418 409.037094 
L 1017.281969 396.530954 
L 1005.193058 372.87849 
L 973.792878 330.313539 
L 900.864169 252.242699 
L 755.759052 141.611569 
L 641.728033 82.118715 
L 631.017891 69.12 
L 630.981818 69.12 
L 630.981818 69.12 
L 630.981818 69.12 
L 630.981818 69.12 
L 630.981818 69.12 
L 630.981818 69.12 
L 630.981818 69.12 
" clip-path="url(#p8ac57ef575)" style="fill: none; stroke-dasharray: 5.55,2.4; stroke-dashoffset: 0; stroke: #ff800e; stroke-width: 1.5"/>
   </g>
   <g id="line2d_35">
    <path d="M 1036.445196 423.772908 
L 1035.884865 423.144261 
L 1034.556128 421.920348 
L 1032.999451 419.205839 
L 1029.877734 414.075873 
L 1024.675245 405.209694 
L 1017.823045 391.422243 
L 1005.230141 368.960383 
L 977.005954 328.03738 
L 905.614028 254.430958 
L 762.187848 148.873684 
L 643.839403 73.68443 
L 630.981818 69.12 
L 630.981818 69.12 
L 630.981818 69.12 
L 630.981818 69.12 
L 630.981818 69.12 
L 630.981818 69.12 
L 630.981818 69.12 
L 630.981818 69.12 
" clip-path="url(#p8ac57ef575)" style="fill: none; stroke-dasharray: 9.6,2.4,1.5,2.4; stroke-dashoffset: 0; stroke: #eb1960; stroke-width: 1.5"/>
   </g>
   <g id="line2d_36">
    <path d="M 635.250719 420.38784 
L 656.401599 424.390892 
L 678.081112 423.501785 
L 700.395615 422.2728 
L 720.964758 423.529846 
L 742.497378 423.529822 
L 762.623585 424.309722 
L 786.39049 422.913585 
L 806.891077 423.470449 
L 827.592334 423.780379 
L 851.160255 422.860598 
L 870.819314 423.613551 
L 893.528641 423.159561 
L 916.347766 422.774277 
L 937.685217 422.8608 
L 958.374204 423.120228 
L 979.798351 423.136865 
L 1001.908421 422.997061 
L 1023.586634 422.962465 
L 1036.8 423.009134 
" clip-path="url(#p8ac57ef575)" style="fill: none; stroke-dasharray: 1.5,2.475; stroke-dashoffset: 0; stroke: #ff5733; stroke-width: 1.5"/>
   </g>
   <g id="patch_17">
    <path d="M 630.981818 512.64 
L 630.981818 69.12 
" style="fill: none; stroke: #000000; stroke-width: 0.8; stroke-linejoin: miter; stroke-linecap: square"/>
   </g>
   <g id="patch_18">
    <path d="M 1036.8 512.64 
L 1036.8 69.12 
" style="fill: none; stroke: #000000; stroke-width: 0.8; stroke-linejoin: miter; stroke-linecap: square"/>
   </g>
   <g id="patch_19">
    <path d="M 630.981818 512.64 
L 1036.8 512.64 
" style="fill: none; stroke: #000000; stroke-width: 0.8; stroke-linejoin: miter; stroke-linecap: square"/>
   </g>
   <g id="patch_20">
    <path d="M 630.981818 69.12 
L 1036.8 69.12 
" style="fill: none; stroke: #000000; stroke-width: 0.8; stroke-linejoin: miter; stroke-linecap: square"/>
   </g>
   <g id="text_34">
    <!-- Right Axis -->
    <g transform="translate(753.478409 62.465) scale(0.32 -0.32)">
     <defs>
      <path id="DejaVuSans-67" d="M 2906 1791 
Q 2906 2416 2648 2759 
Q 2391 3103 1925 3103 
Q 1463 3103 1205 2759 
Q 947 2416 947 1791 
Q 947 1169 1205 825 
Q 1463 481 1925 481 
Q 2391 481 2648 825 
Q 2906 1169 2906 1791 
z
M 3481 434 
Q 3481 -459 3084 -895 
Q 2688 -1331 1869 -1331 
Q 1566 -1331 1297 -1286 
Q 1028 -1241 775 -1147 
L 775 -588 
Q 1028 -725 1275 -790 
Q 1522 -856 1778 -856 
Q 2344 -856 2625 -561 
Q 2906 -266 2906 331 
L 2906 616 
Q 2728 306 2450 153 
Q 2172 0 1784 0 
Q 1141 0 747 490 
Q 353 981 353 1791 
Q 353 2603 747 3093 
Q 1141 3584 1784 3584 
Q 2172 3584 2450 3431 
Q 2728 3278 2906 2969 
L 2906 3500 
L 3481 3500 
L 3481 434 
z
" transform="scale(0.015625)"/>
      <path id="DejaVuSans-68" d="M 3513 2113 
L 3513 0 
L 2938 0 
L 2938 2094 
Q 2938 2591 2744 2837 
Q 2550 3084 2163 3084 
Q 1697 3084 1428 2787 
Q 1159 2491 1159 1978 
L 1159 0 
L 581 0 
L 581 4863 
L 1159 4863 
L 1159 2956 
Q 1366 3272 1645 3428 
Q 1925 3584 2291 3584 
Q 2894 3584 3203 3211 
Q 3513 2838 3513 2113 
z
" transform="scale(0.015625)"/>
     </defs>
     <use xlink:href="#DejaVuSans-52"/>
     <use xlink:href="#DejaVuSans-69" x="69.482422"/>
     <use xlink:href="#DejaVuSans-67" x="97.265625"/>
     <use xlink:href="#DejaVuSans-68" x="160.742188"/>
     <use xlink:href="#DejaVuSans-74" x="224.121094"/>
     <use xlink:href="#DejaVuSans-20" x="263.330078"/>
     <use xlink:href="#DejaVuSans-41" x="295.117188"/>
     <use xlink:href="#DejaVuSans-78" x="363.525391"/>
     <use xlink:href="#DejaVuSans-69" x="422.705078"/>
     <use xlink:href="#DejaVuSans-73" x="450.488281"/>
    </g>
   </g>
   <g id="legend_2">
    <g id="patch_21">
     <path d="M 878.3325 189.2025 
L 1024.2 189.2025 
Q 1027.8 189.2025 1027.8 185.6025 
L 1027.8 81.72 
Q 1027.8 78.12 1024.2 78.12 
L 878.3325 78.12 
Q 874.7325 78.12 874.7325 81.72 
L 874.7325 185.6025 
Q 874.7325 189.2025 878.3325 189.2025 
z
" style="fill: #ffffff; opacity: 0.8; stroke: #cccccc; stroke-linejoin: miter"/>
    </g>
    <g id="line2d_37">
     <path d="M 881.9325 92.697187 
L 899.9325 92.697187 
L 917.9325 92.697187 
" style="fill: none; stroke: #537fbf; stroke-width: 1.5; stroke-linecap: square"/>
    </g>
    <g id="text_35">
     <!-- GmGM -->
     <g transform="translate(932.3325 98.997187) scale(0.18 -0.18)">
      <use xlink:href="#DejaVuSans-47"/>
      <use xlink:href="#DejaVuSans-6d" x="77.490234"/>
      <use xlink:href="#DejaVuSans-47" x="174.902344"/>
      <use xlink:href="#DejaVuSans-4d" x="252.392578"/>
     </g>
    </g>
    <g id="line2d_38">
     <path d="M 881.9325 119.117812 
L 899.9325 119.117812 
L 917.9325 119.117812 
" style="fill: none; stroke-dasharray: 5.55,2.4; stroke-dashoffset: 0; stroke: #ff800e; stroke-width: 1.5"/>
    </g>
    <g id="text_36">
     <!-- TeraLasso -->
     <g transform="translate(932.3325 125.417812) scale(0.18 -0.18)">
      <use xlink:href="#DejaVuSans-54"/>
      <use xlink:href="#DejaVuSans-65" x="44.083984"/>
      <use xlink:href="#DejaVuSans-72" x="105.607422"/>
      <use xlink:href="#DejaVuSans-61" x="146.720703"/>
      <use xlink:href="#DejaVuSans-4c" x="208"/>
      <use xlink:href="#DejaVuSans-61" x="263.712891"/>
      <use xlink:href="#DejaVuSans-73" x="324.992188"/>
      <use xlink:href="#DejaVuSans-73" x="377.091797"/>
      <use xlink:href="#DejaVuSans-6f" x="429.191406"/>
     </g>
    </g>
    <g id="line2d_39">
     <path d="M 881.9325 145.538437 
L 899.9325 145.538437 
L 917.9325 145.538437 
" style="fill: none; stroke-dasharray: 9.6,2.4,1.5,2.4; stroke-dashoffset: 0; stroke: #eb1960; stroke-width: 1.5"/>
    </g>
    <g id="text_37">
     <!-- EiGLasso -->
     <g transform="translate(932.3325 151.838437) scale(0.18 -0.18)">
      <use xlink:href="#DejaVuSans-45"/>
      <use xlink:href="#DejaVuSans-69" x="63.183594"/>
      <use xlink:href="#DejaVuSans-47" x="90.966797"/>
      <use xlink:href="#DejaVuSans-4c" x="168.457031"/>
      <use xlink:href="#DejaVuSans-61" x="224.169922"/>
      <use xlink:href="#DejaVuSans-73" x="285.449219"/>
      <use xlink:href="#DejaVuSans-73" x="337.548828"/>
      <use xlink:href="#DejaVuSans-6f" x="389.648438"/>
     </g>
    </g>
    <g id="line2d_40">
     <path d="M 881.9325 171.959062 
L 899.9325 171.959062 
L 917.9325 171.959062 
" style="fill: none; stroke-dasharray: 1.5,2.475; stroke-dashoffset: 0; stroke: #ff5733; stroke-width: 1.5"/>
    </g>
    <g id="text_38">
     <!-- Random -->
     <g transform="translate(932.3325 178.259062) scale(0.18 -0.18)">
      <use xlink:href="#DejaVuSans-52"/>
      <use xlink:href="#DejaVuSans-61" x="67.232422"/>
      <use xlink:href="#DejaVuSans-6e" x="128.511719"/>
      <use xlink:href="#DejaVuSans-64" x="191.890625"/>
      <use xlink:href="#DejaVuSans-6f" x="255.367188"/>
      <use xlink:href="#DejaVuSans-6d" x="316.548828"/>
     </g>
    </g>
   </g>
  </g>
  <g id="text_39">
   <!-- PR curves on 50x50 matrix -->
   <g transform="translate(386.523125 32.795625) scale(0.28 -0.28)">
    <defs>
     <path id="DejaVuSans-75" d="M 544 1381 
L 544 3500 
L 1119 3500 
L 1119 1403 
Q 1119 906 1312 657 
Q 1506 409 1894 409 
Q 2359 409 2629 706 
Q 2900 1003 2900 1516 
L 2900 3500 
L 3475 3500 
L 3475 0 
L 2900 0 
L 2900 538 
Q 2691 219 2414 64 
Q 2138 -91 1772 -91 
Q 1169 -91 856 284 
Q 544 659 544 1381 
z
M 1991 3584 
L 1991 3584 
z
" transform="scale(0.015625)"/>
     <path id="DejaVuSans-76" d="M 191 3500 
L 800 3500 
L 1894 563 
L 2988 3500 
L 3597 3500 
L 2284 0 
L 1503 0 
L 191 3500 
z
" transform="scale(0.015625)"/>
     <path id="DejaVuSans-35" d="M 691 4666 
L 3169 4666 
L 3169 4134 
L 1269 4134 
L 1269 2991 
Q 1406 3038 1543 3061 
Q 1681 3084 1819 3084 
Q 2600 3084 3056 2656 
Q 3513 2228 3513 1497 
Q 3513 744 3044 326 
Q 2575 -91 1722 -91 
Q 1428 -91 1123 -41 
Q 819 9 494 109 
L 494 744 
Q 775 591 1075 516 
Q 1375 441 1709 441 
Q 2250 441 2565 725 
Q 2881 1009 2881 1497 
Q 2881 1984 2565 2268 
Q 2250 2553 1709 2553 
Q 1456 2553 1204 2497 
Q 953 2441 691 2322 
L 691 4666 
z
" transform="scale(0.015625)"/>
    </defs>
    <use xlink:href="#DejaVuSans-50"/>
    <use xlink:href="#DejaVuSans-52" x="60.302734"/>
    <use xlink:href="#DejaVuSans-20" x="129.785156"/>
    <use xlink:href="#DejaVuSans-63" x="161.572266"/>
    <use xlink:href="#DejaVuSans-75" x="216.552734"/>
    <use xlink:href="#DejaVuSans-72" x="279.931641"/>
    <use xlink:href="#DejaVuSans-76" x="321.044922"/>
    <use xlink:href="#DejaVuSans-65" x="380.224609"/>
    <use xlink:href="#DejaVuSans-73" x="441.748047"/>
    <use xlink:href="#DejaVuSans-20" x="493.847656"/>
    <use xlink:href="#DejaVuSans-6f" x="525.634766"/>
    <use xlink:href="#DejaVuSans-6e" x="586.816406"/>
    <use xlink:href="#DejaVuSans-20" x="650.195312"/>
    <use xlink:href="#DejaVuSans-35" x="681.982422"/>
    <use xlink:href="#DejaVuSans-30" x="745.605469"/>
    <use xlink:href="#DejaVuSans-78" x="809.228516"/>
    <use xlink:href="#DejaVuSans-35" x="868.408203"/>
    <use xlink:href="#DejaVuSans-30" x="932.03125"/>
    <use xlink:href="#DejaVuSans-20" x="995.654297"/>
    <use xlink:href="#DejaVuSans-6d" x="1027.441406"/>
    <use xlink:href="#DejaVuSans-61" x="1124.853516"/>
    <use xlink:href="#DejaVuSans-74" x="1186.132812"/>
    <use xlink:href="#DejaVuSans-72" x="1225.341797"/>
    <use xlink:href="#DejaVuSans-69" x="1266.455078"/>
    <use xlink:href="#DejaVuSans-78" x="1294.238281"/>
   </g>
  </g>
 </g>
 <defs>
  <clipPath id="pd80d690567">
   <rect x="144" y="69.12" width="405.818182" height="443.52"/>
  </clipPath>
  <clipPath id="p8ac57ef575">
   <rect x="630.981818" y="69.12" width="405.818182" height="443.52"/>
  </clipPath>
 </defs>
</svg>
